<svg width="117" height="135" viewBox="0 0 117 135" fill="none" xmlns="http://www.w3.org/2000/svg">
<rect width="117" height="108" rx="30" fill="white"/>
<path d="M34.5131 84.4054L81.3241 84.4054L57.9186 124.945L34.5131 84.4054Z" fill="white"/>
<path d="M40.5466 56V27.192L34.5666 28.596V23.5L43.3546 19.6H47.4626V56H40.5466ZM66.9484 56.624C64.4177 56.624 62.2857 56.1387 60.5524 55.168C58.819 54.1627 57.467 52.8627 56.4964 51.268C55.5257 49.6733 54.9537 47.9573 54.7804 46.12H60.9684C61.2457 47.7147 61.9044 48.9453 62.9444 49.812C64.019 50.6787 65.371 51.112 67.0004 51.112C69.323 51.112 71.195 50.0547 72.6164 47.94C74.0377 45.7907 74.8004 42.532 74.9044 38.164C74.0724 39.5853 72.807 40.764 71.1084 41.7C69.4444 42.636 67.607 43.104 65.5964 43.104C63.5857 43.104 61.6964 42.6187 59.9284 41.648C58.1604 40.6773 56.7217 39.308 55.6124 37.54C54.503 35.772 53.9484 33.692 53.9484 31.3C53.9484 29.116 54.4857 27.088 55.5604 25.216C56.635 23.344 58.1257 21.836 60.0324 20.692C61.939 19.548 64.175 18.976 66.7404 18.976C69.479 18.976 71.7844 19.4787 73.6564 20.484C75.5284 21.4893 77.019 22.8413 78.1284 24.54C79.2724 26.2387 80.087 28.128 80.5724 30.208C81.0924 32.288 81.3524 34.42 81.3524 36.604C81.3524 40.66 80.7804 44.196 79.6364 47.212C78.527 50.1933 76.8804 52.516 74.6964 54.18C72.547 55.8093 69.9644 56.624 66.9484 56.624ZM67.1564 37.488C68.439 37.488 69.6004 37.2107 70.6404 36.656C71.6804 36.0667 72.495 35.304 73.0844 34.368C73.6737 33.3973 73.9684 32.3227 73.9684 31.144C73.9684 29.272 73.3097 27.7293 71.9924 26.516C70.7097 25.3027 69.0804 24.696 67.1044 24.696C65.163 24.696 63.551 25.3027 62.2684 26.516C60.9857 27.6947 60.3444 29.2027 60.3444 31.04C60.3444 32.9813 60.9857 34.5413 62.2684 35.72C63.551 36.8987 65.1804 37.488 67.1564 37.488Z" fill="black"/>
<path d="M18.3492 96.192C17.5812 96.192 16.8825 96.0427 16.2532 95.744C15.6345 95.4347 15.1385 94.96 14.7652 94.32C14.3919 93.68 14.2052 92.864 14.2052 91.872V84.8H15.5492V91.888C15.5492 92.976 15.8105 93.7653 16.3332 94.256C16.8559 94.7467 17.5385 94.992 18.3812 94.992C19.2239 94.992 19.9012 94.7467 20.4132 94.256C20.9252 93.7653 21.1812 92.976 21.1812 91.888V84.8H22.5252V91.872C22.5252 92.864 22.3385 93.68 21.9652 94.32C21.5919 94.96 21.0905 95.4347 20.4612 95.744C19.8319 96.0427 19.1279 96.192 18.3492 96.192ZM24.8012 96V84.8H26.1452L32.1132 93.776V84.8H33.4572V96H32.1132L26.1452 87.024V96H24.8012ZM35.8324 96V84.8H42.6484V85.904H37.1764V89.84H41.8324V90.928H37.1764V96H35.8324ZM44.3793 96V84.8H51.3073V85.904H45.7233V89.808H50.8273V90.896H45.7233V94.896H51.3073V96H44.3793ZM52.7066 96L56.8346 84.8H58.2586L62.3706 96H60.9466L59.9226 93.12H55.1546L54.1146 96H52.7066ZM55.5546 92.032H59.5226L57.5386 86.496L55.5546 92.032ZM67.6036 96.192C66.7822 96.192 66.0676 96.0427 65.4596 95.744C64.8516 95.4453 64.3822 95.0293 64.0516 94.496C63.7209 93.9627 63.5556 93.344 63.5556 92.64H64.9636C64.9636 93.0773 65.0649 93.4827 65.2676 93.856C65.4702 94.2187 65.7636 94.512 66.1476 94.736C66.5422 94.9493 67.0276 95.056 67.6036 95.056C68.3609 95.056 68.9476 94.8747 69.3636 94.512C69.7796 94.1493 69.9876 93.696 69.9876 93.152C69.9876 92.704 69.8916 92.3467 69.6996 92.08C69.5076 91.8027 69.2462 91.5787 68.9156 91.408C68.5956 91.2373 68.2222 91.088 67.7956 90.96C67.3796 90.832 66.9422 90.688 66.4836 90.528C65.6196 90.2293 64.9796 89.8613 64.5636 89.424C64.1476 88.976 63.9396 88.3947 63.9396 87.68C63.9289 87.0827 64.0676 86.5547 64.3556 86.096C64.6436 85.6267 65.0489 85.264 65.5716 85.008C66.1049 84.7413 66.7342 84.608 67.4596 84.608C68.1742 84.608 68.7929 84.7413 69.3156 85.008C69.8489 85.2747 70.2596 85.6427 70.5476 86.112C70.8462 86.5813 71.0009 87.1147 71.0116 87.712H69.6036C69.6036 87.4027 69.5236 87.0987 69.3636 86.8C69.2036 86.4907 68.9582 86.24 68.6276 86.048C68.3076 85.856 67.9022 85.76 67.4116 85.76C66.8036 85.7493 66.3022 85.904 65.9076 86.224C65.5236 86.544 65.3316 86.9867 65.3316 87.552C65.3316 88.032 65.4649 88.4 65.7316 88.656C66.0089 88.912 66.3929 89.1253 66.8836 89.296C67.3742 89.456 67.9396 89.6427 68.5796 89.856C69.1129 90.048 69.5929 90.272 70.0196 90.528C70.4462 90.784 70.7769 91.1147 71.0116 91.52C71.2569 91.9253 71.3796 92.4427 71.3796 93.072C71.3796 93.6053 71.2409 94.112 70.9636 94.592C70.6862 95.0613 70.2649 95.4453 69.6996 95.744C69.1449 96.0427 68.4462 96.192 67.6036 96.192ZM73.2856 96V84.8H74.6296V96H73.2856ZM77.0043 96V84.8H80.9403C81.7296 84.8 82.3803 84.928 82.8923 85.184C83.415 85.4293 83.8043 85.7707 84.0603 86.208C84.3163 86.6347 84.4443 87.1147 84.4443 87.648C84.4443 88.3733 84.247 88.944 83.8523 89.36C83.4683 89.776 83.0043 90.064 82.4603 90.224C82.8763 90.2987 83.255 90.464 83.5963 90.72C83.9376 90.976 84.2043 91.296 84.3963 91.68C84.599 92.064 84.7003 92.4853 84.7003 92.944C84.7003 93.5093 84.5616 94.0267 84.2843 94.496C84.007 94.9547 83.5963 95.3227 83.0523 95.6C82.5083 95.8667 81.847 96 81.0683 96H77.0043ZM78.3483 89.696H80.8443C81.559 89.696 82.1083 89.5307 82.4923 89.2C82.8763 88.8587 83.0683 88.3893 83.0683 87.792C83.0683 87.2267 82.8763 86.7733 82.4923 86.432C82.119 86.0907 81.5536 85.92 80.7963 85.92H78.3483V89.696ZM78.3483 94.88H80.9243C81.6923 94.88 82.2843 94.704 82.7003 94.352C83.1163 93.9893 83.3243 93.488 83.3243 92.848C83.3243 92.2187 83.1056 91.7173 82.6683 91.344C82.231 90.96 81.639 90.768 80.8923 90.768H78.3483V94.88ZM86.6293 96V84.8H87.9733V94.928H93.1893V96H86.6293ZM95.0356 96V84.8H101.964V85.904H96.3796V89.808H101.484V90.896H96.3796V94.896H101.964V96H95.0356Z" fill="black"/>
<rect x="48" y="68" width="21" height="8" rx="4" fill="#F14624"/>
</svg>
