<svg width="117" height="135" viewBox="0 0 117 135" fill="none" xmlns="http://www.w3.org/2000/svg">
<rect width="117" height="108" rx="30" fill="white"/>
<path d="M34.5131 84.4054L81.3241 84.4054L57.9186 124.945L34.5131 84.4054Z" fill="white"/>
<path d="M45.6682 56V49.24H27.7282V43.936L44.7842 19.6H52.3242V43.468H57.1082V49.24H52.3242V56H45.6682ZM34.8522 43.468H46.0842V26.932L34.8522 43.468ZM75.1847 56.624C72.6887 56.624 70.4354 56.1907 68.4247 55.324C66.414 54.4227 64.802 53.1573 63.5887 51.528C62.41 49.8987 61.8207 48.0093 61.8207 45.86C61.8207 43.6413 62.3927 41.7 63.5367 40.036C64.7154 38.372 66.258 37.176 68.1647 36.448C66.5007 35.72 65.1834 34.68 64.2127 33.328C63.242 31.9413 62.7567 30.3987 62.7567 28.7C62.7567 26.9667 63.2247 25.372 64.1607 23.916C65.0967 22.4253 66.4834 21.2293 68.3207 20.328C70.1927 19.4267 72.4807 18.976 75.1847 18.976C77.8887 18.976 80.1594 19.4267 81.9967 20.328C83.834 21.2293 85.2207 22.4253 86.1567 23.916C87.0927 25.372 87.5607 26.9667 87.5607 28.7C87.5607 30.364 87.058 31.9067 86.0527 33.328C85.082 34.7147 83.782 35.7547 82.1527 36.448C84.094 37.176 85.6367 38.372 86.7807 40.036C87.9247 41.7 88.4967 43.6413 88.4967 45.86C88.4967 48.0093 87.9074 49.8987 86.7287 51.528C85.55 53.1573 83.938 54.4227 81.8927 55.324C79.882 56.1907 77.646 56.624 75.1847 56.624ZM75.1847 34.472C76.9874 34.472 78.4087 34.004 79.4487 33.068C80.4887 32.132 81.0087 30.936 81.0087 29.48C81.0087 27.8853 80.4887 26.6373 79.4487 25.736C78.4434 24.8347 77.022 24.384 75.1847 24.384C73.3127 24.384 71.874 24.8347 70.8687 25.736C69.8634 26.6373 69.3607 27.8853 69.3607 29.48C69.3607 30.9707 69.8634 32.184 70.8687 33.12C71.9087 34.0213 73.3474 34.472 75.1847 34.472ZM75.1847 51.06C77.4034 51.06 79.0847 50.5227 80.2287 49.448C81.3727 48.3387 81.9447 46.952 81.9447 45.288C81.9447 43.4507 81.338 42.012 80.1247 40.972C78.946 39.932 77.2994 39.412 75.1847 39.412C73.07 39.412 71.3887 39.932 70.1407 40.972C68.9274 42.012 68.3207 43.4507 68.3207 45.288C68.3207 46.952 68.8927 48.3387 70.0367 49.448C71.2154 50.5227 72.9314 51.06 75.1847 51.06Z" fill="black"/>
<path d="M42.1996 95V83.8H43.5436V93.928H48.7596V95H42.1996ZM54.647 95.192C53.5483 95.192 52.583 94.952 51.751 94.472C50.9297 93.9813 50.2843 93.2987 49.815 92.424C49.3563 91.5493 49.127 90.5413 49.127 89.4C49.127 88.2587 49.3563 87.256 49.815 86.392C50.2843 85.5173 50.9297 84.8347 51.751 84.344C52.583 83.8533 53.5483 83.608 54.647 83.608C55.7563 83.608 56.7217 83.8533 57.543 84.344C58.375 84.8347 59.0203 85.5173 59.479 86.392C59.9377 87.256 60.167 88.2587 60.167 89.4C60.167 90.5413 59.9377 91.5493 59.479 92.424C59.0203 93.2987 58.375 93.9813 57.543 94.472C56.7217 94.952 55.7563 95.192 54.647 95.192ZM54.647 94.008C55.4683 94.008 56.1883 93.8267 56.807 93.464C57.4363 93.0907 57.9217 92.5627 58.263 91.88C58.615 91.1867 58.791 90.36 58.791 89.4C58.791 88.44 58.615 87.6187 58.263 86.936C57.9217 86.2533 57.4363 85.7307 56.807 85.368C56.1883 84.9947 55.4683 84.808 54.647 84.808C53.8257 84.808 53.1003 84.9947 52.471 85.368C51.8523 85.7307 51.367 86.2533 51.015 86.936C50.6737 87.6187 50.503 88.44 50.503 89.4C50.503 90.36 50.6737 91.1867 51.015 91.88C51.367 92.5627 51.8523 93.0907 52.471 93.464C53.1003 93.8267 53.8257 94.008 54.647 94.008ZM64.0036 95.016L60.9316 83.8H62.3716L64.7876 93.416L67.5396 83.8H69.0276L71.6996 93.416L74.1476 83.8H75.5876L72.4516 95H70.9156L68.2436 85.752L65.5076 95L64.0036 95.016Z" fill="black"/>
<rect x="43" y="64" width="31" height="8" rx="4" fill="#F68712"/>
</svg>
