<svg width="117" height="135" viewBox="0 0 117 135" fill="none" xmlns="http://www.w3.org/2000/svg">
<rect width="117" height="108" rx="30" fill="white"/>
<path d="M34.5131 84.4054L81.3241 84.4054L57.9186 124.945L34.5131 84.4054Z" fill="white"/>
<path d="M41.2745 56.624C38.5358 56.624 36.2305 56.1213 34.3585 55.116C32.4865 54.1107 30.9785 52.7587 29.8345 51.06C28.6905 49.3613 27.8585 47.472 27.3385 45.392C26.8532 43.312 26.6105 41.18 26.6105 38.996C26.6105 34.94 27.1825 31.4213 28.3265 28.44C29.4705 25.424 31.1172 23.1013 33.2665 21.472C35.4158 19.808 38.0158 18.976 41.0665 18.976C43.5625 18.976 45.6772 19.4787 47.4105 20.484C49.1785 21.4547 50.5478 22.7373 51.5185 24.332C52.4892 25.9267 53.0612 27.6427 53.2345 29.48H47.0465C46.7345 27.8853 46.0585 26.6547 45.0185 25.788C43.9785 24.9213 42.6438 24.488 41.0145 24.488C38.6918 24.488 36.8198 25.5627 35.3985 27.712C33.9772 29.8267 33.2145 33.068 33.1105 37.436C33.9425 36.0147 35.1905 34.836 36.8545 33.9C38.5185 32.964 40.3732 32.496 42.4185 32.496C44.4292 32.496 46.3185 32.9813 48.0865 33.952C49.8545 34.9227 51.2758 36.292 52.3505 38.06C53.4598 39.828 54.0145 41.908 54.0145 44.3C54.0145 46.484 53.4772 48.512 52.4025 50.384C51.3625 52.256 49.8718 53.764 47.9305 54.908C46.0238 56.052 43.8052 56.624 41.2745 56.624ZM40.9105 50.904C42.8518 50.904 44.4465 50.3147 45.6945 49.136C46.9772 47.9227 47.6185 46.3973 47.6185 44.56C47.6185 42.6187 46.9772 41.0587 45.6945 39.88C44.4118 38.7013 42.7825 38.112 40.8065 38.112C39.5238 38.112 38.3625 38.4067 37.3225 38.996C36.3172 39.5507 35.5198 40.3133 34.9305 41.284C34.3412 42.22 34.0465 43.2773 34.0465 44.456C34.0465 46.328 34.6878 47.8707 35.9705 49.084C37.2878 50.2973 38.9345 50.904 40.9105 50.904ZM75.4795 56.624C72.1169 56.624 69.2395 55.844 66.8475 54.284C64.4555 52.6893 62.6009 50.488 61.2835 47.68C60.0009 44.8373 59.3595 41.544 59.3595 37.8C59.3595 34.0907 60.0009 30.8147 61.2835 27.972C62.6009 25.1293 64.4555 22.928 66.8475 21.368C69.2395 19.7733 72.1169 18.976 75.4795 18.976C78.8422 18.976 81.7195 19.7733 84.1115 21.368C86.5035 22.928 88.3409 25.1293 89.6235 27.972C90.9409 30.8147 91.5995 34.0907 91.5995 37.8C91.5995 41.544 90.9409 44.8373 89.6235 47.68C88.3409 50.488 86.5035 52.6893 84.1115 54.284C81.7195 55.844 78.8422 56.624 75.4795 56.624ZM75.4795 50.644C78.2182 50.644 80.4542 49.5 82.1875 47.212C83.9209 44.924 84.7875 41.7867 84.7875 37.8C84.7875 33.8133 83.9209 30.676 82.1875 28.388C80.4542 26.1 78.2182 24.956 75.4795 24.956C72.7062 24.956 70.4529 26.1 68.7195 28.388C67.0209 30.676 66.1715 33.8133 66.1715 37.8C66.1715 41.7867 67.0209 44.924 68.7195 47.212C70.4529 49.5 72.7062 50.644 75.4795 50.644Z" fill="black"/>
<path d="M40.3281 95.192C39.2828 95.192 38.3655 94.952 37.5761 94.472C36.7868 93.9813 36.1735 93.304 35.7361 92.44C35.2988 91.5653 35.0801 90.5573 35.0801 89.416C35.0801 88.2747 35.2988 87.2667 35.7361 86.392C36.1841 85.5173 36.8135 84.8347 37.6241 84.344C38.4455 83.8533 39.4108 83.608 40.5201 83.608C41.7788 83.608 42.8241 83.912 43.6561 84.52C44.4988 85.128 45.0428 85.9653 45.2881 87.032H43.7361C43.5868 86.36 43.2295 85.8267 42.6641 85.432C42.1095 85.0373 41.3948 84.84 40.5201 84.84C39.6988 84.84 38.9841 85.0267 38.3761 85.4C37.7681 85.7627 37.2935 86.2853 36.9521 86.968C36.6215 87.6507 36.4561 88.4667 36.4561 89.416C36.4561 90.3653 36.6215 91.1813 36.9521 91.864C37.2828 92.5467 37.7415 93.0747 38.3281 93.448C38.9148 93.8107 39.5975 93.992 40.3761 93.992C41.5708 93.992 42.4721 93.6453 43.0801 92.952C43.6881 92.248 44.0348 91.288 44.1201 90.072H40.8881V89.016H45.4961V95H44.2641L44.1521 93.16C43.7468 93.8107 43.2508 94.312 42.6641 94.664C42.0775 95.016 41.2988 95.192 40.3281 95.192ZM52.7095 95.192C51.6108 95.192 50.6455 94.952 49.8135 94.472C48.9922 93.9813 48.3468 93.2987 47.8775 92.424C47.4188 91.5493 47.1895 90.5413 47.1895 89.4C47.1895 88.2587 47.4188 87.256 47.8775 86.392C48.3468 85.5173 48.9922 84.8347 49.8135 84.344C50.6455 83.8533 51.6108 83.608 52.7095 83.608C53.8188 83.608 54.7842 83.8533 55.6055 84.344C56.4375 84.8347 57.0828 85.5173 57.5415 86.392C58.0002 87.256 58.2295 88.2587 58.2295 89.4C58.2295 90.5413 58.0002 91.5493 57.5415 92.424C57.0828 93.2987 56.4375 93.9813 55.6055 94.472C54.7842 94.952 53.8188 95.192 52.7095 95.192ZM52.7095 94.008C53.5308 94.008 54.2508 93.8267 54.8695 93.464C55.4988 93.0907 55.9842 92.5627 56.3255 91.88C56.6775 91.1867 56.8535 90.36 56.8535 89.4C56.8535 88.44 56.6775 87.6187 56.3255 86.936C55.9842 86.2533 55.4988 85.7307 54.8695 85.368C54.2508 84.9947 53.5308 84.808 52.7095 84.808C51.8882 84.808 51.1628 84.9947 50.5335 85.368C49.9148 85.7307 49.4295 86.2533 49.0775 86.936C48.7362 87.6187 48.5655 88.44 48.5655 89.4C48.5655 90.36 48.7362 91.1867 49.0775 91.88C49.4295 92.5627 49.9148 93.0907 50.5335 93.464C51.1628 93.8267 51.8882 94.008 52.7095 94.008ZM65.2564 95.192C64.1577 95.192 63.1924 94.952 62.3604 94.472C61.539 93.9813 60.8937 93.2987 60.4244 92.424C59.9657 91.5493 59.7364 90.5413 59.7364 89.4C59.7364 88.2587 59.9657 87.256 60.4244 86.392C60.8937 85.5173 61.539 84.8347 62.3604 84.344C63.1924 83.8533 64.1577 83.608 65.2564 83.608C66.3657 83.608 67.331 83.8533 68.1524 84.344C68.9844 84.8347 69.6297 85.5173 70.0884 86.392C70.547 87.256 70.7764 88.2587 70.7764 89.4C70.7764 90.5413 70.547 91.5493 70.0884 92.424C69.6297 93.2987 68.9844 93.9813 68.1524 94.472C67.331 94.952 66.3657 95.192 65.2564 95.192ZM65.2564 94.008C66.0777 94.008 66.7977 93.8267 67.4164 93.464C68.0457 93.0907 68.531 92.5627 68.8724 91.88C69.2244 91.1867 69.4004 90.36 69.4004 89.4C69.4004 88.44 69.2244 87.6187 68.8724 86.936C68.531 86.2533 68.0457 85.7307 67.4164 85.368C66.7977 84.9947 66.0777 84.808 65.2564 84.808C64.435 84.808 63.7097 84.9947 63.0804 85.368C62.4617 85.7307 61.9764 86.2533 61.6244 86.936C61.283 87.6187 61.1124 88.44 61.1124 89.4C61.1124 90.36 61.283 91.1867 61.6244 91.88C61.9764 92.5627 62.4617 93.0907 63.0804 93.464C63.7097 93.8267 64.435 94.008 65.2564 94.008ZM72.7153 95V83.8H76.1553C78.1286 83.8 79.5793 84.3013 80.5073 85.304C81.4459 86.3067 81.9153 87.6827 81.9153 89.432C81.9153 91.1493 81.4459 92.5093 80.5073 93.512C79.5793 94.504 78.1286 95 76.1553 95H72.7153ZM74.0593 93.88H76.1233C77.2113 93.88 78.0753 93.704 78.7153 93.352C79.3659 92.9893 79.8299 92.4773 80.1073 91.816C80.3846 91.144 80.5233 90.3493 80.5233 89.432C80.5233 88.4933 80.3846 87.688 80.1073 87.016C79.8299 86.344 79.3659 85.8267 78.7153 85.464C78.0753 85.1013 77.2113 84.92 76.1233 84.92H74.0593V93.88Z" fill="black"/>
<rect x="33" y="67" width="51" height="8" rx="4" fill="#BCD656"/>
</svg>
