<svg width="117" height="135" viewBox="0 0 117 135" fill="none" xmlns="http://www.w3.org/2000/svg">
<rect width="117" height="108" rx="30" fill="white"/>
<path d="M34.5131 84.4054L81.3241 84.4054L57.9186 124.945L34.5131 84.4054Z" fill="white"/>
<path d="M40.0265 56.624C37.4958 56.624 35.3638 56.1387 33.6305 55.168C31.8972 54.1627 30.5452 52.8627 29.5745 51.268C28.6038 49.6733 28.0318 47.9573 27.8585 46.12H34.0465C34.3238 47.7147 34.9825 48.9453 36.0225 49.812C37.0972 50.6787 38.4492 51.112 40.0785 51.112C42.4012 51.112 44.2732 50.0547 45.6945 47.94C47.1158 45.7907 47.8785 42.532 47.9825 38.164C47.1505 39.5853 45.8852 40.764 44.1865 41.7C42.5225 42.636 40.6852 43.104 38.6745 43.104C36.6638 43.104 34.7745 42.6187 33.0065 41.648C31.2385 40.6773 29.7998 39.308 28.6905 37.54C27.5812 35.772 27.0265 33.692 27.0265 31.3C27.0265 29.116 27.5638 27.088 28.6385 25.216C29.7132 23.344 31.2038 21.836 33.1105 20.692C35.0172 19.548 37.2532 18.976 39.8185 18.976C42.5572 18.976 44.8625 19.4787 46.7345 20.484C48.6065 21.4893 50.0972 22.8413 51.2065 24.54C52.3505 26.2387 53.1652 28.128 53.6505 30.208C54.1705 32.288 54.4305 34.42 54.4305 36.604C54.4305 40.66 53.8585 44.196 52.7145 47.212C51.6052 50.1933 49.9585 52.516 47.7745 54.18C45.6252 55.8093 43.0425 56.624 40.0265 56.624ZM40.2345 37.488C41.5172 37.488 42.6785 37.2107 43.7185 36.656C44.7585 36.0667 45.5732 35.304 46.1625 34.368C46.7518 33.3973 47.0465 32.3227 47.0465 31.144C47.0465 29.272 46.3878 27.7293 45.0705 26.516C43.7878 25.3027 42.1585 24.696 40.1825 24.696C38.2412 24.696 36.6292 25.3027 35.3465 26.516C34.0638 27.6947 33.4225 29.2027 33.4225 31.04C33.4225 32.9813 34.0638 34.5413 35.3465 35.72C36.6292 36.8987 38.2585 37.488 40.2345 37.488ZM75.4795 56.624C72.1169 56.624 69.2395 55.844 66.8475 54.284C64.4555 52.6893 62.6009 50.488 61.2835 47.68C60.0009 44.8373 59.3595 41.544 59.3595 37.8C59.3595 34.0907 60.0009 30.8147 61.2835 27.972C62.6009 25.1293 64.4555 22.928 66.8475 21.368C69.2395 19.7733 72.1169 18.976 75.4795 18.976C78.8422 18.976 81.7195 19.7733 84.1115 21.368C86.5035 22.928 88.3409 25.1293 89.6235 27.972C90.9409 30.8147 91.5995 34.0907 91.5995 37.8C91.5995 41.544 90.9409 44.8373 89.6235 47.68C88.3409 50.488 86.5035 52.6893 84.1115 54.284C81.7195 55.844 78.8422 56.624 75.4795 56.624ZM75.4795 50.644C78.2182 50.644 80.4542 49.5 82.1875 47.212C83.9209 44.924 84.7875 41.7867 84.7875 37.8C84.7875 33.8133 83.9209 30.676 82.1875 28.388C80.4542 26.1 78.2182 24.956 75.4795 24.956C72.7062 24.956 70.4529 26.1 68.7195 28.388C67.0209 30.676 66.1715 33.8133 66.1715 37.8C66.1715 41.7867 67.0209 44.924 68.7195 47.212C70.4529 49.5 72.7062 50.644 75.4795 50.644Z" fill="black"/>
<path d="M18.5434 95V83.8H25.4714V84.904H19.8874V88.808H24.9914V89.896H19.8874V93.896H25.4714V95H18.5434ZM26.9986 95L30.4226 89.352L26.9986 83.8H28.5186L31.2706 88.28L33.8946 83.8H35.3986L31.9746 89.416L35.4146 95H33.8946L31.1266 90.504L28.5186 95H26.9986ZM41.3616 95.192C40.263 95.192 39.3136 94.952 38.5136 94.472C37.7243 93.9813 37.111 93.304 36.6736 92.44C36.2363 91.5653 36.0176 90.552 36.0176 89.4C36.0176 88.2587 36.2363 87.256 36.6736 86.392C37.111 85.5173 37.7243 84.8347 38.5136 84.344C39.3136 83.8533 40.263 83.608 41.3616 83.608C42.6416 83.608 43.6816 83.9173 44.4816 84.536C45.2923 85.144 45.8096 85.9973 46.0336 87.096H44.5456C44.375 86.4027 44.023 85.848 43.4896 85.432C42.967 85.0053 42.2576 84.792 41.3616 84.792C40.5616 84.792 39.863 84.9787 39.2656 85.352C38.6683 85.7147 38.2043 86.2427 37.8736 86.936C37.5536 87.6187 37.3936 88.44 37.3936 89.4C37.3936 90.36 37.5536 91.1867 37.8736 91.88C38.2043 92.5627 38.6683 93.0907 39.2656 93.464C39.863 93.8267 40.5616 94.008 41.3616 94.008C42.2576 94.008 42.967 93.8053 43.4896 93.4C44.023 92.984 44.375 92.4347 44.5456 91.752H46.0336C45.8096 92.8293 45.2923 93.672 44.4816 94.28C43.6816 94.888 42.6416 95.192 41.3616 95.192ZM47.9653 95V83.8H54.8933V84.904H49.3093V88.808H54.4133V89.896H49.3093V93.896H54.8933V95H47.9653ZM56.9965 95V83.8H58.3405V93.928H63.5565V95H56.9965ZM65.4028 95V83.8H66.7468V93.928H71.9628V95H65.4028ZM73.809 95V83.8H80.737V84.904H75.153V88.808H80.257V89.896H75.153V93.896H80.737V95H73.809ZM82.8403 95V83.8H84.1843L90.1523 92.776V83.8H91.4963V95H90.1523L84.1843 86.024V95H82.8403ZM96.4955 95V84.904H93.1515V83.8H101.184V84.904H97.8395V95H96.4955Z" fill="black"/>
<rect x="23" y="65" width="71" height="8" rx="4" fill="#68D656"/>
</svg>
