<svg width="40" height="40" viewBox="0 0 40 40" fill="none" xmlns="http://www.w3.org/2000/svg">
<path opacity="0.5" d="M36.6666 19.9585V23.3334C36.6666 28.0474 36.6666 30.4044 35.2021 31.8689C33.7377 33.3334 31.3806 33.3334 26.6666 33.3334H13.3333C8.61921 33.3334 6.26218 33.3334 4.79772 31.8689C3.33325 30.4044 3.33325 28.0474 3.33325 23.3334V19.9585C3.33325 16.8825 3.33325 15.3444 3.98691 14.195C4.43172 13.4128 5.07937 12.7652 5.86156 12.3204C7.01097 11.6667 8.549 11.6667 11.625 11.6667H12.091C12.2959 11.6667 12.3983 11.6667 12.4929 11.6559C12.986 11.5994 13.4283 11.326 13.6994 10.9102C13.7514 10.8305 13.7972 10.7389 13.8888 10.5557L13.8888 10.5556C14.0721 10.1891 14.1637 10.0058 14.2676 9.84641C14.8098 9.01474 15.6944 8.468 16.6807 8.35503C16.8698 8.33337 17.0747 8.33337 17.4844 8.33337H22.5154C22.9252 8.33337 23.1301 8.33337 23.3191 8.35503C24.3054 8.468 25.1901 9.01474 25.7322 9.84641C25.8361 10.0058 25.9278 10.1891 26.111 10.5556L26.111 10.5556C26.2027 10.7389 26.2485 10.8305 26.3004 10.9102C26.5715 11.326 27.0138 11.5994 27.507 11.6559C27.6015 11.6667 27.704 11.6667 27.9088 11.6667H28.3748C31.4508 11.6667 32.9889 11.6667 34.1383 12.3204C34.9205 12.7652 35.5681 13.4128 36.0129 14.195C36.6666 15.3444 36.6666 16.8825 36.6666 19.9585Z" fill="#1C274C"/>
<path fill-rule="evenodd" clip-rule="evenodd" d="M27.5 18.75C28.1904 18.75 28.75 19.3096 28.75 20V21.25H30C30.6904 21.25 31.25 21.8097 31.25 22.5C31.25 23.1904 30.6904 23.75 30 23.75H28.75V25C28.75 25.6904 28.1904 26.25 27.5 26.25C26.8096 26.25 26.25 25.6904 26.25 25V23.75H25C24.3096 23.75 23.75 23.1904 23.75 22.5C23.75 21.8097 24.3096 21.25 25 21.25H26.25V20C26.25 19.3096 26.8096 18.75 27.5 18.75ZM8.75 22.5C8.75 21.8096 9.30964 21.25 10 21.25H15C15.6904 21.25 16.25 21.8096 16.25 22.5C16.25 23.1904 15.6904 23.75 15 23.75H10C9.30964 23.75 8.75 23.1904 8.75 22.5Z" fill="#1C274C"/>
<path d="M31.7402 5.41663C32.4615 5.41655 33.1229 5.41647 33.6609 5.4888C34.2534 5.56846 34.8796 5.75587 35.3946 6.27091C35.9097 6.78595 36.0971 7.41216 36.1767 8.00463C36.2491 8.54261 36.249 12.5374 36.2489 13.2587L36.2489 14.6982C36.1817 14.5209 36.1037 14.3542 36.0131 14.1949C35.5683 13.4127 34.9206 12.7651 34.1384 12.3203C32.989 11.6666 31.451 11.6666 28.375 11.6666H27.909C27.7041 11.6666 27.6017 11.6666 27.5071 11.6558C27.3809 11.6413 27.258 11.6127 27.1404 11.571V8.11827C27.1447 8.07981 27.1494 8.04192 27.1544 8.00463C27.2341 7.41216 27.4215 6.78595 27.9365 6.27091C28.4515 5.75587 29.0778 5.56846 29.6702 5.4888C30.2082 5.41647 30.8696 5.41655 31.591 5.41663H31.7402Z" fill="#1C274C"/>
<path d="M8.31516 5.41663C7.5938 5.41655 6.93242 5.41647 6.3944 5.4888C5.80193 5.56846 5.17572 5.75587 4.66068 6.27091C4.14564 6.78595 3.95823 7.41216 3.87857 8.00463C3.80624 8.54261 3.80632 12.5374 3.8064 13.2587L3.8064 14.5604C3.86021 14.4337 3.92014 14.3123 3.98688 14.1949C4.4317 13.4127 5.07935 12.7651 5.86153 12.3203C7.01095 11.6666 8.54897 11.6666 11.625 11.6666H12.091C12.2959 11.6666 12.3983 11.6666 12.4928 11.6558C12.639 11.6391 12.7808 11.6032 12.9149 11.5503V8.11827C12.9106 8.07981 12.9059 8.04192 12.9009 8.00463C12.8213 7.41216 12.6338 6.78595 12.1188 6.27091C11.6038 5.75587 10.9776 5.56846 10.3851 5.4888C9.84707 5.41647 9.18568 5.41655 8.46432 5.41663H8.31516Z" fill="#1C274C"/>
</svg>
