<?xml version="1.0" encoding="UTF-8"?>
<!DOCTYPE svg PUBLIC "-//W3C//DTD SVG 1.1//EN" "http://www.w3.org/Graphics/SVG/1.1/DTD/svg11.dtd">
<svg xmlns="http://www.w3.org/2000/svg" version="1.1" width="512px" height="512px" style="shape-rendering:geometricPrecision; text-rendering:geometricPrecision; image-rendering:optimizeQuality; fill-rule:evenodd; clip-rule:evenodd" xmlns:xlink="http://www.w3.org/1999/xlink">
<g><path style="opacity:0.932" fill="#000000" d="M 32.5,92.5 C 182.543,92.006 332.543,92.506 482.5,94C 489.333,96.8333 494.167,101.667 497,108.5C 499.761,121.011 501.427,133.678 502,146.5C 503.23,189.554 502.23,232.554 499,275.5C 497.862,294.632 488.028,306.466 469.5,311C 326.833,311.667 184.167,311.667 41.5,311C 26,307.5 16.5,298 13,282.5C 7.96646,229.551 7.29979,176.551 11,123.5C 11.1095,107.944 18.2762,97.6108 32.5,92.5 Z M 34.5,107.5 C 181.834,107.333 329.167,107.5 476.5,108C 479.333,109.5 481.5,111.667 483,114.5C 485.063,125.068 486.397,135.735 487,146.5C 488.425,189.08 487.425,231.747 484,274.5C 483.381,285.448 477.881,292.615 467.5,296C 461.509,296.499 455.509,296.666 449.5,296.5C 449.667,281.496 449.5,266.496 449,251.5C 446.5,243 441,237.5 432.5,235C 314.5,234.333 196.5,234.333 78.5,235C 69.6667,237.167 64.1667,242.667 62,251.5C 61.5001,266.496 61.3334,281.496 61.5,296.5C 55.4908,296.666 49.4908,296.499 43.5,296C 33.1188,292.615 27.6188,285.448 27,274.5C 23.5535,231.748 22.5535,189.081 24,146.5C 24.6034,135.735 25.9367,125.068 28,114.5C 29.6941,111.642 31.8607,109.309 34.5,107.5 Z M 81.5,249.5 C 197.5,249.333 313.5,249.5 429.5,250C 431.667,250.833 433.167,252.333 434,254.5C 434.5,268.496 434.667,282.496 434.5,296.5C 315.167,296.5 195.833,296.5 76.5,296.5C 76.3334,282.496 76.5001,268.496 77,254.5C 78.025,252.313 79.525,250.646 81.5,249.5 Z"/></g>
<g><path style="opacity:0.882" fill="#000000" d="M 422.5,138.5 C 434.067,139.228 437.567,144.895 433,155.5C 421.079,161.376 415.412,157.71 416,144.5C 417.436,141.558 419.603,139.558 422.5,138.5 Z"/></g>
<g><path style="opacity:0.928" fill="#000000" d="M 153.5,141.5 C 221.501,141.333 289.501,141.5 357.5,142C 360.265,144.995 361.098,148.495 360,152.5C 358.681,154.487 356.848,155.654 354.5,156C 288.5,156.667 222.5,156.667 156.5,156C 150.941,154.542 149.108,151.042 151,145.5C 151.662,144.016 152.496,142.683 153.5,141.5 Z"/></g>
<g><path style="opacity:0.908" fill="#000000" d="M 129.5,342.5 C 137.409,341.577 140.743,345.077 139.5,353C 138.103,377.441 129.103,398.441 112.5,416C 103.667,417.833 100.167,414.333 102,405.5C 116.303,389.273 123.97,370.273 125,348.5C 125.599,345.746 127.099,343.746 129.5,342.5 Z"/></g>
<g><path style="opacity:0.912" fill="#000000" d="M 192.5,342.5 C 197.809,341.565 201.309,343.565 203,348.5C 204.36,373.078 198.027,395.412 184,415.5C 179.375,419.646 175.041,419.313 171,414.5C 170.333,412.167 170.333,409.833 171,407.5C 183.652,389.241 189.652,368.908 189,346.5C 189.69,344.65 190.856,343.316 192.5,342.5 Z"/></g>
<g><path style="opacity:0.975" fill="#000000" d="M 252.5,342.5 C 256.684,341.704 259.85,343.037 262,346.5C 262.667,369.167 262.667,391.833 262,414.5C 258.985,418.543 255.152,419.376 250.5,417C 249.874,416.25 249.374,415.416 249,414.5C 248.333,391.833 248.333,369.167 249,346.5C 249.69,344.65 250.856,343.316 252.5,342.5 Z"/></g>
<g><path style="opacity:0.911" fill="#000000" d="M 312.5,342.5 C 316.684,341.704 319.85,343.037 322,346.5C 321.348,368.908 327.348,389.241 340,407.5C 341.378,415.122 338.211,418.622 330.5,418C 322.277,409.743 316.444,399.91 313,388.5C 308.424,374.409 307.09,360.075 309,345.5C 310.145,344.364 311.312,343.364 312.5,342.5 Z"/></g>
<g><path style="opacity:0.91" fill="#000000" d="M 375.5,342.5 C 379.192,341.971 382.358,342.971 385,345.5C 386.539,368.464 394.539,388.797 409,406.5C 409.693,416.538 405.526,419.204 396.5,414.5C 379.726,395.016 371.559,372.35 372,346.5C 372.69,344.65 373.856,343.316 375.5,342.5 Z"/></g>
</svg>
