<svg width="33" height="29" viewBox="0 0 33 29" fill="none" xmlns="http://www.w3.org/2000/svg">
<path d="M0.709961 7.4399C0.919961 6.4799 1.84996 5.8499 2.81996 6.0099C3.14996 6.0299 3.47996 6.0099 3.80996 6.0099C4.22996 6.0099 4.19996 6.0799 4.19996 5.6099C4.19996 5.2699 4.19996 4.9299 4.19996 4.5899C4.19996 4.2499 4.35996 4.0799 4.67996 4.0599C4.87996 4.0499 4.90996 3.9799 4.90996 3.7999C4.90996 3.0499 4.90996 2.2999 4.90996 1.5499C4.90996 1.0699 5.07996 0.899902 5.55996 0.899902H8.36996C8.82996 0.899902 9.00996 1.0699 9.00996 1.5299C9.00996 2.2699 9.00996 3.0099 9.00996 3.7499C9.00996 3.9299 9.00996 4.0499 9.25996 4.0599C9.57996 4.0799 9.71996 4.2699 9.71996 4.5999C9.71996 4.9799 9.72996 5.3599 9.71996 5.7399C9.71996 5.9399 9.75996 6.0099 9.96996 6.0099C14.33 6.0099 18.69 6.0099 23.05 6.0099C23.25 6.0099 23.3 5.9399 23.29 5.7599C23.28 5.3899 23.29 5.0199 23.29 4.6499C23.29 4.2599 23.43 4.0899 23.8 4.0599C24 4.0399 24 3.9499 24 3.7999V1.5799C24 1.0599 24.16 0.899902 24.68 0.899902H27.43C27.93 0.899902 28.1 1.0699 28.1 1.5699V3.8199C28.1 3.9799 28.12 4.0499 28.31 4.0599C28.66 4.0899 28.8 4.2599 28.81 4.5999C28.83 4.9599 28.83 5.3199 28.81 5.6799C28.79 5.9599 28.89 6.0299 29.16 6.0099C29.63 5.9899 30.1 5.9999 30.58 6.0099C31.52 5.9999 32.29 6.7499 32.3 7.6799C32.3 7.6999 32.3 7.7099 32.3 7.7299C32.3 13.8799 32.3 20.0299 32.3 26.1799C32.3 27.1099 31.57 27.8799 30.64 27.9099C30.52 27.9099 30.39 27.9099 30.27 27.9099H2.86996C1.88996 28.0999 0.929961 27.4799 0.709961 26.4999V7.4299V7.4399ZM16.51 10.4099C11.69 10.4099 6.85996 10.4099 2.03996 10.4099C1.74996 10.4099 1.68996 10.4999 1.68996 10.7699C1.69996 14.8999 1.69996 19.0399 1.68996 23.1699C1.68996 23.4799 1.77996 23.5299 2.06996 23.5299C11.7 23.5299 21.32 23.5299 30.95 23.5299C31.23 23.5299 31.33 23.4799 31.33 23.1699C31.32 19.0399 31.32 14.8999 31.33 10.7699C31.33 10.4999 31.27 10.4099 30.98 10.4099C26.15 10.4099 21.33 10.4099 16.51 10.4099ZM16.51 24.4999H2.16996C2.08996 24.4999 1.99996 24.4999 1.91996 24.4999C1.73996 24.4799 1.68996 24.5599 1.69996 24.7299C1.70996 25.2199 1.69996 25.6999 1.69996 26.1799C1.69996 26.5799 2.00996 26.9099 2.40996 26.9299C2.49996 26.9299 2.58996 26.9299 2.68996 26.9299H30.51C30.93 26.9599 31.29 26.6399 31.31 26.2199C31.31 26.1799 31.31 26.1499 31.31 26.1099C31.31 25.6999 31.29 25.2899 31.31 24.8799C31.33 24.5699 31.25 24.4899 30.93 24.4899C26.12 24.4999 21.31 24.5099 16.5 24.4899M16.5 9.4099H26.75C28.17 9.4099 29.59 9.4099 31.01 9.4099C31.28 9.4099 31.34 9.3299 31.32 9.0799C31.3 8.7199 31.32 8.3599 31.32 7.9999C31.32 7.2099 31.1 6.9899 30.32 6.9899H2.51996C2.10996 6.9499 1.73996 7.2399 1.69996 7.6499C1.69996 7.6999 1.69996 7.7599 1.69996 7.8199C1.69996 8.2299 1.71996 8.6399 1.69996 9.0499C1.68996 9.3199 1.75996 9.4099 2.04996 9.4099C6.86996 9.3999 11.7 9.3999 16.52 9.4099M8.02996 2.9599C8.02996 2.6699 8.02996 2.3799 8.02996 2.0999C8.02996 1.9399 7.97996 1.8899 7.80996 1.8899C7.23996 1.8999 6.65996 1.8999 6.08996 1.8899C5.93996 1.8899 5.89996 1.9399 5.89996 2.0899C5.89996 2.6899 5.89996 3.2799 5.89996 3.8799C5.89996 4.0099 5.94996 4.0599 6.07996 4.0599C6.66996 4.0599 7.24996 4.0599 7.83996 4.0599C7.98996 4.0599 8.03996 3.9999 8.03996 3.8599C8.03996 3.5599 8.03996 3.2599 8.03996 2.9699M26.05 4.0599C26.33 4.0599 26.6 4.0599 26.88 4.0599C27.06 4.0599 27.13 4.0099 27.13 3.8199C27.12 3.2599 27.13 2.6899 27.13 2.1299C27.13 1.9599 27.09 1.8899 26.91 1.8899C26.35 1.8999 25.78 1.8899 25.22 1.8899C25.06 1.8899 25 1.9399 25 2.0999C25 2.6799 25 3.2699 25 3.8499C25 4.0199 25.07 4.0599 25.22 4.0499C25.5 4.0499 25.77 4.0499 26.05 4.0499M7.01996 5.0399H5.87996C5.17996 5.0399 5.18996 5.0399 5.19996 5.7399C5.19996 5.9599 5.26996 6.0199 5.47996 6.0099C6.33996 5.9999 7.19996 6.0099 8.06996 6.0099C8.76996 6.0099 8.75996 6.0099 8.75996 5.2899C8.75996 5.0899 8.70996 5.0199 8.49996 5.0299C8.00996 5.0399 7.51996 5.0299 7.01996 5.0299M26.05 5.9999H27.16C27.86 5.9999 27.85 5.9999 27.84 5.2999C27.84 5.0799 27.77 5.0199 27.56 5.0199C26.71 5.0299 25.86 5.0199 25.01 5.0199C24.26 5.0199 24.27 5.0199 24.29 5.7699C24.29 5.9399 24.35 5.9999 24.52 5.9899C25.03 5.9899 25.55 5.9899 26.06 5.9899" fill="#000F52"/>
<path d="M16.51 24.4999H2.16996C2.08996 24.4999 1.99996 24.4999 1.91996 24.4999C1.73996 24.4799 1.68996 24.5599 1.69996 24.7299C1.70996 25.2199 1.69996 25.6999 1.69996 26.1799C1.69996 26.5799 2.00996 26.9099 2.40996 26.9299C2.49996 26.9299 2.58996 26.9299 2.68996 26.9299H30.51C30.93 26.9599 31.29 26.6399 31.31 26.2199C31.31 26.1799 31.31 26.1499 31.31 26.1099C31.31 25.6999 31.29 25.2899 31.31 24.8799C31.33 24.5699 31.25 24.4899 30.93 24.4899C26.12 24.4999 21.31 24.5099 16.5 24.4899M16.5 9.4099H26.75C28.17 9.4099 29.59 9.4099 31.01 9.4099C31.28 9.4099 31.34 9.3299 31.32 9.0799C31.3 8.7199 31.32 8.3599 31.32 7.9999C31.32 7.2099 31.1 6.9899 30.32 6.9899H2.51996C2.10996 6.9499 1.73996 7.2399 1.69996 7.6499C1.69996 7.6999 1.69996 7.7599 1.69996 7.8199C1.69996 8.2299 1.71996 8.6399 1.69996 9.0499C1.68996 9.3199 1.75996 9.4099 2.04996 9.4099C6.86996 9.3999 11.7 9.3999 16.52 9.4099M8.02996 2.9599C8.02996 2.6699 8.02996 2.3799 8.02996 2.0999C8.02996 1.9399 7.97996 1.8899 7.80996 1.8899C7.23996 1.8999 6.65996 1.8999 6.08996 1.8899C5.93996 1.8899 5.89996 1.9399 5.89996 2.0899C5.89996 2.6899 5.89996 3.2799 5.89996 3.8799C5.89996 4.0099 5.94996 4.0599 6.07996 4.0599C6.66996 4.0599 7.24996 4.0599 7.83996 4.0599C7.98996 4.0599 8.03996 3.9999 8.03996 3.8599C8.03996 3.5599 8.03996 3.2599 8.03996 2.9699M26.05 4.0599C26.33 4.0599 26.6 4.0599 26.88 4.0599C27.06 4.0599 27.13 4.0099 27.13 3.8199C27.12 3.2599 27.13 2.6899 27.13 2.1299C27.13 1.9599 27.09 1.8899 26.91 1.8899C26.35 1.8999 25.78 1.8899 25.22 1.8899C25.06 1.8899 25 1.9399 25 2.0999C25 2.6799 25 3.2699 25 3.8499C25 4.0199 25.07 4.0599 25.22 4.0499C25.5 4.0499 25.77 4.0499 26.05 4.0499M7.01996 5.0399H5.87996C5.17996 5.0399 5.18996 5.0399 5.19996 5.7399C5.19996 5.9599 5.26996 6.0199 5.47996 6.0099C6.33996 5.9999 7.19996 6.0099 8.06996 6.0099C8.76996 6.0099 8.75996 6.0099 8.75996 5.2899C8.75996 5.0899 8.70996 5.0199 8.49996 5.0299C8.00996 5.0399 7.51996 5.0299 7.01996 5.0299M26.05 5.9999H27.16C27.86 5.9999 27.85 5.9999 27.84 5.2999C27.84 5.0799 27.77 5.0199 27.56 5.0199C26.71 5.0299 25.86 5.0199 25.01 5.0199C24.26 5.0199 24.27 5.0199 24.29 5.7699C24.29 5.9399 24.35 5.9999 24.52 5.9899C25.03 5.9899 25.55 5.9899 26.06 5.9899M0.709961 7.4399C0.919961 6.4799 1.84996 5.8499 2.81996 6.0099C3.14996 6.0299 3.47996 6.0099 3.80996 6.0099C4.22996 6.0099 4.19996 6.0799 4.19996 5.6099C4.19996 5.2699 4.19996 4.9299 4.19996 4.5899C4.19996 4.2499 4.35996 4.0799 4.67996 4.0599C4.87996 4.0499 4.90996 3.9799 4.90996 3.7999C4.90996 3.0499 4.90996 2.2999 4.90996 1.5499C4.90996 1.0699 5.07996 0.899902 5.55996 0.899902H8.36996C8.82996 0.899902 9.00996 1.0699 9.00996 1.5299C9.00996 2.2699 9.00996 3.0099 9.00996 3.7499C9.00996 3.9299 9.00996 4.0499 9.25996 4.0599C9.57996 4.0799 9.71996 4.2699 9.71996 4.5999C9.71996 4.9799 9.72996 5.3599 9.71996 5.7399C9.71996 5.9399 9.75996 6.0099 9.96996 6.0099C14.33 6.0099 18.69 6.0099 23.05 6.0099C23.25 6.0099 23.3 5.9399 23.29 5.7599C23.28 5.3899 23.29 5.0199 23.29 4.6499C23.29 4.2599 23.43 4.0899 23.8 4.0599C24 4.0399 24 3.9499 24 3.7999V1.5799C24 1.0599 24.16 0.899902 24.68 0.899902H27.43C27.93 0.899902 28.1 1.0699 28.1 1.5699V3.8199C28.1 3.9799 28.12 4.0499 28.31 4.0599C28.66 4.0899 28.8 4.2599 28.81 4.5999C28.83 4.9599 28.83 5.3199 28.81 5.6799C28.79 5.9599 28.89 6.0299 29.16 6.0099C29.63 5.9899 30.1 5.9999 30.58 6.0099C31.52 5.9999 32.29 6.7499 32.3 7.6799C32.3 7.6999 32.3 7.7099 32.3 7.7299C32.3 13.8799 32.3 20.0299 32.3 26.1799C32.3 27.1099 31.57 27.8799 30.64 27.9099C30.52 27.9099 30.39 27.9099 30.27 27.9099H2.86996C1.88996 28.0999 0.929961 27.4799 0.709961 26.4999V7.4299V7.4399ZM16.51 10.4099C11.69 10.4099 6.85996 10.4099 2.03996 10.4099C1.74996 10.4099 1.68996 10.4999 1.68996 10.7699C1.69996 14.8999 1.69996 19.0399 1.68996 23.1699C1.68996 23.4799 1.77996 23.5299 2.06996 23.5299C11.7 23.5299 21.32 23.5299 30.95 23.5299C31.23 23.5299 31.33 23.4799 31.33 23.1699C31.32 19.0399 31.32 14.8999 31.33 10.7699C31.33 10.4999 31.27 10.4099 30.98 10.4099C26.15 10.4099 21.33 10.4099 16.51 10.4099Z" stroke="#000F52"/>
</svg>
