<svg width="60" height="60" viewBox="0 0 60 60" fill="none" xmlns="http://www.w3.org/2000/svg">
<path opacity="0.5" d="M36.3904 38.8693L35.2518 40.068C35.2518 40.068 32.5453 42.9174 25.1578 35.1398C17.7703 27.3621 20.4768 24.5127 20.4768 24.5127L21.1938 23.7578C22.9602 21.8981 23.1267 18.9124 21.5856 16.7328L18.4331 12.274C16.5257 9.57625 12.8399 9.21987 10.6536 11.5216L6.72962 15.6528C5.64557 16.7941 4.91913 18.2736 5.00722 19.9148C5.23259 24.1136 7.02679 33.1476 17.0384 43.688C27.6554 54.8656 37.6171 55.3098 41.6907 54.9077C42.9792 54.7806 44.0998 54.0857 45.0028 53.135L48.5542 49.3961C50.9514 46.8723 50.2755 42.5454 47.2083 40.78L42.4321 38.0308C40.4181 36.8716 37.9644 37.2121 36.3904 38.8693Z" fill="#1C274C"/>
<path d="M42.5 30C49.4036 30 55 24.4036 55 17.5C55 10.5964 49.4036 5 42.5 5C35.5964 5 30 10.5964 30 17.5C30 19.4996 30.4695 21.3895 31.3043 23.0656C31.5262 23.511 31.6 24.0201 31.4714 24.5008L30.7269 27.2833C30.4037 28.4912 31.5088 29.5963 32.7167 29.2731L35.4992 28.5286C35.9799 28.4 36.489 28.4738 36.9344 28.6957C38.6105 29.5305 40.5004 30 42.5 30Z" fill="#1C274C"/>
</svg>
