<svg width="76" height="76" viewBox="0 0 76 76" fill="none" xmlns="http://www.w3.org/2000/svg">
<path d="M38 76C58.9868 76 76 58.9868 76 38C76 17.0132 58.9868 0 38 0C17.0132 0 0 17.0132 0 38C0 58.9868 17.0132 76 38 76Z" fill="#3871C1" fill-opacity="0.19"/>
<path d="M50.32 54.0599C50.08 53.8899 49.95 53.5999 49.99 53.3099C50.01 52.7099 49.99 52.1099 49.99 51.4699H46.48C45.05 51.5299 43.84 50.4199 43.78 48.9899C43.78 48.9099 43.78 48.84 43.78 48.76V48.3599H43.29C42.72 48.3799 42.24 47.9299 42.23 47.3599C42.23 47.3399 42.23 47.3199 42.23 47.2999C42.23 46.8099 42.23 46.3299 42.23 45.8499C42.2 45.2799 42.63 44.7799 43.21 44.7499C43.26 44.7499 43.3 44.7499 43.35 44.7499H43.78C43.23 44.0099 43.11 43.02 43.48 42.17C42.78 42.19 42.11 41.9499 41.58 41.4899C41.09 41.0099 40.77 40.3899 40.67 39.7099L38.56 40.2499C35.55 41.0199 32.53 41.78 29.52 42.57C28.91 42.74 28.25 42.5999 27.75 42.2099C26.99 41.6199 26.36 40.8799 25.92 40.0199C24.66 37.7499 23.85 35.2699 23.52 32.6999C23.44 32.1699 23.43 31.6299 23.36 31.0899C23.34 30.9599 23.27 30.8499 23.16 30.7799C22.16 30.3899 21.43 29.5299 21.22 28.4799C21.16 28.2299 21.07 27.9799 20.99 27.7199V27.3299C21.13 27.1999 21.3 27.0899 21.48 27.0099C23.82 26.3999 26.17 25.7999 28.52 25.1999C29.31 24.9999 30.1 24.7899 30.91 24.5799C30.79 24.0899 30.67 23.6299 30.56 23.1799C30.44 22.9099 30.56 22.5999 30.82 22.4699C30.87 22.4499 30.93 22.4299 30.99 22.4199C32.25 22.0899 33.51 21.7599 34.77 21.4399C35.24 21.3199 35.45 21.4399 35.57 21.9199C35.69 22.3599 35.8 22.8099 35.93 23.2599C36.04 23.2399 36.11 23.2299 36.18 23.2099C38.71 22.5599 41.25 21.9199 43.78 21.2499C47.23 20.2999 50.89 21.8099 52.65 24.9199C53.15 25.9199 53.52 26.9899 53.74 28.0899C53.89 28.6599 53.77 28.8499 53.2 28.9899C52.78 29.0999 52.36 29.2099 51.92 29.3199C52.14 30.1799 52.35 30.9899 52.56 31.7999C53.21 34.2799 51.73 36.8299 49.25 37.4799C49.08 37.5299 48.91 37.5799 48.72 37.6299C49.29 38.9499 48.73 40.4799 47.45 41.1199C47.98 41.5299 48.33 42.13 48.43 42.79C48.52 43.47 48.35 44.1499 47.95 44.7099H48.25C49.11 44.7099 49.49 45.0899 49.49 45.9599V47.2999H50.3C50.89 47.2999 51.05 47.1499 51.05 46.5599V39.6699C51.05 39.1999 51.23 39.0199 51.69 39.0199H53.41C54.01 39.0199 54.16 39.1699 54.16 39.7599C54.16 44.2699 54.16 48.7699 54.16 53.2799C54.19 53.5699 54.07 53.8599 53.83 54.0299H50.34L50.32 54.0599ZM22.17 27.8999C22.21 29.0799 23.19 29.9999 24.37 29.9699C24.6 29.9699 24.82 29.9199 25.04 29.8399C28.42 28.9699 31.8 28.0999 35.18 27.2299C36.82 26.7199 38.56 27.6399 39.07 29.2799C39.08 29.3099 39.09 29.3499 39.1 29.3799C39.35 30.4999 40.47 31.1999 41.59 30.9499C41.67 30.9299 41.74 30.9099 41.82 30.8799C42.91 30.5999 44.01 30.3199 45.1 30.0299C45.34 29.9299 45.61 30.0099 45.76 30.2199C45.99 30.5399 45.8 30.9199 45.35 31.0399C44.19 31.3399 43.04 31.6599 41.87 31.9199C41.44 32.0199 40.99 32.0299 40.56 31.9599C39.36 31.7799 38.39 30.8899 38.1 29.7099C37.92 28.8799 37.23 28.2599 36.38 28.1799C35.82 28.1799 35.26 28.2399 34.72 28.3499C34.91 28.7999 35.07 29.1499 35.2 29.5099C36.42 32.8299 37.17 36.1999 36.33 39.7499C36.4 39.7399 36.49 39.7199 36.58 39.6999C38.97 39.0899 41.36 38.4699 43.74 37.8599C45.52 37.3999 47.31 36.9699 49.08 36.4699C50.81 35.9799 51.89 34.2699 51.6 32.4999C51.49 31.7899 51.27 31.0999 51.09 30.3999C51.03 30.1399 50.96 29.8899 50.89 29.6199C50.72 29.6599 50.6 29.6999 50.48 29.7199C50.2 29.8099 49.91 29.6499 49.82 29.3699C49.82 29.3699 49.82 29.3699 49.82 29.3599C49.74 29.0899 49.9 28.8099 50.17 28.7299C50.18 28.7299 50.2 28.7299 50.21 28.7299C50.48 28.6499 50.75 28.5899 51.02 28.5199L52.64 28.0999C52.56 27.7799 52.49 27.4999 52.42 27.2199C51.56 23.6099 47.93 21.3699 44.32 22.2299C44.23 22.2499 44.15 22.2699 44.06 22.2999C38.03 23.8399 32.01 25.3899 25.98 26.9399L22.15 27.9199M30.77 41.1999C31.95 40.8999 33.09 40.57 34.25 40.32C34.77 40.23 35.19 39.8499 35.32 39.3399C35.38 39.1599 35.44 38.9699 35.48 38.7799C35.71 37.5499 35.73 36.2899 35.54 35.0499C35.28 32.9299 34.7 30.8599 33.81 28.9199C33.72 28.7299 33.63 28.7099 33.44 28.7599C32.43 29.0299 31.42 29.2799 30.41 29.5399L29.23 29.8499C29.26 29.9399 29.27 29.9899 29.29 30.0399C29.97 31.5399 30.48 33.1199 30.78 34.7399C31.3 36.8699 31.3 39.0899 30.77 41.2099M53.06 50.4699V40.1299H52.05V46.7C52.13 47.56 51.5 48.3199 50.64 48.3999C50.55 48.3999 50.45 48.3999 50.36 48.3999H44.82C44.6 49.3099 45.15 50.22 46.06 50.45C46.26 50.5 46.48 50.5099 46.68 50.4899C48.24 50.4299 49.81 50.48 51.37 50.48H53.06V50.4699ZM27.18 30.3799C27.21 30.4499 27.22 30.4999 27.24 30.5499C28.22 32.5999 28.83 34.8199 29.03 37.0899C29.1 37.8299 29.06 38.58 29.05 39.32C29.07 39.61 28.84 39.8599 28.55 39.8699C28.36 39.8799 28.17 39.7799 28.07 39.6199C27.98 39.4999 27.9 39.3699 27.82 39.2399C26.56 37.0499 25.77 34.6199 25.49 32.1099C25.44 31.6999 25.41 31.2899 25.37 30.8499C25.17 30.8899 25.02 30.9299 24.86 30.9599C24.7 30.9899 24.55 31.0199 24.39 31.0399C24.39 31.2099 24.38 31.3599 24.39 31.5099C24.61 34.2299 25.38 36.8899 26.66 39.2999C27.04 40.0599 27.57 40.7499 28.21 41.3099C28.89 41.8599 29.41 41.7499 29.7 40.9299C29.89 40.3599 30.02 39.7699 30.07 39.1699C30.17 37.7699 30.07 36.3599 29.75 34.9899C29.44 33.3899 28.95 31.8399 28.27 30.3599C28.21 30.2299 28.17 30.0999 27.97 30.1599C27.71 30.2399 27.44 30.3099 27.15 30.3799M41.65 39.4799C41.65 40.4099 42.4 41.1599 43.32 41.1599C43.54 41.1599 43.76 41.1199 43.97 41.0299C44.79 40.7699 45.63 40.5899 46.47 40.3799C47.36 40.2499 47.97 39.4199 47.83 38.5299C47.8 38.3199 47.73 38.1299 47.62 37.9499L41.66 39.4799M48.38 45.8399H43.24V47.3699H48.38V45.8399ZM45.8 44.7799C46.66 44.7799 47.35 44.08 47.35 43.23C47.35 42.37 46.65 41.6799 45.8 41.6799C44.94 41.6799 44.25 42.38 44.25 43.23C44.25 44.08 44.95 44.7699 45.8 44.7699M31.87 24.3499L34.88 23.5799L34.62 22.5799L31.62 23.3599L31.88 24.3599M53.05 51.54H51.02V53.0499H53.05V51.54ZM26.49 31.4299C26.64 33.4499 27.15 35.4299 28 37.2699C27.8 35.2599 27.29 33.2899 26.49 31.4299Z" fill="#000F52"/>
<path d="M48.35 29.1899C48.71 29.1899 48.89 29.3299 48.95 29.5999C49.02 29.8399 48.89 30.0999 48.64 30.1699C48.25 30.2999 47.85 30.3999 47.45 30.4699C47.2 30.5199 46.96 30.3499 46.91 30.0999C46.82 29.8699 46.93 29.6099 47.16 29.5199C47.16 29.5199 47.16 29.5199 47.17 29.5199C47.57 29.3799 48 29.2899 48.33 29.1999" fill="#000F52"/>
<path d="M46.3701 43.1799C46.3701 43.4599 46.1501 43.6999 45.8701 43.7099C45.5901 43.7099 45.3501 43.4899 45.3401 43.2099C45.3401 42.9299 45.5501 42.6899 45.8401 42.6799C46.1201 42.6799 46.3601 42.8999 46.3701 43.1799Z" fill="#000F52"/>
</svg>
