<?xml version="1.0" encoding="UTF-8"?>
<!DOCTYPE svg PUBLIC "-//W3C//DTD SVG 1.1//EN" "http://www.w3.org/Graphics/SVG/1.1/DTD/svg11.dtd">
<svg xmlns="http://www.w3.org/2000/svg" version="1.1" width="512px" height="512px" style="shape-rendering:geometricPrecision; text-rendering:geometricPrecision; image-rendering:optimizeQuality; fill-rule:evenodd; clip-rule:evenodd" xmlns:xlink="http://www.w3.org/1999/xlink">
<g><path style="opacity:0.949" fill="#000000" d="M 127.5,22.5 C 253.65,60.0394 379.65,98.206 505.5,137C 510.272,140.699 511.772,145.533 510,151.5C 501.003,195.324 475.17,223.658 432.5,236.5C 442.452,255.174 439.452,271.34 423.5,285C 414.813,290.129 405.48,291.796 395.5,290C 388.578,288.026 381.745,285.859 375,283.5C 363.322,294.501 349.488,298.668 333.5,296C 319.553,291.849 305.553,288.016 291.5,284.5C 288.243,298.105 284.076,311.438 279,324.5C 276.776,326.195 274.276,327.195 271.5,327.5C 265.815,326.159 260.148,324.825 254.5,323.5C 254.667,358.502 254.5,393.502 254,428.5C 253.728,433.438 251.228,436.604 246.5,438C 202.833,438.333 159.167,438.667 115.5,439C 104.063,454.212 88.7294,461.046 69.5,459.5C 63.7868,475.714 52.4535,485.214 35.5,488C 26.1667,488.667 16.8333,488.667 7.5,488C 4.41727,487.214 2.2506,485.381 1,482.5C 0.333333,432.833 0.333333,383.167 1,333.5C 2.16667,331 4,329.167 6.5,328C 17.1667,327.333 27.8333,327.333 38.5,328C 54.9044,331.573 65.2377,341.407 69.5,357.5C 89.0831,354.469 104.416,360.969 115.5,377C 141.498,377.5 167.498,377.667 193.5,377.5C 193.667,353.164 193.5,328.831 193,304.5C 186.649,301.952 180.149,299.786 173.5,298C 168.725,294.345 167.225,289.512 169,283.5C 172.428,272.281 175.928,261.115 179.5,250C 138.272,236.814 96.9382,223.814 55.5,211C 32.6055,197.346 24.7722,177.512 32,151.5C 39.3333,127.5 46.6667,103.5 54,79.5C 63.7992,48.8412 84.6325,36.5078 116.5,42.5C 117.694,37.4179 119.194,32.4179 121,27.5C 122.805,25.1743 124.972,23.5077 127.5,22.5 Z M 136.5,46.5 C 253.632,81.8668 370.632,117.7 487.5,154C 473.815,198.185 443.815,219.185 397.5,217C 301.739,189.062 206.405,159.896 111.5,129.5C 120.301,101.958 128.635,74.2909 136.5,46.5 Z M 97.5,61.5 C 101.22,61.5642 104.886,62.0642 108.5,63C 108.957,63.414 109.291,63.914 109.5,64.5C 102.234,87.7977 95.0676,111.131 88,134.5C 86.9889,138.982 88.1556,142.816 91.5,146C 185.818,175.273 280.151,204.44 374.5,233.5C 371.359,244.422 367.526,255.089 363,265.5C 354.741,275.029 344.574,277.863 332.5,274C 241.952,246.594 151.619,218.594 61.5,190C 51.2858,181.687 48.1192,171.187 52,158.5C 60.604,130.022 69.604,101.689 79,73.5C 83.7268,67.0666 89.8935,63.0666 97.5,61.5 Z M 394.5,239.5 C 398.844,240.558 403.177,241.724 407.5,243C 419.434,250.008 420.434,258.341 410.5,268C 402.091,270.07 394.091,268.904 386.5,264.5C 389.324,256.201 391.99,247.868 394.5,239.5 Z M 199.5,255.5 C 223.179,262.559 246.846,269.726 270.5,277C 271.059,277.725 271.392,278.558 271.5,279.5C 268.852,287.429 266.519,295.429 264.5,303.5C 240.035,296.466 215.702,288.966 191.5,281C 194.466,272.601 197.133,264.101 199.5,255.5 Z M 214.5,310.5 C 220.535,312.289 226.535,314.289 232.5,316.5C 233.5,350.16 233.833,383.827 233.5,417.5C 196.167,417.5 158.833,417.5 121.5,417.5C 121.5,411.167 121.5,404.833 121.5,398.5C 149.835,398.667 178.169,398.5 206.5,398C 211.228,396.604 213.728,393.438 214,388.5C 214.5,362.502 214.667,336.502 214.5,310.5 Z M 21.5,348.5 C 34.189,345.875 43.3557,350.209 49,361.5C 50.126,376.79 50.626,392.124 50.5,407.5C 50.3333,421.167 50.1667,434.833 50,448.5C 46.6373,463.621 37.1373,469.954 21.5,467.5C 21.5,427.833 21.5,388.167 21.5,348.5 Z M 71.5,378.5 C 92.7594,376.426 102.426,386.093 100.5,407.5C 102.293,428.706 92.6261,438.706 71.5,437.5C 71.5,417.833 71.5,398.167 71.5,378.5 Z"/></g>
<g><path style="opacity:0.933" fill="#000000" d="M 155.5,89.5 C 158.85,89.335 162.183,89.5017 165.5,90C 189.717,97.0728 213.717,104.74 237.5,113C 242.875,122.719 240.208,128.885 229.5,131.5C 204.803,124.101 180.137,116.601 155.5,109C 147.581,102.506 147.581,96.0063 155.5,89.5 Z"/></g>
</svg>
