<svg width="35" height="35" viewBox="0 0 35 35" fill="none" xmlns="http://www.w3.org/2000/svg">
<path d="M30.32 34.0599C30.08 33.8899 29.95 33.5999 29.99 33.3099C30.01 32.7099 29.99 32.1099 29.99 31.4699H26.48C25.05 31.5299 23.84 30.4199 23.78 28.9899C23.78 28.9099 23.78 28.84 23.78 28.76V28.3599H23.29C22.72 28.3799 22.24 27.9299 22.23 27.3599C22.23 27.3399 22.23 27.3199 22.23 27.2999C22.23 26.8099 22.23 26.3299 22.23 25.8499C22.2 25.2799 22.63 24.7799 23.21 24.7499C23.26 24.7499 23.3 24.7499 23.35 24.7499H23.78C23.23 24.0099 23.11 23.02 23.48 22.17C22.78 22.19 22.11 21.9499 21.58 21.4899C21.09 21.0099 20.77 20.3899 20.67 19.7099L18.56 20.2499C15.55 21.0199 12.53 21.78 9.51999 22.57C8.90999 22.74 8.24999 22.5999 7.74999 22.2099C6.98999 21.6199 6.35999 20.8799 5.91999 20.0199C4.65999 17.7499 3.84999 15.2699 3.51999 12.6999C3.43999 12.1699 3.42999 11.6299 3.35999 11.0899C3.33999 10.9599 3.26999 10.8499 3.15999 10.7799C2.15999 10.3899 1.42999 9.52994 1.21999 8.47994C1.15999 8.22994 1.06999 7.97994 0.98999 7.71994V7.32994C1.12999 7.19994 1.29999 7.08994 1.47999 7.00994C3.81999 6.39994 6.16999 5.79994 8.51999 5.19994C9.30999 4.99994 10.1 4.78994 10.91 4.57994C10.79 4.08994 10.67 3.62993 10.56 3.17993C10.44 2.90993 10.56 2.59994 10.82 2.46994C10.87 2.44994 10.93 2.42994 10.99 2.41994C12.25 2.08994 13.51 1.75994 14.77 1.43994C15.24 1.31994 15.45 1.43994 15.57 1.91994C15.69 2.35994 15.8 2.80994 15.93 3.25994C16.04 3.23994 16.11 3.22995 16.18 3.20995C18.71 2.55995 21.25 1.91994 23.78 1.24994C27.23 0.299942 30.89 1.80994 32.65 4.91994C33.15 5.91994 33.52 6.98994 33.74 8.08994C33.89 8.65994 33.77 8.84995 33.2 8.98995C32.78 9.09995 32.36 9.20995 31.92 9.31995C32.14 10.1799 32.35 10.9899 32.56 11.7999C33.21 14.2799 31.73 16.8299 29.25 17.4799C29.08 17.5299 28.91 17.5799 28.72 17.6299C29.29 18.9499 28.73 20.4799 27.45 21.1199C27.98 21.5299 28.33 22.13 28.43 22.79C28.52 23.47 28.35 24.1499 27.95 24.7099H28.25C29.11 24.7099 29.49 25.0899 29.49 25.9599V27.2999H30.3C30.89 27.2999 31.05 27.1499 31.05 26.5599V19.6699C31.05 19.1999 31.23 19.0199 31.69 19.0199H33.41C34.01 19.0199 34.16 19.1699 34.16 19.7599C34.16 24.2699 34.16 28.7699 34.16 33.2799C34.19 33.5699 34.07 33.8599 33.83 34.0299H30.34L30.32 34.0599ZM2.16999 7.89994C2.20999 9.07994 3.18999 9.99994 4.36999 9.96994C4.59999 9.96994 4.81999 9.91994 5.03999 9.83994C8.41999 8.96994 11.8 8.09994 15.18 7.22994C16.82 6.71994 18.56 7.63994 19.07 9.27994C19.08 9.30994 19.09 9.34995 19.1 9.37995C19.35 10.4999 20.47 11.1999 21.59 10.9499C21.67 10.9299 21.74 10.9099 21.82 10.8799C22.91 10.5999 24.01 10.3199 25.1 10.0299C25.34 9.92994 25.61 10.0099 25.76 10.2199C25.99 10.5399 25.8 10.9199 25.35 11.0399C24.19 11.3399 23.04 11.6599 21.87 11.9199C21.44 12.0199 20.99 12.0299 20.56 11.9599C19.36 11.7799 18.39 10.8899 18.1 9.70995C17.92 8.87995 17.23 8.25993 16.38 8.17993C15.82 8.17993 15.26 8.23995 14.72 8.34995C14.91 8.79995 15.07 9.14994 15.2 9.50994C16.42 12.8299 17.17 16.1999 16.33 19.7499C16.4 19.7399 16.49 19.7199 16.58 19.6999C18.97 19.0899 21.36 18.4699 23.74 17.8599C25.52 17.3999 27.31 16.9699 29.08 16.4699C30.81 15.9799 31.89 14.2699 31.6 12.4999C31.49 11.7899 31.27 11.0999 31.09 10.3999C31.03 10.1399 30.96 9.88994 30.89 9.61994C30.72 9.65994 30.6 9.69994 30.48 9.71994C30.2 9.80994 29.91 9.64994 29.82 9.36994C29.82 9.36994 29.82 9.36994 29.82 9.35994C29.74 9.08994 29.9 8.80994 30.17 8.72994C30.18 8.72994 30.2 8.72994 30.21 8.72994C30.48 8.64994 30.75 8.58995 31.02 8.51995L32.64 8.09995C32.56 7.77995 32.49 7.49994 32.42 7.21994C31.56 3.60994 27.93 1.36994 24.32 2.22994C24.23 2.24994 24.15 2.26994 24.06 2.29994C18.03 3.83994 12.01 5.38994 5.97999 6.93994L2.14999 7.91994M10.77 21.1999C11.95 20.8999 13.09 20.57 14.25 20.32C14.77 20.23 15.19 19.8499 15.32 19.3399C15.38 19.1599 15.44 18.9699 15.48 18.7799C15.71 17.5499 15.73 16.2899 15.54 15.0499C15.28 12.9299 14.7 10.8599 13.81 8.91994C13.72 8.72994 13.63 8.70994 13.44 8.75994C12.43 9.02994 11.42 9.27994 10.41 9.53994L9.22999 9.84995C9.25999 9.93995 9.26999 9.98994 9.28999 10.0399C9.96999 11.5399 10.48 13.1199 10.78 14.7399C11.3 16.8699 11.3 19.0899 10.77 21.2099M33.06 30.4699V20.1299H32.05V26.7C32.13 27.56 31.5 28.3199 30.64 28.3999C30.55 28.3999 30.45 28.3999 30.36 28.3999H24.82C24.6 29.3099 25.15 30.22 26.06 30.45C26.26 30.5 26.48 30.5099 26.68 30.4899C28.24 30.4299 29.81 30.48 31.37 30.48H33.06V30.4699ZM7.17999 10.3799C7.20999 10.4499 7.21999 10.4999 7.23999 10.5499C8.21999 12.5999 8.82999 14.8199 9.02999 17.0899C9.09999 17.8299 9.05999 18.58 9.04999 19.32C9.06999 19.61 8.83999 19.8599 8.54999 19.8699C8.35999 19.8799 8.16999 19.7799 8.06999 19.6199C7.97999 19.4999 7.89999 19.3699 7.81999 19.2399C6.55999 17.0499 5.76999 14.6199 5.48999 12.1099C5.43999 11.6999 5.40999 11.2899 5.36999 10.8499C5.16999 10.8899 5.01999 10.9299 4.85999 10.9599C4.69999 10.9899 4.54999 11.0199 4.38999 11.0399C4.38999 11.2099 4.37999 11.3599 4.38999 11.5099C4.60999 14.2299 5.37999 16.8899 6.65999 19.2999C7.03999 20.0599 7.56999 20.7499 8.20999 21.3099C8.88999 21.8599 9.40999 21.7499 9.69999 20.9299C9.88999 20.3599 10.02 19.7699 10.07 19.1699C10.17 17.7699 10.07 16.3599 9.74999 14.9899C9.43999 13.3899 8.94999 11.8399 8.26999 10.3599C8.20999 10.2299 8.16999 10.0999 7.96999 10.1599C7.70999 10.2399 7.43999 10.3099 7.14999 10.3799M21.65 19.4799C21.65 20.4099 22.4 21.1599 23.32 21.1599C23.54 21.1599 23.76 21.1199 23.97 21.0299C24.79 20.7699 25.63 20.5899 26.47 20.3799C27.36 20.2499 27.97 19.4199 27.83 18.5299C27.8 18.3199 27.73 18.1299 27.62 17.9499L21.66 19.4799M28.38 25.8399H23.24V27.3699H28.38V25.8399ZM25.8 24.7799C26.66 24.7799 27.35 24.08 27.35 23.23C27.35 22.37 26.65 21.6799 25.8 21.6799C24.94 21.6799 24.25 22.38 24.25 23.23C24.25 24.08 24.95 24.7699 25.8 24.7699M11.87 4.34995L14.88 3.57994L14.62 2.57994L11.62 3.35994L11.88 4.35994M33.05 31.54H31.02V33.0499H33.05V31.54ZM6.48999 11.4299C6.63999 13.4499 7.14999 15.4299 7.99999 17.2699C7.79999 15.2599 7.28999 13.2899 6.48999 11.4299Z" fill="#000F52"/>
<path d="M28.35 9.18994C28.71 9.18994 28.89 9.32995 28.95 9.59995C29.02 9.83995 28.89 10.0999 28.64 10.1699C28.25 10.2999 27.85 10.3999 27.45 10.4699C27.2 10.5199 26.96 10.3499 26.91 10.0999C26.82 9.86995 26.93 9.60994 27.16 9.51994C27.16 9.51994 27.16 9.51994 27.17 9.51994C27.57 9.37994 28 9.28994 28.33 9.19994" fill="#000F52"/>
<path d="M26.3701 23.1799C26.3701 23.4599 26.1501 23.6999 25.8701 23.7099C25.5901 23.7099 25.3501 23.4899 25.3401 23.2099C25.3401 22.9299 25.5501 22.6899 25.8401 22.6799C26.1201 22.6799 26.3601 22.8999 26.3701 23.1799Z" fill="#000F52"/>
</svg>
