<svg width="30" height="28" viewBox="0 0 30 28" fill="none" xmlns="http://www.w3.org/2000/svg">
<path d="M4.11612 10.8417C3.75 11.1834 3.75 11.7334 3.75 12.8333V19.8333C3.75 20.9333 3.75 21.4832 4.11612 21.825C4.48223 22.1667 5.07149 22.1667 6.25 22.1667C7.42851 22.1667 8.01777 22.1667 8.38388 21.825C8.75 21.4832 8.75 20.9333 8.75 19.8333V12.8333C8.75 11.7334 8.75 11.1834 8.38388 10.8417C8.01777 10.5 7.42851 10.5 6.25 10.5C5.07149 10.5 4.48223 10.5 4.11612 10.8417Z" fill="#000F52"/>
<path opacity="0.4" d="M21.6161 2.6752C21.25 3.01691 21.25 3.56689 21.25 4.66683V19.8335C21.25 20.9334 21.25 21.4834 21.6161 21.8251C21.9822 22.1668 22.5715 22.1668 23.75 22.1668C24.9285 22.1668 25.5178 22.1668 25.8839 21.8251C26.25 21.4834 26.25 20.9334 26.25 19.8335V4.66683C26.25 3.56689 26.25 3.01691 25.8839 2.6752C25.5178 2.3335 24.9285 2.3335 23.75 2.3335C22.5715 2.3335 21.9822 2.3335 21.6161 2.6752Z" fill="#000F52"/>
<path opacity="0.7" d="M12.5 8.16683C12.5 7.06689 12.5 6.51691 12.8661 6.1752C13.2322 5.8335 13.8215 5.8335 15 5.8335C16.1785 5.8335 16.7678 5.8335 17.1339 6.1752C17.5 6.51691 17.5 7.06689 17.5 8.16683V19.8335C17.5 20.9334 17.5 21.4834 17.1339 21.8251C16.7678 22.1668 16.1785 22.1668 15 22.1668C13.8215 22.1668 13.2322 22.1668 12.8661 21.8251C12.5 21.4834 12.5 20.9334 12.5 19.8335V8.16683Z" fill="#000F52"/>
<path d="M3.75 24.7915C3.23223 24.7915 2.8125 25.1833 2.8125 25.6665C2.8125 26.1498 3.23223 26.5415 3.75 26.5415H26.25C26.7678 26.5415 27.1875 26.1498 27.1875 25.6665C27.1875 25.1833 26.7678 24.7915 26.25 24.7915H3.75Z" fill="#000F52"/>
</svg>
