<svg width="170" height="117" viewBox="0 0 170 117" fill="none" xmlns="http://www.w3.org/2000/svg">
<path d="M39.936 82.728C43.84 82.728 47.2 82.088 50.016 80.808C52.832 79.464 55.776 77.352 58.848 74.472L66.144 81.96C59.04 89.832 50.4 93.768 40.224 93.768C30.112 93.768 21.696 90.504 14.976 83.976C8.32 77.448 4.992 69.192 4.992 59.208C4.992 49.224 8.384 40.904 15.168 34.248C22.016 27.592 30.624 24.264 40.992 24.264C51.424 24.264 60.128 28.104 67.104 35.784L59.904 43.656C56.704 40.584 53.664 38.44 50.784 37.224C47.968 36.008 44.64 35.4 40.8 35.4C34.016 35.4 28.32 37.608 23.712 42.024C19.104 46.376 16.8 51.976 16.8 58.824C16.8 65.608 19.072 71.304 23.616 75.912C28.224 80.456 33.664 82.728 39.936 82.728ZM126.401 41.736C121.857 37 116.257 34.632 109.601 34.632C102.945 34.632 97.3133 37 92.7053 41.736C88.1613 46.472 85.8893 52.232 85.8893 59.016C85.8893 65.736 88.1613 71.464 92.7053 76.2C97.3133 80.936 102.945 83.304 109.601 83.304C116.257 83.304 121.857 80.936 126.401 76.2C131.009 71.464 133.313 65.736 133.313 59.016C133.313 52.232 131.009 46.472 126.401 41.736ZM134.753 83.784C127.969 90.376 119.585 93.672 109.601 93.672C99.6173 93.672 91.2333 90.376 84.4493 83.784C77.6653 77.128 74.2733 68.872 74.2733 59.016C74.2733 49.096 77.6653 40.84 84.4493 34.248C91.2333 27.592 99.6173 24.264 109.601 24.264C119.585 24.264 127.969 27.592 134.753 34.248C141.537 40.84 144.929 49.096 144.929 59.016C144.929 68.872 141.537 77.128 134.753 83.784Z" fill="#1C274C"/>
<path d="M155.88 87.228C157.963 85.116 159.444 83.4587 160.324 82.256C161.204 81.0533 161.644 79.836 161.644 78.604C161.644 77.372 161.175 76.3307 160.236 75.48C159.297 74.6 158.109 74.16 156.672 74.16C154.149 74.16 152.052 75.4507 150.38 78.032L146.2 75.612C147.549 73.588 149.031 72.0627 150.644 71.036C152.287 70.0093 154.384 69.496 156.936 69.496C159.517 69.496 161.776 70.3173 163.712 71.96C165.648 73.5733 166.616 75.788 166.616 78.604C166.616 80.188 166.205 81.6987 165.384 83.136C164.563 84.5733 163.052 86.4213 160.852 88.68L153.636 96.028H167.584V101H146.552V96.6L155.88 87.228Z" fill="#1C274C"/>
</svg>
