<?xml version="1.0" encoding="UTF-8"?>
<svg version="1.1" xmlns="http://www.w3.org/2000/svg" width="512" height="512">
<path d="M0 0 C1.27301979 -0.01043099 2.54603959 -0.02086198 3.85763574 -0.03160906 C5.27331659 -0.02296037 6.68899517 -0.01393372 8.10467148 -0.00457001 C9.60640371 -0.00917741 11.10813143 -0.01552925 12.60984969 -0.02347898 C16.74302065 -0.04022003 20.8758235 -0.0319042 25.00899601 -0.01953411 C29.46465012 -0.01050443 33.92023978 -0.02444361 38.3758812 -0.0354538 C47.11043743 -0.05327117 55.84485641 -0.04938322 64.57941809 -0.03780323 C71.68350725 -0.02877488 78.78755791 -0.02754235 85.89165115 -0.0318985 C87.40758218 -0.0328179 87.40758218 -0.0328179 88.95413809 -0.03375587 C91.00726226 -0.03503478 93.06038643 -0.03633164 95.11351058 -0.03764623 C114.38528884 -0.04906324 133.65699112 -0.03592439 152.92875692 -0.01444477 C169.44493251 0.00339474 185.96099553 0.00035029 202.47716904 -0.01811981 C221.66071417 -0.03956285 240.84419243 -0.04793028 260.02774787 -0.03567076 C262.07704781 -0.03439661 264.12634777 -0.03313912 266.17564774 -0.0318985 C267.68799725 -0.03097285 267.68799725 -0.03097285 269.23089929 -0.03002849 C276.31575472 -0.02658345 283.40056758 -0.03238635 290.48541641 -0.04181671 C299.13590423 -0.05307768 307.78624701 -0.04991232 316.43671837 -0.02869374 C320.84578957 -0.01823317 325.25461965 -0.01397497 329.66368866 -0.02729034 C333.71079197 -0.0393267 337.75743379 -0.03246939 341.80449602 -0.01138014 C343.25821355 -0.00696072 344.71197117 -0.00907348 346.16566232 -0.01888329 C366.06070504 -0.14269549 383.56841989 5.48144556 398.83654404 18.50336456 C399.6422081 19.110513 400.44787216 19.71766144 401.27795029 20.34320831 C416.68490091 33.35090861 424.15357539 53.94883099 425.83654404 73.50336456 C425.98176284 76.570269 426.0231073 79.6325202 426.03966904 82.70258331 C426.04536911 83.5412645 426.05106918 84.37994568 426.05694199 85.24404144 C426.06631326 87.00112423 426.07289424 88.75822397 426.07677841 90.51532745 C426.08655763 93.19458982 426.11768391 95.8731072 426.14904404 98.55219269 C426.15556899 100.26898506 426.16082145 101.98578285 426.16466904 103.70258331 C426.17701584 104.4964595 426.18936264 105.29033569 426.20208359 106.10826874 C426.18274952 110.94843651 425.61754357 114.36287867 422.83654404 118.50336456 C419.49287246 120.7274578 416.64553868 120.74649056 412.69103622 120.73041534 C411.45005173 120.73026428 410.20906723 120.73011322 408.93047714 120.72995758 C407.58145613 120.71974517 406.23243677 120.7093132 404.88341904 120.69867706 C403.49908274 120.69494506 402.11474379 120.69209897 400.7304039 120.69010162 C397.09387493 120.6824799 393.45750673 120.66284412 389.82104111 120.64069366 C386.10748087 120.62020366 382.39389456 120.61109317 378.68029404 120.60102081 C371.39897089 120.57959671 364.11778003 120.54547858 356.83654404 120.50336456 C356.87134872 121.63773956 356.90615341 122.77211456 356.94201279 123.94086456 C356.97017609 125.46168294 356.9974735 126.98251752 357.02404404 128.50336456 C357.04918076 129.24715363 357.07431747 129.99094269 357.10021591 130.75727081 C357.10988388 131.49848175 357.11955185 132.23969269 357.12951279 133.00336456 C357.14522324 133.67367706 357.16093369 134.34398956 357.17712021 135.03461456 C356.83654404 137.50336456 356.83654404 137.50336456 353.83654404 145.50336456 C368.68654404 145.50336456 383.53654404 145.50336456 398.83654404 145.50336456 C398.83654404 141.87336456 398.83654404 138.24336456 398.83654404 134.50336456 C400.2090711 131.38398487 400.81608703 130.01359307 403.83654404 128.50336456 C406.30156138 128.39492722 408.73875867 128.34605719 411.20446396 128.34223175 C411.96404404 128.33726685 412.72362411 128.33230194 413.50622177 128.32718658 C416.02649459 128.31254814 418.54670438 128.30575876 421.06701279 128.30023956 C422.81858446 128.29448771 424.57015612 128.28872998 426.32172775 128.28296661 C429.99960244 128.27245062 433.67745525 128.26661246 437.35534286 128.26313019 C442.05845127 128.25765651 446.76126854 128.23365524 451.46428585 128.20515823 C455.08549962 128.18649001 458.70664402 128.18132394 462.32790184 128.17979431 C464.06097943 128.17677465 465.794056 128.16876935 467.52708626 128.15560913 C469.95882946 128.13846746 472.3898716 128.14044887 474.82165146 128.14691925 C475.53205078 128.13770447 476.2424501 128.12848969 476.97437668 128.11899567 C485.01630887 128.18569716 490.3078494 131.40664318 496.10607529 136.73383331 C502.2253303 142.99122049 502.18728823 149.64971977 502.11779404 158.01508331 C501.5358878 165.232337 498.28235782 169.83552418 492.83654404 174.50336456 C483.71134747 181.60073967 473.51912426 180.81538968 462.51623154 180.80414581 C460.9277803 180.8080385 459.33933008 180.81237435 457.7508812 180.81713104 C454.43418616 180.82456315 451.11759766 180.82432274 447.80089951 180.81903839 C443.55967671 180.81323017 439.3188887 180.83022167 435.07773781 180.85338306 C431.80226741 180.8681375 428.52690155 180.86899009 425.25140381 180.86587334 C423.68776332 180.86638511 422.12411675 180.87159577 420.56050873 180.88168526 C418.37342593 180.89407399 416.18718833 180.88724567 414.00011826 180.87567902 C412.7584993 180.87630844 411.51688034 180.87693787 410.23763657 180.87758636 C406.42703566 180.45830641 404.05205536 179.57723357 400.83654404 177.50336456 C398.63002046 174.50249249 398.61535338 171.90860954 398.71154404 168.25336456 C398.72959091 167.36133331 398.74763779 166.46930206 398.76623154 165.55023956 C398.80103622 164.53703644 398.80103622 164.53703644 398.83654404 163.50336456 C391.18592307 163.51830986 383.53583858 163.56021638 375.88558006 163.63545513 C372.33220422 163.66957797 368.77925155 163.69481187 365.22570419 163.6989212 C361.12933079 163.70406422 357.03421514 163.7493252 352.93810654 163.79633331 C351.67729263 163.79240067 350.41647873 163.78846802 349.11745834 163.7844162 C342.08369752 163.89950659 337.00395576 164.73702416 330.8883934 168.3062973 C325.66165711 171.35562198 320.73501914 171.58033162 314.83654404 171.50336456 C314.85225449 172.29509064 314.86796494 173.08681671 314.88415146 173.90253448 C314.94661102 177.49857152 314.98557039 181.09449426 315.02404404 184.69086456 C315.06174911 186.55968292 315.06174911 186.55968292 315.10021591 188.46625519 C315.10988388 189.66830597 315.11955185 190.87035675 315.12951279 192.10883331 C315.14522324 193.21380157 315.16093369 194.31876984 315.17712021 195.45722198 C314.68575786 199.85200912 312.91819179 202.42171681 309.83654404 205.50336456 C308.03519821 205.77751923 308.03519821 205.77751923 305.83337021 205.80976105 C304.59649712 205.83374214 304.59649712 205.83374214 303.33463669 205.8582077 C302.4419458 205.8635704 301.54925491 205.86893311 300.62951279 205.87445831 C299.25319435 205.88800102 299.25319435 205.88800102 297.8490715 205.90181732 C295.90474343 205.91634241 293.96036622 205.92521215 292.0159874 205.92890167 C289.045824 205.94077748 286.07775169 205.98992231 283.10802841 206.04047394 C281.21936668 206.04994034 279.33069218 206.05717433 277.44201279 206.06195831 C276.55539459 206.08149063 275.6687764 206.10102295 274.75529099 206.12114716 C270.45682041 206.08982374 268.39163682 205.8845218 264.76671982 203.39545441 C262.40207051 199.85236869 262.25500513 197.90523093 262.34826279 193.67133331 C262.36437607 192.37904816 262.38048935 191.086763 262.39709091 189.75531769 C262.4388613 188.40048299 262.48118595 187.04566528 262.52404404 185.69086456 C262.54914335 184.3165559 262.57195368 182.9422034 262.59240341 181.56781769 C262.65127943 178.21188481 262.73347983 174.85818366 262.83654404 171.50336456 C261.18307968 171.51822906 261.18307968 171.51822906 259.49621201 171.53339386 C249.44057835 171.45088266 239.08654351 166.36147217 231.83654404 159.50336456 C221.38980907 147.99235096 219.69700468 135.43407605 219.83654404 120.50336456 C211.58654404 120.50336456 203.33654404 120.50336456 194.83654404 120.50336456 C194.83654404 204.65336456 194.83654404 288.80336456 194.83654404 375.50336456 C215.62654404 375.00836456 215.62654404 375.00836456 236.83654404 374.50336456 C234.52654404 372.19336456 232.21654404 369.88336456 229.83654404 367.50336456 C216.03525885 350.14686831 210.70654555 331.23606705 210.67541122 309.27753448 C210.67044632 308.4160379 210.66548141 307.55454132 210.66036606 306.66693878 C210.6459208 303.85589517 210.63897674 301.04490772 210.63341904 298.23383331 C210.62917797 296.78410346 210.62917797 296.78410346 210.62485123 295.30508614 C210.6099402 290.20296334 210.60065635 285.10086829 210.59630966 279.99872589 C210.59079808 274.73516435 210.56669089 269.47185798 210.53833771 264.20837688 C210.5197268 260.14976495 210.51450683 256.09121517 210.51297379 252.03256416 C210.50994957 250.09129485 210.50192884 248.15002656 210.4887886 246.20879936 C210.47174036 243.49973957 210.47360387 240.79131359 210.48009872 238.08222198 C210.47088394 237.28369308 210.46166916 236.48516418 210.45217514 235.66243744 C210.48650571 231.0928709 210.87930281 228.05710023 213.83654404 224.50336456 C217.56120809 221.83355352 220.11779982 221.12750323 224.6744194 221.12241364 C225.84218918 221.11395416 227.00995895 221.10549469 228.21311569 221.09677887 C229.4854657 221.10285156 230.7578157 221.10892426 232.06872177 221.11518097 C233.42916917 221.11111355 234.78961326 221.10577072 236.15005112 221.09925079 C239.83813941 221.08559014 243.52597555 221.0908709 247.21406817 221.10038805 C251.07765928 221.10799272 254.94122905 221.10093665 258.80482101 221.09622955 C265.29370619 221.09077369 271.78248888 221.09795845 278.27135849 221.11225128 C285.76667833 221.12857065 293.26175326 221.12329389 300.75706714 221.10677207 C307.19799403 221.09314412 313.63884732 221.09124412 320.07978398 221.09908807 C323.92414904 221.1037583 327.76839911 221.10440754 331.61275673 221.09447861 C335.2284754 221.08579236 338.84387941 221.09186078 342.45956421 221.10916138 C344.41451972 221.11500041 346.36950193 221.10612432 348.32444382 221.09677887 C359.13145517 221.17487765 359.13145517 221.17487765 363.83654404 224.50336456 C366.04306762 227.50423663 366.05773469 230.09811959 365.96154404 233.75336456 C365.94349716 234.64539581 365.92545029 235.53742706 365.90685654 236.45648956 C365.87205185 237.46969269 365.87205185 237.46969269 365.83654404 238.50336456 C367.07404404 238.46211456 368.31154404 238.42086456 369.58654404 238.37836456 C383.59884626 238.4660785 395.60787906 242.5167134 405.86779404 252.31195831 C414.27355509 261.66837091 417.52408443 272.72471195 417.18420029 285.16742706 C415.80599692 298.39198518 410.13467143 308.36097018 400.03966904 316.78461456 C389.77163173 324.79514012 377.60502788 326.1347731 364.83654404 325.50336456 C364.82236435 326.06281769 364.80818466 326.62227081 364.79357529 327.19867706 C363.65037703 346.41676668 352.95463232 361.38527628 339.83654404 374.50336456 C340.41946055 374.50483112 341.00237707 374.50629768 341.60295773 374.50780869 C355.7916962 374.54487288 369.98020177 374.60388223 384.16874599 374.6872673 C391.03026531 374.72706367 397.89166983 374.75945302 404.75329208 374.77436066 C411.37348518 374.78876462 417.99335885 374.82386892 424.61340904 374.87167358 C427.14076079 374.88652612 429.6681633 374.89440778 432.19555855 374.89524841 C435.73211726 374.89760806 439.26768493 374.92460902 442.80407333 374.95746613 C443.85208115 374.95243576 444.90008896 374.9474054 445.97985458 374.9422226 C450.40778863 375.00599016 453.09453511 375.06518271 456.96357346 377.34998322 C460.11554405 380.97384936 459.95590707 384.07903881 459.93420029 388.70258331 C459.93097763 389.91107941 459.92775497 391.1195755 459.92443466 392.36469269 C459.91605576 393.62732941 459.90767685 394.88996613 459.89904404 396.19086456 C459.89453232 397.46510284 459.8900206 398.73934113 459.88537216 400.05219269 C459.87357277 403.2026302 459.85711001 406.35297405 459.83654404 409.50336456 C460.90090683 409.48765411 461.96526962 409.47194366 463.06188583 409.45575714 C467.02209489 409.40133402 470.98227107 409.36696964 474.94274521 409.33856964 C476.65471588 409.32351116 478.36664815 409.30306001 480.0784874 409.2770462 C482.54350908 409.24053267 485.00801939 409.22360894 487.47326279 409.21039581 C488.61573723 409.18717003 488.61573723 409.18717003 489.78129196 409.16347504 C494.31852704 409.16204784 497.2404082 409.67078887 500.83654404 412.50336456 C502.02442284 414.87912218 501.98197567 416.37053088 502.01354599 419.02216339 C502.02638123 419.96106918 502.03921646 420.89997498 502.05244064 421.86733246 C502.06352104 423.39839882 502.06352104 423.39839882 502.07482529 424.96039581 C502.08289703 426.01434036 502.09096878 427.06828491 502.09928513 428.15416718 C502.11314216 430.39449158 502.12385704 432.63483724 502.13171005 434.87519073 C502.14878296 438.26404327 502.19263775 441.65188419 502.23693466 445.04047394 C502.31694274 456.19254823 502.34629046 466.12185388 497.83654404 476.50336456 C497.47882919 477.39740997 497.12111435 478.29145538 496.75255966 479.21259308 C490.92747289 493.22157796 477.41505923 503.67495024 463.83654404 509.50336456 C454.63811634 512.95129835 445.5489234 512.92967136 435.88418198 512.89104462 C434.17628247 512.89522278 432.46838574 512.90070294 430.76049411 512.90736443 C426.09013755 512.92177441 421.41995814 512.91758825 416.74959207 512.91019762 C411.70380147 512.90545722 406.65804872 512.9179835 401.61227036 512.92821503 C391.73602358 512.94539126 381.85984046 512.94624547 371.98358263 512.94100212 C363.95429664 512.93695701 355.92502942 512.93840804 347.89574432 512.94375038 C346.18011067 512.94487301 346.18011067 512.94487301 344.42981776 512.94601833 C342.10611113 512.94754984 339.78240452 512.94908819 337.4586979 512.95063329 C315.67853964 512.96435408 293.89841733 512.9589236 272.11825989 512.94744808 C252.2043378 512.93751613 232.29050863 512.9504565 212.37660088 512.97438227 C191.91504565 512.99878028 171.4535337 513.00837941 150.99196422 513.00172955 C139.50992498 512.9982389 128.02795718 513.00045926 116.54592896 513.01798058 C106.77161899 513.03271129 96.9974308 513.03332655 87.22312321 513.01590966 C82.23920418 513.00740454 77.25550262 513.00523831 72.271595 513.02056122 C67.70313412 513.03443262 63.13507651 513.02961366 58.56663881 513.01032198 C56.92004582 513.00656919 55.27342032 513.00946301 53.62685634 513.01993363 C35.10255127 513.12929092 19.93213735 508.31984875 6.53576279 495.26898956 C-7.76663991 480.61471878 -10.62172662 464.48432292 -10.55113602 444.78206635 C-10.55531296 442.88213694 -10.56079245 440.98221004 -10.56745583 439.08228773 C-10.5818806 433.8814906 -10.57767506 428.68085235 -10.57028902 423.48004663 C-10.56555261 417.86387235 -10.57807103 412.2477322 -10.58830643 406.63156891 C-10.60548741 395.63939281 -10.6063363 384.64727388 -10.60109352 373.65508784 C-10.59705117 364.72469527 -10.59849614 355.7943196 -10.60384178 346.86392784 C-10.6045902 345.59268231 -10.60533863 344.32143678 -10.60610973 343.01166866 C-10.60764119 340.42920546 -10.60917954 337.84674226 -10.6107247 335.26427906 C-10.62054973 317.93240377 -10.62472073 300.60053834 -10.61709881 283.26866245 C-10.61680163 282.59145664 -10.61650446 281.91425083 -10.61619828 281.21652363 C-10.61374943 275.71739048 -10.61113781 270.2182574 -10.60851415 264.71912432 C-10.59840195 243.24833033 -10.60678821 221.77761447 -10.6300087 200.30683136 C-10.6560624 176.17736485 -10.66888563 152.04795683 -10.66182095 127.91847128 C-10.65832262 115.14395467 -10.66060183 102.36950227 -10.67807198 89.5949955 C-10.69275078 78.72689 -10.6934856 67.85889399 -10.67600106 56.99079073 C-10.66745514 51.44294512 -10.66542902 45.89529547 -10.68065262 40.34745979 C-10.69440193 35.27431751 -10.68986344 30.20154088 -10.67041338 25.12842029 C-10.66662306 23.28817975 -10.66966157 21.4479106 -10.68002503 19.60769535 C-10.6930668 17.11574994 -10.68172782 14.62509093 -10.66402721 12.13320255 C-10.67367773 11.41046037 -10.68332824 10.68771819 -10.69327119 9.94307473 C-10.64565484 6.70235479 -10.34292078 4.76997787 -8.51738626 2.05795997 C-5.48778738 0.05713585 -3.62226637 0.00213532 0 0 Z M7.83654404 18.50336456 C7.83654404 147.53336456 7.83654404 276.56336456 7.83654404 409.50336456 C63.60654404 409.50336456 119.37654404 409.50336456 176.83654404 409.50336456 C176.87392685 387.90512238 176.91130966 366.30688019 176.94982529 344.05414581 C176.98008631 330.4050511 177.01108078 316.75596403 177.04552841 303.10688019 C177.06357912 295.93931889 177.08144317 288.77175717 177.09899521 281.60419464 C177.1012029 280.70583289 177.10341059 279.80747114 177.10568517 278.8818863 C177.14107424 264.37043529 177.16592183 249.85898434 177.18689106 235.34750614 C177.20863837 220.45953403 177.24167859 205.571618 177.2852456 190.68369359 C177.31178077 181.49388944 177.32946239 172.30415521 177.33589008 163.11431464 C177.34113826 156.81614272 177.35733602 150.51805885 177.3822097 144.21993408 C177.3962443 140.58391826 177.40538824 136.94806014 177.4015522 133.31201553 C177.39752194 129.37249085 177.41651654 125.43327092 177.43781662 121.4937973 C177.43054526 119.76471688 177.43054526 119.76471688 177.423127 118.00070554 C177.43258354 116.94573162 177.44204008 115.89075771 177.45178318 114.80381489 C177.45368178 113.8943847 177.45558038 112.98495451 177.45753652 112.04796582 C177.92042957 108.94016928 179.01475728 107.04235967 180.83654404 104.50336456 C184.1792454 102.83201388 187.94245073 103.34928121 191.61892319 103.34514618 C192.99968538 103.33773921 192.99968538 103.33773921 194.40834177 103.33018261 C197.51152318 103.31475034 200.61468382 103.30643153 203.71789169 103.2980423 C205.93490916 103.28846827 208.15192477 103.27845848 210.36893845 103.26804352 C216.40373976 103.24093684 222.43854895 103.21995854 228.4733777 103.20004153 C234.77416586 103.17821744 241.0749296 103.1508113 247.37569809 103.12398529 C257.95638593 103.07969434 268.53708278 103.0388673 279.11779404 103.00067902 C290.01721804 102.96133097 300.91663088 102.91990641 311.81603622 102.87567902 C312.82335906 102.87159261 312.82335906 102.87159261 313.85103185 102.86742365 C317.21990676 102.85374428 320.58878149 102.84002399 323.95765615 102.82628334 C351.91726261 102.71238894 379.87689256 102.60556619 407.83654404 102.50336456 C407.86764818 98.02160947 407.88636537 93.53988255 407.90295029 89.05805206 C407.91185287 87.79694611 407.92075546 86.53584015 407.92992783 85.23651886 C407.98371349 65.84204157 403.8886518 48.7236172 389.83654404 34.50336456 C375.95575631 22.21739074 361.71817704 18.18157846 343.58715439 18.26285553 C342.14006093 18.26197973 340.69296778 18.26022414 339.24587631 18.25766754 C335.27500854 18.25319304 331.30424914 18.26119282 327.33339512 18.2712191 C322.98346007 18.27996491 318.63352985 18.27702906 314.28358841 18.27558327 C305.84314137 18.27452077 297.40273696 18.28374742 288.96230087 18.29658592 C279.19739596 18.31099397 269.4325166 18.31257587 259.66759872 18.31415558 C233.89057375 18.32465342 208.11355825 18.35257568 182.33654404 18.37836456 C95.95904404 18.44023956 95.95904404 18.44023956 7.83654404 18.50336456 Z M237.83654404 120.50336456 C237.83654404 131.89564045 238.12455999 136.45420538 243.52404404 145.25336456 C249.14958335 150.72686227 255.85931269 153.61397503 263.64977646 153.66449738 C264.8449942 153.67410492 266.04021194 153.68371246 267.27164841 153.69361115 C269.21222878 153.69998596 269.21222878 153.69998596 271.19201279 153.70648956 C272.53619513 153.71224573 273.88037746 153.71800341 275.22455978 153.72376251 C278.04485073 153.73426574 280.86511324 153.74011207 283.68542099 153.74359894 C287.28201183 153.74906642 290.87822079 153.77305927 294.47469234 153.80157089 C297.25355206 153.82029251 300.03232181 153.82540801 302.81123924 153.82693481 C304.77643989 153.83139743 306.74159219 153.85000189 308.706707 153.86890411 C318.61418812 153.84435097 325.69477117 152.48356682 333.07091904 145.49945831 C339.89163091 137.78843228 338.83654404 131.20886238 338.83654404 120.50336456 C305.50654404 120.50336456 272.17654404 120.50336456 237.83654404 120.50336456 Z M416.83654404 146.50336456 C416.83654404 151.78336456 416.83654404 157.06336456 416.83654404 162.50336456 C424.57318092 162.57121454 432.30970659 162.62622339 440.04656887 162.65880108 C443.63935232 162.67443896 447.23192118 162.69564235 450.82458115 162.72968292 C454.29348795 162.76234422 457.76218868 162.78023171 461.23123741 162.78799629 C463.19493155 162.79621474 465.15854312 162.81962348 467.12211227 162.84325409 C468.92341347 162.84359398 468.92341347 162.84359398 470.76110458 162.84394073 C472.34329033 162.85393349 472.34329033 162.85393349 473.95743942 162.86412811 C478.23309335 162.32837124 480.83280667 160.50710193 483.83654404 157.50336456 C484.39396696 152.57140191 484.39396696 152.57140191 482.20293808 148.30518341 C479.14447107 145.97640663 477.41904345 146.01870457 473.59923935 146.049263 C471.70773148 146.04971619 471.70773148 146.04971619 469.77801132 146.05017853 C468.40689077 146.07060351 467.0357767 146.09146747 465.66466904 146.11273956 C464.25791859 146.12020339 462.85115773 146.12589566 461.44439316 146.12989044 C457.74846122 146.14513596 454.05316177 146.18440726 450.3574791 146.22870636 C446.58366069 146.26968313 442.80973971 146.28790652 439.03576279 146.30805206 C431.63570198 146.35090377 424.23629234 146.4212434 416.83654404 146.50336456 Z M280.83654404 171.50336456 C280.83654404 176.78336456 280.83654404 182.06336456 280.83654404 187.50336456 C286.11654404 187.50336456 291.39654404 187.50336456 296.83654404 187.50336456 C296.83654404 182.22336456 296.83654404 176.94336456 296.83654404 171.50336456 C291.55654404 171.50336456 286.27654404 171.50336456 280.83654404 171.50336456 Z M228.83654404 239.50336456 C228.83654404 248.08336456 228.83654404 256.66336456 228.83654404 265.50336456 C251.54362133 273.07239033 272.63930733 270.52202075 295.09435654 263.64008331 C309.46343415 259.2753635 323.55218109 258.89225057 338.39904404 260.50336456 C341.51341904 260.83336456 344.62779404 261.16336456 347.83654404 261.50336456 C347.83654404 254.24336456 347.83654404 246.98336456 347.83654404 239.50336456 C308.56654404 239.50336456 269.29654404 239.50336456 228.83654404 239.50336456 Z M365.83654404 256.50336456 C365.83654404 273.33336456 365.83654404 290.16336456 365.83654404 307.50336456 C376.60110089 307.50336456 384.17776344 307.21835106 392.07482529 299.57758331 C397.23498855 293.50209176 399.73600738 287.24783984 399.31701279 279.24164581 C398.042616 271.97862021 394.49177414 266.16066165 388.66076279 261.68305206 C381.16220964 256.83388065 374.61248005 256.50336456 365.83654404 256.50336456 Z M289.51281357 282.93891144 C268.67364043 288.83230691 249.95611872 288.01137226 228.83654404 284.50336456 C228.78630618 288.94670988 228.75043796 293.38989541 228.72668076 297.83344269 C228.71675474 299.33835487 228.70320949 300.84324848 228.68566513 302.34809113 C228.43537045 324.40346927 231.66372021 342.54258345 247.14904404 359.25336456 C259.20395506 370.67813251 274.84510966 376.12584446 291.27404404 375.81586456 C307.54275132 374.38878498 320.28935251 368.0097533 331.83654404 356.50336456 C332.40115341 355.96195831 332.96576279 355.42055206 333.54748154 354.86273956 C347.82791818 339.90228213 348.28407634 320.03301582 348.02404404 300.69086456 C348.00896363 298.72668216 347.99528119 296.76248851 347.98302841 294.79828644 C347.95030335 290.03302967 347.89870816 285.26832448 347.83654404 280.50336456 C327.01335379 274.93709069 310.02005156 277.0560146 289.51281357 282.93891144 Z M194.83654404 393.50336456 C194.83654404 398.78336456 194.83654404 404.06336456 194.83654404 409.50336456 C276.34654404 409.50336456 357.85654404 409.50336456 441.83654404 409.50336456 C441.83654404 404.22336456 441.83654404 398.94336456 441.83654404 393.50336456 C360.32654404 393.50336456 278.81654404 393.50336456 194.83654404 393.50336456 Z M7.83654404 427.50336456 C6.23573032 458.34929406 6.23573032 458.34929406 19.94201279 482.70258331 C28.0243611 490.22848768 36.73712819 494.74787091 47.95001984 494.76063347 C48.64618015 494.76413954 49.34234046 494.76764562 50.05959654 494.77125794 C52.39179952 494.78056011 54.72375214 494.77565173 57.05596542 494.7707901 C58.74518704 494.77452696 60.43440694 494.77912863 62.12362409 494.78452075 C66.76542694 494.79676179 71.40715777 494.79648897 76.04897308 494.79413199 C81.05525195 494.79372411 86.06150764 494.80476032 91.06777573 494.81424713 C100.87617593 494.83086431 110.68455209 494.83635701 120.49296519 494.83747189 C128.46566197 494.83842205 136.43835081 494.84253075 144.41104507 494.84887314 C167.01333023 494.86648773 189.61559638 494.8757117 212.21788844 494.87421219 C214.04586124 494.87409232 214.04586124 494.87409232 215.91076279 494.87397003 C217.7409667 494.87384739 217.7409667 494.87384739 219.60814443 494.87372227 C239.38214449 494.87290937 259.15606838 494.89204746 278.93004641 494.92024677 C299.23209287 494.94897075 319.53410218 494.96278732 339.83616948 494.96105921 C351.23491459 494.96039513 362.63357986 494.96589541 374.03230667 494.98741531 C383.73764785 495.00562073 393.44287299 495.00997969 403.14822385 494.99639647 C408.09933713 494.98986355 413.05022774 494.98976141 418.00131989 495.00710297 C422.5365099 495.02282431 427.07130053 495.01997959 431.60648075 495.0025347 C433.2444245 494.99946274 434.88239799 495.0031046 436.52030668 495.01425485 C450.48111158 495.10297673 461.66013359 492.33122465 472.03576279 482.39789581 C487.35552926 465.94542942 483.83654404 451.90786726 483.83654404 427.50336456 C326.75654404 427.50336456 169.67654404 427.50336456 7.83654404 427.50336456 Z " fill="#000000" transform="translate(10.163455963134766,-0.5033645629882813)"/>
<path d="M0 0 C1.91036041 -0.0099852 1.91036041 -0.0099852 3.85931396 -0.02017212 C6.54909284 -0.03027757 9.23846723 -0.03585761 11.92822266 -0.03466797 C15.34522011 -0.03446532 18.76138085 -0.06172958 22.17818069 -0.09621239 C25.47292068 -0.12403842 28.76765868 -0.12263619 32.0625 -0.125 C33.88022919 -0.14655655 33.88022919 -0.14655655 35.73468018 -0.16854858 C44.92141726 -0.11972462 53.72167132 1.10926105 60.734375 7.5234375 C68.21683198 16.32565775 68.38142816 25.32698696 68.33032227 36.43725586 C68.33738942 38.05781334 68.34613777 39.67836422 68.35643005 41.29890442 C68.3788447 45.6791776 68.37600298 50.05908809 68.36710858 54.43939662 C68.36198186 58.10478949 68.36930489 61.77011521 68.37658066 65.43550116 C68.39355451 74.08653693 68.39003923 82.7373962 68.37329102 91.38842773 C68.35637066 100.29485354 68.37220867 109.20078918 68.4045139 118.10716146 C68.43125623 125.77201605 68.43847333 133.43671848 68.42999882 141.10161501 C68.4250833 145.67158775 68.42721041 150.24126568 68.44778633 154.8112011 C68.46621676 159.11000095 68.46009568 163.40809877 68.43558693 167.7068615 C68.43060233 169.2781337 68.43400734 170.84946008 68.44673538 172.42068863 C68.52126528 182.41719295 67.87604242 190.80741564 60.83644962 198.4698019 C52.64328765 206.44868051 43.9500654 206.79495581 33.0234375 206.76953125 C31.70451508 206.7747731 30.38559265 206.78001495 29.02670288 206.78541565 C26.24459204 206.7943097 23.46276881 206.7919672 20.68066406 206.78198242 C17.1413751 206.7705087 13.60308632 206.79069706 10.0639286 206.81989956 C7.31497037 206.8383794 4.56624653 206.83794576 1.81724167 206.83226204 C-0.11352013 206.83203714 -2.04426029 206.84882693 -3.97494507 206.86607361 C-13.44489862 206.79171353 -22.24895084 205.29011166 -29.203125 198.3359375 C-33.82732657 192.25841543 -35.44945963 186.96766874 -35.47055054 179.37297058 C-35.47508165 178.69632443 -35.47961276 178.01967828 -35.48428118 177.32252771 C-35.49688392 175.06805664 -35.49530752 172.81382844 -35.49365234 170.55932617 C-35.4996402 168.9375935 -35.50644634 167.31586367 -35.51400757 165.69413757 C-35.53164902 161.29731929 -35.53636218 156.90057889 -35.53763914 152.50372863 C-35.53906239 149.75411342 -35.5433353 147.00451791 -35.54863358 144.25490761 C-35.56712799 134.65487032 -35.57530496 125.0548885 -35.57373047 115.45483398 C-35.57252935 106.51842522 -35.59362729 97.58225808 -35.6252178 88.64591044 C-35.65140447 80.96332295 -35.66209676 73.28081426 -35.66081965 65.5981825 C-35.6603107 61.01424841 -35.66595653 56.43052911 -35.68717575 51.84663963 C-35.70659842 47.53322052 -35.70665526 43.22022021 -35.69214249 38.90678596 C-35.69005825 37.32863627 -35.69473229 35.75046009 -35.7068634 34.17235565 C-35.77777129 24.30474302 -35.40419631 16.31089037 -28.828125 8.5234375 C-19.40660826 0.67217355 -11.89813138 0.02170726 0 0 Z M-15.203125 20.3359375 C-17.590663 23.9172445 -17.45838154 25.48905509 -17.47055054 29.7440033 C-17.47508165 30.39711268 -17.47961276 31.05022207 -17.48428118 31.72312266 C-17.4969604 33.91566568 -17.49530259 36.10796143 -17.49365234 38.30053711 C-17.49963536 39.87082744 -17.50644038 41.44111482 -17.51400757 43.01139832 C-17.53169676 47.27996384 -17.53636414 51.54844921 -17.53763914 55.81704783 C-17.53953675 59.37830536 -17.54689259 62.93954415 -17.55398333 66.50079447 C-17.57027558 74.90117404 -17.57515148 83.30151074 -17.57373047 91.7019043 C-17.57252844 100.37307952 -17.59364043 109.04400607 -17.6252178 117.71511835 C-17.65134976 125.15553141 -17.66209908 132.59586309 -17.66081965 140.0363217 C-17.66030915 144.4820918 -17.66604052 148.92764093 -17.68717575 153.3733654 C-17.70650673 157.55376822 -17.70671819 161.73373808 -17.69214249 165.91415596 C-17.69004694 167.44925187 -17.69479956 168.98437451 -17.7068634 170.51942444 C-17.72225789 172.61375802 -17.71304884 174.70658782 -17.69760132 176.80088806 C-17.69869085 177.97319945 -17.69978039 179.14551085 -17.70090294 180.35334682 C-17.09883857 183.96080192 -16.03340173 185.10039167 -13.203125 187.3359375 C-10.66243695 188.60628153 -8.85100891 188.48369699 -6.0065918 188.51293945 C-4.92173996 188.52577469 -3.83688812 188.53860992 -2.71916199 188.55183411 C-1.54211197 188.55922104 -0.36506195 188.56660797 0.84765625 188.57421875 C2.05375046 188.5822905 3.25984467 188.59036224 4.50248718 188.59867859 C7.05885374 188.6125285 9.61523886 188.62324657 12.17163086 188.63110352 C16.08287554 188.64832085 19.99327622 188.69220126 23.90429688 188.73632812 C26.38541044 188.7464543 28.8665312 188.75497064 31.34765625 188.76171875 C32.51863358 188.77922684 33.6896109 188.79673492 34.89607239 188.81477356 C41.25984552 188.85560361 41.25984552 188.85560361 47.01245117 186.43432617 C50.02011821 182.89746775 49.92708418 180.72226319 49.94404602 176.13078308 C49.94772271 175.48740079 49.9513994 174.84401849 49.9551875 174.18113977 C49.96624029 172.01552725 49.97007085 169.84996269 49.97387695 167.68432617 C49.98014038 166.13551175 49.98678707 164.58669883 49.99378967 163.03788757 C50.01121004 158.82293391 50.02175415 154.6079916 50.0299952 150.39301085 C50.03514294 147.76071141 50.04121876 145.1284155 50.04750633 142.49611855 C50.06656092 134.26335921 50.08079174 126.03060887 50.0891183 117.79783171 C50.0988941 108.28866156 50.12522136 98.77972397 50.16561919 89.27063578 C50.1957591 81.92450389 50.21058513 74.57843875 50.21389931 67.23224622 C50.21625215 62.84286364 50.22524272 58.45372943 50.25036049 54.06441307 C50.27360934 49.93492644 50.27788747 45.80585228 50.26759911 41.67631721 C50.26710286 40.16098536 50.27344948 38.64563342 50.28715515 37.13036346 C50.30482966 35.06042767 50.29779206 32.99197934 50.28462219 30.92204285 C50.28701055 29.76410312 50.2893989 28.60616339 50.29185963 27.41313457 C49.68741843 23.65547305 48.47022082 22.00166442 45.796875 19.3359375 C42.80159692 18.33751147 40.79962684 18.20364185 37.67041016 18.19067383 C36.62567535 18.18429398 35.58094055 18.17791412 34.50454712 18.17134094 C33.37640594 18.17022812 32.24826477 18.1691153 31.0859375 18.16796875 C29.92565033 18.16464035 28.76536316 18.16131195 27.56991577 18.15788269 C25.11367184 18.15281655 22.65742102 18.15047427 20.20117188 18.15063477 C16.4438949 18.1484503 12.68691243 18.13029654 8.9296875 18.11132812 C6.54427184 18.10839375 4.15885478 18.10640925 1.7734375 18.10546875 C0.64934479 18.09828323 -0.47474792 18.09109772 -1.63290405 18.08369446 C-2.68394318 18.08677109 -3.7349823 18.08984772 -4.81787109 18.09301758 C-5.73925873 18.09159256 -6.66064636 18.09016754 -7.60995483 18.08869934 C-10.51499698 18.36567201 -12.60759713 19.00629496 -15.203125 20.3359375 Z " fill="#000000" transform="translate(86.203125,169.6640625)"/>
<path d="M0 0 C4.08300774 2.79977673 4.96652052 6.396555 6.19140625 10.9765625 C6.92081673 13.35656895 6.92081673 13.35656895 10 15 C13.03817204 15.30499407 13.03817204 15.30499407 16.57368374 15.25726891 C17.24791961 15.26077498 17.92215549 15.26428105 18.61682275 15.26789337 C20.89245141 15.27725081 23.16782658 15.272273 25.44346619 15.26742554 C27.08487726 15.27115961 28.72628656 15.27576015 30.36769301 15.28115618 C34.89103915 15.29343153 39.41431158 15.29312041 43.93767059 15.29076743 C48.81096221 15.29036041 53.68422984 15.30138736 58.55751038 15.31088257 C68.10963675 15.32751796 77.66173844 15.33299324 87.21387809 15.33410732 C94.97502776 15.33505652 102.73616927 15.33916037 110.49731636 15.34550858 C132.48366971 15.36312728 154.47000351 15.37234637 176.45636397 15.37084763 C177.64244111 15.37076772 178.82851824 15.3706878 180.05053711 15.37060547 C181.83181551 15.37048283 181.83181551 15.37048283 183.64907933 15.37035771 C202.90353572 15.36954445 222.15791395 15.38869059 241.41234773 15.4168822 C261.16508437 15.44557609 280.91778284 15.45942445 300.67054087 15.45769465 C311.76732689 15.45702958 322.86403096 15.46257317 333.96079826 15.48405075 C343.40727225 15.50221655 352.85362714 15.50664784 362.30011099 15.4930319 C367.12287036 15.48647914 371.94540095 15.48646785 376.76813889 15.5037384 C381.17916077 15.51937262 385.58977061 15.51670525 390.00078184 15.49917014 C391.60035078 15.49607882 393.19994973 15.49981205 394.79948329 15.51089029 C396.96698609 15.52491334 399.1330238 15.51450505 401.30047512 15.49777794 C402.50635955 15.49821267 403.71224398 15.49864741 404.95467037 15.49909532 C408.60860465 14.90025653 409.76250828 13.88980201 412 11 C412.88223083 8.76579633 412.88223083 8.76579633 413.375 6.4375 C414.44325194 2.93247875 414.75600954 2.18434835 417.8125 -0.125 C421.45705811 -1.12546693 423.41115636 -1.1702751 427 0 C429.375 1.375 429.375 1.375 431 4 C432.40476571 11.92970551 430.55383827 18.46174354 426 25 C421.31373868 30.2762182 415.59224428 33.60732275 408.53883332 34.37834883 C407.31358046 34.37992003 406.08832759 34.38149123 404.82594585 34.38311005 C403.79010486 34.39054932 403.79010486 34.39054932 402.73333779 34.39813888 C400.42609573 34.41106228 398.1194355 34.40272099 395.81217957 34.39440918 C394.13859199 34.39929964 392.4650078 34.40549017 390.79142934 34.41286707 C386.19746115 34.42927014 381.60366453 34.4269479 377.00967729 34.4214921 C372.05316777 34.41882235 367.09670403 34.4333527 362.14021301 34.44558716 C352.43153642 34.46664589 342.72291955 34.47118174 333.01422282 34.46939927 C325.12259108 34.46809183 317.23097798 34.47189488 309.33934975 34.47932434 C307.06646786 34.48142353 304.79358598 34.48352113 302.52070409 34.48561716 C300.82380037 34.48718245 300.82380037 34.48718245 299.09261576 34.48877937 C277.69503673 34.50768364 256.29749197 34.50663101 234.89990804 34.49981004 C215.32641278 34.49423485 195.75304842 34.51505868 176.17958375 34.54817051 C156.08090201 34.58190688 135.98228298 34.59707587 115.8835724 34.59245348 C104.59996268 34.59020869 93.31647394 34.59545342 82.03288841 34.62034607 C72.42636112 34.64135849 62.82002114 34.64495172 53.21348616 34.62604648 C48.31295337 34.61688823 43.41276983 34.61574846 38.51226425 34.63640213 C34.02329128 34.65511196 29.53495359 34.65060858 25.04600481 34.62785631 C23.42491537 34.62367057 21.80377722 34.62786976 20.18273928 34.64145225 C10.29854589 34.71860928 1.71506167 34.25322167 -5.89377433 27.25926352 C-11.63644182 21.17979476 -13.5861695 14.73150335 -13.359375 6.46484375 C-13 4 -13 4 -11.1875 1.375 C-7.14299642 -1.16725939 -4.54802012 -1.20661758 0 0 Z " fill="#000000" transform="translate(47,444)"/>
<path d="M0 0 C1.14892807 -0.00709439 2.29785615 -0.01418877 3.48160022 -0.02149814 C6.66675958 -0.03605426 9.85095307 -0.02818368 13.03606927 -0.01077521 C16.47239574 0.00259188 19.90860937 -0.01283579 23.34492493 -0.02459717 C30.07476305 -0.04298262 36.80431096 -0.03445583 43.53414006 -0.01650894 C49.00263866 -0.00248815 54.47105844 0.00141099 59.93957329 -0.00195122 C61.10663954 -0.00266738 61.10663954 -0.00266738 62.29728289 -0.00339801 C63.87780931 -0.00442433 65.45833572 -0.00547969 67.0388621 -0.00656378 C81.01643961 -0.01513252 94.9938769 0.00155039 108.97142029 0.03126526 C122.53918852 0.06010866 136.1067548 0.06718383 149.67454529 0.05177307 C164.44523951 0.03501901 179.21583783 0.03096812 193.98653454 0.04848343 C195.56096867 0.05032785 197.13540281 0.05216257 198.70983696 0.0539875 C199.87185276 0.05535564 199.87185276 0.05535564 201.05734362 0.05675141 C206.52079517 0.06236134 211.98419997 0.05904544 217.447649 0.05244255 C224.10353538 0.04471795 230.75922282 0.05143038 237.41506905 0.07661759 C240.81207069 0.08913255 244.20876232 0.09523535 247.60577583 0.08407593 C251.28503931 0.07543161 254.96339115 0.09125364 258.64257812 0.11352539 C259.72087263 0.10528462 260.79916714 0.09704386 261.91013724 0.08855337 C269.0920279 0.16921016 269.0920279 0.16921016 272.39390469 2.44551182 C274.34281756 5.56441427 274.69354084 7.96557428 274.75779724 11.62818909 C273.53693845 14.51969675 272.62209727 16.09387536 269.94478077 17.74900311 C267.45237959 18.75096958 265.63546603 18.87988813 262.95356083 18.88266468 C261.98377955 18.88849687 261.01399828 18.89432907 260.0148297 18.90033799 C258.95209898 18.89655867 257.88936827 18.89277935 256.79443359 18.8888855 C255.09788278 18.89462382 255.09788278 18.89462382 253.36705822 18.90047807 C249.56309437 18.91082742 245.75928093 18.9068122 241.95530701 18.90284729 C239.23379579 18.90609817 236.51229304 18.91231048 233.79078674 18.91833496 C227.15748794 18.93109421 220.52422959 18.93287414 213.89092059 18.9305347 C208.5001308 18.92875278 203.10935331 18.93049845 197.71856499 18.93475914 C196.56838075 18.93565192 196.56838075 18.93565192 195.39496047 18.93656274 C193.83730626 18.93777447 192.27965206 18.93898861 190.72199785 18.94020512 C176.10934288 18.95108534 161.49671098 18.94891586 146.88405471 18.94282027 C133.51164779 18.9376504 120.13931369 18.94890754 106.76692117 18.96791849 C93.04050286 18.98728336 79.31411902 18.99555529 65.58768696 18.99179524 C57.87958596 18.98988118 50.17154697 18.99239072 42.46345711 19.00650978 C35.90167819 19.01840734 29.33999943 19.01984679 22.77821917 19.00771961 C19.42969909 19.00181942 16.08151301 19.00238159 12.73298073 19.01272202 C9.1045303 19.02312103 5.47657665 19.01514349 1.84814453 19.00241089 C0.78764454 19.00978517 -0.27285545 19.01715946 -1.36549181 19.02475721 C-7.83228837 18.97683066 -11.53813658 18.33225527 -16.24220276 13.62818909 C-17.03184011 6.74706357 -17.03184011 6.74706357 -14.40992832 3.03195286 C-9.74318794 -0.50930766 -5.71388612 -0.06284758 0 0 Z " fill="#000000" transform="translate(84.24220275878906,50.37181091308594)"/>
<path d="M0 0 C4.50156235 3.88771294 8.10418981 8.31256942 10 14 C10.68162364 24.43408494 10.37163894 31.10699788 3.625 39.25 C-1.07941029 44.3703792 -5.24846938 46.71817319 -12.171875 47.23828125 C-21.34314506 47.42851502 -26.80632123 46.62181348 -33.75 40.625 C-39.44178963 33.98457876 -42.40588983 27.91419735 -41.9375 19.125 C-40.94340033 11.78221832 -38.11433483 5.31906499 -32.3125 0.5625 C-22.03943604 -6.2219625 -10.37142763 -6.91428509 0 0 Z M-22 16 C-23.73801735 18.79698704 -23.73801735 18.79698704 -24 22 C-22.66873553 24.92878184 -21.26695035 26.73304965 -19 29 C-15.14493238 29.42834085 -12.87199635 29.55897202 -9.5625 27.4375 C-7.39603972 24.05782196 -7.43711998 21.94016013 -8 18 C-9.7764804 15.58906232 -11.2158392 14.3920804 -13.875 13.0625 C-17.28829375 12.96210901 -19.20226515 14.11456999 -22 16 Z " fill="#000000" transform="translate(118,209)"/>
<path d="M0 0 C6.88397661 7.08066166 8.61762779 13.87707431 8.52734375 23.59765625 C7.87414566 30.61765876 4.96745546 35.92818446 -0.1875 40.6875 C-7.69286988 46.34860164 -14.48923016 47.40293706 -23.8125 46.25 C-32.17090351 43.74595679 -37.8697573 38.33291921 -42.1875 30.875 C-44.37124198 21.70328369 -44.31430266 14.23139445 -39.5 6 C-29.87952983 -8.37444519 -13.51601226 -8.40996318 0 0 Z M-23.8125 15.25 C-25.471096 18.05896063 -25.471096 18.05896063 -25.8125 21.25 C-24.48123553 24.17878184 -23.07945035 25.98304965 -20.8125 28.25 C-17.10883426 28.7438221 -15.24004936 28.48236378 -11.9375 26.6875 C-9.50977262 24.3367841 -9.50977262 24.3367841 -9.25 20.75 C-9.54734407 17.2521984 -9.54734407 17.2521984 -11.5 14.875 C-16.1807861 11.58579896 -19.36098394 11.52035141 -23.8125 15.25 Z " fill="#000000" transform="translate(119.8125,286.75)"/>
<path d="M0 0 C0.7115625 -0.01998047 1.423125 -0.03996094 2.15625 -0.06054688 C5.68624062 -0.05725397 7.62015977 0.14105418 10.4375 2.33984375 C13.05864473 5.85873055 13.43116741 8.03959239 13 12.4375 C10.84909549 15.77511045 9.79587201 17.17220933 6 18.4375 C-7.11616011 19.42168517 -7.11616011 19.42168517 -12 15.4375 C-13.61405093 11.8058854 -14.26089496 9.58543781 -13.375 5.6875 C-10.04181166 0.2331918 -6.03306583 -0.06011207 0 0 Z " fill="#000000" transform="translate(380,50.5625)"/>
<path d="M0 0 C0.69867188 -0.01933594 1.39734375 -0.03867187 2.1171875 -0.05859375 C6.01389781 -0.02183233 7.85862261 0.51603324 10.96484375 2.91015625 C14.01403627 6.97769713 13.71046028 8.65177804 13 13.625 C10.79259319 16.59358157 9.51402627 17.45365791 6 18.625 C4.04524991 18.7697963 2.0848862 18.84567502 0.125 18.875 C-1.41800781 18.91367188 -1.41800781 18.91367188 -2.9921875 18.953125 C-7.36157798 18.47646422 -9.9371613 16.6878387 -13 13.625 C-13.79544584 6.6932577 -13.79544584 6.6932577 -10.97265625 2.90234375 C-7.2880826 0.07960205 -4.46431076 -0.12355104 0 0 Z " fill="#000000" transform="translate(47,50.375)"/>
</svg>
