<svg version="1.1" id="Layer_1" xmlns="http://www.w3.org/2000/svg" xmlns:xlink="http://www.w3.org/1999/xlink" x="0px" y="0px"
	 width="100%" viewBox="0 0 512 512" enable-background="new 0 0 512 512" xml:space="preserve">
<path fill="#000000" opacity="1.000000" stroke="none" 
	d="
M513.000000,415.000000 
	C513.000000,431.020905 513.000000,447.041779 512.617981,463.663391 
	C509.442810,481.695862 500.062347,494.921539 485.303101,503.980011 
	C478.804657,507.968445 471.136902,510.051758 464.000000,513.000000 
	C326.312439,513.000000 188.624878,513.000000 50.336617,512.617981 
	C32.304165,509.442810 19.078476,500.062347 10.019999,485.303131 
	C6.031548,478.804657 3.948265,471.136902 0.999999,464.000000 
	C1.000000,309.747742 1.000000,155.495453 1.000000,1.000000 
	C124.020790,1.000000 247.041733,1.000000 370.672852,1.389611 
	C372.940857,1.864752 374.678314,1.656621 376.244141,2.081282 
	C391.755096,6.287941 405.186035,13.680777 416.397217,25.650326 
	C430.022369,40.197170 435.554382,57.650944 436.861450,76.750885 
	C437.622040,87.864967 437.139435,99.076042 436.951172,110.238991 
	C436.824036,117.778458 433.233093,120.989456 425.594482,120.995598 
	C408.261993,121.009537 390.929474,121.000000 373.596985,121.000000 
	C371.822876,121.000000 370.048767,121.000000 368.773621,121.000000 
	C367.859375,129.578201 367.003723,137.606705 366.139984,145.711258 
	C380.070831,145.711258 394.942078,145.711258 410.000000,145.711258 
	C410.000000,143.275269 410.029938,141.126221 409.994293,138.978287 
	C409.894348,132.957748 413.418335,128.702301 420.089661,128.829529 
	C443.246796,129.271133 466.419098,128.865677 489.581451,129.138016 
	C493.254517,129.181198 497.196594,130.494629 500.505585,132.204956 
	C506.897705,135.508896 510.671387,141.276764 513.000000,148.000000 
	C513.000000,152.356903 513.000000,156.713806 512.640442,161.641296 
	C512.019775,163.141281 511.885712,164.130844 511.478302,164.990936 
	C506.391724,175.730057 497.462128,180.744736 485.998199,180.918640 
	C466.506165,181.214310 447.002197,180.754730 427.511414,181.089417 
	C415.271454,181.299591 408.414032,179.474686 409.921906,164.760315 
	C409.933044,164.651581 409.728668,164.520737 409.283813,164.004059 
	C390.340698,164.004059 371.053711,163.986282 351.766998,164.052216 
	C350.712585,164.055817 349.538055,164.569412 348.626953,165.163757 
	C341.865265,169.574707 334.446167,171.872787 326.000000,172.224716 
	C326.000000,179.935043 326.035278,187.561646 325.989929,195.187775 
	C325.945923,202.592667 322.566925,205.999573 315.390594,205.999893 
	C304.725830,206.000381 294.061096,206.009659 283.396332,205.996521 
	C276.642334,205.988190 274.010376,203.302307 274.002258,196.434174 
	C273.992676,188.322968 274.000000,180.211731 274.000000,172.294510 
	C260.484589,171.310791 249.475006,166.667404 240.927231,156.510025 
	C232.222870,146.166550 230.512787,133.885483 230.922409,121.360245 
	C222.205933,121.360245 214.130356,121.360245 206.348572,121.360245 
	C206.348572,206.448898 206.348572,291.177124 206.348572,375.609497 
	C220.698166,375.609497 234.697617,375.609497 249.387909,375.609497 
	C231.272919,359.572876 222.730072,339.608948 222.165787,316.637604 
	C221.474426,288.492950 221.912613,260.317902 222.072479,232.157166 
	C222.105865,226.276016 226.886032,222.040649 232.969360,222.032394 
	C277.294708,221.972305 321.620209,221.966049 365.945496,222.034485 
	C373.093018,222.045517 376.959747,226.171112 376.998413,233.197723 
	C377.008942,235.112701 377.000000,237.027786 377.000000,238.939285 
	C410.726685,238.533890 425.295807,257.288727 427.880371,278.369293 
	C429.248749,289.530090 426.220184,300.197479 419.294281,309.009705 
	C408.416656,322.850037 393.081116,326.840729 376.233826,325.981842 
	C375.326813,341.118744 369.893524,351.486481 350.135406,376.000000 
	C352.050690,376.000000 353.641541,376.000000 355.232391,376.000000 
	C390.059509,376.000000 424.886597,375.999420 459.713715,376.000427 
	C467.695770,376.000671 470.972443,379.255768 470.995422,387.257233 
	C471.016846,394.710480 471.000000,402.163849 471.000000,410.000000 
	C481.852600,410.000000 492.307617,410.095673 502.759460,409.954498 
	C507.152618,409.895172 510.408112,411.651062 513.000000,415.000000 
M218.500000,103.000000 
	C285.254974,103.000000 352.009918,103.000000 419.569122,103.000000 
	C418.932129,90.714767 419.212250,78.889069 417.495605,67.360710 
	C415.337494,52.867481 407.564209,40.996689 396.170685,31.693499 
	C386.930878,24.148844 376.312683,19.141403 364.394653,19.120275 
	C250.745743,18.918819 137.096344,18.999134 23.447086,19.009836 
	C22.015841,19.009972 20.584606,19.158022 19.290707,19.229450 
	C19.290707,149.672867 19.290707,279.730682 19.290707,409.713989 
	C75.647820,409.713989 131.713760,409.713989 188.000000,409.713989 
	C188.000000,407.618805 188.000000,405.807800 188.000000,403.996796 
	C188.000000,308.011505 188.000000,212.026184 188.000031,116.040886 
	C188.000031,114.874397 187.940979,113.704384 188.010300,112.542023 
	C188.371017,106.493629 191.991745,103.029724 198.003052,103.005844 
	C204.501953,102.980026 211.001022,103.000000 218.500000,103.000000 
M197.500000,428.000000 
	C138.071259,428.000000 78.642525,428.000000 19.000000,428.000000 
	C19.000000,436.388458 19.261581,444.211578 18.928392,452.009277 
	C18.576454,460.245850 20.514729,467.650696 24.931713,474.592773 
	C32.963863,487.216797 44.009712,494.934753 59.250290,494.945648 
	C191.416748,495.039978 323.583282,494.996521 455.749817,495.004608 
	C471.157043,495.005554 486.408783,482.801300 492.060120,469.133148 
	C497.609772,455.710968 493.711700,441.859436 495.182129,428.000000 
	C395.787201,428.000000 297.143616,428.000000 197.500000,428.000000 
M358.998596,282.947144 
	C358.371429,282.159546 357.838928,280.793488 357.102631,280.673004 
	C348.948944,279.339050 340.665222,276.795959 332.611938,277.361298 
	C322.617920,278.062897 312.845062,281.572235 302.907562,283.515564 
	C292.448181,285.560944 281.947571,288.300842 271.390564,288.683167 
	C261.110016,289.055481 250.735336,286.828308 240.998550,285.805176 
	C240.998550,296.828064 240.970398,308.525696 241.006317,320.223114 
	C241.043457,332.319550 245.567657,342.702515 252.681091,352.336426 
	C266.486389,371.033356 290.063934,379.476562 311.268402,374.783600 
	C339.810272,368.466736 359.158386,344.274475 359.008392,314.849854 
	C358.955750,304.522949 358.999969,294.195618 358.998596,282.947144 
M330.500000,410.000000 
	C371.260040,410.000000 412.020081,410.000000 452.711365,410.000000 
	C452.711365,404.352264 452.711365,399.279572 452.711365,394.284546 
	C370.355560,394.284546 288.288635,394.284546 206.288589,394.284546 
	C206.288589,399.647675 206.288589,404.720367 206.288589,410.000000 
	C247.551208,410.000000 288.525604,410.000000 330.500000,410.000000 
M256.560791,121.000000 
	C254.123901,121.000000 251.686996,121.000000 249.000000,121.000000 
	C249.000000,123.654526 249.090927,125.797104 248.985275,127.929955 
	C248.288513,141.994949 260.928650,154.467834 275.307129,154.093704 
	C291.108643,153.682556 306.943604,153.575592 322.737579,154.112564 
	C340.566559,154.718704 353.659912,140.084702 349.336151,121.000000 
	C318.764832,121.000000 288.154510,121.000000 256.560791,121.000000 
M240.000000,256.445282 
	C240.000000,257.443878 240.131699,258.463287 239.977890,259.437622 
	C239.191574,264.418762 240.488235,267.679993 246.273758,267.713837 
	C247.864182,267.723145 249.467972,268.175171 251.037811,268.542847 
	C261.801819,271.064240 272.718384,272.038971 283.535583,269.653809 
	C294.322876,267.275208 304.793671,263.356354 315.632172,261.349396 
	C323.648224,259.865051 332.033234,260.041992 340.250641,260.085358 
	C346.374878,260.117676 352.493988,261.119995 358.666504,261.695068 
	C358.666504,254.537384 358.666504,247.328079 358.666504,240.279144 
	C318.966095,240.279144 279.599670,240.279144 240.000000,240.279144 
	C240.000000,245.525375 240.000000,250.494476 240.000000,256.445282 
M377.000000,266.535156 
	C377.000000,280.300934 377.000000,294.066681 377.000000,307.936035 
	C389.213104,308.377167 399.570709,306.209503 406.282288,295.294312 
	C412.066162,285.887878 411.399017,276.520660 405.284576,268.012482 
	C398.501648,258.574097 388.147247,256.831360 377.000000,257.068024 
	C377.000000,260.250061 377.000000,262.898285 377.000000,266.535156 
M477.461365,163.000000 
	C480.125061,162.999878 482.794189,163.109253 485.451324,162.977097 
	C491.174316,162.692429 495.108368,158.985092 494.999939,154.131439 
	C494.892761,149.332550 491.760040,147.000305 485.417999,147.000137 
	C469.768707,146.999725 454.119446,147.000000 438.470154,147.000000 
	C435.038300,147.000000 431.606476,147.000000 428.293518,147.000000 
	C428.293518,152.663254 428.293518,157.732254 428.293518,163.000000 
	C444.548157,163.000000 460.510101,163.000000 477.461365,163.000000 
M299.516541,172.000000 
	C297.083191,172.000000 294.649872,172.000000 292.284882,172.000000 
	C292.284882,177.640945 292.284882,182.713120 292.284882,187.712189 
	C297.646667,187.712189 302.718933,187.712189 307.709167,187.712189 
	C307.709167,182.347672 307.709167,177.275482 307.709167,172.000000 
	C305.107941,172.000000 302.795776,172.000000 299.516541,172.000000 
z"/>
<path fill="#FFFFFF" opacity="1.000000" stroke="none" 
	d="
M513.000000,414.531342 
	C510.408112,411.651062 507.152618,409.895172 502.759460,409.954498 
	C492.307617,410.095673 481.852600,410.000000 471.000000,410.000000 
	C471.000000,402.163849 471.016846,394.710480 470.995422,387.257233 
	C470.972443,379.255768 467.695770,376.000671 459.713715,376.000427 
	C424.886597,375.999420 390.059509,376.000000 355.232391,376.000000 
	C353.641541,376.000000 352.050690,376.000000 350.135406,376.000000 
	C369.893524,351.486481 375.326813,341.118744 376.233826,325.981842 
	C393.081116,326.840729 408.416656,322.850037 419.294281,309.009705 
	C426.220184,300.197479 429.248749,289.530090 427.880371,278.369293 
	C425.295807,257.288727 410.726685,238.533890 377.000000,238.939285 
	C377.000000,237.027786 377.008942,235.112701 376.998413,233.197723 
	C376.959747,226.171112 373.093018,222.045517 365.945496,222.034485 
	C321.620209,221.966049 277.294708,221.972305 232.969360,222.032394 
	C226.886032,222.040649 222.105865,226.276016 222.072479,232.157166 
	C221.912613,260.317902 221.474426,288.492950 222.165787,316.637604 
	C222.730072,339.608948 231.272919,359.572876 249.387909,375.609497 
	C234.697617,375.609497 220.698166,375.609497 206.348572,375.609497 
	C206.348572,291.177124 206.348572,206.448898 206.348572,121.360245 
	C214.130356,121.360245 222.205933,121.360245 230.922409,121.360245 
	C230.512787,133.885483 232.222870,146.166550 240.927231,156.510025 
	C249.475006,166.667404 260.484589,171.310791 274.000000,172.294510 
	C274.000000,180.211731 273.992676,188.322968 274.002258,196.434174 
	C274.010376,203.302307 276.642334,205.988190 283.396332,205.996521 
	C294.061096,206.009659 304.725830,206.000381 315.390594,205.999893 
	C322.566925,205.999573 325.945923,202.592667 325.989929,195.187775 
	C326.035278,187.561646 326.000000,179.935043 326.000000,172.224716 
	C334.446167,171.872787 341.865265,169.574707 348.626953,165.163757 
	C349.538055,164.569412 350.712585,164.055817 351.766998,164.052216 
	C371.053711,163.986282 390.340698,164.004059 409.283813,164.004059 
	C409.728668,164.520737 409.933044,164.651581 409.921906,164.760315 
	C408.414032,179.474686 415.271454,181.299591 427.511414,181.089417 
	C447.002197,180.754730 466.506165,181.214310 485.998199,180.918640 
	C497.462128,180.744736 506.391724,175.730057 511.478302,164.990936 
	C511.885712,164.130844 512.019775,163.141281 512.640442,162.105942 
	C513.000000,246.020889 513.000000,330.041779 513.000000,414.531342 
z"/>
<path fill="#FFFFFF" opacity="1.000000" stroke="none" 
	d="
M513.000000,147.531342 
	C510.671387,141.276764 506.897705,135.508896 500.505585,132.204956 
	C497.196594,130.494629 493.254517,129.181198 489.581451,129.138016 
	C466.419098,128.865677 443.246796,129.271133 420.089661,128.829529 
	C413.418335,128.702301 409.894348,132.957748 409.994293,138.978287 
	C410.029938,141.126221 410.000000,143.275269 410.000000,145.711258 
	C394.942078,145.711258 380.070831,145.711258 366.139984,145.711258 
	C367.003723,137.606705 367.859375,129.578201 368.773621,121.000000 
	C370.048767,121.000000 371.822876,121.000000 373.596985,121.000000 
	C390.929474,121.000000 408.261993,121.009537 425.594482,120.995598 
	C433.233093,120.989456 436.824036,117.778458 436.951172,110.238991 
	C437.139435,99.076042 437.622040,87.864967 436.861450,76.750885 
	C435.554382,57.650944 430.022369,40.197170 416.397217,25.650326 
	C405.186035,13.680777 391.755096,6.287941 376.244141,2.081282 
	C374.678314,1.656621 372.940857,1.864752 371.141541,1.389611 
	C418.261597,1.000000 465.523193,1.000000 513.000000,1.000000 
	C513.000000,49.687351 513.000000,98.375015 513.000000,147.531342 
z"/>
<path fill="#FFFFFF" opacity="1.000000" stroke="none" 
	d="
M0.999999,464.468658 
	C3.948265,471.136902 6.031548,478.804657 10.019999,485.303131 
	C19.078476,500.062347 32.304165,509.442810 49.867958,512.617981 
	C33.739925,513.000000 17.479853,513.000000 1.000000,513.000000 
	C1.000000,496.979767 1.000000,480.958557 0.999999,464.468658 
z"/>
<path fill="#FFFFFF" opacity="1.000000" stroke="none" 
	d="
M464.468658,513.000000 
	C471.136902,510.051758 478.804657,507.968445 485.303101,503.980011 
	C500.062347,494.921539 509.442810,481.695862 512.617981,464.132050 
	C513.000000,480.260071 513.000000,496.520142 513.000000,513.000000 
	C496.979767,513.000000 480.958557,513.000000 464.468658,513.000000 
z"/>
<path fill="#FFFFFF" opacity="1.000000" stroke="none" 
	d="
M218.000015,103.000000 
	C211.001022,103.000000 204.501953,102.980026 198.003052,103.005844 
	C191.991745,103.029724 188.371017,106.493629 188.010300,112.542023 
	C187.940979,113.704384 188.000031,114.874397 188.000031,116.040886 
	C188.000000,212.026184 188.000000,308.011505 188.000000,403.996796 
	C188.000000,405.807800 188.000000,407.618805 188.000000,409.713989 
	C131.713760,409.713989 75.647820,409.713989 19.290707,409.713989 
	C19.290707,279.730682 19.290707,149.672867 19.290707,19.229450 
	C20.584606,19.158022 22.015841,19.009972 23.447086,19.009836 
	C137.096344,18.999134 250.745743,18.918819 364.394653,19.120275 
	C376.312683,19.141403 386.930878,24.148844 396.170685,31.693499 
	C407.564209,40.996689 415.337494,52.867481 417.495605,67.360710 
	C419.212250,78.889069 418.932129,90.714767 419.569122,103.000000 
	C352.009918,103.000000 285.254974,103.000000 218.000015,103.000000 
M110.499969,377.000000 
	C117.166267,377.000000 123.838531,377.181000 130.497604,376.961639 
	C143.647476,376.528442 155.019058,364.453644 155.012115,352.033661 
	C154.983276,300.369019 154.913895,248.704117 155.058197,197.039871 
	C155.096085,183.475098 144.213531,171.419800 129.551254,171.091156 
	C112.227303,170.702881 94.878029,170.636826 77.558411,171.112122 
	C63.061916,171.509933 51.929276,182.391006 51.959167,196.986282 
	C52.064285,248.317398 52.146645,299.649536 51.910229,350.979767 
	C51.839722,366.288239 64.590240,377.005890 78.001221,377.000793 
	C88.500809,376.996826 99.000404,377.000000 110.499969,377.000000 
M70.306992,65.863091 
	C73.292839,67.242050 76.275848,69.818840 79.264946,69.825928 
	C169.367249,70.039703 259.470184,70.047043 349.572784,69.909409 
	C356.678528,69.898560 359.840881,66.153381 359.946350,60.288147 
	C360.040436,55.055073 356.065277,52.000397 349.732513,52.000362 
	C259.629700,51.999832 169.526627,52.093422 79.424576,51.832493 
	C71.756691,51.810287 66.768829,56.732971 70.306992,65.863091 
M390.517914,53.948906 
	C386.242432,49.967323 381.051270,52.482655 376.310699,52.111931 
	C371.395599,51.727573 368.617584,54.536919 367.852112,59.453892 
	C367.081482,64.404404 368.904541,67.603043 373.768799,68.937599 
	C376.381775,69.654503 379.185211,69.929665 381.906799,69.954369 
	C393.085968,70.055885 396.689362,63.898540 390.517914,53.948906 
M57.093552,53.007698 
	C52.706020,52.671799 48.323238,52.168999 43.929707,52.044109 
	C38.933075,51.902077 35.663177,54.432537 35.007660,58.513279 
	C34.130775,63.972069 36.056927,67.574226 41.246044,68.985023 
	C44.174004,69.781052 47.338367,69.749321 50.404301,69.986214 
	C54.934135,70.336235 58.986641,68.286087 60.573082,64.563751 
	C62.126522,60.918850 61.643738,56.384239 57.093552,53.007698 
z"/>
<path fill="#FFFFFF" opacity="1.000000" stroke="none" 
	d="
M198.000000,428.000000 
	C297.143616,428.000000 395.787201,428.000000 495.182129,428.000000 
	C493.711700,441.859436 497.609772,455.710968 492.060120,469.133148 
	C486.408783,482.801300 471.157043,495.005554 455.749817,495.004608 
	C323.583282,494.996521 191.416748,495.039978 59.250290,494.945648 
	C44.009712,494.934753 32.963863,487.216797 24.931713,474.592773 
	C20.514729,467.650696 18.576454,460.245850 18.928392,452.009277 
	C19.261581,444.211578 19.000000,436.388458 19.000000,428.000000 
	C78.642525,428.000000 138.071259,428.000000 198.000000,428.000000 
M285.500000,479.000000 
	C341.993439,479.000000 398.487000,479.057037 454.980255,478.955688 
	C467.469879,478.933289 476.252350,470.123108 478.831299,458.608398 
	C479.535553,455.463898 479.291138,451.317841 477.716614,448.688782 
	C476.328308,446.370667 472.464661,444.283325 469.716492,444.311127 
	C465.055481,444.358246 462.293152,447.909882 461.078094,452.579834 
	C459.063690,460.321991 458.067108,460.999756 450.475037,460.999786 
	C322.656219,461.000061 194.837387,461.000000 67.018555,461.000000 
	C55.584438,461.000000 55.588760,460.998535 51.983498,450.360016 
	C51.728664,449.608002 51.541470,448.549011 50.982910,448.232330 
	C48.313419,446.718872 45.206039,443.911591 42.862659,444.412170 
	C39.932907,445.037994 35.737507,448.136047 35.311993,450.701477 
	C32.868393,465.434052 44.341637,478.960480 59.025616,478.972198 
	C134.183701,479.032227 209.341858,479.000000 285.500000,479.000000 
z"/>
<path fill="#FFFFFF" opacity="1.000000" stroke="none" 
	d="
M358.999268,283.407806 
	C358.999969,294.195618 358.955750,304.522949 359.008392,314.849854 
	C359.158386,344.274475 339.810272,368.466736 311.268402,374.783600 
	C290.063934,379.476562 266.486389,371.033356 252.681091,352.336426 
	C245.567657,342.702515 241.043457,332.319550 241.006317,320.223114 
	C240.970398,308.525696 240.998550,296.828064 240.998550,285.805176 
	C250.735336,286.828308 261.110016,289.055481 271.390564,288.683167 
	C281.947571,288.300842 292.448181,285.560944 302.907562,283.515564 
	C312.845062,281.572235 322.617920,278.062897 332.611938,277.361298 
	C340.665222,276.795959 348.948944,279.339050 357.102631,280.673004 
	C357.838928,280.793488 358.371429,282.159546 358.999268,283.407806 
z"/>
<path fill="#FFFFFF" opacity="1.000000" stroke="none" 
	d="
M330.000000,410.000000 
	C288.525604,410.000000 247.551208,410.000000 206.288589,410.000000 
	C206.288589,404.720367 206.288589,399.647675 206.288589,394.284546 
	C288.288635,394.284546 370.355560,394.284546 452.711365,394.284546 
	C452.711365,399.279572 452.711365,404.352264 452.711365,410.000000 
	C412.020081,410.000000 371.260040,410.000000 330.000000,410.000000 
z"/>
<path fill="#FFFFFF" opacity="1.000000" stroke="none" 
	d="
M257.052490,121.000000 
	C288.154510,121.000000 318.764832,121.000000 349.336151,121.000000 
	C353.659912,140.084702 340.566559,154.718704 322.737579,154.112564 
	C306.943604,153.575592 291.108643,153.682556 275.307129,154.093704 
	C260.928650,154.467834 248.288513,141.994949 248.985275,127.929955 
	C249.090927,125.797104 249.000000,123.654526 249.000000,121.000000 
	C251.686996,121.000000 254.123901,121.000000 257.052490,121.000000 
z"/>
<path fill="#FFFFFF" opacity="1.000000" stroke="none" 
	d="
M240.000000,255.954437 
	C240.000000,250.494476 240.000000,245.525375 240.000000,240.279144 
	C279.599670,240.279144 318.966095,240.279144 358.666504,240.279144 
	C358.666504,247.328079 358.666504,254.537384 358.666504,261.695068 
	C352.493988,261.119995 346.374878,260.117676 340.250641,260.085358 
	C332.033234,260.041992 323.648224,259.865051 315.632172,261.349396 
	C304.793671,263.356354 294.322876,267.275208 283.535583,269.653809 
	C272.718384,272.038971 261.801819,271.064240 251.037811,268.542847 
	C249.467972,268.175171 247.864182,267.723145 246.273758,267.713837 
	C240.488235,267.679993 239.191574,264.418762 239.977890,259.437622 
	C240.131699,258.463287 240.000000,257.443878 240.000000,255.954437 
z"/>
<path fill="#FFFFFF" opacity="1.000000" stroke="none" 
	d="
M377.000000,266.040833 
	C377.000000,262.898285 377.000000,260.250061 377.000000,257.068024 
	C388.147247,256.831360 398.501648,258.574097 405.284576,268.012482 
	C411.399017,276.520660 412.066162,285.887878 406.282288,295.294312 
	C399.570709,306.209503 389.213104,308.377167 377.000000,307.936035 
	C377.000000,294.066681 377.000000,280.300934 377.000000,266.040833 
z"/>
<path fill="#FFFFFF" opacity="1.000000" stroke="none" 
	d="
M476.966736,163.000000 
	C460.510101,163.000000 444.548157,163.000000 428.293518,163.000000 
	C428.293518,157.732254 428.293518,152.663254 428.293518,147.000000 
	C431.606476,147.000000 435.038300,147.000000 438.470154,147.000000 
	C454.119446,147.000000 469.768707,146.999725 485.417999,147.000137 
	C491.760040,147.000305 494.892761,149.332550 494.999939,154.131439 
	C495.108368,158.985092 491.174316,162.692429 485.451324,162.977097 
	C482.794189,163.109253 480.125061,162.999878 476.966736,163.000000 
z"/>
<path fill="#FFFFFF" opacity="1.000000" stroke="none" 
	d="
M300.000061,172.000000 
	C302.795776,172.000000 305.107941,172.000000 307.709167,172.000000 
	C307.709167,177.275482 307.709167,182.347672 307.709167,187.712189 
	C302.718933,187.712189 297.646667,187.712189 292.284882,187.712189 
	C292.284882,182.713120 292.284882,177.640945 292.284882,172.000000 
	C294.649872,172.000000 297.083191,172.000000 300.000061,172.000000 
z"/>
<path fill="#000000" opacity="1.000000" stroke="none" 
	d="
M109.999985,377.000000 
	C99.000404,377.000000 88.500809,376.996826 78.001221,377.000793 
	C64.590240,377.005890 51.839722,366.288239 51.910229,350.979767 
	C52.146645,299.649536 52.064285,248.317398 51.959167,196.986282 
	C51.929276,182.391006 63.061916,171.509933 77.558411,171.112122 
	C94.878029,170.636826 112.227303,170.702881 129.551254,171.091156 
	C144.213531,171.419800 155.096085,183.475098 155.058197,197.039871 
	C154.913895,248.704117 154.983276,300.369019 155.012115,352.033661 
	C155.019058,364.453644 143.647476,376.528442 130.497604,376.961639 
	C123.838531,377.181000 117.166267,377.000000 109.999985,377.000000 
M70.000000,216.500061 
	C70.000000,260.644165 69.999329,304.788300 70.000710,348.932404 
	C70.000923,355.664032 73.256943,358.980621 79.994278,358.991760 
	C95.652901,359.017670 111.311615,359.014252 126.970253,358.993042 
	C133.275711,358.984467 136.991257,355.290497 136.992874,349.002777 
	C137.005676,299.028320 137.004562,249.053833 136.994080,199.079361 
	C136.992798,193.005753 133.590698,189.121811 127.540039,189.057770 
	C111.550003,188.888535 95.554337,188.837448 79.566727,189.097122 
	C74.599564,189.177811 69.339279,191.444168 69.918495,199.014832 
	C70.336624,204.480026 70.000000,210.002975 70.000000,216.500061 
z"/>
<path fill="#000000" opacity="1.000000" stroke="none" 
	d="
M70.050758,65.544640 
	C66.768829,56.732971 71.756691,51.810287 79.424576,51.832493 
	C169.526627,52.093422 259.629700,51.999832 349.732513,52.000362 
	C356.065277,52.000397 360.040436,55.055073 359.946350,60.288147 
	C359.840881,66.153381 356.678528,69.898560 349.572784,69.909409 
	C259.470184,70.047043 169.367249,70.039703 79.264946,69.825928 
	C76.275848,69.818840 73.292839,67.242050 70.050758,65.544640 
z"/>
<path fill="#000000" opacity="1.000000" stroke="none" 
	d="
M390.930695,53.993484 
	C396.689362,63.898540 393.085968,70.055885 381.906799,69.954369 
	C379.185211,69.929665 376.381775,69.654503 373.768799,68.937599 
	C368.904541,67.603043 367.081482,64.404404 367.852112,59.453892 
	C368.617584,54.536919 371.395599,51.727573 376.310699,52.111931 
	C381.051270,52.482655 386.242432,49.967323 390.930695,53.993484 
z"/>
<path fill="#000000" opacity="1.000000" stroke="none" 
	d="
M57.478210,53.171734 
	C61.643738,56.384239 62.126522,60.918850 60.573082,64.563751 
	C58.986641,68.286087 54.934135,70.336235 50.404301,69.986214 
	C47.338367,69.749321 44.174004,69.781052 41.246044,68.985023 
	C36.056927,67.574226 34.130775,63.972069 35.007660,58.513279 
	C35.663177,54.432537 38.933075,51.902077 43.929707,52.044109 
	C48.323238,52.168999 52.706020,52.671799 57.478210,53.171734 
z"/>
<path fill="#000000" opacity="1.000000" stroke="none" 
	d="
M285.000000,479.000000 
	C209.341858,479.000000 134.183701,479.032227 59.025616,478.972198 
	C44.341637,478.960480 32.868393,465.434052 35.311993,450.701477 
	C35.737507,448.136047 39.932907,445.037994 42.862659,444.412170 
	C45.206039,443.911591 48.313419,446.718872 50.982910,448.232330 
	C51.541470,448.549011 51.728664,449.608002 51.983498,450.360016 
	C55.588760,460.998535 55.584438,461.000000 67.018555,461.000000 
	C194.837387,461.000000 322.656219,461.000061 450.475037,460.999786 
	C458.067108,460.999756 459.063690,460.321991 461.078094,452.579834 
	C462.293152,447.909882 465.055481,444.358246 469.716492,444.311127 
	C472.464661,444.283325 476.328308,446.370667 477.716614,448.688782 
	C479.291138,451.317841 479.535553,455.463898 478.831299,458.608398 
	C476.252350,470.123108 467.469879,478.933289 454.980255,478.955688 
	C398.487000,479.057037 341.993439,479.000000 285.000000,479.000000 
z"/>
<path fill="#FFFFFF" opacity="1.000000" stroke="none" 
	d="
M70.000000,216.000122 
	C70.000000,210.002975 70.336624,204.480026 69.918495,199.014832 
	C69.339279,191.444168 74.599564,189.177811 79.566727,189.097122 
	C95.554337,188.837448 111.550003,188.888535 127.540039,189.057770 
	C133.590698,189.121811 136.992798,193.005753 136.994080,199.079361 
	C137.004562,249.053833 137.005676,299.028320 136.992874,349.002777 
	C136.991257,355.290497 133.275711,358.984467 126.970253,358.993042 
	C111.311615,359.014252 95.652901,359.017670 79.994278,358.991760 
	C73.256943,358.980621 70.000923,355.664032 70.000710,348.932404 
	C69.999329,304.788300 70.000000,260.644165 70.000000,216.000122 
M108.972214,256.980560 
	C109.398087,256.744995 109.797432,256.409271 110.253693,256.288422 
	C124.201546,252.593918 132.809418,238.116562 128.710510,224.379196 
	C125.215401,212.665451 116.524254,205.995712 104.750244,205.296753 
	C95.506844,204.748016 86.909721,208.359406 81.607719,216.917664 
	C74.645035,228.156555 76.596733,242.241608 86.147621,250.938400 
	C92.761559,256.960846 100.146553,257.248779 108.972214,256.980560 
M80.953049,295.494263 
	C74.895988,306.269836 76.560005,317.726318 84.871414,326.472870 
	C92.561295,334.565308 106.801674,336.907135 117.925179,330.064514 
	C126.053955,325.064026 131.644028,311.571594 128.775070,301.555237 
	C125.589806,290.434509 117.652191,284.041748 106.543533,282.131073 
	C97.910538,280.646240 85.579323,285.679901 80.953049,295.494263 
z"/>
<path fill="#000000" opacity="1.000000" stroke="none" 
	d="
M108.521202,256.989624 
	C100.146553,257.248779 92.761559,256.960846 86.147621,250.938400 
	C76.596733,242.241608 74.645035,228.156555 81.607719,216.917664 
	C86.909721,208.359406 95.506844,204.748016 104.750244,205.296753 
	C116.524254,205.995712 125.215401,212.665451 128.710510,224.379196 
	C132.809418,238.116562 124.201546,252.593918 110.253693,256.288422 
	C109.797432,256.409271 109.398087,256.744995 108.521202,256.989624 
M109.636253,235.908722 
	C112.176537,231.321793 111.280945,227.354462 107.076256,224.568390 
	C104.504433,222.864273 99.081703,223.859177 97.230232,226.374802 
	C94.652252,229.877548 95.237411,233.982376 98.783783,237.272415 
	C101.751312,240.025482 105.556938,239.720566 109.636253,235.908722 
z"/>
<path fill="#000000" opacity="1.000000" stroke="none" 
	d="
M80.988510,295.110718 
	C85.579323,285.679901 97.910538,280.646240 106.543533,282.131073 
	C117.652191,284.041748 125.589806,290.434509 128.775070,301.555237 
	C131.644028,311.571594 126.053955,325.064026 117.925179,330.064514 
	C106.801674,336.907135 92.561295,334.565308 84.871414,326.472870 
	C76.560005,317.726318 74.895988,306.269836 80.988510,295.110718 
M110.162163,312.273407 
	C110.400726,310.070984 111.607407,307.218292 110.662163,305.810974 
	C109.043800,303.401367 106.253433,300.788055 103.622322,300.373566 
	C101.636543,300.060730 98.729485,302.686188 96.959679,304.656921 
	C94.799133,307.062805 95.046013,310.082855 97.214966,312.701263 
	C100.986923,317.254913 104.436668,317.308075 110.162163,312.273407 
z"/>
<path fill="#FFFFFF" opacity="1.000000" stroke="none" 
	d="
M109.332977,236.180115 
	C105.556938,239.720566 101.751312,240.025482 98.783783,237.272415 
	C95.237411,233.982376 94.652252,229.877548 97.230232,226.374802 
	C99.081703,223.859177 104.504433,222.864273 107.076256,224.568390 
	C111.280945,227.354462 112.176537,231.321793 109.332977,236.180115 
z"/>
<path fill="#FFFFFF" opacity="1.000000" stroke="none" 
	d="
M109.903809,312.587280 
	C104.436668,317.308075 100.986923,317.254913 97.214966,312.701263 
	C95.046013,310.082855 94.799133,307.062805 96.959679,304.656921 
	C98.729485,302.686188 101.636543,300.060730 103.622322,300.373566 
	C106.253433,300.788055 109.043800,303.401367 110.662163,305.810974 
	C111.607407,307.218292 110.400726,310.070984 109.903809,312.587280 
z"/>
</svg>