<?xml version="1.0" encoding="UTF-8"?>
<!DOCTYPE svg PUBLIC "-//W3C//DTD SVG 1.1//EN" "http://www.w3.org/Graphics/SVG/1.1/DTD/svg11.dtd">
<svg xmlns="http://www.w3.org/2000/svg" version="1.1" width="512px" height="512px" style="shape-rendering:geometricPrecision; text-rendering:geometricPrecision; image-rendering:optimizeQuality; fill-rule:evenodd; clip-rule:evenodd" xmlns:xlink="http://www.w3.org/1999/xlink">
<g><path style="opacity:0.946" fill="#000000" d="M 49.5,-0.5 C 186.833,-0.5 324.167,-0.5 461.5,-0.5C 474.923,3.9847 482.423,13.318 484,27.5C 484.667,113.5 484.667,199.5 484,285.5C 481.946,301.887 472.779,311.387 456.5,314C 406.501,314.5 356.501,314.667 306.5,314.5C 307.386,332.242 309.052,349.909 311.5,367.5C 323.505,367.333 335.505,367.5 347.5,368C 351.753,371.42 352.587,375.587 350,380.5C 349.097,381.701 347.931,382.535 346.5,383C 285.833,383.667 225.167,383.667 164.5,383C 159.931,380.459 158.431,376.625 160,371.5C 161.167,370.333 162.333,369.167 163.5,368C 175.495,367.5 187.495,367.333 199.5,367.5C 201.948,349.909 203.614,332.242 204.5,314.5C 154.499,314.667 104.499,314.5 54.5,314C 38.2207,311.387 29.054,301.887 27,285.5C 26.3333,199.5 26.3333,113.5 27,27.5C 28.5773,13.318 36.0773,3.9847 49.5,-0.5 Z M 57.5,14.5 C 189.5,14.3333 321.5,14.5 453.5,15C 461.871,15.7048 466.705,20.2048 468,28.5C 468.5,99.1659 468.667,169.833 468.5,240.5C 462.167,240.5 455.833,240.5 449.5,240.5C 449.667,203.165 449.5,165.832 449,128.5C 448.018,124.376 445.352,122.376 441,122.5C 437.599,122.698 435.266,124.365 434,127.5C 433.5,165.165 433.333,202.832 433.5,240.5C 314.833,240.5 196.167,240.5 77.5,240.5C 77.1688,176.595 77.5021,112.762 78.5,49C 196.5,48.3333 314.5,48.3333 432.5,49C 433.326,65.7595 433.826,82.5928 434,99.5C 437.855,105.335 442.522,106.002 448,101.5C 449.627,83.2324 449.96,64.8991 449,46.5C 447.664,40.4991 444.164,36.3324 438.5,34C 377.544,32.8407 316.544,32.3407 255.5,32.5C 195.833,32.6667 136.167,32.8333 76.5,33C 68.7804,34.3858 63.9471,38.8858 62,46.5C 61.5,111.166 61.3333,175.832 61.5,240.5C 55.1667,240.5 48.8333,240.5 42.5,240.5C 42.3333,169.833 42.5,99.1659 43,28.5C 44.4688,20.1955 49.3021,15.5289 57.5,14.5 Z M 42.5,256.5 C 184.5,256.5 326.5,256.5 468.5,256.5C 468.903,267.231 468.403,277.898 467,288.5C 464.993,293.838 461.159,297.004 455.5,298C 322.167,298.667 188.833,298.667 55.5,298C 49.8406,297.004 46.0073,293.838 44,288.5C 42.5973,277.898 42.0973,267.231 42.5,256.5 Z M 220.5,314.5 C 243.833,314.5 267.167,314.5 290.5,314.5C 291.23,332.264 292.897,349.931 295.5,367.5C 268.833,367.5 242.167,367.5 215.5,367.5C 218.103,349.931 219.77,332.264 220.5,314.5 Z"/></g>
<g><path style="opacity:0.913" fill="#000000" d="M 212.5,91.5 C 223.429,91.0395 226.596,95.7062 222,105.5C 196.625,134.539 171.625,163.873 147,193.5C 143.446,198.451 138.946,199.618 133.5,197C 130.231,193.547 129.731,189.714 132,185.5C 158.669,154 185.502,122.667 212.5,91.5 Z"/></g>
<g><path style="opacity:0.898" fill="#000000" d="M 157.5,110.5 C 166.38,110.932 169.213,115.265 166,123.5C 158.872,132.297 151.372,140.797 143.5,149C 133,151.833 129.167,148 132,137.5C 139.719,127.619 148.219,118.619 157.5,110.5 Z"/></g>
<g><path style="opacity:0.914" fill="#000000" d="M 237.5,269.5 C 249.505,269.333 261.505,269.5 273.5,270C 278.069,272.541 279.569,276.375 278,281.5C 276.786,283.049 275.286,284.215 273.5,285C 261.5,285.667 249.5,285.667 237.5,285C 232.311,282.087 231.144,277.92 234,272.5C 235.145,271.364 236.312,270.364 237.5,269.5 Z"/></g>
<g><path style="opacity:0.96" fill="#000000" d="M 455.5,511.5 C 322.167,511.5 188.833,511.5 55.5,511.5C 47.2786,507.374 44.112,500.707 46,491.5C 54,466.167 62,440.833 70,415.5C 72.1241,411.687 75.2908,409.187 79.5,408C 100.5,407.333 121.5,407.333 142.5,408C 144.333,408.5 145.5,409.667 146,411.5C 147.992,417.337 146.158,421.171 140.5,423C 121.833,423.333 103.167,423.667 84.5,424C 76.7401,447.781 69.0734,471.614 61.5,495.5C 190.833,496.833 320.167,496.833 449.5,495.5C 441.927,471.614 434.26,447.781 426.5,424C 341.167,423.667 255.833,423.333 170.5,423C 163.462,418.814 162.795,413.814 168.5,408C 256.167,407.333 343.833,407.333 431.5,408C 436.974,409.474 440.474,412.974 442,418.5C 449.667,442.833 457.333,467.167 465,491.5C 466.888,500.707 463.721,507.374 455.5,511.5 Z"/></g>
<g><path style="opacity:0.893" fill="#000000" d="M 124.5,438.5 C 131.284,438.08 137.95,438.58 144.5,440C 146.429,443.256 146.929,446.756 146,450.5C 144.681,452.487 142.848,453.654 140.5,454C 135.051,454.896 129.718,454.563 124.5,453C 119.232,448.171 119.232,443.337 124.5,438.5 Z"/></g>
<g><path style="opacity:0.893" fill="#000000" d="M 165.5,438.5 C 171.509,438.334 177.509,438.501 183.5,439C 187.753,442.42 188.587,446.587 186,451.5C 178.61,455.3 171.11,455.467 163.5,452C 160.397,446.886 161.064,442.386 165.5,438.5 Z"/></g>
<g><path style="opacity:0.893" fill="#000000" d="M 206.5,438.5 C 212.509,438.334 218.509,438.501 224.5,439C 230.194,444.862 229.527,449.862 222.5,454C 216.747,454.851 211.08,454.517 205.5,453C 201.285,447.72 201.618,442.886 206.5,438.5 Z"/></g>
<g><path style="opacity:0.895" fill="#000000" d="M 247.5,438.5 C 253.952,438.084 260.285,438.584 266.5,440C 270.867,446.237 269.534,450.904 262.5,454C 257.079,454.839 251.746,454.506 246.5,453C 241.109,447.704 241.442,442.87 247.5,438.5 Z"/></g>
<g><path style="opacity:0.893" fill="#000000" d="M 287.5,438.5 C 294.284,438.08 300.95,438.58 307.5,440C 311.757,450.594 308.091,455.427 296.5,454.5C 289.404,455.632 285.071,452.799 283.5,446C 283.927,442.977 285.261,440.477 287.5,438.5 Z"/></g>
<g><path style="opacity:0.893" fill="#000000" d="M 328.5,438.5 C 334.509,438.334 340.509,438.501 346.5,439C 352.33,445.006 351.663,450.006 344.5,454C 338.747,454.851 333.08,454.517 327.5,453C 323.268,447.809 323.601,442.975 328.5,438.5 Z"/></g>
<g><path style="opacity:0.893" fill="#000000" d="M 368.5,438.5 C 374.509,438.334 380.509,438.501 386.5,439C 392.205,444.814 391.538,449.814 384.5,454C 378.747,454.851 373.08,454.517 367.5,453C 364.606,450.091 363.773,446.591 365,442.5C 365.69,440.65 366.856,439.316 368.5,438.5 Z"/></g>
<g><path style="opacity:0.933" fill="#000000" d="M 124.5,465.5 C 131.284,465.08 137.95,465.58 144.5,467C 146.934,470.716 147.101,474.549 145,478.5C 144.25,479.126 143.416,479.626 142.5,480C 136.5,480.667 130.5,480.667 124.5,480C 119.232,475.171 119.232,470.337 124.5,465.5 Z"/></g>
<g><path style="opacity:0.92" fill="#000000" d="M 165.5,465.5 C 172.284,465.08 178.95,465.58 185.5,467C 189.862,477.732 186.195,482.232 174.5,480.5C 164.843,482.631 160.677,478.964 162,469.5C 163.032,467.973 164.199,466.64 165.5,465.5 Z"/></g>
<g><path style="opacity:0.933" fill="#000000" d="M 206.5,465.5 C 212.509,465.334 218.509,465.501 224.5,466C 229.833,470.667 229.833,475.333 224.5,480C 217.724,480.92 211.057,480.586 204.5,479C 201.409,473.799 202.075,469.299 206.5,465.5 Z"/></g>
<g><path style="opacity:0.925" fill="#000000" d="M 246.5,465.5 C 252.842,465.334 259.175,465.5 265.5,466C 270.833,470.667 270.833,475.333 265.5,480C 259.167,480.667 252.833,480.667 246.5,480C 241.272,475.177 241.272,470.344 246.5,465.5 Z"/></g>
<g><path style="opacity:0.933" fill="#000000" d="M 287.5,465.5 C 294.284,465.08 300.95,465.58 307.5,467C 309.934,470.716 310.101,474.549 308,478.5C 307.25,479.126 306.416,479.626 305.5,480C 299.5,480.667 293.5,480.667 287.5,480C 282.232,475.171 282.232,470.337 287.5,465.5 Z"/></g>
<g><path style="opacity:0.923" fill="#000000" d="M 328.5,465.5 C 334.893,465.207 341.227,465.54 347.5,466.5C 351.73,471.378 351.397,475.878 346.5,480C 339.724,480.92 333.057,480.586 326.5,479C 323.409,473.799 324.075,469.299 328.5,465.5 Z"/></g>
<g><path style="opacity:0.933" fill="#000000" d="M 368.5,465.5 C 374.509,465.334 380.509,465.501 386.5,466C 391.833,470.667 391.833,475.333 386.5,480C 379.724,480.92 373.057,480.586 366.5,479C 363.409,473.799 364.075,469.299 368.5,465.5 Z"/></g>
</svg>
