<svg width="32" height="28" viewBox="0 0 32 28" fill="none" xmlns="http://www.w3.org/2000/svg">
<path d="M16.3701 0.99999H29.8201C30.7801 0.89999 31.6401 1.59999 31.7401 2.55999C31.7501 2.67999 31.7501 2.79999 31.7401 2.91999V20.89C31.8401 21.85 31.1401 22.72 30.1801 22.82C30.0601 22.83 29.9401 22.83 29.8301 22.82H20.3501C20.0901 22.82 19.9868 22.95 20.0401 23.21C20.1001 23.5 20.1701 23.79 20.2101 24.09C20.2301 24.26 20.3101 24.31 20.4701 24.31C21.0501 24.31 21.6301 24.31 22.2101 24.31C22.6501 24.31 22.8201 24.48 22.8301 24.93V26.14C22.8301 26.62 22.6601 26.79 22.1801 26.79H10.5301C10.1301 26.79 9.95011 26.61 9.94011 26.2C9.94011 25.76 9.94011 25.31 9.94011 24.87C9.91011 24.6 10.1001 24.35 10.3801 24.31C10.4201 24.31 10.4601 24.31 10.5001 24.31C11.0901 24.31 11.6801 24.3 12.2701 24.31C12.4601 24.31 12.5401 24.26 12.5701 24.06C12.6201 23.7 12.7101 23.35 12.7801 23C12.8101 22.86 12.7801 22.81 12.6301 22.82C12.5601 22.82 12.4901 22.82 12.4101 22.82H2.96009C2.00009 22.93 1.13009 22.24 1.02009 21.27C1.01009 21.14 1.00009 21.02 1.02009 20.89V2.91999C0.920092 1.95999 1.6201 1.09999 2.5901 0.99999C2.7101 0.98999 2.83012 0.98999 2.95012 0.99999H16.4001M16.4001 18.85C21.0701 18.85 25.7301 18.85 30.4001 18.85C30.6901 18.85 30.7801 18.8 30.7801 18.49C30.7701 13.32 30.7701 8.13999 30.7801 2.96999C30.7801 2.22999 30.5301 1.98999 29.8001 1.98999H3.0001C2.2801 1.98999 2.0301 2.23999 2.0301 2.94999C2.0301 8.12999 2.0301 13.32 2.0301 18.5C2.0301 18.79 2.11012 18.85 2.39012 18.85C7.07012 18.85 11.7501 18.84 16.4201 18.85M16.4001 19.84H2.27009C2.08009 19.84 2.01009 19.88 2.02009 20.08C2.04009 20.32 2.02009 20.56 2.02009 20.79C2.02009 21.6 2.25011 21.82 3.04011 21.82H30.0201C30.4301 21.82 30.7701 21.49 30.7701 21.09C30.7701 21.09 30.7701 21.09 30.7701 21.08C30.7801 20.79 30.7501 20.5 30.7701 20.21C30.7901 19.92 30.7101 19.83 30.4101 19.83C25.7301 19.84 21.0601 19.84 16.3801 19.83M16.3901 24.29H19.0201C19.1901 24.29 19.2701 24.27 19.2201 24.07C19.1301 23.72 19.0601 23.37 19.0001 23.01C18.9801 22.86 18.9301 22.8 18.7701 22.8C17.1801 22.8 15.5901 22.8 14.0001 22.8C13.8601 22.8 13.8001 22.84 13.7801 22.98C13.7301 23.33 13.6601 23.67 13.5701 24.01C13.5101 24.24 13.5701 24.29 13.7901 24.29C14.6601 24.28 15.5201 24.29 16.3901 24.29ZM16.3901 25.78H21.5301C21.7101 25.78 21.8601 25.8 21.8501 25.52C21.8501 25.26 21.7201 25.28 21.5401 25.28H11.2301C11.0601 25.28 10.9301 25.26 10.9201 25.52C10.9201 25.8 11.0601 25.78 11.2401 25.78H16.3801" fill="#000F52"/>
<path d="M16.3701 0.99999H29.8201C30.7801 0.89999 31.6401 1.59999 31.7401 2.55999C31.7501 2.67999 31.7501 2.79999 31.7401 2.91999V20.89C31.8401 21.85 31.1401 22.72 30.1801 22.82C30.0601 22.83 29.9401 22.83 29.8301 22.82H20.3501C20.0901 22.82 19.9868 22.95 20.0401 23.21C20.1001 23.5 20.1701 23.79 20.2101 24.09C20.2301 24.26 20.3101 24.31 20.4701 24.31C21.0501 24.31 21.6301 24.31 22.2101 24.31C22.6501 24.31 22.8201 24.48 22.8301 24.93V26.14C22.8301 26.62 22.6601 26.79 22.1801 26.79H10.5301C10.1301 26.79 9.95011 26.61 9.94011 26.2C9.94011 25.76 9.94011 25.31 9.94011 24.87C9.91011 24.6 10.1001 24.35 10.3801 24.31C10.4201 24.31 10.4601 24.31 10.5001 24.31C11.0901 24.31 11.6801 24.3 12.2701 24.31C12.4601 24.31 12.5401 24.26 12.5701 24.06C12.6201 23.7 12.7101 23.35 12.7801 23C12.8101 22.86 12.7801 22.81 12.6301 22.82C12.5601 22.82 12.4901 22.82 12.4101 22.82H2.96009C2.00009 22.93 1.13009 22.24 1.02009 21.27C1.01009 21.14 1.00009 21.02 1.02009 20.89V2.91999C0.920092 1.95999 1.6201 1.09999 2.5901 0.99999C2.7101 0.98999 2.83012 0.98999 2.95012 0.99999H16.4001M16.4001 18.85C21.0701 18.85 25.7301 18.85 30.4001 18.85C30.6901 18.85 30.7801 18.8 30.7801 18.49C30.7701 13.32 30.7701 8.13999 30.7801 2.96999C30.7801 2.22999 30.5301 1.98999 29.8001 1.98999H3.0001C2.2801 1.98999 2.0301 2.23999 2.0301 2.94999C2.0301 8.12999 2.0301 13.32 2.0301 18.5C2.0301 18.79 2.11012 18.85 2.39012 18.85C7.07012 18.85 11.7501 18.84 16.4201 18.85M16.4001 19.84H2.27009C2.08009 19.84 2.01009 19.88 2.02009 20.08C2.04009 20.32 2.02009 20.56 2.02009 20.79C2.02009 21.6 2.25011 21.82 3.04011 21.82H30.0201C30.4301 21.82 30.7701 21.49 30.7701 21.09C30.7701 21.09 30.7701 21.09 30.7701 21.08C30.7801 20.79 30.7501 20.5 30.7701 20.21C30.7901 19.92 30.7101 19.83 30.4101 19.83C25.7301 19.84 21.0601 19.84 16.3801 19.83M16.3901 25.78H21.5301C21.7101 25.78 21.8601 25.8 21.8501 25.52C21.8501 25.26 21.7201 25.28 21.5401 25.28H11.2301C11.0601 25.28 10.9301 25.26 10.9201 25.52C10.9201 25.8 11.0601 25.78 11.2401 25.78H16.3801M16.3901 24.29H19.0201C19.1901 24.29 19.2701 24.27 19.2201 24.07C19.1301 23.72 19.0601 23.37 19.0001 23.01C18.9801 22.86 18.9301 22.8 18.7701 22.8C17.1801 22.8 15.5901 22.8 14.0001 22.8C13.8601 22.8 13.8001 22.84 13.7801 22.98C13.7301 23.33 13.6601 23.67 13.5701 24.01C13.5101 24.24 13.5701 24.29 13.7901 24.29C14.6601 24.28 15.5201 24.29 16.3901 24.29Z" stroke="#000F52" stroke-width="0.5"/>
<path d="M16.3501 21.33C16.1801 21.33 16.0201 21.33 15.8501 21.33C15.5901 21.33 15.3801 21.11 15.3801 20.85C15.3801 20.58 15.5801 20.36 15.8501 20.35C15.8501 20.35 15.8601 20.35 15.8701 20.35C16.2101 20.34 16.5501 20.34 16.8901 20.35C17.1501 20.35 17.3601 20.57 17.3601 20.83C17.3601 21.1 17.1501 21.32 16.8801 21.33C16.7101 21.34 16.5301 21.33 16.3501 21.33Z" fill="#000F52" stroke="#000F52" stroke-width="0.5"/>
</svg>
