<?xml version="1.0" encoding="UTF-8"?>
<!DOCTYPE svg PUBLIC "-//W3C//DTD SVG 1.1//EN" "http://www.w3.org/Graphics/SVG/1.1/DTD/svg11.dtd">
<svg xmlns="http://www.w3.org/2000/svg" version="1.1" width="512px" height="512px" style="shape-rendering:geometricPrecision; text-rendering:geometricPrecision; image-rendering:optimizeQuality; fill-rule:evenodd; clip-rule:evenodd" xmlns:xlink="http://www.w3.org/1999/xlink">
<g><path style="opacity:0.945" fill="#000000" d="M 66.5,-0.5 C 192.5,-0.5 318.5,-0.5 444.5,-0.5C 461.593,5.09503 471.759,16.7617 475,34.5C 475.5,151.833 475.667,269.166 475.5,386.5C 484,385.934 492.333,386.767 500.5,389C 505.464,392.124 509.13,396.291 511.5,401.5C 511.5,413.5 511.5,425.5 511.5,437.5C 506.363,455.628 494.363,465.961 475.5,468.5C 475.565,490.422 465.231,504.755 444.5,511.5C 318.5,511.5 192.5,511.5 66.5,511.5C 45.7685,504.755 35.4352,490.422 35.5,468.5C 16.6375,465.961 4.6375,455.628 -0.5,437.5C -0.5,425.5 -0.5,413.5 -0.5,401.5C 2.94839,393.556 8.94839,388.723 17.5,387C 23.4908,386.501 29.4908,386.334 35.5,386.5C 35.3333,269.166 35.5,151.833 36,34.5C 39.2405,16.7617 49.4072,5.09503 66.5,-0.5 Z M 75.5,14.5 C 195.5,14.3333 315.5,14.5 435.5,15C 448.431,16.5982 456.265,23.7649 459,36.5C 459.5,153.166 459.667,269.833 459.5,386.5C 453.167,386.5 446.833,386.5 440.5,386.5C 440.667,287.499 440.5,188.499 440,89.5C 438.166,77.9968 431.666,70.4968 420.5,67C 310.5,66.3333 200.5,66.3333 90.5,67C 79.3339,70.4968 72.8339,77.9968 71,89.5C 70.5,188.499 70.3333,287.499 70.5,386.5C 64.1667,386.5 57.8333,386.5 51.5,386.5C 51.3333,269.833 51.5,153.166 52,36.5C 54.9081,23.7545 62.7415,16.4211 75.5,14.5 Z M 93.5,82.5 C 137.5,82.5 181.5,82.5 225.5,82.5C 225.5,89.5 225.5,96.5 225.5,103.5C 211.496,103.333 197.496,103.5 183.5,104C 179.277,106.995 178.111,110.829 180,115.5C 181.214,117.049 182.714,118.215 184.5,119C 250.737,119.169 316.904,119.669 383,120.5C 383.667,126.167 383.667,131.833 383,137.5C 382.5,138 382,138.5 381.5,139C 297.5,139.667 213.5,139.667 129.5,139C 129,138.5 128.5,138 128,137.5C 127.333,131.833 127.333,126.167 128,120.5C 137.496,119.932 146.996,119.099 156.5,118C 159.394,115.091 160.227,111.591 159,107.5C 158.5,105.667 157.333,104.5 155.5,104C 145.167,103.333 134.833,103.333 124.5,104C 113.87,108.924 109.536,117.257 111.5,129C 109.207,140.495 113.207,148.828 123.5,154C 167.442,155.159 211.442,155.659 255.5,155.5C 298.5,155.333 341.5,155.167 384.5,155C 391.598,152.901 396.432,148.401 399,141.5C 399.667,133.167 399.667,124.833 399,116.5C 396.833,110.333 392.667,106.167 386.5,104C 352.835,103.5 319.168,103.333 285.5,103.5C 285.5,96.5 285.5,89.5 285.5,82.5C 329.501,82.3333 373.501,82.5 417.5,83C 421.165,84.668 423.332,87.5013 424,91.5C 424.667,142.833 424.667,194.167 424,245.5C 396.311,203.809 357.477,185.976 307.5,192C 301.823,192.96 296.323,194.46 291,196.5C 267.333,188.5 243.667,188.5 220,196.5C 171.194,182.867 129.86,194.867 96,232.5C 93,236.833 90,241.167 87,245.5C 86.3333,194.167 86.3333,142.833 87,91.5C 87.8727,87.4754 90.0393,84.4754 93.5,82.5 Z M 241.5,82.5 C 250.833,82.5 260.167,82.5 269.5,82.5C 269.5,89.5 269.5,96.5 269.5,103.5C 260.167,103.5 250.833,103.5 241.5,103.5C 241.5,96.5 241.5,89.5 241.5,82.5 Z M 175.5,206.5 C 182.014,206.045 188.347,206.545 194.5,208C 183.955,214.945 174.622,223.279 166.5,233C 125.347,247.792 107.513,276.959 113,320.5C 120.655,348.822 138.489,367.322 166.5,376C 169.13,379.632 172.13,382.965 175.5,386C 160.5,386.667 145.5,386.667 130.5,386C 102.6,366.375 87.9334,339.375 86.5,305C 88.558,262.298 108.891,231.965 147.5,214C 156.704,210.534 166.038,208.034 175.5,206.5 Z M 246.5,206.5 C 253.014,206.045 259.347,206.545 265.5,208C 254.627,214.536 245.293,222.869 237.5,233C 202.343,244.159 183.676,268.159 181.5,305C 184.117,340.939 202.451,364.606 236.5,376C 239.833,379.333 243.167,382.667 246.5,386C 231.5,386.667 216.5,386.667 201.5,386C 169.974,363.775 155.474,333.275 158,294.5C 166.798,244.202 196.298,214.869 246.5,206.5 Z M 317.5,206.5 C 369.567,206.103 404.067,230.437 421,279.5C 429.674,317.987 419.841,350.82 391.5,378C 388.01,380.911 384.344,383.578 380.5,386C 344.167,386.667 307.833,386.667 271.5,386C 231.758,355.563 219.592,316.396 235,268.5C 251.014,232.423 278.514,211.756 317.5,206.5 Z M 220.5,349.5 C 210.411,341.879 203.578,331.879 200,319.5C 194.627,294.953 201.627,274.619 221,258.5C 209.887,288.686 209.72,319.02 220.5,349.5 Z M 148.5,259.5 C 149.239,259.369 149.906,259.536 150.5,260C 138.684,290.171 138.518,320.338 150,350.5C 123.858,325.974 120.525,298.641 140,268.5C 143.038,265.631 145.871,262.631 148.5,259.5 Z M 86.5,363.5 C 91.496,371.678 97.496,379.178 104.5,386C 98.5092,386.499 92.5092,386.666 86.5,386.5C 86.5,378.833 86.5,371.167 86.5,363.5 Z M 423.5,363.5 C 424.492,370.982 424.825,378.648 424.5,386.5C 418.491,386.666 412.491,386.499 406.5,386C 413.56,379.455 419.227,371.955 423.5,363.5 Z M 19.5,402.5 C 176.834,402.333 334.167,402.5 491.5,403C 494.102,403.935 495.602,405.768 496,408.5C 497.027,418.303 496.36,427.97 494,437.5C 491.002,445.164 485.502,449.997 477.5,452C 460.837,452.5 444.17,452.667 427.5,452.5C 432.995,422.329 420.661,410.329 390.5,416.5C 361.082,410.918 348.748,422.918 353.5,452.5C 281.499,452.333 209.499,452.5 137.5,453C 129.916,457.63 129.582,462.63 136.5,468C 244.166,468.5 351.833,468.667 459.5,468.5C 459.13,484.368 451.13,493.535 435.5,496C 315.5,496.667 195.5,496.667 75.5,496C 59.8702,493.535 51.8702,484.368 51.5,468.5C 70.5029,468.667 89.5029,468.5 108.5,468C 110.333,467.5 111.5,466.333 112,464.5C 113.724,459.269 112.224,455.435 107.5,453C 82.8333,452.667 58.1667,452.333 33.5,452C 24.7627,449.596 18.9294,444.096 16,435.5C 14.5687,426.541 14.2354,417.541 15,408.5C 15.5985,405.746 17.0985,403.746 19.5,402.5 Z M 370.5,432.5 C 384.167,432.5 397.833,432.5 411.5,432.5C 411.5,439.167 411.5,445.833 411.5,452.5C 397.5,452.5 383.5,452.5 369.5,452.5C 369.207,445.745 369.54,439.078 370.5,432.5 Z"/></g>
<g><path style="opacity:0.926" fill="#000000" d="M 314.5,231.5 C 336.02,228.846 355.187,234.179 372,247.5C 374.29,256.789 370.79,260.622 361.5,259C 340.156,244.833 318.156,243.833 295.5,256C 271.965,272.935 264.132,295.435 272,323.5C 285.466,353.984 308.632,366.151 341.5,360C 371.585,349.005 385.418,327.505 383,295.5C 381.593,289.784 380.093,284.117 378.5,278.5C 379.682,270.597 384.015,268.431 391.5,272C 394.635,277.064 396.802,282.564 398,288.5C 403.723,325.216 390.556,352.716 358.5,371C 324.195,384.797 294.361,378.297 269,351.5C 247.824,321.661 247.157,291.328 267,260.5C 279.373,245.068 295.206,235.401 314.5,231.5 Z"/></g>
</svg>
