<?xml version="1.0" encoding="UTF-8"?>
<svg version="1.1" xmlns="http://www.w3.org/2000/svg" width="512" height="512">
<path d="M0 0 C1.25182571 -0.0127597 2.50365143 -0.02551941 3.79341125 -0.03866577 C5.14767297 -0.04172407 6.50193679 -0.04395148 7.85620117 -0.04541016 C9.26096224 -0.05184649 10.665722 -0.05857546 12.07048035 -0.06558228 C15.0099091 -0.07752717 17.94922058 -0.08126604 20.88867188 -0.08007812 C24.63431797 -0.07987521 28.37920299 -0.10715999 32.12466908 -0.14162254 C35.02539953 -0.16398623 37.92594964 -0.16791278 40.82675743 -0.16685867 C42.20651557 -0.16920108 43.58627972 -0.17794705 44.96595192 -0.19352341 C53.07299985 -0.27647727 59.52433076 0.1134719 66.58666992 4.29052734 C67.23912186 4.66883698 67.89157379 5.04714661 68.563797 5.43692017 C75.46428081 9.63725748 79.43365675 16.67830617 81.58666992 24.29052734 C81.82717896 27.74545288 81.82717896 27.74545288 81.8137207 31.58105469 C81.81401276 32.28418793 81.81430481 32.98732117 81.81460571 33.71176147 C81.81322154 36.01679176 81.7977039 38.3214916 81.78198242 40.62646484 C81.77824904 42.23214542 81.7754036 43.83782829 81.77340698 45.44351196 C81.76579613 49.65539923 81.74616972 53.86714705 81.72399902 58.07897949 C81.70348552 62.38254917 81.69439352 66.68614154 81.68432617 70.98974609 C81.66292126 79.42340361 81.62881631 87.85694809 81.58666992 96.29052734 C82.20191528 96.28323105 82.81716064 96.27593475 83.4510498 96.26841736 C84.25957397 96.26274246 85.06809814 96.25706757 85.90112305 96.2512207 C86.70199341 96.24392441 87.50286377 96.23662811 88.32800293 96.22911072 C97.99623243 96.49200473 106.1503859 102.64341002 112.55932617 109.35693359 C121.06526688 119.45209464 122.84815926 130.33389308 121.85717773 143.17236328 C120.630426 152.77822797 114.87487025 162.08211661 107.34838867 168.07177734 C103.28280068 170.85960911 99.05962655 173.22608582 94.58666992 175.29052734 C95.07135742 175.67982422 95.55604492 176.06912109 96.05541992 176.47021484 C108.90413207 187.19394767 119.69878425 203.29955626 121.58666992 220.29052734 C122.95836311 242.78111938 119.58614828 262.60959141 104.61791992 280.16162109 C101.47713277 283.45340763 98.13232015 286.44269126 94.58666992 289.29052734 C95.29952148 289.65404297 96.01237305 290.01755859 96.74682617 290.39208984 C107.73231808 296.1583642 115.54726659 302.51613156 120.46166992 314.22802734 C123.33583442 324.02083933 122.98963541 336.56887471 118.91088867 345.89990234 C113.13512829 356.32693878 105.23284545 362.34766013 94.58666992 367.29052734 C95.31370117 367.87447266 95.31370117 367.87447266 96.05541992 368.47021484 C108.89843518 379.18919296 119.71158623 395.30554597 121.58666992 412.29052734 C123.01281184 434.02395497 120.27313615 454.22945392 105.60742188 471.19921875 C92.92119261 485.09482268 76.99821611 495.14386304 57.83768737 496.56946266 C53.50623172 496.7153756 49.1755586 496.69594038 44.8422699 496.6782074 C43.16920508 496.68238686 41.4961431 496.68786773 39.82308632 496.69452721 C35.25374071 496.70891968 30.68457642 496.70475661 26.11522114 496.6973604 C21.1765082 496.69261573 16.23783376 496.70514989 11.2991333 496.71537781 C1.63558655 496.73254455 -8.02789513 496.73341039 -17.69145317 496.7281649 C-25.54672415 496.72411875 -33.40197594 496.72557205 -41.25724602 496.73091316 C-42.93607522 496.7320358 -42.93607522 496.7320358 -44.64882017 496.73318111 C-46.92268373 496.73471262 -49.19654727 496.73625097 -51.47041082 496.73779608 C-72.77695841 496.75151291 -94.08346926 496.7460887 -115.39001601 496.73461086 C-134.87520241 496.72467483 -154.3602939 496.73762702 -173.84546567 496.76154505 C-193.86633827 496.78593508 -213.88716666 496.79554444 -233.90805382 496.78889233 C-245.14297525 496.78540048 -256.37782366 496.7876302 -267.61273384 496.80514336 C-277.17444445 496.81986389 -286.73603058 496.82050241 -296.29773874 496.80307245 C-301.17407949 496.79455977 -306.05019786 496.79241964 -310.92652702 496.807724 C-315.39430713 496.82157242 -319.86167434 496.81680595 -324.32943057 496.79748476 C-325.94163796 496.79372501 -327.55387844 496.79664603 -329.16605634 496.80709641 C-342.71379778 496.88863905 -353.35745351 494.89018267 -363.41333008 485.29052734 C-372.17201896 476.11558394 -375.06790833 466.45442979 -374.9543457 453.99609375 C-374.50996348 443.2107558 -370.01746271 433.94019371 -362.41333008 426.29052734 C-357.79392571 422.61435214 -352.76252028 419.75938436 -347.41333008 417.29052734 C-348.14036133 416.70658203 -348.14036133 416.70658203 -348.88208008 416.11083984 C-361.71003356 405.40443251 -372.56337138 389.26661895 -374.41333008 372.29052734 C-375.73382628 349.66768681 -372.51698624 330.09362415 -357.44458008 312.41943359 C-354.30379293 309.12764706 -350.95898031 306.13836343 -347.41333008 303.29052734 C-348.12618164 302.92701172 -348.8390332 302.56349609 -349.57348633 302.18896484 C-360.55897824 296.42269049 -368.37392675 290.06492313 -373.28833008 278.35302734 C-376.14065765 268.63461783 -375.85716871 256.01487453 -371.80004883 246.74755859 C-365.95626903 236.39336847 -358.05177372 230.20057826 -347.41333008 225.29052734 C-347.89801758 224.90123047 -348.38270508 224.51193359 -348.88208008 224.11083984 C-361.72509534 213.39186173 -372.53824639 197.27550872 -374.41333008 180.29052734 C-375.83947199 158.55709972 -373.09979631 138.35160077 -358.43408203 121.38183594 C-346.32874413 108.12249958 -330.60216715 97.52706809 -312.19420338 96.12102532 C-305.75082083 95.84780197 -299.30323091 95.91456216 -292.85571289 95.94995117 C-290.68648287 95.95079853 -288.51725199 95.95032018 -286.34802246 95.94862366 C-280.48933944 95.94776653 -274.63084246 95.96534643 -268.77220249 95.98634553 C-262.63832619 96.00515962 -256.50444514 96.0068665 -250.37054443 96.01042175 C-238.76863226 96.01972833 -227.16680538 96.04432334 -215.56493068 96.07447022 C-202.35088921 96.10805744 -189.13684358 96.1245111 -175.92277002 96.13955653 C-148.75290951 96.17087412 -121.58312459 96.22360761 -94.41333008 96.29052734 C-94.43427734 95.39333984 -94.45522461 94.49615234 -94.47680664 93.57177734 C-94.54540624 90.20952876 -94.59533302 86.84803499 -94.63305664 83.48535156 C-94.65304303 82.03633817 -94.68024205 80.58740409 -94.71508789 79.13867188 C-94.93453791 69.7733195 -94.96815968 62.48828518 -88.44848633 55.04833984 C-87.79750977 54.50951172 -87.1465332 53.97068359 -86.47583008 53.41552734 C-85.82743164 52.86123047 -85.1790332 52.30693359 -84.51098633 51.73583984 C-78.00975451 47.25640637 -71.04192091 47.61589006 -63.41333008 48.29052734 C-56.75373674 49.97138317 -52.22785561 54.75431056 -48.41333008 60.29052734 C-46.34238269 64.47181513 -46.17984929 67.92261195 -46.21801758 72.56005859 C-46.22226242 73.58156258 -46.22226242 73.58156258 -46.22659302 74.623703 C-46.23772483 76.78366189 -46.26281551 78.94319528 -46.28833008 81.10302734 C-46.29836897 82.57372445 -46.30749323 84.0444281 -46.31567383 85.51513672 C-46.33593378 89.10722659 -46.37509341 92.69840466 -46.41333008 96.29052734 C-41.13333008 96.29052734 -35.85333008 96.29052734 -30.41333008 96.29052734 C-30.43427734 94.15656494 -30.45522461 92.02260254 -30.47680664 89.82397461 C-30.54329622 82.747376 -30.58735276 75.67076305 -30.62057877 68.59393406 C-30.64139065 64.30618736 -30.66959 60.01876262 -30.71508789 55.73120117 C-30.75877578 51.58794458 -30.78251523 47.4449963 -30.79283905 43.30152702 C-30.80018951 41.72637013 -30.81454275 40.15122876 -30.83625031 38.5762043 C-30.9479665 30.12907847 -30.99337511 22.72625253 -26.41333008 15.29052734 C-25.94411133 14.48099609 -25.47489258 13.67146484 -24.99145508 12.83740234 C-18.73964211 4.37906715 -10.60893514 0.07376146 0 0 Z M-10.78833008 22.66552734 C-11.27043945 23.23013672 -11.75254883 23.79474609 -12.24926758 24.37646484 C-14.98448747 28.87397406 -14.5617303 34.16811714 -14.55859375 39.27441406 C-14.56195236 40.06369293 -14.56531097 40.8529718 -14.56877136 41.66616821 C-14.57824672 44.26753323 -14.58022274 46.86883365 -14.58129883 49.47021484 C-14.58451371 51.28475979 -14.58787796 53.09930447 -14.59138489 54.91384888 C-14.59736756 58.71503297 -14.59922567 62.51619435 -14.59863281 66.31738281 C-14.59853122 71.17839927 -14.61218393 76.03926956 -14.62940502 80.90025139 C-14.64054539 84.64755924 -14.6425514 88.39483198 -14.64202309 92.14215469 C-14.64320011 93.93383411 -14.64760625 95.72551453 -14.65535545 97.51717758 C-14.66519677 100.02750524 -14.66226107 102.5375184 -14.65625 105.04785156 C-14.66186951 105.78158997 -14.66748901 106.51532837 -14.67327881 107.27130127 C-14.6399336 112.77538271 -14.20173746 118.08758845 -10.64379883 122.47021484 C-9.96961914 123.02966797 -9.29543945 123.58912109 -8.60083008 124.16552734 C-7.60116211 125.02791016 -7.60116211 125.02791016 -6.58129883 125.90771484 C-2.79524074 128.32260595 1.23062662 128.41618748 5.63305664 128.43579102 C6.61112274 128.44217087 7.58918884 128.44855072 8.59689331 128.4551239 C9.64281647 128.45623672 10.68873962 128.45734955 11.76635742 128.45849609 C12.85248322 128.46182449 13.93860901 128.46515289 15.05764771 128.46858215 C17.35231097 128.47363838 19.64698156 128.47599088 21.94165039 128.47583008 C25.4419371 128.47801503 28.94190775 128.49618062 32.44213867 128.51513672 C34.67521051 128.51807125 36.90828385 128.52005565 39.14135742 128.52099609 C40.70416946 128.53177437 40.70416946 128.53177437 42.29855347 128.54277039 C51.64198612 128.59532223 51.64198612 128.59532223 59.76635742 124.48583984 C60.60553711 123.46103516 60.60553711 123.46103516 61.46166992 122.41552734 C62.0365918 121.73748047 62.61151367 121.05943359 63.20385742 120.36083984 C66.11311892 116.00516586 65.74032743 111.31937435 65.74780273 106.23657227 C65.75276764 105.42793228 65.75773254 104.6192923 65.7628479 103.78614807 C65.77743712 101.11442204 65.78426618 98.44275539 65.78979492 95.77099609 C65.79554911 93.91018167 65.80130681 92.04936726 65.80706787 90.18855286 C65.81756869 86.28723881 65.82341735 82.38594532 65.8269043 78.48461914 C65.83238661 73.49459927 65.85641292 68.50485258 65.88487625 63.51491833 C65.90353385 59.67067175 65.9087099 55.82649056 65.91024017 51.98220253 C65.91326025 50.14306457 65.92126696 48.30392758 65.93442535 46.46483421 C65.95155102 43.88723555 65.94958982 41.31029907 65.94311523 38.73266602 C65.95233002 37.97865509 65.9615448 37.22464417 65.97103882 36.44778442 C65.92106433 30.07097634 64.40212695 25.49851562 60.27416992 20.47802734 C54.14726534 15.49101199 47.40707832 15.98341357 39.87182617 15.98974609 C38.74272324 15.98546097 37.6136203 15.98117584 36.45030212 15.97676086 C34.06746083 15.97102949 31.68460204 15.97050849 29.30175781 15.97485352 C25.6653039 15.97801332 22.02966398 15.9545388 18.39331055 15.92919922 C16.07365011 15.92692603 13.7539875 15.92622282 11.43432617 15.92724609 C10.35184097 15.91803635 9.26935577 15.9088266 8.15406799 15.89933777 C0.71823274 15.94469321 -5.76430854 16.53122481 -10.78833008 22.66552734 Z M-75.72583008 67.10302734 C-78.4587249 70.64566878 -78.53390714 73.50146336 -78.51098633 77.83349609 C-78.50776367 78.90664062 -78.50454102 79.97978516 -78.5012207 81.08544922 C-78.4928418 82.205 -78.48446289 83.32455078 -78.47583008 84.47802734 C-78.47131836 85.60917969 -78.46680664 86.74033203 -78.4621582 87.90576172 C-78.45036519 90.7007061 -78.43242965 93.49562334 -78.41333008 96.29052734 C-73.13333008 96.29052734 -67.85333008 96.29052734 -62.41333008 96.29052734 C-62.33221658 92.41510457 -62.27276957 88.54138852 -62.22583008 84.66552734 C-62.20069336 83.57111328 -62.17555664 82.47669922 -62.1496582 81.34912109 C-62.04384439 73.39028977 -62.04384439 73.39028977 -65.41333008 66.29052734 C-69.20864486 64.39286995 -72.38654972 64.48575355 -75.72583008 67.10302734 Z M-344.56567383 131.09521484 C-354.36489125 142.73825965 -358.97053872 157.18210171 -358.28833008 172.29052734 C-356.74861737 188.52912536 -349.40236379 201.23116608 -337.44067383 212.07958984 C-323.70467217 223.07967331 -307.8656652 224.4480808 -290.97412109 224.41078186 C-289.50291233 224.41121832 -288.03170365 224.41209461 -286.56049538 224.41337103 C-282.53100147 224.41560127 -278.50153426 224.41161486 -274.47204375 224.40659297 C-270.12176882 224.40226751 -265.77149535 224.40373638 -261.42121887 224.40449524 C-253.88845463 224.40501914 -246.35569907 224.40188626 -238.82293701 224.3962574 C-227.9318776 224.38812436 -217.04082237 224.38552533 -206.14976025 224.38426941 C-188.47898818 224.38208173 -170.80822073 224.37542933 -153.13745117 224.3659668 C-135.97371443 224.35678534 -118.80997894 224.34970809 -101.64624023 224.34545898 C-100.58795859 224.34519626 -99.52967695 224.34493354 -98.43932617 224.34466285 C-93.13014596 224.3433578 -87.82096573 224.34209409 -82.51178551 224.34085095 C-38.4789638 224.33048717 5.55385275 224.31280214 49.58666992 224.29052734 C49.58666992 229.57052734 49.58666992 234.85052734 49.58666992 240.29052734 C47.60047166 240.28776196 45.6142734 240.28499659 43.56788731 240.28214741 C-3.57415806 240.21697841 -50.71619959 240.16770996 -97.85828071 240.13733136 C-103.65991509 240.13357921 -109.46154936 240.12969624 -115.26318359 240.12573242 C-116.41819072 240.12494549 -117.57319784 240.12415856 -118.76320518 240.12334778 C-137.46803407 240.11029177 -156.17283532 240.08663683 -174.87764781 240.05906896 C-194.06869014 240.03102023 -213.25971799 240.01435221 -232.45077997 240.00826186 C-244.29389321 240.00414432 -256.13692831 239.99113655 -267.98001749 239.96677794 C-276.09986265 239.95092735 -284.21966738 239.94612546 -292.33952688 239.95002321 C-297.025137 239.9519458 -301.7106105 239.94898619 -306.39619637 239.93291092 C-310.6878706 239.91829466 -314.97931658 239.9175862 -319.27100141 239.92783066 C-320.82162694 239.92909651 -322.3722668 239.92530559 -323.92286419 239.9158778 C-334.43029818 239.85571856 -343.89659861 240.00123568 -351.90942383 247.56787109 C-356.86941651 253.24931726 -358.69225347 259.80608302 -358.41333008 267.29052734 C-357.3077927 273.79618963 -354.41712032 278.98077512 -349.41333008 283.29052734 C-343.33227191 287.14537925 -338.04015906 288.41486577 -330.86388397 288.4191618 C-330.20439802 288.42091483 -329.54491206 288.42266787 -328.86544168 288.42447403 C-326.64599139 288.429142 -324.42660638 288.42666647 -322.20715332 288.42424011 C-320.60358072 288.4261077 -319.00000858 288.4284082 -317.39643717 288.43110543 C-312.98202296 288.43723664 -308.56762766 288.43708828 -304.15321016 288.43591106 C-299.39499397 288.43570738 -294.63678391 288.44122282 -289.87857056 288.44596863 C-280.55183403 288.45428382 -271.22510381 288.45702389 -261.89836389 288.45758101 C-254.31560858 288.45805591 -246.73285536 288.46010941 -239.15010071 288.46328163 C-217.65288412 288.47209187 -196.15567253 288.47670062 -174.65845412 288.47595116 C-172.91918315 288.47589122 -172.91918315 288.47589122 -171.14477539 288.47583008 C-169.98384536 288.4757892 -168.82291533 288.47574832 -167.6268056 288.4757062 C-148.82403261 288.47529999 -130.02127967 288.48486209 -111.21851248 288.49896844 C-91.91319462 288.51333749 -72.60788653 288.52023828 -53.30256319 288.51937467 C-42.46378006 288.5190428 -31.62501793 288.52178521 -20.78623962 288.53255272 C-11.55450884 288.54166483 -2.32280857 288.54382725 6.90892476 288.5370433 C11.61718006 288.53378122 16.32537684 288.53371007 21.03362656 288.54239655 C25.34931689 288.55027663 29.66490246 288.54881471 33.98059028 288.54011241 C35.53652904 288.5385807 37.09247567 288.54038111 38.64840513 288.54597249 C58.21140317 288.61158102 75.11278555 285.31502268 89.77416992 271.54052734 C99.9949005 260.85244726 105.47207435 246.54635924 105.62182617 231.83740234 C104.86411661 215.0569077 98.42185178 201.98600216 86.58666992 190.29052734 C73.75561558 178.65365034 57.78005539 176.0856297 41.08666992 176.22802734 C39.56686523 176.23479492 39.56686523 176.23479492 38.01635742 176.24169922 C35.53973165 176.25338142 33.06323336 176.26976153 30.58666992 176.29052734 C30.23475586 177.06396484 29.8828418 177.83740234 29.52026367 178.63427734 C23.14931356 192.07481961 15.03935351 200.19571803 1.02416992 205.72802734 C-12.26492934 209.71994143 -26.1657124 208.16093932 -38.34301758 201.74755859 C-49.47776799 195.15421722 -53.44226661 188.23265427 -59.41333008 176.29052734 C-142.24333008 176.29052734 -225.07333008 176.29052734 -310.41333008 176.29052734 C-310.41333008 171.01052734 -310.41333008 165.73052734 -310.41333008 160.29052734 C-228.57333008 160.29052734 -146.73333008 160.29052734 -62.41333008 160.29052734 C-62.41333008 144.45052734 -62.41333008 128.61052734 -62.41333008 112.29052734 C-93.16583561 112.24639539 -123.91831047 112.20948285 -154.6708378 112.18839668 C-158.30554232 112.18589542 -161.94024676 112.18330676 -165.57495117 112.18066406 C-166.29852284 112.18013944 -167.0220945 112.17961482 -167.76759258 112.1790743 C-179.46714243 112.17038345 -191.16667252 112.15462078 -202.86621067 112.13622175 C-214.88055923 112.11748592 -226.89489747 112.10640284 -238.90926003 112.10235035 C-245.65351205 112.09985789 -252.39772295 112.09388796 -259.14196014 112.07906723 C-265.49481908 112.06545402 -271.847615 112.06131228 -278.20048714 112.06431198 C-280.527208 112.06376349 -282.85393105 112.05980843 -285.18063927 112.05211639 C-307.91397514 111.98067118 -327.91386033 113.68198641 -344.56567383 131.09521484 Z M-46.41333008 112.29052734 C-46.41333008 128.13052734 -46.41333008 143.97052734 -46.41333008 160.29052734 C-25.29333008 160.29052734 -4.17333008 160.29052734 17.58666992 160.29052734 C17.58666992 155.01052734 17.58666992 149.73052734 17.58666992 144.29052734 C15.27022461 144.25185547 15.27022461 144.25185547 12.90698242 144.21240234 C10.84185158 144.15608059 8.7767485 144.09873422 6.71166992 144.04052734 C5.6984668 144.02634766 4.68526367 144.01216797 3.64135742 143.99755859 C-6.26723778 143.67997541 -14.37655866 141.19294014 -21.65942383 134.26318359 C-27.53602658 127.65364152 -29.21215271 120.91716479 -30.41333008 112.29052734 C-35.69333008 112.29052734 -40.97333008 112.29052734 -46.41333008 112.29052734 Z M81.58666992 112.29052734 C81.5119043 112.96857422 81.43713867 113.64662109 81.36010742 114.34521484 C80.10256397 123.24664987 76.95216758 130.42537707 70.33666992 136.66552734 C62.41671252 142.62285623 54.15832509 143.90482352 44.46166992 144.04052734 C42.88385742 144.085 42.88385742 144.085 41.27416992 144.13037109 C38.71206656 144.20024664 36.14936886 144.24774439 33.58666992 144.29052734 C33.58666992 149.57052734 33.58666992 154.85052734 33.58666992 160.29052734 C40.68503557 160.36498172 47.78317115 160.4192738 54.88183594 160.45532227 C57.29398562 160.47035879 59.7061082 160.49079334 62.11816406 160.5168457 C65.59601556 160.55345467 69.07350386 160.57030563 72.55151367 160.58349609 C74.15518044 160.60672188 74.15518044 160.60672188 75.79124451 160.63041687 C84.73941907 160.63240397 92.39534544 159.32821659 99.08276367 153.01318359 C104.04275635 147.33173743 105.86559331 140.77497166 105.58666992 133.29052734 C104.47875084 126.77084967 101.58239933 121.62240983 96.58666992 117.29052734 C91.80529589 114.09322642 87.27696482 112.76471859 81.58666992 112.29052734 Z M-41.41333008 176.29052734 C-37.31964409 183.11333733 -32.29088766 188.37484794 -24.53051758 190.79052734 C-15.32792592 192.96383312 -6.49634183 192.7090794 1.94995117 187.96240234 C6.17673983 184.93758183 9.49091558 181.45044725 12.58666992 177.29052734 C12.58666992 176.96052734 12.58666992 176.63052734 12.58666992 176.29052734 C-5.23333008 176.29052734 -23.05333008 176.29052734 -41.41333008 176.29052734 Z M-344.56567383 323.09521484 C-354.36489125 334.73825965 -358.97053872 349.18210171 -358.28833008 364.29052734 C-356.74861737 380.52912536 -349.40236379 393.23116608 -337.44067383 404.07958984 C-323.70467217 415.07967331 -307.8656652 416.4480808 -290.97412109 416.41078186 C-289.50291233 416.41121832 -288.03170365 416.41209461 -286.56049538 416.41337103 C-282.53100147 416.41560127 -278.50153426 416.41161486 -274.47204375 416.40659297 C-270.12176882 416.40226751 -265.77149535 416.40373638 -261.42121887 416.40449524 C-253.88845463 416.40501914 -246.35569907 416.40188626 -238.82293701 416.3962574 C-227.9318776 416.38812436 -217.04082237 416.38552533 -206.14976025 416.38426941 C-188.47898818 416.38208173 -170.80822073 416.37542933 -153.13745117 416.3659668 C-135.97371443 416.35678534 -118.80997894 416.34970809 -101.64624023 416.34545898 C-100.58795859 416.34519626 -99.52967695 416.34493354 -98.43932617 416.34466285 C-93.13014596 416.3433578 -87.82096573 416.34209409 -82.51178551 416.34085095 C-38.4789638 416.33048717 5.55385275 416.31280214 49.58666992 416.29052734 C49.58666992 421.57052734 49.58666992 426.85052734 49.58666992 432.29052734 C47.60654718 432.28776196 45.62642445 432.28499659 43.58629799 432.28214741 C-3.41746837 432.21697042 -50.42123087 432.16770602 -97.42503311 432.13733136 C-103.21035744 432.13357923 -108.99568167 432.12969627 -114.78100586 432.12573242 C-115.93276006 432.12494549 -117.08451425 432.12415856 -118.27117009 432.12334778 C-136.920358 432.11029377 -155.56951816 432.08663993 -174.21868961 432.05906896 C-193.35436615 432.03101467 -212.49002817 432.01435103 -231.62572443 432.00826186 C-243.433519 432.00414548 -255.24123515 431.99114396 -267.04900558 431.96677794 C-275.14596434 431.95092049 -283.24288256 431.94612702 -291.33985572 431.95002321 C-296.01141304 431.95194473 -300.68283334 431.94899837 -305.3543663 431.93291092 C-309.63437368 431.91827959 -313.91415225 431.91759593 -318.19417031 431.92783066 C-319.7394301 431.92909505 -321.28470435 431.92531693 -322.82993583 431.9158778 C-333.40108923 431.8550779 -343.88368028 431.83016775 -351.94458008 439.56787109 C-356.83968869 445.30920859 -358.69302042 451.78550313 -358.41333008 459.29052734 C-357.30700095 465.80084874 -354.4144574 470.97341071 -349.41333008 475.29052734 C-343.08900803 479.37033509 -337.23744441 480.41467031 -329.75645351 480.4191618 C-329.09750209 480.42091483 -328.43855066 480.42266787 -327.75963101 480.42447403 C-325.54802054 480.42913188 -323.33647588 480.42666907 -321.12486267 480.42424011 C-319.52455182 480.42610821 -317.92424142 480.4284089 -316.32393175 480.43110543 C-311.92317845 480.43723031 -307.52244413 480.43708902 -303.12168753 480.43591106 C-298.37644064 480.43570722 -293.63119986 480.4412243 -288.88595581 480.44596863 C-279.58676196 480.45428015 -270.28757446 480.45702372 -260.98837721 480.45758101 C-253.42805238 480.45805605 -245.86772964 480.46011021 -238.30740547 480.46328163 C-216.87143456 480.47209055 -195.43546865 480.47670078 -173.99949592 480.47595116 C-172.26555354 480.47589122 -172.26555354 480.47589122 -170.49658203 480.47583008 C-169.33920812 480.4757892 -168.1818342 480.47574832 -166.98938835 480.4757062 C-148.24164439 480.47529994 -129.49392053 480.48486376 -110.74618237 480.49896844 C-91.49507345 480.51333746 -72.24397432 480.5202383 -52.9928599 480.51937467 C-42.18539078 480.51904282 -31.37794273 480.52178444 -20.57047844 480.53255272 C-11.36622022 480.54166475 -2.16199261 480.54382728 7.04226816 480.5370433 C11.73635361 480.5337813 16.43038038 480.5337098 21.12446022 480.54239655 C25.4271578 480.55027688 29.7297503 480.54881446 34.03244536 480.54011241 C35.58364363 480.53858077 37.1348498 480.54038086 38.68603874 480.54597249 C58.23420405 480.61173445 75.12540511 477.3031665 89.77416992 463.54052734 C99.9949005 452.85244726 105.47207435 438.54635924 105.62182617 423.83740234 C104.86411661 407.0569077 98.42185178 393.98600216 86.58666992 382.29052734 C72.711413 369.70663097 55.7127307 368.13170017 37.84375 368.17027283 C36.33954284 368.16983639 34.83533576 368.16896014 33.33112907 368.16768366 C29.2104228 368.16545298 25.08974263 368.16944044 20.96903968 368.17446172 C16.52060432 368.17878654 12.07217039 368.17731836 7.62373352 368.17655945 C-0.07927803 368.1760355 -7.78228111 368.17916881 -15.48529053 368.18479729 C-26.62250265 368.19292978 -37.75971068 368.1955293 -48.89692545 368.19678528 C-66.96701187 368.19897304 -85.03709377 368.20562568 -103.10717773 368.21508789 C-120.65893532 368.22426912 -138.21069167 368.23134648 -155.76245117 368.2355957 C-157.38571758 368.23598979 -157.38571758 368.23598979 -159.04177725 368.23639183 C-164.47083004 368.23769689 -169.89988283 368.23896059 -175.32893562 368.24020374 C-220.35707027 368.25056778 -265.38519987 368.26825304 -310.41333008 368.29052734 C-310.41333008 363.01052734 -310.41333008 357.73052734 -310.41333008 352.29052734 C-308.39197748 352.29329272 -306.37062489 352.2960581 -304.28801918 352.29890728 C-256.3067462 352.36408268 -208.325477 352.41334789 -160.34416888 352.44372333 C-154.43867436 352.44747546 -148.53317993 352.45135842 -142.62768555 352.45532227 C-140.86416687 352.45650266 -140.86416687 352.45650266 -139.06502156 352.45770691 C-120.02784237 352.47076132 -100.99069035 352.49441537 -81.95352729 352.52198573 C-62.42008634 352.55003891 -42.88665963 352.56670342 -23.35319936 352.57279283 C-11.29972977 352.57690944 0.75366301 352.5899122 12.80710895 352.61427674 C21.0722658 352.63013283 29.33738293 352.63492798 37.60255389 352.63103148 C42.37132291 352.62910975 47.13995769 352.63205874 51.90870285 352.64814377 C56.27752906 352.6627721 60.6461311 352.66346068 65.01496775 352.65322403 C66.59252872 352.65195935 68.17010383 352.65574 69.74763708 352.66517689 C85.69168967 352.76829504 85.69168967 352.76829504 99.11791992 345.01708984 C103.7148498 339.61325206 105.86842268 333.38130508 105.58666992 326.29052734 C104.48390031 319.37701016 101.98795321 313.84407559 96.58666992 309.29052734 C90.25350917 305.21743572 84.41773078 304.16638855 76.92979336 304.16189289 C76.27084193 304.16013985 75.6118905 304.15838682 74.93297085 304.15658066 C72.72136039 304.1519228 70.50981572 304.15438562 68.29820251 304.15681458 C66.69789166 304.15494648 65.09758127 304.15264578 63.4972716 304.14994925 C59.09651829 304.14382437 54.69578397 304.14396566 50.29502738 304.14514363 C45.54978048 304.14534747 40.80453971 304.13983039 36.05929565 304.13508606 C26.76010181 304.12677454 17.4609143 304.12403097 8.16171705 304.12347368 C0.60139222 304.12299864 -6.95893052 304.12094447 -14.51925468 304.11777306 C-35.9552256 304.10896414 -57.3911915 304.1043539 -78.82716424 304.10510353 C-80.56110661 304.10516346 -80.56110661 304.10516346 -82.33007812 304.10522461 C-83.48745204 304.10526549 -84.64482595 304.10530637 -85.8372718 304.10534849 C-104.58501577 304.10575475 -123.33273963 304.09619093 -142.08047778 304.08208624 C-161.33158671 304.06771723 -180.58268583 304.06081639 -199.83380026 304.06168002 C-210.64126937 304.06201187 -221.44871743 304.05927024 -232.25618172 304.04850197 C-241.46043993 304.03938994 -250.66466754 304.03722741 -259.86892832 304.04401139 C-264.56301377 304.04727339 -269.25704053 304.04734489 -273.95112038 304.03865814 C-278.25381796 304.03077781 -282.55641046 304.03224022 -286.85910552 304.04094227 C-288.41030379 304.04247392 -289.96150995 304.04067383 -291.5126989 304.0350822 C-312.03330994 303.96604883 -329.92092257 307.78082287 -344.56567383 323.09521484 Z " fill="#010101" transform="translate(382.413330078125,7.70947265625)"/>
<path d="M0 0 C3.68069887 1.53643852 5.98775204 3.78150945 8.75 6.625 C9.54921875 7.44226562 10.3484375 8.25953125 11.171875 9.1015625 C11.77515625 9.72804688 12.3784375 10.35453125 13 11 C11.07712966 15.29378813 8.37521131 17.77153701 5 21 C5.28617188 21.57105469 5.57234375 22.14210938 5.8671875 22.73046875 C6.24101562 23.47941406 6.61484375 24.22835937 7 25 C7.35320312 25.69738281 7.70640625 26.39476563 8.0703125 27.11328125 C11.29252007 33.83218075 11.96347843 38.69419354 9.5625 45.875 C7.05350356 51.82360248 2.76955513 55.78077816 -2 60 C-5.68069887 58.46356148 -7.98775204 56.21849055 -10.75 53.375 C-11.54921875 52.55773437 -12.3484375 51.74046875 -13.171875 50.8984375 C-13.77515625 50.27195313 -14.3784375 49.64546875 -15 49 C-13.07712966 44.70621187 -10.37521131 42.22846299 -7 39 C-7.42925781 38.14148438 -7.42925781 38.14148438 -7.8671875 37.265625 C-8.24101562 36.51796875 -8.61484375 35.7703125 -9 35 C-9.35320312 34.31421875 -9.70640625 33.6284375 -10.0703125 32.921875 C-12.98864279 26.91227634 -14.1727052 22.34133913 -12.41015625 15.81640625 C-9.88890383 9.11243093 -5.23475859 4.73141641 0 0 Z " fill="#000000" transform="translate(225,26)"/>
<path d="M0 0 C3.68069887 1.53643852 5.98775204 3.78150945 8.75 6.625 C9.54921875 7.44226562 10.3484375 8.25953125 11.171875 9.1015625 C11.77515625 9.72804688 12.3784375 10.35453125 13 11 C11.07712966 15.29378813 8.37521131 17.77153701 5 21 C5.28617188 21.57105469 5.57234375 22.14210938 5.8671875 22.73046875 C6.24101562 23.47941406 6.61484375 24.22835937 7 25 C7.35320312 25.69738281 7.70640625 26.39476563 8.0703125 27.11328125 C11.29252007 33.83218075 11.96347843 38.69419354 9.5625 45.875 C7.05350356 51.82360248 2.76955513 55.78077816 -2 60 C-5.68069887 58.46356148 -7.98775204 56.21849055 -10.75 53.375 C-11.54921875 52.55773437 -12.3484375 51.74046875 -13.171875 50.8984375 C-13.77515625 50.27195313 -14.3784375 49.64546875 -15 49 C-13.07712966 44.70621187 -10.37521131 42.22846299 -7 39 C-7.42925781 38.14148438 -7.42925781 38.14148438 -7.8671875 37.265625 C-8.24101563 36.51796875 -8.61484375 35.7703125 -9 35 C-9.35320312 34.31421875 -9.70640625 33.6284375 -10.0703125 32.921875 C-12.98864279 26.91227634 -14.1727052 22.34133913 -12.41015625 15.81640625 C-9.88890383 9.11243093 -5.23475859 4.73141641 0 0 Z " fill="#000000" transform="translate(129,26)"/>
<path d="M0 0 C3.68069887 1.53643852 5.98775204 3.78150945 8.75 6.625 C9.54921875 7.44226563 10.3484375 8.25953125 11.171875 9.1015625 C11.77515625 9.72804688 12.3784375 10.35453125 13 11 C11.07712966 15.29378813 8.37521131 17.77153701 5 21 C5.28617188 21.57105469 5.57234375 22.14210938 5.8671875 22.73046875 C6.24101562 23.47941406 6.61484375 24.22835937 7 25 C7.35320312 25.69738281 7.70640625 26.39476563 8.0703125 27.11328125 C11.29252007 33.83218075 11.96347843 38.69419354 9.5625 45.875 C7.05350356 51.82360248 2.76955513 55.78077816 -2 60 C-5.68069887 58.46356148 -7.98775204 56.21849055 -10.75 53.375 C-11.54921875 52.55773438 -12.3484375 51.74046875 -13.171875 50.8984375 C-13.77515625 50.27195313 -14.3784375 49.64546875 -15 49 C-13.07712966 44.70621187 -10.37521131 42.22846299 -7 39 C-7.42925781 38.14148437 -7.42925781 38.14148437 -7.8671875 37.265625 C-8.24101562 36.51796875 -8.61484375 35.7703125 -9 35 C-9.35320312 34.31421875 -9.70640625 33.6284375 -10.0703125 32.921875 C-12.98864279 26.91227634 -14.1727052 22.34133913 -12.41015625 15.81640625 C-9.88890383 9.11243093 -5.23475859 4.73141641 0 0 Z " fill="#000000" transform="translate(177,10)"/>
<path d="M0 0 C5.28 0 10.56 0 16 0 C16 5.28 16 10.56 16 16 C10.72 16 5.44 16 0 16 C0 10.72 0 5.44 0 0 Z " fill="#000000" transform="translate(416,104)"/>
<path d="M0 0 C5.28 0 10.56 0 16 0 C16 5.28 16 10.56 16 16 C10.72 16 5.44 16 0 16 C0 10.72 0 5.44 0 0 Z " fill="#000000" transform="translate(384,104)"/>
<path d="M0 0 C5.28 0 10.56 0 16 0 C16 5.28 16 10.56 16 16 C10.72 16 5.44 16 0 16 C0 10.72 0 5.44 0 0 Z " fill="#000000" transform="translate(416,72)"/>
<path d="M0 0 C5.28 0 10.56 0 16 0 C16 5.28 16 10.56 16 16 C10.72 16 5.44 16 0 16 C0 10.72 0 5.44 0 0 Z " fill="#000000" transform="translate(384,72)"/>
<path d="M0 0 C5.28 0 10.56 0 16 0 C16 5.28 16 10.56 16 16 C10.72 16 5.44 16 0 16 C0 10.72 0 5.44 0 0 Z " fill="#000000" transform="translate(416,40)"/>
<path d="M0 0 C5.28 0 10.56 0 16 0 C16 5.28 16 10.56 16 16 C10.72 16 5.44 16 0 16 C0 10.72 0 5.44 0 0 Z " fill="#000000" transform="translate(384,40)"/>
</svg>
