<?xml version="1.0" encoding="UTF-8"?>
<!DOCTYPE svg PUBLIC "-//W3C//DTD SVG 1.1//EN" "http://www.w3.org/Graphics/SVG/1.1/DTD/svg11.dtd">
<svg xmlns="http://www.w3.org/2000/svg" version="1.1" width="512px" height="512px" style="shape-rendering:geometricPrecision; text-rendering:geometricPrecision; image-rendering:optimizeQuality; fill-rule:evenodd; clip-rule:evenodd" xmlns:xlink="http://www.w3.org/1999/xlink">
<g><path style="opacity:0.948" fill="#000000" d="M -0.5,267.5 C -0.5,259.5 -0.5,251.5 -0.5,243.5C 10.6261,205.747 35.9594,188.58 75.5,192C 108.57,200.319 125.904,221.485 127.5,255.5C 125.95,290.091 108.284,311.258 74.5,319C 35.3393,322.109 10.3393,304.942 -0.5,267.5 Z M 56.5,213.5 C 82.0991,212.285 98.2658,223.951 105,248.5C 106.699,274.124 95.1992,290.291 70.5,297C 44.8757,298.699 28.709,287.199 22,262.5C 20.5031,236.854 32.0031,220.521 56.5,213.5 Z"/></g>
<g><path style="opacity:0.948" fill="#000000" d="M 243.5,191.5 C 277.466,188.224 301.632,201.891 316,232.5C 325.302,262.811 317.802,287.977 293.5,308C 274.476,320.158 254.142,322.824 232.5,316C 201.736,301.652 188.236,277.486 192,243.5C 198.681,215.653 215.848,198.319 243.5,191.5 Z M 248.5,213.5 C 274.099,212.285 290.266,223.951 297,248.5C 298.699,274.124 287.199,290.291 262.5,297C 236.876,298.699 220.709,287.199 214,262.5C 212.503,236.854 224.003,220.521 248.5,213.5 Z"/></g>
<g><path style="opacity:0.948" fill="#000000" d="M 511.5,243.5 C 511.5,251.5 511.5,259.5 511.5,267.5C 500.661,304.942 475.661,322.109 436.5,319C 402.716,311.258 385.05,290.091 383.5,255.5C 385.096,221.485 402.43,200.319 435.5,192C 475.041,188.58 500.374,205.747 511.5,243.5 Z M 440.5,213.5 C 466.099,212.285 482.266,223.951 489,248.5C 490.699,274.124 479.199,290.291 454.5,297C 428.876,298.699 412.709,287.199 406,262.5C 404.503,236.854 416.003,220.521 440.5,213.5 Z"/></g>
</svg>
