<svg width="586" height="534" viewBox="0 0 586 534" fill="none" xmlns="http://www.w3.org/2000/svg">
<path d="M48.1692 284.613C50.2866 239.199 70.1112 194.121 104.568 156.369C139.026 118.617 186.19 90.3013 238.746 75.8135C291.302 61.3257 346.313 61.4754 395.247 76.2395C444.181 91.0036 484.304 119.557 509.391 157.471L292.76 271.755L48.1692 284.613Z" fill="#3871C1" fill-opacity="0.04" stroke="#000F52" stroke-linecap="round" stroke-dasharray="14 14"/>
<path d="M48.1692 284.613C50.2866 239.199 70.1112 194.121 104.568 156.369C139.026 118.617 186.19 90.3013 238.746 75.8135C291.302 61.3257 346.313 61.4754 395.247 76.2395C444.181 91.0036 484.304 119.557 509.391 157.471" stroke="#FFC108" stroke-width="3" stroke-linecap="round" stroke-dasharray="14 14"/>
<path d="M176.131 17L181.486 5.1H183.662L189.034 17H186.722L182.115 6.273H182.999L178.409 17H176.131ZM178.596 14.246L179.191 12.512H185.617L186.212 14.246H178.596ZM201.802 7.82C202.527 7.82 203.167 7.96167 203.723 8.245C204.289 8.52833 204.731 8.96467 205.049 9.554C205.366 10.132 205.525 10.88 205.525 11.798V17H203.4V12.07C203.4 11.2653 203.224 10.6647 202.873 10.268C202.521 9.87133 202.017 9.673 201.36 9.673C200.895 9.673 200.481 9.775 200.119 9.979C199.767 10.183 199.49 10.4833 199.286 10.88C199.093 11.2767 198.997 11.781 198.997 12.393V17H196.872V12.07C196.872 11.2653 196.696 10.6647 196.345 10.268C195.993 9.87133 195.489 9.673 194.832 9.673C194.367 9.673 193.953 9.775 193.591 9.979C193.239 10.183 192.962 10.4833 192.758 10.88C192.565 11.2767 192.469 11.781 192.469 12.393V17H190.344V7.922H192.367V10.336L192.01 9.622C192.316 9.03267 192.758 8.585 193.336 8.279C193.925 7.973 194.594 7.82 195.342 7.82C196.192 7.82 196.928 8.02967 197.552 8.449C198.186 8.86833 198.606 9.503 198.81 10.353L197.977 10.064C198.271 9.384 198.759 8.84 199.439 8.432C200.119 8.024 200.906 7.82 201.802 7.82ZM212.337 17.119C211.407 17.119 210.58 16.9207 209.855 16.524C209.129 16.116 208.557 15.5607 208.138 14.858C207.718 14.1553 207.509 13.3563 207.509 12.461C207.509 11.5543 207.718 10.7553 208.138 10.064C208.557 9.36133 209.129 8.81167 209.855 8.415C210.58 8.01833 211.407 7.82 212.337 7.82C213.277 7.82 214.11 8.01833 214.836 8.415C215.572 8.81167 216.145 9.35567 216.553 10.047C216.972 10.7383 217.182 11.543 217.182 12.461C217.182 13.3563 216.972 14.1553 216.553 14.858C216.145 15.5607 215.572 16.116 214.836 16.524C214.11 16.9207 213.277 17.119 212.337 17.119ZM212.337 15.3C212.858 15.3 213.323 15.1867 213.731 14.96C214.139 14.7333 214.456 14.4047 214.683 13.974C214.921 13.5433 215.04 13.039 215.04 12.461C215.04 11.8717 214.921 11.3673 214.683 10.948C214.456 10.5173 214.139 10.1887 213.731 9.962C213.323 9.73533 212.864 9.622 212.354 9.622C211.832 9.622 211.368 9.73533 210.96 9.962C210.563 10.1887 210.246 10.5173 210.008 10.948C209.77 11.3673 209.651 11.8717 209.651 12.461C209.651 13.039 209.77 13.5433 210.008 13.974C210.246 14.4047 210.563 14.7333 210.96 14.96C211.368 15.1867 211.827 15.3 212.337 15.3ZM223.056 17.119C222.285 17.119 221.605 16.9773 221.016 16.694C220.426 16.3993 219.967 15.9573 219.639 15.368C219.31 14.7673 219.146 14.0137 219.146 13.107V7.922H221.271V12.818C221.271 13.634 221.452 14.246 221.815 14.654C222.189 15.0507 222.716 15.249 223.396 15.249C223.894 15.249 224.325 15.147 224.688 14.943C225.062 14.739 225.351 14.433 225.555 14.025C225.77 13.617 225.878 13.1127 225.878 12.512V7.922H228.003V17H225.98V14.552L226.337 15.3C226.031 15.8893 225.583 16.3427 224.994 16.66C224.404 16.966 223.758 17.119 223.056 17.119ZM235.936 7.82C236.661 7.82 237.307 7.96167 237.874 8.245C238.452 8.52833 238.905 8.96467 239.234 9.554C239.563 10.132 239.727 10.88 239.727 11.798V17H237.602V12.07C237.602 11.2653 237.409 10.6647 237.024 10.268C236.65 9.87133 236.123 9.673 235.443 9.673C234.944 9.673 234.502 9.775 234.117 9.979C233.732 10.183 233.431 10.489 233.216 10.897C233.012 11.2937 232.91 11.798 232.91 12.41V17H230.785V7.922H232.808V10.37L232.451 9.622C232.768 9.044 233.227 8.602 233.828 8.296C234.44 7.97867 235.143 7.82 235.936 7.82ZM245.84 17.119C244.842 17.119 244.072 16.864 243.528 16.354C242.984 15.8327 242.712 15.0677 242.712 14.059V5.916H244.837V14.008C244.837 14.4387 244.944 14.773 245.16 15.011C245.386 15.249 245.698 15.368 246.095 15.368C246.571 15.368 246.967 15.2433 247.285 14.994L247.88 16.507C247.63 16.711 247.324 16.864 246.962 16.966C246.599 17.068 246.225 17.119 245.84 17.119ZM241.216 9.69V7.99H247.268V9.69H241.216ZM258.406 17.119C257.477 17.119 256.649 16.9207 255.924 16.524C255.199 16.116 254.626 15.5607 254.207 14.858C253.788 14.1553 253.578 13.3563 253.578 12.461C253.578 11.5543 253.788 10.7553 254.207 10.064C254.626 9.36133 255.199 8.81167 255.924 8.415C256.649 8.01833 257.477 7.82 258.406 7.82C259.347 7.82 260.18 8.01833 260.905 8.415C261.642 8.81167 262.214 9.35567 262.622 10.047C263.041 10.7383 263.251 11.543 263.251 12.461C263.251 13.3563 263.041 14.1553 262.622 14.858C262.214 15.5607 261.642 16.116 260.905 16.524C260.18 16.9207 259.347 17.119 258.406 17.119ZM258.406 15.3C258.927 15.3 259.392 15.1867 259.8 14.96C260.208 14.7333 260.525 14.4047 260.752 13.974C260.99 13.5433 261.109 13.039 261.109 12.461C261.109 11.8717 260.99 11.3673 260.752 10.948C260.525 10.5173 260.208 10.1887 259.8 9.962C259.392 9.73533 258.933 9.622 258.423 9.622C257.902 9.622 257.437 9.73533 257.029 9.962C256.632 10.1887 256.315 10.5173 256.077 10.948C255.839 11.3673 255.72 11.8717 255.72 12.461C255.72 13.039 255.839 13.5433 256.077 13.974C256.315 14.4047 256.632 14.7333 257.029 14.96C257.437 15.1867 257.896 15.3 258.406 15.3ZM265.572 17V7.412C265.572 6.46 265.85 5.70067 266.405 5.134C266.972 4.556 267.776 4.267 268.819 4.267C269.193 4.267 269.544 4.30667 269.873 4.386C270.213 4.46533 270.496 4.59 270.723 4.76L270.145 6.358C269.986 6.23333 269.805 6.14267 269.601 6.086C269.397 6.018 269.187 5.984 268.972 5.984C268.53 5.984 268.196 6.10867 267.969 6.358C267.742 6.596 267.629 6.95867 267.629 7.446V8.466L267.697 9.418V17H265.572ZM264.076 9.69V7.99H270.128V9.69H264.076ZM280.099 17.119C279.328 17.119 278.648 16.9773 278.059 16.694C277.469 16.3993 277.01 15.9573 276.682 15.368C276.353 14.7673 276.189 14.0137 276.189 13.107V7.922H278.314V12.818C278.314 13.634 278.495 14.246 278.858 14.654C279.232 15.0507 279.759 15.249 280.439 15.249C280.937 15.249 281.368 15.147 281.731 14.943C282.105 14.739 282.394 14.433 282.598 14.025C282.813 13.617 282.921 13.1127 282.921 12.512V7.922H285.046V17H283.023V14.552L283.38 15.3C283.074 15.8893 282.626 16.3427 282.037 16.66C281.447 16.966 280.801 17.119 280.099 17.119ZM290.633 17.119C289.874 17.119 289.143 17.0227 288.44 16.83C287.749 16.626 287.199 16.3823 286.791 16.099L287.607 14.484C288.015 14.7447 288.502 14.96 289.069 15.13C289.636 15.3 290.202 15.385 290.769 15.385C291.438 15.385 291.919 15.2943 292.214 15.113C292.52 14.9317 292.673 14.688 292.673 14.382C292.673 14.1327 292.571 13.9457 292.367 13.821C292.163 13.685 291.897 13.583 291.568 13.515C291.239 13.447 290.871 13.3847 290.463 13.328C290.066 13.2713 289.664 13.1977 289.256 13.107C288.859 13.005 288.497 12.8633 288.168 12.682C287.839 12.4893 287.573 12.2343 287.369 11.917C287.165 11.5997 287.063 11.1803 287.063 10.659C287.063 10.081 287.227 9.58233 287.556 9.163C287.885 8.73233 288.344 8.40367 288.933 8.177C289.534 7.939 290.242 7.82 291.058 7.82C291.67 7.82 292.288 7.888 292.911 8.024C293.534 8.16 294.05 8.35267 294.458 8.602L293.642 10.217C293.211 9.95633 292.775 9.78067 292.333 9.69C291.902 9.588 291.472 9.537 291.041 9.537C290.395 9.537 289.913 9.63333 289.596 9.826C289.29 10.0187 289.137 10.2623 289.137 10.557C289.137 10.829 289.239 11.033 289.443 11.169C289.647 11.305 289.913 11.4127 290.242 11.492C290.571 11.5713 290.933 11.6393 291.33 11.696C291.738 11.7413 292.14 11.815 292.537 11.917C292.934 12.019 293.296 12.1607 293.625 12.342C293.965 12.512 294.237 12.7557 294.441 13.073C294.645 13.3903 294.747 13.804 294.747 14.314C294.747 14.8807 294.577 15.3737 294.237 15.793C293.908 16.2123 293.438 16.541 292.826 16.779C292.214 17.0057 291.483 17.119 290.633 17.119ZM302.17 17V15.164L302.051 14.773V11.56C302.051 10.9367 301.864 10.455 301.49 10.115C301.116 9.76367 300.549 9.588 299.79 9.588C299.28 9.588 298.776 9.66733 298.277 9.826C297.79 9.98467 297.376 10.2057 297.036 10.489L296.203 8.942C296.69 8.568 297.268 8.29033 297.937 8.109C298.617 7.91633 299.32 7.82 300.045 7.82C301.36 7.82 302.374 8.13733 303.088 8.772C303.813 9.39533 304.176 10.3643 304.176 11.679V17H302.17ZM299.314 17.119C298.634 17.119 298.039 17.0057 297.529 16.779C297.019 16.541 296.622 16.218 296.339 15.81C296.067 15.3907 295.931 14.9203 295.931 14.399C295.931 13.889 296.05 13.43 296.288 13.022C296.537 12.614 296.94 12.291 297.495 12.053C298.05 11.815 298.787 11.696 299.705 11.696H302.34V13.107H299.858C299.133 13.107 298.645 13.226 298.396 13.464C298.147 13.6907 298.022 13.974 298.022 14.314C298.022 14.6993 298.175 15.0053 298.481 15.232C298.787 15.4587 299.212 15.572 299.756 15.572C300.277 15.572 300.742 15.453 301.15 15.215C301.569 14.977 301.87 14.6257 302.051 14.161L302.408 15.436C302.204 15.9687 301.836 16.3823 301.303 16.677C300.782 16.9717 300.119 17.119 299.314 17.119ZM311.935 17.119C311.165 17.119 310.479 16.949 309.878 16.609C309.278 16.269 308.802 15.759 308.45 15.079C308.11 14.3877 307.94 13.515 307.94 12.461C307.94 11.3957 308.116 10.523 308.467 9.843C308.83 9.163 309.312 8.65867 309.912 8.33C310.524 7.99 311.199 7.82 311.935 7.82C312.831 7.82 313.618 8.01267 314.298 8.398C314.99 8.78333 315.534 9.32167 315.93 10.013C316.338 10.7043 316.542 11.5203 316.542 12.461C316.542 13.4017 316.338 14.2177 315.93 14.909C315.534 15.6003 314.99 16.1443 314.298 16.541C313.618 16.9263 312.831 17.119 311.935 17.119ZM306.903 17V4.386H309.028V10.03L308.858 12.444L308.926 14.858V17H306.903ZM311.697 15.3C312.207 15.3 312.661 15.1867 313.057 14.96C313.465 14.7333 313.788 14.4047 314.026 13.974C314.264 13.5433 314.383 13.039 314.383 12.461C314.383 11.8717 314.264 11.3673 314.026 10.948C313.788 10.5173 313.465 10.1887 313.057 9.962C312.661 9.73533 312.207 9.622 311.697 9.622C311.187 9.622 310.728 9.73533 310.32 9.962C309.912 10.1887 309.589 10.5173 309.351 10.948C309.113 11.3673 308.994 11.8717 308.994 12.461C308.994 13.039 309.113 13.5433 309.351 13.974C309.589 14.4047 309.912 14.7333 310.32 14.96C310.728 15.1867 311.187 15.3 311.697 15.3ZM318.558 17V4.386H320.683V17H318.558ZM327.739 17.119C326.73 17.119 325.846 16.9207 325.087 16.524C324.339 16.116 323.755 15.5607 323.336 14.858C322.928 14.1553 322.724 13.3563 322.724 12.461C322.724 11.5543 322.922 10.7553 323.319 10.064C323.727 9.36133 324.282 8.81167 324.985 8.415C325.699 8.01833 326.509 7.82 327.416 7.82C328.3 7.82 329.087 8.01267 329.779 8.398C330.47 8.78333 331.014 9.32733 331.411 10.03C331.807 10.7327 332.006 11.56 332.006 12.512C332.006 12.6027 332 12.7047 331.989 12.818C331.989 12.9313 331.983 13.039 331.972 13.141H324.407V11.73H330.85L330.017 12.172C330.028 11.6507 329.92 11.1917 329.694 10.795C329.467 10.3983 329.155 10.0867 328.759 9.86C328.373 9.63333 327.926 9.52 327.416 9.52C326.894 9.52 326.435 9.63333 326.039 9.86C325.653 10.0867 325.347 10.404 325.121 10.812C324.905 11.2087 324.798 11.679 324.798 12.223V12.563C324.798 13.107 324.922 13.5887 325.172 14.008C325.421 14.4273 325.772 14.7503 326.226 14.977C326.679 15.2037 327.2 15.317 327.79 15.317C328.3 15.317 328.759 15.2377 329.167 15.079C329.575 14.9203 329.937 14.671 330.255 14.331L331.394 15.64C330.986 16.116 330.47 16.4843 329.847 16.745C329.235 16.9943 328.532 17.119 327.739 17.119ZM341.55 17.119C340.791 17.119 340.06 17.0227 339.357 16.83C338.666 16.626 338.116 16.3823 337.708 16.099L338.524 14.484C338.932 14.7447 339.419 14.96 339.986 15.13C340.553 15.3 341.119 15.385 341.686 15.385C342.355 15.385 342.836 15.2943 343.131 15.113C343.437 14.9317 343.59 14.688 343.59 14.382C343.59 14.1327 343.488 13.9457 343.284 13.821C343.08 13.685 342.814 13.583 342.485 13.515C342.156 13.447 341.788 13.3847 341.38 13.328C340.983 13.2713 340.581 13.1977 340.173 13.107C339.776 13.005 339.414 12.8633 339.085 12.682C338.756 12.4893 338.49 12.2343 338.286 11.917C338.082 11.5997 337.98 11.1803 337.98 10.659C337.98 10.081 338.144 9.58233 338.473 9.163C338.802 8.73233 339.261 8.40367 339.85 8.177C340.451 7.939 341.159 7.82 341.975 7.82C342.587 7.82 343.205 7.888 343.828 8.024C344.451 8.16 344.967 8.35267 345.375 8.602L344.559 10.217C344.128 9.95633 343.692 9.78067 343.25 9.69C342.819 9.588 342.389 9.537 341.958 9.537C341.312 9.537 340.83 9.63333 340.513 9.826C340.207 10.0187 340.054 10.2623 340.054 10.557C340.054 10.829 340.156 11.033 340.36 11.169C340.564 11.305 340.83 11.4127 341.159 11.492C341.488 11.5713 341.85 11.6393 342.247 11.696C342.655 11.7413 343.057 11.815 343.454 11.917C343.851 12.019 344.213 12.1607 344.542 12.342C344.882 12.512 345.154 12.7557 345.358 13.073C345.562 13.3903 345.664 13.804 345.664 14.314C345.664 14.8807 345.494 15.3737 345.154 15.793C344.825 16.2123 344.355 16.541 343.743 16.779C343.131 17.0057 342.4 17.119 341.55 17.119ZM351.336 17.119C350.565 17.119 349.885 16.9773 349.296 16.694C348.707 16.3993 348.248 15.9573 347.919 15.368C347.59 14.7673 347.426 14.0137 347.426 13.107V7.922H349.551V12.818C349.551 13.634 349.732 14.246 350.095 14.654C350.469 15.0507 350.996 15.249 351.676 15.249C352.175 15.249 352.605 15.147 352.968 14.943C353.342 14.739 353.631 14.433 353.835 14.025C354.05 13.617 354.158 13.1127 354.158 12.512V7.922H356.283V17H354.26V14.552L354.617 15.3C354.311 15.8893 353.863 16.3427 353.274 16.66C352.685 16.966 352.039 17.119 351.336 17.119ZM364.216 7.82C364.942 7.82 365.588 7.96167 366.154 8.245C366.732 8.52833 367.186 8.96467 367.514 9.554C367.843 10.132 368.007 10.88 368.007 11.798V17H365.882V12.07C365.882 11.2653 365.69 10.6647 365.304 10.268C364.93 9.87133 364.403 9.673 363.723 9.673C363.225 9.673 362.783 9.775 362.397 9.979C362.012 10.183 361.712 10.489 361.496 10.897C361.292 11.2937 361.19 11.798 361.19 12.41V17H359.065V7.922H361.088V10.37L360.731 9.622C361.049 9.044 361.508 8.602 362.108 8.296C362.72 7.97867 363.423 7.82 364.216 7.82ZM370.703 17V4.386H372.828V17H370.703ZM375.617 17V7.922H377.742V17H375.617ZM376.688 6.426C376.291 6.426 375.963 6.30133 375.702 6.052C375.453 5.80267 375.328 5.50233 375.328 5.151C375.328 4.78833 375.453 4.488 375.702 4.25C375.963 4.00067 376.291 3.876 376.688 3.876C377.085 3.876 377.408 3.995 377.657 4.233C377.918 4.45967 378.048 4.74867 378.048 5.1C378.048 5.474 377.923 5.79133 377.674 6.052C377.425 6.30133 377.096 6.426 376.688 6.426ZM384.645 20.417C383.807 20.417 382.985 20.3037 382.18 20.077C381.387 19.8617 380.735 19.5443 380.225 19.125L381.177 17.527C381.574 17.8557 382.073 18.1163 382.673 18.309C383.285 18.513 383.903 18.615 384.526 18.615C385.524 18.615 386.255 18.3827 386.719 17.918C387.184 17.4647 387.416 16.779 387.416 15.861V14.246L387.586 12.189L387.518 10.132V7.922H389.541V15.623C389.541 17.2663 389.122 18.4733 388.283 19.244C387.445 20.026 386.232 20.417 384.645 20.417ZM384.373 16.592C383.512 16.592 382.73 16.4107 382.027 16.048C381.336 15.674 380.786 15.1583 380.378 14.501C379.982 13.8437 379.783 13.073 379.783 12.189C379.783 11.3163 379.982 10.5513 380.378 9.894C380.786 9.23667 381.336 8.72667 382.027 8.364C382.73 8.00133 383.512 7.82 384.373 7.82C385.144 7.82 385.835 7.973 386.447 8.279C387.059 8.585 387.547 9.061 387.909 9.707C388.283 10.353 388.47 11.1803 388.47 12.189C388.47 13.1977 388.283 14.0307 387.909 14.688C387.547 15.334 387.059 15.8157 386.447 16.133C385.835 16.439 385.144 16.592 384.373 16.592ZM384.696 14.79C385.229 14.79 385.705 14.6823 386.124 14.467C386.544 14.2403 386.867 13.9343 387.093 13.549C387.331 13.1523 387.45 12.699 387.45 12.189C387.45 11.679 387.331 11.2313 387.093 10.846C386.867 10.4493 386.544 10.149 386.124 9.945C385.705 9.72967 385.229 9.622 384.696 9.622C384.164 9.622 383.682 9.72967 383.251 9.945C382.832 10.149 382.503 10.4493 382.265 10.846C382.039 11.2313 381.925 11.679 381.925 12.189C381.925 12.699 382.039 13.1523 382.265 13.549C382.503 13.9343 382.832 14.2403 383.251 14.467C383.682 14.6823 384.164 14.79 384.696 14.79ZM397.486 7.82C398.211 7.82 398.857 7.96167 399.424 8.245C400.002 8.52833 400.455 8.96467 400.784 9.554C401.113 10.132 401.277 10.88 401.277 11.798V17H399.152V12.07C399.152 11.2653 398.959 10.6647 398.574 10.268C398.2 9.87133 397.673 9.673 396.993 9.673C396.494 9.673 396.052 9.775 395.667 9.979C395.282 10.183 394.981 10.489 394.766 10.897C394.562 11.2937 394.46 11.798 394.46 12.41V17H392.335V4.386H394.46V10.37L394.001 9.622C394.318 9.044 394.777 8.602 395.378 8.296C395.99 7.97867 396.693 7.82 397.486 7.82ZM407.39 17.119C406.392 17.119 405.622 16.864 405.078 16.354C404.534 15.8327 404.262 15.0677 404.262 14.059V5.916H406.387V14.008C406.387 14.4387 406.494 14.773 406.71 15.011C406.936 15.249 407.248 15.368 407.645 15.368C408.121 15.368 408.517 15.2433 408.835 14.994L409.43 16.507C409.18 16.711 408.874 16.864 408.512 16.966C408.149 17.068 407.775 17.119 407.39 17.119ZM402.766 9.69V7.99H408.818V9.69H402.766Z" fill="#000F52"/>
<path d="M272.5 77.1621C272.5 94.0068 257.949 107.662 240 107.662C222.051 107.662 207.5 94.0068 207.5 77.1621C207.5 60.3174 222.051 46.6621 240 46.6621C257.949 46.6621 272.5 60.3174 272.5 77.1621Z" fill="url(#paint0_linear_1697_11820)"/>
<g clip-path="url(#clip0_1697_11820)">
<g style="mix-blend-mode:multiply" opacity="0.2">
<path d="M207.83 397.613C207.83 399.608 202.92 401.226 196.865 401.226C190.81 401.226 185.899 399.608 185.899 397.613C185.899 395.618 190.808 394.001 196.865 394.001C202.921 394.001 207.83 395.618 207.83 397.613Z" fill="#242B52"/>
</g>
<g style="mix-blend-mode:multiply" opacity="0.2">
<path d="M201.633 397.249C201.633 398.285 198.765 399.125 195.229 399.125C191.693 399.125 188.825 398.285 188.825 397.249C188.825 396.214 191.693 395.374 195.229 395.374C198.765 395.374 201.633 396.214 201.633 397.249Z" fill="#242B52"/>
</g>
<path d="M198.428 396.74C198.305 397.633 198.278 398.301 196.656 398.375C194.749 398.464 191.204 397.804 191.09 396.74C191.09 396.74 191.274 389.03 193.474 383.707C195.676 378.385 195.485 367.743 195.672 365.722C195.86 363.7 196.775 362.691 196.775 362.691L198.426 364.144C198.426 364.144 198.794 373.612 198.426 377.099C198.058 380.586 197.234 384.113 196.959 387.993C196.73 391.23 198.426 396.74 198.426 396.74H198.428Z" fill="#43596D"/>
<mask id="mask0_1697_11820" style="mask-type:luminance" maskUnits="userSpaceOnUse" x="191" y="362" width="8" height="37">
<path d="M198.428 396.74C198.305 397.633 198.278 398.301 196.656 398.375C194.749 398.464 191.204 397.804 191.09 396.74C191.09 396.74 191.274 389.03 193.474 383.707C195.676 378.385 195.485 367.743 195.672 365.722C195.86 363.7 196.775 362.691 196.775 362.691L198.426 364.144C198.426 364.144 198.794 373.612 198.426 377.099C198.058 380.586 197.234 384.113 196.959 387.993C196.73 391.23 198.426 396.74 198.426 396.74H198.428Z" fill="white"/>
</mask>
<g mask="url(#mask0_1697_11820)">
<g style="mix-blend-mode:multiply" opacity="0.2">
<path d="M196.336 398.801C196.336 398.801 194.19 391.988 195.155 388.96C196.118 385.931 197.632 375.331 197.632 373.541C197.632 371.751 197.907 367.208 197.082 366.52C196.256 365.831 195.432 367.758 195.432 367.758C195.432 367.758 194.194 360.6 194.605 360.6C195.017 360.6 203.549 361.426 203.549 361.426L199.834 393.639L199.973 397.631L196.338 398.799L196.336 398.801Z" fill="#2F1D00"/>
</g>
<g style="mix-blend-mode:multiply" opacity="0.2">
<path d="M191.736 387.79C191.736 387.79 193.652 387.086 193.97 387.534C194.289 387.981 194.035 388.109 194.674 389.131C195.312 390.153 197.484 390.088 197.676 389.961C197.867 389.834 200.103 389.897 199.656 389.195C199.209 388.493 199.847 382.549 198.699 382.422C197.549 382.295 192.568 381.91 192.568 382.103C192.568 382.297 191.738 387.79 191.738 387.79H191.736Z" fill="#2F1D00"/>
</g>
<path opacity="0.13" d="M192.638 398.63C192.638 398.63 192.458 394.902 192.619 393.095C192.78 391.288 193.533 391.098 193.459 389.831C193.385 388.567 192.82 387.34 192.82 387.34C192.82 387.34 192.403 388.811 192.182 389.896C191.962 390.981 191.897 392.824 191.823 393.997C191.749 395.171 191.823 398.063 191.823 398.063L192.638 398.628V398.63Z" fill="#FFDE96"/>
</g>
<path d="M212.011 380.29C213.697 379.038 214.796 377.032 214.796 374.76C214.796 372.284 213.493 370.122 211.542 368.913C211.47 364.217 207.811 360.374 203.185 360.245C202.086 360.213 201.034 360.402 200.056 360.761C199.779 356.257 196.195 352.635 191.706 352.51C186.949 352.377 182.984 356.219 182.848 361.092C182.791 363.087 183.397 364.942 184.445 366.451C184.442 366.461 184.436 366.47 184.432 366.482C180.335 367.064 177.124 370.596 177.001 374.971C176.982 375.637 177.043 376.283 177.16 376.907C176.298 378.248 176.425 380.07 177.585 381.316C178.203 381.981 179.006 382.362 179.833 382.461C180.24 385.863 183.111 388.499 186.598 388.499C189.706 388.499 192.324 386.405 193.146 383.544C194.611 384.027 196.279 383.881 197.71 383.015C199.177 384.391 201.113 385.26 203.263 385.319C204.739 385.36 206.137 385.017 207.369 384.38C207.936 385.065 208.789 385.503 209.746 385.503C211.455 385.503 212.843 384.115 212.843 382.398C212.843 381.581 212.526 380.84 212.009 380.288L212.011 380.29Z" fill="#00C48B"/>
<path opacity="0.3" d="M190.389 355.119C194.357 354.217 195.953 355.006 198.519 356.272C197.01 354.065 194.539 352.59 191.704 352.51C186.947 352.377 182.982 356.219 182.846 361.092C182.789 363.087 183.396 364.942 184.444 366.451C184.44 366.461 184.434 366.47 184.43 366.482C180.333 367.064 177.123 370.596 176.999 374.971C176.988 375.405 177.011 375.832 177.06 376.247C177.809 374.588 181.292 368.429 186.295 369.569C189.345 370.266 189.985 370.156 191.638 369.053C192.244 368.651 191.662 368.418 189.138 367.633C183.661 365.926 182.884 356.824 190.389 355.117V355.119Z" fill="#F1F3BE"/>
<path opacity="0.3" d="M196.413 362.399C195.504 363.65 196.544 363.73 198.974 363.08C200.38 362.704 203.071 362.097 205.484 362.287C206.369 362.357 208.455 362.833 209.052 362.846C207.553 361.293 205.489 360.307 203.185 360.243C202.086 360.211 201.034 360.4 200.056 360.759C200.056 360.759 197.325 361.145 196.415 362.397L196.413 362.399Z" fill="#F1F3BE"/>
<g opacity="0.5">
<path opacity="0.71" d="M214.796 374.76C214.796 372.284 213.493 370.122 211.542 368.912C211.529 368.101 211.404 367.316 211.19 366.57C210.762 367.278 210.087 367.998 209.035 368.317C206.645 369.039 208.126 370.289 208.126 370.289C208.126 370.289 206.67 366.768 201.443 369.919C199.239 371.252 198.426 373.215 195.653 372.56C192.35 371.783 191.837 373.332 191.755 374.874C191.674 376.415 192.284 380.868 186.295 382.499C183.462 383.27 180.566 380.445 180.566 380.445C180.566 380.445 180.155 380.602 178.563 380.644C177.998 380.661 177.511 380.663 177.109 380.663C177.246 380.892 177.396 381.114 177.583 381.317C178.201 381.983 179.005 382.364 179.831 382.463C180.238 385.864 183.109 388.5 186.597 388.5C189.705 388.5 192.322 386.407 193.144 383.545C194.609 384.029 196.277 383.883 197.708 383.016C199.175 384.393 201.112 385.261 203.261 385.32C204.737 385.362 206.136 385.019 207.367 384.382C207.934 385.066 208.787 385.504 209.744 385.504C211.453 385.504 212.841 384.116 212.841 382.4C212.841 381.583 212.524 380.841 212.007 380.289C213.693 379.038 214.793 377.032 214.793 374.76H214.796Z" fill="#005A56"/>
<path opacity="0.71" d="M207.349 375.78C207.349 376.81 206.513 377.646 205.484 377.646C204.455 377.646 203.617 376.81 203.617 375.78C203.617 374.75 204.453 373.912 205.484 373.912C206.515 373.912 207.349 374.748 207.349 375.78Z" fill="#005A56"/>
<path opacity="0.71" d="M203.549 377.646C203.549 378.3 203.02 378.831 202.366 378.831C201.712 378.831 201.182 378.3 201.182 377.646C201.182 376.992 201.71 376.463 202.366 376.463C203.022 376.463 203.549 376.992 203.549 377.646Z" fill="#005A56"/>
<path opacity="0.71" d="M184.844 379.628C184.844 380.282 184.315 380.811 183.659 380.811C183.003 380.811 182.475 380.282 182.475 379.628C182.475 378.973 183.003 378.444 183.659 378.444C184.315 378.444 184.844 378.973 184.844 379.628Z" fill="#005A56"/>
<path opacity="0.71" d="M206.664 372.771C206.664 373.252 206.276 373.641 205.794 373.641C205.313 373.641 204.927 373.251 204.927 372.771C204.927 372.291 205.315 371.902 205.794 371.902C206.274 371.902 206.664 372.293 206.664 372.771Z" fill="#005A56"/>
<path opacity="0.71" d="M186.583 377.536C186.583 378.016 186.193 378.407 185.713 378.407C185.234 378.407 184.844 378.016 184.844 377.536C184.844 377.057 185.232 376.666 185.713 376.666C186.195 376.666 186.583 377.057 186.583 377.536Z" fill="#005A56"/>
</g>
<path d="M210.22 381.63C210.22 382.283 209.691 382.814 209.035 382.814C208.379 382.814 207.851 382.285 207.851 381.63C207.851 380.976 208.381 380.445 209.035 380.445C209.689 380.445 210.22 380.974 210.22 381.63Z" fill="#87AD54"/>
<path d="M211.306 379.723C211.306 380.144 210.966 380.484 210.544 380.484C210.121 380.484 209.784 380.144 209.784 379.723C209.784 379.302 210.125 378.963 210.544 378.963C210.962 378.963 211.306 379.304 211.306 379.723Z" fill="#87AD54"/>
<path opacity="0.3" d="M189.496 359.058C189.496 359.712 188.965 360.243 188.311 360.243C187.658 360.243 187.129 359.712 187.129 359.058C187.129 358.404 187.658 357.875 188.311 357.875C188.965 357.875 189.496 358.404 189.496 359.058Z" fill="#F1F3BE"/>
<path opacity="0.3" d="M186.339 371.903C186.339 372.971 185.473 373.833 184.407 373.833C183.342 373.833 182.476 372.969 182.476 371.903C182.476 370.837 183.341 369.973 184.407 369.973C185.474 369.973 186.339 370.837 186.339 371.903Z" fill="#F1F3BE"/>
<path opacity="0.3" d="M190.135 356.905C190.135 357.212 189.886 357.461 189.579 357.461C189.272 357.461 189.024 357.212 189.024 356.905C189.024 356.598 189.272 356.348 189.579 356.348C189.886 356.348 190.135 356.596 190.135 356.905Z" fill="#F1F3BE"/>
<path opacity="0.3" d="M196.254 364.379C196.254 364.686 196.006 364.934 195.699 364.934C195.392 364.934 195.142 364.686 195.142 364.379C195.142 364.072 195.392 363.819 195.699 363.819C196.006 363.819 196.254 364.07 196.254 364.379Z" fill="#F1F3BE"/>
<path d="M214.692 376.088C213.763 375.722 212.746 375.984 212.073 376.664C210.938 375.149 209.018 374.427 207.195 374.867C207.43 373.888 207.367 372.823 206.941 371.816C205.902 369.371 203.13 368.215 200.744 369.231C198.492 370.189 197.397 372.739 198.153 375.075C197.586 375.088 197.016 375.202 196.463 375.436C194.078 376.45 192.987 379.255 194.025 381.697C194.238 382.197 194.526 382.641 194.867 383.026C194.757 383.86 194.857 384.74 195.212 385.577C196.25 388.019 199.027 389.177 201.411 388.163C202.161 387.844 202.779 387.346 203.247 386.739C203.3 386.764 203.346 386.794 203.399 386.815C204.913 387.408 206.624 386.644 207.225 385.112C207.343 384.812 207.403 384.507 207.422 384.202C208.336 384.407 209.312 384.338 210.229 383.948C210.771 383.718 211.241 383.392 211.639 383.001C211.83 383.28 212.1 383.51 212.433 383.64C213.347 383.999 214.385 383.532 214.751 382.599C215.001 381.96 214.874 381.268 214.478 380.781C215.166 380.559 215.757 380.038 216.045 379.302C216.549 378.02 215.943 376.581 214.692 376.088Z" fill="#00C48B"/>
<path opacity="0.3" d="M203.272 371.381C203.448 371.828 203.228 372.336 202.779 372.513C202.33 372.689 201.822 372.467 201.648 372.02C201.471 371.57 201.691 371.064 202.142 370.886C202.591 370.709 203.097 370.931 203.274 371.381H203.272Z" fill="#F1F3BE"/>
<path opacity="0.3" d="M201.214 371.747C201.297 371.958 201.193 372.197 200.983 372.28C200.77 372.364 200.534 372.259 200.45 372.047C200.367 371.836 200.471 371.598 200.683 371.514C200.894 371.431 201.132 371.535 201.214 371.745V371.747Z" fill="#F1F3BE"/>
<path opacity="0.3" d="M213.519 376.84C213.602 377.053 213.498 377.29 213.288 377.373C213.078 377.456 212.839 377.352 212.755 377.14C212.672 376.929 212.776 376.69 212.987 376.607C213.197 376.523 213.436 376.628 213.519 376.838V376.84Z" fill="#F1F3BE"/>
<g opacity="0.5">
<path opacity="0.71" d="M201.411 388.16C202.161 387.842 202.779 387.343 203.247 386.736C203.3 386.761 203.346 386.791 203.399 386.812C204.913 387.406 206.624 386.641 207.225 385.109C207.343 384.81 207.403 384.504 207.422 384.199C208.336 384.404 209.312 384.336 210.229 383.945C210.771 383.716 211.241 383.389 211.639 382.999C211.83 383.277 212.099 383.507 212.433 383.638C213.346 383.996 214.385 383.53 214.751 382.597C215.001 381.958 214.874 381.266 214.478 380.778C215.166 380.556 215.757 380.035 216.045 379.299C216.477 378.199 216.091 376.984 215.183 376.351C215.17 377.153 215.088 378.163 214.798 378.691C214.271 379.644 212.842 378.529 211.745 378.061C210.644 377.591 210.617 378.594 209.74 379.576C208.864 380.56 207.399 379.988 205.537 380.113C203.674 380.238 201.723 383.71 200.909 384.394C200.096 385.077 199.027 386.482 197.003 386.376C196.358 386.344 195.818 386.156 195.38 385.915C196.523 388.12 199.144 389.125 201.413 388.158L201.411 388.16Z" fill="#005A56"/>
<path opacity="0.71" d="M208.804 378.503C209.007 379.021 208.751 379.603 208.235 379.806C207.718 380.009 207.136 379.754 206.931 379.237C206.729 378.721 206.983 378.137 207.5 377.934C208.015 377.731 208.601 377.985 208.802 378.501L208.804 378.503Z" fill="#005A56"/>
<path opacity="0.71" d="M197.783 381.601C197.954 382.037 197.74 382.526 197.306 382.697C196.87 382.868 196.381 382.655 196.211 382.219C196.04 381.785 196.252 381.294 196.688 381.123C197.122 380.952 197.613 381.167 197.783 381.601Z" fill="#005A56"/>
<path opacity="0.71" d="M209.833 377.777C209.926 378.014 209.808 378.281 209.571 378.374C209.335 378.467 209.067 378.352 208.974 378.114C208.882 377.877 208.997 377.61 209.234 377.517C209.471 377.424 209.738 377.542 209.831 377.779L209.833 377.777Z" fill="#005A56"/>
<path opacity="0.71" d="M195.824 382.29C195.917 382.527 195.799 382.794 195.564 382.887C195.327 382.98 195.06 382.864 194.967 382.627C194.874 382.39 194.992 382.123 195.229 382.03C195.466 381.937 195.733 382.055 195.826 382.29H195.824Z" fill="#005A56"/>
<path opacity="0.71" d="M197.731 380.152C197.825 380.395 197.708 380.668 197.465 380.763C197.223 380.858 196.95 380.74 196.853 380.498C196.758 380.255 196.878 379.982 197.12 379.887C197.363 379.792 197.634 379.912 197.729 380.154L197.731 380.152Z" fill="#005A56"/>
</g>
<path opacity="0.3" d="M200.742 369.229C198.492 370.186 197.395 372.735 198.151 375.073C197.585 375.086 197.014 375.2 196.463 375.433C194.806 376.139 193.775 377.709 193.648 379.421C194.983 377.274 198.081 376.52 199.635 376.269C199.76 376.249 199.859 376.152 199.88 376.025C199.901 375.9 199.838 375.775 199.726 375.716L199.082 375.374C198.881 375.268 198.771 375.046 198.809 374.823C199.025 373.512 200.113 369.295 205.167 369.665C203.89 368.81 202.241 368.59 200.744 369.227L200.742 369.229Z" fill="#F1F3BE"/>
<path opacity="0.3" d="M207.197 374.85C204.889 376.056 203.695 378.069 203.695 378.069C203.695 378.069 206.153 376.183 208.753 375.462C209.12 375.36 209.748 375.272 210.394 375.255C209.418 374.761 208.29 374.603 207.193 374.867C207.193 374.861 207.193 374.857 207.195 374.852L207.197 374.85Z" fill="#F1F3BE"/>
<path d="M204.843 382.852C205.019 383.301 204.799 383.807 204.35 383.984C203.901 384.16 203.395 383.938 203.219 383.489C203.042 383.039 203.264 382.533 203.713 382.357C204.163 382.18 204.669 382.4 204.845 382.85L204.843 382.852Z" fill="#00C48B"/>
<path d="M204.555 381.38C204.638 381.591 204.534 381.83 204.322 381.913C204.111 381.996 203.873 381.892 203.789 381.68C203.706 381.469 203.81 381.23 204.022 381.147C204.233 381.064 204.471 381.168 204.555 381.378V381.38Z" fill="#00C48B"/>
<g style="mix-blend-mode:multiply" opacity="0.2">
<path d="M367.444 383.578C367.444 383.578 366.951 384.81 364.732 386.291C362.513 387.77 364.978 390.73 364.978 390.73L375.824 395.911L383.466 395.418L396.777 399.364L410.581 392.951L416.498 388.512C416.498 388.512 411.815 381.359 411.074 381.113C410.335 380.866 393.572 378.153 392.833 378.153C392.094 378.153 384.205 375.686 384.205 375.686L367.442 383.578H367.444Z" fill="#242B52"/>
</g>
<g style="mix-blend-mode:multiply" opacity="0.2">
<path d="M405.893 385.19C405.893 385.19 406.261 385.789 407.919 386.508C409.577 387.226 407.735 388.664 407.735 388.664L399.629 391.178L393.917 390.939L383.968 392.854L373.651 389.741L369.229 387.585C369.229 387.585 372.73 384.113 373.283 383.993C373.836 383.874 386.363 382.556 386.917 382.556C387.47 382.556 393.364 381.359 393.364 381.359L405.893 385.192V385.19Z" fill="#242B52"/>
</g>
<path d="M391.294 389.57C390.369 390.916 386.056 390.916 384.951 389.57L386.272 381.321H390.627L390.678 384.96L391.294 389.57Z" fill="#43596D"/>
<path d="M389.111 317.081L382.402 325.62L384.142 325.258L383.414 327.383L376.307 334.225L379 335.482L376.668 339.356L372.532 342.818L375.673 346.304L367.385 352.451L372.345 357.033L363.873 363.715L368.554 368.317L361.216 374.923L366.242 378.769L368.831 381.82L382.05 386.538L402.756 384.689L413.788 374.453L407.572 369.182L411.925 367.219L401.924 358.697L406.05 356.485L401.092 347.506L405.832 344.457L398.684 338.357L401.092 335.605L396.29 332.291L399.083 331.113L394.08 325.862L395.602 324.048L389.111 317.081Z" fill="#007874"/>
<path opacity="0.71" d="M382.05 386.538L402.756 384.689L413.788 374.453L407.572 369.182L411.925 367.219L401.924 358.697L406.05 356.485L401.092 347.506L404.507 344.957L398.684 338.357L399.599 336.711L396.29 332.291L399.083 331.113L394.08 325.862L395.602 324.048L389.591 317.83L390.161 323.263L387.116 325.028L391.685 326.805L391.251 332.486L386.318 334.056L391.685 339.159L387.876 346.514L398.505 353.166L396.449 355.246L387.966 357.865L394.052 366.066L400.391 370.278L385.747 379.509L368.56 381.744L368.831 381.82L382.05 386.538Z" fill="#005A56"/>
<path opacity="0.3" d="M372.345 357.033L363.873 363.715L387.966 357.865L377.496 356.921L372.345 357.033Z" fill="#F1F3BE"/>
<path opacity="0.3" d="M375.673 346.304L367.385 352.451L372.345 357.033L380.189 345.953L375.673 346.304Z" fill="#F1F3BE"/>
<path opacity="0.3" d="M372.532 342.818L373.98 343.766L384.574 336.71L378.684 336.464L376.667 339.356L372.532 342.818Z" fill="#F1F3BE"/>
<path opacity="0.3" d="M368.554 368.317L361.216 374.923L381.476 367.807L368.554 368.317Z" fill="#F1F3BE"/>
<path opacity="0.3" d="M383.579 326.903L383.414 327.383L376.307 334.225L377.492 334.234L386.642 326.903H383.579Z" fill="#F1F3BE"/>
<path opacity="0.3" d="M383.507 325.39L387.186 322.457L389.111 317.081L382.402 325.62L383.507 325.39Z" fill="#F1F3BE"/>
<path opacity="0.3" d="M379 344.682L381.375 342.849V344.432L379 344.682Z" fill="#F1F3BE"/>
<path opacity="0.3" d="M391.391 343.766L393.766 341.933V343.518L391.391 343.766Z" fill="#F1F3BE"/>
<path opacity="0.3" d="M385.055 331.919V333.576L386.291 332.748L385.055 331.919Z" fill="#F1F3BE"/>
<path opacity="0.3" d="M377.496 353.166H380.189V351.052L377.496 353.166Z" fill="#F1F3BE"/>
<path opacity="0.3" d="M390.699 324.878H393.394V322.764L390.699 324.878Z" fill="#F1F3BE"/>
<path opacity="0.3" d="M397.448 349.765H400.139V347.652L397.448 349.765Z" fill="#F1F3BE"/>
<path opacity="0.3" d="M377.651 366.155L375.002 363.842L373.715 365.543L377.651 366.155Z" fill="#F1F3BE"/>
<path opacity="0.3" d="M379.309 371.07L377.858 373.384H375.682L379.309 371.07Z" fill="#F1F3BE"/>
<path opacity="0.3" d="M383.725 333.624L382.309 334.843L381.076 333.624H383.725Z" fill="#F1F3BE"/>
<path opacity="0.3" d="M384.779 354.855L387.148 354.247L384.201 353.025L384.779 354.855Z" fill="#F1F3BE"/>
<g opacity="0.82">
<path opacity="0.71" d="M407.936 367.041H405.324L407.936 368.641V367.041Z" fill="#005A56"/>
<path opacity="0.71" d="M394.658 359.357H392.047L394.658 360.962V359.357Z" fill="#005A56"/>
<path opacity="0.71" d="M400.099 373.738H397.49L400.099 375.342V373.738Z" fill="#005A56"/>
<path opacity="0.71" d="M400.391 355.002L397.198 355.808L400.391 357.071V355.002Z" fill="#005A56"/>
<path opacity="0.71" d="M391.103 346.515L394.052 347.326L391.685 348.709L391.103 346.515Z" fill="#005A56"/>
<path opacity="0.71" d="M393.353 327.706L396.301 328.518L393.934 329.904L393.353 327.706Z" fill="#005A56"/>
<path opacity="0.71" d="M396.377 340.117H394.827L396.377 341.602V340.117Z" fill="#005A56"/>
</g>
<g style="mix-blend-mode:multiply" opacity="0.15">
<path d="M299.262 427.421H360.655L449 403.737L390.851 388.163H299.262V427.421Z" fill="#242B52"/>
</g>
<path d="M377.683 406.364L299.262 427.388V358.434L377.683 337.408V406.364Z" fill="#B4BDC5"/>
<path d="M220.84 406.364L299.262 427.388V358.434L220.84 337.408V406.364Z" fill="#E6E7E8"/>
<path d="M270.48 418.473L249.622 412.881V363.177L270.48 368.769V418.473Z" fill="#566575"/>
<path d="M249.622 363.177V412.881L252.055 412.228V363.829L249.622 363.177Z" fill="#B4BDC5"/>
<path d="M270.48 418.473L249.622 412.881L252.055 412.229L270.48 417.168V418.473Z" fill="#E6E7E8"/>
<path d="M268.746 414.93L253.842 410.933V365.319L268.746 369.317V414.93Z" fill="#00123E"/>
<path d="M291.338 424.165L270.48 418.573V368.871L291.338 374.463V424.165Z" fill="#566575"/>
<path d="M270.48 368.871V418.573L272.913 417.921V369.521L270.48 368.871Z" fill="#B4BDC5"/>
<path d="M291.338 424.165L270.48 418.573L272.913 417.921L291.338 422.861V424.165Z" fill="#E6E7E8"/>
<path d="M289.604 420.623L274.7 416.627V371.014L289.604 375.009V420.623Z" fill="#303A66"/>
<path d="M249.622 412.933L228.764 407.341V357.638L249.622 363.23V412.933Z" fill="#566575"/>
<path d="M228.764 357.638V407.341L231.197 406.689V358.29L228.764 357.638Z" fill="#B4BDC5"/>
<path d="M249.622 412.934L228.764 407.342L231.197 406.689L249.622 411.629V412.934Z" fill="#E6E7E8"/>
<path d="M247.89 409.391L232.984 405.394V359.782L247.89 363.778V409.391Z" fill="#242B52"/>
<path opacity="0.2" d="M291.338 374.463L228.764 357.638V407.341L291.338 374.463Z" fill="white"/>
<path d="M377.683 406.365L299.262 427.388V424.282L377.683 403.257V406.365Z" fill="#9FA8B6"/>
<path d="M220.84 406.365L299.262 427.388V424.282L220.84 403.257V406.365Z" fill="#B4BDC5"/>
<path d="M342.892 412.543L367.323 405.994V356.508L342.892 363.057V412.543Z" fill="#566575"/>
<path d="M367.323 356.508V405.994L364.474 405.229V357.27L367.323 356.508Z" fill="#7D8191"/>
<path d="M342.892 412.543L367.323 405.994L364.474 405.229L342.892 411.015V412.543Z" fill="#E6E7E8"/>
<path d="M344.922 408.394L362.378 403.713V359.019L344.922 363.698V408.394Z" fill="#00123E"/>
<path d="M345.75 405.637L358.783 402.142V369.453L345.75 372.948V405.637Z" fill="#242B52"/>
<path d="M345.305 393.484L361.995 389.009V387.422L345.305 391.897V393.484Z" fill="#00123E"/>
<path d="M345.305 380.19L361.995 375.715V374.128L345.305 378.603V380.19Z" fill="#00123E"/>
<path d="M347.044 388.736C347.044 389.43 347.505 389.868 348.072 389.716C348.638 389.565 349.099 388.878 349.099 388.186C349.099 387.494 348.638 387.054 348.072 387.206C347.505 387.357 347.044 388.044 347.044 388.736Z" fill="#9FA8B6"/>
<g style="mix-blend-mode:multiply" opacity="0.15">
<path d="M307.485 429.032L275.387 420.435L252.129 426.664V439.93H266.834L307.485 429.032Z" fill="#242B52"/>
</g>
<path d="M299.355 424.443L252.129 437.104V440L299.355 427.339V424.443Z" fill="#9FA8B6"/>
<path d="M175 419.321L252.129 440V437.104L175 416.426V419.321Z" fill="#E6E7E8"/>
<path d="M299.355 424.443L222.225 403.765L175 416.426L252.129 437.104L299.355 424.443Z" fill="#001230"/>
<path d="M195.989 420.902L200.374 422.078L245.706 409.923L241.321 408.747L195.989 420.902Z" fill="#C09E72"/>
<path d="M189.458 419.149L193.843 420.325L239.174 408.172L234.788 406.996L189.458 419.149Z" fill="#D4B98B"/>
<path d="M182.926 417.399L187.311 418.575L232.643 406.42L228.256 405.244L182.926 417.399Z" fill="#AA8D66"/>
<path d="M176.395 415.647L180.78 416.823L226.11 404.67L221.725 403.494L176.395 415.647Z" fill="#C09E72"/>
<path d="M206.907 423.828L202.521 422.652L247.852 410.499L252.237 411.675L206.907 423.828Z" fill="#C09E72"/>
<path d="M213.44 425.579L209.052 424.404L254.384 412.249L258.77 413.427L213.44 425.579Z" fill="#D4B98B"/>
<path d="M219.97 427.33L215.585 426.154L260.915 414.001L265.3 415.177L219.97 427.33Z" fill="#AA8D66"/>
<path d="M226.503 429.081L222.117 427.906L267.448 415.751L271.833 416.929L226.503 429.081Z" fill="#C09E72"/>
<path d="M248.244 434.911L252.629 436.086L297.96 423.933L293.574 422.756L248.244 434.911Z" fill="#C09E72"/>
<path d="M241.711 433.159L246.099 434.334L291.429 422.182L287.044 421.006L241.711 433.159Z" fill="#D4B98B"/>
<path d="M235.181 431.409L239.566 432.584L284.896 420.431L280.511 419.254L235.181 431.409Z" fill="#AA8D66"/>
<path d="M228.648 429.657L233.033 430.832L278.366 418.68L273.978 417.504L228.648 429.657Z" fill="#C09E72"/>
<g style="mix-blend-mode:multiply" opacity="0.1">
<path d="M220.84 363.637L299.262 384.662V358.434L220.84 337.408V363.637Z" fill="#242B52"/>
</g>
<path opacity="0.7" d="M217.939 302.188L185.96 310.763V335.568L217.939 326.995V302.188Z" fill="#566575"/>
<path d="M387.085 337.927L275.589 367.819V360.92L387.085 331.028V337.927Z" fill="#9FA8B6"/>
<path d="M387.085 331.028L297.458 306.999L185.96 336.891L275.589 360.92L387.085 331.028Z" fill="#F0F1F2"/>
<path d="M185.96 336.891V343.789L275.587 367.818V360.92L185.96 336.891Z" fill="#DCDDDF"/>
<path d="M377.683 330.739L299.262 351.763V282.809L377.683 261.783V330.739Z" fill="#B4BDC5"/>
<path d="M220.84 330.739L299.262 351.763V282.809L220.84 261.783V330.739Z" fill="#E6E7E8"/>
<path d="M270.48 342.848L249.622 337.256V287.552L270.48 293.144V342.848Z" fill="#566575"/>
<path d="M249.622 287.552V337.256L252.055 336.603V288.204L249.622 287.552Z" fill="#B4BDC5"/>
<path d="M270.48 342.848L249.622 337.256L252.055 336.604L270.48 341.543V342.848Z" fill="#E6E7E8"/>
<path d="M268.746 339.305L253.842 335.308V289.694L268.746 293.692V339.305Z" fill="#242B52"/>
<path d="M291.338 348.54L270.48 342.948V293.244L291.338 298.838V348.54Z" fill="#566575"/>
<path d="M270.48 293.244V342.948L272.913 342.296V293.896L270.48 293.244Z" fill="#B4BDC5"/>
<path d="M291.338 348.54L270.48 342.948L272.913 342.296L291.338 347.236V348.54Z" fill="#E6E7E8"/>
<path d="M289.604 344.998L274.7 341.002V295.389L289.604 299.384V344.998Z" fill="#00123E"/>
<path d="M249.622 337.308L228.764 331.716V282.013L249.622 287.605V337.308Z" fill="#566575"/>
<path d="M228.764 282.013V331.716L231.197 331.064V282.665L228.764 282.013Z" fill="#B4BDC5"/>
<path d="M249.622 337.309L228.764 331.717L231.197 331.064L249.622 336.004V337.309Z" fill="#E6E7E8"/>
<path d="M247.89 333.766L232.984 329.769V284.157L247.89 288.153V333.766Z" fill="#303A66"/>
<path d="M342.892 324.168L366.995 317.707V282.013L342.892 288.475V324.168Z" fill="#566575"/>
<path d="M366.995 282.013V317.707L364.182 316.953V282.765L366.995 282.013Z" fill="#7D8191"/>
<path d="M342.892 324.167L366.995 317.707L364.182 316.952L342.892 322.662V324.167Z" fill="#E6E7E8"/>
<path d="M344.895 320.076L362.117 315.458V284.489L344.895 289.107V320.076Z" fill="#00123E"/>
<path opacity="0.7" d="M307.566 326.242L275.589 334.815V359.62L307.566 351.047V326.242Z" fill="#566575"/>
<path d="M377.693 261.783L299.262 240.756L220.831 261.783L299.262 282.81L377.693 261.783Z" fill="#404079"/>
<path d="M364.872 261.784L299.262 244.194L233.651 261.784L299.262 279.373L364.872 261.784Z" fill="#303A66"/>
<path d="M299.262 244.194L233.651 261.784L237.783 262.891L299.262 246.409V244.194Z" fill="#001230"/>
<path d="M299.262 244.194L364.872 261.784L360.741 262.891L299.262 246.409V244.194Z" fill="#242B52"/>
<g style="mix-blend-mode:multiply" opacity="0.15">
<path d="M344.637 258.196L338.285 259.899V265.497H343.235L357.553 261.659L344.637 258.196Z" fill="#242B52"/>
</g>
<path d="M338.285 265.436L328.231 262.739V244.283L338.285 246.98V265.436Z" fill="#D0D2D3"/>
<path d="M338.285 265.436L348.34 262.739V244.283L338.285 246.98V265.436Z" fill="#B4BDC5"/>
<path d="M338.285 246.98L328.231 244.283L338.285 241.587L348.34 244.283L338.285 246.98Z" fill="#E9E9EA"/>
<path d="M338.285 246.98L328.231 244.283L338.285 241.587L348.34 244.283L338.285 246.98Z" fill="#E9E9EA"/>
<path d="M338.285 265.436L328.231 262.739V244.283L338.285 246.98V265.436Z" fill="#D0D2D3"/>
<path d="M338.285 265.436L348.34 262.739V244.283L338.285 246.98V265.436Z" fill="#B4BDC5"/>
<path d="M338.285 246.98L328.231 244.283L338.285 241.587L348.34 244.283L338.285 246.98Z" fill="#E9E9EA"/>
<path d="M338.285 246.98L328.231 244.283L338.285 241.587L348.34 244.283L338.285 246.98Z" fill="#E9E9EA"/>
<path d="M338.285 246.094L331.527 244.283L338.285 242.471L345.043 244.283L338.285 246.094Z" fill="#B4BDC5"/>
<path d="M338.285 246.094V242.471L345.043 244.283L338.285 246.094Z" fill="#D0D2D3"/>
<g style="mix-blend-mode:multiply" opacity="0.15">
<path d="M257.295 264.573L297.943 275.47L318.266 270.023L277.619 259.125L257.295 264.573Z" fill="#242B52"/>
</g>
<path d="M313.578 248.639L264.353 235.462L248.737 262.293L297.96 275.47L313.578 248.639Z" fill="#242B52"/>
<path d="M312.986 247.177L263.764 234L248.146 260.832L297.37 274.008L312.986 247.177Z" fill="#E3E3E7"/>
<g style="mix-blend-mode:multiply" opacity="0.15">
<path d="M264.038 264.317L249.531 260.428L264.436 235.265L278.944 239.154L264.038 264.317ZM294.78 243.384L280.272 239.495L265.367 264.658L279.874 268.547L294.78 243.384ZM310.615 247.615L296.108 243.726L281.203 268.888L295.71 272.778L310.615 247.615Z" fill="#242B52"/>
</g>
<path d="M264.124 234.639L249.218 259.802L263.726 263.691L278.631 238.528L264.124 234.639Z" fill="#EBEBEB"/>
<path d="M251.813 256.814L250.488 259.051L250.642 259.438L253.113 260.1L253.619 259.889L254.944 257.652L254.79 257.265L252.319 256.603L251.813 256.814ZM253.594 253.808L252.269 256.046L252.423 256.432L254.894 257.094L255.4 256.884L256.725 254.646L256.571 254.259L254.1 253.598L253.594 253.808ZM255.374 250.803L254.049 253.04L254.203 253.427L256.674 254.089L257.18 253.878L258.505 251.641L258.351 251.254L255.88 250.592L255.374 250.803ZM257.155 247.797L255.83 250.035L255.984 250.421L258.455 251.083L258.961 250.873L260.286 248.635L260.132 248.248L257.661 247.587L257.155 247.797ZM258.937 244.791L257.612 247.029L257.765 247.416L260.237 248.078L260.743 247.867L262.067 245.63L261.914 245.243L259.443 244.581L258.937 244.791ZM260.716 241.786L259.391 244.024L259.545 244.41L262.016 245.072L262.522 244.862L263.847 242.624L263.693 242.237L261.222 241.575L260.716 241.786ZM262.498 238.78L261.173 241.018L261.326 241.405L263.798 242.067L264.304 241.856L265.628 239.619L265.475 239.232L263.004 238.57L262.498 238.78ZM264.279 235.775L262.954 238.012L263.108 238.399L265.579 239.061L266.085 238.851L267.41 236.613L267.256 236.226L264.785 235.564L264.279 235.775ZM255.135 257.707L253.81 259.944L253.964 260.331L256.435 260.993L256.941 260.782L258.266 258.545L258.112 258.158L255.641 257.496L255.135 257.707ZM256.916 254.701L255.592 256.939L255.745 257.326L258.216 257.987L258.722 257.777L260.047 255.539L259.894 255.152L257.422 254.491L256.916 254.701ZM258.698 251.696L257.373 253.933L257.527 254.32L259.998 254.982L260.504 254.771L261.829 252.534L261.675 252.147L259.204 251.485L258.698 251.696ZM260.479 248.69L259.155 250.928L259.308 251.314L261.779 251.976L262.285 251.766L263.61 249.528L263.457 249.141L260.985 248.48L260.479 248.69ZM262.261 245.685L260.936 247.922L261.09 248.309L263.561 248.971L264.067 248.76L265.392 246.523L265.238 246.136L262.767 245.474L262.261 245.685ZM264.04 242.679L262.716 244.917L262.869 245.303L265.34 245.965L265.846 245.755L267.171 243.517L267.018 243.13L264.546 242.469L264.04 242.679ZM265.822 239.674L264.497 241.911L264.651 242.298L267.122 242.96L267.628 242.749L268.953 240.512L268.799 240.125L266.328 239.463L265.822 239.674ZM267.603 236.668L266.278 238.906L266.432 239.292L268.903 239.954L269.409 239.744L270.734 237.506L270.58 237.119L268.109 236.458L267.603 236.668ZM258.459 258.6L257.134 260.837L257.288 261.224L259.759 261.886L260.265 261.675L261.59 259.438L261.436 259.051L258.965 258.389L258.459 258.6ZM260.241 255.594L258.916 257.832L259.069 258.219L261.541 258.88L262.047 258.67L263.371 256.432L263.218 256.046L260.747 255.384L260.241 255.594ZM262.022 252.589L260.697 254.826L260.851 255.213L263.322 255.875L263.828 255.664L265.153 253.427L264.999 253.04L262.528 252.378L262.022 252.589ZM263.803 249.583L262.479 251.821L262.632 252.208L265.103 252.869L265.609 252.659L266.934 250.421L266.781 250.035L264.309 249.373L263.803 249.583ZM265.583 246.578L264.258 248.815L264.412 249.202L266.883 249.864L267.389 249.653L268.714 247.416L268.56 247.029L266.089 246.367L265.583 246.578ZM267.364 243.572L266.04 245.81L266.193 246.197L268.664 246.858L269.17 246.648L270.495 244.41L270.342 244.024L267.87 243.362L267.364 243.572ZM269.144 240.567L267.819 242.804L267.973 243.191L270.444 243.853L270.95 243.642L272.275 241.405L272.121 241.018L269.65 240.356L269.144 240.567ZM270.925 237.561L269.601 239.799L269.754 240.186L272.225 240.847L272.732 240.637L274.056 238.399L273.903 238.012L271.431 237.351L270.925 237.561ZM261.781 259.493L260.457 261.73L260.61 262.117L263.081 262.779L263.587 262.569L264.912 260.331L264.759 259.944L262.287 259.282L261.781 259.493ZM263.561 256.487L262.236 258.725L262.39 259.112L264.861 259.774L265.367 259.563L266.692 257.326L266.538 256.939L264.067 256.277L263.561 256.487ZM265.342 253.482L264.018 255.719L264.171 256.106L266.642 256.768L267.148 256.558L268.473 254.32L268.32 253.933L265.848 253.271L265.342 253.482ZM267.122 250.476L265.797 252.714L265.951 253.101L268.422 253.763L268.928 253.552L270.253 251.314L270.099 250.928L267.628 250.266L267.122 250.476ZM268.903 247.471L267.579 249.708L267.732 250.095L270.203 250.757L270.709 250.547L272.034 248.309L271.881 247.922L269.409 247.26L268.903 247.471ZM270.683 244.465L269.358 246.703L269.512 247.09L271.983 247.751L272.489 247.541L273.814 245.303L273.66 244.917L271.189 244.255L270.683 244.465ZM272.464 241.46L271.14 243.697L271.293 244.084L273.764 244.746L274.27 244.535L275.595 242.298L275.442 241.911L272.97 241.249L272.464 241.46ZM274.246 238.454L272.921 240.692L273.075 241.079L275.546 241.74L276.052 241.53L277.377 239.292L277.223 238.906L274.752 238.244L274.246 238.454Z" fill="#1C75BC"/>
<path d="M279.96 238.869L265.054 264.034L279.562 267.923L294.467 242.76L279.96 238.869Z" fill="#EBEBEB"/>
<path d="M267.649 261.044L266.324 263.282L266.477 263.668L268.949 264.33L269.455 264.12L270.779 261.882L270.626 261.495L268.155 260.834L267.649 261.044ZM269.43 258.038L268.105 260.276L268.259 260.663L270.73 261.325L271.236 261.114L272.561 258.877L272.407 258.49L269.936 257.828L269.43 258.038ZM271.212 255.033L269.887 257.271L270.04 257.657L272.512 258.319L273.018 258.109L274.342 255.871L274.189 255.484L271.718 254.822L271.212 255.033ZM272.993 252.027L271.668 254.265L271.822 254.652L274.293 255.314L274.799 255.103L276.124 252.866L275.97 252.479L273.499 251.817L272.993 252.027ZM274.773 249.022L273.448 251.259L273.601 251.646L276.073 252.308L276.579 252.098L277.903 249.86L277.75 249.473L275.279 248.811L274.773 249.022ZM276.554 246.016L275.229 248.254L275.383 248.641L277.854 249.303L278.36 249.092L279.685 246.855L279.531 246.468L277.06 245.806L276.554 246.016ZM278.335 243.011L277.011 245.248L277.164 245.635L279.636 246.297L280.142 246.087L281.466 243.849L281.313 243.462L278.841 242.8L278.335 243.011ZM280.117 240.005L278.792 242.243L278.946 242.63L281.417 243.292L281.923 243.081L283.248 240.844L283.094 240.457L280.623 239.795L280.117 240.005ZM270.973 261.937L269.648 264.175L269.802 264.561L272.273 265.223L272.779 265.013L274.104 262.775L273.95 262.388L271.479 261.727L270.973 261.937ZM272.754 258.932L271.43 261.169L271.583 261.556L274.054 262.218L274.56 262.007L275.885 259.77L275.732 259.383L273.26 258.721L272.754 258.932ZM274.536 255.926L273.211 258.164L273.364 258.55L275.836 259.212L276.342 259.002L277.666 256.764L277.513 256.377L275.042 255.716L274.536 255.926ZM276.317 252.921L274.992 255.158L275.146 255.545L277.617 256.207L278.123 255.996L279.448 253.759L279.294 253.372L276.823 252.71L276.317 252.921ZM278.099 249.915L276.774 252.153L276.927 252.539L279.399 253.201L279.905 252.991L281.229 250.753L281.076 250.366L278.605 249.705L278.099 249.915ZM279.878 246.91L278.553 249.147L278.707 249.534L281.178 250.196L281.684 249.985L283.009 247.748L282.855 247.361L280.384 246.699L279.878 246.91ZM281.658 243.904L280.333 246.142L280.486 246.528L282.958 247.19L283.464 246.98L284.788 244.742L284.635 244.355L282.164 243.694L281.658 243.904ZM283.439 240.899L282.114 243.136L282.268 243.523L284.739 244.185L285.245 243.974L286.57 241.737L286.416 241.35L283.945 240.688L283.439 240.899ZM274.295 262.83L272.97 265.068L273.124 265.455L275.595 266.116L276.101 265.906L277.426 263.668L277.272 263.282L274.801 262.62L274.295 262.83ZM276.076 259.825L274.752 262.062L274.905 262.449L277.377 263.111L277.883 262.9L279.207 260.663L279.054 260.276L276.582 259.614L276.076 259.825ZM277.858 256.819L276.533 259.057L276.687 259.444L279.158 260.105L279.664 259.895L280.989 257.657L280.835 257.271L278.364 256.609L277.858 256.819ZM279.637 253.814L278.313 256.051L278.466 256.438L280.938 257.1L281.444 256.889L282.768 254.652L282.615 254.265L280.143 253.603L279.637 253.814ZM281.419 250.808L280.094 253.046L280.248 253.433L282.719 254.094L283.225 253.884L284.55 251.646L284.396 251.259L281.925 250.598L281.419 250.808ZM283.198 247.803L281.874 250.04L282.027 250.427L284.499 251.089L285.005 250.878L286.329 248.641L286.176 248.254L283.704 247.592L283.198 247.803ZM284.98 244.797L283.655 247.035L283.809 247.422L286.28 248.083L286.786 247.873L288.111 245.635L287.957 245.248L285.486 244.587L284.98 244.797ZM286.759 241.792L285.435 244.029L285.588 244.416L288.06 245.078L288.566 244.867L289.89 242.63L289.737 242.243L287.265 241.581L286.759 241.792ZM277.615 263.723L276.291 265.961L276.444 266.348L278.915 267.01L279.421 266.799L280.746 264.561L280.593 264.175L278.121 263.513L277.615 263.723ZM279.397 260.718L278.072 262.955L278.226 263.342L280.697 264.004L281.203 263.794L282.528 261.556L282.374 261.169L279.903 260.507L279.397 260.718ZM281.176 257.712L279.852 259.95L280.005 260.337L282.476 260.998L282.982 260.788L284.307 258.55L284.154 258.164L281.682 257.502L281.176 257.712ZM282.958 254.707L281.633 256.944L281.787 257.331L284.258 257.993L284.764 257.782L286.089 255.545L285.935 255.158L283.464 254.496L282.958 254.707ZM284.737 251.701L283.413 253.939L283.566 254.326L286.037 254.987L286.543 254.777L287.868 252.539L287.715 252.153L285.243 251.491L284.737 251.701ZM286.519 248.696L285.194 250.933L285.348 251.32L287.819 251.982L288.325 251.771L289.65 249.534L289.496 249.147L287.025 248.485L286.519 248.696ZM288.3 245.69L286.976 247.928L287.129 248.315L289.6 248.976L290.106 248.766L291.431 246.528L291.278 246.142L288.806 245.48L288.3 245.69ZM290.08 242.685L288.755 244.922L288.909 245.309L291.38 245.971L291.886 245.76L293.211 243.523L293.057 243.136L290.586 242.474L290.08 242.685Z" fill="#1C75BC"/>
<path d="M295.796 243.102L280.89 268.264L295.398 272.154L310.303 246.991L295.796 243.102Z" fill="#EBEBEB"/>
<path d="M283.485 265.276L282.16 267.514L282.313 267.901L284.785 268.563L285.291 268.352L286.615 266.115L286.462 265.728L283.991 265.066L283.485 265.276ZM285.264 262.271L283.939 264.508L284.093 264.895L286.564 265.557L287.07 265.347L288.395 263.109L288.241 262.722L285.77 262.06L285.264 262.271ZM287.046 259.265L285.721 261.503L285.874 261.89L288.346 262.552L288.852 262.341L290.176 260.104L290.023 259.717L287.552 259.055L287.046 259.265ZM288.825 256.26L287.5 258.497L287.654 258.884L290.125 259.546L290.631 259.336L291.956 257.098L291.802 256.711L289.331 256.049L288.825 256.26ZM290.607 253.254L289.282 255.492L289.435 255.879L291.907 256.541L292.413 256.33L293.737 254.092L293.584 253.706L291.113 253.044L290.607 253.254ZM292.388 250.249L291.063 252.486L291.217 252.873L293.688 253.535L294.194 253.325L295.519 251.087L295.365 250.7L292.894 250.038L292.388 250.249ZM294.17 247.243L292.845 249.481L292.998 249.868L295.47 250.529L295.976 250.319L297.3 248.081L297.147 247.695L294.676 247.033L294.17 247.243ZM295.951 244.238L294.626 246.475L294.78 246.862L297.251 247.524L297.757 247.313L299.082 245.076L298.928 244.689L296.457 244.027L295.951 244.238ZM286.807 266.17L285.482 268.407L285.636 268.794L288.107 269.456L288.613 269.245L289.938 267.008L289.784 266.621L287.313 265.959L286.807 266.17ZM288.588 263.164L287.264 265.402L287.417 265.788L289.888 266.45L290.394 266.24L291.719 264.002L291.566 263.615L289.094 262.954L288.588 263.164ZM290.37 260.159L289.045 262.396L289.199 262.783L291.67 263.445L292.176 263.234L293.501 260.997L293.347 260.61L290.876 259.948L290.37 260.159ZM292.151 257.153L290.826 259.391L290.98 259.777L293.451 260.439L293.957 260.229L295.282 257.991L295.128 257.604L292.657 256.943L292.151 257.153ZM293.931 254.147L292.606 256.385L292.76 256.772L295.231 257.434L295.737 257.223L297.062 254.986L296.908 254.599L294.437 253.937L293.931 254.147ZM295.712 251.142L294.387 253.38L294.541 253.766L297.012 254.428L297.518 254.218L298.843 251.98L298.689 251.593L296.218 250.931L295.712 251.142ZM297.494 248.136L296.169 250.374L296.322 250.761L298.794 251.423L299.3 251.212L300.624 248.975L300.471 248.588L298 247.926L297.494 248.136ZM299.275 245.131L297.95 247.368L298.104 247.755L300.575 248.417L301.081 248.207L302.406 245.969L302.252 245.582L299.781 244.92L299.275 245.131ZM290.131 267.063L288.806 269.3L288.96 269.687L291.431 270.349L291.937 270.138L293.262 267.901L293.108 267.514L290.637 266.852L290.131 267.063ZM291.912 264.057L290.588 266.295L290.741 266.682L293.212 267.343L293.718 267.133L295.043 264.895L294.89 264.508L292.418 263.847L291.912 264.057ZM293.694 261.052L292.369 263.289L292.523 263.676L294.994 264.338L295.5 264.127L296.825 261.89L296.671 261.503L294.2 260.841L293.694 261.052ZM295.475 258.046L294.151 260.284L294.304 260.67L296.775 261.332L297.281 261.122L298.606 258.884L298.453 258.497L295.981 257.836L295.475 258.046ZM297.257 255.041L295.932 257.278L296.086 257.665L298.557 258.327L299.063 258.116L300.388 255.879L300.234 255.492L297.763 254.83L297.257 255.041ZM299.036 252.035L297.712 254.273L297.865 254.659L300.336 255.321L300.842 255.111L302.167 252.873L302.014 252.486L299.542 251.825L299.036 252.035ZM300.816 249.03L299.491 251.267L299.645 251.654L302.116 252.316L302.622 252.105L303.947 249.868L303.793 249.481L301.322 248.819L300.816 249.03ZM302.597 246.024L301.273 248.262L301.426 248.648L303.897 249.31L304.403 249.1L305.728 246.862L305.575 246.475L303.103 245.814L302.597 246.024ZM293.453 267.956L292.128 270.193L292.282 270.58L294.753 271.242L295.259 271.031L296.584 268.794L296.43 268.407L293.959 267.745L293.453 267.956ZM295.235 264.95L293.91 267.188L294.063 267.575L296.535 268.236L297.041 268.026L298.365 265.788L298.212 265.402L295.741 264.74L295.235 264.95ZM297.014 261.945L295.689 264.182L295.843 264.569L298.314 265.231L298.82 265.02L300.145 262.783L299.991 262.396L297.52 261.734L297.014 261.945ZM298.796 258.939L297.471 261.177L297.624 261.564L300.096 262.225L300.602 262.015L301.926 259.777L301.773 259.391L299.302 258.729L298.796 258.939ZM300.575 255.934L299.25 258.171L299.404 258.558L301.875 259.22L302.381 259.009L303.706 256.772L303.552 256.385L301.081 255.723L300.575 255.934ZM302.357 252.928L301.032 255.166L301.185 255.553L303.657 256.214L304.163 256.004L305.487 253.766L305.334 253.38L302.863 252.718L302.357 252.928ZM304.136 249.923L302.811 252.16L302.965 252.547L305.436 253.209L305.942 252.998L307.267 250.761L307.113 250.374L304.642 249.712L304.136 249.923ZM305.918 246.917L304.593 249.155L304.746 249.542L307.218 250.203L307.724 249.993L309.048 247.755L308.895 247.368L306.424 246.707L305.918 246.917Z" fill="#1C75BC"/>
<path opacity="0.2" d="M312.986 247.177L248.146 260.832L263.764 234L312.986 247.177Z" fill="white"/>
<path opacity="0.2" d="M220.84 330.739L299.262 282.809L220.84 261.783V330.739Z" fill="white"/>
<path opacity="0.7" d="M185.96 335.591L275.587 359.62V334.815L185.96 310.786V335.591Z" fill="#7D8191"/>
<g style="mix-blend-mode:multiply" opacity="0.1">
<path d="M377.683 406.365L299.262 427.388L377.683 261.783V406.365Z" fill="#242B52"/>
</g>
<g style="mix-blend-mode:multiply" opacity="0.1">
<path d="M370.106 413.027C370.106 416.165 379.872 418.708 391.92 418.708C403.967 418.708 413.733 416.165 413.733 413.027C413.733 409.889 403.967 407.346 391.92 407.346C379.872 407.346 370.106 409.889 370.106 413.027Z" fill="#242B52"/>
</g>
<g style="mix-blend-mode:multiply" opacity="0.2">
<path d="M379.74 413.325C379.74 415.416 387.064 417.112 396.1 417.112C405.137 417.112 412.461 415.416 412.461 413.325C412.461 411.233 405.137 409.538 396.1 409.538C387.064 409.538 379.74 411.233 379.74 413.325Z" fill="#242B52"/>
</g>
<path d="M390.876 408.32C391.366 408.038 390.324 404.985 390.254 402.692C390.254 402.692 392.668 406.946 391.916 409.113C393.008 409.906 394.984 411.091 396.281 411.701C396.557 408.193 396.779 405.768 396.957 404.097C397.001 403.676 392.854 396.262 393.066 396.531C394.774 398.684 395.557 399.072 396.995 401.619C397.456 402.433 398.551 395.107 398.551 395.107C399.138 395.578 398.469 400.584 398.693 401.697C398.831 402.404 398.902 403.257 398.964 404.164C399.03 405.186 399.18 407.617 399.305 408.643C400.395 408.389 402.495 405.946 405.12 401.183C405.12 401.183 403.099 409.333 399.618 410.344C399.648 410.736 399.669 411.083 399.682 411.407C403.922 409.885 411.499 407.66 414.582 405.108C414.582 405.108 413.132 408.792 400.406 412.219L399.87 412.782C399.87 412.782 399.86 413.637 398.848 413.689C398.096 413.726 397.188 413.573 396.781 414.187C396.373 414.802 395.937 414.034 394.662 413.243C394.253 412.989 393.54 412.221 393.54 412.221C388.605 408.466 383.23 402.503 383.23 402.503C384.487 403.889 389.814 407.257 390.877 408.322L390.876 408.32Z" fill="#43596D"/>
<path d="M376.302 398.488C377.816 397.079 379.978 396.812 381.788 397.614C382.831 393.831 385.988 390.983 389.837 390.45C388.643 388.742 387.957 386.641 388.02 384.375C388.171 378.876 392.646 374.541 398.013 374.694C403.078 374.835 407.123 378.921 407.432 384.003C408.535 383.599 409.721 383.385 410.962 383.419C416.327 383.571 420.557 388.15 420.4 393.649C420.368 394.775 420.148 395.849 419.782 396.848C420.626 398.374 421.098 400.146 421.046 402.028C420.891 407.527 416.417 411.862 411.049 411.712C409.361 411.665 407.794 411.172 406.431 410.357C406.348 410.444 406.283 410.537 406.194 410.616C403.723 412.907 399.845 412.733 397.528 410.232C397.075 409.744 396.726 409.198 396.459 408.627C394.853 409.712 392.92 410.323 390.855 410.266C389.636 410.232 388.48 409.96 387.419 409.509C387.261 410.194 386.917 410.836 386.373 411.345C384.883 412.727 382.527 412.615 381.114 411.092C380.149 410.049 379.868 408.62 380.263 407.38C378.769 407.473 377.234 406.915 376.122 405.715C374.177 403.623 374.261 400.39 376.3 398.492L376.302 398.488Z" fill="#00C48B"/>
<path opacity="0.3" d="M394.76 380.758C394.76 381.756 395.57 382.567 396.568 382.567C397.567 382.567 398.378 381.756 398.378 380.758C398.378 379.761 397.569 378.947 396.568 378.947C395.568 378.947 394.76 379.757 394.76 380.758Z" fill="#F1F3BE"/>
<path opacity="0.3" d="M399.008 379.907C399.008 380.377 399.388 380.759 399.857 380.759C400.325 380.759 400.708 380.377 400.708 379.907C400.708 379.437 400.327 379.058 399.857 379.058C399.387 379.058 399.008 379.439 399.008 379.907Z" fill="#F1F3BE"/>
<path opacity="0.3" d="M379.131 399.052C379.131 399.524 379.512 399.903 379.982 399.903C380.452 399.903 380.833 399.522 380.833 399.052C380.833 398.581 380.452 398.2 379.982 398.2C379.512 398.2 379.131 398.581 379.131 399.052Z" fill="#F1F3BE"/>
<g opacity="0.5">
<path opacity="0.71" d="M411.051 411.711C409.363 411.663 407.796 411.17 406.433 410.355C406.35 410.442 406.285 410.535 406.196 410.615C403.725 412.905 399.847 412.731 397.529 410.23C397.077 409.742 396.728 409.196 396.461 408.625C394.855 409.71 392.922 410.321 390.857 410.264C389.638 410.23 388.482 409.959 387.421 409.507C387.263 410.192 386.919 410.835 386.375 411.343C384.885 412.725 382.529 412.613 381.116 411.091C380.151 410.048 379.87 408.618 380.265 407.378C378.771 407.471 377.236 406.913 376.124 405.713C374.456 403.917 374.284 401.285 375.557 399.372C376.192 400.908 377.111 402.798 378.07 403.595C379.808 405.034 381.72 401.803 383.483 400.068C385.249 398.327 386.06 400.242 388.495 401.473C390.929 402.709 393.32 400.493 397.01 399.323C400.698 398.153 407.087 403.371 409.175 404.073C411.26 404.774 414.385 406.674 418.208 404.934C419.426 404.382 420.324 403.612 420.986 402.815C420.451 407.933 416.157 411.857 411.051 411.713V411.711Z" fill="#005A56"/>
<path opacity="0.71" d="M389.483 398.688C389.483 399.839 390.417 400.77 391.565 400.77C392.714 400.77 393.648 399.839 393.648 398.688C393.648 397.537 392.718 396.605 391.565 396.605C390.413 396.605 389.483 397.538 389.483 398.688Z" fill="#005A56"/>
<path opacity="0.71" d="M413.085 396.314C413.085 397.284 413.87 398.066 414.834 398.066C415.799 398.066 416.583 397.284 416.583 396.314C416.583 395.343 415.803 394.562 414.834 394.562C413.866 394.562 413.085 395.347 413.085 396.314Z" fill="#005A56"/>
<path opacity="0.71" d="M386.949 398.065C386.949 398.594 387.375 399.019 387.904 399.019C388.433 399.019 388.857 398.594 388.857 398.065C388.857 397.536 388.431 397.109 387.904 397.109C387.377 397.109 386.949 397.54 386.949 398.065Z" fill="#005A56"/>
<path opacity="0.71" d="M417.383 396.156C417.383 396.685 417.812 397.11 418.337 397.11C418.862 397.11 419.292 396.683 419.292 396.156C419.292 395.629 418.863 395.202 418.337 395.202C417.81 395.202 417.383 395.631 417.383 396.156Z" fill="#005A56"/>
<path opacity="0.71" d="M412.086 393.477C412.086 394.017 412.52 394.453 413.058 394.453C413.597 394.453 414.036 394.017 414.036 393.477C414.036 392.936 413.6 392.5 413.058 392.5C412.516 392.5 412.086 392.936 412.086 393.477Z" fill="#005A56"/>
</g>
<path opacity="0.3" d="M398.013 374.694C403.077 374.835 407.121 378.921 407.432 384.003C408.535 383.599 409.721 383.387 410.962 383.419C414.692 383.523 417.868 385.772 419.407 388.977C415.209 385.848 408.662 386.739 405.478 387.435C405.22 387.49 404.957 387.376 404.822 387.151C404.687 386.925 404.712 386.637 404.883 386.438L405.868 385.292C406.175 384.936 406.219 384.424 405.978 384.022C404.572 381.659 399.282 374.351 389.814 378.893C391.63 376.276 394.645 374.603 398.015 374.698L398.013 374.694Z" fill="#F1F3BE"/>
<path opacity="0.3" d="M389.818 390.424C395.181 391 399.008 393.979 399.008 393.979C399.008 393.979 392.837 392.202 387.279 392.783C386.494 392.864 385.217 393.171 383.958 393.627C385.465 391.933 387.521 390.773 389.835 390.452C389.829 390.443 389.826 390.433 389.818 390.426V390.424Z" fill="#F1F3BE"/>
<path d="M400.414 404.069C400.414 405.068 401.221 405.88 402.222 405.88C403.222 405.88 404.032 405.068 404.032 404.069C404.032 403.07 403.221 402.262 402.222 402.262C401.223 402.262 400.414 403.071 400.414 404.069Z" fill="#00C48B"/>
<path d="M399.857 401.016C399.857 401.486 400.238 401.867 400.708 401.867C401.178 401.867 401.559 401.486 401.559 401.016C401.559 400.545 401.178 400.166 400.708 400.166C400.238 400.166 399.857 400.547 399.857 401.016Z" fill="#00C48B"/>
</g>
<defs>
<linearGradient id="paint0_linear_1697_11820" x1="240" y1="46.6621" x2="240" y2="107.662" gradientUnits="userSpaceOnUse">
<stop stop-color="#FCBD38"/>
<stop offset="0.0001" stop-color="#FCBD38"/>
<stop offset="1" stop-color="#F7931E"/>
</linearGradient>
<clipPath id="clip0_1697_11820">
<rect width="274" height="206" fill="white" transform="translate(175 234)"/>
</clipPath>
</defs>
</svg>
