<svg version="1.1" id="Layer_1" xmlns="http://www.w3.org/2000/svg" xmlns:xlink="http://www.w3.org/1999/xlink" x="0px" y="0px"
	 width="100%" viewBox="0 0 512 512" enable-background="new 0 0 512 512" xml:space="preserve">
<path fill="#000000" opacity="1.000000" stroke="none" 
	d="
M144.468658,513.000000 
	C145.416412,504.561371 145.078613,496.001801 144.494858,487.602203 
	C143.401260,471.867249 158.297440,459.980927 171.864594,460.499146 
	C189.336426,461.166473 206.856293,460.473450 224.348587,460.770905 
	C229.543442,460.859253 230.935272,459.106171 230.752960,454.159515 
	C230.409470,444.840271 230.565048,435.497925 230.707184,426.168121 
	C230.756592,422.925720 229.863800,421.676849 226.329041,421.170929 
	C191.851501,416.236023 160.350967,403.550812 132.277359,383.021606 
	C106.741615,364.348267 86.273529,341.012573 71.098923,313.107452 
	C61.762032,295.937500 55.012196,277.817902 50.653500,258.828033 
	C45.491142,236.336777 44.515919,213.587952 46.484112,190.580643 
	C48.739067,164.221191 56.230511,139.420502 68.081863,115.990196 
	C76.713676,98.924965 87.519081,83.204140 100.594368,69.080200 
	C120.116287,47.992619 142.548294,30.943451 168.802551,19.142122 
	C186.885681,11.013732 205.665634,5.118075 225.409103,2.574899 
	C226.170700,2.476797 226.875854,1.940675 227.803650,1.304330 
	C247.020889,1.000000 266.041779,1.000000 285.531342,1.000000 
	C290.032806,4.020284 295.041199,3.428637 299.566101,4.386294 
	C322.984314,9.342539 344.825104,17.947721 365.502350,30.072205 
	C379.503143,38.281796 392.543579,47.793663 403.940094,59.036335 
	C418.078247,72.983650 430.761719,88.349297 440.613556,105.897430 
	C450.110931,122.814163 457.393646,140.524536 462.106781,159.296631 
	C465.702301,173.617477 467.826782,188.152802 468.384521,202.947510 
	C469.363281,228.912170 466.330170,254.349030 457.878967,278.909454 
	C448.790619,305.321747 435.203796,329.180389 416.785034,350.442413 
	C396.300720,374.088898 371.997192,392.346130 343.631439,405.169861 
	C325.751984,413.252899 306.975922,418.713562 287.468353,421.233154 
	C284.145325,421.662354 283.276154,422.817139 283.310669,425.867798 
	C283.423859,435.860748 283.483704,445.858368 283.283539,455.848602 
	C283.208405,459.598907 284.558807,460.742126 288.214813,460.716217 
	C306.703186,460.584991 325.193085,460.636810 343.682343,460.672180 
	C358.089630,460.699707 369.281616,471.790314 369.334961,486.106049 
	C369.367218,494.765869 369.270538,503.426208 369.115906,512.543152 
	C294.312439,513.000000 219.624878,513.000000 144.468658,513.000000 
M113.212448,339.323395 
	C126.254433,354.408478 141.612839,366.705200 158.584442,377.070923 
	C186.501266,394.121582 217.086517,402.433289 249.481125,404.614136 
	C263.629669,405.566681 277.750977,403.999664 291.550385,401.334930 
	C329.652283,393.977356 363.035278,377.012207 390.914307,349.801270 
	C411.393890,329.812531 426.980835,306.531250 437.050079,279.650482 
	C449.679047,245.936234 453.187012,211.309509 446.298187,175.968307 
	C440.936371,148.461105 430.029999,123.120781 413.668335,100.232430 
	C399.702332,80.695404 382.752106,64.086533 362.672821,51.088409 
	C338.061218,35.156338 311.249420,24.830048 281.843597,21.057529 
	C261.004028,18.383982 240.511703,18.996447 220.031937,23.012711 
	C197.691162,27.393930 176.792130,35.604828 157.309265,47.374264 
	C137.944763,59.072186 121.228653,73.889755 107.023262,91.415497 
	C94.188797,107.249855 84.396156,124.906715 76.991737,143.938232 
	C69.589233,162.964874 65.604164,182.755234 64.497292,202.978012 
	C63.142872,227.723572 67.062828,251.893738 75.368286,275.305634 
	C83.734344,298.888336 95.963509,320.174622 113.212448,339.323395 
M261.499939,494.658875 
	C276.999420,494.658752 292.498932,494.659424 307.998413,494.658325 
	C320.664642,494.657440 333.331635,494.579681 345.996643,494.701843 
	C349.422577,494.734863 350.696503,493.533264 350.718933,490.051392 
	C350.767242,482.556854 347.708008,479.364655 339.771759,479.363068 
	C284.606995,479.351990 229.442200,479.355896 174.277420,479.359589 
	C173.111786,479.359650 171.919647,479.266144 170.785065,479.469025 
	C165.469208,480.419556 162.819565,484.722504 163.346146,491.153198 
	C163.823975,496.988831 168.310883,494.529541 171.003616,494.545654 
	C200.834869,494.724335 230.667587,494.658112 261.499939,494.658875 
M264.666138,441.514374 
	C264.666199,440.351379 264.691467,439.187744 264.662415,438.025482 
	C264.367645,426.229797 267.114624,427.423737 253.100342,427.331787 
	C250.270538,427.313202 249.295593,428.556732 249.332123,431.253235 
	C249.417679,437.565369 249.270386,443.880829 249.367401,450.192627 
	C249.544769,461.734772 247.088257,460.609894 260.590149,460.675354 
	C263.615265,460.690002 264.738434,459.384247 264.674255,456.462799 
	C264.572144,451.813232 264.658539,447.159576 264.666138,441.514374 
z"/>
<path fill="#000000" opacity="1.000000" stroke="none" 
	d="
M434.059967,257.767212 
	C428.522156,276.419800 417.761017,291.087311 403.349670,303.219940 
	C389.102539,315.214325 372.398468,322.188538 354.109375,324.028381 
	C328.580048,326.596527 305.019745,320.483917 284.418274,304.512665 
	C278.135284,299.641785 272.720276,293.888916 267.243256,287.975433 
	C265.760742,289.875732 266.384949,291.768494 266.382141,293.498657 
	C266.334564,322.825287 266.354614,352.152039 266.337860,381.478760 
	C266.332764,390.401855 263.358337,393.263550 254.333527,393.366882 
	C239.873413,393.532471 225.398163,393.835876 211.430115,389.143707 
	C177.445557,377.727570 155.263611,354.747559 147.010239,319.929657 
	C140.205490,291.222961 145.685272,264.251404 163.639526,240.255219 
	C168.645233,233.564972 174.808762,228.041046 180.791962,222.131653 
	C177.943909,221.293839 175.026917,221.364838 172.118912,221.363876 
	C143.791962,221.354446 115.465012,221.358154 87.138084,221.332535 
	C78.933563,221.325119 75.633560,218.056046 75.661362,209.946274 
	C75.710823,195.516830 75.117279,181.147003 79.424591,166.949203 
	C85.188232,147.951065 96.174835,132.758392 110.982773,120.089211 
	C124.481453,108.540199 140.455627,101.690041 157.903275,99.975647 
	C187.212891,97.095703 214.015305,103.744820 236.023026,124.736320 
	C239.725479,128.267807 243.560379,131.660431 247.329315,135.112839 
	C248.173233,133.760330 247.615753,131.725418 247.618652,129.819260 
	C247.663177,100.659233 247.889267,71.495842 247.492432,42.341152 
	C247.384079,34.380619 251.732712,30.003254 259.581085,30.554255 
	C271.144135,31.366047 282.755280,29.875509 294.336151,32.473507 
	C309.724152,35.925579 323.581390,42.212887 335.519440,52.406090 
	C352.367920,66.792007 363.789093,84.692741 367.719116,106.659653 
	C372.883362,135.525391 367.472260,162.053497 348.830811,185.374939 
	C344.104889,191.287277 338.652130,196.447647 332.776947,201.507797 
	C335.172485,203.231277 337.231476,202.609802 339.139587,202.612961 
	C368.632843,202.661896 398.126251,202.642288 427.619598,202.658447 
	C435.340790,202.662674 438.425476,205.709381 438.305359,213.506683 
	C438.121490,225.439606 439.443756,237.463028 436.343414,249.237793 
	C435.627960,251.955109 434.917603,254.673752 434.059967,257.767212 
M156.499878,202.647614 
	C173.978409,202.646698 191.456924,202.650223 208.935455,202.639862 
	C211.425766,202.638382 213.835037,202.899124 214.847580,199.530334 
	C218.812332,186.339401 227.170944,176.965378 239.901810,171.582092 
	C242.359741,170.542755 242.911743,169.117630 241.896469,166.486404 
	C240.083282,161.787292 237.330353,157.699326 234.717896,153.457840 
	C218.769638,127.564919 186.601181,113.431862 156.560883,119.645073 
	C119.910919,127.225365 94.427567,158.258041 94.243462,196.217514 
	C94.219620,201.134750 95.343697,202.861725 100.569756,202.771225 
	C118.875015,202.454178 137.189117,202.647705 156.499878,202.647614 
M245.724258,374.464020 
	C248.273438,373.458557 247.621689,371.195557 247.623169,369.310852 
	C247.652161,332.667206 247.605484,296.023468 247.693893,259.380035 
	C247.701523,256.217682 246.722855,254.706741 243.639069,253.663788 
	C233.960403,250.390366 225.943069,244.880142 220.353867,235.971359 
	C218.328003,232.742279 216.997482,229.222244 215.181808,225.762512 
	C206.523056,228.639648 199.161194,233.139114 192.199921,238.687225 
	C174.197784,253.034927 165.117661,272.013062 163.510406,294.470856 
	C162.314377,311.182526 167.159515,326.730865 176.754791,340.486298 
	C193.232315,364.107941 216.316238,374.896271 245.724258,374.464020 
M266.340698,64.506454 
	C266.341339,97.464821 266.380096,130.423294 266.288300,163.381409 
	C266.278259,166.991287 267.115234,168.946518 270.973511,170.219055 
	C283.257568,174.270630 292.003876,182.563309 297.192627,194.410019 
	C298.512573,197.423584 299.899811,197.996262 302.859497,196.525620 
	C314.393555,190.794479 324.971436,184.055191 333.209503,173.743973 
	C343.857422,160.416458 349.907928,145.289474 350.467590,128.547760 
	C351.361328,101.812119 340.213745,80.306412 318.908997,64.253120 
	C304.759369,53.591267 288.575317,48.995186 270.891541,49.302944 
	C267.418121,49.363400 266.084564,50.583179 266.303619,54.024773 
	C266.504120,57.174580 266.343170,60.347389 266.340698,64.506454 
M325.181610,303.093201 
	C343.951263,308.628326 362.124969,305.475677 378.578979,296.401276 
	C405.931824,281.316162 419.625061,257.337616 419.706543,225.834885 
	C419.715790,222.265305 418.369263,221.292969 414.994690,221.300583 
	C378.032623,221.383987 341.070312,221.376938 304.108185,221.309082 
	C301.219940,221.303787 299.786072,222.051727 298.832123,225.080765 
	C294.881378,237.625336 286.724731,246.707520 274.693451,251.994049 
	C271.279724,253.494049 270.972137,255.078812 272.463501,258.054382 
	C276.110809,265.331360 280.113434,272.260742 285.503204,278.526428 
	C296.016479,290.748352 308.892883,298.791168 325.181610,303.093201 
M279.845032,202.677078 
	C279.429962,201.770615 279.052643,200.844574 278.594116,199.960663 
	C272.946350,189.072891 258.499084,184.188354 247.297211,189.368698 
	C234.779083,195.157761 228.945984,208.876648 233.945938,220.769577 
	C239.317490,233.546356 253.004211,239.778595 265.471588,235.124786 
	C278.337372,230.322235 284.445892,217.147720 279.845032,202.677078 
z"/>
</svg>