<?xml version="1.0" standalone="no"?>
<!DOCTYPE svg PUBLIC "-//W3C//DTD SVG 20010904//EN"
 "http://www.w3.org/TR/2001/REC-SVG-20010904/DTD/svg10.dtd">
<svg version="1.0" xmlns="http://www.w3.org/2000/svg"
 width="512.000000pt" height="512.000000pt" viewBox="0 0 512.000000 512.000000"
 preserveAspectRatio="xMidYMid meet">

<g transform="translate(0.000000,512.000000) scale(0.100000,-0.100000)"
fill="#000000" stroke="none">
<path d="M115 4751 c-48 -22 -79 -54 -100 -103 -22 -54 -22 -372 0 -426 34
-79 102 -121 198 -122 l57 0 0 -74 0 -73 -65 -5 c-81 -7 -132 -33 -170 -87
l-30 -43 -3 -1497 -2 -1496 22 -45 c34 -67 90 -101 176 -108 l70 -5 4 -102 c3
-94 5 -104 32 -139 49 -65 88 -76 266 -76 129 0 162 3 195 19 78 36 105 91
105 216 l0 85 1690 0 1690 0 0 -87 c1 -127 29 -183 113 -218 52 -21 322 -21
374 0 85 36 113 89 113 213 l0 89 71 5 c87 7 142 40 177 108 l22 45 -2 1496
-3 1497 -30 43 c-38 54 -89 80 -170 87 l-65 5 0 73 0 74 55 0 c94 0 161 39
196 115 16 34 19 66 19 220 0 195 -9 234 -61 282 -54 49 -80 53 -368 53 -299
0 -304 -1 -317 -67 -5 -26 -1 -37 19 -57 l26 -26 256 0 c158 0 264 -4 276 -10
18 -10 19 -23 19 -173 0 -114 -4 -167 -12 -175 -17 -17 -4779 -17 -4796 0 -17
17 -17 329 0 346 9 9 465 12 1988 12 l1977 0 21 23 c29 31 28 72 -3 102 l-24
25 -1983 0 c-1907 0 -1985 -1 -2023 -19z m4585 -726 l0 -75 -1350 0 c-1439 0
-1396 1 -1414 -45 -10 -27 -7 -277 5 -318 13 -49 73 -115 124 -138 37 -17 76
-19 495 -19 513 0 501 -1 572 78 46 51 58 93 58 205 l0 87 874 0 c782 0 876
-2 890 -16 14 -14 16 -161 16 -1474 0 -1313 -2 -1460 -16 -1474 -14 -14 -245
-16 -2390 -16 -1618 0 -2381 3 -2395 10 -19 11 -19 38 -19 1475 0 1317 2 1465
16 1479 14 14 97 16 769 16 l754 0 20 26 c34 43 24 86 -26 112 -16 9 -190 12
-642 12 l-621 0 0 75 0 75 2140 0 2140 0 0 -75z m-1660 -309 c0 -69 -4 -88
-21 -110 l-20 -26 -439 0 -439 0 -20 26 c-17 22 -21 41 -21 110 l0 84 480 0
480 0 0 -84z m-2322 -3128 l-3 -83 -145 0 -145 0 -3 83 -3 82 151 0 151 0 -3
-82z m3980 0 l-3 -83 -145 0 -145 0 -3 83 -3 82 151 0 151 0 -3 -82z"/>
<path d="M444 3568 c-22 -10 -44 -47 -44 -72 0 -7 9 -25 21 -40 l20 -26 194 0
194 0 20 26 c12 15 21 33 21 40 0 26 -23 62 -47 73 -31 14 -350 14 -379 -1z"/>
<path d="M431 3273 c-11 -10 -24 -32 -27 -50 -5 -26 -1 -37 19 -57 l26 -26
393 0 c427 0 428 0 442 55 7 29 -15 79 -39 89 -9 3 -191 6 -405 6 -355 0 -390
-1 -409 -17z"/>
<path d="M3746 2499 c-46 -36 -37 -64 94 -287 113 -193 120 -207 120 -258 l0
-54 -65 0 -66 0 -197 117 c-124 73 -207 116 -225 116 -37 0 -70 -34 -70 -72 0
-41 12 -53 109 -110 l84 -48 -76 -5 c-87 -6 -117 -26 -117 -77 0 -55 25 -71
115 -71 45 0 77 -4 74 -9 -3 -5 -42 -30 -85 -56 -44 -25 -85 -53 -92 -61 -18
-22 -15 -71 6 -94 36 -40 70 -28 288 101 201 117 207 120 259 117 l53 -3 3
-55 c3 -55 1 -58 -118 -260 -132 -225 -141 -252 -94 -289 53 -42 83 -23 156
97 l53 87 3 -82 c3 -75 5 -84 29 -103 34 -26 56 -25 90 4 25 21 28 31 31 100
l4 77 45 -78 c73 -127 110 -148 165 -93 23 24 29 36 24 55 -4 14 -58 113 -121
220 l-115 194 0 66 0 65 53 0 c49 0 66 -8 257 -120 225 -131 253 -140 289 -94
42 53 20 88 -101 160 l-83 49 82 3 c75 3 84 5 103 29 26 33 25 56 -3 89 -21
24 -34 28 -95 33 l-72 6 82 50 c97 59 118 87 99 133 -17 39 -56 54 -98 37 -17
-7 -111 -61 -210 -119 -176 -104 -181 -106 -241 -106 l-62 0 0 60 c0 59 3 65
114 253 62 106 116 203 120 214 10 30 -12 70 -47 84 -45 19 -74 -3 -134 -106
l-53 -89 0 73 c0 67 -2 75 -29 102 -35 34 -59 36 -94 9 -24 -19 -26 -28 -29
-103 l-3 -82 -49 83 c-72 121 -107 143 -160 101z"/>
<path d="M3525 2325 c-47 -46 -17 -125 49 -125 30 0 76 39 76 65 0 29 -29 72
-52 79 -38 10 -48 7 -73 -19z"/>
<path d="M4463 2338 c-48 -23 -51 -103 -4 -127 80 -43 155 63 85 118 -29 23
-48 25 -81 9z"/>
<path d="M581 1570 c-77 -16 -141 -76 -167 -156 -33 -102 14 -214 111 -264 48
-24 54 -25 297 -28 293 -4 330 3 397 69 84 84 90 210 14 298 -69 82 -85 85
-363 88 -135 1 -265 -2 -289 -7z m528 -165 c11 -11 23 -32 26 -47 6 -22 1 -33
-23 -58 l-30 -30 -231 0 c-150 0 -239 4 -255 11 -36 17 -54 65 -35 98 27 49
46 52 296 49 217 -3 234 -4 252 -23z"/>
<path d="M3522 1417 c-12 -13 -22 -36 -22 -51 0 -29 39 -76 64 -76 28 0 64 22
75 47 16 36 14 51 -14 78 -31 32 -74 33 -103 2z"/>
<path d="M4457 1429 c-46 -27 -41 -105 9 -128 35 -16 48 -14 78 10 51 40 23
129 -41 129 -16 0 -36 -5 -46 -11z"/>
</g>
</svg>
