<svg width="22" height="38" viewBox="0 0 22 38" fill="none" xmlns="http://www.w3.org/2000/svg">
<path d="M3.0301 37.14C2.8101 37.01 2.6901 36.76 2.7201 36.51C2.7201 36.17 2.7201 35.82 2.7201 35.48C2.7201 35.28 2.6701 35.19 2.4501 35.16C1.3601 35.14 0.490104 34.24 0.510104 33.15C0.510104 33.09 0.510104 33.03 0.520104 32.97V16.02C0.490104 15.49 0.650103 14.98 0.970103 14.56C1.0801 14.45 1.0801 14.28 0.970103 14.17C0.970103 14.17 0.970103 14.17 0.960103 14.16C0.650103 13.75 0.490104 13.25 0.520104 12.73C0.520104 9.42997 0.520104 6.12997 0.520104 2.82997C0.430104 1.72997 1.2401 0.769969 2.3301 0.669969C2.4501 0.659969 2.5601 0.669969 2.6801 0.669969H19.2001C20.3001 0.569969 21.2601 1.37997 21.3601 2.47997C21.3701 2.58997 21.3701 2.70998 21.3601 2.81998V12.72C21.3901 13.23 21.2301 13.74 20.9201 14.15C20.8001 14.27 20.8001 14.46 20.9201 14.57C20.9201 14.57 20.9201 14.57 20.9301 14.58C21.2201 14.97 21.3701 15.45 21.3601 15.94C21.3601 21.64 21.3601 27.33 21.3601 33.03C21.4501 34.11 20.6401 35.06 19.5601 35.14C19.5301 35.14 19.4901 35.14 19.4601 35.14C19.2001 35.17 19.1401 35.27 19.1501 35.5C19.1601 35.83 19.1501 36.16 19.1501 36.5C19.1801 36.75 19.0601 37 18.8401 37.13H14.8501C14.6301 37 14.5101 36.75 14.5401 36.5C14.5501 36.16 14.5401 35.81 14.5401 35.47C14.5401 35.25 14.4701 35.15 14.2401 35.15C12.0401 35.15 9.8401 35.15 7.6301 35.15C7.3901 35.15 7.32011 35.25 7.33011 35.47C7.34011 35.81 7.33011 36.16 7.33011 36.5C7.36011 36.75 7.2401 37 7.0201 37.13H3.0301V37.14ZM1.6101 24.47V32.91C1.6101 33.8 1.8701 34.07 2.7501 34.07H19.1201C19.9801 34.07 20.2501 33.8 20.2501 32.95V16.04C20.2501 15.19 19.9501 14.88 19.0901 14.88H2.7701C1.9201 14.88 1.6201 15.19 1.6201 16.04V24.48M10.9401 1.76997H2.7201C1.9101 1.76997 1.6201 2.04997 1.6201 2.85997V12.72C1.6201 13.52 1.9301 13.84 2.7401 13.84H19.1501C19.9501 13.84 20.2701 13.52 20.2701 12.72V2.89996C20.2701 2.04996 20.0001 1.77997 19.1301 1.77997H10.9501M5.0201 36.14C5.3401 36.14 5.6601 36.14 5.9801 36.14C6.2001 36.14 6.3201 36.08 6.3001 35.84C6.2901 35.73 6.2901 35.63 6.3001 35.52C6.3301 35.25 6.2001 35.17 5.9401 35.18C5.4201 35.19 4.9001 35.18 4.3801 35.18C3.7601 35.18 3.7801 35.18 3.7801 35.8C3.7801 36.08 3.8901 36.15 4.1401 36.14C4.4401 36.13 4.7301 36.14 5.0301 36.14M16.8801 35.18H15.8901C15.7001 35.18 15.6001 35.26 15.6201 35.45C15.6201 35.57 15.6201 35.69 15.6201 35.8C15.6001 36.04 15.6901 36.14 15.9401 36.13C16.4701 36.12 17.0101 36.13 17.5401 36.13C18.1501 36.13 18.1401 36.13 18.1401 35.51C18.1401 35.27 18.0601 35.16 17.8101 35.17C17.5001 35.18 17.2001 35.17 16.8901 35.17" fill="#0C233D"/>
<path d="M1.6101 24.47V32.91C1.6101 33.8 1.8701 34.07 2.7501 34.07H19.1201C19.9801 34.07 20.2501 33.8 20.2501 32.95V16.04C20.2501 15.19 19.9501 14.88 19.0901 14.88H2.7701C1.9201 14.88 1.6201 15.19 1.6201 16.04V24.48M10.9401 1.76997H2.7201C1.9101 1.76997 1.6201 2.04997 1.6201 2.85997V12.72C1.6201 13.52 1.9301 13.84 2.7401 13.84H19.1501C19.9501 13.84 20.2701 13.52 20.2701 12.72V2.89996C20.2701 2.04996 20.0001 1.77997 19.1301 1.77997H10.9501M5.0201 36.14C5.3401 36.14 5.6601 36.14 5.9801 36.14C6.2001 36.14 6.3201 36.08 6.3001 35.84C6.2901 35.73 6.2901 35.63 6.3001 35.52C6.3301 35.25 6.2001 35.17 5.9401 35.18C5.4201 35.19 4.9001 35.18 4.3801 35.18C3.7601 35.18 3.7801 35.18 3.7801 35.8C3.7801 36.08 3.8901 36.15 4.1401 36.14C4.4401 36.13 4.7301 36.14 5.0301 36.14M16.8801 35.18H15.8901C15.7001 35.18 15.6001 35.26 15.6201 35.45C15.6201 35.57 15.6201 35.69 15.6201 35.8C15.6001 36.04 15.6901 36.14 15.9401 36.13C16.4701 36.12 17.0101 36.13 17.5401 36.13C18.1501 36.13 18.1401 36.13 18.1401 35.51C18.1401 35.27 18.0601 35.16 17.8101 35.17C17.5001 35.18 17.2001 35.17 16.8901 35.17M3.0301 37.14C2.8101 37.01 2.6901 36.76 2.7201 36.51C2.7201 36.17 2.7201 35.82 2.7201 35.48C2.7201 35.28 2.6701 35.19 2.4501 35.16C1.3601 35.14 0.490104 34.24 0.510104 33.15C0.510104 33.09 0.510104 33.03 0.520104 32.97V16.02C0.490104 15.49 0.650103 14.98 0.970103 14.56C1.0801 14.45 1.0801 14.28 0.970103 14.17C0.970103 14.17 0.970103 14.17 0.960103 14.16C0.650103 13.75 0.490104 13.25 0.520104 12.73C0.520104 9.42997 0.520104 6.12997 0.520104 2.82997C0.430104 1.72997 1.2401 0.769969 2.3301 0.669969C2.4501 0.659969 2.5601 0.669969 2.6801 0.669969H19.2001C20.3001 0.569969 21.2601 1.37997 21.3601 2.47997C21.3701 2.58997 21.3701 2.70998 21.3601 2.81998V12.72C21.3901 13.23 21.2301 13.74 20.9201 14.15C20.8001 14.27 20.8001 14.46 20.9201 14.57C20.9201 14.57 20.9201 14.57 20.9301 14.58C21.2201 14.97 21.3701 15.45 21.3601 15.94C21.3601 21.64 21.3601 27.33 21.3601 33.03C21.4501 34.11 20.6401 35.06 19.5601 35.14C19.5301 35.14 19.4901 35.14 19.4601 35.14C19.2001 35.17 19.1401 35.27 19.1501 35.5C19.1601 35.83 19.1501 36.16 19.1501 36.5C19.1801 36.75 19.0601 37 18.8401 37.13H14.8501C14.6301 37 14.5101 36.75 14.5401 36.5C14.5501 36.16 14.5401 35.81 14.5401 35.47C14.5401 35.25 14.4701 35.15 14.2401 35.15C12.0401 35.15 9.8401 35.15 7.6301 35.15C7.3901 35.15 7.32011 35.25 7.33011 35.47C7.34011 35.81 7.33011 36.16 7.33011 36.5C7.36011 36.75 7.2401 37 7.0201 37.13H3.0301V37.14Z" stroke="#0C233D" stroke-width="0.5"/>
<path d="M18.5101 20.2099V22.9899C18.5101 23.5399 18.3401 23.7099 17.7801 23.7099H16.2101C15.7801 23.7099 15.5701 23.5099 15.5701 23.0799C15.5701 21.1599 15.5701 19.2299 15.5701 17.3099C15.5701 16.8799 15.7901 16.6899 16.2201 16.6799C16.7701 16.6799 17.3101 16.6799 17.8601 16.6799C18.3201 16.6799 18.5101 16.8699 18.5201 17.3299C18.5201 18.2899 18.5201 19.2499 18.5201 20.2099M16.6701 20.1899C16.6701 20.8999 16.6701 21.6099 16.6701 22.3299C16.6701 22.5999 16.7801 22.6799 17.0301 22.6699C17.2801 22.6599 17.4401 22.6499 17.4401 22.3399C17.4301 20.9199 17.4301 19.4899 17.4401 18.0699C17.4401 17.7599 17.2901 17.7299 17.0401 17.7299C16.7901 17.7299 16.6701 17.7799 16.6701 18.0599C16.6801 18.7699 16.6701 19.4799 16.6701 20.1999" fill="#0C233D"/>
<path d="M18.5101 20.2099V22.9899C18.5101 23.5399 18.3401 23.7099 17.7801 23.7099H16.2101C15.7801 23.7099 15.5701 23.5099 15.5701 23.0799C15.5701 21.1599 15.5701 19.2299 15.5701 17.3099C15.5701 16.8799 15.7901 16.6899 16.2201 16.6799C16.7701 16.6799 17.3101 16.6799 17.8601 16.6799C18.3201 16.6799 18.5101 16.8699 18.5201 17.3299C18.5201 18.2899 18.5201 19.2499 18.5201 20.2099M16.6701 20.1899C16.6701 20.8999 16.6701 21.6099 16.6701 22.3299C16.6701 22.5999 16.7801 22.6799 17.0301 22.6699C17.2801 22.6599 17.4401 22.6499 17.4401 22.3399C17.4301 20.9199 17.4301 19.4899 17.4401 18.0699C17.4401 17.7599 17.2901 17.7299 17.0401 17.7299C16.7901 17.7299 16.6701 17.7799 16.6701 18.0599C16.6801 18.7699 16.6701 19.4799 16.6701 20.1999" stroke="#0C233D" stroke-width="0.5"/>
<path d="M18.5101 7.77992V10.5199C18.5101 11.1299 18.3401 11.3099 17.7301 11.3099H16.2701C15.7801 11.3099 15.5601 11.1099 15.5601 10.6299C15.5601 8.73992 15.5601 6.85992 15.5601 4.96992C15.5601 4.45992 15.7701 4.24992 16.2701 4.23992C16.7701 4.22992 17.2901 4.22992 17.8001 4.23992C18.3101 4.24992 18.5001 4.44992 18.5001 4.96992V7.77992M16.6501 7.75991C16.6501 8.45991 16.6601 9.15992 16.6501 9.85992C16.6501 10.1399 16.7501 10.2299 17.0301 10.2299C17.3101 10.2299 17.4201 10.1599 17.4201 9.86991C17.4201 8.46991 17.4201 7.06991 17.4201 5.66991C17.4201 5.35991 17.2701 5.32992 17.0201 5.32992C16.7701 5.32992 16.6501 5.37991 16.6501 5.66991C16.6601 6.36991 16.6501 7.06992 16.6501 7.76992" fill="#0C233D"/>
<path d="M18.5101 7.77992V10.5199C18.5101 11.1299 18.3401 11.3099 17.7301 11.3099H16.2701C15.7801 11.3099 15.5601 11.1099 15.5601 10.6299C15.5601 8.73992 15.5601 6.85992 15.5601 4.96992C15.5601 4.45992 15.7701 4.24992 16.2701 4.23992C16.7701 4.22992 17.2901 4.22992 17.8001 4.23992C18.3101 4.24992 18.5001 4.44992 18.5001 4.96992V7.77992M16.6501 7.75991C16.6501 8.45991 16.6601 9.15992 16.6501 9.85992C16.6501 10.1399 16.7501 10.2299 17.0301 10.2299C17.3101 10.2299 17.4201 10.1599 17.4201 9.86991C17.4201 8.46991 17.4201 7.06991 17.4201 5.66991C17.4201 5.35991 17.2701 5.32992 17.0201 5.32992C16.7701 5.32992 16.6501 5.37991 16.6501 5.66991C16.6601 6.36991 16.6501 7.06992 16.6501 7.76992" stroke="#0C233D" stroke-width="0.5"/>
</svg>
