<?xml version="1.0" encoding="UTF-8"?>
<svg version="1.1" xmlns="http://www.w3.org/2000/svg" width="512" height="512">
<path d="M0 0 C1.44290716 -0.00679667 1.44290716 -0.00679667 2.91496396 -0.01373065 C6.12900714 -0.02636174 9.34288059 -0.02475509 12.5569458 -0.02310181 C14.86522641 -0.02908788 17.17350502 -0.0358936 19.48178101 -0.04345703 C25.74637881 -0.06111675 32.01092197 -0.06581242 38.27554226 -0.0670886 C42.19154617 -0.06851084 46.10753622 -0.07278183 50.02353668 -0.07808304 C62.9861232 -0.09562915 75.94867096 -0.1049233 88.9112688 -0.10342209 C89.60935198 -0.10334218 90.30743515 -0.10326227 91.02667236 -0.10317993 C91.72561352 -0.10309817 92.42455468 -0.10301641 93.14467588 -0.10293217 C104.46621121 -0.10211966 115.78761338 -0.12125065 127.10911021 -0.14945666 C138.74965424 -0.17822737 150.39012731 -0.19162889 162.0307076 -0.19026911 C168.5596839 -0.18975975 175.08850948 -0.19542904 181.61745453 -0.21662521 C187.76036246 -0.23602378 193.90297616 -0.23612067 200.04589462 -0.22159195 C202.29563961 -0.21950475 204.54540308 -0.22419935 206.79511642 -0.23631287 C222.19194032 -0.31382204 234.56016866 0.08621246 246.27276611 11.26742554 C253.76538459 19.11612885 258.48707756 29.25181723 258.27276611 40.26742554 C257.32529973 44.60997978 257.01253548 45.77424596 253.27276611 48.26742554 C246.17177038 48.94371084 246.17177038 48.94371084 243.11260986 46.64242554 C240.85651162 43.73009489 240.41272088 41.50480181 239.77276611 37.89242554 C238.05581825 29.68412936 234.93484966 25.16201753 228.27276611 20.26742554 C223.61072663 17.78586524 219.14250892 17.98177259 213.99363708 18 C212.58687012 17.99320333 212.58687012 17.99320333 211.15168363 17.98626935 C208.00734276 17.97360342 204.86317461 17.97524715 201.71881104 17.97689819 C199.46507036 17.97091431 197.21133174 17.96410909 194.95759583 17.95654297 C188.83357218 17.93886132 182.7096044 17.93418667 176.5855577 17.9329114 C171.47373466 17.93101282 166.36192466 17.92365574 161.25010663 17.91656721 C149.87850519 17.90120791 138.50693836 17.89523002 127.13533004 17.89657791 C126.11220978 17.89669778 126.11220978 17.89669778 125.06842041 17.89682007 C124.385505 17.89690183 123.7025896 17.89698359 122.99897978 17.89706783 C111.93395037 17.89788055 100.86905713 17.87874569 89.8040671 17.85054334 C78.43593133 17.82179755 67.06788261 17.80837004 55.69970208 17.80973089 C49.32002023 17.81024089 42.94049249 17.80453654 36.56084251 17.78337479 C30.55996229 17.76401323 24.5593835 17.76385396 18.55849266 17.77840805 C16.35747843 17.78049983 14.15644545 17.77577338 11.95546341 17.76368713 C8.94757015 17.74824127 5.94071708 17.75753901 2.93284607 17.77294922 C1.6305389 17.75751853 1.6305389 17.75751853 0.3019225 17.74177611 C-6.40485328 17.81755525 -11.63209273 19.59652188 -16.75067139 24.01351929 C-17.41969482 24.85076538 -17.41969482 24.85076538 -18.10223389 25.70492554 C-18.56371826 26.26051147 -19.02520264 26.81609741 -19.50067139 27.38851929 C-22.35179435 31.75600382 -22.98042276 35.54454966 -23.00570679 40.71513367 C-23.01685831 42.01508679 -23.02800983 43.31503992 -23.03949928 44.65438557 C-23.04186659 46.09351385 -23.0440539 47.53264244 -23.04608154 48.97177124 C-23.05549489 50.51428092 -23.06577441 52.05678552 -23.07684898 53.59928417 C-23.10409053 57.72613962 -23.11949315 61.85295947 -23.13243103 65.97988129 C-23.14637336 69.85389418 -23.17100916 73.72781043 -23.19476318 77.60177612 C-23.25798859 88.92777109 -23.30406553 100.25385653 -23.35223389 111.57992554 C-23.47598389 136.88680054 -23.59973389 162.19367554 -23.72723389 188.26742554 C63.39276611 188.26742554 150.51276611 188.26742554 240.27276611 188.26742554 C240.27276611 147.67742554 240.27276611 107.08742554 240.27276611 65.26742554 C242.27276611 60.26742554 242.27276611 60.26742554 244.46026611 58.39242554 C248.17227198 56.90762319 250.43563479 57.27261371 254.27276611 58.26742554 C257.08784132 60.23797818 257.64269508 61.97342671 258.27276611 65.26742554 C258.36489909 67.36662938 258.40008912 69.46856273 258.40140057 71.56978703 C258.40462501 72.87375748 258.40784946 74.17772793 258.41117162 75.52121264 C258.40970041 76.97177837 258.40813268 78.42234401 258.40647888 79.87290955 C258.40834656 81.41119805 258.41064708 82.94948608 258.4133442 84.48777336 C258.41947433 88.72169322 258.41932718 92.95559337 258.41814983 97.18951666 C258.41794612 101.75343801 258.42346183 106.31735297 258.4282074 110.88127136 C258.43652188 119.82666745 258.43926263 128.77205696 258.43981978 137.71745659 C258.44029469 144.98986579 258.44234824 152.26227281 258.4455204 159.53468132 C258.45433027 180.15156316 258.45893943 200.76843979 258.45818993 221.38532353 C258.45812999 223.05330069 258.45812999 223.05330069 258.45806885 224.75497437 C258.45802797 225.86831687 258.45798709 226.98165937 258.45794497 228.12873953 C258.45753872 246.1626718 258.46710196 264.19658318 258.48120721 282.23050941 C258.49557478 300.74594383 258.50247714 319.26136806 258.50161344 337.7768082 C258.50128153 348.17234138 258.50402571 358.56785266 258.51479149 368.96338081 C258.52390163 377.81708529 258.52606762 386.67075796 258.51928207 395.52446509 C258.51601906 400.04019708 258.51595221 404.55586806 258.52463531 409.07159424 C258.53251123 413.21020999 258.53105772 417.34871647 258.52235118 421.48732959 C258.52081856 422.97999393 258.52262334 424.47266647 258.52821126 425.96532113 C258.5830069 441.64843489 257.14212565 455.57416331 245.71026611 467.32992554 C238.46271025 474.26742554 238.46271025 474.26742554 234.27276611 474.26742554 C234.28847656 474.86168335 234.30418701 475.45594116 234.32037354 476.06820679 C234.3833318 478.80118008 234.42194706 481.53400009 234.46026611 484.26742554 C234.49797119 485.66928101 234.49797119 485.66928101 234.53643799 487.09945679 C234.61225611 494.32745097 233.9569541 500.16018618 229.11651611 505.76351929 C228.34307861 506.40418335 227.56964111 507.04484741 226.77276611 507.70492554 C225.99932861 508.36363647 225.22589111 509.02234741 224.42901611 509.70101929 C219.22153335 513.48399137 212.83695024 512.52689376 206.66851807 512.56259155 C205.28853064 512.57407393 203.90858631 512.59446656 202.52886963 512.62411499 C186.28958944 512.97278132 186.28958944 512.97278132 179.7666626 506.85482788 C174.27280262 500.73486187 173.99600013 495.28254801 174.14776611 487.45492554 C174.15678955 486.57127319 174.16581299 485.68762085 174.17510986 484.77719116 C174.19856975 482.60715194 174.23443746 480.43725306 174.27276611 478.26742554 C172.46658562 478.27741829 172.46658562 478.27741829 170.62391663 478.28761292 C159.27935486 478.34841308 147.93482613 478.39339298 136.59013844 478.42286205 C130.75763473 478.43852167 124.92526251 478.45976562 119.09283447 478.4937439 C113.46481215 478.52632638 107.83691634 478.54427632 102.20880699 478.55205727 C100.06099137 478.55760274 97.91318272 478.56843159 95.76542091 478.58461571 C92.75835806 478.60637492 89.75181878 478.60939305 86.74468994 478.60800171 C85.85564468 478.61878754 84.96659943 478.62957336 84.0506134 478.64068604 C79.31000141 478.61693251 76.10588145 478.38704281 72.27276611 475.26742554 C70.70805379 472.13800088 70.57574653 468.6566033 71.27276611 465.26742554 C73.39348196 462.58537772 74.5799841 461.39495038 77.98592567 460.76799679 C79.03115583 460.76820607 80.07638599 460.76841536 81.15328979 460.76863098 C82.35597504 460.75905365 83.55866028 460.74947632 84.79779053 460.73960876 C86.77241272 460.75422401 86.77241272 460.75422401 88.78692627 460.76913452 C90.18999813 460.76531062 91.59306608 460.75969096 92.99612427 460.75241089 C96.01694551 460.74045782 99.0374192 460.74095167 102.05824661 460.75100517 C106.84174323 460.76657652 111.62488369 460.75287861 116.40835571 460.73497009 C125.70813695 460.70413788 135.00780955 460.70264808 144.30763245 460.70462036 C156.12307605 460.70601249 167.93843497 460.69554215 179.75381696 460.65604264 C184.5012636 460.64116588 189.24839394 460.64133745 193.99584508 460.65352046 C196.96162784 460.6582579 199.92729161 460.65067026 202.89305496 460.6399765 C204.90690108 460.63645381 206.92075639 460.64779506 208.93457031 460.65971375 C217.30405134 460.61334064 224.68193268 459.81788856 232.08526611 455.70492554 C238.09676392 449.00639941 240.01678288 441.83459557 239.91200256 433.02947998 C239.92035824 432.04905027 239.92871392 431.06862056 239.9373228 430.05848086 C239.95912664 426.80012213 239.94568388 423.54290419 239.93218994 420.28451538 C239.94064863 417.93823394 239.95129524 415.59195953 239.96395874 413.24569702 C239.99206122 406.89515377 239.98964103 400.54494881 239.9816649 394.19436216 C239.97885367 388.22427702 239.99899075 382.25428721 240.01897963 376.28424509 C240.05780776 364.46564426 240.07452852 352.64712096 240.07720947 340.82846069 C240.07986019 329.35315972 240.09306473 317.87794975 240.12017822 306.40267944 C240.1226945 305.32945082 240.1226945 305.32945082 240.1252616 304.23454082 C240.13994656 298.0100687 240.15542684 291.7855986 240.17098522 285.56112862 C240.23685505 258.79653465 240.25052618 232.03217366 240.27276611 205.26742554 C182.85276611 205.26742554 125.43276611 205.26742554 66.27276611 205.26742554 C66.27276611 208.89742554 66.27276611 212.52742554 66.27276611 216.26742554 C64.03651057 222.43949084 60.90765222 226.77067803 55.27276611 230.26742554 C50.67290026 232.10324833 46.82775423 232.51156044 41.89044189 232.49447632 C40.82111168 232.4949144 40.82111168 232.4949144 39.73017883 232.49536133 C37.39268479 232.49397692 35.05551642 232.47845814 32.71807861 232.46273804 C31.08997776 232.45900474 29.46187466 232.45615926 27.83377075 232.4541626 C23.56270064 232.44655109 19.291768 232.4269241 15.02075195 232.40475464 C10.65685892 232.38424256 6.29294353 232.37514944 1.92901611 232.36508179 C-6.62313009 232.34367572 -15.17516485 232.30956996 -23.72723389 232.26742554 C-23.71342125 259.60579229 -23.67116193 286.94398744 -23.59514332 314.28225517 C-23.56050707 326.97622469 -23.53513957 339.67008577 -23.53167725 352.36410522 C-23.52863548 363.42968843 -23.50811611 374.49507845 -23.46670932 385.56058705 C-23.44539726 391.41839827 -23.43276967 397.27593493 -23.44108009 403.13378525 C-23.44863132 408.65129074 -23.43275309 414.16824044 -23.39917374 419.68564415 C-23.39095351 421.70679906 -23.39117507 423.72800938 -23.40063667 425.74915886 C-23.79410791 440.35023121 -23.79410791 440.35023121 -17.72723389 453.26742554 C-9.76360979 461.00854697 0.30345459 460.54083166 10.78448486 460.50570679 C12.74986272 460.51717737 14.71524092 460.52867696 16.6806078 460.54189587 C21.49625484 460.57197058 26.31177557 460.58272822 31.12750244 460.57284546 C33.84192351 460.56812224 36.55570498 460.57655754 39.27003479 460.59925842 C41.81860668 460.61986504 44.36743155 460.62076106 46.91600037 460.59977722 C56.46610122 460.70881726 56.46610122 460.70881726 59.55718994 463.58456421 C61.81689462 467.11834744 61.94672282 469.14880123 61.27276611 473.26742554 C59.40568107 475.63239993 57.9521518 476.92773269 55.27276611 478.26742554 C53.06547381 478.33835395 50.85609159 478.35157579 48.64776611 478.32992554 C47.45925049 478.3209021 46.27073486 478.31187866 45.04620361 478.30258179 C44.13096924 478.29098022 43.21573486 478.27937866 42.27276611 478.26742554 C42.31917236 479.54617554 42.36557861 480.82492554 42.41339111 482.14242554 C42.45093638 483.85073533 42.48733357 485.55907062 42.52276611 487.26742554 C42.55628174 488.10660522 42.58979736 488.94578491 42.62432861 489.81039429 C42.72686143 496.42376065 41.45329968 501.8302289 36.85992432 506.79428101 C29.97865042 512.87889181 23.24378643 512.64012423 14.46270752 512.63803101 C12.41026458 512.64239894 10.35998481 512.6787434 8.30792236 512.71664429 C-0.27742136 512.74201969 -5.16245327 512.32295071 -11.65301514 506.55648804 C-12.11063232 506.00734741 -12.56824951 505.45820679 -13.03973389 504.89242554 C-13.5102417 504.34844116 -13.98074951 503.80445679 -14.46551514 503.24398804 C-18.2796514 497.26890151 -17.97258675 491.22476476 -17.85223389 484.39242554 C-17.84321045 483.41789429 -17.83418701 482.44336304 -17.82489014 481.43930054 C-17.80145011 479.04841826 -17.7686383 476.65805292 -17.72723389 474.26742554 C-18.46973389 474.00445679 -19.21223389 473.74148804 -19.97723389 473.47055054 C-29.86665844 469.1439273 -35.69357554 459.99920959 -39.71160889 450.46273804 C-42.50832389 441.66384236 -41.87075191 432.3309913 -41.86094666 423.20059204 C-41.86281613 421.55231924 -41.86511738 419.90404688 -41.86781198 418.25577521 C-41.87391947 413.73638277 -41.87379762 409.21700886 -41.8726176 404.69761324 C-41.87241333 399.81949358 -41.87793488 394.94137983 -41.88267517 390.06326294 C-41.89097652 380.50980863 -41.89372978 370.95636049 -41.89428755 361.40290287 C-41.89476295 353.6362234 -41.89681892 345.86954596 -41.89998817 338.10286713 C-41.90879333 316.07590788 -41.91340777 294.0489535 -41.9126577 272.02199247 C-41.91261774 270.83487015 -41.91257779 269.64774783 -41.91253662 268.4246521 C-41.91249574 267.23607793 -41.91245486 266.04750376 -41.91241274 264.82291219 C-41.91200631 245.56127033 -41.92157554 226.29964802 -41.93567499 207.03801182 C-41.95004278 187.2534421 -41.95694495 167.46888192 -41.95608121 147.68430686 C-41.95574938 136.57954059 -41.95849033 125.47479483 -41.96925926 114.37003326 C-41.97836955 104.91515308 -41.98053515 95.46030268 -41.97374984 86.00542 C-41.97048733 81.18372247 -41.97041828 76.36208209 -41.97910309 71.54039001 C-41.98698081 67.12123643 -41.98552366 62.70218518 -41.97681896 58.28303406 C-41.97528677 56.68953006 -41.97708944 55.09601838 -41.98267903 53.50252345 C-42.03732345 36.81076618 -40.81506466 22.93829703 -28.96942139 10.31039429 C-20.32194035 2.43124345 -11.38571527 -0.03960585 0 0 Z M-23.72723389 205.26742554 C-23.72723389 208.56742554 -23.72723389 211.86742554 -23.72723389 215.26742554 C-14.6522182 215.33689125 -5.57729383 215.3902192 3.49792957 215.42286205 C7.71178887 215.43852785 11.92546647 215.45978257 16.13922119 215.4937439 C20.2046303 215.52630511 24.26986448 215.54427167 28.33539391 215.55205727 C29.88757774 215.55760663 31.43975184 215.56844308 32.99186134 215.58461571 C35.16358871 215.60634761 37.33459035 215.60939434 39.50640869 215.60800171 C40.74328934 215.61466354 41.98016998 215.62132538 43.25453186 215.62818909 C46.19670181 215.47251606 46.19670181 215.47251606 48.19566345 214.18363953 C49.84442801 211.61677786 49.84442801 211.61677786 49.27276611 205.26742554 C25.18276611 205.26742554 1.09276611 205.26742554 -23.72723389 205.26742554 Z M-0.72723389 478.26742554 C-0.76848389 480.51555054 -0.80973389 482.76367554 -0.85223389 485.07992554 C-0.87543701 486.34449585 -0.89864014 487.60906616 -0.92254639 488.91195679 C-1.00305307 492.40122794 -1.00305307 492.40122794 1.27276611 495.26742554 C3.56079211 495.71620649 3.56079211 495.71620649 6.21026611 495.63070679 C7.67593018 495.62973999 7.67593018 495.62973999 9.17120361 495.62875366 C10.19471924 495.61264038 11.21823486 495.5965271 12.27276611 495.57992554 C13.29628174 495.58314819 14.31979736 495.58637085 15.37432861 495.58969116 C20.87343745 495.9105648 20.87343745 495.9105648 25.27276611 493.26742554 C25.41824445 490.67791109 25.45925664 488.22557163 25.39776611 485.64242554 C25.35651611 483.20867554 25.31526611 480.77492554 25.27276611 478.26742554 C16.69276611 478.26742554 8.11276611 478.26742554 -0.72723389 478.26742554 Z M191.27276611 478.26742554 C191.23151611 480.70117554 191.19026611 483.13492554 191.14776611 485.64242554 C191.12955811 486.407323 191.1113501 487.17222046 191.09259033 487.96029663 C191.07795442 489.73029828 191.17348098 491.50015009 191.27276611 493.26742554 C194.26648115 496.26114057 197.0777084 495.55998902 201.17120361 495.58969116 C202.19471924 495.58646851 203.21823486 495.58324585 204.27276611 495.57992554 C205.80803955 495.60409546 205.80803955 495.60409546 207.37432861 495.62875366 C208.83999268 495.62972046 208.83999268 495.62972046 210.33526611 495.63070679 C211.23374268 495.63368774 212.13221924 495.6366687 213.05792236 495.63973999 C213.7888208 495.51687622 214.51971924 495.39401245 215.27276611 495.26742554 C217.76395564 491.53064124 217.47928872 489.52290734 217.39776611 485.07992554 C217.35651611 482.83180054 217.31526611 480.58367554 217.27276611 478.26742554 C208.69276611 478.26742554 200.11276611 478.26742554 191.27276611 478.26742554 Z " fill="#000000" transform="translate(147.72723388671875,-0.267425537109375)"/>
<path d="M0 0 C3.91851711 0.64121189 5.06308226 1.45749219 7.4375 4.5625 C8.84784291 7.38318582 8.56673155 9.73233062 8.57121277 12.88827515 C8.57347833 13.54461366 8.57574388 14.20095218 8.57807809 14.87717974 C8.58443148 17.08659452 8.58358787 19.29594817 8.58276367 21.50537109 C8.58575435 23.08536356 8.58915666 24.6653553 8.59294128 26.24534607 C8.60179524 30.54494976 8.60411999 34.84453356 8.60475707 39.14414549 C8.60570518 42.73019962 8.60938239 46.31624909 8.61292917 49.90230143 C8.62107918 58.36162782 8.62351292 66.82094357 8.62280273 75.28027344 C8.62220193 84.01326578 8.6327531 92.74619636 8.6485464 101.47917306 C8.66161263 108.97051198 8.66698701 116.46183068 8.66634732 123.95318091 C8.66609205 128.43019824 8.66895947 132.90716071 8.67952538 137.38416672 C8.68919084 141.59482027 8.68929623 145.80536635 8.68200874 150.01602364 C8.68096093 151.56240177 8.68333739 153.10878655 8.6893692 154.65515327 C8.69706462 156.76448192 8.69246082 158.8734372 8.68473816 160.98275757 C8.68528293 162.16374212 8.68582769 163.34472668 8.68638897 164.56149864 C8.44152772 167.51393542 8.09623088 169.13710643 6.4375 171.5625 C2.68702518 174.06281654 0.87893734 174.09853554 -3.5625 173.5625 C-6.81273007 171.0160178 -8.37266257 169.51195131 -9.1917057 165.41559601 C-9.19359083 164.22468102 -9.19547596 163.03376602 -9.19741821 161.8067627 C-9.20521817 161.14039937 -9.21301812 160.47403604 -9.22105443 159.78747988 C-9.24094918 157.56152832 -9.22522231 155.33729139 -9.20947266 153.11132812 C-9.21625 151.51280216 -9.22515379 149.91428401 -9.23602295 148.31578064 C-9.25880938 143.97890757 -9.24998289 139.64262949 -9.23412752 135.30574608 C-9.22146504 130.76635515 -9.2332096 126.22701501 -9.24105835 121.68762207 C-9.25015391 114.06460426 -9.2381695 106.44182869 -9.21435547 98.81884766 C-9.18714429 90.00668376 -9.19595853 81.19509828 -9.2234875 72.3829484 C-9.24618027 64.81590274 -9.24937785 57.24903118 -9.23629415 49.68196249 C-9.22850054 45.16296502 -9.22745549 40.64423939 -9.24397659 36.1252594 C-9.25842465 31.87656656 -9.24839411 27.62861913 -9.21950531 23.38000679 C-9.2128962 21.82115987 -9.21478929 20.26225018 -9.22581863 18.70342827 C-9.23949453 16.57418579 -9.22233976 14.44732795 -9.19741821 12.3182373 C-9.19553308 11.12732231 -9.19364796 9.93640732 -9.1917057 8.70940399 C-8.12498472 3.37431482 -5.29900179 0.83668449 0 0 Z " fill="#000000" transform="translate(363.5625,225.4375)"/>
<path d="M0 0 C2.54400473 2.18226477 3.83652836 3.96582736 4.36556816 7.31269836 C4.51539992 10.29160982 4.52870376 13.24588856 4.50170898 16.22851562 C4.50711197 17.36238205 4.51251495 18.49624847 4.51808167 19.66447449 C4.5305875 23.41199861 4.51406449 27.15875732 4.49609375 30.90625 C4.49624869 33.51029501 4.4977369 36.11434025 4.50050354 38.71838379 C4.50320345 44.17579074 4.48974919 49.63297748 4.46655273 55.09033203 C4.43994416 61.39395643 4.43819659 67.69721272 4.4499411 74.00087404 C4.46073175 80.07230725 4.45442036 86.14358636 4.44038582 92.2150116 C4.43586726 94.79542148 4.43553804 97.37584218 4.43945122 99.95625305 C4.44235919 103.56155647 4.42587504 107.16625709 4.40405273 110.77148438 C4.40855438 111.83968918 4.41305603 112.90789398 4.41769409 114.00846863 C4.32587353 123.1315676 4.32587353 123.1315676 1 127 C-2.12942465 128.56471233 -5.61082223 128.69701958 -9 128 C-11.44845462 125.999937 -12.83308396 124.78095364 -13.50336456 121.64489746 C-13.50487267 120.76885864 -13.50638077 119.89281982 -13.50793457 118.99023438 C-13.52485352 117.47610962 -13.52485352 117.47610962 -13.54211426 115.93139648 C-13.52996887 114.27926147 -13.52996887 114.27926147 -13.51757812 112.59375 C-13.5245874 111.4291626 -13.53159668 110.2645752 -13.53881836 109.06469727 C-13.55644432 105.20955667 -13.54475841 101.35514826 -13.53125 97.5 C-13.53394357 94.82486047 -13.53781853 92.14974331 -13.54284668 89.47460938 C-13.55012197 83.8658045 -13.54053871 78.25721037 -13.52148438 72.6484375 C-13.49971557 66.16582093 -13.50676705 59.68370758 -13.52879 53.20110321 C-13.54694759 47.63323411 -13.54950066 42.06551641 -13.53903532 36.49762726 C-13.53280222 33.1730433 -13.53353198 29.84874748 -13.54518127 26.52416992 C-13.55531748 22.81784843 -13.53988485 19.11249893 -13.51757812 15.40625 C-13.52567505 14.30482666 -13.53377197 13.20340332 -13.54211426 12.06860352 C-13.53083496 11.05918701 -13.51955566 10.04977051 -13.50793457 9.00976562 C-13.50642647 8.13372681 -13.50491837 7.25768799 -13.50336456 6.35510254 C-12.82891006 3.19951786 -11.47386954 2.00753963 -9 0 C-5.39297148 -1.20234284 -3.64185324 -1.0405295 0 0 Z " fill="#000000" transform="translate(368,38)"/>
<path d="M0 0 C0.86367187 -0.00644531 1.72734375 -0.01289062 2.6171875 -0.01953125 C3.50664062 -0.00019531 4.39609375 0.01914062 5.3125 0.0390625 C6.64667969 0.01005859 6.64667969 0.01005859 8.0078125 -0.01953125 C12.54612191 0.01433673 14.68324194 0.19231784 18.40234375 2.98046875 C20.90583982 6.49765035 21.00455279 8.43485099 20.3125 12.6640625 C18.44541495 15.02903689 16.99188569 16.32436965 14.3125 17.6640625 C11.9795134 17.70428641 9.64543334 17.70726497 7.3125 17.6640625 C7.32138245 18.43192078 7.33026489 19.19977905 7.3394165 19.99090576 C7.41959026 27.22996705 7.48047805 34.46881285 7.51974869 41.70820236 C7.54061704 45.43000998 7.56891981 49.15145052 7.61425781 52.87304688 C7.65774413 56.4651576 7.68164277 60.05691545 7.69200897 63.6492691 C7.6993955 65.01923427 7.71382001 66.38918027 7.73542023 67.75899506 C7.7644848 69.67865639 7.76613416 71.5986734 7.76660156 73.51855469 C7.77548401 74.61109558 7.78436646 75.70363647 7.79351807 76.82928467 C7.19541764 80.3540625 6.10213622 81.49664527 3.3125 83.6640625 C-0.31313666 84.82118058 -1.95012402 84.9992334 -5.4375 83.4140625 C-7.6875 81.6640625 -7.6875 81.6640625 -9.6875 78.6640625 C-9.96165466 75.56558228 -9.96165466 75.56558228 -9.99389648 71.70166016 C-10.00222 70.99724289 -10.01054352 70.29282562 -10.01911926 69.56706238 C-10.04322318 67.23736043 -10.05199175 64.90793844 -10.05859375 62.578125 C-10.06755991 60.95771195 -10.07668176 59.33729976 -10.08595276 57.71688843 C-10.10244643 54.31905098 -10.11014352 50.92131212 -10.11303711 47.5234375 C-10.11842093 43.17300714 -10.15609821 38.82350533 -10.20178127 34.47333717 C-10.23154934 31.1258304 -10.2387606 27.77854728 -10.23976326 24.43091965 C-10.24396624 22.82734296 -10.25640382 21.22376565 -10.27728081 19.62031937 C-10.30419202 17.37460665 -10.29937301 15.13104646 -10.28686523 12.88525391 C-10.29193588 11.60856842 -10.29700653 10.33188293 -10.30223083 9.01651001 C-9.26972691 3.38572821 -5.76739446 0.04170636 0 0 Z " fill="#000000" transform="translate(155.6875,63.3359375)"/>
<path d="M0 0 C2.93744986 2.25957682 3.84599624 3.94261334 4.37890625 7.6015625 C4.56483227 12.05179175 4.44979202 15.13501535 2.375 19.125 C-0.54761168 21.43232501 -2.28662723 21.92421688 -6 22 C-9.84624466 20.95102418 -10.73691641 20.39462539 -13 17 C-13.3359375 14.00390625 -13.3359375 14.00390625 -13.375 10.5625 C-13.40335937 9.42941406 -13.43171875 8.29632813 -13.4609375 7.12890625 C-12.9104089 3.39184347 -11.92377342 2.29880326 -9 0 C-5.77839187 -1.61080407 -3.42436421 -0.82657067 0 0 Z " fill="#000000" transform="translate(368,409)"/>
</svg>
