<?xml version="1.0" standalone="no"?>
<!DOCTYPE svg PUBLIC "-//W3C//DTD SVG 20010904//EN"
 "http://www.w3.org/TR/2001/REC-SVG-20010904/DTD/svg10.dtd">
<svg version="1.0" xmlns="http://www.w3.org/2000/svg"
 width="512.000000pt" height="512.000000pt" viewBox="0 0 512.000000 512.000000"
 preserveAspectRatio="xMidYMid meet">

<g transform="translate(0.000000,512.000000) scale(0.100000,-0.100000)"
fill="#000000" stroke="none">
<path d="M2299 5021 c-24 -19 -24 -20 -27 -269 l-3 -250 -49 -12 c-141 -34
-230 -162 -230 -330 l0 -57 -82 -17 c-136 -28 -339 -86 -403 -115 -67 -31
-117 -81 -149 -150 l-21 -46 -3 -1479 c-1 -974 1 -1498 8 -1535 30 -163 128
-245 308 -257 l92 -7 0 -188 c0 -176 1 -190 20 -209 19 -19 33 -20 230 -20
197 0 211 1 230 20 19 19 20 33 20 210 l0 190 320 0 320 0 0 -190 c0 -177 1
-191 20 -210 19 -19 33 -20 230 -20 197 0 211 1 230 20 19 19 20 33 20 209 l0
189 98 4 c75 3 107 9 139 26 60 31 111 86 142 151 l26 56 0 1515 0 1515 -28
57 c-39 79 -93 123 -190 153 -86 27 -323 88 -397 102 l-45 9 -6 94 c-7 119
-34 185 -97 241 -25 21 -67 47 -94 56 l-48 18 0 77 0 78 409 0 c263 0 419 4
439 11 35 12 56 54 46 93 -14 57 -6 56 -522 56 l-473 0 -24 -25 c-24 -23 -25
-29 -25 -155 l0 -130 -150 0 -150 0 0 244 c0 231 -1 245 -21 270 -25 32 -75
35 -110 7z m609 -701 c42 -26 62 -74 62 -151 0 -58 -1 -61 -22 -56 -13 4 -86
11 -163 18 -134 11 -525 6 -602 -7 l-33 -6 0 56 c0 73 20 120 62 146 31 19 50
20 348 20 298 0 317 -1 348 -20z m7 -350 c274 -35 614 -118 671 -163 56 -44
54 -4 54 -1077 l0 -990 -1075 0 -1075 0 0 1003 c0 976 1 1003 20 1034 24 40
47 52 187 96 215 68 428 105 663 115 175 8 420 0 555 -18z m705 -2804 c0 -413
0 -413 -23 -447 -49 -73 17 -69 -1037 -69 -900 0 -947 1 -986 19 -23 10 -52
34 -65 52 l-24 34 -3 413 -3 412 1071 0 1070 0 0 -414z m-1535 -801 l0 -130
-97 -3 -98 -3 0 129 c0 71 3 132 7 136 4 4 48 5 98 4 l90 -3 0 -130z m1143 -3
l3 -133 -98 3 -98 3 -3 119 c-1 66 0 126 2 133 4 11 28 13 98 11 l93 -3 3
-133z"/>
<path d="M2507 3620 c-46 -36 -188 -302 -233 -437 -31 -93 -28 -146 11 -226
36 -72 79 -114 150 -148 146 -70 311 -13 384 133 56 110 41 208 -61 412 -133
266 -183 319 -251 266z m116 -337 c78 -164 86 -199 61 -260 -16 -40 -27 -52
-67 -72 -60 -30 -107 -23 -153 23 -39 39 -51 92 -34 149 14 52 121 277 130
277 4 0 32 -53 63 -117z"/>
<path d="M2437 1385 c-137 -51 -211 -218 -162 -366 26 -77 103 -152 180 -175
151 -43 305 39 347 186 16 59 14 156 -5 201 -23 55 -86 119 -142 145 -58 28
-156 31 -218 9z m169 -152 c30 -19 54 -73 54 -121 0 -51 -37 -97 -90 -113 -74
-22 -155 43 -155 126 0 102 108 163 191 108z"/>
<path d="M1811 1164 c-28 -35 -26 -69 4 -99 22 -22 32 -25 105 -25 73 0 83 3
105 25 30 30 32 64 4 99 -19 25 -25 26 -109 26 -84 0 -90 -1 -109 -26z"/>
<path d="M3047 1172 c-24 -26 -22 -87 3 -112 30 -30 166 -29 204 1 34 27 36
77 3 107 -20 19 -35 22 -109 22 -70 0 -88 -3 -101 -18z"/>
</g>
</svg>
