<?xml version="1.0" encoding="UTF-8"?>
<svg id="Layer_1" data-name="Layer 1" xmlns="http://www.w3.org/2000/svg" viewBox="0 0 1604 802">
  <defs>
    <style>
      .cls-1 {
        fill: #faccc3;
      }

      .cls-2 {
        fill: #eeb403;
      }

      .cls-3 {
        fill: #aee1ba;
      }

      .cls-4 {
        fill: #e23f2c;
      }

      .cls-5 {
        fill: #358da3;
      }

      .cls-6 {
        fill: #2ca14c;
      }

      .cls-7 {
        fill: #3c7deb;
      }
    </style>
  </defs>
  <path class="cls-4" d="M597.3,153.21c.32-.27,.64-.55,.96-.82,2.88-1.45,5.19-3.56,7.11-6.12,.53-.44,1.07-.87,1.6-1.31,4.62-3.44,9.15-7.02,13.89-10.29,10.05-6.93,20.21-13.69,30.33-20.52,.31-.02,.56-.16,.74-.41,.9-.38,1.85-.68,2.71-1.16,16.86-9.33,34.18-17.67,52.43-23.94,8.92-3.07,17.91-5.9,26.87-8.84,.65-.14,1.29-.28,1.94-.42,9.55-1.84,19.06-3.98,28.67-5.45,11.08-1.7,22.25-2.82,33.38-4.2,.66-.05,1.31-.1,1.97-.15,15.46,.26,30.94-.3,46.39,.99,41.79,3.49,81.55,14.14,119.09,33.01,12.66,6.36,24.48,14.08,36.67,21.22,.14,.24,.36,.38,.64,.41,1.41,1.79,3.17,3.05,5.36,3.7,0,0,.03,.02,.03,.02,.96,1.45,2.16,2.6,3.96,2.92,.13,.23,.32,.35,.58,.39,.74,1.39,1.81,2.36,3.4,2.68,.57,.42,1.14,.84,1.71,1.26,1.1,1.6,2.37,3,4.35,3.53,.14,.25,.36,.4,.64,.44,4.3,3.88,8.43,7.95,12.94,11.57,3.67,2.95,3.47,5.11,.17,8.31-7.72,7.51-15.63,14.83-22.63,23.05-.38,.36-.76,.71-1.14,1.07-2.98,2.28-5.84,4.68-7.81,7.95-.38,.37-.76,.74-1.14,1.11-7.63,6.64-14.75,13.79-21.41,21.4,0,0-.07,.07-.07,.07-5.96,4.98-11.4,10.47-16.41,16.4-.39,.36-.77,.72-1.16,1.07-4.41,4.25-9.01,8.32-13.16,12.81-2.98,3.22-4.95,2.95-8.15,.09-20.65-18.46-44.19-31.91-70.98-39.22-46.23-12.61-91.28-9.11-134.89,10.85-11.76,5.39-23.19,11.51-33.07,20.1-6.08,3.44-11.45,7.74-16.01,13.03,0,0,.01-.03,.01-.02-1.51,.42-2.46,1.46-3.1,2.84,0,0-.06,.06-.06,.06-2.02,.92-3.47,2.45-4.54,4.36,0,0-.05,.05-.05,.05-6.68,5.74-12.62,12.13-17.29,19.64,0,0-.02,.03-.02,.03-4.17,3.88-6.9,8.84-10.05,13.48-9.66,14.22-16.44,29.86-22.61,45.81-23.57-18.34-47.09-36.74-70.72-55-12.34-9.53-24.87-18.81-37.31-28.2,1.95-4.3,3.89-8.6,5.84-12.89,.22-.15,.34-.35,.36-.62,2.85-3.43,4.87-7.33,6.67-11.37,.22-.14,.33-.35,.35-.61,4.55-6.8,9.09-13.6,13.64-20.4,.22-.13,.34-.32,.37-.58,1.31-.8,2.13-1.97,2.54-3.44,.24-.13,.39-.32,.44-.59,1.77-1.38,3.15-3.05,3.94-5.17,0,0-.01,0-.01,0,.29-.38,.58-.77,.87-1.15,0,0,0,0,0,0,1.26-.5,1.92-1.48,2.22-2.76l-.23-.2s.25,.17,.25,.17c3.97-4.45,8.03-8.82,11.89-13.35,8.1-9.5,17.56-17.66,26.11-26.7Z"/>
  <path class="cls-6" d="M910.48,583.57c.26-.06,.49-.19,.69-.37,2.12-.2,3.83-1.19,5.31-2.67,.24-.06,.46-.17,.64-.35,2.06-.33,3.86-1.13,5.12-2.88,0,0,.05-.03,.05-.03,2.45-.61,4.62-1.68,6.21-3.72,.61-.38,1.22-.76,1.84-1.14,.57-.13,1.14-.26,1.71-.38,8.12,6.26,16.26,12.49,24.36,18.78,18.19,14.13,36.48,28.15,54.49,42.51,8.53,6.8,17.92,12.57,25.41,20.65-3.45,3.97-8.32,6.4-11.51,10.64,0,0-.1,.1-.1,.1-7.22,4.65-13.96,9.94-20.64,15.32h0c-3.81,1.63-7.29,3.74-10.27,6.65,0,0-.04,.03-.04,.03-6.31,2.75-12.32,6.03-17.88,10.09,0,0,0,0,0,0-2.07,.11-3.78,1.22-5.55,2.11-18.2,9.1-37.21,16.02-56.8,21.52-11.05,3.1-22.44,4.59-33.47,7.71-.62,.09-1.24,.18-1.87,.26-2.85-.66-5.53,.53-8.28,.83-8.62,.91-17.21,2.03-25.82,3.07-1.62,.09-3.25,.18-4.87,.27-13.44-.04-26.88-.08-40.32-.12-.97-.05-1.94-.09-2.9-.14-1.1-1.05-2.52-.7-3.8-.8-41.13-3.1-80.2-13.83-117.43-31.48-12.18-5.77-23.58-12.95-35.43-19.31,0,0-.06-.05-.06-.05-3.92-3.62-8.4-6.4-13.16-8.78-.17-.18-.38-.3-.61-.38-6.16-5.55-12.71-10.61-19.55-15.3-.19-.2-.42-.34-.68-.42-1.99-3.11-4.91-5.15-8.01-6.99,0,0-.03-.03-.03-.03-1.26-2.11-2.87-3.83-5.2-4.76h0c-.63-1.75-2.06-2.65-3.62-3.4-.11-.23-.27-.41-.49-.55-.5-1.84-2.03-2.63-3.53-3.44-.32-.33-.64-.65-.97-.98-2.06-2.93-4.52-5.49-7.42-7.6,0,0,0,0,0,0-.35-1.58-1.33-2.6-2.83-3.15,0,0,0,0,0,0-2.5-3.77-5.51-7.08-8.89-10.07,0,0-.03-.03-.03-.03-3.41-5.45-7.36-10.47-11.97-14.96l-.21,.18s.19-.2,.19-.2c-.11-1.41-.97-2.42-1.77-3.49-10.84-14.53-20.07-30.06-28.26-46.22,1.92-1.59,3.8-3.23,5.77-4.76,24.02-18.65,47.98-37.36,72.1-55.88,10.01-7.69,19.56-15.98,30.16-22.89,1.99,3.86,2.48,8.38,5.17,11.94,.03,.26,.14,.49,.32,.68,1.8,6.08,4.43,11.77,8.08,16.97,0,0,.01,.03,.01,.03,.11,1.63,.72,2.98,2.15,3.87h0c.05,1.38,.5,2.54,1.79,3.24,.07,.25,.19,.47,.37,.66,6.13,12.02,13.98,22.8,23.56,32.3,0,0,.09,.11,.09,.11,1.93,3,3.91,5.96,7.16,7.72,0,0,0,0,0,0,1.43,2.59,3.33,4.7,6.07,5.93h0c.31,1.38,1.27,2.03,2.56,2.31,0,0,.15,.14,.15,.14,.28,.28,.56,.56,.85,.84,0,0,.15,.14,.15,.14,3.21,3.46,6.56,6.75,10.87,8.88,0,0,.14,.11,.14,.11,1.95,2.49,4.41,4.3,7.35,5.48,.17,.19,.37,.32,.62,.39,3.65,3.28,7.55,6.16,12.24,7.82,0,0,0,0,0,0,.37,.81,1.03,1.15,1.9,1.17,.22,.21,.47,.35,.76,.42,.36,.2,.73,.4,1.09,.59,0,0,.1,.06,.1,.06,9.46,6.56,20.07,10.78,30.83,14.51,12.18,4.22,24.57,7.86,37.58,8.61,.63,.1,1.25,.2,1.88,.3,4.11,1.64,8.51,1.26,12.76,1.52,13.09,.78,26.19,.93,39.17-1.49,.63-.09,1.25-.18,1.88-.28,6.54,.22,12.84-1.44,19.12-2.81,15.09-3.3,29.95-7.4,43.51-15.15Z"/>
  <path class="cls-7" d="M963.86,543.86c9.96-12.77,18.98-26.11,25.2-41.17,4.46-10.78,7.94-21.83,9.9-34.12h-180.39v-128.93c1.55-1.32,3.47-.73,5.22-.73,99.99-.03,199.98,.03,299.97-.16,5.41,0,7.36,1.38,8.2,6.79,6.22,40.13,6.79,80.28,.91,120.46-6.4,43.83-20.05,85.17-42.97,123.24-6.52,10.83-13.28,21.51-21.83,30.91-1.05,.31-1.69,.98-1.85,2.09,0,0,.09-.07,.09-.07-.97,.21-1.18,.92-1.18,1.78,0,0-.13,.16-.13,.16-.31,.33-.62,.66-.93,1,0,0,.06,0,.06,0-3.17,.69-5.1,2.43-5.02,5.88,0,0-.1,.11-.1,.11-.3,.32-.6,.64-.9,.96,0,0-.05,.07-.05,.07-1.4-.06-2,.66-1.91,2.02,0,0,0-.05,0-.05-.34,.36-.68,.73-1.02,1.09,0,0,.07-.07,.07-.08-.36,.36-.71,.72-1.07,1.08,0,0,.11,0,.11,0-1.52-.15-2.19,.53-1.99,2.05,0,0-.02-.13-.02-.13-.35,.37-.7,.74-1.05,1.11,0,0,.07-.08,.07-.08-.35,.36-.7,.73-1.05,1.09,0,0,.07-.06,.07-.07-.35,.36-.7,.72-1.05,1.08,0,0,.09-.08,.09-.08-.97,.18-1.2,.91-1.27,1.75,0,0-.09,.11-.09,.11-.3,.31-.6,.62-.91,.93,0,0-.06,.06-.06,.06-.87,.06-1.61,.28-1.77,1.3,0,0,.12-.14,.12-.14-1.02,.17-1.25,.92-1.3,1.79,0,0-.04,.04-.04,.04-.87,.05-1.61,.29-1.82,1.29,0,0,.1-.14,.1-.15-.36,.37-.72,.73-1.08,1.1,0,0,.07-.1,.07-.1-.36,.36-.72,.72-1.08,1.08,0,0,.12,.05,.12,.04-1.87-.18-3.36-.98-4.89-2.15-10.82-8.21-21.55-16.53-32.32-24.8-21.68-16.64-43.26-33.41-64.9-50.09-1.91-1.47-2.11-2.67-1.36-4.55,0,0-.09,.04-.09,.04,3.12-.27,5.58-1.34,6.12-4.86,0,0,.06-.03,.06-.03,.91,.03,1.69-.13,1.88-1.21,0,0-.12,0-.12,.01,2.29,.44,2.54-1.44,3.23-2.83,0,0-.05,.06-.05,.06,.36-.34,.72-.68,1.08-1.02,0,0-.05,.05-.04,.05,.34-.34,.69-.67,1.03-1.01,0,0,.02-.02,.02-.02,1.16,.03,1.87-.48,2.01-1.67,0,0,.28-.28,.28-.28,.78-.1,1.44-.35,1.56-1.27,0,0-.1,.12-.1,.12,.92-.14,1.17-.81,1.26-1.61,.41-.41,.83-.83,1.24-1.24,1.08-.08,1.66-.66,1.76-1.74,0,0,.24-.26,.24-.26,.79-.1,1.45-.36,1.61-1.26,0,0-.09,.12-.09,.12,.89-.21,1.15-.86,1.2-1.68,0,0,.2-.24,.2-.24,1.29-.05,1.84-.75,1.78-2,0,0,0,.01,0,.01,.32-.35,.64-.71,.96-1.06Z"/>
  <path class="cls-1" d="M703.8,236.79c9.88-8.58,21.3-14.71,33.07-20.09,43.61-19.97,88.66-23.46,134.89-10.85,26.79,7.31,50.33,20.76,70.98,39.22,3.2,2.86,5.17,3.13,8.15-.09,4.15-4.49,8.75-8.56,13.16-12.81,.1,1.62-.63,2.85-1.75,3.96-3.79,3.74-7.46,7.6-11.34,11.25-2.96,2.79-5.85,2.86-9.13-.12-12.37-11.27-25.79-20.94-40.92-28.43-9.47-4.68-19.39-7.87-29.19-11.47-3.26-1.2-6.99-1.27-10.51-2.19-20.21-5.28-40.82-4.76-61.49-3.75-15.82,.77-30.86,5.14-45.57,10.15-4.91,1.67-10.96,2.64-15.14,7.55-1.74,2.04-6.54,2-9.86,3.58-6.33,3.02-11.67,7.53-17.72,10.95-2.49,1.41-4.78,2.8-7.63,3.13Z"/>
  <path class="cls-1" d="M527.9,239.98c-1.95,4.3-3.89,8.6-5.84,12.89-1.44,1.05-1.85,2.73-2.57,4.21-21.68,44.58-32.35,91.8-33.06,141.24-.39,27.05,2.99,53.76,9.2,80.13,2.9,12.33,7.09,24.25,10.61,36.39-.15,.11-.29,.23-.44,.34-4.25-4.38-4.87-10.39-6.53-15.76-5.87-18.93-9.92-38.24-12.47-57.98-1.89-14.67-2.55-29.36-2.47-44.01,.09-16.51,1.59-32.99,4.23-49.42,1.87-11.62,4.66-23.01,7.18-34.41,2.25-10.19,6.15-20.14,9.95-30.01,5.24-13.62,11.6-26.69,18.01-39.76,.9-1.83,1.9-3.55,4.21-3.85Z"/>
  <path class="cls-1" d="M1002.06,124.8c-12.19-7.14-24.01-14.86-36.67-21.22-37.54-18.87-77.29-29.52-119.09-33.01-15.46-1.29-30.93-.73-46.39-.99,.85-2.15,2.75-1.49,4.31-1.52,15.97-.24,31.98-.48,47.85,1.17,13.43,1.4,26.99,2.66,40.11,6.03,13.69,3.51,27.31,7.45,40.71,11.94,8.21,2.75,15.88,7.07,23.94,10.32,9.01,3.63,16.76,9.78,25.63,13.31,6.84,2.72,11.77,7.56,17.68,11.25,1.04,.65,1.84,1.42,1.93,2.72Z"/>
  <path class="cls-1" d="M630.09,336.07c6.17-15.95,12.95-31.59,22.61-45.81,3.15-4.64,5.88-9.6,10.05-13.48,.78,3.08-1.55,5.05-2.96,7.09-6.35,9.2-13.06,18.24-17.8,28.36-5.36,11.45-9.51,23.43-13.08,35.59-2.5,8.52-4.33,17.21-5.28,25.99-1.44,13.36-2.68,26.74-1.03,40.27,.9,7.36,.77,14.87,2.33,22.17,1.27,5.95,1.75,12.1,4.15,17.78,1.64,3.87,2.04,7.99,2.62,12.08-.44-.11-.88-.22-1.33-.33-1.73-5.88-3.69-11.71-5.16-17.66-5.58-22.65-6.67-45.59-4.38-68.77,1.46-14.79,5.26-29.05,9.25-43.28Z"/>
  <path class="cls-5" d="M936.84,568.72c-.75,1.88-.55,3.08,1.36,4.55,21.64,16.69,43.22,33.46,64.9,50.09,10.77,8.26,21.5,16.59,32.32,24.8,1.53,1.16,3.02,1.97,4.89,2.15-.26,.53-.53,1.05-.79,1.58-.23,.22-.46,.43-.69,.65,0,0-.27,.26-.27,.26-.26,.28-.53,.55-.8,.83,0,0-.11,.09-.11,.09-.45,.09-.9,.17-1.35,.26-7.49-8.09-16.88-13.85-25.41-20.65-18.01-14.37-36.3-28.38-54.49-42.51-8.1-6.29-16.24-12.52-24.36-18.78,.08-.29,.13-.59,.17-.88,1.55-.81,3.09-1.62,4.64-2.43Z"/>
  <path class="cls-3" d="M639.29,680.72c11.85,6.37,23.26,13.54,35.43,19.31,37.23,17.65,76.3,28.38,117.43,31.48,1.29,.1,2.7-.25,3.8,.8-5.08,1.25-10.27,.92-15.28,.13-15.71-2.45-31.35-5.21-46.81-9.18-9.53-2.45-19.32-4.71-28.25-8.28-9.44-3.78-19.17-7.15-28.39-11.77-11.7-5.86-22.76-12.85-34.54-18.52-1.74-.84-3.09-1.94-3.39-3.97Z"/>
  <path class="cls-3" d="M880.02,728.15c11.03-3.12,22.42-4.6,33.47-7.71,19.59-5.5,38.6-12.42,56.8-21.52,1.78-.89,3.48-1.99,5.55-2.11-5.99,5.48-13.8,7.59-20.9,10.91-14.25,6.66-29.36,11.11-44.47,15.31-8.26,2.3-16.86,3.37-25.17,5.65-1.63,.45-3.64,.69-5.28-.54Z"/>
  <path class="cls-1" d="M733.95,79.81c-8.96,2.94-17.96,5.77-26.87,8.84-18.25,6.28-35.57,14.61-52.43,23.94-.85,.47-1.8,.77-2.71,1.16,0-3.47,3.27-3.47,5.22-4.47,11.33-5.85,22.49-12.25,34.33-16.83,9.13-3.53,18.14-7.82,27.96-9.57,2.73-.49,5.42-1.59,7.94-2.8,2.25-1.08,4.3-1.56,6.55-.27Z"/>
  <path class="cls-3" d="M792.16,601.48c-13.01-.75-25.4-4.4-37.58-8.61-10.76-3.72-21.37-7.95-30.83-14.51,3.91,.3,7.26,2.35,10.51,4.11,8.57,4.63,17.44,7.97,27.01,10.01,3.98,.85,7.6,3.37,11.96,4.13,4.69,.82,9.27,2.35,14.07,2.93,1.62,.2,3.79-.04,4.86,1.94Z"/>
  <path class="cls-3" d="M910.48,583.57c-13.56,7.75-28.42,11.85-43.51,15.15-6.27,1.37-12.58,3.03-19.12,2.81,4.38-3.32,9.94-3.21,14.83-4.05,12.59-2.18,24.7-5.4,36.46-10.37,3.58-1.51,7.1-3.87,11.34-3.54Z"/>
  <path class="cls-1" d="M1013.2,183.09c7-8.22,14.91-15.54,22.63-23.05,3.29-3.2,3.5-5.36-.17-8.31-4.5-3.62-8.64-7.69-12.94-11.57,7.47,2.42,12.23,8.32,17.35,13.7,1.83,1.93,.78,4.18-.85,5.79-7.2,7.14-14.49,14.17-21.72,21.28-1.22,1.2-2.45,2.27-4.3,2.16Z"/>
  <path class="cls-1" d="M651.2,114.15c-10.12,6.83-20.28,13.59-30.33,20.52-4.74,3.27-9.27,6.85-13.89,10.29,.23-2.16,1.6-3.46,3.25-4.73,6.72-5.17,12.86-11.34,20.16-15.45,6.74-3.79,12.73-9.39,20.81-10.63Z"/>
  <path class="cls-1" d="M597.3,153.21c-8.56,9.05-18.01,17.21-26.11,26.7-3.87,4.53-7.92,8.91-11.89,13.35,.27-3.73,3.01-6.15,5.02-8.83,5.59-7.46,12.33-13.89,19.09-20.26,3.43-3.23,5.76-7.61,10.23-9.78,1.19-.58,2.23-1.44,3.67-1.19Z"/>
  <path class="cls-1" d="M797.94,69.73c-11.13,1.37-22.3,2.49-33.38,4.2-9.61,1.48-19.12,3.61-28.67,5.45,3.76-3.93,9.12-2.8,13.67-4.22,11.41-3.56,23.38-4.1,35.14-5.74,4.36-.61,8.86-1.19,13.24,.32Z"/>
  <path class="cls-3" d="M522.19,550.09c8.19,16.16,17.41,31.68,28.26,46.22,.8,1.07,1.66,2.08,1.77,3.49-6.73-4-10.12-10.93-13.64-17.24-4.09-7.33-8.79-14.29-12.74-21.7-1.87-3.5-3.85-6.87-4.88-10.73,.17-.21,.33-.43,.5-.64,.32,.12,.56,.31,.74,.59Z"/>
  <path class="cls-3" d="M845.96,601.81c-12.98,2.42-26.08,2.28-39.17,1.49-4.25-.25-8.65,.13-12.76-1.52,5.06-1.39,10.37-1.16,15.3-.41,10.52,1.61,20.88-.99,31.3-.21,1.78,.13,3.68-.6,5.33,.64Z"/>
  <path class="cls-3" d="M671.67,536.25c-9.58-9.5-17.43-20.28-23.56-32.3,3.73,1.02,4.43,4.88,6.17,7.41,5.44,7.87,10.97,15.63,17.07,22.99,.35,.43,.22,1.25,.32,1.9Z"/>
  <path class="cls-1" d="M520.95,550.13c-2.55-1.03-3.59-3.37-4.52-5.61-3.02-7.28-5.86-14.64-9.69-21.56-1.36-2.45-.31-5.23-.94-7.79,.14-.11,.29-.23,.44-.34,5.07,11.55,10.14,23.11,15.22,34.66-.17,.21-.33,.43-.5,.64Z"/>
  <path class="cls-3" d="M798.86,732.46c13.44,.04,26.88,.08,40.32,.12-.82,1.41-2.21,1.27-3.53,1.27-11.12,.02-22.25,.02-33.37,.02-1.32,0-2.72,.11-3.42-1.41Z"/>
  <path class="cls-3" d="M844.05,732.31c8.6-1.04,17.2-2.15,25.82-3.07,2.76-.29,5.43-1.49,8.28-.83-2.8,2.94-6.7,2.42-10.12,2.8-7.95,.87-15.9,2.8-23.98,1.1Z"/>
  <path class="cls-1" d="M981.69,214.62c6.66-7.61,13.79-14.75,21.41-21.4-.43,4.73-4.59,7.01-7.41,9.61-4.45,4.1-7.28,10.36-14,11.79Z"/>
  <path class="cls-1" d="M662.77,276.75c4.66-7.52,10.61-13.9,17.29-19.64-.67,4.03-3.7,6.92-6.34,9.14-3.9,3.29-5.66,8.78-10.95,10.5Z"/>
  <path class="cls-3" d="M1004.04,680.04c6.68-5.38,13.42-10.67,20.64-15.32-5.99,6.3-11.81,12.84-20.64,15.32Z"/>
  <path class="cls-3" d="M605.92,656.21c6.83,4.69,13.38,9.75,19.55,15.3-.82,.04-2.01,.46-2.39,.08-5.44-5.44-13.11-8.4-17.16-15.38Z"/>
  <path class="cls-1" d="M548.91,206.98c-4.55,6.8-9.1,13.6-13.64,20.4-.9-2.43,.69-4.46,1.91-5.81,4.2-4.65,5.41-11.7,11.73-14.59Z"/>
  <path class="cls-1" d="M965.21,231.09c5.01-5.92,10.45-11.42,16.41-16.4-.04,.64,.18,1.53-.16,1.88-5.09,5.2-9.21,11.51-16.25,14.52Z"/>
  <path class="cls-1" d="M687.79,249.82c4.56-5.29,9.94-9.59,16.01-13.03-4.26,5.66-9.32,10.35-16.01,13.03Z"/>
  <path class="cls-3" d="M552.23,599.81c4.61,4.49,8.56,9.51,11.97,14.96-5.83-3.51-9.73-8.58-11.97-14.96Z"/>
  <path class="cls-3" d="M975.84,696.81c5.57-4.06,11.58-7.34,17.88-10.09-5.13,4.84-10.74,8.82-17.88,10.09Z"/>
  <path class="cls-3" d="M1036.29,653.98c.45-.08,.9-.17,1.35-.26-1.62,5.17-7.4,6.48-9.96,10.61-1.33,2.14-1.93,.54-2.91,.29,3.19-4.24,8.06-6.68,11.51-10.64Z"/>
  <path class="cls-3" d="M643.79,496.15c-3.66-5.2-6.29-10.89-8.08-16.97,4.22,4.93,7.71,10.21,8.08,16.97Z"/>
  <path class="cls-1" d="M534.92,227.99c-1.8,4.04-3.82,7.95-6.67,11.37-.08-5.88,2.46-10.22,6.67-11.37Z"/>
  <path class="cls-3" d="M626.07,671.9c4.75,2.38,9.23,5.16,13.16,8.78-5.01-2-10.4-3.41-13.16-8.78Z"/>
  <path class="cls-3" d="M699.57,562.32c-4.3-2.13-7.66-5.41-10.87-8.88,5.8,.29,8.22,4.73,10.87,8.88Z"/>
  <path class="cls-3" d="M564.23,614.81c3.38,2.99,6.39,6.3,8.89,10.07-4.42-2.07-8.48-4.46-8.89-10.07Z"/>
  <path class="cls-3" d="M719.91,576.12c-4.69-1.66-8.59-4.54-12.24-7.82,5.23,.8,8.82,4.18,12.24,7.82Z"/>
  <path class="cls-3" d="M630.38,465.78c.44,.11,.89,.22,1.33,.33,.67,4.29,4.82,7.55,3.68,12.38-2.69-3.56-3.17-8.08-5.17-11.93-.07-.28-.02-.54,.16-.78Z"/>
  <path class="cls-3" d="M678.92,544.08c-3.26-1.77-5.23-4.72-7.16-7.72,5.71-.51,5.36,4.61,7.16,7.72Z"/>
  <path class="cls-1" d="M1004.24,192.11c1.97-3.28,4.83-5.67,7.81-7.95-.81,4.41-3.25,7.23-7.81,7.95Z"/>
  <path class="cls-3" d="M993.76,686.69c2.97-2.91,6.46-5.02,10.27-6.65-2.56,3.54-5.79,6.05-10.27,6.65Z"/>
  <path class="cls-3" d="M575.97,628.04c2.91,2.11,5.36,4.67,7.42,7.6-4.25-.8-7.15-2.92-7.42-7.6Z"/>
  <path class="cls-3" d="M597.22,648.8c3.1,1.84,6.03,3.87,8.01,6.99-3.95-.86-6.57-3.25-8.01-6.99Z"/>
  <path class="cls-3" d="M707.05,567.91c-2.93-1.18-5.4-2.98-7.35-5.48,4.08-.37,6.07,2.08,7.35,5.48Z"/>
  <path class="cls-1" d="M605.38,146.26c-1.92,2.56-4.23,4.67-7.11,6.12,.49-4.23,3.31-5.74,7.11-6.12Z"/>
  <path class="cls-3" d="M684.99,550.01c-2.75-1.23-4.65-3.34-6.07-5.93,4.06-.11,5.15,2.82,6.07,5.93Z"/>
  <path class="cls-1" d="M1008.05,128.92c-2.19-.65-3.96-1.91-5.36-3.7,2.92-.41,5.37-.14,5.36,3.7Z"/>
  <path class="cls-5" d="M942.86,563.9c-.53,3.52-3,4.59-6.12,4.86,1.68-2.07,3.74-3.66,6.12-4.86Z"/>
  <path class="cls-3" d="M928.48,573.56c-1.59,2.05-3.76,3.11-6.21,3.72,1.32-2.49,2.76-4.79,6.21-3.72Z"/>
  <path class="cls-3" d="M591.99,644.01c2.34,.93,3.94,2.66,5.2,4.76-2.7-.53-4.97-1.53-5.2-4.76Z"/>
  <path class="cls-5" d="M1059.12,631c-.08-3.46,1.85-5.2,5.02-5.88-1.22,2.35-2.97,4.24-5.02,5.88Z"/>
  <path class="cls-1" d="M680.11,257.06c1.07-1.91,2.51-3.44,4.54-4.36,.33,3.37-1.52,4.47-4.54,4.36Z"/>
  <path class="cls-3" d="M916.47,580.54c-1.47,1.47-3.19,2.47-5.31,2.67,.39-3.63,2.81-3.22,5.31-2.67Z"/>
  <path class="cls-1" d="M556.2,197.2c-.79,2.12-2.17,3.8-3.94,5.17-.41-3.04,.69-4.93,3.94-5.17Z"/>
  <path class="cls-1" d="M1022.07,139.72c-1.98-.52-3.25-1.92-4.35-3.53,2.76-.44,4.29,.64,4.35,3.53Z"/>
  <path class="cls-1" d="M1012.04,131.87c-1.8-.33-2.99-1.47-3.96-2.92,2.03,.01,4.07,0,3.96,2.92Z"/>
  <path class="cls-3" d="M922.22,577.31c-1.26,1.76-3.06,2.55-5.12,2.88,1.05-2.12,2.84-2.93,5.12-2.88Z"/>
  <path class="cls-3" d="M588.37,640.61c1.56,.75,2.99,1.65,3.62,3.4-2.16-.11-3.95-.63-3.62-3.4Z"/>
  <path class="cls-3" d="M584.35,636.62c1.5,.81,3.02,1.61,3.53,3.44-2.1-.2-3.88-.73-3.53-3.44Z"/>
  <path class="cls-1" d="M684.7,252.64c.63-1.38,1.58-2.42,3.1-2.84,.06,2.13-.84,3.23-3.1,2.84Z"/>
  <path class="cls-1" d="M1016.02,134.93c-1.59-.32-2.66-1.29-3.4-2.68,2.07-.3,3.15,.65,3.4,2.68Z"/>
  <path class="cls-1" d="M551.82,202.96c-.41,1.47-1.23,2.64-2.54,3.44-.5-2.14,.11-3.47,2.54-3.44Z"/>
  <path class="cls-3" d="M573.13,624.88c1.5,.55,2.48,1.57,2.83,3.15-1.82-.26-2.84-1.24-2.83-3.15Z"/>
  <path class="cls-5" d="M947.91,559.84c-.69,1.38-.94,3.27-3.23,2.83,.6-1.48,1.82-2.27,3.23-2.83Z"/>
  <path class="cls-3" d="M687.56,552.32c-1.29-.28-2.26-.93-2.56-2.31,1.48,.07,2.95,.16,2.56,2.31Z"/>
  <path class="cls-3" d="M645.95,500.05c-1.42-.9-2.04-2.24-2.15-3.87,1.9,.63,2.25,2.13,2.15,3.87Z"/>
  <path class="cls-3" d="M647.73,503.29c-1.29-.7-1.74-1.86-1.79-3.25,2.07,.27,2.01,1.72,1.79,3.25Z"/>
  <path class="cls-1" d="M559.28,193.29c-.3,1.28-.96,2.26-2.22,2.76-.04-1.55-.04-3.07,2.22-2.76Z"/>
  <path class="cls-5" d="M1052.25,638.28c-.2-1.52,.47-2.2,1.99-2.05-.27,1.07-.9,1.78-1.99,2.05Z"/>
  <path class="cls-5" d="M1056.17,634.17c-.09-1.36,.51-2.07,1.91-2.02-.34,.96-.97,1.63-1.91,2.02Z"/>
  <path class="cls-5" d="M951.95,556.24c-.15,1.19-.86,1.7-2.01,1.67,.67-.56,1.34-1.11,2.01-1.67Z"/>
  <path class="cls-5" d="M957.96,550.22c-.1,1.07-.69,1.65-1.76,1.74,.59-.58,1.18-1.16,1.76-1.74Z"/>
  <path class="cls-5" d="M1066.22,622.27c.15-1.11,.8-1.78,1.85-2.09-.28,1-.84,1.74-1.85,2.09Z"/>
  <path class="cls-5" d="M962.89,544.91c.06,1.25-.49,1.95-1.78,2,.59-.67,1.18-1.34,1.78-2Z"/>
  <path class="cls-5" d="M953.8,554.69c-.12,.91-.78,1.17-1.56,1.27,.23-.78,.77-1.18,1.56-1.27Z"/>
  <path class="cls-5" d="M1065.14,623.97c0-.86,.2-1.57,1.18-1.78-.39,.59-.78,1.19-1.18,1.78Z"/>
  <path class="cls-5" d="M1048.04,642.94c.07-.84,.29-1.56,1.27-1.75-.07,.84-.5,1.42-1.27,1.75Z"/>
  <path class="cls-5" d="M960.92,547.15c-.05,.81-.31,1.47-1.2,1.68,.06-.81,.48-1.35,1.2-1.68Z"/>
  <path class="cls-5" d="M1045.21,645.34c.15-1.02,.9-1.25,1.77-1.3-.32,.8-.9,1.25-1.77,1.3Z"/>
  <path class="cls-5" d="M1044.03,646.99c.05-.87,.28-1.62,1.3-1.79-.04,.88-.51,1.45-1.3,1.79Z"/>
  <path class="cls-5" d="M1042.18,648.32c.2-1,.94-1.24,1.82-1.29-.35,.79-.92,1.27-1.82,1.29Z"/>
  <path class="cls-5" d="M959.81,548.71c-.16,.9-.82,1.16-1.61,1.26,.26-.77,.81-1.18,1.61-1.26Z"/>
  <path class="cls-5" d="M954.96,553.2c-.09,.79-.34,1.46-1.26,1.61,.07-.81,.51-1.33,1.26-1.61Z"/>
  <path class="cls-3" d="M721.81,577.28c-.86-.01-1.52-.36-1.9-1.17,.93-.1,1.61,.22,1.9,1.17Z"/>
  <path class="cls-3" d="M932.2,571.15c-.04,.3-.09,.59-.17,.88-.57,.13-1.14,.25-1.71,.38,.14-1.14,.94-1.31,1.88-1.27Z"/>
  <path class="cls-5" d="M944.8,562.66c-.19,1.08-.97,1.25-1.88,1.21,.63-.41,1.25-.81,1.88-1.21Z"/>
  <path class="cls-5" d="M1054.14,636.22c.36-.36,.71-.72,1.07-1.08-.36,.36-.71,.72-1.07,1.08Z"/>
  <path class="cls-5" d="M1058.13,632.08c.3-.32,.6-.64,.9-.96-.3,.32-.6,.64-.9,.96Z"/>
  <path class="cls-5" d="M1064.08,625.13c.31-.33,.62-.67,.93-1-.31,.33-.62,.66-.93,1Z"/>
  <path class="cls-5" d="M1051.19,639.25c.35-.37,.7-.74,1.05-1.11-.06,.64-.4,1.02-1.05,1.11Z"/>
  <path class="cls-5" d="M1050.2,640.26c.35-.36,.7-.73,1.05-1.09-.35,.36-.7,.73-1.05,1.09Z"/>
  <path class="cls-5" d="M1049.22,641.28c.35-.36,.7-.72,1.05-1.08-.35,.36-.7,.72-1.05,1.08Z"/>
  <path class="cls-5" d="M1047.04,643.98c.3-.31,.61-.62,.91-.93-.3,.31-.61,.62-.91,.93Z"/>
  <path class="cls-5" d="M1041.19,649.28c.36-.37,.72-.73,1.08-1.1-.04,.68-.41,1.03-1.08,1.1Z"/>
  <path class="cls-5" d="M963.86,543.86c-.32,.35-.64,.71-.96,1.06,.32-.35,.64-.71,.96-1.06Z"/>
  <path class="cls-5" d="M1040.18,650.26c.36-.36,.72-.72,1.08-1.08-.06,.67-.45,.99-1.08,1.08Z"/>
  <path class="cls-3" d="M1038.82,652.54c.23-.22,.46-.43,.69-.65,.09,.55-.18,.73-.69,.65Z"/>
  <path class="cls-3" d="M1037.75,653.63c.27-.28,.53-.55,.8-.83,.07,.6-.22,.85-.8,.83Z"/>
  <path class="cls-1" d="M557.06,196.04c-.29,.38-.58,.77-.87,1.15,.29-.38,.58-.77,.87-1.15Z"/>
  <path class="cls-3" d="M723.65,578.3c-.36-.2-.73-.4-1.09-.59,.6-.24,.96-.03,1.09,.59Z"/>
  <path class="cls-3" d="M688.55,553.3c-.28-.28-.56-.56-.85-.84,.65-.08,.93,.2,.85,.84Z"/>
  <path class="cls-5" d="M948.93,558.89c-.36,.34-.72,.68-1.08,1.02,.36-.34,.72-.68,1.08-1.02Z"/>
  <path class="cls-5" d="M949.92,557.93c-.34,.34-.69,.67-1.03,1.01,.34-.34,.69-.67,1.03-1.01Z"/>
  <path class="cls-5" d="M1055.14,635.21c.34-.36,.68-.73,1.02-1.09-.34,.36-.68,.73-1.02,1.09Z"/>
  <path class="cls-2" d="M630.38,465.78c-.18,.23-.24,.49-.16,.78-10.6,6.91-20.15,15.2-30.16,22.89-24.11,18.52-48.08,37.23-72.1,55.88-1.97,1.53-3.85,3.17-5.77,4.76-.18-.28-.43-.48-.74-.59-5.07-11.55-10.14-23.11-15.22-34.66-3.52-12.13-7.71-24.06-10.61-36.39-6.21-26.36-9.59-53.08-9.2-80.13,.71-49.44,11.38-96.66,33.06-141.24,.72-1.48,1.13-3.16,2.57-4.21,12.44,9.39,24.98,18.67,37.31,28.2,23.63,18.26,47.15,36.66,70.72,55-3.99,14.23-7.78,28.49-9.25,43.28-2.29,23.18-1.2,46.12,4.38,68.77,1.47,5.95,3.43,11.78,5.16,17.66Z"/>
</svg>