<svg width="636" height="608" viewBox="0 0 636 608" fill="none" xmlns="http://www.w3.org/2000/svg">
<path d="M93.055 274.383C112.266 217.455 154.359 165.932 210.074 131.149C265.789 96.3661 330.562 81.1725 390.144 88.9105L317.71 303.559L93.055 274.383Z" fill="#3871C1" fill-opacity="0.04" stroke="#000F52" stroke-linecap="round" stroke-dasharray="14 14"/>
<mask id="mask0_1626_1545" style="mask-type:luminance" maskUnits="userSpaceOnUse" x="215" y="334" width="200" height="117">
<path d="M415 334.573H215V450.812H415V334.573Z" fill="white"/>
</mask>
<g mask="url(#mask0_1626_1545)">
<path d="M215 385.734L303.135 334.817L415 399.505L326.865 450.422L215 385.734Z" fill="#D5D2D8"/>
</g>
<mask id="mask1_1626_1545" style="mask-type:luminance" maskUnits="userSpaceOnUse" x="326" y="399" width="89" height="55">
<path d="M415 399.474H326.51V453.896H415V399.474Z" fill="white"/>
</mask>
<g mask="url(#mask1_1626_1545)">
<path d="M415 399.505V402.979L326.865 453.896V450.422L415 399.505Z" fill="#7C7387"/>
</g>
<mask id="mask2_1626_1545" style="mask-type:luminance" maskUnits="userSpaceOnUse" x="215" y="385" width="112" height="69">
<path d="M326.922 385.505H215V453.896H326.922V385.505Z" fill="white"/>
</mask>
<g mask="url(#mask2_1626_1545)">
<path d="M326.864 450.375V453.896L215 389.208V385.734L326.864 450.375Z" fill="#686172"/>
</g>
<path d="M325.547 287.963H331.172L333.141 361.406C333.141 362.698 331 363.739 328.359 363.739C325.719 363.739 323.578 362.698 323.578 361.406L325.547 287.963Z" fill="#E6E7E8"/>
<path d="M324.328 333.432C327.641 333.099 331.276 326.703 332.141 324.068L332.062 321.271L325.651 328.985L324.464 328.297L324.328 333.432Z" fill="#C4B6C9"/>
<mask id="mask3_1626_1545" style="mask-type:luminance" maskUnits="userSpaceOnUse" x="291" y="263" width="74" height="66">
<path d="M365 263H291.667V329H365V263Z" fill="white"/>
</mask>
<g mask="url(#mask3_1626_1545)">
<path d="M325.651 328.984L292.323 309.693L331.068 263.104L364.396 282.37L325.651 328.984Z" fill="#DDDDD9"/>
</g>
<path d="M341.875 293.974L341.896 293.953L349.468 298.308L344.291 304.532L336.109 299.787L340.562 294.443C340.968 294.521 341.474 294.36 341.875 293.974ZM333.942 289.386L340.041 292.891C339.791 293.36 339.791 293.881 340.093 294.198L340.114 294.214L335.682 299.537L328.812 295.552L333.942 289.386ZM342.291 292.365L347.385 286.245C347.807 286.375 348.369 286.219 348.802 285.802L348.859 285.74L356.338 290.037L349.786 297.927L342.198 293.563C342.437 293.151 342.479 292.693 342.291 292.365ZM347.328 284.25L347.297 284.282L341.135 280.74L346.89 273.823L353.776 277.802L348.765 283.818C348.338 283.672 347.771 283.828 347.328 284.25ZM346.979 285.969L341.932 292.032C341.5 291.828 340.875 291.969 340.401 292.427L340.333 292.495L334.26 289.006L340.817 281.12L347 284.672C346.734 285.131 346.713 285.636 346.979 285.969ZM349.166 284.104L354.208 278.047L362.38 282.771L356.656 289.657L349.151 285.344C349.39 284.907 349.406 284.427 349.166 284.104Z" fill="#3A3A77"/>
<path d="M326.026 284.713L326.047 284.693L333.62 289.042L328.443 295.271L320.266 290.526L324.714 285.182C325.12 285.26 325.625 285.094 326.026 284.713ZM318.094 280.125L324.198 283.63C323.943 284.099 323.948 284.62 324.25 284.937L324.266 284.953L319.839 290.276L312.964 286.292L318.094 280.125ZM326.443 283.099L331.536 276.984C331.964 277.114 332.521 276.958 332.958 276.542L333.016 276.479L340.495 280.776L333.937 288.661L326.349 284.302C326.594 283.89 326.635 283.432 326.443 283.099ZM331.479 274.989L331.453 275.021L325.292 271.479L331.047 264.557L337.932 268.542L332.922 274.557C332.495 274.411 331.922 274.568 331.479 274.989ZM331.13 276.708L326.089 282.771C325.651 282.568 325.026 282.708 324.552 283.167L324.484 283.234L318.411 279.745L324.974 271.859L331.151 275.411C330.891 275.864 330.87 276.375 331.13 276.708ZM333.318 274.844L338.359 268.786L346.531 273.51L340.812 280.396L333.307 276.083C333.547 275.646 333.557 275.167 333.318 274.844Z" fill="#3A3A77"/>
<path d="M323.432 316.24L323.453 316.219L331.031 320.573L325.854 326.797L317.672 322.052L322.12 316.708C322.526 316.787 323.037 316.62 323.432 316.24ZM315.505 311.651L321.604 315.156C321.349 315.625 321.354 316.146 321.656 316.458L321.677 316.479L317.245 321.802L310.37 317.818L315.505 311.651ZM323.854 314.625L328.948 308.505C329.37 308.636 329.932 308.479 330.365 308.068L330.422 308.005L337.901 312.302L331.344 320.188L323.755 315.828C324 315.417 324.042 314.958 323.854 314.625ZM328.891 306.516L328.86 306.547L322.698 303.005L328.453 296.083L335.339 300.063L330.328 306.083C329.901 305.938 329.328 306.094 328.891 306.516ZM328.542 308.235L323.495 314.297C323.063 314.094 322.432 314.235 321.958 314.688L321.896 314.755L315.818 311.271L322.38 303.386L328.557 306.932C328.297 307.391 328.276 307.901 328.542 308.235ZM330.724 306.37L335.766 300.313L343.943 305.037L338.219 311.922L330.714 307.61C330.953 307.172 330.969 306.693 330.724 306.37Z" fill="#3A3A77"/>
<path d="M307.589 306.979L307.609 306.958L315.182 311.307L310.005 317.536L301.823 312.792L306.276 307.443C306.682 307.526 307.187 307.359 307.589 306.979ZM299.656 302.39L305.755 305.89C305.505 306.364 305.505 306.88 305.807 307.198L305.828 307.219L301.396 312.542L294.526 308.552L299.656 302.39ZM308.005 305.364L313.099 299.245C313.521 299.375 314.083 299.219 314.516 298.802L314.573 298.745L322.052 303.042L315.5 310.927L307.911 306.568C308.151 306.156 308.193 305.698 308.005 305.364ZM313.042 297.255L313.016 297.281L306.849 293.739L312.609 286.823L319.49 290.802L314.479 296.823C314.057 296.677 313.484 296.833 313.042 297.255ZM312.693 298.969L307.646 305.036C307.214 304.828 306.589 304.974 306.109 305.427L306.047 305.495L299.974 302.005L306.531 294.12L312.714 297.672C312.448 298.13 312.427 298.64 312.693 298.969ZM314.88 297.104L319.922 291.052L328.094 295.776L322.37 302.661L314.865 298.349C315.104 297.911 315.12 297.427 314.88 297.104Z" fill="#3A3A77"/>
<path d="M331.021 320.568L331.339 320.187L330.63 319.781C330.547 319.916 330.458 320.052 330.37 320.193L331.021 320.568ZM337.885 312.297L338.203 311.911L335.771 310.515C335.698 310.661 335.63 310.812 335.557 310.958L337.885 312.297ZM343.922 305.026L362.375 282.781L356.656 289.656L349.151 285.344C349.391 284.906 349.406 284.427 349.167 284.104L354.208 278.047L359.474 281.094L346.5 273.547L340.812 280.396L339.937 279.896C340 280.114 340.057 280.338 340.12 280.562L340.495 280.776L340.245 281.073C340.292 281.265 340.339 281.453 340.38 281.646L340.818 281.12L347 284.672C346.734 285.13 346.714 285.635 346.979 285.969L341.932 292.031C341.802 291.969 341.656 291.943 341.505 291.943C341.37 291.943 341.234 291.963 341.099 292.005C341.036 292.818 340.948 293.635 340.833 294.458C341.182 294.437 341.557 294.276 341.875 293.974L341.896 293.953L349.469 298.307L344.292 304.531L339.25 301.609C339.193 301.812 339.13 302.015 339.062 302.219L343.922 305.026ZM348.859 285.739L356.339 290.036L349.786 297.927L342.198 293.562C342.437 293.151 342.479 292.693 342.292 292.364L347.385 286.245C347.484 286.271 347.589 286.286 347.698 286.286C348.062 286.286 348.469 286.12 348.802 285.802L348.859 285.739ZM348.432 283.765C348.068 283.765 347.661 283.932 347.328 284.25L347.297 284.281L341.135 280.739L346.891 273.823L353.776 277.802L348.766 283.818C348.661 283.786 348.547 283.765 348.432 283.765ZM336.203 271.375L338.349 268.802L337.917 268.552L335.937 270.932C336.026 271.083 336.115 271.229 336.203 271.375ZM332.302 265.286L331.052 264.557C331.052 264.562 331.057 264.562 331.057 264.568L332.302 265.286Z" fill="#E1E1DF"/>
<path d="M344.292 304.532L349.469 298.308L341.896 293.953L341.875 293.974C341.557 294.276 341.182 294.438 340.833 294.459C340.51 296.808 339.979 299.188 339.25 301.61L344.292 304.532ZM349.786 297.927L356.339 290.037L348.859 285.74L348.802 285.802C348.469 286.12 348.062 286.287 347.698 286.287C347.589 286.287 347.484 286.271 347.385 286.245L342.292 292.365C342.479 292.693 342.437 293.151 342.198 293.563L349.786 297.927ZM341.932 292.032L346.979 285.969C346.714 285.636 346.734 285.131 347 284.672L340.818 281.12L340.38 281.646C341.135 285.006 341.365 288.459 341.099 292.006C341.234 291.964 341.37 291.943 341.505 291.943C341.656 291.943 341.802 291.969 341.932 292.032ZM356.656 289.657L362.375 282.782L359.474 281.094L354.208 278.047L349.167 284.104C349.406 284.427 349.391 284.907 349.151 285.344L356.656 289.657ZM347.297 284.282L347.328 284.25C347.661 283.933 348.068 283.766 348.432 283.766C348.547 283.766 348.661 283.787 348.766 283.818L353.776 277.802L346.891 273.823L341.135 280.74L347.297 284.282Z" fill="#7F7FA4"/>
<path d="M340.245 281.073L340.495 280.776L340.12 280.563C340.161 280.729 340.203 280.901 340.245 281.073ZM340.812 280.396L346.5 273.547L338.349 268.802L336.203 271.375C337.875 274.136 339.115 276.979 339.937 279.896L340.812 280.396ZM335.937 270.932L337.917 268.552L332.302 265.287L331.057 264.568C332.964 266.641 334.583 268.766 335.937 270.932Z" fill="#7F7FA4"/>
<path d="M325.855 326.797L331.021 320.568L330.37 320.193C328.985 322.37 327.48 324.573 325.855 326.797ZM331.339 320.188L337.886 312.297L335.558 310.958C334.162 313.849 332.511 316.792 330.631 319.781L331.339 320.188ZM338.204 311.911L343.922 305.026L339.063 302.219C338.209 304.938 337.11 307.703 335.771 310.516L338.204 311.911Z" fill="#7F7FA4"/>
<path d="M280.771 319.005V353.261L230.401 382.422V348.172L280.771 319.005Z" fill="#808285"/>
<path d="M361.88 308.828H367.505L369.474 382.271C369.474 383.562 367.333 384.604 364.693 384.604C362.052 384.604 359.912 383.562 359.912 382.271L361.88 308.828Z" fill="#E6E7E8"/>
<path d="M360.661 354.297C363.974 353.958 367.604 347.568 368.474 344.932L368.401 342.307L368.396 342.135L361.984 349.849L360.797 349.161L360.661 354.297Z" fill="#C4B6C9"/>
<path d="M361.984 349.849L328.656 330.552L367.401 283.969L400.729 303.234L361.984 349.849Z" fill="#DDDDD9"/>
<path d="M378.203 314.838L378.229 314.818L385.802 319.167L380.625 325.396L372.443 320.651L376.89 315.307C377.302 315.385 377.807 315.219 378.203 314.838ZM370.276 310.25L376.375 313.755C376.125 314.224 376.125 314.745 376.427 315.057L376.448 315.078L372.015 320.401L365.146 316.417L370.276 310.25ZM378.625 313.229L383.719 307.104C384.14 307.239 384.703 307.078 385.135 306.667L385.193 306.604L392.672 310.901L386.12 318.786L378.531 314.427C378.771 314.015 378.812 313.557 378.625 313.229ZM383.661 305.114L383.63 305.146L377.469 301.604L383.224 294.682L390.109 298.661L385.099 304.682C384.672 304.536 384.104 304.693 383.661 305.114ZM383.312 306.833L378.265 312.896C377.833 312.693 377.208 312.833 376.729 313.292L376.667 313.354L370.594 309.87L377.151 301.984L383.333 305.536C383.068 305.989 383.047 306.5 383.312 306.833ZM385.5 304.969L390.536 298.911L398.713 303.635L392.989 310.521L385.484 306.208C385.724 305.771 385.739 305.292 385.5 304.969Z" fill="#3A3A77"/>
<path d="M362.36 305.578L362.38 305.557L369.953 309.906L364.776 316.135L356.599 311.391L361.047 306.047C361.453 306.12 361.958 305.958 362.36 305.578ZM354.427 300.99L360.526 304.49C360.276 304.964 360.281 305.479 360.583 305.797L360.604 305.818L356.172 311.141L349.297 307.156L354.427 300.99ZM362.776 303.964L367.87 297.844C368.297 297.974 368.854 297.818 369.287 297.406L369.349 297.344L376.828 301.641L370.271 309.526L362.682 305.167C362.927 304.755 362.964 304.297 362.776 303.964ZM367.813 295.854L367.787 295.88L361.62 292.344L367.38 285.422L374.266 289.401L369.255 295.422C368.828 295.276 368.255 295.432 367.813 295.854ZM367.464 297.573L362.417 303.635C361.985 303.427 361.36 303.573 360.886 304.026L360.818 304.094L354.745 300.604L361.302 292.724L367.485 296.271C367.219 296.729 367.203 297.24 367.464 297.573ZM369.651 295.708L374.693 289.651L382.865 294.375L377.141 301.26L369.641 296.948C369.875 296.51 369.896 296.026 369.651 295.708Z" fill="#3A3A77"/>
<path d="M359.765 337.104L359.786 337.083L367.359 341.432L362.182 347.661L354.005 342.917L358.453 337.573C358.864 337.646 359.369 337.484 359.765 337.104ZM351.833 332.51L357.937 336.015C357.682 336.489 357.687 337.005 357.989 337.323L358.01 337.344L353.578 342.667L346.703 338.682L351.833 332.51ZM360.182 335.489L365.276 329.37C365.703 329.5 366.26 329.344 366.698 328.927L366.755 328.87L374.234 333.167L367.677 341.052L360.093 336.693C360.333 336.276 360.375 335.823 360.182 335.489ZM365.218 327.38L365.192 327.406L359.031 323.87L364.786 316.948L371.672 320.927L366.661 326.948C366.234 326.802 365.661 326.958 365.218 327.38ZM364.875 329.094L359.828 335.161C359.396 334.953 358.765 335.099 358.291 335.552L358.224 335.62L352.151 332.13L358.713 324.25L364.89 327.797C364.63 328.255 364.609 328.765 364.875 329.094ZM367.057 327.234L372.099 321.177L380.271 325.901L374.552 332.786L367.047 328.474C367.286 328.036 367.302 327.552 367.057 327.234Z" fill="#3A3A77"/>
<path d="M343.922 327.844L343.942 327.818L351.515 332.172L346.338 338.401L338.156 333.656L342.609 328.307C343.015 328.385 343.521 328.224 343.922 327.844ZM335.989 323.25L342.088 326.755C341.838 327.229 341.838 327.745 342.14 328.062L342.161 328.083L337.729 333.406L330.859 329.417L335.989 323.25ZM344.338 326.229L349.432 320.109C349.854 320.24 350.416 320.083 350.849 319.667L350.906 319.609L358.385 323.906L351.833 331.792L344.244 327.432C344.484 327.016 344.526 326.557 344.338 326.229ZM349.375 318.12L349.343 318.146L343.182 314.604L348.937 307.688L355.823 311.667L350.812 317.687C350.385 317.542 349.817 317.693 349.375 318.12ZM349.026 319.833L343.979 325.901C343.547 325.693 342.922 325.839 342.448 326.292L342.38 326.359L336.307 322.87L342.864 314.984L349.047 318.536C348.781 318.995 348.76 319.505 349.026 319.833ZM351.213 317.969L356.255 311.917L364.427 316.635L358.703 323.526L351.203 319.214C351.437 318.771 351.453 318.292 351.213 317.969Z" fill="#3A3A77"/>
<path d="M367.354 341.432L367.672 341.047L366.964 340.641C366.88 340.781 366.792 340.917 366.703 341.052L367.354 341.432ZM374.219 333.156L374.537 332.776L372.104 331.38C372.031 331.526 371.964 331.672 371.891 331.823L374.219 333.156ZM380.25 325.885L398.708 303.646L392.99 310.521L385.485 306.208C385.724 305.771 385.74 305.292 385.5 304.969L390.537 298.911L395.891 302.005L382.839 294.411L377.141 301.26L376.271 300.76C376.333 300.979 376.391 301.203 376.453 301.427L376.828 301.641L376.578 301.937C376.625 302.125 376.672 302.318 376.714 302.51L377.151 301.984L383.333 305.536C383.068 305.99 383.047 306.5 383.313 306.833L378.266 312.896C378.136 312.833 377.99 312.802 377.833 312.802C377.703 312.802 377.568 312.828 377.427 312.87C377.365 313.682 377.281 314.5 377.167 315.323C377.511 315.302 377.891 315.141 378.203 314.839L378.229 314.818L385.802 319.167L380.625 325.396L375.583 322.474C375.521 322.677 375.458 322.88 375.396 323.083L380.25 325.885ZM385.193 306.604L392.672 310.901L386.12 318.786L378.531 314.427C378.771 314.016 378.813 313.557 378.625 313.229L383.719 307.104C383.818 307.135 383.922 307.151 384.031 307.151C384.396 307.151 384.802 306.984 385.136 306.667L385.193 306.604ZM384.766 304.63C384.401 304.63 383.995 304.797 383.662 305.115L383.63 305.146L377.469 301.604L383.224 294.682L390.11 298.661L385.099 304.682C384.995 304.646 384.886 304.63 384.766 304.63ZM372.537 292.24L374.682 289.667L374.25 289.417L372.271 291.797C372.36 291.943 372.448 292.089 372.537 292.24ZM368.776 286.229L367.386 285.422C367.386 285.422 367.391 285.427 367.396 285.432L368.776 286.229Z" fill="#E1E1DF"/>
<path d="M380.625 325.396L385.802 319.167L378.229 314.818L378.203 314.838C377.891 315.14 377.511 315.302 377.167 315.323C376.844 317.667 376.313 320.052 375.583 322.474L380.625 325.396ZM386.12 318.786L392.672 310.901L385.193 306.604L385.136 306.667C384.802 306.984 384.396 307.151 384.031 307.151C383.922 307.151 383.818 307.135 383.719 307.104L378.625 313.229C378.813 313.557 378.771 314.015 378.531 314.427L386.12 318.786ZM378.266 312.896L383.313 306.833C383.047 306.5 383.068 305.989 383.333 305.536L377.151 301.984L376.714 302.51C377.469 305.864 377.698 309.323 377.427 312.87C377.568 312.828 377.703 312.802 377.833 312.802C377.99 312.802 378.136 312.833 378.266 312.896ZM392.99 310.521L398.708 303.646L395.891 302.005L390.537 298.911L385.5 304.969C385.74 305.292 385.724 305.771 385.485 306.208L392.99 310.521ZM383.63 305.146L383.662 305.114C383.995 304.797 384.401 304.63 384.766 304.63C384.886 304.63 384.995 304.646 385.099 304.682L390.11 298.661L383.224 294.682L377.469 301.604L383.63 305.146Z" fill="#7F7FA4"/>
<path d="M376.578 301.938L376.828 301.641L376.453 301.427C376.495 301.594 376.536 301.766 376.578 301.938ZM377.14 301.261L382.838 294.412L374.682 289.667L372.536 292.24C374.208 295 375.443 297.844 376.271 300.761L377.14 301.261ZM372.271 291.797L374.25 289.417L368.776 286.229L367.396 285.433C369.297 287.506 370.917 289.625 372.271 291.797Z" fill="#7F7FA4"/>
<path d="M362.182 347.662L367.354 341.432L366.703 341.052C365.318 343.235 363.812 345.432 362.182 347.662ZM367.672 341.047L374.219 333.156L371.891 331.823C370.49 334.714 368.844 337.656 366.964 340.641L367.672 341.047ZM374.536 332.776L380.25 325.886L375.396 323.083C374.542 325.802 373.443 328.568 372.104 331.38L374.536 332.776Z" fill="#7F7FA4"/>
<path d="M362.323 366.214V400.464L280.771 353.261V319.005L362.323 366.214Z" fill="#BABABA"/>
<path d="M280.771 353.26L362.323 400.463L329.094 419.703L283.308 393.203L266.172 403.125L230.407 382.422L280.771 353.26Z" fill="#6D6E71"/>
<path d="M362.318 400.463L362.323 400.458V366.213L352.99 371.62V395.062L362.318 400.463ZM352.5 394.776V371.906L340.011 379.135V387.547L352.5 394.776ZM339.521 387.265V379.417L332.745 383.344L339.521 387.265Z" fill="#64627B"/>
<path d="M329.093 419.703L339.521 413.661V387.266L332.744 383.344L329.093 385.453V419.703ZM340.01 413.38L352.5 406.151V394.776L340.01 387.547V413.38ZM352.989 405.865L362.317 400.464L352.989 395.063V405.865Z" fill="#55536C"/>
<path d="M325.083 413.307L323.187 410.276C323.093 410.854 322.911 411.396 322.656 411.901L325.083 413.307ZM313.276 406.469C314.239 404.969 315.921 403.979 317.833 403.979C318.369 403.979 318.89 404.057 319.38 404.203L309.64 388.661V398.25C311.453 399.13 312.697 400.99 312.697 403.146C312.697 404.089 312.458 404.979 312.036 405.75L313.276 406.469ZM302.645 400.318C302.692 400.234 302.744 400.156 302.802 400.078C302.802 400.073 302.802 400.073 302.807 400.073C302.807 400.068 302.807 400.068 302.807 400.068C303.786 398.641 305.421 397.708 307.276 397.708C307.937 397.708 308.567 397.823 309.151 398.042V387.88L298.286 370.536V391.828C300.375 392.583 301.869 394.589 301.869 396.948C301.869 397.87 301.64 398.74 301.234 399.5L302.645 400.318ZM291.848 394.068C292.807 392.531 294.51 391.51 296.447 391.51C296.911 391.51 297.364 391.568 297.796 391.677V369.755L297.375 369.078L287.536 363.38V385.313L288.838 386.078C288.812 386.073 288.791 386.068 288.765 386.063C289.395 386.458 289.937 386.979 290.359 387.589C290.843 388.286 291.229 389.193 291.317 390.365C291.317 390.411 291.312 390.453 291.312 390.495C291.312 390.552 291.317 390.615 291.317 390.677C291.317 391.646 291.062 392.563 290.614 393.354L291.848 394.068ZM287.041 385.026V363.099L283.307 360.938V382.844L287.041 385.026Z" fill="#777291"/>
<path d="M230.406 382.417L239.87 376.937V361.14L234.453 352.495L230.406 350.151V382.417ZM240.359 376.656L247.135 372.734L240.359 361.922V376.656Z" fill="#7B7695"/>
<path d="M266.172 403.12L255.833 386.62V397.135L266.172 403.12ZM255.344 396.854V385.839L247.135 372.734L240.359 376.656V388.182L255.344 396.854ZM239.87 387.896V376.938L230.406 382.417L239.87 387.896Z" fill="#777291"/>
<path d="M283.308 360.938L274.74 365.896V365.932L283.308 360.938ZM266.183 370.917L274.25 366.214V366.177L266.183 370.849V370.917Z" fill="#55536C"/>
<path d="M329.093 419.698V387.438L321.546 383.073V405.458C322.598 406.448 323.255 407.854 323.255 409.417C323.255 409.708 323.229 409.995 323.187 410.276L325.083 413.307L329.093 415.625V419.698ZM321.057 405.047V382.786L309.64 376.177V388.661L319.38 404.203C319.994 404.385 320.557 404.672 321.057 405.047ZM309.151 387.88V375.896L298.286 369.604V370.536L309.151 387.88ZM297.796 369.755V369.323L297.375 369.078L297.796 369.755Z" fill="#83829B"/>
<path d="M280.771 319.005L362.323 366.214L329.094 385.453L283.308 358.953L266.172 368.875L230.407 348.167L280.771 319.005Z" fill="#F2F2F2"/>
<path d="M266.182 403.133V403.12H266.173L266.182 403.133Z" fill="#9695AA"/>
<path d="M266.182 403.117V403.115L266.18 403.117H266.182Z" fill="#8F8CA4"/>
<path d="M255.833 367.698L258.271 366.286L255.833 364.875V367.698Z" fill="#84839C"/>
<path d="M266.172 403.12V370.854L258.271 366.287L255.833 367.698V386.62L266.172 403.12Z" fill="#83829B"/>
<path d="M266.172 403.12L266.182 403.115V370.849L266.172 370.854V403.12Z" fill="#7C7C94"/>
<path d="M247.135 372.734L255.344 367.979V364.588L240.359 355.917V361.922L247.135 372.734Z" fill="#84839C"/>
<path d="M255.344 385.838V367.979L247.135 372.734L255.344 385.838Z" fill="#83829B"/>
<path d="M239.87 361.14V355.63L234.453 352.495L239.87 361.14Z" fill="#84839C"/>
<path d="M352.5 406.156L352.989 405.87V405.865L352.5 406.151V406.156Z" fill="#2D334F"/>
<path d="M352.989 395.062V371.62L352.5 371.906V394.776L352.989 395.062Z" fill="#2A2D55"/>
<path d="M352.5 406.151L352.989 405.864V395.062L352.5 394.776V406.151Z" fill="#23264B"/>
<path d="M339.521 413.667L340.01 413.386V413.38L339.521 413.662V413.667Z" fill="#2D334F"/>
<path d="M340.01 387.547V379.135L339.521 379.417V387.265L340.01 387.547Z" fill="#2A2D55"/>
<path d="M339.521 413.661L340.01 413.38V387.547L339.521 387.266V413.661Z" fill="#23264B"/>
<path d="M274.25 366.214L274.74 365.932V365.896L274.25 366.177V366.214Z" fill="#23264B"/>
<path d="M309.641 398.25V388.662L309.151 387.88V398.042C309.318 398.104 309.484 398.172 309.641 398.25Z" fill="#323465"/>
<path d="M309.641 388.662V376.177L309.151 375.896V387.88L309.641 388.662Z" fill="#373B6C"/>
<path d="M255.833 397.146V397.14L255.343 396.854V396.859L255.833 397.146Z" fill="#596096"/>
<path d="M255.833 397.14V397.135L255.343 396.854L255.833 397.14Z" fill="#2D334F"/>
<path d="M255.833 397.135V386.62L255.343 385.838V396.854L255.833 397.135Z" fill="#323465"/>
<path d="M255.343 367.979L255.833 367.698V364.875L255.343 364.588V367.979Z" fill="#373C6D"/>
<path d="M255.833 386.62V367.698L255.343 367.979V385.838L255.833 386.62Z" fill="#373B6C"/>
<path d="M240.359 388.187V388.182L239.87 387.901V387.906L240.359 388.187Z" fill="#596096"/>
<path d="M240.359 388.182L239.87 387.896V387.901L240.359 388.182Z" fill="#2D334F"/>
<path d="M239.87 376.938L240.359 376.656V361.922L239.87 361.141V376.938Z" fill="#343668"/>
<path d="M240.359 388.182V376.656L239.87 376.938V387.896L240.359 388.182Z" fill="#323465"/>
<path d="M240.359 361.922V355.917L239.87 355.63V361.141L240.359 361.922Z" fill="#373C6D"/>
<path d="M321.546 405.458V383.073L321.057 382.787V405.047C321.229 405.172 321.39 405.313 321.546 405.458Z" fill="#373B6C"/>
<path d="M287.536 385.313V363.38L287.041 363.099V385.026L287.536 385.313Z" fill="#323465"/>
<path d="M298.286 391.828V370.537L297.797 369.755V391.677C297.963 391.724 298.13 391.771 298.286 391.828Z" fill="#323465"/>
<path d="M298.286 370.537V369.604L297.797 369.323V369.756L298.286 370.537Z" fill="#373B6C"/>
<path d="M280.771 319.005L362.323 366.214L329.094 385.453L283.308 358.953L266.172 368.875L230.407 348.167L280.771 319.005Z" fill="#E6E7E8"/>
<path d="M280.771 314.349V320.995L233.828 348.167V341.526L280.771 314.349Z" fill="#939598"/>
<path d="M266.172 364.213V370.854L226.974 348.167V341.526L266.172 364.213Z" fill="#E6E7E8"/>
<path d="M283.308 354.292V360.938L266.172 370.854V364.214L283.308 354.292Z" fill="#939598"/>
<path d="M329.093 380.792V387.438L283.307 360.938V354.292L329.093 380.792Z" fill="#E6E7E8"/>
<path d="M358.896 359.568V366.214L280.771 320.995V314.349L358.896 359.568Z" fill="#BCBEC0"/>
<path d="M358.896 359.568L329.094 376.828L283.307 350.323L266.172 360.245L233.828 341.526L280.771 314.349L358.896 359.568ZM329.094 380.792L365.75 359.568L280.771 310.38L226.974 341.526L266.172 364.214L283.307 354.292L329.094 380.792Z" fill="#F1F2F2"/>
<path d="M365.75 359.568V366.214L329.094 387.438V380.792L365.75 359.568Z" fill="#939598"/>
<path d="M311.812 429.536L329.093 419.703L321.604 415.37V416.219C322.067 416.469 322.338 416.766 322.338 417.089C322.338 417.969 320.291 418.682 317.77 418.682C315.911 418.682 314.307 418.292 313.598 417.734C313.515 417.823 313.437 417.911 313.348 417.99V420.896C313.817 421.146 314.083 421.443 314.083 421.76C314.083 422.641 312.036 423.359 309.515 423.359C308.994 423.359 308.5 423.328 308.036 423.271L311.812 425.458V429.536ZM305 421.516C305.114 421.266 305.395 421.031 305.807 420.833V417.99C304.786 417.005 304.156 415.62 304.156 414.089C304.156 414.083 304.156 414.083 304.156 414.083C304.156 414.078 304.156 414.078 304.156 414.078C304.156 413.401 304.286 412.75 304.51 412.151C304.51 412.146 304.515 412.146 304.515 412.146C304.515 412.141 304.515 412.141 304.515 412.141C304.515 412.135 304.515 412.135 304.515 412.135C304.52 412.125 304.526 412.115 304.531 412.109C303.885 411.943 303.369 411.724 303.041 411.469C302.963 411.557 302.88 411.641 302.796 411.724V414.625C303.26 414.875 303.531 415.172 303.531 415.49C303.531 416.375 301.484 417.089 298.963 417.089C298.302 417.089 297.677 417.036 297.109 416.953L305 421.516ZM294.406 415.385C294.463 415.078 294.765 414.797 295.25 414.563V411.724C294.234 410.734 293.604 409.349 293.604 407.818C293.604 407.813 293.604 407.813 293.604 407.813C293.604 407.161 293.718 406.542 293.927 405.964C293.177 405.797 292.578 405.552 292.213 405.271C292.135 405.359 292.052 405.443 291.968 405.526V408.427C292.432 408.677 292.697 408.974 292.697 409.292C292.697 410.172 290.656 410.891 288.13 410.891C287.531 410.891 286.958 410.849 286.432 410.776L294.406 415.385ZM283.588 409.125C283.671 408.844 283.968 408.583 284.421 408.365V405.526C283.406 404.536 282.77 403.151 282.77 401.62C282.77 401.615 282.77 401.615 282.77 401.615C282.77 400.917 282.906 400.25 283.145 399.641C282.505 399.474 281.989 399.255 281.661 399C281.578 399.089 281.5 399.172 281.411 399.255V402.156C281.875 402.406 282.145 402.703 282.145 403.021C282.145 403.901 280.098 404.615 277.578 404.615C277.031 404.615 276.51 404.583 276.026 404.526V404.755L275.489 404.443L283.588 409.125Z" fill="#9A989F"/>
<path d="M283.308 389.12V393.198L266.183 403.136V399.058L283.308 389.12Z" fill="#414954"/>
<path d="M329.093 415.625V419.703L283.307 393.198V389.12L329.093 415.625Z" fill="#595E66"/>
<path d="M282.161 340.125L293.755 333.417L284.14 327.849L272.552 334.563L282.161 340.125Z" fill="#C4B6C9"/>
<path d="M288.797 324.573V330.542L277.203 337.255V331.281L288.797 324.573Z" fill="#9C9DA0"/>
<path d="M267.589 325.719V331.693L277.203 337.255V331.281L267.589 325.719Z" fill="#D1D3D4"/>
<path d="M279.182 319.005L288.797 324.573L277.203 331.281L267.594 325.719L279.182 319.005Z" fill="#F1F2F2"/>
<path d="M274.005 322.505C276.385 321.125 280.245 321.125 282.625 322.505C285.005 323.886 285.005 326.12 282.625 327.495C280.245 328.875 276.385 328.875 274.005 327.495C271.625 326.12 271.625 323.886 274.005 322.505Z" fill="#939598"/>
<path d="M282.505 324.886C280.125 323.511 276.261 323.511 273.88 324.886C273.266 325.245 272.813 325.651 272.516 326.094C271.834 324.87 272.328 323.474 274.005 322.505C276.386 321.125 280.245 321.125 282.625 322.505C284.396 323.531 284.849 325.026 283.99 326.292C283.703 325.776 283.209 325.297 282.505 324.886Z" fill="#6D6E71"/>
<path d="M276.989 326.198L274.323 324.656C274.583 324.531 274.859 324.422 275.14 324.328L277.682 325.802C277.729 325.787 277.776 325.776 277.823 325.766V323.865C278.151 323.849 278.479 323.849 278.802 323.87V325.766C278.854 325.776 278.901 325.787 278.948 325.797L281.396 324.38C281.672 324.484 281.937 324.594 282.193 324.724L279.64 326.198L279.698 326.287H283.995C283.864 326.479 283.703 326.667 283.505 326.849H279.698L279.64 326.932L281.495 328.005C281.198 328.109 280.896 328.203 280.578 328.276L278.948 327.333C278.901 327.344 278.854 327.359 278.802 327.365V328.516C278.479 328.531 278.151 328.531 277.823 328.516V327.365C277.776 327.359 277.729 327.344 277.682 327.333L276.052 328.276C275.734 328.203 275.427 328.115 275.135 328.005L276.989 326.932L276.932 326.849H273.12C272.927 326.667 272.765 326.479 272.635 326.287H276.932L276.989 326.198Z" fill="#7A7C7F"/>
<path d="M277.823 326.281C278.093 326.125 278.536 326.125 278.802 326.281C279.073 326.437 279.073 326.693 278.802 326.849C278.536 327.005 278.093 327.005 277.823 326.849C277.557 326.693 277.557 326.437 277.823 326.281Z" fill="#BCBEC0"/>
<path d="M259.516 353.26L271.109 346.547L261.495 340.984L249.906 347.693L259.516 353.26Z" fill="#C4B6C9"/>
<path d="M266.146 337.703V343.677L254.557 350.385V344.417L266.146 337.703Z" fill="#9C9DA0"/>
<path d="M244.943 338.849V344.823L254.557 350.386V344.417L244.943 338.849Z" fill="#D1D3D4"/>
<path d="M256.531 332.141L266.146 337.703L254.557 344.417L244.943 338.849L256.531 332.141Z" fill="#F1F2F2"/>
<path d="M251.354 335.635C253.735 334.26 257.599 334.26 259.979 335.635C262.36 337.015 262.36 339.25 259.979 340.63C257.594 342.005 253.735 342.005 251.354 340.63C248.974 339.25 248.974 337.015 251.354 335.635Z" fill="#939598"/>
<path d="M259.854 338.021C257.474 336.64 253.615 336.64 251.234 338.021C250.62 338.375 250.167 338.786 249.87 339.224C249.182 338.005 249.677 336.609 251.354 335.635C253.734 334.26 257.599 334.26 259.979 335.635C261.745 336.661 262.198 338.156 261.344 339.427C261.052 338.911 260.563 338.427 259.854 338.021Z" fill="#6D6E71"/>
<path d="M254.343 339.333L251.672 337.786C251.932 337.667 252.213 337.557 252.494 337.463L255.036 338.932C255.083 338.917 255.13 338.906 255.177 338.896V336.995C255.505 336.984 255.833 336.984 256.156 337.005V338.896C256.203 338.906 256.25 338.917 256.302 338.932L258.75 337.515C259.026 337.614 259.291 337.729 259.541 337.854L256.989 339.333L257.052 339.417H261.338L261.343 339.422V339.417H261.349C261.213 339.609 261.052 339.802 260.859 339.979H257.052L256.989 340.062L258.849 341.14C258.552 341.245 258.244 341.338 257.932 341.411L256.302 340.463C256.25 340.479 256.203 340.489 256.156 340.5V341.646C255.828 341.661 255.505 341.661 255.177 341.646V340.5C255.13 340.489 255.083 340.479 255.036 340.463L253.401 341.411C253.088 341.338 252.781 341.245 252.484 341.14L254.343 340.062L254.281 339.979H250.474C250.281 339.802 250.119 339.609 249.984 339.417H254.281L254.343 339.333Z" fill="#7A7C7F"/>
<path d="M255.178 339.417C255.448 339.255 255.886 339.26 256.157 339.417C256.428 339.573 256.428 339.828 256.157 339.979C255.886 340.14 255.448 340.14 255.178 339.984C254.907 339.828 254.907 339.573 255.178 339.417Z" fill="#BCBEC0"/>
<path d="M330.583 371.667L342.177 364.953L332.563 359.391L320.974 366.099L330.583 371.667Z" fill="#C4B6C9"/>
<path d="M337.214 356.109V362.083L325.625 368.792V362.823L337.214 356.109Z" fill="#9C9DA0"/>
<path d="M316.01 357.255V363.229L325.625 368.792V362.823L316.01 357.255Z" fill="#D1D3D4"/>
<path d="M327.604 350.547L337.214 356.109L325.625 362.823L316.011 357.255L327.604 350.547Z" fill="#F1F2F2"/>
<path d="M322.427 354.047C324.807 352.667 328.667 352.667 331.047 354.047C333.427 355.422 333.427 357.656 331.047 359.036C328.667 360.417 324.807 360.417 322.427 359.036C320.042 357.656 320.042 355.422 322.427 354.047Z" fill="#939598"/>
<path d="M330.927 356.427C328.541 355.047 324.682 355.047 322.302 356.427C321.687 356.781 321.234 357.193 320.937 357.63C320.255 356.411 320.75 355.016 322.427 354.047C324.807 352.667 328.666 352.667 331.047 354.047C332.817 355.068 333.271 356.563 332.411 357.833C332.125 357.318 331.63 356.833 330.927 356.427Z" fill="#6D6E71"/>
<path d="M325.412 357.74L322.745 356.193C323.006 356.073 323.282 355.964 323.563 355.87L326.104 357.339C326.151 357.323 326.198 357.313 326.25 357.302V355.401C326.573 355.391 326.901 355.391 327.224 355.412V357.302C327.271 357.313 327.323 357.323 327.37 357.339L329.818 355.922C330.094 356.021 330.36 356.136 330.615 356.261L328.058 357.74L328.12 357.823H332.407L332.412 357.828L332.417 357.823C332.282 358.016 332.12 358.209 331.927 358.386H328.12L328.058 358.469L329.917 359.547C329.62 359.651 329.318 359.74 329 359.818L327.37 358.87C327.323 358.886 327.271 358.896 327.224 358.907V360.058C326.901 360.068 326.573 360.068 326.25 360.058V358.907C326.198 358.896 326.151 358.886 326.104 358.87L324.474 359.818C324.157 359.745 323.854 359.651 323.552 359.547L325.412 358.474L325.349 358.386H321.542C321.349 358.209 321.188 358.016 321.058 357.823H325.349L325.412 357.74Z" fill="#7A7C7F"/>
<path d="M326.245 357.823C326.516 357.667 326.953 357.667 327.224 357.823C327.495 357.979 327.495 358.234 327.224 358.39C326.953 358.547 326.516 358.547 326.245 358.39C325.974 358.234 325.974 357.979 326.245 357.823Z" fill="#BCBEC0"/>
<path d="M329.093 415.625V419.703L311.812 429.536V425.458L329.093 415.625Z" fill="#595E66"/>
<path d="M283.145 399.641C283.234 399.412 283.338 399.193 283.453 398.979C283.02 398.792 282.666 398.547 282.427 398.25C282.385 398.203 282.348 398.151 282.317 398.099C282.13 398.422 281.906 398.724 281.661 399C281.989 399.255 282.505 399.474 283.145 399.641Z" fill="#83788A"/>
<path d="M289.667 392.776V397.484C289.354 400.203 282.297 399.989 282.12 397.484V392.776H289.667Z" fill="#E6E7E8"/>
<path d="M282.427 398.248C282.391 398.202 282.355 398.15 282.324 398.099C282.319 398.099 282.319 398.099 282.319 398.099C282.35 398.15 282.386 398.202 282.427 398.248Z" fill="#766D7E"/>
<path d="M283.453 398.979C283.682 398.568 283.958 398.193 284.281 397.854C284.135 397.193 284.052 396.49 284.047 395.786C283.698 395.661 283.37 395.5 283.062 395.312C283.062 395.323 283.062 395.339 283.062 395.349C283.062 396.354 282.792 397.292 282.323 398.099C282.354 398.151 282.391 398.203 282.427 398.25C282.677 398.552 283.052 398.797 283.453 398.979Z" fill="#CFD1D3"/>
<path d="M285.896 385.24C288.885 385.24 291.317 387.672 291.317 390.677C291.317 393.677 288.885 396.11 285.896 396.11C282.901 396.11 280.474 393.677 280.474 390.677C280.474 387.672 282.901 385.24 285.896 385.24Z" fill="#BCC943"/>
<path d="M285.896 396.109C287.547 396.109 289.026 395.37 290.021 394.198C289.104 394.906 287.958 395.328 286.708 395.328C285.172 395.328 283.781 394.687 282.792 393.656C282.927 394.068 283.021 394.531 283.063 395.042C283.063 395.083 283.057 395.13 283.057 395.172C283.057 395.219 283.063 395.266 283.063 395.307C283.886 395.818 284.854 396.109 285.896 396.109ZM281.557 391.594C281.386 391.063 281.292 390.495 281.287 389.906C281.162 390.229 281.042 390.568 280.927 390.932C280.88 390.927 280.833 390.927 280.787 390.922C281.063 391.12 281.323 391.344 281.557 391.594Z" fill="#A09E3A"/>
<path d="M287.812 385.589C287.812 385.589 291.041 386.683 291.317 390.365C291.286 392.641 290.291 387.5 285.901 385.24C285.901 385.24 286.89 385.224 287.812 385.589Z" fill="#DAE56E"/>
<path d="M277.578 404.615C280.099 404.615 282.146 403.901 282.146 403.021C282.146 402.703 281.875 402.406 281.411 402.156V402.161C281.26 403.49 279.489 404.12 277.698 404.12C277.281 404.12 276.854 404.083 276.453 404.016C276.317 404 276.177 403.969 276.026 403.938V404.526C276.51 404.583 277.031 404.615 277.578 404.615Z" fill="#83788A"/>
<path d="M281.411 397.453V402.161C281.104 404.875 274.041 404.661 273.864 402.161V397.453H281.411Z" fill="#E6E7E8"/>
<path d="M276.453 404.016C276.307 403.99 276.167 403.964 276.026 403.927V403.938C276.177 403.969 276.318 404 276.453 404.016Z" fill="#766D7E"/>
<path d="M276.516 404.021C276.307 403.563 276.146 403.052 276.026 402.521V403.927C276.167 403.964 276.307 403.99 276.453 404.016C276.474 404.016 276.495 404.021 276.516 404.021Z" fill="#CFD1D3"/>
<path d="M277.641 389.912C280.636 389.912 283.063 392.349 283.063 395.349C283.063 398.354 280.636 400.787 277.641 400.787C274.646 400.787 272.219 398.354 272.219 395.349C272.219 392.349 274.646 389.912 277.641 389.912Z" fill="#BCC943"/>
<path d="M277.641 400.786C279.292 400.786 280.771 400.042 281.766 398.87C280.849 399.583 279.703 400.005 278.453 400.005C277.583 400.005 276.755 399.797 276.026 399.432V400.542C276.536 400.698 277.078 400.786 277.641 400.786Z" fill="#A09E3A"/>
<path d="M279.558 390.261C279.558 390.261 282.787 391.354 283.063 395.042C283.037 397.313 282.037 392.172 277.652 389.912C277.652 389.912 278.641 389.901 279.558 390.261Z" fill="#DAE56E"/>
<path d="M293.928 405.963C293.969 405.844 294.016 405.729 294.068 405.609C294.068 405.609 294.068 405.609 294.073 405.604C294.11 405.515 294.157 405.422 294.204 405.333C294.172 405.318 294.146 405.307 294.12 405.297C293.636 405.104 293.235 404.844 292.98 404.515C292.938 404.469 292.907 404.422 292.875 404.37C292.683 404.693 292.464 404.995 292.214 405.271C292.579 405.552 293.178 405.797 293.928 405.963Z" fill="#83788A"/>
<path d="M300.219 399.047V403.755C299.911 406.474 292.849 406.26 292.672 403.755V399.047H300.219Z" fill="#E6E7E8"/>
<path d="M294.204 405.333C294.204 405.333 294.204 405.333 294.204 405.328C294.178 405.318 294.146 405.307 294.12 405.297C294.146 405.307 294.172 405.318 294.204 405.333ZM292.98 404.516C292.943 404.469 292.907 404.417 292.875 404.365C292.875 404.37 292.875 404.37 292.875 404.37C292.907 404.422 292.938 404.469 292.98 404.516Z" fill="#766D7E"/>
<path d="M294.203 405.328C294.39 404.964 294.619 404.625 294.88 404.313C294.703 403.594 294.609 402.823 294.599 402.057C294.255 401.932 293.922 401.771 293.614 401.583C293.614 401.594 293.614 401.61 293.614 401.62C293.614 402.625 293.343 403.563 292.875 404.365C292.906 404.417 292.942 404.469 292.979 404.516C293.25 404.849 293.672 405.11 294.119 405.297C294.146 405.307 294.177 405.318 294.203 405.328Z" fill="#CFD1D3"/>
<path d="M296.448 391.51C299.443 391.51 301.87 393.943 301.87 396.948C301.87 399.948 299.443 402.38 296.448 402.38C293.453 402.38 291.026 399.948 291.026 396.948C291.026 393.943 293.453 391.51 296.448 391.51Z" fill="#BCC943"/>
<path d="M296.448 402.38C298.099 402.38 299.584 401.635 300.573 400.469C299.662 401.177 298.511 401.599 297.266 401.599C295.724 401.599 294.334 400.958 293.344 399.922C293.516 400.443 293.61 401 293.615 401.578C294.443 402.089 295.412 402.38 296.448 402.38Z" fill="#A09E3A"/>
<path d="M292.114 397.865C291.937 397.328 291.844 396.755 291.844 396.161C291.844 394.818 292.328 393.589 293.135 392.641C292.505 393.13 291.979 393.76 291.614 394.479V394.484C291.609 394.484 291.609 394.484 291.609 394.484C291.239 395.224 291.026 396.057 291.026 396.943C291.026 396.958 291.026 396.969 291.026 396.984C291.427 397.229 291.792 397.526 292.114 397.865Z" fill="#A09E3A"/>
<path d="M298.37 391.859C298.37 391.859 301.599 392.953 301.87 396.635C301.844 398.911 300.844 393.766 296.458 391.51C296.458 391.51 297.448 391.495 298.37 391.859Z" fill="#DAE56E"/>
<path d="M288.13 410.891C290.656 410.891 292.698 410.172 292.698 409.292C292.698 408.974 292.432 408.677 291.969 408.427C291.812 409.761 290.042 410.391 288.255 410.391C287.833 410.391 287.406 410.354 287.005 410.287C286.656 410.24 286.245 410.136 285.849 409.969C285.375 409.771 284.979 409.516 284.724 409.193C284.542 408.969 284.427 408.719 284.422 408.432V408.365C283.969 408.583 283.672 408.844 283.588 409.125L286.432 410.776C286.958 410.849 287.531 410.891 288.13 410.891Z" fill="#83788A"/>
<path d="M291.969 403.724V408.427C291.656 411.151 284.594 410.932 284.422 408.427V403.724H291.969Z" fill="#E6E7E8"/>
<path d="M287.005 410.287C286.594 410.214 286.198 410.11 285.849 409.969C286.245 410.136 286.656 410.24 287.005 410.287ZM284.724 409.193C284.552 408.969 284.443 408.714 284.422 408.427V408.365V408.432C284.427 408.719 284.542 408.969 284.724 409.193Z" fill="#766D7E"/>
<path d="M287.073 410.292C286.604 409.255 286.36 407.989 286.349 406.734C285.62 406.469 284.964 406.052 284.422 405.526V408.427C284.443 408.713 284.552 408.969 284.724 409.193C284.995 409.521 285.412 409.781 285.849 409.969C286.198 410.109 286.594 410.213 287.006 410.286C287.026 410.286 287.052 410.292 287.073 410.292Z" fill="#CFD1D3"/>
<path d="M288.192 396.182C291.187 396.182 293.614 398.62 293.614 401.62C293.614 404.62 291.187 407.057 288.192 407.057C285.198 407.057 282.771 404.62 282.771 401.62C282.771 398.62 285.198 396.182 288.192 396.182Z" fill="#BCC943"/>
<path d="M282.771 401.615C282.776 400.917 282.906 400.25 283.146 399.641C282.906 400.25 282.771 400.917 282.771 401.615Z" fill="#83788A"/>
<path d="M288.193 407.052C289.849 407.052 291.328 406.313 292.323 405.141C291.406 405.849 290.255 406.276 289.01 406.276C286.015 406.276 283.588 403.839 283.588 400.839C283.588 399.495 284.078 398.266 284.885 397.318C284.672 397.479 284.469 397.662 284.281 397.854C283.958 398.193 283.682 398.568 283.453 398.979C283.338 399.193 283.234 399.412 283.146 399.641C282.906 400.25 282.776 400.917 282.771 401.615C282.771 401.615 282.771 401.615 282.771 401.62C282.771 404.62 285.198 407.052 288.193 407.052Z" fill="#A09E3A"/>
<path d="M290.114 396.531C290.114 396.531 293.343 397.63 293.614 401.312C293.588 403.583 292.588 398.443 288.203 396.182C288.203 396.182 289.192 396.172 290.114 396.531Z" fill="#DAE56E"/>
<path d="M304.532 412.11C304.615 411.88 304.719 411.662 304.839 411.448C304.407 411.261 304.052 411.021 303.818 410.724C303.776 410.677 303.735 410.625 303.703 410.568C303.511 410.891 303.292 411.193 303.042 411.469C303.37 411.724 303.886 411.943 304.532 412.11Z" fill="#83788A"/>
<path d="M311.052 405.245V409.953C310.739 412.672 303.677 412.459 303.505 409.953V405.245H311.052Z" fill="#E6E7E8"/>
<path d="M303.817 410.721C303.776 410.67 303.735 410.619 303.705 410.562C303.705 410.568 303.705 410.568 303.705 410.568C303.735 410.624 303.776 410.675 303.817 410.721Z" fill="#766D7E"/>
<path d="M304.838 411.448C305.068 411.036 305.344 410.661 305.667 410.328C305.515 409.661 305.437 408.958 305.427 408.255C305.083 408.13 304.755 407.969 304.448 407.781C304.448 407.792 304.448 407.807 304.448 407.818C304.448 408.823 304.177 409.76 303.703 410.563C303.734 410.62 303.776 410.672 303.818 410.724C304.068 411.026 304.437 411.266 304.838 411.448Z" fill="#CFD1D3"/>
<path d="M307.276 397.708C310.271 397.708 312.698 400.141 312.698 403.146C312.698 406.146 310.271 408.578 307.276 408.578C304.281 408.578 301.854 406.146 301.854 403.146C301.854 400.141 304.281 397.708 307.276 397.708Z" fill="#BCC943"/>
<path d="M307.276 408.578C308.933 408.578 310.412 407.833 311.401 406.667C310.49 407.375 309.339 407.797 308.094 407.797C306.552 407.797 305.162 407.156 304.177 406.12C304.349 406.64 304.443 407.198 304.448 407.781C305.271 408.286 306.24 408.578 307.276 408.578Z" fill="#A09E3A"/>
<path d="M302.943 404.062C302.766 403.526 302.672 402.958 302.672 402.364C302.672 401.021 303.162 399.786 303.969 398.838C303.521 399.182 303.131 399.599 302.808 400.068C302.808 400.068 302.808 400.068 302.808 400.073C302.803 400.073 302.803 400.073 302.803 400.078C302.745 400.156 302.693 400.234 302.646 400.318C302.146 401.14 301.86 402.104 301.855 403.135C301.855 403.14 301.855 403.14 301.855 403.14C301.855 403.156 301.855 403.172 301.855 403.182C302.256 403.427 302.62 403.724 302.943 404.062Z" fill="#A09E3A"/>
<path d="M309.198 398.057C309.198 398.057 312.427 399.151 312.698 402.833C312.672 405.109 311.672 399.969 307.286 397.708C307.286 397.708 308.276 397.692 309.198 398.057Z" fill="#DAE56E"/>
<path d="M298.964 417.089C301.485 417.089 303.532 416.375 303.532 415.49C303.532 415.172 303.261 414.875 302.797 414.625V414.63C302.646 415.958 300.87 416.589 299.084 416.589C298.662 416.589 298.235 416.552 297.829 416.484C297.49 416.438 297.079 416.333 296.688 416.167C296.209 415.974 295.813 415.714 295.558 415.391C295.375 415.172 295.261 414.917 295.25 414.63V414.562C294.766 414.797 294.464 415.078 294.407 415.385L297.11 416.953C297.678 417.036 298.303 417.089 298.964 417.089Z" fill="#83788A"/>
<path d="M302.796 409.922V414.63C302.484 417.349 295.427 417.135 295.25 414.63V409.922H302.796Z" fill="#E6E7E8"/>
<path d="M297.828 416.484C297.422 416.411 297.031 416.307 296.688 416.167C297.078 416.333 297.49 416.438 297.828 416.484ZM295.557 415.391C295.38 415.167 295.271 414.911 295.25 414.63C295.26 414.917 295.375 415.172 295.557 415.391Z" fill="#766D7E"/>
<path d="M297.901 416.49C297.432 415.453 297.187 414.188 297.177 412.932C296.448 412.667 295.797 412.25 295.25 411.724V414.63C295.271 414.912 295.38 415.167 295.557 415.391C295.828 415.719 296.245 415.979 296.687 416.167C297.031 416.307 297.422 416.412 297.828 416.485C297.854 416.485 297.88 416.49 297.901 416.49Z" fill="#CFD1D3"/>
<path d="M299.026 402.38C302.016 402.38 304.448 404.818 304.448 407.818C304.448 410.823 302.016 413.255 299.026 413.255C296.032 413.255 293.604 410.823 293.604 407.818C293.604 404.818 296.032 402.38 299.026 402.38Z" fill="#BCC943"/>
<path d="M299.026 413.255C300.677 413.255 302.156 412.51 303.151 411.344C302.234 412.047 301.088 412.474 299.838 412.474C296.844 412.474 294.417 410.036 294.417 407.036C294.417 405.693 294.906 404.464 295.713 403.516C295.005 404.062 294.437 404.781 294.073 405.604C294.068 405.609 294.068 405.609 294.068 405.609C294.015 405.729 293.969 405.844 293.927 405.964C293.719 406.542 293.604 407.161 293.604 407.813C293.604 407.813 293.604 407.813 293.604 407.818C293.604 410.818 296.031 413.255 299.026 413.255Z" fill="#A09E3A"/>
<path d="M300.943 402.735C300.943 402.735 304.172 403.828 304.448 407.511C304.417 409.781 303.422 404.641 299.032 402.38C299.032 402.38 300.026 402.37 300.943 402.735Z" fill="#DAE56E"/>
<path d="M317.771 418.682C320.292 418.682 322.338 417.969 322.338 417.089C322.338 416.766 322.068 416.469 321.604 416.219V416.224C321.453 417.557 319.682 418.182 317.89 418.182C317.469 418.182 317.042 418.146 316.635 418.078C316.297 418.031 315.89 417.927 315.505 417.766C315.021 417.573 314.614 417.313 314.359 416.984C314.323 416.938 314.286 416.891 314.255 416.839C314.068 417.161 313.849 417.458 313.599 417.734C314.307 418.292 315.911 418.682 317.771 418.682Z" fill="#83788A"/>
<path d="M321.604 411.516V416.224C321.292 418.943 314.234 418.729 314.057 416.224V411.516H321.604Z" fill="#E6E7E8"/>
<path d="M316.636 418.078C316.229 418.011 315.844 417.906 315.506 417.766C315.891 417.927 316.297 418.031 316.636 418.078ZM314.36 416.985C314.323 416.938 314.287 416.886 314.261 416.833C314.256 416.839 314.256 416.839 314.256 416.839C314.287 416.891 314.323 416.938 314.36 416.985Z" fill="#766D7E"/>
<path d="M316.708 418.089C316.244 417.052 316 415.787 315.984 414.526C315.635 414.401 315.307 414.24 315 414.052C315 414.063 315 414.073 315 414.089C315 415.089 314.729 416.031 314.26 416.833C314.286 416.886 314.323 416.938 314.359 416.985C314.635 417.318 315.057 417.578 315.505 417.766C315.843 417.906 316.229 418.011 316.635 418.078C316.661 418.083 316.687 418.083 316.708 418.089Z" fill="#CFD1D3"/>
<path d="M317.833 403.979C320.828 403.979 323.255 406.411 323.255 409.417C323.255 412.417 320.828 414.849 317.833 414.849C314.838 414.849 312.411 412.417 312.411 409.417C312.411 406.411 314.838 403.979 317.833 403.979Z" fill="#BCC943"/>
<path d="M317.833 414.849C319.484 414.849 320.963 414.104 321.958 412.938C321.041 413.646 319.896 414.068 318.646 414.068C317.109 414.068 315.718 413.427 314.729 412.391C314.901 412.911 314.994 413.469 315 414.047C315.823 414.557 316.791 414.849 317.833 414.849Z" fill="#A09E3A"/>
<path d="M313.494 410.328C313.323 409.797 313.224 409.224 313.224 408.635C313.224 407.286 313.713 406.057 314.521 405.109C313.734 405.719 313.114 406.547 312.755 407.495C312.531 408.089 312.411 408.734 312.411 409.406V409.411C312.411 409.427 312.411 409.438 312.411 409.453C312.812 409.698 313.172 409.995 313.494 410.328Z" fill="#A09E3A"/>
<path d="M319.75 404.328C319.75 404.328 322.979 405.422 323.255 409.104C323.224 411.38 322.229 406.24 317.838 403.979C317.838 403.979 318.833 403.963 319.75 404.328Z" fill="#DAE56E"/>
<path d="M309.515 423.36C312.036 423.36 314.083 422.641 314.083 421.761C314.083 421.443 313.817 421.146 313.349 420.896C313.198 422.229 311.427 422.86 309.64 422.86C309.213 422.86 308.791 422.823 308.385 422.755C308.041 422.708 307.63 422.604 307.234 422.432C306.76 422.245 306.364 421.985 306.109 421.662C305.927 421.438 305.812 421.182 305.807 420.901V420.833C305.396 421.031 305.114 421.266 305 421.516L308.036 423.271C308.5 423.328 308.994 423.36 309.515 423.36Z" fill="#83788A"/>
<path d="M313.349 416.193V420.896C313.041 423.62 305.979 423.406 305.807 420.896V416.193H313.349Z" fill="#E6E7E8"/>
<path d="M308.385 422.755C307.974 422.682 307.583 422.578 307.234 422.432C307.63 422.604 308.042 422.708 308.385 422.755ZM306.109 421.662C305.932 421.438 305.823 421.182 305.807 420.896V420.833V420.901C305.812 421.182 305.927 421.438 306.109 421.662Z" fill="#766D7E"/>
<path d="M308.458 422.761C307.99 421.729 307.745 420.458 307.729 419.198C307.005 418.938 306.349 418.521 305.807 417.99V420.896C305.823 421.182 305.932 421.438 306.11 421.662C306.38 421.99 306.797 422.25 307.235 422.432C307.583 422.578 307.974 422.682 308.386 422.755C308.412 422.755 308.432 422.761 308.458 422.761Z" fill="#CFD1D3"/>
<path d="M309.579 408.651C312.573 408.651 315 411.089 315 414.089C315 417.089 312.573 419.526 309.579 419.526C306.584 419.526 304.157 417.089 304.157 414.089C304.157 411.089 306.584 408.651 309.579 408.651Z" fill="#BCC943"/>
<path d="M309.578 419.521C311.229 419.521 312.714 418.781 313.703 417.609C312.792 418.323 311.641 418.745 310.396 418.745C307.401 418.745 304.974 416.307 304.974 413.307C304.974 411.964 305.458 410.734 306.271 409.781C305.49 410.385 304.88 411.198 304.516 412.135C304.516 412.135 304.516 412.135 304.516 412.141C304.516 412.141 304.516 412.141 304.516 412.146C304.516 412.146 304.51 412.146 304.51 412.151C304.286 412.75 304.156 413.401 304.156 414.078C304.156 414.078 304.156 414.078 304.156 414.083V414.089C304.156 417.089 306.583 419.521 309.578 419.521Z" fill="#A09E3A"/>
<path d="M311.5 409C311.5 409 314.73 410.099 315 413.781C314.974 416.052 313.974 410.912 309.589 408.656C309.589 408.656 310.579 408.636 311.5 409Z" fill="#DAE56E"/>
<path d="M311.812 425.458V429.536L266.182 403.135V399.057L311.812 425.458Z" fill="#E6E7E8"/>
<path d="M288.838 386.078L287.536 385.313V385.49C287.625 385.516 287.719 385.552 287.812 385.589C287.812 385.589 287.969 385.641 288.213 385.76C288.406 385.854 288.588 385.953 288.765 386.063C288.792 386.068 288.812 386.073 288.838 386.078ZM283.307 385.896C284.078 385.479 284.958 385.24 285.896 385.24H285.901C285.901 385.24 285.906 385.24 285.917 385.24C285.932 385.24 285.958 385.24 285.989 385.24C286.349 385.245 286.703 385.286 287.042 385.359V385.026L283.307 382.844V385.896Z" fill="#655A7E"/>
<path d="M266.183 399.057L272.224 395.552C272.219 395.484 272.219 395.417 272.219 395.349V395.344C272.219 395.344 272.219 395.344 272.219 395.339C272.219 394.583 272.375 393.859 272.657 393.203L272.662 393.198C273.016 392.375 273.563 391.661 274.25 391.109V366.214L266.183 370.917V399.057ZM274.74 390.755C275.578 390.224 276.573 389.911 277.641 389.911C278.052 389.911 278.459 389.958 278.844 390.047C279.078 390.099 279.323 390.167 279.558 390.26C279.558 390.26 279.703 390.313 279.938 390.422C280.12 390.51 280.297 390.609 280.474 390.714C280.474 390.703 280.474 390.688 280.474 390.677V390.672C280.474 388.922 281.297 387.365 282.584 386.37C282.813 386.193 283.052 386.036 283.308 385.896V360.938L274.74 365.932V390.755Z" fill="#48415E"/>
<path d="M274.25 391.109C274.406 390.979 274.568 390.864 274.74 390.755V365.932L274.25 366.213V391.109Z" fill="#1E1E41"/>
<path d="M287.536 385.489V385.312L287.041 385.026V385.359C287.057 385.364 287.067 385.364 287.083 385.37C287.229 385.401 287.38 385.443 287.536 385.489Z" fill="#2A2957"/>
<path d="M276.026 404.755V404.526C275.839 404.5 275.662 404.474 275.49 404.443L276.026 404.755ZM273.011 403.011C273.021 402.667 273.334 402.349 273.865 402.094V399.255C273.745 399.136 273.631 399.011 273.516 398.88L269.703 401.094L273.011 403.011Z" fill="#83788A"/>
<path d="M269.704 401.094L273.516 398.88C272.75 397.979 272.271 396.823 272.224 395.552L266.183 399.057L269.704 401.094Z" fill="#373949"/>
<path d="M280.474 390.714C280.474 390.698 280.474 390.688 280.474 390.672V390.677C280.474 390.688 280.474 390.703 280.474 390.714ZM281.286 389.906C282.51 386.87 284.505 385.886 286.859 385.886C286.896 385.886 286.932 385.886 286.969 385.886C286.635 385.651 286.281 385.438 285.901 385.24H285.896C284.958 385.24 284.078 385.479 283.307 385.896C283.052 386.037 282.812 386.193 282.583 386.37C281.776 387.318 281.286 388.552 281.286 389.896C281.286 389.896 281.286 389.901 281.286 389.906ZM288.766 386.063C288.589 385.953 288.406 385.854 288.214 385.761C288.365 385.833 288.547 385.932 288.745 386.063C288.75 386.063 288.76 386.063 288.766 386.063ZM287.083 385.37C287.068 385.365 287.057 385.365 287.042 385.36C286.703 385.287 286.349 385.245 285.99 385.24C286.172 385.245 286.594 385.266 287.083 385.37Z" fill="#A09E3A"/>
<path d="M280.927 390.933C281.041 390.568 281.161 390.229 281.286 389.907C281.286 389.901 281.286 389.896 281.286 389.896C281.286 388.552 281.776 387.318 282.583 386.37C281.297 387.365 280.474 388.922 280.474 390.672C280.474 390.688 280.474 390.698 280.474 390.714C280.578 390.776 280.682 390.849 280.786 390.922C280.833 390.927 280.88 390.927 280.927 390.933Z" fill="#887C32"/>
<path d="M288.745 386.063C288.547 385.932 288.365 385.833 288.214 385.761C287.969 385.641 287.813 385.589 287.813 385.589C287.719 385.552 287.625 385.516 287.537 385.49C287.381 385.443 287.229 385.401 287.084 385.37C286.594 385.266 286.172 385.245 285.99 385.24C285.959 385.24 285.933 385.24 285.917 385.24C285.907 385.24 285.901 385.24 285.901 385.24C286.282 385.438 286.636 385.651 286.969 385.886C287.542 385.891 288.136 385.953 288.745 386.063Z" fill="#BAB45F"/>
<path d="M276.026 404.526V403.938C275.787 403.875 275.532 403.797 275.287 403.693C274.818 403.5 274.433 403.245 274.183 402.932C273.995 402.708 273.875 402.453 273.865 402.161V402.094C273.334 402.349 273.021 402.667 273.011 403.01L275.49 404.443C275.662 404.474 275.839 404.5 276.026 404.526Z" fill="#6F5E78"/>
<path d="M275.287 403.693C274.854 403.505 274.448 403.25 274.183 402.932C274.433 403.245 274.818 403.5 275.287 403.693ZM276.026 402.521V400.542C275.948 400.515 275.87 400.489 275.792 400.463C275.797 401.161 275.881 401.859 276.026 402.521Z" fill="#C4B6C9"/>
<path d="M276.026 403.938V403.927C275.766 403.865 275.516 403.787 275.287 403.693C275.532 403.797 275.787 403.875 276.026 403.938Z" fill="#64566D"/>
<path d="M274.183 402.932C273.995 402.703 273.886 402.448 273.865 402.161C273.875 402.453 273.995 402.708 274.183 402.932Z" fill="#64566D"/>
<path d="M276.026 403.927V402.521C275.881 401.86 275.797 401.162 275.792 400.464C275.063 400.198 274.412 399.781 273.865 399.255V402.162C273.886 402.448 273.995 402.703 274.183 402.932C274.448 403.25 274.854 403.505 275.287 403.693C275.516 403.787 275.766 403.865 276.026 403.927Z" fill="#B0A4B7"/>
<path d="M276.026 400.542C273.817 399.854 272.218 397.787 272.218 395.349C272.218 395.417 272.218 395.485 272.224 395.552C272.271 396.823 272.75 397.979 273.515 398.88C273.63 399.011 273.744 399.136 273.864 399.255C274.411 399.781 275.062 400.198 275.791 400.464C275.869 400.49 275.948 400.516 276.026 400.542ZM276.026 399.432V393.943C276.265 392.094 277.369 391.141 279.208 390.932C278.744 390.557 278.224 390.208 277.651 389.912C277.651 389.912 277.656 389.912 277.666 389.912C277.76 389.912 278.26 389.922 278.843 390.047C278.458 389.958 278.052 389.912 277.64 389.912C276.573 389.912 275.578 390.224 274.739 390.755C274.567 390.865 274.406 390.979 274.25 391.11C273.562 391.662 273.015 392.375 272.661 393.198C273.026 392.344 273.604 391.604 274.328 391.047C273.521 391.995 273.036 393.224 273.036 394.568C273.036 396.693 274.25 398.537 276.026 399.432ZM280.786 390.922C280.682 390.849 280.578 390.776 280.474 390.714C280.297 390.61 280.119 390.511 279.937 390.422C280.151 390.531 280.448 390.693 280.765 390.922C280.771 390.922 280.776 390.922 280.786 390.922Z" fill="#A09E3A"/>
<path d="M276.026 400.542V399.432C274.25 398.536 273.037 396.693 273.037 394.568C273.037 393.224 273.521 391.995 274.328 391.047C273.604 391.604 273.026 392.344 272.662 393.198L272.657 393.203C272.375 393.859 272.219 394.583 272.219 395.339C272.219 395.344 272.219 395.344 272.219 395.344V395.349C272.219 397.786 273.818 399.854 276.026 400.542Z" fill="#887C32"/>
<path d="M279.208 390.932C279.464 390.906 279.734 390.891 280.016 390.891C280.255 390.891 280.505 390.901 280.766 390.922C280.448 390.693 280.151 390.531 279.937 390.422C279.703 390.313 279.557 390.261 279.557 390.261C279.323 390.167 279.078 390.099 278.844 390.047C278.26 389.922 277.76 389.912 277.667 389.912C277.656 389.912 277.651 389.912 277.651 389.912C278.224 390.208 278.745 390.557 279.208 390.932Z" fill="#BAB45F"/>
<path d="M243.552 364.979C244.161 365.334 244.656 366.193 244.656 366.896C244.656 367.604 244.161 367.886 243.552 367.537C242.943 367.183 242.448 366.323 242.448 365.62C242.448 364.912 242.943 364.625 243.552 364.979Z" fill="#C9D3D6"/>
<path d="M316.208 389.401C316.818 389.75 317.312 390.609 317.312 391.312C317.312 392.021 316.818 392.307 316.208 391.953C315.599 391.599 315.104 390.739 315.104 390.036C315.104 389.333 315.599 389.041 316.208 389.401Z" fill="#C9D3D6"/>
<path d="M357 375.672C357.61 375.318 358.099 375.604 358.099 376.307C358.099 377.016 357.61 377.875 357 378.229C356.391 378.578 355.896 378.292 355.896 377.589C355.896 376.88 356.391 376.026 357 375.672Z" fill="#C9D3D6"/>
<path d="M307.375 400.552C307.958 400.552 308.432 401.031 308.432 401.615C308.432 402.203 307.958 402.677 307.375 402.677C306.786 402.677 306.312 402.203 306.312 401.615C306.312 401.031 306.786 400.552 307.375 400.552Z" fill="#C9D3D6"/>
<path d="M86.9355 385.616C76.0175 341.484 82.1675 292.624 104.432 246.615C126.696 200.606 163.83 160.019 210.074 131.149C256.318 102.279 309.089 86.7384 360.201 86.9386C411.314 87.1388 457.911 103.068 492.767 132.256" stroke="#FFC108" stroke-width="3" stroke-linecap="round" stroke-dasharray="14 14"/>
<path d="M169.686 57H167.706L172.155 44.6364H174.31L178.759 57H176.779L173.284 46.8821H173.187L169.686 57ZM170.018 52.1584H176.441V53.728H170.018V52.1584ZM180.4 57V47.7273H182.133V49.2365H182.247C182.44 48.7254 182.756 48.3269 183.195 48.0412C183.634 47.7514 184.159 47.6065 184.771 47.6065C185.39 47.6065 185.91 47.7514 186.328 48.0412C186.751 48.331 187.063 48.7294 187.264 49.2365H187.361C187.582 48.7415 187.934 48.3471 188.417 48.0533C188.9 47.7554 189.475 47.6065 190.144 47.6065C190.985 47.6065 191.671 47.8701 192.202 48.3974C192.737 48.9246 193.005 49.7195 193.005 50.782V57H191.2V50.951C191.2 50.3232 191.029 49.8684 190.687 49.5866C190.345 49.3049 189.936 49.1641 189.461 49.1641C188.874 49.1641 188.417 49.3452 188.091 49.7074C187.765 50.0656 187.602 50.5264 187.602 51.0898V57H185.803V50.8363C185.803 50.3332 185.646 49.9287 185.332 49.6229C185.018 49.317 184.61 49.1641 184.107 49.1641C183.765 49.1641 183.449 49.2546 183.159 49.4357C182.873 49.6128 182.642 49.8603 182.465 50.1783C182.292 50.4962 182.205 50.8645 182.205 51.283V57H180.4ZM199.33 57.1871C198.461 57.1871 197.702 56.9879 197.054 56.5895C196.406 56.1911 195.903 55.6336 195.545 54.9173C195.187 54.2009 195.008 53.3638 195.008 52.4059C195.008 51.444 195.187 50.6029 195.545 49.8825C195.903 49.162 196.406 48.6026 197.054 48.2042C197.702 47.8058 198.461 47.6065 199.33 47.6065C200.2 47.6065 200.958 47.8058 201.606 48.2042C202.254 48.6026 202.757 49.162 203.115 49.8825C203.474 50.6029 203.653 51.444 203.653 52.4059C203.653 53.3638 203.474 54.2009 203.115 54.9173C202.757 55.6336 202.254 56.1911 201.606 56.5895C200.958 56.9879 200.2 57.1871 199.33 57.1871ZM199.336 55.6719C199.9 55.6719 200.367 55.523 200.737 55.2251C201.107 54.9273 201.381 54.5309 201.558 54.0359C201.739 53.5408 201.83 52.9955 201.83 52.3999C201.83 51.8082 201.739 51.2649 201.558 50.7699C201.381 50.2708 201.107 49.8704 200.737 49.5685C200.367 49.2667 199.9 49.1158 199.336 49.1158C198.769 49.1158 198.298 49.2667 197.924 49.5685C197.553 49.8704 197.278 50.2708 197.097 50.7699C196.92 51.2649 196.831 51.8082 196.831 52.3999C196.831 52.9955 196.92 53.5408 197.097 54.0359C197.278 54.5309 197.553 54.9273 197.924 55.2251C198.298 55.523 198.769 55.6719 199.336 55.6719ZM211.541 53.1545V47.7273H213.353V57H211.578V55.3942H211.481C211.268 55.8892 210.926 56.3017 210.455 56.6317C209.988 56.9577 209.406 57.1207 208.71 57.1207C208.114 57.1207 207.587 56.9899 207.128 56.7283C206.674 56.4627 206.315 56.0703 206.054 55.5511C205.796 55.032 205.668 54.39 205.668 53.6254V47.7273H207.473V53.408C207.473 54.0399 207.648 54.543 207.998 54.9173C208.348 55.2915 208.803 55.4787 209.362 55.4787C209.7 55.4787 210.036 55.3942 210.37 55.2251C210.708 55.0561 210.988 54.8005 211.209 54.4585C211.435 54.1164 211.545 53.6817 211.541 53.1545ZM217.583 51.4943V57H215.778V47.7273H217.51V49.2365H217.625C217.838 48.7455 218.173 48.3511 218.627 48.0533C219.086 47.7554 219.664 47.6065 220.36 47.6065C220.992 47.6065 221.545 47.7393 222.02 48.005C222.495 48.2666 222.863 48.657 223.125 49.1761C223.386 49.6953 223.517 50.3372 223.517 51.1019V57H221.712V51.3192C221.712 50.6471 221.537 50.1219 221.187 49.7436C220.837 49.3613 220.356 49.1701 219.744 49.1701C219.326 49.1701 218.953 49.2607 218.627 49.4418C218.305 49.6229 218.05 49.8885 217.861 50.2386C217.675 50.5848 217.583 51.0033 217.583 51.4943ZM230.267 47.7273V49.1761H225.202V47.7273H230.267ZM226.56 45.5057H228.365V54.2773C228.365 54.6275 228.417 54.8911 228.522 55.0682C228.626 55.2412 228.761 55.36 228.926 55.4244C229.095 55.4847 229.278 55.5149 229.476 55.5149C229.621 55.5149 229.747 55.5049 229.856 55.4847C229.965 55.4646 230.049 55.4485 230.11 55.4364L230.436 56.9276C230.331 56.9678 230.182 57.008 229.989 57.0483C229.796 57.0926 229.554 57.1167 229.264 57.1207C228.789 57.1288 228.347 57.0443 227.936 56.8672C227.526 56.6901 227.194 56.4164 226.94 56.0462C226.687 55.6759 226.56 55.2111 226.56 54.6516V45.5057ZM240.668 57.1871C239.799 57.1871 239.04 56.9879 238.392 56.5895C237.744 56.1911 237.241 55.6336 236.883 54.9173C236.525 54.2009 236.346 53.3638 236.346 52.4059C236.346 51.444 236.525 50.6029 236.883 49.8825C237.241 49.162 237.744 48.6026 238.392 48.2042C239.04 47.8058 239.799 47.6065 240.668 47.6065C241.537 47.6065 242.296 47.8058 242.944 48.2042C243.592 48.6026 244.095 49.162 244.453 49.8825C244.811 50.6029 244.991 51.444 244.991 52.4059C244.991 53.3638 244.811 54.2009 244.453 54.9173C244.095 55.6336 243.592 56.1911 242.944 56.5895C242.296 56.9879 241.537 57.1871 240.668 57.1871ZM240.674 55.6719C241.238 55.6719 241.704 55.523 242.075 55.2251C242.445 54.9273 242.719 54.5309 242.896 54.0359C243.077 53.5408 243.167 52.9955 243.167 52.3999C243.167 51.8082 243.077 51.2649 242.896 50.7699C242.719 50.2708 242.445 49.8704 242.075 49.5685C241.704 49.2667 241.238 49.1158 240.674 49.1158C240.107 49.1158 239.636 49.2667 239.262 49.5685C238.891 49.8704 238.616 50.2708 238.434 50.7699C238.257 51.2649 238.169 51.8082 238.169 52.3999C238.169 52.9955 238.257 53.5408 238.434 54.0359C238.616 54.5309 238.891 54.9273 239.262 55.2251C239.636 55.523 240.107 55.6719 240.674 55.6719ZM251.418 47.7273V49.1761H246.178V47.7273H251.418ZM247.615 57V46.6527C247.615 46.0732 247.742 45.5922 247.995 45.2099C248.249 44.8235 248.585 44.5357 249.004 44.3466C249.422 44.1534 249.877 44.0568 250.368 44.0568C250.73 44.0568 251.04 44.087 251.298 44.1474C251.555 44.2037 251.746 44.256 251.871 44.3043L251.449 45.7653C251.364 45.7411 251.255 45.7129 251.123 45.6808C250.99 45.6445 250.829 45.6264 250.64 45.6264C250.201 45.6264 249.887 45.7351 249.698 45.9524C249.513 46.1697 249.42 46.4837 249.42 46.8942V57H247.615ZM263.654 53.1545V47.7273H265.465V57H263.69V55.3942H263.593C263.38 55.8892 263.038 56.3017 262.567 56.6317C262.1 56.9577 261.519 57.1207 260.822 57.1207C260.227 57.1207 259.7 56.9899 259.241 56.7283C258.786 56.4627 258.428 56.0703 258.166 55.5511C257.909 55.032 257.78 54.39 257.78 53.6254V47.7273H259.585V53.408C259.585 54.0399 259.76 54.543 260.11 54.9173C260.46 55.2915 260.915 55.4787 261.474 55.4787C261.813 55.4787 262.149 55.3942 262.483 55.2251C262.821 55.0561 263.1 54.8005 263.322 54.4585C263.547 54.1164 263.658 53.6817 263.654 53.1545ZM274.839 49.9911L273.203 50.2809C273.134 50.0716 273.026 49.8724 272.877 49.6832C272.732 49.4941 272.535 49.3391 272.285 49.2184C272.036 49.0977 271.724 49.0373 271.349 49.0373C270.838 49.0373 270.412 49.152 270.07 49.3814C269.727 49.6068 269.556 49.8986 269.556 50.2567C269.556 50.5666 269.671 50.8162 269.9 51.0053C270.13 51.1945 270.5 51.3494 271.011 51.4702L272.484 51.8082C273.338 52.0054 273.973 52.3093 274.392 52.7198C274.811 53.1303 275.02 53.6636 275.02 54.3196C275.02 54.875 274.859 55.37 274.537 55.8047C274.219 56.2353 273.774 56.5734 273.203 56.8189C272.635 57.0644 271.977 57.1871 271.229 57.1871C270.19 57.1871 269.343 56.9658 268.687 56.5231C268.031 56.0763 267.629 55.4425 267.48 54.6214L269.224 54.3558C269.333 54.8106 269.556 55.1547 269.894 55.3881C270.233 55.6175 270.673 55.7322 271.217 55.7322C271.808 55.7322 272.281 55.6095 272.635 55.364C272.989 55.1145 273.166 54.8106 273.166 54.4524C273.166 54.1626 273.058 53.9192 272.84 53.7219C272.627 53.5247 272.299 53.3758 271.856 53.2752L270.287 52.9311C269.422 52.7339 268.782 52.42 268.367 51.9893C267.957 51.5587 267.751 51.0134 267.751 50.3533C267.751 49.806 267.904 49.3271 268.21 48.9165C268.516 48.506 268.939 48.1861 269.478 47.9567C270.017 47.7232 270.635 47.6065 271.331 47.6065C272.333 47.6065 273.122 47.8239 273.698 48.2585C274.273 48.6892 274.654 49.2667 274.839 49.9911ZM279.703 57.2053C279.115 57.2053 278.584 57.0966 278.109 56.8793C277.634 56.6579 277.258 56.3379 276.98 55.9194C276.707 55.5008 276.57 54.9877 276.57 54.38C276.57 53.8568 276.67 53.4261 276.872 53.0881C277.073 52.75 277.345 52.4824 277.687 52.2852C278.029 52.0879 278.411 51.939 278.834 51.8384C279.256 51.7378 279.687 51.6613 280.126 51.609C280.681 51.5446 281.132 51.4923 281.478 51.4521C281.824 51.4078 282.075 51.3374 282.232 51.2408C282.389 51.1442 282.468 50.9872 282.468 50.7699V50.7276C282.468 50.2004 282.319 49.7919 282.021 49.5021C281.727 49.2124 281.289 49.0675 280.705 49.0675C280.097 49.0675 279.618 49.2023 279.268 49.4719C278.922 49.7376 278.683 50.0334 278.55 50.3594L276.854 49.973C277.055 49.4096 277.349 48.9548 277.735 48.6087C278.125 48.2585 278.574 48.005 279.081 47.848C279.588 47.687 280.122 47.6065 280.681 47.6065C281.051 47.6065 281.444 47.6508 281.858 47.7393C282.277 47.8239 282.667 47.9808 283.029 48.2102C283.396 48.4396 283.695 48.7676 283.929 49.1942C284.162 49.6168 284.279 50.1662 284.279 50.8423V57H282.516V55.7322H282.444C282.327 55.9657 282.152 56.1951 281.919 56.4205C281.685 56.6458 281.385 56.833 281.019 56.9819C280.653 57.1308 280.214 57.2053 279.703 57.2053ZM280.095 55.7564C280.594 55.7564 281.021 55.6578 281.375 55.4606C281.733 55.2634 282.005 55.0058 282.19 54.6879C282.379 54.3659 282.474 54.0218 282.474 53.6555V52.4602C282.41 52.5246 282.285 52.585 282.1 52.6413C281.919 52.6937 281.711 52.7399 281.478 52.7802C281.244 52.8164 281.017 52.8506 280.796 52.8828C280.574 52.911 280.389 52.9351 280.24 52.9553C279.89 52.9995 279.57 53.074 279.28 53.1786C278.995 53.2833 278.765 53.4342 278.592 53.6314C278.423 53.8246 278.339 54.0821 278.339 54.4041C278.339 54.8509 278.504 55.1889 278.834 55.4183C279.164 55.6437 279.584 55.7564 280.095 55.7564ZM286.828 57V44.6364H288.633V49.2305H288.742C288.846 49.0373 288.997 48.8139 289.195 48.5604C289.392 48.3068 289.665 48.0855 290.016 47.8963C290.366 47.7031 290.829 47.6065 291.404 47.6065C292.153 47.6065 292.821 47.7957 293.408 48.174C293.996 48.5523 294.457 49.0977 294.791 49.81C295.129 50.5224 295.298 51.3796 295.298 52.3817C295.298 53.3839 295.131 54.2431 294.797 54.9595C294.463 55.6719 294.004 56.2212 293.42 56.6076C292.837 56.9899 292.171 57.1811 291.422 57.1811C290.859 57.1811 290.398 57.0865 290.04 56.8974C289.686 56.7082 289.408 56.4869 289.207 56.2333C289.005 55.9798 288.85 55.7544 288.742 55.5572H288.591V57H286.828ZM288.597 52.3636C288.597 53.0156 288.691 53.5871 288.881 54.0781C289.07 54.5691 289.343 54.9535 289.702 55.2312C290.06 55.5049 290.498 55.6417 291.018 55.6417C291.557 55.6417 292.008 55.4988 292.37 55.2131C292.732 54.9233 293.006 54.5309 293.191 54.0359C293.38 53.5408 293.475 52.9834 293.475 52.3636C293.475 51.7519 293.382 51.2025 293.197 50.7156C293.016 50.2286 292.742 49.8442 292.376 49.5625C292.014 49.2808 291.561 49.1399 291.018 49.1399C290.494 49.1399 290.052 49.2747 289.69 49.5444C289.331 49.814 289.06 50.1903 288.875 50.6733C288.689 51.1562 288.597 51.7197 288.597 52.3636ZM299.13 44.6364V57H297.325V44.6364H299.13ZM305.555 57.1871C304.641 57.1871 303.854 56.992 303.194 56.6016C302.538 56.2071 302.031 55.6538 301.673 54.9414C301.319 54.225 301.142 53.3859 301.142 52.424C301.142 51.4742 301.319 50.6371 301.673 49.9126C302.031 49.1882 302.53 48.6228 303.17 48.2163C303.814 47.8098 304.567 47.6065 305.428 47.6065C305.951 47.6065 306.458 47.6931 306.949 47.8661C307.44 48.0392 307.881 48.3108 308.271 48.6811C308.662 49.0514 308.969 49.5323 309.195 50.1239C309.42 50.7115 309.533 51.4259 309.533 52.267V52.907H302.162V51.5547H307.764C307.764 51.0798 307.668 50.6592 307.474 50.293C307.281 49.9227 307.009 49.6309 306.659 49.4176C306.313 49.2043 305.907 49.0977 305.44 49.0977C304.933 49.0977 304.49 49.2224 304.112 49.4719C303.737 49.7174 303.448 50.0394 303.242 50.4379C303.041 50.8323 302.941 51.2609 302.941 51.7237V52.7802C302.941 53.4 303.049 53.9272 303.267 54.3619C303.488 54.7965 303.796 55.1286 304.19 55.358C304.585 55.5833 305.045 55.696 305.573 55.696C305.915 55.696 306.227 55.6477 306.508 55.5511C306.79 55.4505 307.034 55.3016 307.239 55.1044C307.444 54.9072 307.601 54.6637 307.71 54.3739L309.418 54.6818C309.281 55.1849 309.036 55.6256 308.682 56.0039C308.332 56.3782 307.891 56.67 307.36 56.8793C306.832 57.0845 306.231 57.1871 305.555 57.1871ZM322.983 49.9911L321.347 50.2809C321.279 50.0716 321.17 49.8724 321.021 49.6832C320.876 49.4941 320.679 49.3391 320.43 49.2184C320.18 49.0977 319.868 49.0373 319.494 49.0373C318.983 49.0373 318.556 49.152 318.214 49.3814C317.872 49.6068 317.701 49.8986 317.701 50.2567C317.701 50.5666 317.816 50.8162 318.045 51.0053C318.274 51.1945 318.645 51.3494 319.156 51.4702L320.629 51.8082C321.482 52.0054 322.118 52.3093 322.536 52.7198C322.955 53.1303 323.164 53.6636 323.164 54.3196C323.164 54.875 323.003 55.37 322.681 55.8047C322.363 56.2353 321.919 56.5734 321.347 56.8189C320.78 57.0644 320.122 57.1871 319.373 57.1871C318.335 57.1871 317.488 56.9658 316.832 56.5231C316.176 56.0763 315.773 55.4425 315.624 54.6214L317.369 54.3558C317.478 54.8106 317.701 55.1547 318.039 55.3881C318.377 55.6175 318.818 55.7322 319.361 55.7322C319.953 55.7322 320.426 55.6095 320.78 55.364C321.134 55.1145 321.311 54.8106 321.311 54.4524C321.311 54.1626 321.202 53.9192 320.985 53.7219C320.772 53.5247 320.444 53.3758 320.001 53.2752L318.431 52.9311C317.566 52.7339 316.926 52.42 316.512 51.9893C316.101 51.5587 315.896 51.0134 315.896 50.3533C315.896 49.806 316.049 49.3271 316.355 48.9165C316.661 48.506 317.083 48.1861 317.622 47.9567C318.162 47.7232 318.78 47.6065 319.476 47.6065C320.478 47.6065 321.267 47.8239 321.842 48.2585C322.418 48.6892 322.798 49.2667 322.983 49.9911ZM331.023 53.1545V47.7273H332.834V57H331.059V55.3942H330.963C330.749 55.8892 330.407 56.3017 329.936 56.6317C329.469 56.9577 328.888 57.1207 328.192 57.1207C327.596 57.1207 327.069 56.9899 326.61 56.7283C326.155 56.4627 325.797 56.0703 325.535 55.5511C325.278 55.032 325.149 54.39 325.149 53.6254V47.7273H326.954V53.408C326.954 54.0399 327.129 54.543 327.479 54.9173C327.829 55.2915 328.284 55.4787 328.844 55.4787C329.182 55.4787 329.518 55.3942 329.852 55.2251C330.19 55.0561 330.47 54.8005 330.691 54.4585C330.916 54.1164 331.027 53.6817 331.023 53.1545ZM337.064 51.4943V57H335.259V47.7273H336.992V49.2365H337.107C337.32 48.7455 337.654 48.3511 338.109 48.0533C338.568 47.7554 339.145 47.6065 339.841 47.6065C340.473 47.6065 341.027 47.7393 341.502 48.005C341.976 48.2666 342.345 48.657 342.606 49.1761C342.868 49.6953 342.999 50.3372 342.999 51.1019V57H341.194V51.3192C341.194 50.6471 341.019 50.1219 340.668 49.7436C340.318 49.3613 339.837 49.1701 339.226 49.1701C338.807 49.1701 338.435 49.2607 338.109 49.4418C337.787 49.6229 337.531 49.8885 337.342 50.2386C337.157 50.5848 337.064 51.0033 337.064 51.4943ZM347.225 44.6364V57H345.419V44.6364H347.225ZM349.653 57V47.7273H351.458V57H349.653ZM350.564 46.2965C350.251 46.2965 349.981 46.1919 349.756 45.9826C349.534 45.7693 349.423 45.5157 349.423 45.2219C349.423 44.9241 349.534 44.6706 349.756 44.4613C349.981 44.248 350.251 44.1413 350.564 44.1413C350.878 44.1413 351.146 44.248 351.367 44.4613C351.593 44.6706 351.705 44.9241 351.705 45.2219C351.705 45.5157 351.593 45.7693 351.367 45.9826C351.146 46.1919 350.878 46.2965 350.564 46.2965ZM357.774 60.6705C357.038 60.6705 356.404 60.5739 355.872 60.3807C355.345 60.1875 354.915 59.9319 354.581 59.614C354.246 59.296 353.997 58.9479 353.832 58.5696L355.383 57.9297C355.492 58.1068 355.637 58.2939 355.818 58.4911C356.003 58.6924 356.253 58.8634 356.567 59.0043C356.885 59.1451 357.293 59.2156 357.792 59.2156C358.476 59.2156 359.042 59.0485 359.489 58.7145C359.935 58.3845 360.159 57.8572 360.159 57.1328V55.3097H360.044C359.935 55.5069 359.778 55.7262 359.573 55.9677C359.372 56.2092 359.094 56.4184 358.74 56.5955C358.386 56.7726 357.925 56.8612 357.358 56.8612C356.625 56.8612 355.965 56.6901 355.377 56.348C354.794 56.0019 354.331 55.4928 353.989 54.8207C353.651 54.1445 353.482 53.3134 353.482 52.3274C353.482 51.3414 353.649 50.4962 353.983 49.7919C354.321 49.0876 354.784 48.5483 355.371 48.174C355.959 47.7957 356.625 47.6065 357.37 47.6065C357.945 47.6065 358.41 47.7031 358.764 47.8963C359.118 48.0855 359.394 48.3068 359.591 48.5604C359.792 48.8139 359.947 49.0373 360.056 49.2305H360.189V47.7273H361.958V57.2053C361.958 58.0021 361.773 58.6561 361.402 59.1673C361.032 59.6784 360.531 60.0567 359.899 60.3022C359.271 60.5477 358.563 60.6705 357.774 60.6705ZM357.756 55.364C358.275 55.364 358.714 55.2433 359.072 55.0018C359.434 54.7563 359.708 54.4061 359.893 53.9513C360.082 53.4925 360.177 52.9432 360.177 52.3033C360.177 51.6795 360.084 51.1301 359.899 50.6552C359.714 50.1803 359.442 49.81 359.084 49.5444C358.726 49.2747 358.283 49.1399 357.756 49.1399C357.213 49.1399 356.76 49.2808 356.398 49.5625C356.035 49.8402 355.762 50.2185 355.577 50.6974C355.396 51.1764 355.305 51.7116 355.305 52.3033C355.305 52.911 355.398 53.4442 355.583 53.9031C355.768 54.3619 356.041 54.7201 356.404 54.9776C356.77 55.2352 357.221 55.364 357.756 55.364ZM366.184 51.4943V57H364.378V44.6364H366.159V49.2365H366.274C366.491 48.7375 366.823 48.341 367.27 48.0472C367.717 47.7534 368.3 47.6065 369.021 47.6065C369.657 47.6065 370.212 47.7373 370.687 47.9989C371.166 48.2605 371.536 48.6509 371.798 49.1701C372.063 49.6853 372.196 50.3292 372.196 51.1019V57H370.391V51.3192C370.391 50.6391 370.216 50.1119 369.866 49.7376C369.516 49.3593 369.029 49.1701 368.405 49.1701C367.978 49.1701 367.596 49.2607 367.258 49.4418C366.924 49.6229 366.66 49.8885 366.467 50.2386C366.278 50.5848 366.184 51.0033 366.184 51.4943ZM378.934 47.7273V49.1761H373.869V47.7273H378.934ZM375.227 45.5057H377.032V54.2773C377.032 54.6275 377.084 54.8911 377.189 55.0682C377.293 55.2412 377.428 55.36 377.593 55.4244C377.762 55.4847 377.945 55.5149 378.143 55.5149C378.288 55.5149 378.414 55.5049 378.523 55.4847C378.632 55.4646 378.716 55.4485 378.777 55.4364L379.103 56.9276C378.998 56.9678 378.849 57.008 378.656 57.0483C378.463 57.0926 378.221 57.1167 377.931 57.1207C377.456 57.1288 377.014 57.0443 376.603 56.8672C376.193 56.6901 375.861 56.4164 375.607 56.0462C375.354 55.6759 375.227 55.2111 375.227 54.6516V45.5057Z" fill="#000F52"/>
<ellipse cx="208.5" cy="132.5" rx="32.5" ry="30.5" fill="url(#paint0_linear_1626_1545)"/>
<defs>
<linearGradient id="paint0_linear_1626_1545" x1="208.5" y1="102" x2="208.5" y2="163" gradientUnits="userSpaceOnUse">
<stop stop-color="#FCBD38"/>
<stop offset="0.0001" stop-color="#FCBD38"/>
<stop offset="1" stop-color="#F7931E"/>
</linearGradient>
</defs>
</svg>
