<?xml version="1.0" encoding="UTF-8"?>
<svg version="1.1" xmlns="http://www.w3.org/2000/svg" width="512" height="512">
<path d="M0 0 C2 1.75 2 1.75 3 4 C2.6875 7.25 2.6875 7.25 2 10 C2.70125 10.226875 3.4025 10.45375 4.125 10.6875 C12.36309787 14.44837077 16.90446631 21.46190851 20.04711914 29.76733398 C24.31154479 44.23447721 18.39637757 59.04294313 14.3125 72.875 C13.59157623 75.37161873 12.87255368 77.86878712 12.15527344 80.36645508 C10.60764407 85.7469573 9.04659203 91.12340993 7.47705078 96.49755859 C4.94687995 105.16408396 2.45316393 113.84091212 -0.03515625 122.51953125 C-0.89801897 125.52812622 -1.76105917 128.53667021 -2.62426758 131.54516602 C-2.83990577 132.29675334 -3.05554396 133.04834066 -3.27771664 133.82270336 C-4.8136529 139.17359171 -6.35587814 144.52264268 -7.90112305 149.87084961 C-12.28023562 165.0311556 -16.63305216 180.19793627 -20.91231537 195.38677025 C-22.27950992 200.23647262 -23.65155123 205.0848072 -25.02310562 209.93327808 C-26.32372021 214.53400104 -27.61552397 219.13708163 -28.90082169 223.74210548 C-29.69760982 226.58883757 -30.502717 229.43316914 -31.31000519 232.27693939 C-31.85373829 234.20206517 -32.38725447 236.13006769 -32.92034912 238.0581665 C-36.25096539 249.73697437 -40.06106199 260.28358791 -50.90625 266.7265625 C-58.82000144 270.85973466 -65.16551141 272.15231877 -74 272 C-74.10997535 272.59761705 -74.2199507 273.19523411 -74.33325863 273.81096077 C-75.55760103 280.21882861 -77.15319451 286.44597139 -78.96508789 292.71044922 C-79.25638077 293.72960922 -79.54767365 294.74876923 -79.84779358 295.79881287 C-80.80235765 299.13518396 -81.76248839 302.46992525 -82.72265625 305.8046875 C-83.39037609 308.13483356 -84.05772364 310.46508633 -84.72471619 312.79544067 C-86.47497902 318.90712597 -88.22988433 325.01746819 -89.98590088 331.12750244 C-92.12268901 338.56537614 -94.25442026 346.00470035 -96.38644314 353.44394112 C-98.04410041 359.22787154 -99.70266253 365.01153684 -101.36402893 370.79440308 C-101.82085556 372.38583382 -101.82085556 372.38583382 -102.28691101 374.00941467 C-102.85538456 375.98975424 -103.4243678 377.96994761 -103.99395752 379.94996643 C-104.37032097 381.26176628 -104.37032097 381.26176628 -104.75428772 382.60006714 C-104.97199861 383.35769789 -105.18970949 384.11532864 -105.41401768 384.89591789 C-105.97853629 386.92293041 -106.49985338 388.95624931 -107 391 C-106.2575 391.268125 -105.515 391.53625 -104.75 391.8125 C-102 393 -102 393 -100 394.75 C-99.34 395.1625 -98.68 395.575 -98 396 C-92.78215417 394.72665414 -89.05076104 390.95730995 -85.0625 387.5625 C-83.53493232 386.28256632 -82.00627209 385.00393552 -80.4765625 383.7265625 C-79.34009277 382.77571777 -79.34009277 382.77571777 -78.18066406 381.80566406 C-75.14416444 379.29133903 -72.05006508 376.85657799 -68.9375 374.4375 C-63.88349752 370.50175563 -58.89727231 366.49131318 -53.9375 362.4375 C-48.15011481 357.71027267 -42.28180569 353.12159964 -36.33984375 348.58984375 C-31.83164668 345.12168734 -27.44256906 341.50685453 -23.03808594 337.90869141 C-18.47615128 334.18653233 -13.88193653 330.50968545 -9.25 326.875 C-8.67773682 326.42584229 -8.10547363 325.97668457 -7.51586914 325.51391602 C-4.70039161 323.3108482 -1.87000223 321.1316036 1 319 C0.7834375 318.16597656 0.566875 317.33195312 0.34375 316.47265625 C-2.82896343 303.64960614 -2.95764029 293.93273707 3.109375 281.77734375 C7.35320579 275.39849933 13.9972454 271.08618057 20.02636719 266.51806641 C23.40863495 263.91651508 26.699937 261.20451786 30 258.5 C35.52438907 253.98949725 41.0951899 249.54725053 46.7175293 245.15966797 C51.13105599 241.70625289 55.47649846 238.17503854 59.8125 234.625 C65.27287441 230.15826178 70.81214341 225.81931705 76.4375 221.5625 C83.039785 216.56347568 89.46384358 211.38366203 95.83349609 206.09228516 C100.74914545 202.01314862 105.72969402 198.03317894 110.76904297 194.10839844 C115.16793138 190.67493643 119.49534857 187.1604623 123.8125 183.625 C129.95958919 178.59637466 136.22381414 173.7487179 142.55810547 168.95898438 C147.79587269 164.97631157 152.88240151 160.83627469 157.9375 156.625 C179.57480709 138.67136739 179.57480709 138.67136739 195 139 C201.06160235 139.85827998 206.23976649 141.23376178 211.25 144.8125 C213.91515988 146.73310578 213.91515988 146.73310578 217.08984375 146.734375 C218.12818359 146.40179688 218.12818359 146.40179688 219.1875 146.0625 C220.445625 145.711875 221.70375 145.36125 223 145 C227.79581132 147.82907482 229.84904564 151.71612159 232.1875 156.5625 C232.53554688 157.27486816 232.88359375 157.98723633 233.2421875 158.72119141 C238.86878707 170.67232602 239.80379644 184.2994579 236 197 C230.1487761 212.57344511 219.70429471 222.19901094 206.73828125 232.1171875 C202.75909994 235.16448856 198.87845462 238.32608228 195 241.5 C189.47808984 246.00776276 183.91029391 250.44785889 178.29125977 254.83374023 C173.79336154 258.35375146 169.36014298 261.94856888 164.9375 265.5625 C159.1500513 270.28965275 153.2818091 274.87839776 147.33984375 279.41015625 C142.82258932 282.88528049 138.42459661 286.50732963 134.01171875 290.11328125 C129.71063392 293.62336198 125.37623814 297.08417075 121 300.5 C115.95146161 304.44185151 110.96242869 308.45031116 106 312.5 C100.45081941 317.02754072 94.86084363 321.49515862 89.21875 325.90625 C84.95537 329.24154728 80.72205605 332.61257434 76.5 336 C71.71056443 339.84264367 66.89994408 343.65549827 62.0625 347.4375 C56.30382072 351.94258923 50.6257169 356.54116145 44.96118164 361.16381836 C40.11242979 365.11406824 35.21286149 368.99273496 30.2824707 372.84033203 C25.86894401 376.29374711 21.52350154 379.82496146 17.1875 383.375 C11.72712559 387.84173822 6.18785659 392.18068295 0.5625 396.4375 C-6.039785 401.43652432 -12.46384358 406.61633797 -18.83349609 411.90771484 C-23.74712856 415.98517772 -28.72624865 419.96268672 -33.76245117 423.88720703 C-38.22128973 427.36898389 -42.61752072 430.92272266 -47 434.5 C-52.54911983 439.02761359 -58.13915801 443.4951599 -63.78125 447.90625 C-68.04463 451.24154728 -72.27794395 454.61257434 -76.5 458 C-81.85460732 462.29609035 -87.23808637 466.55227356 -92.65136719 470.77416992 C-95.8309053 473.26349598 -98.97244324 475.79085982 -102.08203125 478.3671875 C-119.11971011 492.48013133 -133.42608022 499.62201848 -156 498 C-157.43735089 497.76877537 -158.87363784 497.53080632 -160.30859375 497.28515625 C-163.89681974 496.67272054 -163.89681974 496.67272054 -166.328125 498.2578125 C-166.96234375 498.87398438 -167.5965625 499.49015625 -168.25 500.125 C-179.80488536 510.1727264 -193.45595877 510.8615382 -208 510 C-211.63115429 509.45762506 -214.66774524 508.52149827 -218 507 C-218.886875 506.60941406 -219.77375 506.21882813 -220.6875 505.81640625 C-231.2436961 500.64093788 -238.27615799 492.11918946 -245.49609375 483.078125 C-249.08277747 478.66891007 -252.82620491 474.40082117 -256.5715332 470.1262207 C-263.89067709 461.74703988 -263.89067709 461.74703988 -264.375 458.4375 C-264 456 -264 456 -262.875 454.1875 C-260.04051261 452.39232466 -258.29069071 452.47348949 -255 453 C-250.94609551 456.67042704 -247.43533488 460.85815626 -243.875 465 C-243.30950439 465.65355469 -242.74400879 466.30710937 -242.16137695 466.98046875 C-239.40700834 470.17107751 -236.67525382 473.37738456 -233.98828125 476.625 C-225.35873924 487.05019908 -217.76869873 495.18246705 -204 498 C-192.87274812 498.92430846 -184.0754655 496.41366696 -175 490 C-175.20496094 489.45472656 -175.40992188 488.90945313 -175.62109375 488.34765625 C-178.59991823 480.00979826 -180.07827053 473.48117067 -176.7890625 465.04296875 C-174.99450555 460.39666535 -174.95594653 458.34984198 -176.875 453.625 C-180.90186817 443.08571398 -180.99436638 433.1645905 -178.29875183 422.2149353 C-178.1207102 421.47697011 -177.94266858 420.73900492 -177.75923175 419.97867715 C-175.693837 411.54875484 -173.31208312 403.21163701 -170.9074707 394.87353516 C-170.40379847 393.11568737 -169.90048305 391.35773732 -169.39748955 389.59969521 C-168.03191017 384.83055259 -166.66138104 380.06284526 -165.28998351 375.29537296 C-163.81468989 370.16325186 -162.34419525 365.02975576 -160.87312317 359.89642334 C-158.01524415 349.92654196 -155.15320108 339.95786092 -152.28957707 329.98962831 C-148.63736942 317.27594834 -144.98928523 304.56108592 -141.34130859 291.84619141 C-139.99440153 287.15169807 -138.64747397 282.45721062 -137.30053711 277.76272583 C-136.9657534 276.5958808 -136.63096969 275.42903577 -136.28604102 274.22683179 C-134.24125953 267.10022972 -132.19591817 259.97378858 -130.15018153 252.84746063 C-121.74232069 223.55810091 -113.35490623 194.26300633 -104.99542063 164.95980275 C-102.97430717 157.87513453 -100.951976 150.790815 -98.9287262 143.70675659 C-98.64968557 142.72972161 -98.37064494 141.75268662 -98.08314854 140.74604452 C-96.97423916 136.86339116 -95.86529017 132.98074913 -94.75620425 129.0981462 C-91.55703717 117.89862882 -88.36187301 106.69798902 -85.17338771 95.4954257 C-83.1906808 88.53080352 -81.20273219 81.56769111 -79.21067315 74.60573816 C-78.07242237 70.62704157 -76.93653915 66.64771048 -75.80723 62.66646576 C-74.77824767 59.03896734 -73.74252606 55.41346249 -72.70157945 51.78937984 C-72.15482403 49.87936193 -71.6151879 47.96731038 -71.07590199 46.05517006 C-67.73586327 34.47556251 -64.11844541 24.08283957 -56 15 C-55.45472656 14.37351562 -54.90945312 13.74703125 -54.34765625 13.1015625 C-41.02102924 -1.2598379 -18.494252 -6.57468294 0 0 Z M-48 23 C-53.44341242 30.28977979 -56.5476876 37.50297218 -58.9453125 46.21875 C-59.31370498 47.50464251 -59.68375361 48.79006138 -60.0552063 50.07507324 C-60.90529185 53.02885095 -61.7436469 55.98567262 -62.5748291 58.94482422 C-64.13611553 64.49714799 -65.73151198 70.03949916 -67.32714844 75.58203125 C-70.94675241 88.17010103 -74.53761357 100.76631826 -78.12632185 113.36322141 C-81.84168132 126.40395262 -85.56436985 139.44259508 -89.2861402 152.48149776 C-89.97002665 154.87753357 -90.65383398 157.27359195 -91.3376255 159.66965485 C-99.99919797 190.01954705 -108.68634244 220.36209631 -117.37890625 250.703125 C-118.04720691 253.03587813 -118.71550627 255.36863163 -119.38380432 257.7013855 C-125.72386663 279.83167898 -132.06502193 301.96165914 -138.40753728 324.0912497 C-140.95195984 332.96910885 -143.49585221 341.84711983 -146.03938884 350.72523284 C-147.52265021 355.9023856 -149.00618782 361.07945881 -150.49044991 366.25632477 C-151.05439867 368.2233909 -151.6183376 370.19045984 -152.18226624 372.15753174 C-152.45446851 373.10700282 -152.72667079 374.05647391 -153.00712162 375.03471684 C-155.02401025 382.07198407 -157.03412982 389.111168 -159.04117054 396.15124965 C-160.44340038 401.06539035 -161.86230244 405.97434277 -163.29055786 410.88098145 C-163.93614749 413.12275282 -164.58157954 415.36456957 -165.22680664 417.60644531 C-165.50871825 418.55903606 -165.79062986 419.51162682 -166.08108425 420.49308395 C-169.10394847 431.07996152 -169.81502938 440.88071365 -165 451 C-162.04049858 449.62594577 -159.58504604 447.98223068 -157 446 C-157.28875 444.9378125 -157.5775 443.875625 -157.875 442.78125 C-158.25051276 441.35430151 -158.6254838 439.92721038 -159 438.5 C-159.19078125 437.80390625 -159.3815625 437.1078125 -159.578125 436.390625 C-162.50178978 425.11363226 -160.81790109 414.28403772 -154.9375 404.1875 C-149.84045077 396.73548498 -141.9500135 390.88179771 -133 389 C-129.58320906 388.66596743 -126.18836568 388.43992583 -122.7578125 388.30859375 C-119.85855907 388.27461769 -119.85855907 388.27461769 -118 386 C-117.19226618 383.64494808 -116.47766423 381.3188697 -115.80847168 378.92419434 C-115.59642861 378.18561015 -115.38438554 377.44702596 -115.16591692 376.68606043 C-114.45262354 374.19545299 -113.74883797 371.70225696 -113.04492188 369.20898438 C-112.53566662 367.42354298 -112.0258253 365.63826865 -111.51544189 363.85314941 C-110.41048361 359.98353529 -109.30977543 356.1127456 -108.21226501 352.24101257 C-106.4471589 346.01417681 -104.67289675 339.78997191 -102.89758301 333.56604004 C-100.05477505 323.59540292 -97.21844089 313.62293678 -94.38462496 303.6497407 C-89.11962186 285.12128662 -83.84153265 266.5965551 -78.56404686 248.07165337 C-77.33060837 243.7419752 -76.09754058 239.41219171 -74.86477089 235.08232307 C-65.98905007 203.90972592 -57.04963332 172.75610852 -48.04296875 141.62109375 C-47.76993164 140.67721196 -47.49689453 139.73333017 -47.21558356 138.7608459 C-44.86105445 130.62173722 -42.50581772 122.48283339 -40.14997196 114.34410572 C-34.50207643 94.8311223 -28.87444969 75.31241054 -23.30249023 55.77758789 C-22.2655035 52.14374322 -21.22315331 48.51148432 -20.17749023 44.88012695 C-18.84324836 40.24626633 -17.51717855 35.61014464 -16.19727135 30.97218132 C-15.71095166 29.26846284 -15.22177165 27.56555775 -14.72947121 25.86355782 C-14.06795984 23.57471023 -13.41702211 21.2831186 -12.76879883 18.99047852 C-12.47402397 17.98445084 -12.47402397 17.98445084 -12.17329407 16.95809937 C-11.27196061 13.72672358 -10.91183436 12.26449692 -12 9 C-25.62353617 8.32999002 -38.55638701 12.93619362 -48 23 Z M-2 21 C-10.55070453 49.76598388 -18.94652812 78.57268771 -27.18936062 107.42834234 C-28.36223888 111.53347757 -29.53627867 115.63828031 -30.71025968 119.74310029 C-33.47435438 129.4079653 -36.23638224 139.07341922 -38.99707031 148.73925781 C-41.83484189 158.67481841 -44.67658029 168.60923877 -47.520087 178.54315937 C-49.98470796 187.15400854 -52.44678833 195.76558136 -54.90684628 204.37773526 C-56.36674408 209.48840803 -57.82762365 214.59879485 -59.29103851 219.70846176 C-60.65663187 224.47693776 -62.01905773 229.2463073 -63.37902832 234.01638985 C-63.8773575 235.76224899 -64.37681264 237.5077872 -64.87747955 239.25297737 C-65.56043749 241.63425209 -66.23931123 244.01665462 -66.91717529 246.39938354 C-67.21467151 247.43123191 -67.21467151 247.43123191 -67.51817775 248.4839257 C-68.59885939 252.3013455 -69.42503975 256.07447157 -70 260 C-62.58150293 259.47940371 -57.19971789 257.4714675 -51.875 252.1875 C-49.20970189 248.7824147 -47.95477205 245.38601518 -46.62522888 241.28675842 C-46.41164968 240.629363 -46.19807048 239.97196758 -45.97801918 239.29465109 C-43.52249672 231.65441107 -41.31523983 223.94285269 -39.12133789 216.22436523 C-38.65771414 214.60261694 -38.19380261 212.98095089 -37.72962952 211.35935974 C-36.4827604 207.00025826 -35.23996389 202.64000568 -33.99802327 198.27949786 C-32.68715734 193.67943053 -31.37269117 189.08039198 -30.05870056 184.48121643 C-27.85176415 176.75463272 -25.6473269 169.02733964 -23.44458008 161.29956055 C-20.91445762 152.42331973 -18.38117457 143.54798616 -15.84599119 134.67318958 C-13.12609064 125.15172248 -10.40821036 115.62967962 -7.69107509 106.10742307 C-6.91794321 103.39837915 -6.14448271 100.68942923 -5.37095833 97.98049736 C-4.87056331 96.22768607 -4.37020611 94.47486398 -3.86988831 92.72203064 C-3.6276836 91.87348155 -3.38547889 91.02493245 -3.13593465 90.15066975 C-1.33052999 83.82142867 0.46244809 77.48872485 2.25053197 71.15457088 C3.48839444 66.77820478 4.7566438 62.41190351 6.04421997 58.04983521 C6.61112875 56.08804643 7.17786809 54.12620868 7.74438477 52.16430664 C7.99732017 51.33686919 8.25025557 50.50943174 8.51085567 49.65692043 C10.71080712 41.91701033 10.10883758 34.89032644 6.25 27.796875 C4.22349231 24.8837702 1.88628243 23.0524675 -1 21 C-1.33 21 -1.66 21 -2 21 Z M174.5 158.875 C173.91033447 159.35187256 173.32066895 159.82874512 172.71313477 160.32006836 C170.80052362 161.87023206 168.9001424 163.43458783 167 165 C164.99192089 166.63831252 162.98143619 168.27363774 160.97070312 169.90869141 C159.61033336 171.01521696 158.25096442 172.12297401 156.89257812 173.23193359 C151.7829559 177.39491808 146.58054558 181.41323038 141.33984375 185.41015625 C136.82258932 188.88528049 132.42459661 192.50732963 128.01171875 196.11328125 C123.15064177 200.08036706 118.23749369 203.97310795 113.29150391 207.83349609 C108.79358306 211.35366342 104.36023195 214.94849618 99.9375 218.5625 C94.1500513 223.28965275 88.2818091 227.87839776 82.33984375 232.41015625 C78.5220669 235.34717233 74.79286477 238.39072391 71.0625 241.4375 C63.22014034 247.84274865 55.27264072 254.10375587 47.29101562 260.33398438 C40.29807802 265.79597099 33.34118627 271.30046717 26.4375 276.875 C25.43710693 277.6781665 25.43710693 277.6781665 24.41650391 278.49755859 C15.33908803 285.8463366 15.33908803 285.8463366 10 296 C9.52210716 300.85193978 9.45143384 305.35430153 11 310 C16.25272536 308.4333977 19.84553577 305.04544486 23.9375 301.5625 C25.46249122 300.28520313 26.98854739 299.00917674 28.515625 297.734375 C29.65161133 296.78401367 29.65161133 296.78401367 30.81054688 295.81445312 C33.89406714 293.25906479 37.03044802 290.77611114 40.1875 288.3125 C40.75412354 287.86962646 41.32074707 287.42675293 41.90454102 286.97045898 C43.60193989 285.64557113 45.30090727 284.32271453 47 283 C55.08191016 276.69606378 63.09436386 270.31810981 71.03637695 263.83862305 C75.90962985 259.86906645 80.82968768 255.96497145 85.78125 252.09375 C90.04463 248.75845272 94.27794395 245.38742566 98.5 242 C103.28943557 238.15735633 108.10005592 234.34450173 112.9375 230.5625 C118.00515372 226.59800899 123.01458331 222.56734931 128 218.5 C135.82352749 212.11856278 143.750718 205.87801098 151.70898438 199.66601562 C159.21413299 193.80395542 166.64958851 187.86665733 174.02758789 181.84521484 C178.41999282 178.26637589 182.84854969 174.73910007 187.3125 171.25 C191.66871616 167.84027699 196.00949674 164.41428228 200.3125 160.9375 C201.19550781 160.22464844 202.07851563 159.51179687 202.98828125 158.77734375 C205.07920695 157.15341447 205.07920695 157.15341447 206 155 C194.0747636 148.81654409 184.8252176 150.26679182 174.5 158.875 Z M220 160 C212.22282843 165.89946405 204.57450118 171.93335877 197.015625 178.11010742 C192.71322509 181.62123183 188.3775617 185.08313765 184 188.5 C178.95146007 192.44185271 173.96248301 196.45037614 169 200.5 C161.17655867 206.88153998 153.24927935 213.12199109 145.29101562 219.33398438 C137.78216508 225.19893605 130.34337472 231.13955026 122.96142578 237.16357422 C118.11467162 241.11230493 113.2164174 244.9885508 108.2890625 248.8359375 C103.81563025 252.33776455 99.40142446 255.90822679 95 259.5 C87.17655867 265.88153998 79.24927935 272.12199109 71.29101562 278.33398438 C63.78216508 284.19893605 56.34337472 290.13955026 48.96142578 296.16357422 C44.11467162 300.11230493 39.2164174 303.9885508 34.2890625 307.8359375 C29.81563025 311.33776455 25.40142446 314.90822679 21 318.5 C13.17655867 324.88153998 5.24927935 331.12199109 -2.70898438 337.33398438 C-10.21783492 343.19893605 -17.65662528 349.13955026 -25.03857422 355.16357422 C-29.88532838 359.11230493 -34.7835826 362.9885508 -39.7109375 366.8359375 C-44.18436975 370.33776455 -48.59857554 373.90822679 -53 377.5 C-59.67983248 382.94870425 -66.42682901 388.30336132 -73.22070312 393.60888672 C-76.44375766 396.1287776 -79.65878237 398.65889317 -82.875 401.1875 C-84.05986345 402.1185308 -85.24475613 403.0495244 -86.4296875 403.98046875 C-87.27789062 404.64691406 -88.12609375 405.31335938 -89 406 C-88.51833496 408.72943522 -87.92729778 411.19596801 -86.9609375 413.80078125 C-84.27332385 422.74856817 -84.96267399 434.04206539 -88.6875 442.578125 C-93.83827615 452.08253338 -101.04278541 458.58115446 -111.359375 462.16796875 C-121.76911488 464.54701875 -132.45689829 463.90317984 -142 459 C-143.1423362 458.23356075 -144.2704917 457.44501374 -145.375 456.625 C-146.24125 456.08875 -147.1075 455.5525 -148 455 C-152.28208326 456.1573198 -155.24828107 458.57502094 -158.625 461.375 C-160.03652344 462.53128906 -160.03652344 462.53128906 -161.4765625 463.7109375 C-164.99582701 466.90333534 -166.85268846 468.64964423 -167.375 473.4375 C-166.89174011 478.02846892 -165.53719738 480.40367964 -162.375 483.6875 C-153.53230413 488.57425298 -143.37163359 487.58854039 -133.9921875 485.015625 C-123.53567346 481.46641658 -115.3811479 473.58649041 -107.01074219 466.65185547 C-104.00159069 464.17979148 -100.94339937 461.77286513 -97.875 459.375 C-97.30410645 458.92793701 -96.73321289 458.48087402 -96.14501953 458.02026367 C-93.86182428 456.23362618 -91.57636608 454.4498949 -89.29101562 452.66601562 C-81.78216508 446.80106395 -74.34337472 440.86044974 -66.96142578 434.83642578 C-62.11467162 430.88769507 -57.2164174 427.0114492 -52.2890625 423.1640625 C-47.81563025 419.66223545 -43.40142446 416.09177321 -39 412.5 C-31.17655867 406.11846002 -23.24927935 399.87800891 -15.29101562 393.66601562 C-7.78216508 387.80106395 -0.34337472 381.86044974 7.03857422 375.83642578 C11.88532838 371.88769507 16.7835826 368.0114492 21.7109375 364.1640625 C26.18436975 360.66223545 30.59857554 357.09177321 35 353.5 C42.82344133 347.11846002 50.75072065 340.87800891 58.70898438 334.66601562 C66.21783492 328.80106395 73.65662528 322.86044974 81.03857422 316.83642578 C85.88532838 312.88769507 90.7835826 309.0114492 95.7109375 305.1640625 C100.18436975 301.66223545 104.59857554 298.09177321 109 294.5 C116.82344133 288.11846002 124.75072065 281.87800891 132.70898438 275.66601562 C140.21783492 269.80106395 147.65662528 263.86044974 155.03857422 257.83642578 C159.88532838 253.88769507 164.7835826 250.0114492 169.7109375 246.1640625 C174.18436789 242.6622369 178.59864474 239.09185606 183 235.5 C188.08846916 231.34791218 193.20528663 227.23801901 198.375 223.1875 C198.95000244 222.7344751 199.52500488 222.2814502 200.11743164 221.81469727 C202.67169493 219.80543197 205.23582177 217.82531721 207.84765625 215.890625 C217.47715019 208.62856321 223.54136124 199.92948983 226 188 C227.01564414 178.74402656 225.90324611 170.49027255 222 162 C221.34 161.34 220.68 160.68 220 160 Z M-143 407 C-148.46404756 415.00857951 -151.00587956 421.24296828 -150 431 C-147.96686554 438.43441335 -143.35874065 444.80482147 -137.15625 449.3515625 C-131.18765212 452.75170637 -124.33240696 453.72672633 -117.578125 452.59375 C-109.41168418 450.22829818 -103.1138581 445.4141716 -98.96875 437.9921875 C-95.41770157 430.68962822 -95.24305939 423.47134223 -97.71875 415.76171875 C-100.86263932 408.78282652 -105.82610778 403.68827988 -112.8125 400.5625 C-123.24130955 396.91793872 -135.16901129 398.73395636 -143 407 Z " fill="#000000" transform="translate(269,2)"/>
<path d="M0 0 C1.8125 1.125 1.8125 1.125 3 3 C3.4123911 6.54656342 3.54281603 8.30584586 1.3046875 11.16796875 C0.10199219 12.16763672 0.10199219 12.16763672 -1.125 13.1875 C-2.03507812 13.95191406 -2.94515625 14.71632812 -3.8828125 15.50390625 C-5.42582031 16.73947266 -5.42582031 16.73947266 -7 18 C-7.8348291 18.67651611 -7.8348291 18.67651611 -8.68652344 19.36669922 C-12.19660337 22.20720928 -15.74480803 24.99156551 -19.33544922 27.72949219 C-20.87786398 28.90677679 -22.41009811 30.09736719 -23.94140625 31.2890625 C-24.80636719 31.93617188 -25.67132813 32.58328125 -26.5625 33.25 C-27.30628906 33.81203125 -28.05007813 34.3740625 -28.81640625 34.953125 C-31.65072808 36.31197697 -33.06303302 35.99690726 -36 35 C-38 33 -38 33 -38.4375 30.1875 C-37.55682445 23.77114954 -30.28918833 19.65397061 -25.4375 15.75 C-24.73584717 15.18514893 -24.03419434 14.62029785 -23.3112793 14.03833008 C-21.2112078 12.35421362 -19.10574097 10.67701817 -17 9 C-16.39510742 8.51257324 -15.79021484 8.02514648 -15.16699219 7.52294922 C-13.55927876 6.23134888 -11.93633847 4.95876808 -10.3125 3.6875 C-9.40113281 2.96949219 -8.48976563 2.25148437 -7.55078125 1.51171875 C-4.71125774 -0.1711229 -3.2407733 -0.42729374 0 0 Z " fill="#000000" transform="translate(459,208)"/>
<path d="M0 0 C3 0.4375 3 0.4375 4.9375 2 C7.70413919 8.34699579 3.44896756 17.41666938 1.625 23.6875 C1.32078125 24.77546875 1.0165625 25.8634375 0.703125 26.984375 C0.40148437 28.0259375 0.09984375 29.0675 -0.2109375 30.140625 C-0.48212402 31.08583008 -0.75331055 32.03103516 -1.03271484 33.00488281 C-2.03783535 35.5326518 -2.83681644 36.80993005 -5 38.4375 C-8.0625 38.75 -8.0625 38.75 -11 38.4375 C-13 36.4375 -13 36.4375 -13.33203125 33.11328125 C-13.17518894 27.07553405 -11.34880956 21.39111468 -9.6875 15.625 C-9.2244043 13.92827148 -9.2244043 13.92827148 -8.75195312 12.19726562 C-5.52939483 0.80637008 -5.52939483 0.80637008 0 0 Z " fill="#000000" transform="translate(222,58.5625)"/>
<path d="M0 0 C1.9375 1.0625 1.9375 1.0625 3 3 C3 7.26670232 2.65618894 9.30834138 -0.3125 12.4375 C-1.199375 13.283125 -2.08625 14.12875 -3 15 C-4.19253682 17.06627667 -5.20890889 19.16040791 -6.203125 21.328125 C-7 23 -7 23 -8 24 C-11.4375 24.1875 -11.4375 24.1875 -15 24 C-17 22 -17 22 -17.5 18.5 C-17.33834977 11.68582119 -13.03992222 6.14191834 -8.5 1.375 C-5.38136822 -0.34024748 -3.50767397 -0.53377647 0 0 Z " fill="#000000" transform="translate(239,27)"/>
<path d="M0 0 C2.4375 0.75 2.4375 0.75 4.4375 2.75 C5.37156815 9.28847702 3.04216848 13.52748819 -0.5625 18.75 C-3.20348771 22.20523325 -5.29783973 24.52682466 -9.75 25.3125 C-12.5625 24.75 -12.5625 24.75 -14.5 23.6875 C-16.30306555 20.39955693 -15.56461129 18.28686336 -14.5625 14.75 C-13.17644448 12.84262211 -11.6684075 11.16726832 -10.05078125 9.453125 C-8.02846471 7.13887301 -6.90444534 4.49779283 -5.5625 1.75 C-2.5625 -0.25 -2.5625 -0.25 0 0 Z " fill="#000000" transform="translate(479.5625,184.25)"/>
<path d="M0 0 C2.125 1.6875 2.125 1.6875 3 4 C2.75925978 7.37036311 2.41201979 8.58798021 0 11 C-1.155 11.309375 -2.31 11.61875 -3.5 11.9375 C-7.23685745 12.6673234 -7.23685745 12.6673234 -9 16 C-12.5 16.3125 -12.5 16.3125 -16 16 C-18 14 -18 14 -18.5625 10.75 C-17.85958771 6.06391807 -16.34914488 4.95181108 -12.7265625 2.1640625 C-8.67056531 -0.57052384 -4.78605636 -0.62997451 0 0 Z " fill="#000000" transform="translate(149,411)"/>
</svg>
