<?xml version="1.0" standalone="no"?>
<!DOCTYPE svg PUBLIC "-//W3C//DTD SVG 20010904//EN"
 "http://www.w3.org/TR/2001/REC-SVG-20010904/DTD/svg10.dtd">
<svg version="1.0" xmlns="http://www.w3.org/2000/svg"
 width="512.000000pt" height="512.000000pt" viewBox="0 0 512.000000 512.000000"
 preserveAspectRatio="xMidYMid meet">

<g transform="translate(0.000000,512.000000) scale(0.100000,-0.100000)"
fill="#000000" stroke="none">
<path d="M3485 4579 l-260 -110 -300 21 c-165 11 -392 27 -505 35 -1334 98
-1311 96 -1410 84 -132 -15 -247 -50 -375 -113 -279 -137 -481 -368 -579 -661
-157 -468 30 -1003 449 -1281 l82 -55 208 -562 c115 -309 224 -593 243 -630
95 -185 317 -310 523 -294 l76 6 52 -112 c29 -62 71 -140 93 -175 55 -84 152
-172 246 -220 117 -61 179 -76 312 -77 100 0 126 4 203 29 152 50 268 139 358
275 74 112 101 205 107 377 l4 141 -30 34 c-25 28 -37 34 -72 34 -35 0 -47 -6
-71 -33 -28 -31 -29 -36 -29 -135 0 -179 -39 -285 -141 -388 -182 -183 -476
-181 -662 4 -46 46 -70 83 -121 189 l-64 131 47 37 c67 53 117 114 156 192 45
92 58 162 52 283 -5 98 -8 110 -155 530 l-151 430 27 20 c54 39 185 171 233
235 57 75 127 207 160 300 12 36 23 66 23 67 1 0 226 29 501 63 l500 62 266
-101 c146 -55 280 -101 298 -101 23 0 41 9 62 29 l29 29 0 729 c0 675 -2 730
-18 749 -22 28 -54 44 -84 43 -13 0 -140 -50 -283 -110z m181 -1216 c-2 -3
-79 24 -170 59 l-166 63 0 406 0 406 168 70 167 70 3 -535 c1 -294 0 -537 -2
-539z m-1586 987 c542 -39 1000 -73 1018 -76 l32 -5 0 -383 0 -383 -517 -63
c-604 -74 -553 -57 -598 -205 -65 -214 -207 -407 -386 -523 -227 -147 -524
-185 -789 -100 -136 43 -237 105 -349 212 -127 123 -217 273 -262 441 -32 115
-32 335 0 450 45 169 136 320 263 441 151 143 335 229 553 257 17 2 35 5 40 6
6 1 453 -30 995 -69z m-345 -2287 c126 -362 139 -405 143 -480 3 -62 0 -95
-13 -132 -71 -194 -296 -291 -482 -207 -64 30 -138 97 -165 151 -25 47 -380
997 -375 1001 2 2 37 -3 78 -12 165 -35 415 -15 579 46 41 15 80 28 86 29 6 0
73 -178 149 -396z"/>
<path d="M992 4026 c-191 -47 -363 -223 -402 -413 -17 -82 -8 -235 18 -308 83
-228 309 -377 552 -362 249 16 454 191 505 434 20 93 19 156 -5 247 -27 107
-63 169 -145 252 -111 113 -235 165 -390 163 -44 0 -104 -6 -133 -13z m296
-226 c281 -149 239 -558 -67 -647 -123 -35 -260 5 -350 102 -71 78 -94 145
-89 255 5 100 31 160 99 228 77 77 148 103 264 99 68 -3 89 -8 143 -37z"/>
<path d="M4184 4471 c-42 -26 -59 -69 -44 -115 22 -67 16 -66 448 -66 l389 0
26 24 c51 47 43 120 -17 157 -29 18 -57 19 -401 19 -344 0 -372 -1 -401 -19z"/>
<path d="M4193 3986 c-46 -21 -68 -69 -54 -117 20 -68 25 -69 304 -69 l249 0
29 29 c40 40 40 89 0 133 l-29 33 -234 2 c-183 2 -240 0 -265 -11z"/>
<path d="M4168 3481 c-27 -24 -33 -36 -33 -71 0 -35 6 -47 33 -71 l32 -29 385
0 385 0 32 29 c27 24 33 36 33 71 0 35 -6 47 -33 71 l-32 29 -385 0 -385 0
-32 -29z"/>
<path d="M3228 2785 c-199 -49 -356 -207 -403 -407 -18 -76 -20 -267 -3 -303
13 -29 55 -55 88 -55 35 0 76 27 88 57 6 15 12 82 15 148 3 105 7 127 30 176
32 66 108 141 175 172 38 18 65 22 137 22 79 -1 97 -4 148 -30 70 -35 130 -97
165 -173 l27 -57 5 -590 c4 -380 10 -601 17 -620 97 -275 387 -404 641 -285
115 54 220 178 252 298 6 24 15 114 19 202 7 151 9 162 40 224 60 122 174 199
318 216 70 7 81 12 106 41 25 27 28 38 24 73 -9 61 -42 86 -119 86 -131 0
-271 -58 -377 -157 -80 -73 -124 -138 -159 -231 -21 -56 -26 -93 -32 -228 -7
-132 -12 -170 -30 -210 -95 -217 -407 -206 -485 16 -13 36 -15 130 -15 585 0
298 -4 564 -9 591 -59 311 -362 512 -663 439z"/>
<path d="M2861 1756 c-30 -17 -50 -52 -51 -89 0 -41 57 -97 100 -97 41 0 100
56 100 94 0 80 -80 130 -149 92z"/>
</g>
</svg>
