<?xml version="1.0" encoding="UTF-8"?>
<!DOCTYPE svg PUBLIC "-//W3C//DTD SVG 1.1//EN" "http://www.w3.org/Graphics/SVG/1.1/DTD/svg11.dtd">
<svg xmlns="http://www.w3.org/2000/svg" version="1.1" width="512px" height="512px" style="shape-rendering:geometricPrecision; text-rendering:geometricPrecision; image-rendering:optimizeQuality; fill-rule:evenodd; clip-rule:evenodd" xmlns:xlink="http://www.w3.org/1999/xlink">
<g><path style="opacity:0.946" fill="#000000" d="M 261.5,-0.5 C 264.5,-0.5 267.5,-0.5 270.5,-0.5C 275.6,3.79043 279.433,9.12377 282,15.5C 290.925,37.2655 287.591,56.9322 272,74.5C 266.374,83.6103 266.041,92.9436 271,102.5C 273.853,106.852 276.02,111.518 277.5,116.5C 275.352,126.742 269.352,129.909 259.5,126C 240.347,100.665 240.847,75.832 261,51.5C 265.497,42.2364 265.497,32.9031 261,23.5C 257.911,19.4925 256.078,14.9925 255.5,10C 255.324,5.17695 257.324,1.67695 261.5,-0.5 Z"/></g>
<g><path style="opacity:0.937" fill="#000000" d="M 178.5,41.5 C 186.708,42.1898 192.208,46.5231 195,54.5C 201.292,69.7044 198.626,83.0378 187,94.5C 186.399,96.1368 185.899,97.8034 185.5,99.5C 186.463,104.229 188.297,108.563 191,112.5C 192.43,125.4 186.93,129.9 174.5,126C 163.689,114.584 160.855,101.417 166,86.5C 168.26,81.6439 171.26,77.3105 175,73.5C 176.315,67.7958 174.982,62.7958 171,58.5C 168.2,50.3785 170.7,44.7119 178.5,41.5 Z"/></g>
<g><path style="opacity:0.939" fill="#000000" d="M 349.5,41.5 C 354.102,41.384 357.935,43.0507 361,46.5C 372.603,64.0942 371.27,80.7609 357,96.5C 356.328,102.507 357.995,107.841 362,112.5C 362.854,125.5 357.021,130 344.5,126C 329.706,108.602 329.872,91.4354 345,74.5C 345.923,72.9656 346.423,71.299 346.5,69.5C 345.541,64.7884 343.708,60.4551 341,56.5C 339.733,49.0214 342.566,44.0214 349.5,41.5 Z"/></g>
<g><path style="opacity:0.965" fill="#000000" d="M 511.5,122.5 C 511.5,157.833 511.5,193.167 511.5,228.5C 509.954,231.2 507.621,233.033 504.5,234C 492.838,234.5 481.171,234.667 469.5,234.5C 469.667,313.834 469.5,393.167 469,472.5C 467.623,488.109 460.123,499.609 446.5,507C 442.693,508.428 439.026,509.928 435.5,511.5C 429.167,511.5 422.833,511.5 416.5,511.5C 408.245,508.618 400.745,504.284 394,498.5C 387.315,504.376 379.815,508.709 371.5,511.5C 365.167,511.5 358.833,511.5 352.5,511.5C 344.245,508.618 336.745,504.284 330,498.5C 323.315,504.376 315.815,508.709 307.5,511.5C 301.167,511.5 294.833,511.5 288.5,511.5C 280.245,508.618 272.745,504.284 266,498.5C 259.315,504.376 251.815,508.709 243.5,511.5C 237.167,511.5 230.833,511.5 224.5,511.5C 216.245,508.618 208.745,504.284 202,498.5C 195.315,504.376 187.815,508.709 179.5,511.5C 173.167,511.5 166.833,511.5 160.5,511.5C 152.245,508.618 144.745,504.284 138,498.5C 131.315,504.376 123.815,508.709 115.5,511.5C 109.167,511.5 102.833,511.5 96.5,511.5C 79.8234,506.323 68.99,495.323 64,478.5C 63.5,407.834 63.3333,337.167 63.5,266.5C 50.7335,266.961 38.0668,266.461 25.5,265C 23.6217,263.457 22.1217,261.624 21,259.5C 20.5003,251.173 20.3336,242.84 20.5,234.5C 15.8215,234.666 11.1548,234.499 6.5,234C 3.37935,233.033 1.04602,231.2 -0.5,228.5C -0.5,225.167 -0.5,221.833 -0.5,218.5C 1.04602,215.8 3.37935,213.967 6.5,213C 11.1548,212.501 15.8215,212.334 20.5,212.5C 20.3336,204.16 20.5003,195.827 21,187.5C 22.1217,185.376 23.6217,183.543 25.5,182C 38.4187,180.869 51.4187,180.036 64.5,179.5C 75.7595,152.539 95.4262,143.372 123.5,152C 129.129,154.398 133.963,157.898 138,162.5C 156.049,146.006 175.549,144.173 196.5,157C 198.333,158.833 200.167,160.667 202,162.5C 220.049,146.006 239.549,144.173 260.5,157C 262.333,158.833 264.167,160.667 266,162.5C 284.049,146.006 303.549,144.173 324.5,157C 326.333,158.833 328.167,160.667 330,162.5C 348.049,146.006 367.549,144.173 388.5,157C 390.333,158.833 392.167,160.667 394,162.5C 412.039,145.984 431.539,144.151 452.5,157C 462.309,164.816 467.809,174.982 469,187.5C 469.5,195.827 469.666,204.16 469.5,212.5C 476.167,212.5 482.833,212.5 489.5,212.5C 489.333,183.498 489.5,154.498 490,125.5C 493.63,116.445 499.796,114.278 508.5,119C 509.163,120.518 510.163,121.685 511.5,122.5 Z M 103.5,170.5 C 117.141,170.973 124.974,177.973 127,191.5C 127.667,283.833 127.667,376.167 127,468.5C 125.969,481.531 118.969,488.531 106,489.5C 95.7896,488.625 89.1229,483.292 86,473.5C 85.3333,377.833 85.3333,282.167 86,186.5C 88.8606,177.802 94.694,172.468 103.5,170.5 Z M 167.5,170.5 C 181.141,170.973 188.974,177.973 191,191.5C 191.667,283.833 191.667,376.167 191,468.5C 189.969,481.531 182.969,488.531 170,489.5C 159.79,488.625 153.123,483.292 150,473.5C 149.333,377.833 149.333,282.167 150,186.5C 152.861,177.802 158.694,172.468 167.5,170.5 Z M 231.5,170.5 C 245.141,170.973 252.974,177.973 255,191.5C 255.667,283.833 255.667,376.167 255,468.5C 253.969,481.531 246.969,488.531 234,489.5C 223.79,488.625 217.123,483.292 214,473.5C 213.333,377.833 213.333,282.167 214,186.5C 216.861,177.802 222.694,172.468 231.5,170.5 Z M 295.5,170.5 C 309.141,170.973 316.974,177.973 319,191.5C 319.667,283.833 319.667,376.167 319,468.5C 317.969,481.531 310.969,488.531 298,489.5C 287.79,488.625 281.123,483.292 278,473.5C 277.333,377.833 277.333,282.167 278,186.5C 280.861,177.802 286.694,172.468 295.5,170.5 Z M 359.5,170.5 C 373.141,170.973 380.974,177.973 383,191.5C 383.667,283.833 383.667,376.167 383,468.5C 381.969,481.531 374.969,488.531 362,489.5C 351.79,488.625 345.123,483.292 342,473.5C 341.333,377.833 341.333,282.167 342,186.5C 344.861,177.802 350.694,172.468 359.5,170.5 Z M 423.5,170.5 C 437.141,170.973 444.974,177.973 447,191.5C 447.667,283.833 447.667,376.167 447,468.5C 445.969,481.531 438.969,488.531 426,489.5C 415.79,488.625 409.123,483.292 406,473.5C 405.333,377.833 405.333,282.167 406,186.5C 408.861,177.802 414.694,172.468 423.5,170.5 Z M 42.5,202.5 C 49.5,202.5 56.5,202.5 63.5,202.5C 63.5,216.5 63.5,230.5 63.5,244.5C 56.5,244.5 49.5,244.5 42.5,244.5C 42.5,230.5 42.5,216.5 42.5,202.5 Z"/></g>
</svg>
