<svg width="40" height="40" viewBox="0 0 40 40" fill="none" xmlns="http://www.w3.org/2000/svg">
<path fill-rule="evenodd" clip-rule="evenodd" d="M18.7499 3.33325C18.7499 2.6429 19.3096 2.08325 19.9999 2.08325C29.895 2.08325 37.9166 10.1048 37.9166 19.9999C37.9166 29.895 29.895 37.9166 19.9999 37.9166C10.1048 37.9166 2.08325 29.895 2.08325 19.9999C2.08325 19.3096 2.6429 18.7499 3.33325 18.7499C4.02361 18.7499 4.58325 19.3096 4.58325 19.9999C4.58325 28.5143 11.4855 35.4166 19.9999 35.4166C28.5143 35.4166 35.4166 28.5143 35.4166 19.9999C35.4166 11.4855 28.5143 4.58325 19.9999 4.58325C19.3096 4.58325 18.7499 4.02361 18.7499 3.33325Z" fill="#1C274C"/>
<path opacity="0.5" fill-rule="evenodd" clip-rule="evenodd" d="M15.166 3.99599C15.4147 4.64002 15.0941 5.36366 14.4501 5.61227C14.2143 5.70326 13.9814 5.79989 13.7514 5.90199C13.1204 6.18211 12.3819 5.89768 12.1017 5.26671C11.8216 4.63573 12.1061 3.89715 12.737 3.61704C13.0045 3.49828 13.2755 3.38587 13.5498 3.28001C14.1938 3.03139 14.9174 3.35195 15.166 3.99599ZM9.41293 7.06719C9.88903 7.56711 9.86972 8.35833 9.36981 8.83444C9.18703 9.00851 9.00851 9.18703 8.83443 9.36981C8.35833 9.86973 7.56711 9.88903 7.06719 9.41293C6.56728 8.93682 6.54797 8.1456 7.02408 7.64569C7.22619 7.43346 7.43346 7.22619 7.64568 7.02408C8.1456 6.54797 8.93682 6.56728 9.41293 7.06719ZM5.26671 12.1017C5.89768 12.3819 6.18211 13.1204 5.90199 13.7514C5.79989 13.9814 5.70326 14.2143 5.61227 14.4501C5.36366 15.0941 4.64002 15.4147 3.99599 15.166C3.35195 14.9174 3.03139 14.1938 3.28001 13.5498C3.38587 13.2755 3.49828 13.0045 3.61704 12.737C3.89715 12.1061 4.63573 11.8216 5.26671 12.1017Z" fill="#1C274C"/>
<path opacity="0.5" d="M20 13.75C20.6904 13.75 21.25 14.3096 21.25 15V20.4167H26.6667C27.357 20.4167 27.9167 20.9763 27.9167 21.6667C27.9167 22.357 27.357 22.9167 26.6667 22.9167H20C19.3096 22.9167 18.75 22.357 18.75 21.6667V15C18.75 14.3096 19.3096 13.75 20 13.75Z" fill="#1C274C"/>
</svg>
