<?xml version="1.0" encoding="UTF-8"?>
<svg version="1.1" xmlns="http://www.w3.org/2000/svg" width="512" height="512">
<path d="M0 0 C1.46869011 -0.00573832 1.46869011 -0.00573832 2.96705073 -0.01159257 C6.23327204 -0.02187436 9.49931598 -0.01793955 12.76554871 -0.01396179 C15.11338462 -0.01831096 17.46121912 -0.02349479 19.80905151 -0.02944946 C26.17689789 -0.04282939 32.54468488 -0.04341918 38.91254258 -0.04088616 C44.90661287 -0.03968013 50.90067487 -0.04589744 56.89474186 -0.05131962 C69.49367832 -0.06218533 82.09258799 -0.06003742 94.69152596 -0.05393478 C106.20050358 -0.04876797 117.70939649 -0.06001653 129.21835736 -0.07903299 C141.05329162 -0.09843719 152.88818586 -0.10666278 164.72313613 -0.10290974 C171.36049087 -0.10100142 177.99778261 -0.10371586 184.63512611 -0.11762428 C190.8789654 -0.13021869 197.12263549 -0.12824307 203.36647224 -0.11521339 C205.6533031 -0.11285151 207.94014592 -0.11556832 210.22696304 -0.12383652 C213.35829043 -0.13433852 216.48905368 -0.12617532 219.62036133 -0.11352539 C220.51669071 -0.12089968 221.41302008 -0.12827396 222.33651096 -0.13587171 C237.5870574 -0.00702537 252.04891367 6.51542975 262.89909363 17.10054016 C263.59260925 17.81339172 264.28612488 18.52624329 265.00065613 19.26069641 C265.54979675 19.77761047 266.09893738 20.29452454 266.66471863 20.82710266 C277.0503748 31.46268104 281.24497791 48.1304715 285.39909363 61.95210266 C285.96458553 63.79613749 286.53131186 65.63979416 287.09919739 67.48309326 C288.57395456 72.28182485 290.03181742 77.08552065 291.48600769 81.89051819 C292.97110454 86.78606009 294.47312676 91.67640254 295.97331238 96.56733704 C298.16198986 103.71197774 300.34481939 110.85835252 302.51383972 118.00898743 C302.73720001 118.74414581 302.9605603 119.4793042 303.19068909 120.23674011 C303.50562317 121.27667366 303.50562317 121.27667366 303.82691956 122.33761597 C304.09616776 123.22593282 304.09616776 123.22593282 304.37085533 124.13219547 C304.57868959 124.83460078 304.78652386 125.53700609 305.00065613 126.26069641 C305.52411149 127.80181076 305.52411149 127.80181076 306.05814171 129.37405872 C307.21175839 134.13121679 307.27801896 138.49583074 307.25462341 143.36997986 C307.25774339 144.37290333 307.26086338 145.3758268 307.2640779 146.4091419 C307.27203972 149.76157575 307.2657413 153.11382769 307.25944519 156.46626282 C307.26215582 158.87294623 307.26571716 161.27962881 307.27006531 163.68630981 C307.27823569 169.53914602 307.27704355 175.39193517 307.27124003 181.24477006 C307.26671905 186.00142972 307.26611251 190.75807499 307.26828766 195.51473618 C307.26859412 196.19230764 307.26890059 196.8698791 307.26921634 197.56798302 C307.26985581 198.94452863 307.27050423 200.32107424 307.27116153 201.69761984 C307.27686061 214.59633839 307.27031309 227.49502848 307.25956079 240.39374237 C307.25062161 251.46008503 307.25218116 262.52638575 307.26139832 273.59272766 C307.27210141 286.44911622 307.27631559 299.30547988 307.27017379 312.16187227 C307.2695367 313.53267757 307.26890796 314.90348287 307.26828766 316.27428818 C307.26797911 316.94872672 307.26767056 317.62316526 307.26735266 318.31804133 C307.26562614 323.06970093 307.2685398 327.82134471 307.27324677 332.57300186 C307.27944152 338.96697648 307.27503115 345.36089045 307.26345825 351.75485802 C307.26080959 354.10387096 307.26158025 356.45289056 307.26598358 358.80190086 C307.27143211 362.00315145 307.26461317 365.20414606 307.25462341 368.40538025 C307.25908486 369.33932354 307.2635463 370.27326682 307.26814294 371.23551142 C307.24134309 375.64984813 307.19340605 379.29622257 305.00065613 383.26069641 C302.34092042 385.42788847 300.91228016 385.25604504 297.43815613 385.07319641 C294.00065613 384.26069641 294.00065613 384.26069641 291.00065613 381.26069641 C291.00065613 373.67069641 291.00065613 366.08069641 291.00065613 358.26069641 C171.54065613 358.26069641 52.08065613 358.26069641 -70.99934387 358.26069641 C-76.03304463 402.25693344 -76.03304463 402.25693344 -66.99934387 442.26069641 C-64.28535077 443.01227311 -64.28535077 443.01227311 -61.11003113 442.88990211 C-59.87278605 442.90294085 -58.63554096 442.91597959 -57.3608036 442.92941344 C-55.980385 442.91860214 -54.59997004 442.90731882 -53.21955872 442.89561462 C-51.7589184 442.90137227 -50.29828531 442.90931099 -48.83766747 442.91925085 C-44.81388444 442.940197 -40.79069142 442.92977424 -36.76690578 442.91431975 C-32.43144086 442.90304167 -28.09607988 442.92045127 -23.76063538 442.93421936 C-15.26355985 442.95649435 -6.76670471 442.95163168 1.73037958 442.93715616 C8.63390574 442.92588062 15.53736999 442.92432569 22.44090271 442.92977524 C23.91271057 442.93092449 23.91271057 442.93092449 25.41425192 442.93209695 C27.40732815 442.93369552 29.40040435 442.93531658 31.39348054 442.93695991 C50.09832958 442.95122989 68.80305625 442.93480512 87.50788522 442.90795808 C103.56998995 442.88561817 119.63191403 442.88949795 135.6940155 442.91255188 C154.33028579 442.93928785 172.96644873 442.94985648 191.60273552 442.93449056 C193.58862684 442.93289776 195.57451819 442.9313259 197.56040955 442.92977524 C198.53759748 442.92900386 199.51478542 442.92823248 200.52158511 442.92743773 C207.41968456 442.92311411 214.31771612 442.9304215 221.21580505 442.942173 C229.61822278 442.95617211 238.02040685 442.9524528 246.42279768 442.92576928 C250.71283553 442.91259603 255.00248334 442.90753795 259.29251862 442.92401505 C263.21572657 442.93885574 267.13818101 442.93082519 271.06132007 442.90412728 C272.48455072 442.8985171 273.90784434 442.90143932 275.3310349 442.91350622 C277.25776137 442.92859614 279.18466481 442.91020646 281.11134338 442.88990211 C282.72024728 442.88868447 282.72024728 442.88868447 284.36165428 442.88744223 C287.19848666 442.50005298 287.19848666 442.50005298 288.84667397 439.94794881 C290.3555816 436.43418943 290.38607119 433.23001891 290.33659363 429.47554016 C290.34909933 427.96056186 290.36213614 426.44558787 290.37565613 424.93061829 C290.37959316 422.55831255 290.37558383 420.18642919 290.36100769 417.81416321 C290.3524387 415.51315118 290.37410362 413.21389724 290.39909363 410.91304016 C290.38574982 410.20566208 290.37240601 409.498284 290.35865784 408.76947021 C290.41429399 405.05892121 290.74702741 403.53310748 293.31169128 400.77851868 C296.97867187 398.70864231 299.00521094 399.15085052 303.00065613 400.26069641 C305.58520897 402.15603516 305.96341118 403.14896158 307.00065613 406.26069641 C307.2073637 410.74468742 307.18645452 415.23125222 307.18595886 419.71943665 C307.18813113 421.92284372 307.20625649 424.1257382 307.2252655 426.32905579 C307.29893661 444.38784581 307.29893661 444.38784581 301.00065613 452.26069641 C296.86264524 456.37590834 292.86378639 459.04728685 286.95451355 459.48774719 C285.84954529 459.47727356 284.74457703 459.46679993 283.60612488 459.45600891 C282.4040741 459.4495636 281.20202332 459.44311829 279.96354675 459.43647766 C278.71766785 459.41971985 277.47178894 459.40296204 276.18815613 459.38569641 C274.92294128 459.37667297 273.65772644 459.36764954 272.35417175 459.35835266 C269.23614049 459.33482035 266.11849516 459.30194186 263.00065613 459.26069641 C262.9318927 460.47305969 262.9318927 460.47305969 262.86174011 461.70991516 C262.36732735 470.0433084 261.52689565 478.3377764 260.62565613 486.63569641 C260.45489563 488.3109137 260.45489563 488.3109137 260.28068542 490.01997375 C259.41737637 497.7200685 258.67096706 504.18394546 253.43424988 510.21772766 C248.84335367 512.94928479 245.31073845 513.03740143 240.06315613 512.94819641 C239.19497253 512.97591125 238.32678894 513.0036261 237.43229675 513.03218079 C231.83140823 513.01101341 228.5885615 511.9266198 224.37345886 508.23262024 C220.92270009 503.27587498 220.56415643 496.95876128 219.93034363 491.09663391 C219.84438934 490.34153534 219.75843506 489.58643677 219.6698761 488.80845642 C219.4907026 487.22384148 219.31438013 485.63890177 219.14079285 484.05366516 C218.87556763 481.63488931 218.60095709 479.21731719 218.32487488 476.79975891 C218.15114738 475.25294563 217.97795193 473.70607248 217.80534363 472.15913391 C217.72412262 471.44131744 217.64290161 470.72350098 217.55921936 469.9839325 C217.16576731 466.36213941 217.00065613 462.91788655 217.00065613 459.26069641 C146.38065613 459.26069641 75.76065613 459.26069641 3.00065613 459.26069641 C2.67065613 463.88069641 2.34065613 468.50069641 2.00065613 473.26069641 C1.57319772 477.72583424 1.12262501 482.17883719 0.62565613 486.63569641 C0.45549988 488.30052063 0.45549988 488.30052063 0.28190613 489.99897766 C-0.57950156 497.70582733 -1.32466017 504.17890712 -6.56575012 510.21772766 C-11.15664633 512.94928479 -14.68926155 513.03740143 -19.93684387 512.94819641 C-20.80502747 512.97591125 -21.67321106 513.0036261 -22.56770325 513.03218079 C-28.16859177 513.01101341 -31.4114385 511.9266198 -35.62654114 508.23262024 C-39.07729991 503.27587498 -39.43584357 496.95876128 -40.06965637 491.09663391 C-40.15561066 490.34153534 -40.24156494 489.58643677 -40.3301239 488.80845642 C-40.5092974 487.22384148 -40.68561987 485.63890177 -40.85920715 484.05366516 C-41.12443237 481.63488931 -41.39904291 479.21731719 -41.67512512 476.79975891 C-41.84885262 475.25294563 -42.02204807 473.70607248 -42.19465637 472.15913391 C-42.31648788 471.08240921 -42.31648788 471.08240921 -42.44078064 469.9839325 C-42.83097934 466.392087 -43.08992082 462.87410104 -42.99934387 459.26069641 C-43.7753595 459.28164368 -44.55137512 459.30259094 -45.35090637 459.32417297 C-48.90025135 459.407824 -52.44938822 459.4595127 -55.99934387 459.51069641 C-57.22008606 459.54421204 -58.44082825 459.57772766 -59.69856262 459.61225891 C-67.99745597 459.70197668 -73.60436497 459.12963537 -80.02278137 453.47944641 C-80.468797 452.91225891 -80.91481262 452.34507141 -81.37434387 451.76069641 C-81.83582825 451.19350891 -82.29731262 450.62632141 -82.77278137 450.04194641 C-87.70801062 442.8748619 -87.18124922 434.90178209 -87.28782654 426.50524902 C-87.30632011 425.31178984 -87.32481368 424.11833065 -87.34386766 422.88870603 C-87.39360955 419.58119267 -87.43893486 416.27367838 -87.48188567 412.96607363 C-87.50984963 410.8478196 -87.53954565 408.72959659 -87.56978607 406.6113739 C-87.96821342 378.62997145 -88.19741897 350.64708534 -88.37677956 322.66350842 C-88.40009477 319.0914905 -88.42388367 315.51947608 -88.44807434 311.94746399 C-88.45706273 310.61621796 -88.45706273 310.61621796 -88.4662327 309.25807808 C-88.55855398 295.9546693 -88.72798013 282.65375069 -88.94026184 269.35176086 C-89.26392953 248.79441704 -89.47191503 228.23873077 -89.47590637 207.67866516 C-89.47618477 206.84673021 -89.47646318 206.01479527 -89.47675002 205.15765017 C-89.46842252 152.23475058 -85.10237493 104.70657229 -63.39483261 55.64740944 C-61.35594594 50.69923333 -59.75001823 45.64374849 -58.15423012 40.53787518 C-56.56332085 36.02340971 -54.43169484 31.69304738 -50.99934387 28.26069641 C-44.01924437 27.68855711 -44.01924437 27.68855711 -40.43684387 29.69819641 C-38.20918319 33.66924371 -38.92020327 37.03160814 -39.99934387 41.26069641 C-40.71162288 43.19066543 -41.46018276 45.10743599 -42.23445129 47.01338196 C-45.35008541 54.978276 -47.82897851 63.09666821 -50.30012512 71.28022766 C-50.78580952 72.87603167 -51.2719166 74.4717071 -51.75842285 76.06726074 C-53.02348791 80.22017483 -54.28289288 84.37478335 -55.54103088 88.52980042 C-56.83159001 92.78816522 -58.12762733 97.04486192 -59.423172 101.30171204 C-61.95385527 109.61977219 -64.47854729 117.93963477 -66.99934387 126.26069641 C-66.42743498 126.26091378 -65.85552608 126.26113115 -65.26628661 126.2613551 C-31.38818961 126.27486397 2.48977004 126.31431075 36.36779006 126.38755203 C40.43339997 126.39631903 44.49901032 126.4048688 48.56462097 126.4132843 C49.37402833 126.41496336 50.18343569 126.41664243 51.01737055 126.41837237 C64.13202365 126.44505951 77.24663305 126.45413867 90.36131051 126.45673784 C103.8130587 126.45979472 117.26468028 126.48171062 130.7163713 126.52122098 C139.02027348 126.5450142 147.32392313 126.55400665 155.62785473 126.54420952 C161.31822162 126.53890351 167.00836173 126.55187651 172.69866404 126.57935932 C175.98433602 126.59468427 179.26939543 126.59911469 182.55509758 126.58729362 C186.11439405 126.57575222 189.67224648 126.59466918 193.23143005 126.62145996 C194.27422568 126.6107867 195.3170213 126.60011344 196.39141679 126.58911675 C203.33698401 126.68716555 203.33698401 126.68716555 206.67763901 129.57408619 C208.48435732 133.24293356 208.08193648 135.36808714 207.00065613 139.26069641 C205.10531737 141.84524926 204.11239096 142.22345147 201.00065613 143.26069641 C199.4637304 143.35087773 197.92315689 143.38445274 196.38358784 143.38374424 C194.95340272 143.38673081 194.95340272 143.38673081 193.49432498 143.38977772 C191.91992586 143.38540846 191.91992586 143.38540846 190.3137207 143.38095093 C189.20043119 143.38180535 188.08714167 143.38265978 186.94011611 143.38354009 C183.19050462 143.38519395 179.44093736 143.37967502 175.69132996 143.3742218 C173.01111754 143.37393988 170.33090788 143.37405367 167.6506958 143.37466431 C161.87051748 143.37518914 156.09035043 143.37204655 150.31017494 143.36642647 C141.95296984 143.35830601 133.59577021 143.35569569 125.23856159 143.35443848 C111.68017139 143.35224882 98.1217872 143.34559106 84.56340027 143.33613586 C71.39120005 143.32695953 58.21900147 143.31989124 45.04679871 143.31562805 C43.81686346 143.31522606 43.81686346 143.31522606 42.56208104 143.31481594 C36.14966189 143.31273657 29.7372427 143.31077962 23.3248235 143.30886137 C-8.11657114 143.29942444 -39.55795074 143.2793069 -70.99934387 143.26069641 C-70.99934387 208.93069641 -70.99934387 274.60069641 -70.99934387 342.26069641 C48.46065613 342.26069641 167.92065613 342.26069641 291.00065613 342.26069641 C291.00065613 276.59069641 291.00065613 210.92069641 291.00065613 143.26069641 C270.54065613 143.26069641 250.08065613 143.26069641 229.00065613 143.26069641 C224.00065613 141.26069641 224.00065613 141.26069641 222.62565613 139.57319641 C221.71217444 136.19331416 222.20183349 133.64033063 223.00065613 130.26069641 C224.18017578 128.57287598 224.18017578 128.57287598 226.00065613 127.26069641 C228.67721558 126.86196899 228.67721558 126.86196899 231.94084167 126.82832336 C233.16188095 126.80852921 234.38292023 126.78873505 235.64096069 126.76834106 C236.95977737 126.76195114 238.27859406 126.75556122 239.63737488 126.74897766 C241.00073876 126.7321321 242.3640871 126.71398202 243.72741699 126.69458008 C247.31287275 126.64705988 250.8982655 126.61726401 254.4839325 126.59114075 C258.14393052 126.56134512 261.80371138 126.51481146 265.46354675 126.46968079 C272.64247551 126.3836249 279.82142001 126.31629022 287.00065613 126.26069641 C284.00721047 116.32800758 280.99996584 106.39960876 277.97570705 96.47625542 C276.57138801 91.86682563 275.17161446 87.25612266 273.78263855 82.64204407 C272.43853853 78.17767279 271.08196522 73.71725904 269.71716499 69.25917435 C269.20219254 67.56951952 268.69150257 65.87855251 268.18546867 64.18619919 C261.10273641 40.48871846 261.10273641 40.48871846 244.00456238 23.45210266 C232.7561331 17.5961788 222.22064007 16.10319515 209.72972107 16.12698364 C208.39662325 16.12358531 208.39662325 16.12358531 207.03659415 16.12011832 C204.08221848 16.11382845 201.12788928 16.11460444 198.17350769 16.11543274 C196.04551637 16.11243811 193.91752559 16.10903489 191.78953552 16.10525513 C186.02491373 16.09644173 180.26030679 16.09407813 174.4956789 16.09343934 C170.88954579 16.09272732 167.28341642 16.09059011 163.67728424 16.08794212 C151.08357505 16.07869745 138.48987642 16.07460613 125.89616394 16.07539368 C114.17817552 16.07599421 102.46023317 16.06544498 90.7422564 16.04965001 C80.66382133 16.0365517 70.58540128 16.03121074 60.50695777 16.03184909 C54.49554558 16.0321034 48.48417436 16.0292889 42.47277069 16.01867104 C36.81579824 16.00895148 31.15890559 16.00893725 25.50193024 16.01618767 C23.43363325 16.01722873 21.36533119 16.01489927 19.29704285 16.00882721 C-0.70270626 15.94145273 -0.70270626 15.94145273 -19.78059387 21.42866516 C-23.91916474 22.98062924 -27.36077356 22.99374102 -31.37434387 21.19819641 C-33.83224101 18.26762674 -33.99934387 16.03980257 -33.99934387 12.26069641 C-31.33221736 8.10124912 -28.81000198 6.35138047 -24.24934387 4.57319641 C-22.77207825 3.97958313 -22.77207825 3.97958313 -21.26496887 3.37397766 C-13.96064394 0.88386689 -7.67242778 -0.03211063 0 0 Z M-26.99934387 459.26069641 C-25.83335861 471.95008923 -24.55749101 484.61318296 -22.99934387 497.26069641 C-21.01934387 497.26069641 -19.03934387 497.26069641 -16.99934387 497.26069641 C-16.42669409 492.49216861 -15.85711543 487.72328769 -15.2903595 482.95405579 C-15.09719009 481.33221061 -14.90318697 479.71046449 -14.70832825 478.08882141 C-14.42813032 475.75574479 -14.15094834 473.42232645 -13.87434387 471.08882141 C-13.78684875 470.36575806 -13.69935364 469.6426947 -13.60920715 468.89772034 C-13.22659096 465.6469262 -12.99934387 462.5411545 -12.99934387 459.26069641 C-17.61934387 459.26069641 -22.23934387 459.26069641 -26.99934387 459.26069641 Z M233.00065613 459.26069641 C234.16664139 471.95008923 235.44250899 484.61318296 237.00065613 497.26069641 C238.98065613 497.26069641 240.96065613 497.26069641 243.00065613 497.26069641 C243.57330591 492.49216861 244.14288457 487.72328769 244.7096405 482.95405579 C244.90280991 481.33221061 245.09681303 479.71046449 245.29167175 478.08882141 C245.57186968 475.75574479 245.84905166 473.42232645 246.12565613 471.08882141 C246.21315125 470.36575806 246.30064636 469.6426947 246.39079285 468.89772034 C246.77340904 465.6469262 247.00065613 462.5411545 247.00065613 459.26069641 C242.38065613 459.26069641 237.76065613 459.26069641 233.00065613 459.26069641 Z " fill="#000000" transform="translate(145.9993438720703,-0.2606964111328125)"/>
<path d="M0 0 C1.40977681 -0.00807831 1.40977681 -0.00807831 2.84803396 -0.01631981 C5.9753684 -0.03054751 9.10227646 -0.02350845 12.22962952 -0.01637268 C14.48071633 -0.02207893 16.73180026 -0.02904418 18.98287964 -0.03717041 C25.08203902 -0.05508813 31.18105441 -0.05393605 37.28023219 -0.04822803 C42.37715995 -0.04513434 47.47406012 -0.0512306 52.57098395 -0.05726677 C65.28420783 -0.07210769 77.99733006 -0.06850234 90.71054769 -0.05640347 C101.73517858 -0.04647171 112.75964161 -0.05941373 123.78424662 -0.08333766 C135.12314636 -0.10775697 146.46194591 -0.11693041 157.80087954 -0.11068493 C164.15931763 -0.10731701 170.51761705 -0.10971977 176.87603569 -0.12693596 C182.85564896 -0.14242047 188.83494208 -0.13843244 194.81454277 -0.11963081 C197.00503987 -0.11594923 199.19556077 -0.11904076 201.38603592 -0.1295166 C204.38427007 -0.14275737 207.38144911 -0.13115124 210.37963867 -0.11352539 C211.6691146 -0.1279329 211.6691146 -0.1279329 212.98464054 -0.14263147 C221.90291991 -0.03530815 229.20058029 3.27378277 236.36659241 8.43455505 C242.26842884 14.54411658 244.79329567 22.08337092 247.27674866 30.04393005 C247.62718231 31.14563538 247.97761597 32.2473407 248.33866882 33.38243103 C249.07196051 35.70024925 249.79943623 38.01991471 250.52137756 40.34129333 C251.62684058 43.88296863 252.7611762 47.41450707 253.89784241 50.9462738 C254.60924592 53.20743704 255.31893999 55.46913896 256.02674866 57.73143005 C256.36620514 58.78060608 256.70566162 59.8297821 257.05540466 60.91075134 C258.86157929 66.8149989 260.01749849 71.37058662 258.25331116 77.38768005 C254.81874632 79.98652482 252.29618311 80.76288033 248.02929688 80.76520348 C246.99134004 80.77302672 245.9533832 80.78084996 244.88397312 80.78891027 C243.75022723 80.7822181 242.61648134 80.77552594 241.44837952 80.76863098 C240.23890372 80.77331095 239.02942793 80.77799093 237.78330135 80.78281271 C234.42920724 80.79271058 231.07561686 80.78914554 227.72155333 80.77985406 C224.10322553 80.77307026 220.48494196 80.78354146 216.86662292 80.79179382 C209.77957703 80.80514053 202.6926264 80.80224926 195.60557675 80.7935559 C189.84629105 80.78678344 184.08703207 80.78586073 178.32774353 80.78912735 C177.09866474 80.7898169 177.09866474 80.7898169 175.84475607 80.79052038 C174.18024038 80.79147954 172.51572471 80.79245218 170.85120904 80.79343815 C155.23944557 80.80199479 139.62773493 80.79215362 124.01598012 80.77603705 C110.61752495 80.76263362 97.21914774 80.76496163 83.82069397 80.77879333 C68.26516848 80.79484432 52.7096893 80.80117079 37.15415668 80.79195654 C35.49573073 80.79100089 33.83730476 80.79005777 32.17887878 80.78912735 C31.36288064 80.78866452 30.5468825 80.7882017 29.70615715 80.78772485 C23.95313623 80.78513351 18.20014467 80.78950905 12.4471283 80.79656601 C5.43704603 80.80497586 -1.57293544 80.80271176 -8.58300614 80.78672378 C-12.16033746 80.77883407 -15.73750067 80.77576126 -19.31483078 80.78567123 C-23.1905682 80.79624556 -27.06602973 80.78362781 -30.9417572 80.76863098 C-32.07550309 80.77532315 -33.20924898 80.78201531 -34.37735081 80.78891027 C-35.41530765 80.78108703 -36.45326448 80.77326379 -37.52267456 80.76520348 C-38.86452773 80.76447289 -38.86452773 80.76447289 -40.23348904 80.76372755 C-43.36285692 80.29548346 -45.23157884 79.29134013 -47.74668884 77.38768005 C-49.79645388 70.35722387 -47.76407911 64.60550464 -45.59043884 57.80174255 C-45.25048889 56.70478058 -44.91053894 55.6078186 -44.56028748 54.47761536 C-43.83834104 52.1639033 -43.10830788 49.85270091 -42.37071228 47.54393005 C-41.25481448 44.0382077 -40.1750032 40.52278237 -39.09825134 37.00486755 C-38.38947065 34.74898044 -37.67859962 32.49374881 -36.96543884 30.23924255 C-36.64845032 29.2003891 -36.33146179 28.16153564 -36.00486755 27.09120178 C-32.85764356 17.40217502 -27.99402857 8.32783967 -18.74668884 3.38768005 C-12.4644432 0.7098083 -6.7801546 -0.04727917 0 0 Z M-16.62559509 23.55369568 C-18.83289444 27.16459131 -20.00135578 31.11567136 -21.24668884 35.13768005 C-21.51610291 35.96139099 -21.78551697 36.78510193 -22.06309509 37.6337738 C-24.90532926 46.47774896 -27.25803414 55.42852313 -29.74668884 64.38768005 C59.35331116 64.38768005 148.45331116 64.38768005 240.25331116 64.38768005 C235.39722985 39.82393399 235.39722985 39.82393399 222.25331116 18.38768005 C217.62766482 15.95224056 213.28333546 16.10440813 208.18850708 16.12698364 C207.27375262 16.1231581 206.35899816 16.11933255 205.41652387 16.11539108 C202.35042386 16.10506983 199.28451142 16.10905159 196.21839905 16.11302185 C194.02052639 16.10867491 191.82265526 16.10349182 189.62478638 16.09753418 C183.6537786 16.08413141 177.68283406 16.08356691 171.71181417 16.08609748 C166.72904049 16.08716626 161.74627966 16.08228622 156.76350874 16.07749206 C144.33763782 16.06575777 131.9117951 16.0666245 119.48592316 16.07304887 C108.69762573 16.07821832 97.90941858 16.0669616 87.121139 16.04795065 C76.04004384 16.02857359 64.9589854 16.02060744 53.87787241 16.0240739 C47.65813352 16.02588858 41.43847734 16.02323202 35.21875191 16.00935936 C29.37057788 15.99680372 23.52258486 15.99870376 17.67441368 16.01177025 C15.52739018 16.01414046 13.38035403 16.01138548 11.23334503 16.00314713 C8.30371845 15.99271583 5.37470328 16.00075144 2.44509888 16.01345825 C1.59441411 16.00608397 0.74372934 15.99870968 -0.13273376 15.99111193 C-7.13411285 16.05504929 -12.17729572 17.77659122 -16.62559509 23.55369568 Z " fill="#000000" transform="translate(150.74668884277344,30.612319946289063)"/>
<path d="M0 0 C4.19666272 2.15916821 8.25264709 4.53268808 12.3125 6.9375 C13.44300781 7.59975586 14.57351563 8.26201172 15.73828125 8.94433594 C18.04701625 10.29781644 20.35228456 11.65693799 22.65478516 13.02099609 C25.78850818 14.87488303 28.93025617 16.71433263 32.07421875 18.55078125 C33.88341725 19.6161612 35.69204648 20.68250869 37.5 21.75 C38.33571533 22.23847412 39.17143066 22.72694824 40.0324707 23.23022461 C41.17655396 23.91290405 41.17655396 23.91290405 42.34375 24.609375 C43.00568359 25.00092773 43.66761719 25.39248047 44.34960938 25.79589844 C46 27 46 27 48 30 C48.27415466 32.68087769 48.27415466 32.68087769 48.30639648 35.95263672 C48.32238388 37.17755829 48.33837128 38.40247986 48.35484314 39.66452026 C48.36121993 41.00290511 48.36661265 42.34129496 48.37109375 43.6796875 C48.38006191 45.05347797 48.38918379 46.42726744 48.39845276 47.80105591 C48.41494025 50.68103406 48.42264233 53.560896 48.42553711 56.44091797 C48.43091954 60.12554459 48.46859223 63.80907411 48.51428127 67.49339104 C48.54407336 70.33134923 48.55126111 73.16904397 48.55226326 76.00714493 C48.55646176 77.36511381 48.56888158 78.72308374 48.58978081 80.08089828 C48.74331176 90.91888027 48.74331176 90.91888027 45.83666992 95.14648438 C44.90056885 95.75814453 43.96446777 96.36980469 43 97 C42.06397949 97.61439941 41.12795898 98.22879883 40.16357422 98.86181641 C39.1376416 99.43593262 38.11170898 100.01004883 37.0546875 100.6015625 C36.49131683 100.92027313 35.92794617 101.23898376 35.34750366 101.56735229 C33.52774053 102.59464448 31.7017894 103.61026315 29.875 104.625 C27.9781668 105.68726587 26.08251607 106.75161502 24.18713379 107.81646729 C22.92325939 108.52651776 21.65885565 109.23562685 20.3939209 109.94378662 C16.62406752 112.06082218 12.90266724 114.24042908 9.2109375 116.4921875 C8.36160645 117.00571777 7.51227539 117.51924805 6.63720703 118.04833984 C5.09596563 118.98556846 3.56239254 119.93558088 2.03857422 120.90087891 C-2.5396701 123.65682977 -6.60649543 125.26775667 -12 124 C-15.69767611 122.44110193 -19.06924359 120.44751481 -22.5 118.375 C-23.48597168 117.79685547 -24.47194336 117.21871094 -25.48779297 116.62304688 C-27.58136018 115.39429285 -29.67095803 114.15875443 -31.75683594 112.91699219 C-35.04083907 110.97586055 -38.34756873 109.08032404 -41.6640625 107.1953125 C-43.81793235 105.96393342 -45.97158453 104.73217351 -48.125 103.5 C-49.13755859 102.92556152 -50.15011719 102.35112305 -51.19335938 101.75927734 C-52.61745117 100.93484131 -52.61745117 100.93484131 -54.0703125 100.09375 C-54.90320801 99.61615234 -55.73610352 99.13855469 -56.59423828 98.64648438 C-57.38813965 98.10314453 -58.18204102 97.55980469 -59 97 C-59.91297852 96.39736328 -60.82595703 95.79472656 -61.76660156 95.17382812 C-65.44416012 89.94773923 -64.71202969 84.35567511 -64.6640625 78.125 C-64.66743364 76.75406464 -64.67228875 75.3831322 -64.67855835 74.01220703 C-64.68591594 71.14391526 -64.6752621 68.27640391 -64.65185547 65.40820312 C-64.62336599 61.73916507 -64.63977628 58.07195564 -64.66971779 54.40298462 C-64.68782233 51.57350998 -64.68201881 48.74446594 -64.66907883 45.91497803 C-64.66414122 43.90701097 -64.67927464 41.8990269 -64.69473267 39.89111328 C-64.57812097 30.82922985 -64.57812097 30.82922985 -61.79833984 26.84204102 C-60.8748877 26.23416748 -59.95143555 25.62629395 -59 25 C-58.13503906 24.42113037 -57.27007812 23.84226074 -56.37890625 23.24584961 C-55.44949219 22.71999268 -54.52007812 22.19413574 -53.5625 21.65234375 C-52.51199463 21.05244629 -51.46148926 20.45254883 -50.37915039 19.83447266 C-49.26403076 19.20847168 -48.14891113 18.5824707 -47 17.9375 C-45.25489444 16.94558656 -43.50979082 15.95366966 -41.76490784 14.96136475 C-39.99564118 13.95677428 -38.22433311 12.95586442 -36.45263672 11.95556641 C-33.2007599 10.11371 -29.95954099 8.25476906 -26.72265625 6.38671875 C-25.76423828 5.83443604 -24.80582031 5.28215332 -23.81835938 4.71313477 C-22.01567897 3.67429387 -20.21357166 2.63445768 -18.41210938 1.59350586 C-17.60708984 1.13210205 -16.80207031 0.67069824 -15.97265625 0.1953125 C-15.27406494 -0.20671387 -14.57547363 -0.60874023 -13.85571289 -1.02294922 C-8.5014165 -3.84203804 -5.28411798 -2.24717946 0 0 Z M-14.48828125 17.95703125 C-15.58720703 18.57513672 -16.68613281 19.19324219 -17.81835938 19.83007812 C-18.98309237 20.49085112 -20.14780574 21.15165873 -21.3125 21.8125 C-23.02469727 22.77639648 -23.02469727 22.77639648 -24.77148438 23.75976562 C-29.54798094 26.45369852 -34.30814324 29.16060197 -39 32 C-37.67995317 35.9601405 -36.15937494 36.3102071 -32.5390625 38.28515625 C-30.87230469 39.20458008 -30.87230469 39.20458008 -29.171875 40.14257812 C-27.98976505 40.78288768 -26.80747136 41.42285811 -25.625 42.0625 C-24.4500353 42.70549377 -23.2755499 43.34936422 -22.1015625 43.99414062 C-19.94352198 45.1793145 -17.78309733 46.36016409 -15.61962891 47.53540039 C-13 49 -13 49 -10 51 C-4.39673342 50.82796989 -0.38138314 48.17118668 4.25 45.3125 C4.99564209 44.86132812 5.74128418 44.41015625 6.50952148 43.9453125 C7.99327302 43.0471804 9.47502036 42.14572764 10.95458984 41.24072266 C14.40246126 39.14928287 17.91042781 37.15942235 21.41015625 35.15625 C21.93480469 34.7746875 22.45945312 34.393125 23 34 C23 33.34 23 32.68 23 32 C22.33991943 31.62713867 21.67983887 31.25427734 20.99975586 30.87011719 C17.97890376 29.16358866 14.95820074 27.45679643 11.9375 25.75 C10.89916016 25.16347656 9.86082031 24.57695312 8.79101562 23.97265625 C7.77587891 23.39902344 6.76074219 22.82539063 5.71484375 22.234375 C4.7285498 21.67814453 3.74225586 21.12191406 2.72607422 20.54882812 C0.43119432 19.24498448 -1.84599472 17.91593278 -4.12109375 16.578125 C-8.71460819 14.06010623 -10.10222153 15.48079729 -14.48828125 17.95703125 Z M-48 48 C-48.22324847 53.01679391 -48.38612008 58.03067531 -48.49438477 63.05126953 C-48.53952418 64.75686004 -48.60085724 66.46210452 -48.67895508 68.16650391 C-49.47345983 77.72332761 -49.47345983 77.72332761 -46.28173828 86.30273438 C-43.92069558 87.90319691 -41.64721715 88.94696056 -39 90 C-37.44206333 90.88177757 -35.89484878 91.78278886 -34.359375 92.703125 C-32.82512338 93.55606488 -31.28866102 94.40504039 -29.75 95.25 C-28.97398437 95.683125 -28.19796875 96.11625 -27.3984375 96.5625 C-23.61598786 98.65382028 -20.04267329 100.38293069 -16 102 C-16 89.79 -16 77.58 -16 65 C-24.00184245 60.52685649 -24.00184245 60.52685649 -32.00463867 56.05541992 C-33.0072876 55.49443604 -34.00993652 54.93345215 -35.04296875 54.35546875 C-36.06414795 53.78465576 -37.08532715 53.21384277 -38.13745117 52.62573242 C-40.02917005 51.55136517 -41.90026257 50.43974595 -43.74731445 49.2902832 C-45.85657309 47.83432673 -45.85657309 47.83432673 -48 48 Z M25.01953125 50.703125 C24.01986328 51.27160156 23.02019531 51.84007812 21.99023438 52.42578125 C20.94158203 53.02777344 19.89292969 53.62976563 18.8125 54.25 C17.78318359 54.83652344 16.75386719 55.42304688 15.69335938 56.02734375 C12.79323112 57.68084416 9.89634535 59.33988461 7 61 C4.69 62.32 2.38 63.64 0 65 C0 77.21 0 89.42 0 102 C6.21931253 99.51227499 11.85665239 96.27923445 17.6875 93 C19.41709961 92.03707031 19.41709961 92.03707031 21.18164062 91.0546875 C22.28056641 90.43851563 23.37949219 89.82234375 24.51171875 89.1875 C25.51678467 88.62417969 26.52185059 88.06085938 27.55737305 87.48046875 C30.06652431 86.09227284 30.06652431 86.09227284 32 84 C32.17517747 81.27514272 32.23149133 78.65340638 32.1953125 75.9296875 C32.19106766 74.73534592 32.19106766 74.73534592 32.18673706 73.51687622 C32.1755264 70.96943237 32.15042062 68.42233789 32.125 65.875 C32.11497133 64.14974465 32.10584528 62.42448381 32.09765625 60.69921875 C32.07558422 56.46601086 32.04104867 52.2330647 32 48 C29.13718727 48 27.50014585 49.28563094 25.01953125 50.703125 Z " fill="#000000" transform="translate(264,185)"/>
<path d="M0 0 C1.11581955 -0.00700928 2.2316391 -0.01401855 3.38127136 -0.02124023 C7.07409461 -0.03886276 10.76615317 -0.0271816 14.45898438 -0.01367188 C17.02201485 -0.01636554 19.58504432 -0.02024691 22.14807129 -0.02526855 C27.52151145 -0.03116942 32.89466357 -0.02296236 38.26806641 -0.00390625 C44.47803264 0.01786248 50.68747357 0.01081096 56.89742708 -0.01121187 C62.87437474 -0.03155895 68.85106563 -0.02939541 74.82804871 -0.01768494 C77.37021457 -0.0150132 79.91239381 -0.01830303 82.45454407 -0.02760315 C86.00521556 -0.03774155 89.55487295 -0.02230388 93.10546875 0 C94.1601384 -0.00809692 95.21480804 -0.01619385 96.30143738 -0.02453613 C103.4132457 0.05838789 103.4132457 0.05838789 106.70593262 2.42272949 C109.01070014 6.00762168 108.51971887 8.31471768 108.05273438 12.51757812 C106.24110171 15.19189302 105.17512361 15.47678171 102.05273438 16.51757812 C100.54129742 16.6126824 99.02604309 16.65245358 97.5116272 16.65802002 C96.5807579 16.66373016 95.64988861 16.66944031 94.69081116 16.67532349 C93.16187477 16.67700027 93.16187477 16.67700027 91.60205078 16.67871094 C89.98947136 16.68615829 89.98947136 16.68615829 88.34431458 16.6937561 C84.78096888 16.70838475 81.21766769 16.71518058 77.65429688 16.72070312 C75.18191527 16.72645356 72.70953367 16.7322113 70.2371521 16.73797607 C65.05035189 16.74848776 59.86356718 16.75432948 54.67675781 16.7578125 C48.02631799 16.76330058 41.37614851 16.78733467 34.72576332 16.81578445 C29.61800535 16.83439472 24.5102968 16.83961556 19.40250778 16.84114838 C16.95047258 16.84417857 14.49843832 16.85221935 12.04643631 16.86533356 C8.61820092 16.88236156 5.19046739 16.8805216 1.76220703 16.87402344 C0.74696457 16.88323822 -0.26827789 16.892453 -1.31428528 16.90194702 C-6.85325604 16.86900833 -10.82357939 16.64126436 -14.94726562 12.51757812 C-15.52850088 5.42650807 -15.52850088 5.42650807 -13.6048584 2.41833496 C-9.37161438 -0.6093552 -5.07843728 -0.03898825 0 0 Z " fill="#000000" transform="translate(298.947265625,415.482421875)"/>
<path d="M0 0 C1.11581955 -0.00700928 2.2316391 -0.01401855 3.38127136 -0.02124023 C7.07409461 -0.03886276 10.76615317 -0.0271816 14.45898438 -0.01367188 C17.02201485 -0.01636554 19.58504432 -0.02024691 22.14807129 -0.02526855 C27.52151145 -0.03116942 32.89466357 -0.02296236 38.26806641 -0.00390625 C44.47803264 0.01786248 50.68747357 0.01081096 56.89742708 -0.01121187 C62.87437474 -0.03155895 68.85106563 -0.02939541 74.82804871 -0.01768494 C77.37021457 -0.0150132 79.91239381 -0.01830303 82.45454407 -0.02760315 C86.00521556 -0.03774155 89.55487295 -0.02230388 93.10546875 0 C94.1601384 -0.00809692 95.21480804 -0.01619385 96.30143738 -0.02453613 C103.4132457 0.05838789 103.4132457 0.05838789 106.70593262 2.42272949 C109.01070014 6.00762168 108.51971887 8.31471768 108.05273438 12.51757812 C106.24110171 15.19189302 105.17512361 15.47678171 102.05273438 16.51757812 C100.54129742 16.6126824 99.02604309 16.65245358 97.5116272 16.65802002 C96.5807579 16.66373016 95.64988861 16.66944031 94.69081116 16.67532349 C93.16187477 16.67700027 93.16187477 16.67700027 91.60205078 16.67871094 C89.98947136 16.68615829 89.98947136 16.68615829 88.34431458 16.6937561 C84.78096888 16.70838475 81.21766769 16.71518058 77.65429688 16.72070312 C75.18191527 16.72645356 72.70953367 16.7322113 70.2371521 16.73797607 C65.05035189 16.74848776 59.86356718 16.75432948 54.67675781 16.7578125 C48.02631799 16.76330058 41.37614851 16.78733467 34.72576332 16.81578445 C29.61800535 16.83439472 24.5102968 16.83961556 19.40250778 16.84114838 C16.95047258 16.84417857 14.49843832 16.85221935 12.04643631 16.86533356 C8.61820092 16.88236156 5.19046739 16.8805216 1.76220703 16.87402344 C0.74696457 16.88323822 -0.26827789 16.892453 -1.31428528 16.90194702 C-6.85325604 16.86900833 -10.82357939 16.64126436 -14.94726562 12.51757812 C-15.52850088 5.42650807 -15.52850088 5.42650807 -13.6048584 2.41833496 C-9.37161438 -0.6093552 -5.07843728 -0.03898825 0 0 Z " fill="#000000" transform="translate(119.947265625,415.482421875)"/>
<path d="M0 0 C1.09485214 -0.00700928 2.18970428 -0.01401855 3.31773376 -0.02124023 C6.93538809 -0.03883969 10.55225964 -0.02718979 14.16992188 -0.01367188 C16.68428701 -0.01636621 19.19865113 -0.02024813 21.7130127 -0.02526855 C26.98209617 -0.03116626 32.25097621 -0.02297328 37.52001953 -0.00390625 C43.60559026 0.0178617 49.69062491 0.01080987 55.77618265 -0.01121187 C61.63832113 -0.03157338 67.50025636 -0.02938989 73.3624115 -0.01768494 C75.8535113 -0.01501553 78.34462478 -0.01829486 80.83570862 -0.02760315 C84.31662297 -0.03775542 87.79650625 -0.02228443 91.27734375 0 C92.3081456 -0.00809692 93.33894745 -0.01619385 94.40098572 -0.02453613 C98.84252472 0.02817321 101.41794605 0.0794107 105.27600098 2.42492676 C107.27629303 4.6721911 107.82161834 5.55071917 107.76367188 8.51757812 C107.78300781 9.50757813 107.78300781 9.50757813 107.80273438 10.51757812 C106.7108695 13.80601823 105.09474746 14.72042311 102.13867188 16.51757812 C98.52094327 17.11673352 94.93747817 17.06390652 91.27734375 17.03515625 C89.63506554 17.04567017 89.63506554 17.04567017 87.95960999 17.05639648 C84.34195566 17.07399594 80.72508411 17.06234604 77.10742188 17.04882812 C74.59305674 17.05152246 72.07869262 17.05540438 69.56433105 17.0604248 C64.29524758 17.06632251 59.02636754 17.05812953 53.75732422 17.0390625 C47.67175349 17.01729455 41.58671884 17.02434638 35.5011611 17.04636812 C29.63902262 17.06672963 23.77708739 17.06454614 17.91493225 17.05284119 C15.42383245 17.05017178 12.93271897 17.05345111 10.44163513 17.0627594 C6.96072078 17.07291167 3.4808375 17.05744068 0 17.03515625 C-1.54620277 17.04730164 -1.54620277 17.04730164 -3.12364197 17.05969238 C-7.56518097 17.00698304 -10.1406023 16.95574555 -13.99865723 14.61022949 C-15.99894928 12.36296515 -16.54427459 11.48443708 -16.48632812 8.51757812 C-16.49921875 7.85757812 -16.51210938 7.19757813 -16.52539062 6.51757812 C-14.06233762 -0.90055797 -6.38476043 -0.05015214 0 0 Z " fill="#000000" transform="translate(299.861328125,368.482421875)"/>
<path d="M0 0 C1.09485214 -0.00700928 2.18970428 -0.01401855 3.31773376 -0.02124023 C6.93538809 -0.03883969 10.55225964 -0.02718979 14.16992188 -0.01367188 C16.68428701 -0.01636621 19.19865113 -0.02024813 21.7130127 -0.02526855 C26.98209617 -0.03116626 32.25097621 -0.02297328 37.52001953 -0.00390625 C43.60559026 0.0178617 49.69062491 0.01080987 55.77618265 -0.01121187 C61.63832113 -0.03157338 67.50025636 -0.02938989 73.3624115 -0.01768494 C75.8535113 -0.01501553 78.34462478 -0.01829486 80.83570862 -0.02760315 C84.31662297 -0.03775542 87.79650625 -0.02228443 91.27734375 0 C92.3081456 -0.00809692 93.33894745 -0.01619385 94.40098572 -0.02453613 C98.84252472 0.02817321 101.41794605 0.0794107 105.27600098 2.42492676 C107.27629303 4.6721911 107.82161834 5.55071917 107.76367188 8.51757812 C107.78300781 9.50757813 107.78300781 9.50757813 107.80273438 10.51757812 C106.7108695 13.80601823 105.09474746 14.72042311 102.13867188 16.51757812 C98.52094327 17.11673352 94.93747817 17.06390652 91.27734375 17.03515625 C89.63506554 17.04567017 89.63506554 17.04567017 87.95960999 17.05639648 C84.34195566 17.07399594 80.72508411 17.06234604 77.10742188 17.04882812 C74.59305674 17.05152246 72.07869262 17.05540438 69.56433105 17.0604248 C64.29524758 17.06632251 59.02636754 17.05812953 53.75732422 17.0390625 C47.67175349 17.01729455 41.58671884 17.02434638 35.5011611 17.04636812 C29.63902262 17.06672963 23.77708739 17.06454614 17.91493225 17.05284119 C15.42383245 17.05017178 12.93271897 17.05345111 10.44163513 17.0627594 C6.96072078 17.07291167 3.4808375 17.05744068 0 17.03515625 C-1.54620277 17.04730164 -1.54620277 17.04730164 -3.12364197 17.05969238 C-7.56518097 17.00698304 -10.1406023 16.95574555 -13.99865723 14.61022949 C-15.99894928 12.36296515 -16.54427459 11.48443708 -16.48632812 8.51757812 C-16.49921875 7.85757812 -16.51210937 7.19757813 -16.52539062 6.51757812 C-14.06233762 -0.90055797 -6.38476043 -0.05015214 0 0 Z " fill="#000000" transform="translate(120.861328125,368.482421875)"/>
<path d="M0 0 C0.91259583 -0.00571014 1.82519165 -0.01142029 2.76544189 -0.01730347 C3.7644603 -0.01842133 4.7634787 -0.01953918 5.79277039 -0.02069092 C6.8467099 -0.02565582 7.90064941 -0.03062073 8.98652649 -0.03573608 C12.48013457 -0.05036504 15.97369723 -0.05716097 19.46733093 -0.06268311 C21.89247642 -0.06843396 24.31762188 -0.07419171 26.74276733 -0.07995605 C31.83121452 -0.09046814 36.9196459 -0.09630945 42.00810242 -0.09979248 C48.52839044 -0.10527752 55.04846967 -0.12930511 61.56869221 -0.15776443 C66.57955536 -0.17638779 71.5903682 -0.18159626 76.60126305 -0.18312836 C79.00502349 -0.1861561 81.40878302 -0.19418868 83.81250954 -0.20731354 C87.17588308 -0.2243672 90.53874615 -0.22249517 93.90214539 -0.21600342 C94.89509109 -0.2252182 95.8880368 -0.23443298 96.91107178 -0.243927 C102.19171183 -0.21199766 106.0049364 0.10777547 110.54154968 3.14044189 C112.08741844 6.23217941 111.8351449 8.73473742 111.54154968 12.14044189 C110.20622253 14.33465576 110.20622253 14.33465576 107.54154968 16.14044189 C103.89749536 16.74883625 100.28137849 16.68632663 96.59428406 16.65802002 C95.47846451 16.6650293 94.36264496 16.67203857 93.2130127 16.67926025 C89.52018945 16.69688278 85.82813089 16.68520162 82.13529968 16.67169189 C79.57226921 16.67438556 77.00923974 16.67826693 74.44621277 16.68328857 C69.0727726 16.68918944 63.69962049 16.68098238 58.32621765 16.66192627 C52.11625141 16.64015754 45.90681049 16.64720906 39.69685698 16.66923189 C33.71990932 16.68957897 27.74321843 16.68741543 21.76623535 16.67570496 C19.22406949 16.67303322 16.68189025 16.67632305 14.13973999 16.68562317 C10.5890685 16.69576157 7.03941111 16.6803239 3.48881531 16.65802002 C2.43414566 16.66611694 1.37947601 16.67421387 0.29284668 16.68255615 C-6.78618216 16.60001434 -6.78618216 16.60001434 -10.11140442 14.32684326 C-12.10671569 11.088237 -11.99005823 8.8616973 -11.45845032 5.14044189 C-8.23080064 0.91110784 -5.15683895 0.0193381 0 0 Z " fill="#000000" transform="translate(295.4584503173828,391.85955810546875)"/>
<path d="M0 0 C0.91259583 -0.00571014 1.82519165 -0.01142029 2.76544189 -0.01730347 C3.7644603 -0.01842133 4.7634787 -0.01953918 5.79277039 -0.02069092 C6.8467099 -0.02565582 7.90064941 -0.03062073 8.98652649 -0.03573608 C12.48013457 -0.05036504 15.97369723 -0.05716097 19.46733093 -0.06268311 C21.89247642 -0.06843396 24.31762188 -0.07419171 26.74276733 -0.07995605 C31.83121452 -0.09046814 36.9196459 -0.09630945 42.00810242 -0.09979248 C48.52839044 -0.10527752 55.04846967 -0.12930511 61.56869221 -0.15776443 C66.57955536 -0.17638779 71.5903682 -0.18159626 76.60126305 -0.18312836 C79.00502349 -0.1861561 81.40878302 -0.19418868 83.81250954 -0.20731354 C87.17588308 -0.2243672 90.53874615 -0.22249517 93.90214539 -0.21600342 C94.89509109 -0.2252182 95.8880368 -0.23443298 96.91107178 -0.243927 C102.19171183 -0.21199766 106.0049364 0.10777547 110.54154968 3.14044189 C112.08741844 6.23217941 111.8351449 8.73473742 111.54154968 12.14044189 C110.20622253 14.33465576 110.20622253 14.33465576 107.54154968 16.14044189 C103.89749536 16.74883625 100.28137849 16.68632663 96.59428406 16.65802002 C95.47846451 16.6650293 94.36264496 16.67203857 93.2130127 16.67926025 C89.52018945 16.69688278 85.82813089 16.68520162 82.13529968 16.67169189 C79.57226921 16.67438556 77.00923974 16.67826693 74.44621277 16.68328857 C69.0727726 16.68918944 63.69962049 16.68098238 58.32621765 16.66192627 C52.11625141 16.64015754 45.90681049 16.64720906 39.69685698 16.66923189 C33.71990932 16.68957897 27.74321843 16.68741543 21.76623535 16.67570496 C19.22406949 16.67303322 16.68189025 16.67632305 14.13973999 16.68562317 C10.5890685 16.69576157 7.03941111 16.6803239 3.48881531 16.65802002 C2.43414566 16.66611694 1.37947601 16.67421387 0.29284668 16.68255615 C-6.78618216 16.60001434 -6.78618216 16.60001434 -10.11140442 14.32684326 C-12.10671569 11.088237 -11.99005823 8.8616973 -11.45845032 5.14044189 C-8.23080064 0.91110784 -5.15683895 0.0193381 0 0 Z " fill="#000000" transform="translate(116.45845031738281,391.85955810546875)"/>
</svg>
