<svg version="1.1" id="Layer_1" xmlns="http://www.w3.org/2000/svg" xmlns:xlink="http://www.w3.org/1999/xlink" x="0px" y="0px"
	 width="100%" viewBox="0 0 512 512" enable-background="new 0 0 512 512" xml:space="preserve">
<path fill="#FFFFFF" opacity="1.000000" stroke="none" 
	d="
M117.000000,513.000000 
	C78.355484,513.000000 39.710968,513.000000 1.033226,513.000000 
	C1.033226,342.453247 1.033226,171.906509 1.033226,1.000000 
	C46.020256,1.000000 91.041466,1.000000 136.399124,1.382163 
	C130.681992,3.802057 124.467697,5.467078 118.622292,7.987598 
	C113.309402,10.278502 111.702148,13.672737 114.180695,19.397587 
	C115.701225,22.909670 121.536415,24.249067 125.892784,21.985777 
	C134.481430,17.523666 143.821060,16.128002 153.188370,16.102442 
	C222.508270,15.913279 291.828949,15.979006 361.149292,16.049372 
	C365.557678,16.053848 370.082092,16.259340 374.353180,17.239752 
	C393.030762,21.527111 405.550659,32.588200 411.070801,51.272205 
	C415.566010,66.486816 420.332703,81.621536 425.021454,96.778542 
	C428.221985,107.124512 431.495667,117.447845 434.805237,128.000000 
	C415.206543,128.000000 396.045837,127.985306 376.885223,128.008484 
	C370.704742,128.015961 367.372803,133.522690 369.996216,139.147293 
	C372.075226,143.604691 376.136566,143.935333 380.142212,143.957397 
	C397.971680,144.055603 415.802002,143.994644 433.632019,144.010208 
	C435.056580,144.011444 436.481018,144.157028 437.673309,144.222733 
	C437.673309,210.734558 437.673309,276.798096 437.673309,342.692688 
	C316.957001,342.692688 196.567535,342.692688 76.298653,342.692688 
	C76.298653,276.321655 76.298653,210.258301 76.298653,144.000000 
	C78.410255,144.000000 80.224541,144.000000 82.038826,144.000000 
	C168.855988,144.000000 255.673157,144.000046 342.490326,143.999634 
	C343.823395,143.999619 345.177490,144.145966 346.485809,143.964615 
	C351.852051,143.220795 355.434753,139.317871 354.998383,134.822876 
	C354.574463,130.456543 351.150177,128.000183 345.483032,128.000168 
	C279.328674,127.999924 213.174347,128.000000 147.020004,128.000000 
	C124.526993,128.000000 102.033974,128.000000 79.235382,128.000000 
	C81.854614,119.576286 84.384659,111.338570 86.977371,103.120628 
	C93.677322,81.884293 100.397430,60.654312 107.126801,39.427277 
	C108.787628,34.188416 107.792458,31.082123 103.774811,29.257401 
	C100.018143,27.551207 94.843933,29.221422 93.051613,33.370071 
	C90.329750,39.670277 87.857620,46.112164 85.790047,52.655228 
	C78.014122,77.262924 70.319595,101.898300 62.897194,126.614189 
	C61.287590,131.974030 60.129543,137.709244 60.119640,143.273987 
	C59.952442,237.256180 59.984013,331.238770 60.042568,425.221222 
	C60.045837,430.463379 60.764023,435.701141 60.976597,440.947937 
	C61.385654,451.044556 72.274414,460.769196 82.464348,460.090942 
	C89.557625,459.618835 96.707710,460.000000 103.818077,460.000000 
	C105.250061,471.955780 106.993347,483.406860 107.868813,494.923920 
	C108.441170,502.453491 110.445404,508.740173 117.000000,513.000000 
M110.000481,80.462662 
	C108.185471,86.276550 106.703049,92.221107 104.481407,97.875221 
	C100.670998,107.572769 105.425919,112.132225 114.446892,112.114624 
	C209.422073,111.929291 304.397766,112.000031 399.373291,111.999702 
	C400.706268,111.999695 402.057037,112.135307 403.369141,111.968559 
	C408.979187,111.255547 412.289551,106.446869 410.642822,101.226082 
	C405.486847,84.879807 400.187531,68.578659 395.053558,52.225540 
	C391.085938,39.587536 378.570831,32.054646 367.227234,32.041996 
	C293.746246,31.960062 220.265121,31.970064 146.784103,32.032169 
	C135.720230,32.041519 122.877785,39.503700 118.939865,52.211994 
	C116.095894,61.389954 113.015945,70.494789 110.000481,80.462662 
M235.669724,299.968933 
	C240.018814,302.382904 244.496811,304.594543 248.684067,307.262543 
	C253.813995,310.531189 258.807343,311.107269 264.185669,307.999695 
	C277.541870,300.282532 291.053589,292.825897 304.252289,284.850037 
	C307.972595,282.601868 313.139099,281.259430 313.071564,274.960968 
	C312.871490,256.303894 313.150726,237.640579 312.811310,218.987564 
	C312.768311,216.626617 310.715942,213.400909 308.641510,212.123825 
	C294.675171,203.525513 280.432098,195.377930 266.320496,187.013809 
	C260.463715,183.542419 255.063400,182.560333 248.645676,186.592010 
	C235.320877,194.962799 221.736191,202.976105 207.850342,210.370178 
	C202.225830,213.365173 200.815506,217.050430 200.905869,222.853546 
	C201.170410,239.842621 201.084671,256.839172 200.941071,273.831177 
	C200.904724,278.131226 202.629150,280.749298 206.305847,282.817017 
	C215.965088,288.249207 225.471741,293.952667 235.669724,299.968933 
z"/>
<path fill="#FFFFFF" opacity="1.000000" stroke="none" 
	d="
M377.000000,1.000002 
	C422.307373,1.000000 467.614746,1.000000 512.961060,1.000000 
	C512.961060,171.542953 512.961060,342.085938 512.961060,513.000000 
	C474.646576,513.000000 436.291931,513.000000 397.555176,512.658630 
	C401.389587,510.058777 404.398407,506.893158 405.001617,501.913879 
	C405.999176,493.679840 406.977661,485.443359 408.007843,477.213379 
	C408.725739,471.478271 409.516724,465.752289 410.277985,460.000000 
	C414.430786,460.000000 418.091919,460.000000 421.753082,460.000000 
	C425.586060,460.000000 429.419159,460.022858 433.251953,459.995483 
	C443.000244,459.925842 452.395416,450.681732 452.934692,441.729706 
	C453.550659,431.504791 453.726227,421.251038 453.946259,411.006653 
	C453.986816,409.117401 453.480103,407.170502 452.961853,405.324341 
	C451.736877,400.960480 448.207642,399.452545 444.348450,400.167908 
	C440.788879,400.827698 437.848419,402.895935 437.945038,407.523193 
	C438.132812,416.518402 438.085236,425.521393 437.968964,434.519043 
	C437.895813,440.179840 435.405396,444.176483 428.625000,444.162964 
	C314.469696,443.935028 200.313797,444.000031 86.158020,444.000000 
	C78.367538,444.000000 76.012749,441.671539 76.006630,433.802948 
	C75.988228,410.138550 75.995323,386.474121 76.013123,362.809723 
	C76.014061,361.555145 76.205017,360.300690 76.282829,359.348328 
	C197.109695,359.348328 317.507050,359.348328 438.000000,359.348328 
	C438.000000,365.857117 437.974091,372.018036 438.007416,378.178589 
	C438.039734,384.153931 443.229034,387.367157 448.722473,385.068115 
	C453.754730,382.962128 453.986542,378.692993 453.987518,374.291626 
	C454.004730,295.799133 454.001373,217.306625 453.989746,138.814117 
	C453.989532,137.326721 454.132050,135.748581 453.708405,134.365860 
	C448.921814,118.743416 443.988007,103.166115 439.194977,87.545624 
	C435.385406,75.130325 431.751648,62.661175 427.975891,50.235363 
	C422.198853,31.223452 412.359955,15.357276 393.412415,6.921340 
	C388.113251,4.562013 382.480011,2.953132 377.000000,1.000002 
M112.183868,385.989716 
	C147.815170,385.993134 183.446472,385.997864 219.077774,385.998840 
	C225.872910,385.999023 228.984253,383.511139 228.999985,378.087921 
	C229.016159,372.515381 225.998749,370.002197 219.253632,370.001526 
	C184.787827,369.998199 150.321823,370.054260 115.856461,369.932281 
	C111.479263,369.916809 107.841270,371.023071 106.140678,375.027985 
	C104.335632,379.278870 106.354713,382.830536 112.183868,385.989716 
M285.000061,426.264557 
	C286.045013,431.191711 288.695953,432.991516 295.125458,432.993958 
	C329.289581,433.006866 363.453735,433.000031 397.617859,432.999878 
	C398.451141,432.999878 399.321442,433.156921 400.111847,432.972382 
	C406.948334,431.376068 408.535797,429.525452 408.012360,423.519958 
	C407.664948,419.534241 404.354767,417.001556 399.295166,417.001221 
	C363.964447,416.998932 328.633728,416.996735 293.303009,417.003387 
	C287.712860,417.004425 285.115753,419.659607 285.000061,426.264557 
M167.500000,417.000000 
	C149.512070,417.000000 131.524124,416.985168 113.536232,417.010803 
	C109.221642,417.016968 106.499107,420.089111 105.906944,424.169037 
	C105.117653,429.607178 109.129234,433.008484 116.034172,433.005890 
	C150.344482,432.993011 184.654800,433.001495 218.965118,432.993561 
	C220.125153,432.993286 221.328979,433.080505 222.437683,432.814972 
	C227.629974,431.571320 229.552231,428.684601 228.999329,423.183929 
	C228.638031,419.589569 225.082260,417.002991 220.465134,417.001801 
	C203.143417,416.997314 185.821716,417.000000 167.500000,417.000000 
M404.861206,371.334167 
	C403.156464,370.889435 401.452545,370.060242 399.746857,370.056641 
	C364.277771,369.981506 328.808502,369.984283 293.339294,370.016998 
	C288.021423,370.021912 285.000305,373.024536 285.000000,377.998230 
	C284.999695,382.975159 288.017975,385.978027 293.335754,385.982941 
	C328.804962,386.015778 364.275024,386.100586 399.741730,385.801483 
	C402.463989,385.778503 406.367279,383.553925 407.555511,381.240295 
	C408.923187,378.577148 409.140625,374.349854 404.861206,371.334167 
M126.503113,409.000000 
	C158.118011,409.000000 189.733414,409.071960 221.346725,408.847992 
	C223.601837,408.832001 227.118912,407.129089 227.789047,405.356201 
	C228.793900,402.697876 228.972702,398.153717 227.357162,396.468903 
	C225.242584,394.263611 221.043564,393.161926 217.730591,393.139252 
	C184.286942,392.910736 150.841019,392.966003 117.396126,393.068573 
	C114.889854,393.076263 112.306290,393.823334 109.899277,394.640747 
	C105.440582,396.154968 105.640648,400.110657 106.109131,403.637878 
	C106.559517,407.028931 108.897102,408.995514 112.526451,408.998688 
	C116.852699,409.002472 121.178940,408.999847 126.503113,409.000000 
M366.500000,409.000000 
	C377.814728,409.000000 389.129547,409.031647 400.444092,408.986420 
	C405.980469,408.964294 407.879425,406.700775 408.070465,401.188599 
	C408.219513,396.888397 405.772308,393.112854 397.134216,393.069397 
	C363.357330,392.899445 329.579071,393.000000 295.801331,393.000031 
	C295.302155,393.000031 294.779999,392.903412 294.307251,393.015289 
	C287.767120,394.562927 284.668671,395.285553 284.999084,402.248688 
	C285.246124,407.455200 287.440887,408.999786 294.616669,408.999878 
	C318.244446,409.000214 341.872223,409.000000 366.500000,409.000000 
z"/>
<path fill="#000000" opacity="1.000000" stroke="none" 
	d="
M376.531342,1.000002 
	C382.480011,2.953132 388.113251,4.562013 393.412415,6.921340 
	C412.359955,15.357276 422.198853,31.223452 427.975891,50.235363 
	C431.751648,62.661175 435.385406,75.130325 439.194977,87.545624 
	C443.988007,103.166115 448.921814,118.743416 453.708405,134.365860 
	C454.132050,135.748581 453.989532,137.326721 453.989746,138.814117 
	C454.001373,217.306625 454.004730,295.799133 453.987518,374.291626 
	C453.986542,378.692993 453.754730,382.962128 448.722473,385.068115 
	C443.229034,387.367157 438.039734,384.153931 438.007416,378.178589 
	C437.974091,372.018036 438.000000,365.857117 438.000000,359.348328 
	C317.507050,359.348328 197.109695,359.348328 76.282829,359.348328 
	C76.205017,360.300690 76.014061,361.555145 76.013123,362.809723 
	C75.995323,386.474121 75.988228,410.138550 76.006630,433.802948 
	C76.012749,441.671539 78.367538,444.000000 86.158020,444.000000 
	C200.313797,444.000031 314.469696,443.935028 428.625000,444.162964 
	C435.405396,444.176483 437.895813,440.179840 437.968964,434.519043 
	C438.085236,425.521393 438.132812,416.518402 437.945038,407.523193 
	C437.848419,402.895935 440.788879,400.827698 444.348450,400.167908 
	C448.207642,399.452545 451.736877,400.960480 452.961853,405.324341 
	C453.480103,407.170502 453.986816,409.117401 453.946259,411.006653 
	C453.726227,421.251038 453.550659,431.504791 452.934692,441.729706 
	C452.395416,450.681732 443.000244,459.925842 433.251953,459.995483 
	C429.419159,460.022858 425.586060,460.000000 421.753082,460.000000 
	C418.091919,460.000000 414.430786,460.000000 410.277985,460.000000 
	C409.516724,465.752289 408.725739,471.478271 408.007843,477.213379 
	C406.977661,485.443359 405.999176,493.679840 405.001617,501.913879 
	C404.398407,506.893158 401.389587,510.058777 397.086517,512.658630 
	C390.645599,513.000000 384.291199,513.000000 377.381897,512.658630 
	C374.266693,509.344604 370.579468,506.754181 369.411102,503.309418 
	C367.673126,498.185120 367.674957,492.461975 367.009186,486.984802 
	C365.918213,478.009583 364.885773,469.027252 363.852966,460.254547 
	C292.225739,460.254547 221.181641,460.254547 150.121140,460.254547 
	C148.727692,471.980194 146.997879,483.429260 146.130219,494.943359 
	C145.563080,502.469238 143.536423,508.739532 137.000000,513.000000 
	C130.645599,513.000000 124.291206,513.000000 117.468399,513.000000 
	C110.445404,508.740173 108.441170,502.453491 107.868813,494.923920 
	C106.993347,483.406860 105.250061,471.955780 103.818077,460.000000 
	C96.707710,460.000000 89.557625,459.618835 82.464348,460.090942 
	C72.274414,460.769196 61.385654,451.044556 60.976597,440.947937 
	C60.764023,435.701141 60.045837,430.463379 60.042568,425.221222 
	C59.984013,331.238770 59.952442,237.256180 60.119640,143.273987 
	C60.129543,137.709244 61.287590,131.974030 62.897194,126.614189 
	C70.319595,101.898300 78.014122,77.262924 85.790047,52.655228 
	C87.857620,46.112164 90.329750,39.670277 93.051613,33.370071 
	C94.843933,29.221422 100.018143,27.551207 103.774811,29.257401 
	C107.792458,31.082123 108.787628,34.188416 107.126801,39.427277 
	C100.397430,60.654312 93.677322,81.884293 86.977371,103.120628 
	C84.384659,111.338570 81.854614,119.576286 79.235382,128.000000 
	C102.033974,128.000000 124.526993,128.000000 147.020004,128.000000 
	C213.174347,128.000000 279.328674,127.999924 345.483032,128.000168 
	C351.150177,128.000183 354.574463,130.456543 354.998383,134.822876 
	C355.434753,139.317871 351.852051,143.220795 346.485809,143.964615 
	C345.177490,144.145966 343.823395,143.999619 342.490326,143.999634 
	C255.673157,144.000046 168.855988,144.000000 82.038826,144.000000 
	C80.224541,144.000000 78.410255,144.000000 76.298653,144.000000 
	C76.298653,210.258301 76.298653,276.321655 76.298653,342.692688 
	C196.567535,342.692688 316.957001,342.692688 437.673309,342.692688 
	C437.673309,276.798096 437.673309,210.734558 437.673309,144.222733 
	C436.481018,144.157028 435.056580,144.011444 433.632019,144.010208 
	C415.802002,143.994644 397.971680,144.055603 380.142212,143.957397 
	C376.136566,143.935333 372.075226,143.604691 369.996216,139.147293 
	C367.372803,133.522690 370.704742,128.015961 376.885223,128.008484 
	C396.045837,127.985306 415.206543,128.000000 434.805237,128.000000 
	C431.495667,117.447845 428.221985,107.124512 425.021454,96.778542 
	C420.332703,81.621536 415.566010,66.486816 411.070801,51.272205 
	C405.550659,32.588200 393.030762,21.527111 374.353180,17.239752 
	C370.082092,16.259340 365.557678,16.053848 361.149292,16.049372 
	C291.828949,15.979006 222.508270,15.913279 153.188370,16.102442 
	C143.821060,16.128002 134.481430,17.523666 125.892784,21.985777 
	C121.536415,24.249067 115.701225,22.909670 114.180695,19.397587 
	C111.702148,13.672737 113.309402,10.278502 118.622292,7.987598 
	C124.467697,5.467078 130.681992,3.802057 136.867783,1.382163 
	C216.687561,1.000000 296.375122,1.000000 376.531342,1.000002 
M131.002640,482.729828 
	C132.021057,475.265717 133.039490,467.801605 134.076538,460.200897 
	C129.109299,460.200897 124.678841,460.200897 120.101212,460.200897 
	C121.561516,472.930023 122.997040,485.443176 124.446182,498.075073 
	C126.423813,497.972534 128.169540,497.882050 129.791000,497.798004 
	C130.220657,492.772522 130.610413,488.213684 131.002640,482.729828 
M389.365845,460.000000 
	C386.266083,460.000000 383.166321,460.000000 380.042114,460.000000 
	C381.540558,472.957581 382.974548,485.357819 384.408691,497.759338 
	C386.241516,497.759338 387.981262,497.759338 389.602234,497.759338 
	C391.045990,485.136475 392.461151,472.763458 393.872284,460.425842 
	C393.402863,460.250946 393.104492,460.059753 392.795197,460.040070 
	C391.967621,459.987396 391.135315,460.008301 389.365845,460.000000 
z"/>
<path fill="#FFFFFF" opacity="1.000000" stroke="none" 
	d="
M137.468658,513.000000 
	C143.536423,508.739532 145.563080,502.469238 146.130219,494.943359 
	C146.997879,483.429260 148.727692,471.980194 150.121140,460.254547 
	C221.181641,460.254547 292.225739,460.254547 363.852966,460.254547 
	C364.885773,469.027252 365.918213,478.009583 367.009186,486.984802 
	C367.674957,492.461975 367.673126,498.185120 369.411102,503.309418 
	C370.579468,506.754181 374.266693,509.344604 376.913483,512.658630 
	C297.312439,513.000000 217.624878,513.000000 137.468658,513.000000 
z"/>
<path fill="#000000" opacity="1.000000" stroke="none" 
	d="
M110.020859,80.047455 
	C113.015945,70.494789 116.095894,61.389954 118.939865,52.211994 
	C122.877785,39.503700 135.720230,32.041519 146.784103,32.032169 
	C220.265121,31.970064 293.746246,31.960062 367.227234,32.041996 
	C378.570831,32.054646 391.085938,39.587536 395.053558,52.225540 
	C400.187531,68.578659 405.486847,84.879807 410.642822,101.226082 
	C412.289551,106.446869 408.979187,111.255547 403.369141,111.968559 
	C402.057037,112.135307 400.706268,111.999695 399.373291,111.999702 
	C304.397766,112.000031 209.422073,111.929291 114.446892,112.114624 
	C105.425919,112.132225 100.670998,107.572769 104.481407,97.875221 
	C106.703049,92.221107 108.185471,86.276550 110.020859,80.047455 
M380.073120,58.553886 
	C377.160980,51.439816 371.882263,47.982986 364.174927,47.985619 
	C292.845245,48.009968 221.515579,47.999535 150.185898,48.000633 
	C142.008636,48.000759 135.813995,51.823936 133.295792,59.451000 
	C129.328384,71.467316 125.885551,83.656837 122.176201,95.919968 
	C212.098816,95.919968 301.752411,95.919968 391.835999,95.919968 
	C388.069427,83.540474 384.352875,71.325340 380.073120,58.553886 
z"/>
<path fill="#000000" opacity="1.000000" stroke="none" 
	d="
M235.354462,299.758484 
	C225.471741,293.952667 215.965088,288.249207 206.305847,282.817017 
	C202.629150,280.749298 200.904724,278.131226 200.941071,273.831177 
	C201.084671,256.839172 201.170410,239.842621 200.905869,222.853546 
	C200.815506,217.050430 202.225830,213.365173 207.850342,210.370178 
	C221.736191,202.976105 235.320877,194.962799 248.645676,186.592010 
	C255.063400,182.560333 260.463715,183.542419 266.320496,187.013809 
	C280.432098,195.377930 294.675171,203.525513 308.641510,212.123825 
	C310.715942,213.400909 312.768311,216.626617 312.811310,218.987564 
	C313.150726,237.640579 312.871490,256.303894 313.071564,274.960968 
	C313.139099,281.259430 307.972595,282.601868 304.252289,284.850037 
	C291.053589,292.825897 277.541870,300.282532 264.185669,307.999695 
	C258.807343,311.107269 253.813995,310.531189 248.684067,307.262543 
	C244.496811,304.594543 240.018814,302.382904 235.354462,299.758484 
M297.000000,263.320129 
	C297.000000,253.602020 297.000000,243.883911 297.000000,233.290314 
	C285.882812,239.669373 275.606537,245.565918 265.337189,251.458481 
	C265.337189,263.479584 265.337189,275.665253 265.337189,288.380920 
	C274.258911,283.197235 282.542084,277.991241 291.205261,273.521851 
	C295.357239,271.379822 297.982178,269.189575 297.000000,263.320129 
M240.030350,283.535339 
	C242.862564,285.071320 245.694763,286.607330 248.837250,288.311584 
	C248.837250,275.429260 248.837250,263.343109 248.837250,251.539383 
	C238.257538,245.491013 227.918243,239.580093 217.000183,233.338303 
	C217.000183,245.345535 216.841248,256.306763 217.165634,267.253693 
	C217.216309,268.963837 219.122543,271.160736 220.762543,272.185364 
	C226.873154,276.003174 233.230408,279.426239 240.030350,283.535339 
M261.427368,235.046417 
	C270.378510,229.848495 279.329651,224.650574 288.877411,219.106201 
	C281.177643,214.694824 273.690033,211.465622 267.499908,206.589355 
	C259.808441,200.530441 253.574799,201.595169 246.209641,206.842422 
	C239.801132,211.408081 232.588791,214.845474 225.083755,219.153336 
	C234.201675,224.400742 242.576309,229.120117 250.839966,234.026398 
	C254.063309,235.940125 256.991180,238.556061 261.427368,235.046417 
z"/>
<path fill="#000000" opacity="1.000000" stroke="none" 
	d="
M111.756905,385.913940 
	C106.354713,382.830536 104.335632,379.278870 106.140678,375.027985 
	C107.841270,371.023071 111.479263,369.916809 115.856461,369.932281 
	C150.321823,370.054260 184.787827,369.998199 219.253632,370.001526 
	C225.998749,370.002197 229.016159,372.515381 228.999985,378.087921 
	C228.984253,383.511139 225.872910,385.999023 219.077774,385.998840 
	C183.446472,385.997864 147.815170,385.993134 111.756905,385.913940 
z"/>
<path fill="#000000" opacity="1.000000" stroke="none" 
	d="
M285.000031,425.843567 
	C285.115753,419.659607 287.712860,417.004425 293.303009,417.003387 
	C328.633728,416.996735 363.964447,416.998932 399.295166,417.001221 
	C404.354767,417.001556 407.664948,419.534241 408.012360,423.519958 
	C408.535797,429.525452 406.948334,431.376068 400.111847,432.972382 
	C399.321442,433.156921 398.451141,432.999878 397.617859,432.999878 
	C363.453735,433.000031 329.289581,433.006866 295.125458,432.993958 
	C288.695953,432.991516 286.045013,431.191711 285.000031,425.843567 
z"/>
<path fill="#000000" opacity="1.000000" stroke="none" 
	d="
M168.000000,417.000000 
	C185.821716,417.000000 203.143417,416.997314 220.465134,417.001801 
	C225.082260,417.002991 228.638031,419.589569 228.999329,423.183929 
	C229.552231,428.684601 227.629974,431.571320 222.437683,432.814972 
	C221.328979,433.080505 220.125153,432.993286 218.965118,432.993561 
	C184.654800,433.001495 150.344482,432.993011 116.034172,433.005890 
	C109.129234,433.008484 105.117653,429.607178 105.906944,424.169037 
	C106.499107,420.089111 109.221642,417.016968 113.536232,417.010803 
	C131.524124,416.985168 149.512070,417.000000 168.000000,417.000000 
z"/>
<path fill="#000000" opacity="1.000000" stroke="none" 
	d="
M405.141724,371.642883 
	C409.140625,374.349854 408.923187,378.577148 407.555511,381.240295 
	C406.367279,383.553925 402.463989,385.778503 399.741730,385.801483 
	C364.275024,386.100586 328.804962,386.015778 293.335754,385.982941 
	C288.017975,385.978027 284.999695,382.975159 285.000000,377.998230 
	C285.000305,373.024536 288.021423,370.021912 293.339294,370.016998 
	C328.808502,369.984283 364.277771,369.981506 399.746857,370.056641 
	C401.452545,370.060242 403.156464,370.889435 405.141724,371.642883 
z"/>
<path fill="#000000" opacity="1.000000" stroke="none" 
	d="
M126.004150,409.000000 
	C121.178940,408.999847 116.852699,409.002472 112.526451,408.998688 
	C108.897102,408.995514 106.559517,407.028931 106.109131,403.637878 
	C105.640648,400.110657 105.440582,396.154968 109.899277,394.640747 
	C112.306290,393.823334 114.889854,393.076263 117.396126,393.068573 
	C150.841019,392.966003 184.286942,392.910736 217.730591,393.139252 
	C221.043564,393.161926 225.242584,394.263611 227.357162,396.468903 
	C228.972702,398.153717 228.793900,402.697876 227.789047,405.356201 
	C227.118912,407.129089 223.601837,408.832001 221.346725,408.847992 
	C189.733414,409.071960 158.118011,409.000000 126.004150,409.000000 
z"/>
<path fill="#000000" opacity="1.000000" stroke="none" 
	d="
M366.000000,409.000000 
	C341.872223,409.000000 318.244446,409.000214 294.616669,408.999878 
	C287.440887,408.999786 285.246124,407.455200 284.999084,402.248688 
	C284.668671,395.285553 287.767120,394.562927 294.307251,393.015289 
	C294.779999,392.903412 295.302155,393.000031 295.801331,393.000031 
	C329.579071,393.000000 363.357330,392.899445 397.134216,393.069397 
	C405.772308,393.112854 408.219513,396.888397 408.070465,401.188599 
	C407.879425,406.700775 405.980469,408.964294 400.444092,408.986420 
	C389.129547,409.031647 377.814728,409.000000 366.000000,409.000000 
z"/>
<path fill="#FFFFFF" opacity="1.000000" stroke="none" 
	d="
M131.001404,483.192322 
	C130.610413,488.213684 130.220657,492.772522 129.791000,497.798004 
	C128.169540,497.882050 126.423813,497.972534 124.446182,498.075073 
	C122.997040,485.443176 121.561516,472.930023 120.101212,460.200897 
	C124.678841,460.200897 129.109299,460.200897 134.076538,460.200897 
	C133.039490,467.801605 132.021057,475.265717 131.001404,483.192322 
z"/>
<path fill="#FFFFFF" opacity="1.000000" stroke="none" 
	d="
M389.835388,460.000000 
	C391.135315,460.008301 391.967621,459.987396 392.795197,460.040070 
	C393.104492,460.059753 393.402863,460.250946 393.872284,460.425842 
	C392.461151,472.763458 391.045990,485.136475 389.602234,497.759338 
	C387.981262,497.759338 386.241516,497.759338 384.408691,497.759338 
	C382.974548,485.357819 381.540558,472.957581 380.042114,460.000000 
	C383.166321,460.000000 386.266083,460.000000 389.835388,460.000000 
z"/>
<path fill="#FFFFFF" opacity="1.000000" stroke="none" 
	d="
M380.354736,58.832047 
	C384.352875,71.325340 388.069427,83.540474 391.835999,95.919968 
	C301.752411,95.919968 212.098816,95.919968 122.176201,95.919968 
	C125.885551,83.656837 129.328384,71.467316 133.295792,59.451000 
	C135.813995,51.823936 142.008636,48.000759 150.185898,48.000633 
	C221.515579,47.999535 292.845245,48.009968 364.174927,47.985619 
	C371.882263,47.982986 377.160980,51.439816 380.354736,58.832047 
z"/>
<path fill="#FFFFFF" opacity="1.000000" stroke="none" 
	d="
M297.000000,263.790466 
	C297.982178,269.189575 295.357239,271.379822 291.205261,273.521851 
	C282.542084,277.991241 274.258911,283.197235 265.337189,288.380920 
	C265.337189,275.665253 265.337189,263.479584 265.337189,251.458481 
	C275.606537,245.565918 285.882812,239.669373 297.000000,233.290314 
	C297.000000,243.883911 297.000000,253.602020 297.000000,263.790466 
z"/>
<path fill="#FFFFFF" opacity="1.000000" stroke="none" 
	d="
M239.762726,283.266357 
	C233.230408,279.426239 226.873154,276.003174 220.762543,272.185364 
	C219.122543,271.160736 217.216309,268.963837 217.165634,267.253693 
	C216.841248,256.306763 217.000183,245.345535 217.000183,233.338303 
	C227.918243,239.580093 238.257538,245.491013 248.837250,251.539383 
	C248.837250,263.343109 248.837250,275.429260 248.837250,288.311584 
	C245.694763,286.607330 242.862564,285.071320 239.762726,283.266357 
z"/>
<path fill="#FFFFFF" opacity="1.000000" stroke="none" 
	d="
M261.165527,235.333496 
	C256.991180,238.556061 254.063309,235.940125 250.839966,234.026398 
	C242.576309,229.120117 234.201675,224.400742 225.083755,219.153336 
	C232.588791,214.845474 239.801132,211.408081 246.209641,206.842422 
	C253.574799,201.595169 259.808441,200.530441 267.499908,206.589355 
	C273.690033,211.465622 281.177643,214.694824 288.877411,219.106201 
	C279.329651,224.650574 270.378510,229.848495 261.165527,235.333496 
z"/>
</svg>