<?xml version="1.0" standalone="no"?>
<!DOCTYPE svg PUBLIC "-//W3C//DTD SVG 20010904//EN"
 "http://www.w3.org/TR/2001/REC-SVG-20010904/DTD/svg10.dtd">
<svg version="1.0" xmlns="http://www.w3.org/2000/svg"
 width="512.000000pt" height="512.000000pt" viewBox="0 0 512.000000 512.000000"
 preserveAspectRatio="xMidYMid meet">

<g transform="translate(0.000000,512.000000) scale(0.100000,-0.100000)"
fill="#000000" stroke="none">
<path d="M4640 4193 c-26 -34 -23 -76 15 -204 14 -45 25 -92 25 -103 -1 -48
-74 -166 -103 -166 -5 0 -25 14 -44 30 -56 50 -73 43 -192 -74 l-106 -104 -60
10 c-37 5 -374 8 -870 5 -773 -3 -815 -4 -930 -25 -493 -88 -890 -298 -1261
-667 -164 -164 -240 -256 -372 -455 -153 -229 -305 -548 -372 -780 -12 -41
-24 -83 -26 -92 -4 -14 -17 -18 -60 -18 -90 0 -94 -8 -94 -205 0 -163 0 -166
25 -190 l24 -25 2149 0 c2129 0 2150 0 2175 20 l25 20 4 217 c4 187 8 227 26
284 36 111 104 183 213 225 61 24 79 42 79 79 0 37 -205 1122 -222 1175 -15
49 -72 160 -96 190 l-20 25 69 71 c58 61 69 77 69 106 0 22 -7 42 -19 52 -18
17 -18 19 24 62 68 70 99 143 98 234 0 50 -7 94 -21 133 -12 33 -25 82 -28
109 -4 29 -15 59 -25 69 -28 28 -73 24 -99 -8z m-132 -690 c-40 -39 -46 -39
-103 3 -18 14 -17 16 25 59 l44 45 36 -35 35 -35 -37 -37z m-322 -64 c145 -26
276 -127 339 -260 30 -66 46 -135 135 -603 55 -291 100 -534 100 -541 0 -7
-25 -27 -56 -45 -136 -76 -221 -212 -243 -385 l-6 -50 -1982 -3 c-1750 -2
-1983 0 -1983 13 0 8 15 61 34 117 196 585 576 1095 1056 1419 281 189 624
310 955 339 147 12 1582 12 1651 -1z m264 -2099 l0 -70 -2060 0 -2060 0 0 70
0 70 2060 0 2060 0 0 -70z"/>
<path d="M2800 3103 c-140 -25 -309 -92 -427 -170 -77 -50 -212 -180 -272
-262 -91 -122 -181 -315 -181 -387 0 -69 -87 -64 1245 -64 1164 0 1201 1 1231
19 20 12 38 36 49 65 l17 45 -77 333 c-43 183 -84 348 -93 366 -29 64 0 62
-769 61 -384 -1 -709 -4 -723 -6z m1442 -423 c37 -157 67 -293 68 -302 0 -17
-22 -18 -334 -18 l-334 0 -4 144 c-3 125 -6 147 -22 165 -19 20 -27 21 -301
21 -274 0 -282 -1 -301 -21 -16 -18 -19 -40 -22 -165 l-3 -144 -450 0 c-247 0
-449 3 -449 8 0 4 16 39 36 77 117 228 318 406 544 480 128 42 140 43 835 42
l670 -2 67 -285z m-752 -225 l0 -95 -180 0 -180 0 0 95 0 95 180 0 180 0 0
-95z"/>
<path d="M1937 1892 c-24 -26 -21 -75 4 -98 20 -18 45 -19 644 -19 599 0 624
1 644 19 26 24 28 77 3 99 -17 15 -76 17 -649 17 -598 0 -631 -1 -646 -18z"/>
</g>
</svg>
