<svg width="30" height="33" viewBox="0 0 30 33" fill="none" xmlns="http://www.w3.org/2000/svg">
<path d="M22.0001 27.1501C22.4501 27.3801 22.8601 27.6801 23.2301 28.0301C24.0601 28.8401 24.5601 29.9301 24.6301 31.0901C24.6801 31.7201 24.5001 31.8901 23.8801 31.8901H1.31009C0.890095 31.8901 0.690104 31.6901 0.710104 31.2601C0.740104 29.5901 1.66009 28.0701 3.12009 27.2701C3.19009 27.2301 3.27009 27.1901 3.34009 27.1501C3.32009 27.0301 3.2301 27.0101 3.1701 26.9601C2.2301 26.2601 1.70009 25.1301 1.76009 23.9601C1.86009 21.3301 2.0601 18.7001 2.3801 16.0801C2.5201 14.9301 2.6901 13.7801 2.8801 12.6401C2.9001 12.5401 2.9001 12.4301 2.8601 12.3301C2.1701 10.6501 1.4901 8.9601 0.820105 7.2701C0.580105 6.6801 0.79009 6.3801 1.43009 6.3801C2.37009 6.3801 3.32009 6.3801 4.26009 6.3801C4.43009 6.4001 4.5901 6.3001 4.6401 6.1301C4.9301 5.4101 5.33009 4.75009 5.84009 4.17009C5.89009 4.12009 5.9201 4.07009 5.9401 4.01009C6.2301 2.86009 7.0901 1.94009 8.2101 1.56009C9.8901 0.82009 11.7401 0.520095 13.5701 0.690095C15.0201 0.740095 16.4301 1.14009 17.7001 1.84009C18.0201 2.01009 18.3101 2.22009 18.5501 2.48009C18.7201 2.67009 18.9801 2.7701 19.2301 2.7401C20.8301 2.7301 22.4401 2.7401 24.0501 2.7401C26.6301 2.6901 28.7701 4.74009 28.8201 7.33009C28.8201 7.39009 28.8201 7.4601 28.8201 7.5201V17.7001C28.8901 20.2901 26.8601 22.4401 24.2701 22.5101C24.1901 22.5101 24.1001 22.5101 24.0201 22.5101C23.9901 22.5101 23.9501 22.5101 23.9201 22.5101C23.5901 22.4401 23.5201 22.6001 23.5501 22.9001C23.6201 23.4001 23.6301 23.9001 23.6001 24.3901C23.5101 25.3901 23.0201 26.3001 22.2301 26.9201C22.1601 26.9701 22.0901 27.0301 22.0301 27.0801C22.0301 27.0801 22.0301 27.1001 22.0201 27.1301M12.6601 23.5401H22.2301C22.4701 23.5401 22.5601 23.5101 22.5401 23.2301C22.3901 20.4701 22.1701 17.7201 21.7901 14.9701C21.5101 12.6201 21.0301 10.3101 20.3601 8.04009C20.0601 6.97009 19.5901 5.96009 18.9501 5.06009C18.8301 4.88009 18.6301 4.77009 18.4101 4.79009C14.5901 4.79009 10.7801 4.79009 6.9601 4.79009C6.7401 4.78009 6.5401 4.88009 6.4201 5.06009C5.9301 5.74009 5.5401 6.49009 5.2801 7.28009C4.4001 9.93009 3.8101 12.6701 3.5201 15.4601C3.1801 18.0301 2.97009 20.6101 2.84009 23.2001C2.82009 23.5001 2.89009 23.5501 3.18009 23.5501C6.35009 23.5401 9.51009 23.5501 12.6801 23.5501M12.6801 30.8401C16.2001 30.8401 19.7301 30.8401 23.2501 30.8401C23.5301 30.8401 23.5901 30.7801 23.5201 30.5001C23.1301 28.8801 21.6901 27.7301 20.0201 27.7201C15.1301 27.7101 10.2401 27.7101 5.3501 27.7201C3.7101 27.7301 2.2801 28.8501 1.8801 30.4501C1.81344 30.7101 1.9101 30.8401 2.1701 30.8401H12.6801ZM25.7101 12.6101V7.54009C25.7801 6.68009 25.1401 5.92009 24.2801 5.84009C24.1901 5.84009 24.1001 5.84009 24.0101 5.84009C23.7101 5.84009 23.4001 5.84009 23.1001 5.84009C22.2501 5.84009 21.5701 6.53009 21.5501 7.37009C21.5101 7.93009 21.5701 8.50009 21.7301 9.04009C21.8701 9.50009 21.9801 9.96009 22.0701 10.4301C22.6501 13.2101 23.0601 16.0201 23.3001 18.8401C23.3501 19.3801 23.3501 19.3801 23.9801 19.3801C24.8501 19.4701 25.6201 18.8401 25.7101 17.9801C25.7201 17.8701 25.7201 17.7601 25.7101 17.6501V12.6101ZM12.7301 24.5801C9.54009 24.5801 6.3601 24.5801 3.1701 24.5801C2.8801 24.5801 2.8601 24.6601 2.9401 24.9001C3.3001 25.9401 4.2601 26.6401 5.3601 26.6601C6.3501 26.6701 7.3301 26.6601 8.3201 26.6601C12.1901 26.6601 16.0601 26.6601 19.9301 26.6601C21.0501 26.6801 22.0601 25.9801 22.4301 24.9301C22.5101 24.6968 22.4301 24.5801 22.1901 24.5801H12.7301ZM20.8001 6.22009C21.1901 5.46009 21.9401 4.94009 22.7901 4.83009C23.2101 4.79009 23.6301 4.7901 24.0601 4.8001C25.4901 4.7501 26.7001 5.8701 26.7501 7.3001C26.7501 7.3601 26.7501 7.42009 26.7501 7.48009C26.7501 10.8901 26.7501 14.3101 26.7501 17.7201C26.7501 17.9901 26.7201 18.2601 26.6401 18.5201C26.2801 19.7401 25.1001 20.5401 23.8301 20.4101C23.5501 20.4101 23.4201 20.5501 23.4401 20.8301C23.4734 21.2501 23.6968 21.4568 24.1101 21.4501C26.1201 21.4701 27.7601 19.8601 27.7801 17.8501C27.7801 17.8301 27.7801 17.8201 27.7801 17.8001C27.7901 14.3301 27.7901 10.8601 27.7801 7.39009C27.7901 5.39009 26.1801 3.76009 24.1801 3.75009C24.1701 3.75009 24.1601 3.75009 24.1501 3.75009C22.6501 3.74009 21.1601 3.75009 19.6601 3.75009C19.5801 3.75009 19.4601 3.70009 19.4201 3.79009C19.3801 3.90009 19.4201 4.01009 19.4901 4.09009C20.0301 4.72009 20.4701 5.44009 20.7901 6.20009M7.12009 3.73009H18.2401C18.1701 3.55009 18.0601 3.3901 17.9101 3.2701C17.4401 2.8201 16.8701 2.4801 16.2501 2.2701C14.6201 1.6901 12.8701 1.5201 11.1601 1.7701C10.0901 1.8801 9.0601 2.21009 8.1301 2.75009C7.7101 2.98009 7.3601 3.32009 7.1101 3.73009M3.23009 10.4701H3.29009C3.35009 10.2101 3.41009 9.94009 3.48009 9.68009C3.67009 9.00009 3.8601 8.33009 4.0501 7.65009C4.0801 7.56009 4.2001 7.40009 3.9701 7.40009C3.3301 7.40009 2.6801 7.40009 2.0001 7.40009L3.23009 10.4701Z" fill="#000F52"/>
<path d="M22.0001 27.1501C22.4501 27.3801 22.8601 27.6801 23.2301 28.0301C24.0601 28.8401 24.5601 29.9301 24.6301 31.0901C24.6801 31.7201 24.5001 31.8901 23.8801 31.8901H1.31009C0.890095 31.8901 0.690104 31.6901 0.710104 31.2601C0.740104 29.5901 1.66009 28.0701 3.12009 27.2701C3.19009 27.2301 3.27009 27.1901 3.34009 27.1501C3.32009 27.0301 3.2301 27.0101 3.1701 26.9601C2.2301 26.2601 1.70009 25.1301 1.76009 23.9601C1.86009 21.3301 2.0601 18.7001 2.3801 16.0801C2.5201 14.9301 2.6901 13.7801 2.8801 12.6401C2.9001 12.5401 2.9001 12.4301 2.8601 12.3301C2.1701 10.6501 1.4901 8.9601 0.820105 7.2701C0.580105 6.6801 0.79009 6.3801 1.43009 6.3801C2.37009 6.3801 3.32009 6.3801 4.26009 6.3801C4.43009 6.4001 4.5901 6.3001 4.6401 6.1301C4.9301 5.4101 5.33009 4.75009 5.84009 4.17009C5.89009 4.12009 5.9201 4.07009 5.9401 4.01009C6.2301 2.86009 7.0901 1.94009 8.2101 1.56009C9.8901 0.82009 11.7401 0.520095 13.5701 0.690095C15.0201 0.740095 16.4301 1.14009 17.7001 1.84009C18.0201 2.01009 18.3101 2.22009 18.5501 2.48009C18.7201 2.67009 18.9801 2.7701 19.2301 2.7401C20.8301 2.7301 22.4401 2.7401 24.0501 2.7401C26.6301 2.6901 28.7701 4.74009 28.8201 7.33009C28.8201 7.39009 28.8201 7.4601 28.8201 7.5201V17.7001C28.8901 20.2901 26.8601 22.4401 24.2701 22.5101C24.1901 22.5101 24.1001 22.5101 24.0201 22.5101C23.9901 22.5101 23.9501 22.5101 23.9201 22.5101C23.5901 22.4401 23.5201 22.6001 23.5501 22.9001C23.6201 23.4001 23.6301 23.9001 23.6001 24.3901C23.5101 25.3901 23.0201 26.3001 22.2301 26.9201C22.1601 26.9701 22.0901 27.0301 22.0301 27.0801C22.0301 27.0801 22.0301 27.1001 22.0201 27.1301M12.6601 23.5401H22.2301C22.4701 23.5401 22.5601 23.5101 22.5401 23.2301C22.3901 20.4701 22.1701 17.7201 21.7901 14.9701C21.5101 12.6201 21.0301 10.3101 20.3601 8.04009C20.0601 6.97009 19.5901 5.96009 18.9501 5.06009C18.8301 4.88009 18.6301 4.77009 18.4101 4.79009C14.5901 4.79009 10.7801 4.79009 6.9601 4.79009C6.7401 4.78009 6.5401 4.88009 6.4201 5.06009C5.9301 5.74009 5.5401 6.49009 5.2801 7.28009C4.4001 9.93009 3.8101 12.6701 3.5201 15.4601C3.1801 18.0301 2.97009 20.6101 2.84009 23.2001C2.82009 23.5001 2.89009 23.5501 3.18009 23.5501C6.35009 23.5401 9.51009 23.5501 12.6801 23.5501M20.8001 6.22009C21.1901 5.46009 21.9401 4.94009 22.7901 4.83009C23.2101 4.79009 23.6301 4.7901 24.0601 4.8001C25.4901 4.7501 26.7001 5.8701 26.7501 7.3001C26.7501 7.3601 26.7501 7.42009 26.7501 7.48009C26.7501 10.8901 26.7501 14.3101 26.7501 17.7201C26.7501 17.9901 26.7201 18.2601 26.6401 18.5201C26.2801 19.7401 25.1001 20.5401 23.8301 20.4101C23.5501 20.4101 23.4201 20.5501 23.4401 20.8301C23.4734 21.2501 23.6968 21.4568 24.1101 21.4501C26.1201 21.4701 27.7601 19.8601 27.7801 17.8501C27.7801 17.8301 27.7801 17.8201 27.7801 17.8001C27.7901 14.3301 27.7901 10.8601 27.7801 7.39009C27.7901 5.39009 26.1801 3.76009 24.1801 3.75009C24.1701 3.75009 24.1601 3.75009 24.1501 3.75009C22.6501 3.74009 21.1601 3.75009 19.6601 3.75009C19.5801 3.75009 19.4601 3.70009 19.4201 3.79009C19.3801 3.90009 19.4201 4.01009 19.4901 4.09009C20.0301 4.72009 20.4701 5.44009 20.7901 6.20009M7.12009 3.73009H18.2401C18.1701 3.55009 18.0601 3.3901 17.9101 3.2701C17.4401 2.8201 16.8701 2.4801 16.2501 2.2701C14.6201 1.6901 12.8701 1.5201 11.1601 1.7701C10.0901 1.8801 9.0601 2.21009 8.1301 2.75009C7.7101 2.98009 7.3601 3.32009 7.1101 3.73009M12.6801 30.8401C16.2001 30.8401 19.7301 30.8401 23.2501 30.8401C23.5301 30.8401 23.5901 30.7801 23.5201 30.5001C23.1301 28.8801 21.6901 27.7301 20.0201 27.7201C15.1301 27.7101 10.2401 27.7101 5.3501 27.7201C3.7101 27.7301 2.2801 28.8501 1.8801 30.4501C1.81344 30.7101 1.9101 30.8401 2.1701 30.8401H12.6801ZM25.7101 12.6101V7.54009C25.7801 6.68009 25.1401 5.92009 24.2801 5.84009C24.1901 5.84009 24.1001 5.84009 24.0101 5.84009C23.7101 5.84009 23.4001 5.84009 23.1001 5.84009C22.2501 5.84009 21.5701 6.53009 21.5501 7.37009C21.5101 7.93009 21.5701 8.50009 21.7301 9.04009C21.8701 9.50009 21.9801 9.96009 22.0701 10.4301C22.6501 13.2101 23.0601 16.0201 23.3001 18.8401C23.3501 19.3801 23.3501 19.3801 23.9801 19.3801C24.8501 19.4701 25.6201 18.8401 25.7101 17.9801C25.7201 17.8701 25.7201 17.7601 25.7101 17.6501V12.6101ZM12.7301 24.5801C9.54009 24.5801 6.3601 24.5801 3.1701 24.5801C2.8801 24.5801 2.8601 24.6601 2.9401 24.9001C3.3001 25.9401 4.2601 26.6401 5.3601 26.6601C6.3501 26.6701 7.3301 26.6601 8.3201 26.6601C12.1901 26.6601 16.0601 26.6601 19.9301 26.6601C21.0501 26.6801 22.0601 25.9801 22.4301 24.9301C22.5101 24.6968 22.4301 24.5801 22.1901 24.5801H12.7301ZM3.23009 10.4701H3.29009C3.35009 10.2101 3.41009 9.94009 3.48009 9.68009C3.67009 9.00009 3.8601 8.33009 4.0501 7.65009C4.0801 7.56009 4.2001 7.40009 3.9701 7.40009C3.3301 7.40009 2.6801 7.40009 2.0001 7.40009L3.23009 10.4701Z" stroke="#000F52" stroke-width="0.5"/>
<path d="M12.6802 28.7701H14.1402C14.5202 28.7701 14.7502 28.9801 14.7402 29.3001C14.7402 29.5901 14.4902 29.8201 14.2002 29.8101C14.1802 29.8101 14.1602 29.8101 14.1502 29.8101C13.1602 29.8101 12.1802 29.8101 11.1902 29.8101C10.8102 29.8101 10.5802 29.6001 10.5902 29.2801C10.5902 28.9901 10.8402 28.7601 11.1302 28.7701C11.1502 28.7701 11.1602 28.7701 11.1802 28.7701C11.6802 28.7701 12.1802 28.7701 12.6802 28.7701Z" fill="#000F52" stroke="#000F52" stroke-width="0.5"/>
</svg>
