<?xml version="1.0" encoding="UTF-8"?>
<!DOCTYPE svg PUBLIC "-//W3C//DTD SVG 1.1//EN" "http://www.w3.org/Graphics/SVG/1.1/DTD/svg11.dtd">
<svg xmlns="http://www.w3.org/2000/svg" version="1.1" width="512px" height="512px" style="shape-rendering:geometricPrecision; text-rendering:geometricPrecision; image-rendering:optimizeQuality; fill-rule:evenodd; clip-rule:evenodd" xmlns:xlink="http://www.w3.org/1999/xlink">
<g><path style="opacity:0.967" fill="#000000" d="M 203.5,15.5 C 226.451,14.139 249.117,15.9724 271.5,21C 289.702,25.2637 305.368,33.9303 318.5,47C 349.5,47.3333 380.5,47.6667 411.5,48C 444,55.1667 463.833,75 471,107.5C 471.667,168.833 471.667,230.167 471,291.5C 464.569,321.931 446.403,341.431 416.5,350C 407.861,351.007 399.194,351.84 390.5,352.5C 396.21,376.398 391.21,397.564 375.5,416C 372.833,418 370.167,420 367.5,422C 395.055,436.938 408.221,460.105 407,491.5C 406.5,493.333 405.333,494.5 403.5,495C 283.5,495.667 163.5,495.667 43.5,495C 41.6667,494.5 40.5,493.333 40,491.5C 38.7788,460.105 51.9454,436.938 79.5,422C 66.9591,413.428 59.1258,401.594 56,386.5C 56.4247,323.404 61.9247,260.737 72.5,198.5C 62.3002,171.737 51.8002,145.071 41,118.5C 39.5951,114.928 39.2617,111.261 40,107.5C 40.5,105.667 41.6667,104.5 43.5,104C 61.5,103.667 79.5,103.333 97.5,103C 103.02,90.1182 110.187,78.2848 119,67.5C 121.235,56.9362 126.402,48.1029 134.5,41C 155.197,26.2434 178.197,17.7434 203.5,15.5 Z M 222.5,31.5 C 242.381,31.8693 261.714,35.3693 280.5,42C 291.862,46.3703 301.195,53.3703 308.5,63C 251.833,63.6667 195.167,63.6667 138.5,63C 146.507,52.4871 156.84,45.1538 169.5,41C 186.845,35.2219 204.512,32.0553 222.5,31.5 Z M 327.5,63.5 C 351.502,63.3334 375.502,63.5 399.5,64C 420.663,65.1594 436.83,74.6594 448,92.5C 450.849,97.8658 452.849,103.532 454,109.5C 455.625,166.146 455.958,222.813 455,279.5C 453.841,300.663 444.341,316.83 426.5,328C 414.836,333.636 402.503,336.136 389.5,335.5C 389.781,330.435 389.448,325.435 388.5,320.5C 410.54,323.066 426.707,314.733 437,295.5C 437.822,293.212 438.489,290.878 439,288.5C 439.667,229.167 439.667,169.833 439,110.5C 434.833,94.3333 424.667,84.1667 408.5,80C 395.776,79.0802 383.11,79.4135 370.5,81C 360.213,84.2873 352.713,90.7873 348,100.5C 343.105,88.368 336.438,77.368 328,67.5C 327.51,66.2068 327.343,64.8734 327.5,63.5 Z M 131.5,79.5 C 192.834,79.3333 254.168,79.5 315.5,80C 325.705,91.9028 333.205,105.403 338,120.5C 352.828,168.796 362.495,218.129 367,268.5C 370.596,301.421 373.096,334.421 374.5,367.5C 273.833,367.5 173.167,367.5 72.5,367.5C 74.9253,301.58 82.4253,236.247 95,171.5C 100.259,145.122 108.592,119.789 120,95.5C 123.277,89.7299 127.11,84.3966 131.5,79.5 Z M 383.5,95.5 C 393.592,94.5641 403.259,96.0641 412.5,100C 419.018,104.869 422.518,111.369 423,119.5C 423.975,174.865 423.641,230.198 422,285.5C 419.167,293.667 413.667,299.167 405.5,302C 399.555,303.162 393.555,303.662 387.5,303.5C 383.006,243.705 373.673,184.705 359.5,126.5C 358.66,109.036 366.66,98.7024 383.5,95.5 Z M 60.5,119.5 C 70.8548,119.168 81.1881,119.501 91.5,120.5C 86.4205,135.24 82.2538,150.24 79,165.5C 72.0021,150.504 65.8354,135.17 60.5,119.5 Z M 73.5,383.5 C 173.5,383.5 273.5,383.5 373.5,383.5C 369.765,399.736 359.765,409.902 343.5,414C 303.525,415.143 263.525,415.643 223.5,415.5C 183.475,415.643 143.475,415.143 103.5,414C 87.235,409.902 77.235,399.736 73.5,383.5 Z M 111.5,431.5 C 189.52,431.03 267.52,431.53 345.5,433C 370.039,438.705 385.039,453.872 390.5,478.5C 279.167,479.833 167.833,479.833 56.5,478.5C 63.9448,449.962 82.2781,434.296 111.5,431.5 Z"/></g>
<g><path style="opacity:0.976" fill="#000000" d="M 195.5,447.5 C 214.17,447.333 232.836,447.5 251.5,448C 253.333,448.5 254.5,449.667 255,451.5C 255.667,454.167 255.667,456.833 255,459.5C 254.5,461.333 253.333,462.5 251.5,463C 232.833,463.667 214.167,463.667 195.5,463C 192.484,461.471 191.151,458.971 191.5,455.5C 191.282,451.934 192.616,449.268 195.5,447.5 Z"/></g>
</svg>
