<svg width="30" height="30" viewBox="0 0 30 30" fill="none" xmlns="http://www.w3.org/2000/svg">
<path opacity="0.5" fill-rule="evenodd" clip-rule="evenodd" d="M27.5 10.3668C27.5 14.7115 23.9635 18.2336 19.6009 18.2336C18.8049 18.2336 16.9924 18.0506 16.1106 17.3188L15.0084 18.4166C14.3604 19.062 14.5354 19.252 14.8236 19.565C14.9439 19.6956 15.0839 19.8476 15.1921 20.0631C15.1921 20.0631 16.1106 21.3437 15.1921 22.6244C14.641 23.3562 13.0979 24.3807 11.3344 22.6244L10.967 22.9903C10.967 22.9903 12.0692 24.2709 11.1507 25.5515C10.5996 26.2833 9.13003 27.0151 7.84414 25.7345L6.55825 27.0151C5.67649 27.8933 4.59882 27.381 4.1702 27.0151L3.06801 25.9174C2.03929 24.8929 2.63938 23.783 3.06801 23.3562L12.6204 13.8428C12.6204 13.8428 11.7019 12.3792 11.7019 10.3668C11.7019 6.02208 15.2384 2.5 19.6009 2.5C23.9635 2.5 27.5 6.02208 27.5 10.3668Z" fill="#000F52"/>
<path d="M22.3567 10.3668C22.3567 11.8824 21.123 13.111 19.6012 13.111C18.0794 13.111 16.8457 11.8824 16.8457 10.3668C16.8457 8.85119 18.0794 7.62256 19.6012 7.62256C21.123 7.62256 22.3567 8.85119 22.3567 10.3668Z" fill="#000F52"/>
</svg>
