<?xml version="1.0" encoding="UTF-8"?>
<svg id="a" data-name="Layer 1" xmlns="http://www.w3.org/2000/svg" xmlns:xlink="http://www.w3.org/1999/xlink" viewBox="0 0 1057.46 709.84">
  <defs>
    <clipPath id="c">
      <path d="M560.43,648.63c.11-3.61,.12-6.45-.18-10.98,10.13-3.48,16-31.53,16-31.53-7.63,16.39-13.75,24.8-16.91,25.68-.36-3.53-.81-11.9-1-15.41-.17-3.12-.37-6.05-.78-8.49-.65-3.83,1.3-21.06-.42-22.68,0,0-3.18,25.21-4.52,22.41-4.18-8.75-6.46-10.09-11.42-17.51-.62-.93,11.44,24.6,11.31,26.04-.5,5.76-1.15,14.1-1.96,26.18-3.76-2.11-9.52-6.19-12.7-8.91,2.19-7.45-4.84-22.1-4.84-22.1,.21,7.89,3.24,18.4,1.81,19.37-3.09-3.67-18.59-15.25-22.25-20.02,0,0,21.67,28.45,37.41,39.43-.73,9.23-1.02,24.44-1.4,27.4-.8,6.16-2.02,13.28-3.27,18.67-.95,1.11,5,4.72,10.5,3.76,5.06-.89,8.72-1.43,7.86-3.76-.3-2.67-.98-5.22-1.04-8.08-.12-5.68-.28-25.69-.94-29.67,22.88-11.38,42.08-38.78,42.08-38.78-16.44,16.08-36.51,28.46-43.35,29v-.02Z" fill="none"/>
    </clipPath>
  </defs>
  <g id="b" data-name="Layer 1">
    <g>
      <g>
        <path d="M4.58,534.52c0,7.33,22.84,13.28,51.01,13.28s51.01-5.94,51.01-13.28-22.84-13.28-51.01-13.28-51.01,5.94-51.01,13.28Z" fill="#242b52" isolation="isolate" opacity=".1"/>
        <path d="M27.11,535.21c0,4.89,17.13,8.85,38.26,8.85s38.26-3.96,38.26-8.85-17.13-8.85-38.26-8.85-38.26,3.96-38.26,8.85Z" fill="#242b52" isolation="isolate" opacity=".2"/>
      </g>
      <path d="M53.15,523.52c1.15-.66-1.29-7.79-1.45-13.15,0,0,5.65,9.94,3.89,15,2.55,1.85,7.18,4.62,10.21,6.05,.65-8.2,1.17-13.87,1.58-17.77,.1-.98-9.6-18.31-9.1-17.68,3.99,5.03,5.82,5.94,9.18,11.89,1.08,1.9,3.64-15.22,3.64-15.22,1.37,1.1-.19,12.8,.33,15.4,.32,1.66,.49,3.65,.63,5.77,.15,2.39,.51,8.07,.8,10.47,2.55-.59,7.46-6.3,13.6-17.43,0,0-4.73,19.05-12.87,21.41,.07,.92,.12,1.73,.15,2.48,9.91-3.56,27.63-8.76,34.84-14.72,0,0-3.39,8.61-33.15,16.62l-1.26,1.32s-.02,2-2.39,2.12c-1.76,.09-3.88-.27-4.84,1.16s-1.97-.36-4.95-2.21c-.96-.59-2.62-2.39-2.62-2.39-11.54-8.77-24.11-22.71-24.11-22.71,2.94,3.24,15.4,11.11,17.88,13.6h.01Z" fill="#43596d"/>
      <g>
        <path d="M19.07,500.54c3.54-3.29,8.6-3.92,12.83-2.04,2.44-8.84,9.82-15.5,18.82-16.74-2.79-3.99-4.4-8.9-4.25-14.2,.36-12.85,10.82-22.98,23.37-22.63,11.85,.33,21.3,9.88,22.03,21.75,2.58-.94,5.35-1.44,8.26-1.37,12.55,.35,22.44,11.06,22.07,23.91-.07,2.63-.59,5.14-1.44,7.48,1.97,3.57,3.08,7.7,2.96,12.11-.36,12.85-10.83,22.98-23.38,22.63-3.95-.11-7.62-1.26-10.8-3.17-.19,.2-.35,.42-.55,.61-5.78,5.35-14.85,4.95-20.27-.9-1.06-1.14-1.87-2.41-2.5-3.75-3.75,2.54-8.27,3.96-13.1,3.83-2.85-.08-5.55-.71-8.04-1.77-.37,1.6-1.17,3.1-2.45,4.29-3.49,3.23-8.99,2.97-12.3-.59-2.26-2.44-2.91-5.78-1.99-8.68-3.49,.22-7.08-1.08-9.69-3.89-4.55-4.89-4.35-12.44,.41-16.88h0Z" fill="#00c48b"/>
        <path d="M62.23,459.1c0,2.33,1.89,4.23,4.23,4.23s4.23-1.9,4.23-4.23-1.89-4.23-4.23-4.23-4.23,1.89-4.23,4.23Z" fill="#f1f3be" isolation="isolate" opacity=".3"/>
        <path d="M72.16,457.11c0,1.1,.89,1.99,1.99,1.99s1.99-.89,1.99-1.99-.89-1.99-1.99-1.99-1.99,.89-1.99,1.99Z" fill="#f1f3be" isolation="isolate" opacity=".3"/>
        <path d="M25.68,501.85c0,1.1,.89,1.99,1.99,1.99s1.99-.89,1.99-1.99-.89-1.99-1.99-1.99-1.99,.89-1.99,1.99Z" fill="#f1f3be" isolation="isolate" opacity=".3"/>
        <g opacity=".5">
          <path d="M100.33,531.44c-3.95-.11-7.62-1.26-10.8-3.17-.19,.2-.35,.42-.55,.61-5.78,5.35-14.85,4.95-20.27-.9-1.06-1.14-1.87-2.41-2.5-3.75-3.75,2.54-8.27,3.96-13.1,3.83-2.85-.08-5.55-.71-8.04-1.77-.37,1.6-1.17,3.1-2.45,4.29-3.49,3.23-8.99,2.97-12.3-.59-2.26-2.44-2.91-5.78-1.99-8.68-3.49,.22-7.08-1.08-9.69-3.89-3.9-4.19-4.3-10.35-1.33-14.82,1.48,3.59,3.63,8.01,5.87,9.87,4.06,3.37,8.54-4.19,12.66-8.24,4.13-4.07,6.03,.41,11.72,3.28,5.69,2.89,11.28-2.29,19.91-5.03,8.63-2.73,23.57,9.46,28.45,11.1,4.87,1.64,12.18,6.08,21.12,2.01,2.85-1.29,4.95-3.09,6.5-4.95-1.25,11.96-11.29,21.13-23.23,20.79h.02Z" fill="#005a56" isolation="isolate" opacity=".71"/>
          <path d="M49.89,501c0,2.69,2.18,4.87,4.87,4.87s4.87-2.18,4.87-4.87-2.18-4.86-4.87-4.86-4.87,2.18-4.87,4.86Z" fill="#005a56" isolation="isolate" opacity=".71"/>
          <path d="M105.08,495.45c0,2.27,1.83,4.09,4.09,4.09s4.09-1.83,4.09-4.09-1.83-4.09-4.09-4.09-4.09,1.83-4.09,4.09Z" fill="#005a56" isolation="isolate" opacity=".71"/>
          <path d="M43.97,499.55c0,1.24,1,2.23,2.23,2.23s2.23-.99,2.23-2.23-1-2.23-2.23-2.23-2.23,1-2.23,2.23Z" fill="#005a56" isolation="isolate" opacity=".71"/>
          <path d="M115.13,495.08c0,1.23,1,2.23,2.23,2.23s2.23-1,2.23-2.23-1-2.23-2.23-2.23-2.23,1-2.23,2.23Z" fill="#005a56" isolation="isolate" opacity=".71"/>
          <path d="M102.75,488.83c0,1.26,1.02,2.28,2.28,2.28s2.29-1.02,2.29-2.28-1.02-2.28-2.29-2.28-2.28,1.02-2.28,2.28Z" fill="#005a56" isolation="isolate" opacity=".71"/>
        </g>
        <path d="M69.84,444.93c11.84,.33,21.3,9.88,22.03,21.75,2.58-.95,5.35-1.44,8.26-1.37,8.72,.24,16.15,5.5,19.75,12.99-9.82-7.31-25.13-5.23-32.57-3.6-.6,.13-1.22-.14-1.54-.67s-.26-1.2,.14-1.67l2.3-2.68c.72-.83,.82-2.03,.26-2.97-3.29-5.52-15.66-22.6-37.8-11.99,4.24-6.11,11.3-10.02,19.18-9.81v.02Z" fill="#f1f3be" isolation="isolate" opacity=".3"/>
        <path d="M50.68,481.69c12.54,1.35,21.49,8.31,21.49,8.31,0,0-14.43-4.15-27.43-2.8-1.84,.19-4.82,.91-7.76,1.97,3.52-3.96,8.33-6.67,13.74-7.42,0-.02-.02-.04-.04-.06Z" fill="#f1f3be" isolation="isolate" opacity=".3"/>
        <path d="M75.45,513.58c0,2.33,1.89,4.23,4.23,4.23s4.23-1.9,4.23-4.23-1.9-4.23-4.23-4.23-4.23,1.89-4.23,4.23Z" fill="#00c48b"/>
        <path d="M74.15,506.44c0,1.1,.89,1.99,1.99,1.99s1.99-.89,1.99-1.99-.89-1.99-1.99-1.99-1.99,.89-1.99,1.99Z" fill="#00c48b"/>
      </g>
    </g>
    <g>
      <g>
        <path d="M800.65,524.07s-1.58,3.94-8.67,8.67c-7.1,4.73,.79,14.19,.79,14.19l34.69,16.56,24.44-1.58,42.58,12.62,44.16-20.5,18.92-14.19s-14.98-22.87-17.35-23.66-55.98-9.46-58.35-9.46-27.6-7.89-27.6-7.89l-53.62,25.23h0Z" fill="#242b52" isolation="isolate" opacity=".2"/>
        <path d="M923.64,529.22s1.18,1.91,6.48,4.21c5.3,2.3-.59,6.89-.59,6.89l-25.93,8.04-18.27-.77-31.82,6.12-33-9.95-14.14-6.89s11.2-11.1,12.96-11.48,41.84-4.59,43.61-4.59,20.63-3.83,20.63-3.83l40.07,12.25h0Z" fill="#242b52" isolation="isolate" opacity=".2"/>
      </g>
      <path d="M876.94,543.23c-2.96,4.3-16.75,4.3-20.29,0l4.23-26.37h13.93l.16,11.63,1.97,14.74h0Z" fill="#43596d"/>
      <g>
        <polygon points="869.96 311.49 848.5 338.78 854.07 337.63 851.74 344.42 829 366.29 837.62 370.31 830.16 382.7 816.93 393.77 826.97 404.91 800.46 424.56 816.33 439.21 789.23 460.57 804.2 475.28 780.73 496.4 796.81 508.7 805.09 518.45 847.37 533.53 913.61 527.62 948.89 494.9 929.01 478.05 942.94 471.77 910.95 444.53 924.14 437.45 908.28 408.75 923.44 399.01 900.58 379.5 908.28 370.71 892.92 360.11 901.86 356.34 885.85 339.56 890.72 333.76 869.96 311.49" fill="#007874"/>
        <polygon points="847.37 533.53 913.61 527.62 948.89 494.9 929.01 478.05 942.94 471.77 910.95 444.53 924.14 437.45 908.28 408.75 919.21 400.6 900.58 379.5 903.51 374.24 892.92 360.11 901.86 356.34 885.85 339.56 890.72 333.76 871.49 313.88 873.32 331.25 863.57 336.89 878.19 342.57 876.8 360.74 861.02 365.75 878.19 382.07 866.01 405.58 900.01 426.84 893.43 433.5 866.3 441.87 885.77 468.09 906.04 481.55 859.2 511.06 804.22 518.21 805.09 518.45 847.37 533.53" fill="#005a56" isolation="isolate" opacity=".71"/>
        <g>
          <polygon points="816.33 439.21 789.23 460.57 866.3 441.87 832.8 438.85 816.33 439.21" fill="#f1f3be" isolation="isolate" opacity=".3"/>
          <polygon points="826.97 404.91 800.46 424.56 816.33 439.21 841.42 403.79 826.97 404.91" fill="#f1f3be" isolation="isolate" opacity=".3"/>
          <polygon points="816.93 393.77 821.56 396.8 855.45 374.24 836.61 373.46 830.16 382.7 816.93 393.77" fill="#f1f3be" isolation="isolate" opacity=".3"/>
          <polygon points="804.2 475.28 780.73 496.4 845.53 473.65 804.2 475.28" fill="#f1f3be" isolation="isolate" opacity=".3"/>
          <polygon points="852.26 342.89 851.74 344.42 829 366.29 832.79 366.32 862.06 342.89 852.26 342.89" fill="#f1f3be" isolation="isolate" opacity=".3"/>
          <polygon points="852.03 338.05 863.8 328.67 869.96 311.49 848.5 338.78 852.03 338.05" fill="#f1f3be" isolation="isolate" opacity=".3"/>
          <polygon points="837.62 399.73 845.22 393.86 845.22 398.93 837.62 399.73" fill="#f1f3be" isolation="isolate" opacity=".3"/>
          <polygon points="877.25 396.8 884.85 390.94 884.85 396 877.25 396.8" fill="#f1f3be" isolation="isolate" opacity=".3"/>
          <polygon points="856.99 358.92 856.99 364.22 860.94 361.57 856.99 358.92" fill="#f1f3be" isolation="isolate" opacity=".3"/>
          <polygon points="832.8 426.84 841.42 426.84 841.42 420.09 832.8 426.84" fill="#f1f3be" isolation="isolate" opacity=".3"/>
          <polygon points="875.04 336.41 883.66 336.41 883.66 329.66 875.04 336.41" fill="#f1f3be" isolation="isolate" opacity=".3"/>
          <polygon points="896.62 415.97 905.24 415.97 905.24 409.22 896.62 415.97" fill="#f1f3be" isolation="isolate" opacity=".3"/>
          <polygon points="833.3 468.37 824.83 460.98 820.71 466.41 833.3 468.37" fill="#f1f3be" isolation="isolate" opacity=".3"/>
          <polygon points="838.6 484.09 833.96 491.48 827 491.48 838.6 484.09" fill="#f1f3be" isolation="isolate" opacity=".3"/>
          <polygon points="852.73 364.37 848.2 368.27 844.26 364.37 852.73 364.37" fill="#f1f3be" isolation="isolate" opacity=".3"/>
          <polygon points="856.1 432.25 863.68 430.3 854.25 426.4 856.1 432.25" fill="#f1f3be" isolation="isolate" opacity=".3"/>
        </g>
        <g opacity=".82">
          <polygon points="930.17 471.2 921.82 471.2 930.17 476.32 930.17 471.2" fill="#005a56" isolation="isolate" opacity=".71"/>
          <polygon points="887.7 446.64 879.35 446.64 887.7 451.77 887.7 446.64" fill="#005a56" isolation="isolate" opacity=".71"/>
          <polygon points="905.11 492.62 896.76 492.62 905.11 497.74 905.11 492.62" fill="#005a56" isolation="isolate" opacity=".71"/>
          <polygon points="906.04 432.72 895.82 435.29 906.04 439.33 906.04 432.72" fill="#005a56" isolation="isolate" opacity=".71"/>
          <polygon points="876.33 405.58 885.77 408.17 878.19 412.6 876.33 405.58" fill="#005a56" isolation="isolate" opacity=".71"/>
          <polygon points="883.53 345.45 892.96 348.05 885.39 352.48 883.53 345.45" fill="#005a56" isolation="isolate" opacity=".71"/>
          <polygon points="893.2 385.13 888.24 385.13 893.2 389.88 893.2 385.13" fill="#005a56" isolation="isolate" opacity=".71"/>
        </g>
      </g>
    </g>
    <g>
      <polygon points="522.3 669.17 433.91 645.51 369.87 662.65 369.87 699.16 410.36 699.16 522.3 669.17" fill="#242b52" isolation="isolate" opacity=".15"/>
      <polygon points="483.2 668.71 718.66 668.71 1057.46 577.93 834.46 518.24 483.2 518.24 483.2 668.71" fill="#242b52" isolation="isolate" opacity=".15"/>
      <g>
        <polygon points="856.88 568.43 483.2 668.56 483.2 439.78 856.88 339.65 856.88 568.43" fill="#b4bdc5"/>
        <polygon points="109.52 568.43 483.2 668.56 483.2 439.78 109.52 339.65 109.52 568.43" fill="#e6e7e8"/>
        <polygon points="856.88 339.65 483.2 239.53 109.52 339.65 483.2 439.78 856.88 339.65" fill="#404079"/>
      </g>
      <polygon points="483.2 668.71 856.88 568.59 856.88 558.49 483.2 658.62 483.2 668.71" fill="#9fa8b6"/>
      <polygon points="483.2 668.71 109.52 568.59 109.52 558.49 483.2 658.62 483.2 668.71" fill="#b4bdc5"/>
      <g>
        <g>
          <g>
            <polygon points="253.85 591.64 193.01 575.34 193.01 430.45 253.85 446.75 253.85 591.64" fill="#566575"/>
            <polygon points="193.01 430.45 193.01 575.34 200.1 573.44 200.1 432.35 193.01 430.45" fill="#b4bdc5"/>
            <polygon points="253.85 591.64 193.01 575.34 200.1 573.44 253.85 587.84 253.85 591.64" fill="#e6e7e8"/>
          </g>
          <polygon points="248.79 581.31 205.32 569.67 205.32 436.7 248.79 448.34 248.79 581.31" fill="#00123e"/>
        </g>
        <g>
          <g>
            <polygon points="314.68 608.04 253.85 591.74 253.85 446.84 314.68 463.15 314.68 608.04" fill="#566575"/>
            <polygon points="253.85 446.84 253.85 591.74 260.94 589.83 260.94 448.74 253.85 446.84" fill="#b4bdc5"/>
            <polygon points="314.68 608.04 253.85 591.74 260.94 589.83 314.68 604.24 314.68 608.04" fill="#e6e7e8"/>
          </g>
          <polygon points="309.63 597.71 266.16 586.06 266.16 453.09 309.63 464.74 309.63 597.71" fill="#303a66"/>
        </g>
        <g>
          <g>
            <polygon points="193.01 575.32 132.17 559.02 132.17 414.13 193.01 430.43 193.01 575.32" fill="#566575"/>
            <polygon points="132.17 414.13 132.17 559.02 139.26 557.12 139.26 416.03 132.17 414.13" fill="#b4bdc5"/>
            <polygon points="193.01 575.32 132.17 559.02 139.26 557.12 193.01 571.52 193.01 575.32" fill="#e6e7e8"/>
          </g>
          <polygon points="187.95 564.99 144.48 553.34 144.48 420.37 187.95 432.02 187.95 564.99" fill="#242b52"/>
        </g>
        <g>
          <g>
            <polygon points="436.36 640.57 375.52 624.27 375.52 479.37 436.36 495.68 436.36 640.57" fill="#566575"/>
            <polygon points="375.52 479.37 375.52 624.27 382.62 622.36 382.62 481.27 375.52 479.37" fill="#b4bdc5"/>
            <polygon points="436.36 640.57 375.52 624.27 382.62 622.36 436.36 636.76 436.36 640.57" fill="#e6e7e8"/>
          </g>
          <polygon points="431.31 630.24 387.83 618.59 387.83 485.62 431.31 497.27 431.31 630.24" fill="#00123e"/>
        </g>
        <g>
          <g>
            <polygon points="375.52 624.42 314.68 608.12 314.68 463.23 375.52 479.53 375.52 624.42" fill="#566575"/>
            <polygon points="314.68 463.23 314.68 608.12 321.78 606.22 321.78 465.13 314.68 463.23" fill="#b4bdc5"/>
            <polygon points="375.52 624.42 314.68 608.12 321.78 606.22 375.52 620.62 375.52 624.42" fill="#e6e7e8"/>
          </g>
          <polygon points="370.47 614.09 327 602.45 327 469.48 370.47 481.12 370.47 614.09" fill="#242b52"/>
        </g>
        <polygon points="436.36 495.68 132.17 559.02 132.17 414.13 436.36 495.68" fill="#fff" isolation="isolate" opacity=".2"/>
      </g>
      <g>
        <g>
          <polygon points="653.33 613.71 778.21 580.25 778.21 400.4 653.33 433.86 653.33 613.71" fill="#303a66"/>
          <polygon points="778.21 400.4 778.21 580.25 763.65 576.35 763.65 404.3 778.21 400.4" fill="#7d8191"/>
          <polygon points="653.33 613.71 778.21 580.25 763.65 576.35 653.33 605.91 653.33 613.71" fill="#e6e7e8"/>
        </g>
        <polygon points="659.05 601.41 721.09 584.79 721.09 443.01 659.05 459.63 659.05 601.41" fill="#00123e"/>
        <polygon points="714.23 537.29 721.09 535.45 721.09 512.3 714.23 514.14 714.23 537.29" fill="#9fa8b6"/>
      </g>
      <g>
        <polygon points="0 589.8 369.87 688.89 369.87 699.16 0 600.07 0 589.8" fill="#e6e7e8"/>
        <polygon points="0 589.8 369.87 688.89 483.2 658.52 113.33 559.42 0 589.8" fill="#001230"/>
        <polygon points="483.2 658.52 483.2 668.79 369.87 699.16 369.87 688.89 483.2 658.52" fill="#9fa8b6"/>
      </g>
      <g>
        <polygon points="28.24 594.65 12.05 590.31 117.46 562.07 133.65 566.41 28.24 594.65" fill="#c09e72"/>
        <polygon points="52.35 601.11 36.16 596.77 141.57 568.53 157.76 572.87 52.35 601.11" fill="#d4b98b"/>
        <polygon points="76.45 607.57 60.27 603.23 165.68 574.99 181.86 579.33 76.45 607.57" fill="#aa8d66"/>
        <polygon points="100.56 614.03 84.37 609.69 189.78 581.45 205.97 585.78 100.56 614.03" fill="#c09e72"/>
        <polygon points="180.8 635.53 196.99 639.87 302.4 611.62 286.21 607.29 180.8 635.53" fill="#c09e72"/>
        <polygon points="156.69 629.07 172.88 633.41 278.29 605.16 262.11 600.83 156.69 629.07" fill="#d4b98b"/>
        <polygon points="132.59 622.61 148.77 626.95 254.18 598.7 238 594.37 132.59 622.61" fill="#aa8d66"/>
        <polygon points="108.48 616.15 124.67 620.49 230.08 592.24 213.89 587.91 108.48 616.15" fill="#c09e72"/>
        <polygon points="221.1 646.33 204.91 641.99 310.32 613.74 326.51 618.08 221.1 646.33" fill="#c09e72"/>
        <polygon points="245.2 652.79 229.02 648.45 334.43 620.2 350.61 624.54 245.2 652.79" fill="#d4b98b"/>
        <polygon points="269.31 659.25 253.12 654.91 358.53 626.66 374.72 631 269.31 659.25" fill="#aa8d66"/>
        <polygon points="293.42 665.7 277.23 661.37 382.64 633.12 398.83 637.46 293.42 665.7" fill="#c09e72"/>
        <polygon points="349.55 680.75 365.74 685.08 471.15 656.84 454.96 652.5 349.55 680.75" fill="#d4b98b"/>
        <polygon points="325.44 674.29 341.63 678.62 447.04 650.38 430.85 646.04 325.44 674.29" fill="#aa8d66"/>
        <polygon points="301.34 667.83 317.52 672.16 422.93 643.92 406.75 639.58 301.34 667.83" fill="#c09e72"/>
      </g>
      <polygon points="109.52 438.69 483.2 538.82 483.2 439.78 109.52 339.65 109.52 438.69" fill="#242b52" isolation="isolate" opacity=".1"/>
      <g>
        <polygon points="776.86 361.49 403.18 461.62 403.18 232.84 776.86 132.72 776.86 361.49" fill="#b4bdc5"/>
        <polygon points="29.51 361.49 403.18 461.62 403.18 232.84 29.51 132.72 29.51 361.49" fill="#e6e7e8"/>
        <polygon points="776.86 132.72 403.18 32.59 29.51 132.72 403.18 232.84 776.86 132.72" fill="#404079"/>
        <polygon points="715.77 132.72 403.18 48.96 90.59 132.72 403.18 216.47 715.77 132.72" fill="#303a66"/>
        <polygon points="403.18 48.96 90.59 132.72 110.28 137.99 403.18 59.51 403.18 48.96" fill="#001230"/>
        <polygon points="403.18 48.96 715.77 132.72 696.09 137.99 403.18 59.51 403.18 48.96" fill="#242b52"/>
        <g>
          <g>
            <g>
              <polygon points="633.44 270.55 688.72 255.74 688.72 218.11 633.44 232.92 633.44 270.55" fill="#566575"/>
              <polygon points="688.72 218.11 688.72 255.74 682.27 254.01 682.27 219.84 688.72 218.11" fill="#9fa8b6"/>
              <polygon points="633.44 270.55 688.72 255.74 682.27 254.01 633.44 267.1 633.44 270.55" fill="#e6e7e8"/>
            </g>
            <polygon points="638.03 261.17 677.53 250.59 677.53 223.79 638.03 234.37 638.03 261.17" fill="#242b52"/>
          </g>
          <g>
            <g>
              <polygon points="688.72 255.76 743.99 240.95 743.99 203.32 688.72 218.13 688.72 255.76" fill="#566575"/>
              <polygon points="743.99 203.32 743.99 240.95 737.55 239.22 737.55 205.05 743.99 203.32" fill="#9fa8b6"/>
              <polygon points="688.72 255.76 743.99 240.95 737.55 239.22 688.72 252.31 688.72 255.76" fill="#e6e7e8"/>
            </g>
            <polygon points="693.31 246.38 732.81 235.8 732.81 209 693.31 219.58 693.31 246.38" fill="#001230"/>
          </g>
        </g>
        <polygon points="776.86 361.49 403.18 461.62 776.86 132.72 776.86 361.49" fill="#242b52" isolation="isolate" opacity=".1"/>
      </g>
      <g>
        <g>
          <polygon points="381.64 433.83 209.94 387.82 209.94 233.49 381.64 279.5 381.64 433.83" fill="#566575"/>
          <polygon points="209.94 233.49 209.94 387.82 229.96 382.46 229.96 238.86 209.94 233.49" fill="#b4bdc5"/>
          <polygon points="381.64 433.83 209.94 387.82 229.96 382.46 381.64 423.1 381.64 433.83" fill="#e6e7e8"/>
        </g>
        <polygon points="377.11 417.62 234.94 379.52 234.94 240.19 377.11 278.29 377.11 417.62" fill="#303a66"/>
        <polygon points="307.48 400.6 302.52 399.27 302.52 258.3 307.48 259.63 307.48 400.6" fill="#566575"/>
        <polygon points="379.02 382.46 233.77 343.54 233.77 337.34 379.02 376.26 379.02 382.46" fill="#566575"/>
      </g>
      <g>
        <g>
          <polygon points="222.75 391.2 51.05 345.19 51.05 190.86 222.75 236.86 222.75 391.2" fill="#566575"/>
          <polygon points="51.05 190.86 51.05 345.19 71.07 339.82 71.07 196.22 51.05 190.86" fill="#b4bdc5"/>
          <polygon points="222.75 391.2 51.05 345.19 71.07 339.82 222.75 380.47 222.75 391.2" fill="#e6e7e8"/>
        </g>
        <polygon points="218.23 374.98 76.05 336.89 76.05 197.56 218.23 235.65 218.23 374.98" fill="#242b52"/>
        <polygon points="148.59 357.97 143.63 356.64 143.63 215.66 148.59 216.99 148.59 357.97" fill="#566575"/>
        <polygon points="220.13 339.82 74.88 300.9 74.88 294.7 220.13 333.62 220.13 339.82" fill="#566575"/>
      </g>
      <g>
        <polygon points="442.86 69.54 373.08 88.23 627.06 156.3 696.84 137.6 442.86 69.54" fill="#242b52" isolation="isolate" opacity=".15"/>
        <polygon points="674.45 72.14 421.74 4.61 372.48 89.19 625.19 156.72 674.45 72.14" fill="#5d6e81"/>
        <polygon points="672.59 67.53 419.88 0 370.62 84.59 623.33 152.12 672.59 67.53" fill="#e3e3e7"/>
        <path d="M420.75,95.57l-45.76-12.26L422,3.99l45.76,12.26-47.01,79.33h0Zm96.96-66l-45.76-12.26-47.01,79.33,45.76,12.26,47.01-79.33Zm49.95,13.34l-45.76-12.26-47.01,79.33,45.76,12.26s47.01-79.33,47.01-79.33Zm49.95,13.34l-45.76-12.26-47.01,79.33,45.76,12.26s47.01-79.33,47.01-79.33Zm49.95,13.34l-45.76-12.26-47.01,79.33,45.76,12.26,47.01-79.33Z" fill="#242b52" isolation="isolate" opacity=".15"/>
        <g>
          <polygon points="421.01 2.01 374 81.34 419.76 93.6 466.77 14.28 421.01 2.01" fill="#ebebeb"/>
          <path d="M382.18,71.92l-4.18,7.05,.48,1.22,7.79,2.09,1.6-.66,4.18-7.05-.48-1.22-7.79-2.09-1.59,.66h-.01Zm5.62-9.48l-4.18,7.05,.48,1.22,7.79,2.09,1.59-.66,4.18-7.05-.48-1.22-7.79-2.09-1.59,.66h0Zm5.62-9.48l-4.18,7.05,.48,1.22,7.79,2.09,1.6-.66,4.18-7.05-.48-1.22-7.79-2.09-1.59,.66h-.01Zm5.62-9.48l-4.18,7.05,.48,1.22,7.79,2.09,1.6-.66,4.18-7.05-.48-1.22-7.79-2.09-1.59,.66h-.01Zm5.62-9.48l-4.18,7.05,.48,1.22,7.79,2.09,1.6-.66,4.18-7.05-.48-1.22-7.79-2.09-1.59,.66h-.01Zm5.62-9.48l-4.18,7.05,.48,1.22,7.79,2.09,1.6-.66,4.18-7.05-.48-1.22-7.79-2.09-1.59,.66h-.01Zm5.62-9.48l-4.18,7.05,.48,1.22,7.79,2.09,1.6-.66,4.18-7.05-.48-1.22-7.79-2.09-1.59,.66h-.01Zm5.62-9.48l-4.18,7.05,.48,1.22,7.79,2.09,1.6-.66,4.18-7.05-.48-1.22-7.79-2.09-1.59,.66h-.01Zm-28.84,69.14l-4.18,7.05,.48,1.22,7.79,2.09,1.6-.66,4.18-7.05-.48-1.22-7.79-2.09-1.59,.66h-.01Zm5.62-9.48l-4.18,7.05,.48,1.22,7.79,2.09,1.6-.66,4.18-7.05-.48-1.22-7.79-2.09-1.59,.66h-.01Zm5.62-9.48l-4.18,7.05,.48,1.22,7.79,2.09,1.6-.66,4.18-7.05-.48-1.22-7.79-2.09-1.59,.66h-.01Zm5.62-9.48l-4.18,7.05,.48,1.22,7.79,2.09,1.6-.66,4.18-7.05-.48-1.22-7.79-2.09-1.59,.66h-.01Zm5.62-9.48l-4.18,7.05,.48,1.22,7.79,2.09,1.6-.66,4.18-7.05-.48-1.22-7.79-2.09-1.59,.66h-.01Zm5.62-9.48l-4.18,7.05,.48,1.22,7.79,2.09,1.6-.66,4.18-7.05-.48-1.22-7.79-2.09-1.59,.66h-.01Zm5.62-9.48l-4.18,7.05,.48,1.22,7.79,2.09,1.6-.66,4.18-7.05-.48-1.22-7.79-2.09-1.59,.66h-.01Zm5.62-9.48l-4.18,7.05,.48,1.22,7.79,2.09,1.6-.66,4.18-7.05-.48-1.22-7.79-2.09-1.59,.66h-.01Zm-28.84,69.14l-4.18,7.05,.48,1.22,7.79,2.09,1.6-.66,4.18-7.05-.48-1.22-7.79-2.09-1.59,.66h-.01Zm5.62-9.48l-4.18,7.05,.48,1.22,7.79,2.09,1.59-.66,4.18-7.05-.48-1.22-7.79-2.09-1.59,.66Zm5.62-9.48l-4.18,7.05,.48,1.22,7.79,2.09,1.6-.66,4.18-7.05-.48-1.22-7.79-2.09-1.59,.66h-.01Zm5.62-9.48l-4.18,7.05,.48,1.22,7.79,2.09,1.6-.66,4.18-7.05-.48-1.22-7.79-2.09-1.59,.66h-.01Zm5.62-9.48l-4.18,7.05,.48,1.22,7.79,2.09,1.6-.66,4.18-7.05-.48-1.22-7.79-2.09-1.59,.66h-.01Zm5.62-9.48l-4.18,7.05,.48,1.22,7.79,2.09,1.59-.66,4.18-7.05-.48-1.22-7.79-2.09s-1.59,.66-1.59,.66Zm5.62-9.48l-4.18,7.05,.48,1.22,7.79,2.09,1.6-.66,4.18-7.05-.48-1.22-7.79-2.09-1.59,.66h-.01Zm5.62-9.48l-4.18,7.05,.48,1.22,7.79,2.09,1.6-.66,4.18-7.05-.48-1.22-7.79-2.09-1.59,.66h-.01Zm-28.84,69.14l-4.18,7.05,.48,1.22,7.79,2.09,1.59-.66,4.18-7.05-.48-1.22-7.79-2.09-1.59,.66Zm5.62-9.48l-4.18,7.05,.48,1.22,7.79,2.09,1.6-.66,4.18-7.05-.48-1.22-7.79-2.09-1.59,.66h-.01Zm5.62-9.48l-4.18,7.05,.48,1.22,7.79,2.09,1.6-.66,4.18-7.05-.48-1.22-7.79-2.09-1.59,.66h-.01Zm5.62-9.48l-4.18,7.05,.48,1.22,7.79,2.09,1.6-.66,4.18-7.05-.48-1.22-7.79-2.09-1.59,.66h-.01Zm5.62-9.48l-4.18,7.05,.48,1.22,7.79,2.09,1.6-.66,4.18-7.05-.48-1.22-7.79-2.09-1.59,.66h-.01Zm5.62-9.48l-4.18,7.05,.48,1.22,7.79,2.09,1.6-.66,4.18-7.05-.48-1.22-7.79-2.09-1.59,.66h-.01Zm5.62-9.48l-4.18,7.05,.48,1.22,7.79,2.09,1.6-.66,4.18-7.05-.48-1.22-7.79-2.09-1.59,.66h-.01Zm5.62-9.48l-4.18,7.05,.48,1.22,7.79,2.09,1.6-.66,4.18-7.05-.48-1.22-7.79-2.09-1.59,.66h-.01Z" fill="#1c75bc"/>
        </g>
        <g>
          <polygon points="470.96 15.35 423.95 94.68 469.71 106.94 516.72 27.61 470.96 15.35" fill="#ebebeb"/>
          <path d="M432.13,85.26l-4.18,7.05,.48,1.22,7.79,2.09,1.6-.66,4.18-7.05-.48-1.22-7.79-2.09-1.59,.66h-.01Zm5.62-9.48l-4.18,7.05,.48,1.22,7.79,2.09,1.6-.66,4.18-7.05-.48-1.22-7.79-2.09-1.59,.66h-.01Zm5.62-9.48l-4.18,7.05,.48,1.22,7.79,2.09,1.6-.66,4.18-7.05-.48-1.22-7.79-2.09-1.59,.66h-.01Zm5.62-9.48l-4.18,7.05,.48,1.22,7.79,2.09,1.6-.66,4.18-7.05-.48-1.22-7.79-2.09-1.59,.66h-.01Zm5.62-9.48l-4.18,7.05,.48,1.22,7.79,2.09,1.6-.66,4.18-7.05-.48-1.22-7.79-2.09-1.59,.66h-.01Zm5.62-9.48l-4.18,7.05,.48,1.22,7.79,2.09,1.6-.66,4.18-7.05-.48-1.22-7.79-2.09-1.59,.66h-.01Zm5.62-9.48l-4.18,7.05,.48,1.22,7.79,2.09,1.6-.66,4.18-7.05-.48-1.22-7.79-2.09-1.59,.66h-.01Zm5.62-9.48l-4.18,7.05,.48,1.22,7.79,2.09,1.6-.66,4.18-7.05-.48-1.22-7.79-2.09-1.59,.66h-.01Zm-28.84,69.14l-4.18,7.05,.48,1.22,7.79,2.09,1.6-.66,4.18-7.05-.48-1.22-7.79-2.09-1.59,.66h-.01Zm5.62-9.48l-4.18,7.05,.48,1.22,7.79,2.09,1.6-.66,4.18-7.05-.48-1.22-7.79-2.09-1.59,.66h-.01Zm5.62-9.48l-4.18,7.05,.48,1.22,7.79,2.09,1.6-.66,4.18-7.05-.48-1.22-7.79-2.09-1.59,.66h-.01Zm5.62-9.48l-4.18,7.05,.48,1.22,7.79,2.09,1.6-.66,4.18-7.05-.48-1.22-7.79-2.09-1.59,.66h-.01Zm5.62-9.48l-4.18,7.05,.48,1.22,7.79,2.09,1.6-.66,4.18-7.05-.48-1.22-7.79-2.09-1.59,.66h-.01Zm5.62-9.48l-4.18,7.05,.48,1.22,7.79,2.09,1.6-.66,4.18-7.05-.48-1.22-7.79-2.09-1.59,.66h-.01Zm5.62-9.48l-4.18,7.05,.48,1.22,7.79,2.09,1.6-.66,4.18-7.05-.48-1.22-7.79-2.09-1.59,.66h-.01Zm5.62-9.48l-4.18,7.05,.48,1.22,7.79,2.09,1.6-.66,4.18-7.05-.48-1.22-7.79-2.09-1.59,.66h-.01Zm-28.84,69.14l-4.18,7.05,.48,1.22,7.79,2.09,1.6-.66,4.18-7.05-.48-1.22-7.79-2.09-1.59,.66h-.01Zm5.62-9.48l-4.18,7.05,.48,1.22,7.79,2.09,1.59-.66,4.18-7.05-.48-1.22-7.79-2.09-1.59,.66Zm5.62-9.48l-4.18,7.05,.48,1.22,7.79,2.09,1.6-.66,4.18-7.05-.48-1.22-7.79-2.09-1.59,.66h-.01Zm5.62-9.48l-4.18,7.05,.48,1.22,7.79,2.09,1.6-.66,4.18-7.05-.48-1.22-7.79-2.09-1.59,.66h-.01Zm5.62-9.48l-4.18,7.05,.48,1.22,7.79,2.09,1.6-.66,4.18-7.05-.48-1.22-7.79-2.09-1.59,.66h-.01Zm5.62-9.48l-4.18,7.05,.48,1.22,7.79,2.09,1.6-.66,4.18-7.05-.48-1.22-7.79-2.09-1.59,.66h-.01Zm5.62-9.48l-4.18,7.05,.48,1.22,7.79,2.09,1.6-.66,4.18-7.05-.48-1.22-7.79-2.09-1.59,.66h-.01Zm5.62-9.48l-4.18,7.05,.48,1.22,7.79,2.09,1.6-.66,4.18-7.05-.48-1.22-7.79-2.09-1.59,.66h-.01Zm-28.84,69.14l-4.18,7.05,.48,1.22,7.79,2.09,1.6-.66,4.18-7.05-.48-1.22-7.79-2.09-1.59,.66h-.01Zm5.62-9.48l-4.18,7.05,.48,1.22,7.79,2.09,1.6-.66,4.18-7.05-.48-1.22-7.79-2.09-1.59,.66h-.01Zm5.62-9.48l-4.18,7.05,.48,1.22,7.79,2.09,1.59-.66,4.18-7.05-.48-1.22-7.79-2.09-1.59,.66Zm5.62-9.48l-4.18,7.05,.48,1.22,7.79,2.09,1.6-.66,4.18-7.05-.48-1.22-7.79-2.09-1.59,.66h-.01Zm5.62-9.48l-4.18,7.05,.48,1.22,7.79,2.09,1.6-.66,4.18-7.05-.48-1.22-7.79-2.09-1.59,.66h-.01Zm5.62-9.48l-4.18,7.05,.48,1.22,7.79,2.09,1.6-.66,4.18-7.05-.48-1.22-7.79-2.09-1.59,.66h-.01Zm5.62-9.48l-4.18,7.05,.48,1.22,7.79,2.09,1.59-.66,4.18-7.05-.48-1.22-7.79-2.09-1.59,.66Zm5.62-9.48l-4.18,7.05,.48,1.22,7.79,2.09,1.6-.66,4.18-7.05-.48-1.22-7.79-2.09-1.59,.66h-.01Z" fill="#1c75bc"/>
        </g>
        <g>
          <polygon points="520.91 28.69 473.9 108.02 519.66 120.28 566.67 40.95 520.91 28.69" fill="#ebebeb"/>
          <path d="M482.08,98.6l-4.18,7.05,.48,1.22,7.79,2.09,1.6-.66,4.18-7.05-.48-1.22-7.79-2.09-1.59,.66h-.01Zm5.62-9.48l-4.18,7.05,.48,1.22,7.79,2.09,1.6-.66,4.18-7.05-.48-1.22-7.79-2.09-1.59,.66h-.01Zm5.62-9.48l-4.18,7.05,.48,1.22,7.79,2.09,1.6-.66,4.18-7.05-.48-1.22-7.79-2.09-1.59,.66h-.01Zm5.62-9.48l-4.18,7.05,.48,1.22,7.79,2.09,1.6-.66,4.18-7.05-.48-1.22-7.79-2.09-1.59,.66h-.01Zm5.62-9.48l-4.18,7.05,.48,1.22,7.79,2.09,1.6-.66,4.18-7.05-.48-1.22-7.79-2.09-1.59,.66h-.01Zm5.62-9.48l-4.18,7.05,.48,1.22,7.79,2.09,1.6-.66,4.18-7.05-.48-1.22-7.79-2.09-1.59,.66h0Zm5.62-9.48l-4.18,7.05,.48,1.22,7.79,2.09,1.6-.66,4.18-7.05-.48-1.22-7.79-2.09-1.59,.66h0Zm5.62-9.48l-4.18,7.05,.48,1.22,7.79,2.09,1.6-.66,4.18-7.05-.48-1.22-7.79-2.09-1.59,.66h0Zm-28.84,69.14l-4.18,7.05,.48,1.22,7.79,2.09,1.6-.66,4.18-7.05-.48-1.22-7.79-2.09-1.59,.66h-.01Zm5.62-9.48l-4.18,7.05,.48,1.22,7.79,2.09,1.6-.66,4.18-7.05-.48-1.22-7.79-2.09-1.59,.66h-.01Zm5.62-9.48l-4.18,7.05,.48,1.22,7.79,2.09,1.6-.66,4.18-7.05-.48-1.22-7.79-2.09-1.59,.66h-.01Zm5.62-9.48l-4.18,7.05,.48,1.22,7.79,2.09,1.6-.66,4.18-7.05-.48-1.22-7.79-2.09-1.59,.66h0Zm5.62-9.48l-4.18,7.05,.48,1.22,7.79,2.09,1.6-.66,4.18-7.05-.48-1.22-7.79-2.09-1.59,.66h-.01Zm5.62-9.48l-4.18,7.05,.48,1.22,7.79,2.09,1.6-.66,4.18-7.05-.48-1.22-7.79-2.09-1.59,.66h0Zm5.62-9.48l-4.18,7.05,.48,1.22,7.79,2.09,1.6-.66,4.18-7.05-.48-1.22-7.79-2.09-1.59,.66h0Zm5.62-9.48l-4.18,7.05,.48,1.22,7.79,2.09,1.6-.66,4.18-7.05-.48-1.22-7.79-2.09-1.59,.66h0Zm-28.84,69.14l-4.18,7.05,.48,1.22,7.79,2.09,1.59-.66,4.18-7.05-.48-1.22-7.79-2.09-1.59,.66h0Zm5.62-9.48l-4.18,7.05,.48,1.22,7.79,2.09,1.6-.66,4.18-7.05-.48-1.22-7.79-2.09-1.59,.66h0Zm5.62-9.48l-4.18,7.05,.48,1.22,7.79,2.09,1.6-.66,4.18-7.05-.48-1.22-7.79-2.09-1.59,.66h-.01Zm5.62-9.48l-4.18,7.05,.48,1.22,7.79,2.09,1.6-.66,4.18-7.05-.48-1.22-7.79-2.09-1.59,.66h0Zm5.62-9.48l-4.18,7.05,.48,1.22,7.79,2.09,1.59-.66,4.18-7.05-.48-1.22-7.79-2.09-1.59,.66Zm5.62-9.48l-4.18,7.05,.48,1.22,7.79,2.09,1.6-.66,4.18-7.05-.48-1.22-7.79-2.09-1.59,.66h0Zm5.62-9.48l-4.18,7.05,.48,1.22,7.79,2.09,1.6-.66,4.18-7.05-.48-1.22-7.79-2.09-1.59,.66h0Zm5.62-9.48l-4.18,7.05,.48,1.22,7.79,2.09,1.6-.66,4.18-7.05-.48-1.22-7.79-2.09-1.59,.66h0Zm-28.84,69.14l-4.18,7.05,.48,1.22,7.79,2.09,1.6-.66,4.18-7.05-.48-1.22-7.79-2.09-1.59,.66h-.01Zm5.62-9.48l-4.18,7.05,.48,1.22,7.79,2.09,1.59-.66,4.18-7.05-.48-1.22-7.79-2.09-1.59,.66Zm5.62-9.48l-4.18,7.05,.48,1.22,7.79,2.09,1.6-.66,4.18-7.05-.48-1.22-7.79-2.09-1.59,.66h0Zm5.62-9.48l-4.18,7.05,.48,1.22,7.79,2.09,1.6-.66,4.18-7.05-.48-1.22-7.79-2.09-1.59,.66h0Zm5.62-9.48l-4.18,7.05,.48,1.22,7.79,2.09,1.6-.66,4.18-7.05-.48-1.22-7.79-2.09-1.59,.66h0Zm5.62-9.48l-4.18,7.05,.48,1.22,7.79,2.09,1.59-.66,4.18-7.05-.48-1.22-7.79-2.09s-1.59,.66-1.59,.66Zm5.62-9.48l-4.18,7.05,.48,1.22,7.79,2.09,1.6-.66,4.18-7.05-.48-1.22-7.79-2.09-1.59,.66h0Zm5.62-9.48l-4.18,7.05,.48,1.22,7.79,2.09,1.6-.66,4.18-7.05-.48-1.22-7.79-2.09-1.59,.66h0Z" fill="#1c75bc"/>
        </g>
        <g>
          <polygon points="570.86 42.03 523.85 121.36 569.61 133.62 616.62 54.29 570.86 42.03" fill="#ebebeb"/>
          <path d="M532.03,111.93l-4.18,7.05,.48,1.22,7.79,2.09,1.6-.66,4.18-7.05-.48-1.22-7.79-2.09-1.59,.66h0Zm5.62-9.48l-4.18,7.05,.48,1.22,7.79,2.09,1.6-.66,4.18-7.05-.48-1.22-7.79-2.09-1.59,.66h0Zm5.62-9.48l-4.18,7.05,.48,1.22,7.79,2.09,1.6-.66,4.18-7.05-.48-1.22-7.79-2.09-1.59,.66h0Zm5.62-9.48l-4.18,7.05,.48,1.22,7.79,2.09,1.6-.66,4.18-7.05-.48-1.22-7.79-2.09-1.59,.66h0Zm5.62-9.48l-4.18,7.05,.48,1.22,7.79,2.09,1.6-.66,4.18-7.05-.48-1.22-7.79-2.09-1.59,.66h0Zm5.62-9.48l-4.18,7.05,.48,1.22,7.79,2.09,1.6-.66,4.18-7.05-.48-1.22-7.79-2.09-1.59,.66h0Zm5.62-9.48l-4.18,7.05,.48,1.22,7.79,2.09,1.6-.66,4.18-7.05-.48-1.22-7.79-2.09-1.59,.66h0Zm5.62-9.48l-4.18,7.05,.48,1.22,7.79,2.09,1.6-.66,4.18-7.05-.48-1.22-7.79-2.09-1.59,.66h0Zm-28.84,69.14l-4.18,7.05,.48,1.22,7.79,2.09,1.6-.66,4.18-7.05-.48-1.22-7.79-2.09-1.59,.66h0Zm5.62-9.48l-4.18,7.05,.48,1.22,7.79,2.09,1.6-.66,4.18-7.05-.48-1.22-7.79-2.09-1.59,.66h0Zm5.62-9.48l-4.18,7.05,.48,1.22,7.79,2.09,1.6-.66,4.18-7.05-.48-1.22-7.79-2.09-1.59,.66h0Zm5.62-9.48l-4.18,7.05,.48,1.22,7.79,2.09,1.6-.66,4.18-7.05-.48-1.22-7.79-2.09-1.59,.66h0Zm5.62-9.48l-4.18,7.05,.48,1.22,7.79,2.09,1.6-.66,4.18-7.05-.48-1.22-7.79-2.09-1.59,.66h0Zm5.62-9.48l-4.18,7.05,.48,1.22,7.79,2.09,1.6-.66,4.18-7.05-.48-1.22-7.79-2.09-1.59,.66h0Zm5.62-9.48l-4.18,7.05,.48,1.22,7.79,2.09,1.6-.66,4.18-7.05-.48-1.22-7.79-2.09-1.59,.66h0Zm5.62-9.48l-4.18,7.05,.48,1.22,7.79,2.09,1.6-.66,4.18-7.05-.48-1.22-7.79-2.09-1.59,.66h0Zm-28.84,69.14l-4.18,7.05,.48,1.22,7.79,2.09,1.6-.66,4.18-7.05-.48-1.22-7.79-2.09-1.59,.66h0Zm5.62-9.48l-4.18,7.05,.48,1.22,7.79,2.09,1.6-.66,4.18-7.05-.48-1.22-7.79-2.09-1.59,.66h0Zm5.62-9.48l-4.18,7.05,.48,1.22,7.79,2.09,1.6-.66,4.18-7.05-.48-1.22-7.79-2.09-1.59,.66h0Zm5.62-9.48l-4.18,7.05,.48,1.22,7.79,2.09,1.6-.66,4.18-7.05-.48-1.22-7.79-2.09-1.59,.66h0Zm5.62-9.48l-4.18,7.05,.48,1.22,7.79,2.09,1.6-.66,4.18-7.05-.48-1.22-7.79-2.09-1.59,.66h0Zm5.62-9.48l-4.18,7.05,.48,1.22,7.79,2.09,1.6-.66,4.18-7.05-.48-1.22-7.79-2.09-1.59,.66h0Zm5.62-9.48l-4.18,7.05,.48,1.22,7.79,2.09,1.59-.66,4.18-7.05-.48-1.22-7.79-2.09s-1.59,.66-1.59,.66Zm5.62-9.48l-4.18,7.05,.48,1.22,7.79,2.09,1.6-.66,4.18-7.05-.48-1.22-7.79-2.09-1.59,.66h0Zm-28.84,69.14l-4.18,7.05,.48,1.22,7.79,2.09,1.6-.66,4.18-7.05-.48-1.22-7.79-2.09-1.59,.66h0Zm5.62-9.48l-4.18,7.05,.48,1.22,7.79,2.09,1.59-.66,4.18-7.05-.48-1.22-7.79-2.09-1.59,.66Zm5.62-9.48l-4.18,7.05,.48,1.22,7.79,2.09,1.6-.66,4.18-7.05-.48-1.22-7.79-2.09-1.59,.66h0Zm5.62-9.48l-4.18,7.05,.48,1.22,7.79,2.09,1.59-.66,4.18-7.05-.48-1.22-7.79-2.09-1.59,.66Zm5.62-9.48l-4.18,7.05,.48,1.22,7.79,2.09,1.6-.66,4.18-7.05-.48-1.22-7.79-2.09-1.59,.66h0Zm5.62-9.48l-4.18,7.05,.48,1.22,7.79,2.09,1.6-.66,4.18-7.05-.48-1.22-7.79-2.09-1.59,.66h0Zm5.62-9.48l-4.18,7.05,.48,1.22,7.79,2.09,1.6-.66,4.18-7.05-.48-1.22-7.79-2.09-1.59,.66h0Zm5.62-9.48l-4.18,7.05,.48,1.22,7.79,2.09,1.6-.66,4.18-7.05-.48-1.22-7.79-2.09-1.59,.66h0Z" fill="#1c75bc"/>
        </g>
        <g>
          <polygon points="620.81 55.37 573.8 134.7 619.56 146.96 666.57 67.63 620.81 55.37" fill="#ebebeb"/>
          <path d="M581.98,125.27l-4.18,7.05,.48,1.22,7.79,2.09,1.6-.66,4.18-7.05-.48-1.22-7.79-2.09-1.59,.66h0Zm5.62-9.48l-4.18,7.05,.48,1.22,7.79,2.09,1.59-.66,4.18-7.05-.48-1.22-7.79-2.09-1.59,.66Zm5.62-9.48l-4.18,7.05,.48,1.22,7.79,2.09,1.6-.66,4.18-7.05-.48-1.22-7.79-2.09-1.59,.66h0Zm5.62-9.48l-4.18,7.05,.48,1.22,7.79,2.09,1.6-.66,4.18-7.05-.48-1.22-7.79-2.09-1.59,.66h0Zm5.62-9.48l-4.18,7.05,.48,1.22,7.79,2.09,1.6-.66,4.18-7.05-.48-1.22-7.79-2.09-1.59,.66h0Zm5.62-9.48l-4.18,7.05,.48,1.22,7.79,2.09,1.6-.66,4.18-7.05-.48-1.22-7.79-2.09-1.59,.66h0Zm5.62-9.48l-4.18,7.05,.48,1.22,7.79,2.09,1.6-.66,4.18-7.05-.48-1.22-7.79-2.09-1.59,.66h0Zm5.62-9.48l-4.18,7.05,.48,1.22,7.79,2.09,1.6-.66,4.18-7.05-.48-1.22-7.79-2.09-1.59,.66h0Zm-28.84,69.14l-4.18,7.05,.48,1.22,7.79,2.09,1.6-.66,4.18-7.05-.48-1.22-7.79-2.09-1.59,.66h0Zm5.62-9.48l-4.18,7.05,.48,1.22,7.79,2.09,1.6-.66,4.18-7.05-.48-1.22-7.79-2.09-1.59,.66h0Zm5.62-9.48l-4.18,7.05,.48,1.22,7.79,2.09,1.6-.66,4.18-7.05-.48-1.22-7.79-2.09-1.59,.66h0Zm5.62-9.48l-4.18,7.05,.48,1.22,7.79,2.09,1.6-.66,4.18-7.05-.48-1.22-7.79-2.09-1.59,.66h0Zm5.62-9.48l-4.18,7.05,.48,1.22,7.79,2.09,1.6-.66,4.18-7.05-.48-1.22-7.79-2.09-1.59,.66h0Zm5.62-9.48l-4.18,7.05,.48,1.22,7.79,2.09,1.6-.66,4.18-7.05-.48-1.22-7.79-2.09-1.59,.66h0Zm5.62-9.48l-4.18,7.05,.48,1.22,7.79,2.09,1.6-.66,4.18-7.05-.48-1.22-7.79-2.09-1.59,.66h0Zm5.62-9.48l-4.18,7.05,.48,1.22,7.79,2.09,1.6-.66,4.18-7.05-.48-1.22-7.79-2.09-1.59,.66h0Zm-28.84,69.14l-4.18,7.05,.48,1.22,7.79,2.09,1.6-.66,4.18-7.05-.48-1.22-7.79-2.09-1.59,.66h0Zm5.62-9.48l-4.18,7.05,.48,1.22,7.79,2.09,1.59-.66,4.18-7.05-.48-1.22-7.79-2.09-1.59,.66Zm5.62-9.48l-4.18,7.05,.48,1.22,7.79,2.09,1.6-.66,4.18-7.05-.48-1.22-7.79-2.09-1.59,.66h0Zm5.62-9.48l-4.18,7.05,.48,1.22,7.79,2.09,1.6-.66,4.18-7.05-.48-1.22-7.79-2.09-1.59,.66h0Zm5.62-9.48l-4.18,7.05,.48,1.22,7.79,2.09,1.6-.66,4.18-7.05-.48-1.22-7.79-2.09-1.59,.66h0Zm5.62-9.48l-4.18,7.05,.48,1.22,7.79,2.09,1.59-.66,4.18-7.05-.48-1.22-7.79-2.09-1.59,.66Zm5.62-9.48l-4.18,7.05,.48,1.22,7.79,2.09,1.6-.66,4.18-7.05-.48-1.22-7.79-2.09-1.59,.66h0Zm5.62-9.48l-4.18,7.05,.48,1.22,7.79,2.09,1.6-.66,4.18-7.05-.48-1.22-7.79-2.09-1.59,.66h0Zm-28.84,69.14l-4.18,7.05,.48,1.22,7.79,2.09,1.59-.66,4.18-7.05-.48-1.22-7.79-2.09-1.59,.66Zm5.62-9.48l-4.18,7.05,.48,1.22,7.79,2.09,1.6-.66,4.18-7.05-.48-1.22-7.79-2.09-1.59,.66h0Zm5.62-9.48l-4.18,7.05,.48,1.22,7.79,2.09,1.6-.66,4.18-7.05-.48-1.22-7.79-2.09-1.59,.66h0Zm5.62-9.48l-4.18,7.05,.48,1.22,7.79,2.09,1.6-.66,4.18-7.05-.48-1.22-7.79-2.09-1.59,.66h0Zm5.62-9.48l-4.18,7.05,.48,1.22,7.79,2.09,1.6-.66,4.18-7.05-.48-1.22-7.79-2.09-1.59,.66h0Zm5.62-9.48l-4.18,7.05,.48,1.22,7.79,2.09,1.6-.66,4.18-7.05-.48-1.22-7.79-2.09-1.59,.66h0Zm5.62-9.48l-4.18,7.05,.48,1.22,7.79,2.09,1.6-.66,4.18-7.05-.48-1.22-7.79-2.09-1.59,.66h0Zm5.62-9.48l-4.18,7.05,.48,1.22,7.79,2.09,1.6-.66,4.18-7.05-.48-1.22-7.79-2.09-1.59,.66h0Z" fill="#1c75bc"/>
        </g>
        <polygon points="672.59 67.53 370.62 84.59 419.88 0 672.59 67.53" fill="#fff" isolation="isolate" opacity=".2"/>
      </g>
      <polygon points="856.88 568.43 483.2 668.56 856.88 339.65 856.88 568.43" fill="#242b52" isolation="isolate" opacity=".1"/>
      <g>
        <polygon points="869.15 371.6 573.72 450.75 573.72 463.33 869.15 384.18 869.15 371.6" fill="#9fa8b6"/>
        <polygon points="869.15 371.6 573.72 450.75 483.2 426.49 778.63 347.34 869.15 371.6" fill="#303a66"/>
        <polygon points="483.2 426.49 483.2 439.07 573.72 463.33 573.72 450.75 483.2 426.49" fill="#e6e7e8"/>
      </g>
      <polygon points="29.51 361.49 403.18 232.84 29.51 132.72 29.51 361.49" fill="#fff" isolation="isolate" opacity=".2"/>
    </g>
    <g>
      <g>
        <path d="M596.97,697.67c0,6.72-16.54,12.17-36.95,12.17s-36.95-5.45-36.95-12.17,16.54-12.16,36.95-12.16,36.95,5.45,36.95,12.16Z" fill="#242b52" isolation="isolate" opacity=".2"/>
        <path d="M580.65,698.31c0,4.48-12.41,8.11-27.72,8.11s-27.71-3.63-27.71-8.11,12.41-8.11,27.71-8.11,27.72,3.63,27.72,8.11Z" fill="#242b52" isolation="isolate" opacity=".2"/>
      </g>
      <g>
        <path d="M560.43,648.63c.11-3.61,.12-6.45-.18-10.98,10.13-3.48,16-31.53,16-31.53-7.63,16.39-13.75,24.8-16.91,25.68-.36-3.53-.81-11.9-1-15.41-.17-3.12-.37-6.05-.78-8.49-.65-3.83,1.3-21.06-.42-22.68,0,0-3.18,25.21-4.52,22.41-4.18-8.75-6.46-10.09-11.42-17.51-.62-.93,11.44,24.6,11.31,26.04-.5,5.76-1.15,14.1-1.96,26.18-3.76-2.11-9.52-6.19-12.7-8.91,2.19-7.45-4.84-22.1-4.84-22.1,.21,7.89,3.24,18.4,1.81,19.37-3.09-3.67-18.59-15.25-22.25-20.02,0,0,21.67,28.45,37.41,39.43-.73,9.23-1.02,24.44-1.4,27.4-.8,6.16-2.02,13.28-3.27,18.67-.95,1.11,5,4.72,10.5,3.76,5.06-.89,8.72-1.43,7.86-3.76-.3-2.67-.98-5.22-1.04-8.08-.12-5.68-.28-25.69-.94-29.67,22.88-11.38,42.08-38.78,42.08-38.78-16.44,16.08-36.51,28.46-43.35,29v-.02Z" fill="#43596d"/>
        <g clip-path="url(#c)">
          <g>
            <path d="M549.99,650.09s2.45,5.42,2.45,8.55,.78,24.22,0,26.17-2.45,21.09-2.45,21.09c0,0-1.2-23.33-1.4-28.42-.14-3.59,1.4-27.4,1.4-27.4h0Z" fill="#ffde96" isolation="isolate" opacity=".13"/>
            <path d="M558.18,704.73s-1.84-12.11-1.06-19.14,2.34-8.2,1.17-17.97c-1.17-9.77-2.73-19.14-2.34-24.22,.39-5.08,.39-17.58,.39-17.58l3.91,11.82s-.79-2.84,2.73-4.79,5.08,0,5.08,0l-7.63,15.77s-.97,6.1,.59,5.32c1.56-.78,8.2-1.95,11.33-3.91,3.13-1.95,10.16-1.17,5.86,.39s-14.84,23.44-14.84,25.39-1.17,17.97-.78,23.83c.39,5.86-4.41,5.08-4.41,5.08h0Z" fill="#2f1d00" isolation="isolate" opacity=".2"/>
            <path d="M538.76,650.43s6.64-3.52,7.81-3.91c1.17-.39,5.47,.39,5.86,2.34s3.91,8.98,5.86,8.2,1.95-7.42,4.69-9.38c2.73-1.95,10.94-2.73,14.06-.78s34.77-14.06,34.77-14.06c0,0-2.34-52.35-3.91-52.35s-69.92,1.17-69.92,1.17l-10.16,47.27,10.94,21.49h0Z" fill="#2f1d00" isolation="isolate" opacity=".2"/>
          </g>
        </g>
      </g>
      <g>
        <path d="M625.1,627.76c6.99-5.18,11.54-13.48,11.54-22.89,0-10.25-5.4-19.2-13.48-24.21-.3-19.43-15.45-35.34-34.62-35.88-4.55-.13-8.91,.66-12.96,2.14-1.14-18.64-15.99-33.63-34.58-34.15-19.7-.55-36.12,15.35-36.69,35.53-.23,8.26,2.28,15.93,6.62,22.18l-.06,.12c-16.97,2.41-30.27,17.03-30.78,35.14-.08,2.75,.17,5.43,.66,8.02-3.57,5.55-3.04,13.09,1.76,18.25,2.56,2.76,5.89,4.33,9.31,4.74,1.69,14.08,13.58,24.99,28.02,24.99,12.87,0,23.71-8.66,27.12-20.51,6.06,2,12.97,1.4,18.9-2.19,6.08,5.7,14.1,9.29,23,9.54,6.11,.17,11.9-1.25,17.01-3.88,2.35,2.84,5.88,4.65,9.85,4.65,7.08,0,12.83-5.75,12.83-12.85,0-3.38-1.31-6.45-3.45-8.74h0Z" fill="#00c48b"/>
        <path d="M535.55,523.57c16.44-3.74,23.04-.47,33.67,4.77-6.25-9.14-16.49-15.24-28.22-15.57-19.7-.55-36.12,15.35-36.69,35.53-.23,8.26,2.28,15.93,6.62,22.18l-.06,.12c-16.97,2.41-30.27,17.03-30.78,35.14-.05,1.8,.05,3.56,.25,5.28,3.1-6.87,17.53-32.36,38.25-27.64,12.63,2.88,15.29,2.43,22.13-2.14,2.51-1.67,.1-2.63-10.36-5.88-22.69-7.07-25.9-44.74,5.18-51.8h.01Z" fill="#f1f3be" isolation="isolate" opacity=".3"/>
        <path d="M560.5,553.71c-3.76,5.18,.54,5.51,10.6,2.82,5.82-1.55,16.97-4.07,26.96-3.28,3.66,.29,12.3,2.26,14.78,2.31-6.21-6.43-14.76-10.51-24.3-10.78-4.55-.13-8.91,.66-12.96,2.14,0,0-11.31,1.6-15.08,6.78h0Z" fill="#f1f3be" isolation="isolate" opacity=".3"/>
        <g opacity=".5">
          <path d="M636.63,604.87c0-10.25-5.4-19.2-13.48-24.21-.05-3.36-.57-6.61-1.46-9.7-1.77,2.93-4.57,5.91-8.92,7.23-9.9,2.99-3.77,8.16-3.77,8.16,0,0,13.17,22.74-8.48,35.79-9.13,5.51-22.73,6.63-34.22,3.92-13.68-3.22-25.11-20.73-25.11-20.73,0,0,2.19,24.81-22.61,31.56-11.74,3.19-23.73-8.5-23.73-8.5,0,0-1.71,.65-8.3,.82-2.34,.07-4.36,.08-6.02,.08,.56,.95,1.19,1.87,1.97,2.71,2.56,2.76,5.89,4.33,9.31,4.74,1.69,14.08,13.58,24.99,28.02,24.99,12.87,0,23.71-8.66,27.12-20.51,6.06,2,12.97,1.4,18.9-2.19,6.08,5.7,14.1,9.29,23,9.54,6.11,.17,11.9-1.25,17.01-3.88,2.35,2.84,5.88,4.65,9.85,4.65,7.08,0,12.83-5.75,12.83-12.85,0-3.38-1.31-6.45-3.45-8.74,6.99-5.18,11.54-13.48,11.54-22.89h0Z" fill="#005a56" isolation="isolate" opacity=".71"/>
          <path d="M605.79,609.1c0,4.26-3.46,7.72-7.73,7.72s-7.73-3.46-7.73-7.72,3.46-7.73,7.73-7.73,7.73,3.46,7.73,7.73Z" fill="#005a56" isolation="isolate" opacity=".71"/>
          <path d="M590.05,616.82c0,2.71-2.19,4.91-4.9,4.91s-4.91-2.2-4.91-4.91,2.19-4.9,4.91-4.9,4.9,2.19,4.9,4.9Z" fill="#005a56" isolation="isolate" opacity=".71"/>
          <path d="M512.58,625.02c0,2.71-2.19,4.9-4.9,4.9s-4.9-2.19-4.9-4.9,2.19-4.9,4.9-4.9,4.9,2.19,4.9,4.9Z" fill="#005a56" isolation="isolate" opacity=".71"/>
          <path d="M602.96,596.64c0,1.99-1.61,3.61-3.6,3.61s-3.6-1.62-3.6-3.61,1.61-3.6,3.6-3.6,3.6,1.61,3.6,3.6Z" fill="#005a56" isolation="isolate" opacity=".71"/>
          <path d="M519.79,616.36c0,1.99-1.62,3.6-3.6,3.6s-3.6-1.61-3.6-3.6,1.61-3.6,3.6-3.6,3.6,1.61,3.6,3.6Z" fill="#005a56" isolation="isolate" opacity=".71"/>
        </g>
        <path d="M531.85,539.87c0,2.71-2.2,4.9-4.9,4.9s-4.9-2.2-4.9-4.9,2.19-4.9,4.9-4.9,4.9,2.19,4.9,4.9Z" fill="#f1f3be" isolation="isolate" opacity=".3"/>
        <path d="M518.78,593.04c0,4.42-3.59,7.99-8,7.99s-8-3.58-8-7.99,3.58-7.99,8-7.99,8,3.58,8,7.99Z" fill="#f1f3be" isolation="isolate" opacity=".3"/>
        <path d="M534.49,530.97c0,1.27-1.03,2.3-2.3,2.3s-2.3-1.03-2.3-2.3,1.03-2.31,2.3-2.31,2.3,1.03,2.3,2.31Z" fill="#f1f3be" isolation="isolate" opacity=".3"/>
        <path d="M559.84,561.9c0,1.27-1.03,2.3-2.3,2.3s-2.31-1.03-2.31-2.3,1.03-2.31,2.31-2.31,2.3,1.04,2.3,2.31Z" fill="#f1f3be" isolation="isolate" opacity=".3"/>
      </g>
    </g>
  </g>
</svg>