<svg width="24" height="38" viewBox="0 0 24 38" fill="none" xmlns="http://www.w3.org/2000/svg">
<path d="M9.05997 36.83C8.33997 36.68 7.71997 36.21 7.36997 35.56C7.18997 35.19 7.09997 34.7901 7.10997 34.3801V30.97C7.13997 30.8 7.05997 30.63 6.89997 30.55C6.33997 30.28 5.95997 29.7501 5.88997 29.1401C5.16997 25.0601 3.90997 21.1 2.13997 17.35C1.61997 16.3001 1.23997 15.1901 1.02997 14.0401C0.559974 11.1701 1.25997 8.22003 2.95997 5.86003C4.52997 3.59003 6.90997 2.01006 9.60997 1.45006C12.27 0.830056 15.07 1.25004 17.44 2.62004C19.87 3.95004 21.69 6.17005 22.53 8.82005C23.39 11.2801 23.3 13.97 22.27 16.36C20.87 19.39 19.71 22.5201 18.81 25.7301C18.53 26.8101 18.31 27.9 18.13 29C18.06 29.67 17.66 30.2601 17.06 30.5701C16.92 30.6401 16.85 30.79 16.87 30.94V34.21C16.87 35.64 16.41 36.26 14.92 36.83H9.06997H9.05997ZM11.99 15.46C15.08 15.48 18.16 15.33 21.23 15.1C21.52 15.08 21.69 15.0101 21.76 14.6701C22.05 13.4401 22.11 12.16 21.93 10.91C21.55 7.71005 19.6 4.91006 16.72 3.45006C13.27 1.49006 8.97997 1.83004 5.88997 4.31004C2.70997 6.71004 1.25997 10.7701 2.18997 14.6401C2.20997 14.9201 2.44997 15.13 2.72997 15.11C5.80997 15.34 8.88997 15.49 11.97 15.47M2.73997 16.15C2.82997 16.37 2.88997 16.5201 2.94997 16.6701C4.77997 20.5501 6.10997 24.65 6.87997 28.87C6.98997 29.55 7.30997 29.7901 7.99997 29.7901H15.93C16.46 29.8801 16.95 29.53 17.04 29C17.04 28.96 17.05 28.91 17.05 28.87C17.33 27.19 17.72 25.53 18.21 23.9C19.01 21.4 19.95 18.9401 21.03 16.5401C21.11 16.4301 21.14 16.29 21.13 16.15C15.01 16.64 8.84997 16.64 2.72997 16.15M8.21997 34.8901C8.33997 35.4001 8.77997 35.7701 9.30997 35.7901C11.07 35.8001 12.84 35.8001 14.6 35.7901C15.13 35.7901 15.58 35.4101 15.69 34.8901H11.83C11.6 34.9001 11.39 34.7601 11.32 34.5401C11.24 34.3501 11.29 34.13 11.45 34C11.59 33.88 11.78 33.8201 11.97 33.8501H15.07C15.81 33.8501 15.8 33.85 15.82 33.12C15.83 32.8 15.74 32.72 15.42 32.72C14.27 32.74 13.12 32.73 11.97 32.72C11.56 32.72 11.34 32.56 11.29 32.27C11.24 31.94 11.49 31.69 11.9 31.69C13.08 31.69 14.27 31.67 15.45 31.69C15.79 31.69 15.84 31.5701 15.81 31.2901C15.79 31.0401 15.87 30.8101 15.45 30.8201C13.2 30.8401 10.95 30.82 8.69997 30.83C8.05997 30.83 8.15997 30.7 8.13997 31.4C8.13997 31.61 8.18997 31.69 8.40997 31.68C8.72997 31.66 9.05997 31.67 9.37997 31.68C9.65997 31.68 9.88997 31.91 9.87997 32.19C9.87997 32.44 9.69997 32.65 9.44997 32.69C9.29997 32.71 9.14997 32.72 8.99997 32.71C8.39331 32.71 8.10664 33.0067 8.13997 33.6001V33.6301C8.11997 33.7801 8.18997 33.83 8.33997 33.83C8.64997 33.83 8.96997 33.83 9.27997 33.83C9.65997 33.83 9.88997 34.0401 9.88997 34.3501C9.88997 34.6601 9.65997 34.86 9.27997 34.87C8.93997 34.87 8.58997 34.87 8.23997 34.87" fill="#000F52"/>
<path d="M11.99 15.46C15.08 15.48 18.16 15.33 21.23 15.1C21.52 15.08 21.69 15.0101 21.76 14.6701C22.05 13.4401 22.11 12.16 21.93 10.91C21.55 7.71005 19.6 4.91006 16.72 3.45006C13.27 1.49006 8.97997 1.83004 5.88997 4.31004C2.70997 6.71004 1.25997 10.7701 2.18997 14.6401C2.20997 14.9201 2.44997 15.13 2.72997 15.11C5.80997 15.34 8.88997 15.49 11.97 15.47M2.73997 16.15C2.82997 16.37 2.88997 16.5201 2.94997 16.6701C4.77997 20.5501 6.10997 24.65 6.87997 28.87C6.98997 29.55 7.30997 29.7901 7.99997 29.7901H15.93C16.46 29.8801 16.95 29.53 17.04 29C17.04 28.96 17.05 28.91 17.05 28.87C17.33 27.19 17.72 25.53 18.21 23.9C19.01 21.4 19.95 18.9401 21.03 16.5401C21.11 16.4301 21.14 16.29 21.13 16.15C15.01 16.64 8.84997 16.64 2.72997 16.15M8.21997 34.8901C8.33997 35.4001 8.77997 35.7701 9.30997 35.7901C11.07 35.8001 12.84 35.8001 14.6 35.7901C15.13 35.7901 15.58 35.4101 15.69 34.8901H11.83C11.6 34.9001 11.39 34.7601 11.32 34.5401C11.24 34.3501 11.29 34.13 11.45 34C11.59 33.88 11.78 33.8201 11.97 33.8501H15.07C15.81 33.8501 15.8 33.85 15.82 33.12C15.83 32.8 15.74 32.72 15.42 32.72C14.27 32.74 13.12 32.73 11.97 32.72C11.56 32.72 11.34 32.56 11.29 32.27C11.24 31.94 11.49 31.69 11.9 31.69C13.08 31.69 14.27 31.67 15.45 31.69C15.79 31.69 15.84 31.5701 15.81 31.2901C15.79 31.0401 15.87 30.8101 15.45 30.8201C13.2 30.8401 10.95 30.82 8.69997 30.83C8.05997 30.83 8.15997 30.7 8.13997 31.4C8.13997 31.61 8.18997 31.69 8.40997 31.68C8.72997 31.66 9.05997 31.67 9.37997 31.68C9.65997 31.68 9.88997 31.91 9.87997 32.19C9.87997 32.44 9.69997 32.65 9.44997 32.69C9.29997 32.71 9.14997 32.72 8.99997 32.71C8.39331 32.71 8.10664 33.0067 8.13997 33.6001V33.6301C8.11997 33.7801 8.18997 33.83 8.33997 33.83C8.64997 33.83 8.96997 33.83 9.27997 33.83C9.65997 33.83 9.88997 34.0401 9.88997 34.3501C9.88997 34.6601 9.65997 34.86 9.27997 34.87C8.93997 34.87 8.58997 34.87 8.23997 34.87M9.05997 36.83C8.33997 36.68 7.71997 36.21 7.36997 35.56C7.18997 35.19 7.09997 34.7901 7.10997 34.3801V30.97C7.13997 30.8 7.05997 30.63 6.89997 30.55C6.33997 30.28 5.95997 29.7501 5.88997 29.1401C5.16997 25.0601 3.90997 21.1 2.13997 17.35C1.61997 16.3001 1.23997 15.1901 1.02997 14.0401C0.559974 11.1701 1.25997 8.22003 2.95997 5.86003C4.52997 3.59003 6.90997 2.01006 9.60997 1.45006C12.27 0.830056 15.07 1.25004 17.44 2.62004C19.87 3.95004 21.69 6.17005 22.53 8.82005C23.39 11.2801 23.3 13.97 22.27 16.36C20.87 19.39 19.71 22.5201 18.81 25.7301C18.53 26.8101 18.31 27.9 18.13 29C18.06 29.67 17.66 30.2601 17.06 30.5701C16.92 30.6401 16.85 30.79 16.87 30.94V34.21C16.87 35.64 16.41 36.26 14.92 36.83H9.06997H9.05997Z" stroke="#0C233D" stroke-width="0.5"/>
<path d="M6.4199 19.9201C6.4199 19.5601 6.5999 19.3201 6.8699 19.3001C7.1499 19.2701 7.4099 19.4701 7.4399 19.7501C7.6099 20.4801 7.7699 21.2201 7.9299 21.9501C8.2299 23.2801 8.5199 24.6201 8.8099 25.9501C8.8199 26.0001 8.8299 26.0401 8.8399 26.0901C8.9199 26.3701 8.7499 26.6601 8.4699 26.7301C8.4699 26.7301 8.4699 26.7301 8.4599 26.7301C8.1799 26.8001 7.8999 26.6301 7.8299 26.3501C7.8299 26.3301 7.8299 26.3101 7.8199 26.2901C7.6699 25.6601 7.5399 25.0201 7.3899 24.3901C7.0799 22.9701 6.7599 21.5401 6.4499 20.1201C6.4299 20.0301 6.4099 19.9401 6.3999 19.9101" fill="#000F52"/>
<path d="M6.4199 19.9201C6.4199 19.5601 6.5999 19.3201 6.8699 19.3001C7.1499 19.2701 7.4099 19.4701 7.4399 19.7501C7.6099 20.4801 7.7699 21.2201 7.9299 21.9501C8.2299 23.2801 8.5199 24.6201 8.8099 25.9501C8.8199 26.0001 8.8299 26.0401 8.8399 26.0901C8.9199 26.3701 8.7499 26.6601 8.4699 26.7301C8.4699 26.7301 8.4699 26.7301 8.4599 26.7301C8.1799 26.8001 7.8999 26.6301 7.8299 26.3501C7.8299 26.3301 7.8299 26.3101 7.8199 26.2901C7.6699 25.6601 7.5399 25.0201 7.3899 24.3901C7.0799 22.9701 6.7599 21.5401 6.4499 20.1201C6.4299 20.0301 6.4099 19.9401 6.3999 19.9101" stroke="#0C233D" stroke-width="0.5"/>
<path d="M15.0501 26.1201C15.2001 25.4401 15.3701 24.7001 15.5301 23.9501C15.8301 22.5901 16.1301 21.2401 16.4301 19.8801C16.4301 19.8501 16.4301 19.8101 16.4501 19.7801C16.4901 19.4801 16.7701 19.2701 17.0701 19.3101C17.3601 19.3701 17.5401 19.6601 17.4801 19.9501C17.4801 19.9701 17.4701 19.9901 17.4601 20.0101C17.2901 20.8301 17.1001 21.6401 16.9201 22.4501C16.6401 23.7001 16.3601 24.9601 16.0801 26.2101C16.0701 26.2701 16.0501 26.3201 16.0301 26.3801C15.9701 26.6401 15.7101 26.8001 15.4501 26.7501C15.4501 26.7501 15.4501 26.7501 15.4401 26.7501C15.1501 26.6901 15.0201 26.4901 15.0301 26.1201" fill="#000F52"/>
<path d="M15.0501 26.1201C15.2001 25.4401 15.3701 24.7001 15.5301 23.9501C15.8301 22.5901 16.1301 21.2401 16.4301 19.8801C16.4301 19.8501 16.4301 19.8101 16.4501 19.7801C16.4901 19.4801 16.7701 19.2701 17.0701 19.3101C17.3601 19.3701 17.5401 19.6601 17.4801 19.9501C17.4801 19.9701 17.4701 19.9901 17.4601 20.0101C17.2901 20.8301 17.1001 21.6401 16.9201 22.4501C16.6401 23.7001 16.3601 24.9601 16.0801 26.2101C16.0701 26.2701 16.0501 26.3201 16.0301 26.3801C15.9701 26.6401 15.7101 26.8001 15.4501 26.7501C15.4501 26.7501 15.4501 26.7501 15.4401 26.7501C15.1501 26.6901 15.0201 26.4901 15.0301 26.1201" stroke="#0C233D" stroke-width="0.5"/>
<path d="M11.2699 26.2101C11.2799 26.4901 11.0699 26.7401 10.7899 26.7601C10.5099 26.7901 10.2599 26.58 10.2399 26.3C10.2399 26.27 10.2399 26.2501 10.2399 26.2201C10.0999 24.4201 9.96987 22.6201 9.82987 20.8201C9.80987 20.5201 9.76987 20.2201 9.75987 19.9201C9.70987 19.6301 9.90987 19.35 10.1999 19.3C10.2199 19.3 10.2399 19.3 10.2699 19.3C10.5699 19.3 10.8099 19.56 10.7999 19.86C10.7999 19.86 10.7999 19.8701 10.7999 19.8801C10.9199 21.4701 11.0299 23.0701 11.1499 24.6601C11.1899 25.1701 11.2299 25.6801 11.2699 26.2101Z" fill="#000F52" stroke="#0C233D" stroke-width="0.5"/>
<path d="M14.14 19.9701C13.98 22.0601 13.83 24.0901 13.68 26.1301C13.68 26.1601 13.68 26.2001 13.68 26.2301C13.63 26.5901 13.42 26.7801 13.12 26.7601C12.83 26.7301 12.62 26.4801 12.64 26.1901C12.64 26.1701 12.64 26.1601 12.64 26.1401C12.73 24.8601 12.83 23.5801 12.92 22.3001C12.98 21.5001 13.04 20.7101 13.1 19.9101C13.13 19.5301 13.34 19.3001 13.64 19.3101C13.96 19.3101 14.15 19.5701 14.14 19.9701C14.14 19.9901 14.14 20.0201 14.14 19.9801Z" fill="#000F52"/>
<path d="M14.14 19.9701C13.98 22.0601 13.83 24.0901 13.68 26.1301C13.68 26.1601 13.68 26.2001 13.68 26.2301C13.63 26.5901 13.42 26.7801 13.12 26.7601C12.83 26.7301 12.62 26.4801 12.64 26.1901C12.64 26.1701 12.64 26.1601 12.64 26.1401C12.73 24.8601 12.83 23.5801 12.92 22.3001C12.98 21.5001 13.04 20.7101 13.1 19.9101C13.13 19.5301 13.34 19.3001 13.64 19.3101C13.96 19.3101 14.15 19.5701 14.14 19.9701ZM14.14 19.9701C14.14 19.9901 14.14 20.0201 14.14 19.9801" stroke="#0C233D" stroke-width="0.5"/>
</svg>
