<svg width="30" height="30" viewBox="0 0 30 30" fill="none" xmlns="http://www.w3.org/2000/svg">
<path opacity="0.5" d="M5 12.093C5 6.79494 9.19733 2.5 14.375 2.5C19.5527 2.5 23.75 6.79494 23.75 12.093C23.75 14.9335 22.5425 17.4865 20.6268 19.2417C19.9883 19.8268 19.5152 20.2602 19.18 20.5747C19.0124 20.7319 18.8842 20.8548 18.7896 20.9491C18.7425 20.996 18.7064 21.0332 18.6796 21.0621C18.6663 21.0763 18.6563 21.0874 18.649 21.0957C18.6416 21.1042 18.6385 21.1081 18.6385 21.1081C18.3429 21.4814 18.2789 21.5777 18.2408 21.6649C18.2027 21.7522 18.1752 21.8652 18.1006 22.3396C18.0712 22.5269 18.0682 22.8477 18.0682 23.7209V23.7584C18.0682 24.2698 18.0682 24.7109 18.0362 25.0729C18.0023 25.4556 17.9272 25.8346 17.7256 26.1919C17.5012 26.5896 17.1785 26.9199 16.7898 27.1495C16.4407 27.3557 16.0703 27.4325 15.6962 27.4672C15.3425 27.5 14.9114 27.5 14.4116 27.5H14.3384C13.8386 27.5 13.4075 27.5 13.0538 27.4672C12.6797 27.4325 12.3093 27.3557 11.9602 27.1495C11.5715 26.9199 11.2488 26.5896 11.0244 26.1919C10.8228 25.8346 10.7477 25.4556 10.7138 25.0729C10.6818 24.7109 10.6818 24.2698 10.6818 23.7584L10.6818 23.7209C10.6818 22.8477 10.6788 22.5269 10.6494 22.3396C10.5748 21.8652 10.5473 21.7522 10.5092 21.6649C10.4711 21.5777 10.4071 21.4814 10.1115 21.1081C10.1115 21.1081 10.1081 21.1038 10.101 21.0957C10.0937 21.0874 10.0837 21.0763 10.0704 21.0621C10.0436 21.0332 10.0075 20.996 9.96037 20.9491C9.86578 20.8548 9.73763 20.7319 9.57001 20.5747C9.23478 20.2602 8.76175 19.8268 8.12324 19.2417C6.20753 17.4865 5 14.9335 5 12.093Z" fill="#000F52"/>
<path d="M16.3564 24.5935H12.3938C12.3975 24.7147 12.4031 24.8206 12.4115 24.9159C12.4347 25.1777 12.4738 25.2728 12.5007 25.3203C12.5755 25.4529 12.683 25.563 12.8126 25.6395C12.859 25.6669 12.9519 25.707 13.2078 25.7307C13.4753 25.7555 13.8284 25.7563 14.3751 25.7563C14.9218 25.7563 15.2749 25.7555 15.5424 25.7307C15.7983 25.707 15.8912 25.6669 15.9376 25.6395C16.0672 25.563 16.1748 25.4529 16.2496 25.3203C16.2764 25.2728 16.3155 25.1777 16.3387 24.9159C16.3471 24.8206 16.3527 24.7147 16.3564 24.5935Z" fill="#000F52"/>
<path d="M15.7632 10.2211C16.1462 10.5011 16.2349 11.0457 15.9613 11.4376L14.4889 13.547H16.2418C16.5611 13.547 16.8536 13.7296 16.9996 14.0201C17.1457 14.3105 17.1209 14.6602 16.9354 14.926L14.5003 18.4144C14.2267 18.8063 13.6944 18.8971 13.3114 18.6172C12.9284 18.3372 12.8397 17.7925 13.1132 17.4006L14.5857 15.2912H12.8327C12.5135 15.2912 12.221 15.1086 12.0749 14.8182C11.9288 14.5277 11.9537 14.1781 12.1392 13.9122L14.5743 10.4239C14.8479 10.0319 15.3802 9.94115 15.7632 10.2211Z" fill="#000F52"/>
</svg>
