<?xml version="1.0" encoding="UTF-8"?>
<svg version="1.1" xmlns="http://www.w3.org/2000/svg" width="512" height="512">
<path d="M0 0 C10.55807627 9.19085396 19.18419435 19.35116531 26.75 31.125 C27.35457031 32.04410156 27.95914063 32.96320313 28.58203125 33.91015625 C47.30977322 63.967548 51.77695241 100.83347223 44.75 135.125 C37.79658285 164.85820347 20.8453783 190.06556001 -1.92285156 210.02929688 C-8.7883781 216.14237871 -10.90354269 222.22596217 -11.43261719 231.234375 C-11.55825656 235.88168071 -11.62016768 240.52685618 -11.640625 245.17578125 C-11.81416568 253.76604475 -12.99614607 260.27175193 -18.625 266.9375 C-26.05 273.125 -26.05 273.125 -29.25 273.125 C-29.20359375 274.17558594 -29.1571875 275.22617187 -29.109375 276.30859375 C-28.69382902 289.93720317 -28.69382902 289.93720317 -32.375 296.328125 C-33.5418716 298.3912799 -33.5418716 298.3912799 -33.25 302.125 C-32.38350534 304.10830173 -32.38350534 304.10830173 -31.25 306.125 C-28.07341339 312.98687925 -28.04833489 320.52926071 -30.625 327.625 C-32.25 331.125 -32.25 331.125 -33.6875 333.1875 C-34.58777961 335.45727369 -34.58777961 335.45727369 -32.4375 338.625 C-32.05980469 339.1921875 -31.68210937 339.759375 -31.29296875 340.34375 C-28.08876892 345.81609128 -28.47561566 353.34495442 -29.7109375 359.375 C-31.38811743 364.42627133 -34.19507868 368.66104255 -38.25 372.125 C-39.58880164 372.68414657 -40.9442924 373.20475505 -42.3125 373.6875 C-45.49251259 375.07273276 -46.16151153 375.92942037 -47.625 379.1640625 C-48.42780363 381.63057101 -49.21517991 384.10214596 -49.98828125 386.578125 C-53.31637337 395.93387623 -61.02865147 402.83956876 -69.68359375 407.41015625 C-80.16062541 412.20997864 -93.28525483 413.27495183 -104.3125 409.5 C-112.39507243 405.97396226 -120.83316635 401.16708412 -124.25 392.625 C-124.25 389.13562564 -123.07596527 387.05958703 -121.25 384.125 C-117.71569344 381.76879563 -116.41428713 381.63508387 -112.25 382.125 C-109.375 383.8125 -109.375 383.8125 -106.25 386.125 C-104.862709 387.03400591 -103.46651117 387.92953868 -102.0625 388.8125 C-101.40894531 389.22886719 -100.75539063 389.64523437 -100.08203125 390.07421875 C-94.86913498 393.06413154 -89.06220094 392.73382982 -83.25 392.125 C-75.74105893 389.88383767 -71.22413298 385.76810789 -67.25 379.125 C-66.92 378.465 -66.59 377.805 -66.25 377.125 C-67.31959961 377.14594727 -68.38919922 377.16689453 -69.49121094 377.18847656 C-73.46438173 377.26094626 -77.43749425 377.30682463 -81.41113281 377.34472656 C-83.12998279 377.36482628 -84.84876452 377.39211089 -86.56738281 377.42675781 C-89.03988489 377.47535034 -91.5114821 377.49798435 -93.984375 377.515625 C-95.13459137 377.54659271 -95.13459137 377.54659271 -96.30804443 377.57818604 C-99.86656959 377.57967833 -101.83958866 377.43888233 -104.70800781 375.24511719 C-106.5781087 372.67387652 -107.17574741 371.31786149 -107.25 368.125 C-105.31178929 361.77197599 -105.31178929 361.77197599 -102.29711914 359.93505859 C-97.74637721 358.72527078 -93.31011788 358.84683891 -88.62109375 358.8515625 C-86.51366647 358.83128277 -84.40624463 358.81043218 -82.29882812 358.7890625 C-78.9850606 358.76641772 -75.67150751 358.74997186 -72.35766602 358.74414062 C-69.15341747 358.73463881 -65.9501281 358.70090079 -62.74609375 358.6640625 C-61.75435654 358.66910797 -60.76261932 358.67415344 -59.74082947 358.67935181 C-54.3340944 358.66371129 -54.3340944 358.66371129 -49.62133789 356.28271484 C-47.76068944 353.35510029 -47.74315763 351.52808446 -48.25 348.125 C-50.10342775 345.56550454 -51.18756393 345.14581202 -54.25 344.125 C-56.37423897 344.02411266 -58.49945713 343.94309519 -60.625 343.875 C-64.87618192 343.55746467 -66.89522771 343.34589595 -70.5625 341.0625 C-72.93427889 336.93384786 -72.92543712 334.85305985 -72.25 330.125 C-70.04259319 327.15641843 -68.76402627 326.29634209 -65.25 325.125 C-61.9602548 324.93199018 -58.67248041 324.80788047 -55.37890625 324.69921875 C-51.693829 324.02293116 -50.47357607 323.09336611 -48.25 320.125 C-47.89542635 316.65017825 -48.1445914 314.44122581 -49.25 311.125 C-52.70341996 309.70056778 -56.50418899 309.98506692 -60.1875 309.875 C-64.59893241 309.56743916 -66.81305353 309.39202284 -70.625 307.0625 C-72.91060964 302.93082103 -72.92047739 300.81834171 -72.25 296.125 C-70.37984906 293.69380377 -68.96861655 292.48430827 -66.25 291.125 C-64.12843877 290.91913422 -62.00231896 290.75885378 -59.875 290.625 C-54.45487864 290.43009273 -54.45487864 290.43009273 -49.25 289.125 C-48.24740493 286.11721479 -47.94685358 283.58679353 -47.6875 280.4375 C-47.60371094 279.44363281 -47.51992188 278.44976562 -47.43359375 277.42578125 C-47.37300781 276.66652344 -47.31242188 275.90726562 -47.25 275.125 C-48.56355469 275.15980469 -49.87710938 275.19460938 -51.23046875 275.23046875 C-52.96613301 275.25861466 -54.70181115 275.28591396 -56.4375 275.3125 C-57.73397461 275.35020508 -57.73397461 275.35020508 -59.05664062 275.38867188 C-63.93835222 275.4447835 -67.317322 275.37990183 -71.25 272.125 C-72.82898053 268.96703893 -73.06928171 265.51829364 -72.25 262.125 C-69.59890647 258.83074728 -68.10889876 257.29000672 -63.90014648 256.48144531 C-62.65305908 256.47209961 -61.40597168 256.46275391 -60.12109375 256.453125 C-59.44957779 256.44037537 -58.77806183 256.42762573 -58.0861969 256.41448975 C-55.95286373 256.37833918 -53.82111156 256.37548223 -51.6875 256.375 C-49.55090817 256.35332338 -47.41455032 256.324784 -45.27809143 256.29266357 C-43.34233544 256.26690563 -41.40637177 256.25848738 -39.47045898 256.25097656 C-35.7563716 256.14358526 -35.7563716 256.14358526 -32.25 255.125 C-31.17660203 251.90480608 -31.09376985 249.48058639 -31.0390625 246.09375 C-31.01070312 244.88976562 -30.98234375 243.68578125 -30.953125 242.4453125 C-30.90168352 239.92982392 -30.85723117 237.41418114 -30.8203125 234.8984375 C-30.47577282 221.37525509 -27.64885086 208.37199814 -17.875 198.375 C-16.68372343 197.27293798 -15.474843 196.18963147 -14.25 195.125 C-13.59773437 194.55265625 -12.94546875 193.9803125 -12.2734375 193.390625 C-11.00306432 192.28211404 -9.72542217 191.18182218 -8.4375 190.09375 C-2.64789106 184.88310196 2.29627143 179.45818413 6.75 173.0625 C7.26836426 172.31863037 7.78672852 171.57476074 8.32080078 170.80834961 C26.32822271 144.46707705 32.46648187 112.99215553 26.71875 81.7578125 C20.58174483 51.18690453 2.40179154 23.58286679 -23.375 6 C-36.69522102 -2.74633846 -50.74114379 -8.36306477 -66.25 -11.875 C-67.33410156 -12.12121094 -68.41820312 -12.36742188 -69.53515625 -12.62109375 C-99.67707197 -18.26054895 -130.27099509 -10.27170595 -155.6875 6.125 C-160.30123713 9.29733767 -164.45538876 12.79679882 -168.5078125 16.65625 C-170.25 18.125 -170.25 18.125 -172.25 18.125 C-172.518125 18.72699219 -172.78625 19.32898438 -173.0625 19.94921875 C-174.27156419 22.16451071 -175.36585039 23.2933983 -177.25 24.9375 C-197.60664869 44.82861202 -206.96589915 76.01987002 -207.4375 103.75 C-207.12335697 135.96711324 -194.43168171 166.19331829 -171.625 189 C-168.49384117 192.05608168 -165.30223989 194.95566364 -161.9375 197.75 C-153.47691988 205.03164682 -149.85354022 214.31870927 -148.25 225.125 C-148.12051254 227.25203171 -148.02846296 229.38158607 -147.96875 231.51171875 C-147.91267578 233.2896582 -147.91267578 233.2896582 -147.85546875 235.10351562 C-147.78482328 237.58788118 -147.71451391 240.07225631 -147.64453125 242.55664062 C-147.60714844 243.73806641 -147.56976563 244.91949219 -147.53125 246.13671875 C-147.50095703 247.21397217 -147.47066406 248.29122559 -147.43945312 249.40112305 C-147.35733858 252.21905283 -147.35733858 252.21905283 -146.25 255.125 C-143.15587142 256.34450665 -140.01232219 256.26641594 -136.71875 256.29858398 C-135.61080078 256.31207382 -134.50285156 256.32556366 -133.36132812 256.33946228 C-132.16958984 256.34990067 -130.97785156 256.36033905 -129.75 256.37109375 C-127.22916304 256.40402053 -124.70832979 256.43723237 -122.1875 256.47070312 C-118.21096247 256.51819519 -114.23444123 256.56265319 -110.2578125 256.60180664 C-106.42171878 256.64144944 -102.58592779 256.69300051 -98.75 256.74609375 C-96.96239258 256.75871498 -96.96239258 256.75871498 -95.13867188 256.77159119 C-94.03072266 256.78823318 -92.92277344 256.80487518 -91.78125 256.82202148 C-90.80736328 256.83232895 -89.83347656 256.84263641 -88.83007812 256.85325623 C-86.14938874 257.13559677 -84.51916015 257.69672182 -82.25 259.125 C-79.9479051 262.34793286 -79.77489346 265.24496324 -80.25 269.125 C-82.04993774 271.82490662 -83.333773 273.6668865 -86.25 275.125 C-87.70037107 275.21449417 -89.15478629 275.2425844 -90.60791016 275.23852539 C-91.95908432 275.23841209 -91.95908432 275.23841209 -93.33755493 275.23829651 C-94.31155243 275.23313522 -95.28554993 275.22797394 -96.2890625 275.22265625 C-97.28505463 275.2212413 -98.28104675 275.21982635 -99.30722046 275.21836853 C-102.49651053 275.21275936 -105.68573106 275.2002053 -108.875 275.1875 C-111.03385315 275.18248618 -113.19270741 275.17792307 -115.3515625 275.17382812 C-120.6510655 275.16278695 -125.95052778 275.14603988 -131.25 275.125 C-131.10866501 276.89619803 -130.96176792 278.66695287 -130.8125 280.4375 C-130.73128906 281.42363281 -130.65007812 282.40976562 -130.56640625 283.42578125 C-130.33187441 286.21875599 -130.33187441 286.21875599 -129.25 289.125 C-125.18254642 290.64556416 -120.79024177 290.27892689 -116.50390625 290.30078125 C-114.76235762 290.32397322 -113.02082111 290.3480903 -111.27929688 290.37304688 C-108.54280392 290.40818367 -105.80675971 290.43752811 -103.07006836 290.45092773 C-100.42246803 290.46641635 -97.77616339 290.50661922 -95.12890625 290.55078125 C-94.3141835 290.54887283 -93.49946075 290.54696442 -92.66004944 290.54499817 C-87.61328018 290.65343294 -84.90651094 291.31996971 -81.25 295.125 C-79.8600592 297.9048816 -80.06511796 300.0436326 -80.25 303.125 C-81.06308606 305.56425818 -81.68440585 306.72346788 -83.77929688 308.21069336 C-87.46486955 309.57457376 -91.14920475 309.46406631 -95.03125 309.50390625 C-95.88174927 309.52090073 -96.73224854 309.5378952 -97.60852051 309.55540466 C-100.32227181 309.60845284 -103.03600939 309.64878367 -105.75 309.6875 C-108.463912 309.73150548 -111.17770904 309.7782855 -113.89147949 309.83030701 C-115.57864735 309.8621217 -117.26591602 309.8890554 -118.95324707 309.91053772 C-122.54184321 309.97360417 -125.7948794 310.16025189 -129.25 311.125 C-129.52748242 312.53654099 -129.77093516 313.95479799 -130 315.375 C-130.13921875 316.16390625 -130.2784375 316.9528125 -130.421875 317.765625 C-130.443183 320.2284964 -130.443183 320.2284964 -128.78588867 322.2409668 C-125.18709376 324.91468397 -121.81338211 324.67208045 -117.50390625 324.62890625 C-116.65577866 324.63832748 -115.80765106 324.64774872 -114.93382263 324.65745544 C-112.22646897 324.68610592 -109.519993 324.68918391 -106.8125 324.6875 C-104.10870564 324.69111052 -101.40555032 324.700681 -98.70188904 324.72825623 C-97.02135773 324.74500942 -95.34061624 324.74794775 -93.66004944 324.73524475 C-89.03656214 324.77670978 -85.99436207 325.11458412 -82.25 328.125 C-79.92463937 331.61304095 -79.91542102 333.02640754 -80.25 337.125 C-81.45706879 340.46765205 -82.17056849 341.07204566 -85.25 343.125 C-88.1616448 343.33059536 -90.98562522 343.42600951 -93.8984375 343.43359375 C-95.64323249 343.45875518 -97.38802408 343.48415319 -99.1328125 343.50976562 C-101.88019928 343.53849679 -104.62752701 343.56251727 -107.375 343.58129883 C-110.02895761 343.60298616 -112.68222091 343.64242908 -115.3359375 343.68359375 C-116.1537973 343.68370956 -116.9716571 343.68382538 -117.81430054 343.6839447 C-122.87037571 343.77144645 -126.49912848 344.37412848 -130.25 348.125 C-130.62518495 351.50166458 -130.7044255 353.43348294 -128.8125 356.3125 C-126.3166154 358.07788179 -124.57781629 358.71517601 -121.6875 359.5625 C-118.5721144 360.52226459 -117.41865575 360.94642332 -115.125 363.375 C-113.95003916 367.06773408 -114.23370274 369.39857671 -115.25 373.125 C-116.625 375.5625 -116.625 375.5625 -119.25 377.125 C-127.18628513 378.51779176 -133.70478518 376.6836847 -140.25 372.125 C-145.48442664 367.47585736 -148.77846508 362.12256827 -149.6015625 355.14453125 C-149.91851013 348.02989095 -148.9890586 343.2711951 -145.1484375 337.24609375 C-143.97615552 335.14948567 -143.97615552 335.14948567 -145 333.06640625 C-145.4125 332.42574219 -145.825 331.78507812 -146.25 331.125 C-149.33222117 324.48636978 -150.3204974 318.43067523 -149.25 311.125 C-148.07814817 308.32940576 -146.76301847 305.84407693 -145.1484375 303.28125 C-143.97621309 301.15130793 -143.97621309 301.15130793 -145 299.046875 C-145.4125 298.41265625 -145.825 297.7784375 -146.25 297.125 C-150.15274511 289.31950978 -149.52923954 281.6469772 -149.25 273.125 C-150.18585938 272.84269531 -151.12171875 272.56039063 -152.0859375 272.26953125 C-155.89725261 270.89087035 -157.58216763 269.14386295 -160.25 266.125 C-160.971875 265.320625 -161.69375 264.51625 -162.4375 263.6875 C-165.7179469 259.0496268 -166.49397877 254.51243282 -166.59375 248.9140625 C-166.62339844 247.75132812 -166.65304688 246.58859375 -166.68359375 245.390625 C-166.70550781 244.18921875 -166.72742188 242.9878125 -166.75 241.75 C-166.9711965 229.70129674 -167.29116856 219.56107838 -175.91601562 210.34472656 C-177.73903846 208.59841015 -179.60559785 206.91847963 -181.5 205.25 C-182.84628427 204.02230457 -184.1900427 202.79183354 -185.53125 201.55859375 C-186.49611328 200.67276611 -186.49611328 200.67276611 -187.48046875 199.76904297 C-209.09585477 179.68653615 -220.8608445 150.82818237 -225.25 122.125 C-225.435625 121.02542969 -225.62125 119.92585937 -225.8125 118.79296875 C-227.37437763 105.69829827 -226.6572171 92.06033327 -224.25 79.125 C-224.13172852 78.4767627 -224.01345703 77.82852539 -223.89160156 77.16064453 C-217.22365835 41.86126577 -196.1811902 10.4808147 -166.609375 -9.84643555 C-114.9254531 -43.9854612 -47.2457017 -39.94079931 0 0 Z " fill="#000000" transform="translate(345.25,100.875)"/>
<path d="M0 0 C7.15732981 6.24362813 11.39077469 13.66971842 13 23 C13.07700286 24.69257245 13.10805067 26.38773999 13.09765625 28.08203125 C13.09282227 29.47905273 13.09282227 29.47905273 13.08789062 30.90429688 C13.07532227 32.34385742 13.07532227 32.34385742 13.0625 33.8125 C13.05798828 34.79154297 13.05347656 35.77058594 13.04882812 36.77929688 C13.03708702 39.18622431 13.01915289 41.59312013 13 44 C18.28 44 23.56 44 29 44 C28.96519531 42.60007813 28.93039062 41.20015625 28.89453125 39.7578125 C28.86636737 37.88022046 28.83907003 36.00261528 28.8125 34.125 C28.78736328 33.2071875 28.76222656 32.289375 28.73632812 31.34375 C28.61582851 19.93645345 31.81711444 10.6573516 39.62890625 2.24609375 C47.50048406 -5.04105137 56.40108999 -7.28545074 67 -7 C76.51034294 -5.87905387 84.58111994 -2.20362831 90.84765625 5.17578125 C92.40369125 7.38940352 93.7322915 9.61101797 95 12 C95.33902344 12.60199219 95.67804688 13.20398438 96.02734375 13.82421875 C99.63042078 21.47868194 99.20076687 31.87624937 96.9375 39.875 C93.27266012 48.90136489 86.39770332 55.31441901 78 60 C73.82968758 61.61427904 70.40820317 62.24132168 65.9453125 62.1953125 C64.83671875 62.18886719 63.728125 62.18242187 62.5859375 62.17578125 C60.87277344 62.15064453 60.87277344 62.15064453 59.125 62.125 C57.9596875 62.11597656 56.794375 62.10695313 55.59375 62.09765625 C52.72895423 62.07417432 49.86458465 62.04133141 47 62 C47.00888245 63.20412033 47.01776489 64.40824066 47.0269165 65.64884949 C47.10798321 76.99338717 47.16795634 88.33786613 47.20724869 99.68262768 C47.22812837 105.51518508 47.25645348 111.34750876 47.30175781 117.17993164 C47.34520121 122.80796419 47.36913423 128.43577184 47.37950897 134.06395912 C47.38690299 136.2117905 47.40134167 138.35960949 47.42292023 140.5073452 C47.45193366 143.51452666 47.45595679 146.5207774 47.45410156 149.52807617 C47.46848267 150.41712143 47.48286377 151.30616669 47.49768066 152.22215271 C47.47050203 156.29028614 47.31697136 158.47050273 45.1864624 162.02949524 C42.15173407 164.76448242 40.04439965 165 36 165 C32.13708943 163.36899332 30.56602482 161.82374243 29 158 C28.75390434 156.00854111 28.75390434 156.00854111 28.75949097 153.87445068 C28.75674164 153.06119324 28.75399231 152.24793579 28.75115967 151.41003418 C28.7619455 150.08509949 28.7619455 150.08509949 28.77294922 148.73339844 C28.77265717 147.79647156 28.77236511 146.85954468 28.77206421 145.89422607 C28.77345689 142.79918132 28.78901534 139.70437767 28.8046875 136.609375 C28.80841785 134.46274955 28.81126472 132.31612239 28.81326294 130.16949463 C28.82089768 124.52074479 28.84054489 118.87209786 28.8626709 113.22338867 C28.88313269 107.45883578 28.89226538 101.69426625 28.90234375 95.9296875 C28.92379086 84.61974646 28.95792497 73.30988179 29 62 C23.72 62 18.44 62 13 62 C13.00999275 63.78738838 13.00999275 63.78738838 13.02018738 65.61088562 C13.080989 76.83771787 13.12596815 88.06451674 13.15543652 99.29147625 C13.17109577 105.06344652 13.19233903 110.83528393 13.22631836 116.60717773 C13.25890217 122.1768455 13.27685106 127.74638541 13.28463173 133.31614113 C13.29017696 135.44162827 13.30100536 137.56710837 13.31719017 139.69254112 C13.33895116 142.66847254 13.34196745 145.64387493 13.34057617 148.61987305 C13.351362 149.49956757 13.36214783 150.37926208 13.3732605 151.28561401 C13.34925354 156.02782318 13.06696417 159.13816 10 163 C7.34500276 165.08606926 5.93249496 164.99879455 2.5 164.9375 C-1.8444258 163.77381452 -2.71221759 162.83490403 -5 159 C-5.55976695 155.83762444 -5.50593128 152.73220877 -5.45410156 149.52807617 C-5.45468567 148.58124969 -5.45526978 147.63442322 -5.45587158 146.65890503 C-5.45309002 143.53655034 -5.42199399 140.41515619 -5.390625 137.29296875 C-5.38316289 135.12535626 -5.37746981 132.95773701 -5.37347412 130.79011536 C-5.35821559 125.09027417 -5.31893143 119.39084193 -5.2746582 113.69116211 C-5.23371051 107.87294039 -5.21546415 102.05465247 -5.1953125 96.23632812 C-5.15243776 84.82403927 -5.08418341 73.41205366 -5 62 C-5.71019287 62.02094727 -6.42038574 62.04189453 -7.15209961 62.06347656 C-10.41375194 62.14734686 -13.67517644 62.19888357 -16.9375 62.25 C-18.05447266 62.28351563 -19.17144531 62.31703125 -20.32226562 62.3515625 C-30.9609085 62.47635596 -39.23757875 59.39954384 -47 52 C-54.40309114 43.1833265 -56.5344369 35.33629461 -56.38671875 23.87109375 C-55.49215783 14.91644855 -51.58465766 7.06971423 -44.84375 1.0859375 C-30.93106553 -9.07032216 -14.4006729 -9.82706863 0 0 Z M-36 19 C-38.5377319 23.28575002 -38.53409104 27.13383717 -38 32 C-36.17465409 37.27322153 -33.39280797 39.79691086 -29 43 C-26.05868109 43.98043964 -24.17498335 44.11621202 -21.11328125 44.09765625 C-20.17548828 44.09443359 -19.23769531 44.09121094 -18.27148438 44.08789062 C-17.29501953 44.07951172 -16.31855469 44.07113281 -15.3125 44.0625 C-14.32443359 44.05798828 -13.33636719 44.05347656 -12.31835938 44.04882812 C-9.87884526 44.03704303 -7.43945311 44.02059011 -5 44 C-4.882708 40.81281557 -4.81239234 37.62619432 -4.75 34.4375 C-4.71648437 33.54224609 -4.68296875 32.64699219 -4.6484375 31.72460938 C-4.55804798 25.5555244 -5.39770446 22.04453087 -9 17 C-12.71076077 13.47953466 -16.27154804 11.35900684 -21.375 10.6875 C-27.66272718 11.43603895 -31.95173344 14.25774488 -36 19 Z M50.0625 18.0625 C47.45499004 21.77622631 46.874179 24.24610318 46.90234375 28.66796875 C46.90556641 29.56064453 46.90878906 30.45332031 46.91210938 31.37304688 C46.92048828 32.30181641 46.92886719 33.23058594 46.9375 34.1875 C46.94201172 35.12787109 46.94652344 36.06824219 46.95117188 37.03710938 C46.96295374 39.35813712 46.97940442 41.67903644 47 44 C50.37483413 44.08767555 53.74937215 44.14061628 57.125 44.1875 C58.07632813 44.21263672 59.02765625 44.23777344 60.0078125 44.26367188 C66.2520688 44.32871621 70.82606329 43.89499215 75.64453125 39.5 C79.87447117 34.06756879 80.79626079 29.74017939 80 23 C78.65113635 19.04590257 76.44636041 16.39445803 73.3125 13.625 C64.49463627 9.29925553 56.60149428 10.56795069 50.0625 18.0625 Z " fill="#000000" transform="translate(235,177)"/>
<path d="M0 0 C2.98045352 1.58483415 5.88028673 3.26394498 8.77563477 4.99926758 C9.76112305 5.5690332 10.74661133 6.13879883 11.76196289 6.72583008 C30.71979478 17.78142455 30.71979478 17.78142455 32.15063477 22.62426758 C32.38256564 26.64440275 31.53916721 28.53477007 29.33813477 31.87426758 C26.93036314 33.85207998 25.59045878 33.87839839 22.47485352 33.82739258 C16.39125353 32.87243641 11.15165768 29.21157878 5.90063477 26.18676758 C4.80686523 25.57381836 3.7130957 24.96086914 2.58618164 24.3293457 C-13.50088307 15.1962319 -13.50088307 15.1962319 -15.66186523 10.87426758 C-15.70018039 6.83585053 -15.57985066 3.08600834 -13.09936523 -0.18823242 C-8.43933491 -1.98055178 -4.54706409 -1.92300399 0 0 Z " fill="#000000" transform="translate(92.661865234375,99.125732421875)"/>
<path d="M0 0 C3.43250143 1.9401095 4.70166193 3.14227804 6 6.875 C6 10.77333434 5.01012663 12.67477449 3 16 C0.59912109 17.88696289 0.59912109 17.88696289 -2.2265625 19.47265625 C-3.25910156 20.06240234 -4.29164062 20.65214844 -5.35546875 21.25976562 C-6.43441406 21.85466797 -7.51335937 22.44957031 -8.625 23.0625 C-9.68074219 23.66126953 -10.73648438 24.26003906 -11.82421875 24.87695312 C-13.90057126 26.05149454 -15.98186783 27.21734498 -18.06835938 28.3737793 C-19.94103406 29.41257727 -21.80762884 30.46246366 -23.66601562 31.52661133 C-24.45943359 31.97931396 -25.25285156 32.4320166 -26.0703125 32.8984375 C-26.75625488 33.29337402 -27.44219727 33.68831055 -28.14892578 34.09521484 C-30.97162239 35.47491857 -32.93880082 35.62615438 -36 35 C-38.69990662 33.20006226 -40.5418865 31.916227 -42 29 C-42.51195595 25.24565639 -42.30100083 23.47579728 -40.2578125 20.24609375 C-36.04125571 15.42524858 -30.06334839 12.79127568 -24.5 9.8125 C-22.26021327 8.59021639 -20.02062269 7.36757326 -17.78125 6.14453125 C-16.79189453 5.61190674 -15.80253906 5.07928223 -14.78320312 4.53051758 C-12.94337767 3.51877497 -11.1326044 2.45210793 -9.35742188 1.33081055 C-6.03341712 -0.54565486 -3.75585162 -0.46948145 0 0 Z " fill="#000000" transform="translate(119,277)"/>
<path d="M0 0 C2.43119623 1.87015094 3.64069173 3.28138345 5 6 C5.40337011 9.63033103 5.39288392 11.41466906 3.33129883 14.48608398 C0.83910856 17.17349452 -1.4031631 18.66140969 -4.61328125 20.41015625 C-5.69673828 21.00763672 -6.78019531 21.60511719 -7.89648438 22.22070312 C-9.02376953 22.82849609 -10.15105469 23.43628906 -11.3125 24.0625 C-13.53779403 25.28249078 -15.76305532 26.50254126 -17.98828125 27.72265625 C-19.03411377 28.28871582 -20.07994629 28.85477539 -21.1574707 29.43798828 C-23.49428216 30.7221006 -25.78036339 32.05637445 -28.0625 33.43359375 C-31.89802602 35.4788676 -33.88055928 35.24360475 -38 34 C-40.36414354 32.19578519 -41.62355927 30.80665872 -42.875 28.125 C-43.0614264 24.95575121 -42.31973946 22.87943154 -41 20 C-35.9114247 15.48262025 -29.9622527 12.25474311 -24.09936523 8.86230469 C-22.82566522 8.12127835 -21.55640717 7.37256341 -20.29174805 6.61621094 C-18.44751661 5.51336102 -16.59109653 4.43427702 -14.73046875 3.359375 C-13.08147583 2.39209473 -13.08147583 2.39209473 -11.39916992 1.40527344 C-7.15433043 -0.34961388 -4.55792924 -0.39958294 0 0 Z " fill="#000000" transform="translate(430,98)"/>
<path d="M0 0 C4.95218934 1.03068139 9.23859198 4.01994051 13.53808594 6.57519531 C14.52808594 7.14496094 15.51808594 7.71472656 16.53808594 8.30175781 C33.94840109 18.40800935 33.94840109 18.40800935 37.16308594 23.45019531 C37.74798966 27.37740599 37.50902899 28.93128074 35.28808594 32.26269531 C32.78913558 34.8351442 31.95113266 35.38162113 28.39672852 35.69091797 C24.67708555 35.4140159 22.64979423 34.44326503 19.42480469 32.59863281 C18.35681641 31.9940625 17.28882813 31.38949219 16.18847656 30.76660156 C15.08697266 30.1259375 13.98546875 29.48527344 12.85058594 28.82519531 C11.76068359 28.20773437 10.67078125 27.59027344 9.54785156 26.95410156 C4.63362894 24.14681864 -0.23927677 21.27210398 -5.02050781 18.24316406 C-6.07129517 17.57837036 -6.07129517 17.57837036 -7.14331055 16.90014648 C-9.15289475 15.17967357 -9.80714391 13.9021694 -10.58691406 11.38769531 C-10.85882682 7.10506934 -10.58308793 5.66984743 -7.83691406 2.45019531 C-4.93572239 0.51606753 -3.44071073 -0.10656269 0 0 Z " fill="#000000" transform="translate(397.8369140625,276.5498046875)"/>
<path d="M0 0 C2.9375 2.0625 2.9375 2.0625 5 5 C5.9635322 11.72767174 3.27735809 16.01814719 0 21.625 C-0.49822266 22.50075684 -0.99644531 23.37651367 -1.50976562 24.27880859 C-2.98879788 26.86331778 -4.49021254 29.43336132 -6 32 C-6.62261719 33.06927734 -6.62261719 33.06927734 -7.2578125 34.16015625 C-13.3341816 44.55612106 -13.3341816 44.55612106 -17 47 C-23.96517413 47.66334992 -23.96517413 47.66334992 -27.4375 45.4375 C-29.6228533 42.02834884 -30.06592269 40.08720674 -30 36 C-26.99874063 28.53931826 -22.559036 21.54702195 -18.5 14.625 C-17.66662109 13.16900391 -17.66662109 13.16900391 -16.81640625 11.68359375 C-9.10920793 -1.46397985 -9.10920793 -1.46397985 0 0 Z " fill="#000000" transform="translate(358,26)"/>
<path d="M0 0 C4.39743375 0.77147961 6.66278657 2.36436706 9.5625 5.625 C12.20087074 9.64178937 14.47552058 13.83153135 16.75 18.0625 C17.36552734 19.18205078 17.98105469 20.30160156 18.61523438 21.45507812 C20.2842075 24.50190338 21.93958779 27.55340112 23.5625 30.625 C24.12364502 31.66148682 24.68479004 32.69797363 25.26293945 33.76586914 C26.97871599 37.54070645 26.66241829 39.66529414 25.5625 43.625 C24 46.0625 24 46.0625 21.5625 47.625 C16.14423077 48.39903846 16.14423077 48.39903846 13.5625 47.625 C9.85445825 44.28436748 7.32135717 40.91642018 4.86328125 36.58984375 C4.21166016 35.45095703 3.56003906 34.31207031 2.88867188 33.13867188 C2.21736003 31.94666407 1.5461369 30.75460631 0.875 29.5625 C0.19277177 28.36612875 -0.49016524 27.17016138 -1.17382812 25.97460938 C-9.20454245 11.87091706 -9.20454245 11.87091706 -8.4375 5.625 C-5.86890902 1.96670376 -4.41498801 0.80272509 0 0 Z " fill="#000000" transform="translate(157.4375,25.375)"/>
<path d="M0 0 C0.91471573 -0.00619858 1.82943146 -0.01239716 2.77186584 -0.01878357 C4.70426368 -0.02587983 6.63672268 -0.02271109 8.5690918 -0.01000977 C11.52181907 0.00384368 14.47136913 -0.03020119 17.42382812 -0.06835938 C19.30338619 -0.06931073 21.18294821 -0.06745089 23.0625 -0.0625 C23.94284409 -0.07575821 24.82318817 -0.08901642 25.73020935 -0.10267639 C30.20570996 -0.03489837 32.02814088 0.1177082 35.65429688 2.97460938 C38.63657499 6.95197928 38.2929632 8.69925761 37.59765625 13.56640625 C35.39024944 16.53498782 34.11168252 17.39506416 30.59765625 18.56640625 C27.77952669 18.68751352 24.98690929 18.7545567 22.16796875 18.76953125 C20.92694901 18.77808136 20.92694901 18.77808136 19.66085815 18.7868042 C17.91079993 18.79624648 16.16072398 18.80278512 14.41064453 18.80664062 C11.73959194 18.81634472 9.0693095 18.8473741 6.3984375 18.87890625 C4.69661914 18.88543683 2.99479529 18.89068709 1.29296875 18.89453125 C0.49698273 18.90687805 -0.2990033 18.91922485 -1.11911011 18.9319458 C-5.72132902 18.91354804 -8.63453003 18.49742845 -12.40234375 15.56640625 C-14.5033597 12.89238595 -14.40081351 11.5235594 -14.27734375 8.06640625 C-12.2453721 -0.06148036 -7.33537156 -0.04123276 0 0 Z " fill="#000000" transform="translate(423.40234375,195.43359375)"/>
<path d="M0 0 C0.91567245 -0.00241196 1.83134491 -0.00482391 2.77476501 -0.00730896 C4.70543765 -0.00633174 6.63613873 0.00703209 8.56665039 0.03198242 C11.52131222 0.06633612 14.47298961 0.05262444 17.42773438 0.03320312 C19.30600231 0.04010061 21.18426253 0.04977211 23.0625 0.0625 C24.38605247 0.0550602 24.38605247 0.0550602 25.73634338 0.04747009 C31.8194562 0.16431942 31.8194562 0.16431942 34.99389648 2.44946289 C37.08538828 5.5483421 37.39962773 7.91159283 37.46484375 11.62890625 C36.29657896 14.39584916 35.33935283 16.01027855 32.88452148 17.74682617 C29.28781142 19.05798685 25.71789653 18.93402213 21.9375 18.9296875 C21.11156845 18.93397263 20.2856369 18.93825775 19.43467712 18.94267273 C17.69059159 18.94840691 15.94648214 18.94892301 14.20239258 18.94458008 C11.54011051 18.9414214 8.87894154 18.9648853 6.21679688 18.99023438 C4.51953265 18.99250766 2.82226544 18.99321073 1.125 18.9921875 C-0.06427345 19.00600212 -0.06427345 19.00600212 -1.27757263 19.02009583 C-7.0277602 18.9721805 -10.37240599 17.79165651 -14.53515625 13.62890625 C-15.33091936 6.69439918 -15.33091936 6.69439918 -12.59619141 3.03271484 C-8.3711321 -0.28519343 -5.22815909 -0.07873743 0 0 Z " fill="#000000" transform="translate(65.53515625,195.37109375)"/>
<path d="M0 0 C2.43119623 1.87015094 3.64069173 3.28138345 5 6 C5.28544013 11.65279853 5.31378534 17.30674035 5.35009766 22.96606445 C5.36665332 24.85844219 5.39393835 26.7507575 5.43212891 28.64282227 C5.48694472 31.37288814 5.50877818 34.1014889 5.5234375 36.83203125 C5.54610687 37.67490189 5.56877625 38.51777252 5.59213257 39.38618469 C5.57641771 43.76421688 5.426298 45.46085327 2.61962891 49.01049805 C-0.17637293 51.13394809 -1.50042013 52 -5 52 C-8.93614016 50.45641562 -10.63226576 49.55160136 -13 46 C-13.20861153 43.01268295 -13.30400885 40.12093218 -13.30078125 37.1328125 C-13.30506638 36.26107391 -13.3093515 35.38933533 -13.31376648 34.49118042 C-13.31950911 32.64696114 -13.32001053 30.80271921 -13.31567383 28.95849609 C-13.31251961 26.14250804 -13.33595338 23.32757645 -13.36132812 20.51171875 C-13.36360176 18.71875132 -13.36430432 16.92578108 -13.36328125 15.1328125 C-13.372491 14.29307892 -13.38170074 13.45334534 -13.39118958 12.58816528 C-13.35434507 7.91061089 -13.05125415 4.79279771 -10 1 C-6.80766515 -0.59616743 -3.46538503 -0.51466114 0 0 Z " fill="#000000" transform="translate(260,0)"/>
</svg>
