<svg width="41" height="170" viewBox="0 0 41 170" fill="none" xmlns="http://www.w3.org/2000/svg">
<path d="M3.629 1.07019C3.66777 0.796783 3.47755 0.543716 3.20414 0.504951C2.93074 0.466186 2.67767 0.656401 2.63891 0.929809L3.629 1.07019ZM38.5073 169.085C41.9639 149.119 40.612 134.9 36.8398 123.221C33.0731 111.559 26.8979 102.459 20.7937 92.7677C14.6839 83.0678 8.61856 72.7409 4.96325 58.5516C1.30782 44.3618 0.0550728 26.2768 3.629 1.07019L2.63891 0.929809C-0.949165 26.2361 0.299783 44.4574 3.99487 58.8011C7.69008 73.1453 13.8241 83.579 19.9476 93.3007C26.0766 103.031 32.1687 112.013 35.8882 123.529C39.6024 135.027 40.9558 149.08 37.522 168.915L38.5073 169.085Z" fill="#000F52"/>
</svg>
