<svg xmlns="http://www.w3.org/2000/svg" xmlns:xlink="http://www.w3.org/1999/xlink" width="1584" zoomAndPan="magnify" viewBox="0 0 1188 296.999993" height="396" preserveAspectRatio="xMidYMid meet" version="1.0"><defs><g/><clipPath id="38b4eaab99"><path d="M 452.925781 30.089844 L 697 30.089844 L 697 272.730469 L 452.925781 272.730469 Z M 452.925781 30.089844 " clip-rule="nonzero"/></clipPath><clipPath id="37ba3c777e"><path d="M 574.734375 30.089844 C 507.460938 30.089844 452.925781 84.351562 452.925781 151.289062 C 452.925781 218.222656 507.460938 272.484375 574.734375 272.484375 C 642.003906 272.484375 696.539062 218.222656 696.539062 151.289062 C 696.539062 84.351562 642.003906 30.089844 574.734375 30.089844 " clip-rule="nonzero"/></clipPath><clipPath id="e00fbcf4f4"><path d="M 451.773438 28.457031 L 618 28.457031 L 618 263.441406 L 451.773438 263.441406 Z M 451.773438 28.457031 " clip-rule="nonzero"/></clipPath><clipPath id="4b8356324a"><path d="M 451.84375 28.457031 L 618 28.457031 L 618 152 L 451.84375 152 Z M 451.84375 28.457031 " clip-rule="nonzero"/></clipPath><clipPath id="d55e341571"><path d="M 501 7.257812 L 697.773438 7.257812 L 697.773438 296.40625 L 501 296.40625 Z M 501 7.257812 " clip-rule="nonzero"/></clipPath><clipPath id="8941690e67"><path d="M 631.714844 63.269531 L 676.28125 63.269531 L 676.28125 159.925781 L 631.714844 159.925781 Z M 631.714844 63.269531 " clip-rule="nonzero"/></clipPath><clipPath id="0178c70571"><path d="M 501 61.53125 L 697.773438 61.53125 L 697.773438 296.511719 L 501 296.511719 Z M 501 61.53125 " clip-rule="nonzero"/></clipPath><clipPath id="8e245e7c96"><path d="M 504 249 L 544 249 L 544 294 L 504 294 Z M 504 249 " clip-rule="nonzero"/></clipPath><clipPath id="0c77481e72"><path d="M 504.074219 293.695312 L 501.859375 251.503906 L 541.160156 249.441406 L 543.378906 291.632812 Z M 504.074219 293.695312 " clip-rule="nonzero"/></clipPath><clipPath id="789846c92d"><path d="M 793.058594 278.515625 L 782.734375 82.003906 L 493.742188 97.183594 L 504.066406 293.699219 Z M 793.058594 278.515625 " clip-rule="nonzero"/></clipPath><clipPath id="8de5d4b0b7"><path d="M 792.9375 278.523438 L 782.582031 81.441406 L 493.835938 96.609375 L 504.1875 293.691406 Z M 792.9375 278.523438 " clip-rule="nonzero"/></clipPath><clipPath id="41024e3dfc"><path d="M 792.9375 278.523438 L 782.613281 82.007812 L 493.863281 97.175781 L 504.1875 293.691406 Z M 792.9375 278.523438 " clip-rule="nonzero"/></clipPath><clipPath id="8323f4c83a"><path d="M 501 250 L 543 250 L 543 297 L 501 297 Z M 501 250 " clip-rule="nonzero"/></clipPath><clipPath id="31827efb11"><path d="M 493.34375 258.132812 L 534.847656 250.234375 L 542.203125 288.898438 L 500.699219 296.796875 Z M 493.34375 258.132812 " clip-rule="nonzero"/></clipPath><clipPath id="0b331f9f00"><path d="M 446.644531 12.710938 L 639.960938 -24.074219 L 694.054688 260.214844 L 500.738281 297 Z M 446.644531 12.710938 " clip-rule="nonzero"/></clipPath><clipPath id="9bc27b5fa9"><path d="M 446.664062 12.832031 L 640.539062 -24.058594 L 694.589844 259.988281 L 500.714844 296.878906 Z M 446.664062 12.832031 " clip-rule="nonzero"/></clipPath><clipPath id="7bed76be7d"><path d="M 446.664062 12.832031 L 639.980469 -23.953125 L 694.03125 260.097656 L 500.714844 296.878906 Z M 446.664062 12.832031 " clip-rule="nonzero"/></clipPath><clipPath id="436a6cbd26"><path d="M 606 7 L 645 7 L 645 61 L 606 61 Z M 606 7 " clip-rule="nonzero"/></clipPath><clipPath id="d886ec5c3e"><path d="M 600.707031 9.25 L 623.140625 -0.109375 L 644.539062 51.167969 L 622.105469 60.527344 Z M 600.707031 9.25 " clip-rule="nonzero"/></clipPath><clipPath id="0b7bfeb6b1"><path d="M 581.132812 17.417969 L 622.796875 0.0351562 L 660.464844 90.304688 L 618.800781 107.6875 Z M 581.132812 17.417969 " clip-rule="nonzero"/></clipPath><clipPath id="0ede235e5a"><path d="M 602 8 L 634 8 L 634 63 L 602 63 Z M 602 8 " clip-rule="nonzero"/></clipPath><clipPath id="7d63e5b33d"><path d="M 602.125 8.691406 L 625.542969 4.847656 L 634.4375 59.109375 L 611.023438 62.949219 Z M 602.125 8.691406 " clip-rule="nonzero"/></clipPath><clipPath id="ebeab07b87"><path d="M 581.421875 12.085938 L 625.398438 4.871094 L 641.039062 100.253906 L 597.0625 107.46875 Z M 581.421875 12.085938 " clip-rule="nonzero"/></clipPath><clipPath id="102b22444a"><path d="M 602 7 L 628 7 L 628 63 L 602 63 Z M 602 7 " clip-rule="nonzero"/></clipPath><clipPath id="70def977fc"><path d="M 602.117188 7.710938 L 625.820312 6.621094 L 628.351562 61.546875 L 604.644531 62.636719 Z M 602.117188 7.710938 " clip-rule="nonzero"/></clipPath><clipPath id="062359dbe4"><path d="M 581.15625 8.675781 L 625.675781 6.628906 L 630.121094 103.179688 L 585.605469 105.230469 Z M 581.15625 8.675781 " clip-rule="nonzero"/></clipPath></defs><g clip-path="url(#38b4eaab99)"><g clip-path="url(#37ba3c777e)"><path fill="#ffffff" d="M 452.925781 30.089844 L 696.53125 30.089844 L 696.53125 272.25 L 452.925781 272.25 Z M 452.925781 30.089844 " fill-opacity="1" fill-rule="nonzero"/></g></g><g clip-path="url(#e00fbcf4f4)"><path fill="#3871c1" d="M 617.636719 35.953125 C 617.328125 39.207031 616.675781 42.75 615.589844 46.554688 C 608.339844 72.105469 581.609375 110.160156 506 162.492188 L 565.707031 183.304688 L 529.4375 248.492188 L 521.15625 263.367188 C 480.070312 243.207031 451.773438 201.085938 451.773438 152.328125 C 451.773438 84.058594 507.292969 28.71875 575.785156 28.71875 C 590.476562 28.71875 604.554688 31.253906 617.617188 35.933594 " fill-opacity="1" fill-rule="nonzero"/></g><g clip-path="url(#4b8356324a)"><path fill="#000f52" d="M 617.566406 35.925781 C 587.101562 102.941406 451.84375 151.859375 451.84375 151.859375 C 451.84375 83.851562 507.316406 28.714844 575.75 28.714844 C 590.429688 28.714844 604.496094 31.242188 617.550781 35.90625 " fill-opacity="1" fill-rule="nonzero"/></g><g clip-path="url(#d55e341571)"><path fill="#f68712" d="M 697.445312 151.804688 C 697.445312 219.015625 642.664062 273.484375 575.105469 273.484375 C 564.300781 273.484375 553.816406 272.078125 543.832031 269.472656 L 501.550781 296.347656 L 547.914062 253.03125 L 648.648438 158.945312 L 602.660156 146.03125 C 602.660156 146.03125 642.25 105.777344 644.132812 65.003906 C 645.113281 44.105469 636.171875 23.082031 606.902344 7.285156 C 646.351562 16.511719 655.488281 48.710938 657.589844 61.949219 L 657.605469 61.949219 L 657.605469 61.964844 C 682.097656 84.226562 697.445312 116.226562 697.445312 151.792969 " fill-opacity="1" fill-rule="nonzero"/></g><g clip-path="url(#8941690e67)"><path fill="#f14624" d="M 650.1875 159.429688 C 702.4375 110.542969 660.277344 65.09375 659.039062 63.761719 C 682.285156 109.003906 651.074219 140.253906 631.714844 154.226562 L 650.1875 159.421875 " fill-opacity="1" fill-rule="nonzero"/></g><g clip-path="url(#0178c70571)"><path fill="#ffc108" d="M 697.445312 151.757812 C 697.445312 219.050781 642.664062 273.582031 575.105469 273.582031 C 564.300781 273.582031 553.816406 272.175781 543.832031 269.566406 L 501.550781 296.476562 L 547.914062 253.109375 L 648.640625 158.910156 C 701.695312 109.289062 658.890625 63.175781 657.625 61.8125 C 682.105469 84.101562 697.445312 116.136719 697.445312 151.75 " fill-opacity="1" fill-rule="nonzero"/></g><g clip-path="url(#8e245e7c96)"><g clip-path="url(#0c77481e72)"><g clip-path="url(#789846c92d)"><g clip-path="url(#8de5d4b0b7)"><g clip-path="url(#41024e3dfc)"><path fill="#ffffff" d="M 638.285156 89.921875 C 571.164062 93.449219 519.644531 151.011719 523.1875 218.476562 C 523.757812 229.265625 525.707031 239.660156 528.835938 249.496094 L 504.214844 293.128906 L 545.039062 244.554688 L 633.710938 139.027344 L 649.023438 184.273438 C 649.023438 184.273438 687.140625 142.625 727.761719 138.609375 C 748.582031 136.53125 770.042969 144.355469 787.351562 172.761719 C 776.070312 133.847656 743.433594 126.414062 730.105469 125.007812 L 730.105469 124.992188 L 730.085938 124.992188 C 706.574219 101.703125 673.8125 88.054688 638.292969 89.921875 " fill-opacity="1" fill-rule="nonzero"/></g></g></g></g></g><g clip-path="url(#8323f4c83a)"><g clip-path="url(#31827efb11)"><g clip-path="url(#0b331f9f00)"><g clip-path="url(#9bc27b5fa9)"><g clip-path="url(#7bed76be7d)"><path fill="#ffffff" d="M 666.675781 118.105469 C 679.238281 184.132812 635.605469 247.882812 569.238281 260.511719 C 558.625 262.53125 548.0625 263.109375 537.765625 262.414062 L 501.253906 296.722656 L 538.703125 245.5 L 620.074219 134.242188 L 572.484375 130.152344 C 572.484375 130.152344 603.851562 83.210938 598.078125 42.800781 C 595.136719 22.085938 582.425781 3.109375 550.714844 -6.941406 C 591.195312 -5.25 606.1875 24.675781 610.726562 37.285156 L 610.746094 37.28125 L 610.746094 37.300781 C 638.96875 54.589844 660.027344 83.15625 666.675781 118.097656 " fill-opacity="1" fill-rule="nonzero"/></g></g></g></g></g><g clip-path="url(#436a6cbd26)"><g clip-path="url(#d886ec5c3e)"><g clip-path="url(#0b7bfeb6b1)"><path fill="#ffffff" d="M 635.878906 100.027344 C 665.671875 33.980469 608.542969 7.976562 606.867188 7.21875 C 646.230469 40.402344 629.230469 81.769531 616.582031 102.371094 L 635.875 100.019531 " fill-opacity="1" fill-rule="nonzero"/></g></g></g><g clip-path="url(#0ede235e5a)"><g clip-path="url(#7d63e5b33d)"><g clip-path="url(#ebeab07b87)"><path fill="#ffffff" d="M 615.210938 103.992188 C 658.863281 47.289062 609.902344 9.261719 608.464844 8.148438 C 638.722656 49.03125 612.980469 84.921875 596.140625 101.839844 L 615.210938 103.980469 " fill-opacity="1" fill-rule="nonzero"/></g></g></g><g clip-path="url(#102b22444a)"><g clip-path="url(#70def977fc)"><g clip-path="url(#062359dbe4)"><path fill="#ffffff" d="M 604.035156 103.886719 C 653.980469 52.648438 609.773438 9.1875 608.476562 7.914062 C 633.777344 52.035156 604.035156 84.6875 585.339844 99.535156 L 604.03125 103.878906 " fill-opacity="1" fill-rule="nonzero"/></g></g></g><g fill="#000f52" fill-opacity="1"><g transform="translate(8.596418, 213.542546)"><g><path d="M 107.578125 -66.375 C 114.628906 -64.0625 120.21875 -60.195312 124.34375 -54.78125 C 128.476562 -49.375 130.546875 -42.660156 130.546875 -34.640625 C 130.546875 -23.578125 126.289062 -15.035156 117.78125 -9.015625 C 109.269531 -3.003906 96.875 0 80.59375 0 L 17.140625 0 L 17.140625 -127.625 L 76.9375 -127.625 C 92.007812 -127.625 103.617188 -124.675781 111.765625 -118.78125 C 119.910156 -112.882812 123.984375 -104.773438 123.984375 -94.453125 C 123.984375 -88.128906 122.523438 -82.535156 119.609375 -77.671875 C 116.691406 -72.804688 112.679688 -69.039062 107.578125 -66.375 Z M 40.84375 -109.03125 L 40.84375 -73.84375 L 74.390625 -73.84375 C 82.648438 -73.84375 89 -75.332031 93.4375 -78.3125 C 97.875 -81.289062 100.09375 -85.632812 100.09375 -91.34375 C 100.09375 -97.175781 97.875 -101.582031 93.4375 -104.5625 C 89 -107.539062 82.648438 -109.03125 74.390625 -109.03125 Z M 79.125 -18.59375 C 97.476562 -18.59375 106.65625 -24.734375 106.65625 -37.015625 C 106.65625 -49.285156 97.476562 -55.421875 79.125 -55.421875 L 40.84375 -55.421875 L 40.84375 -18.59375 Z M 79.125 -18.59375 "/></g></g></g><g fill="#000f52" fill-opacity="1"><g transform="translate(141.222108, 213.542546)"><g><path d="M 14.953125 -135.28125 L 37.734375 -135.28125 L 37.734375 0 L 14.953125 0 Z M 14.953125 -135.28125 "/></g></g></g><g fill="#000f52" fill-opacity="1"><g transform="translate(189.42659, 213.542546)"><g><path d="M 109.21875 -97.359375 L 109.21875 0 L 87.515625 0 L 87.515625 -12.390625 C 83.867188 -8.015625 79.3125 -4.640625 73.84375 -2.265625 C 68.375 0.0976562 62.476562 1.28125 56.15625 1.28125 C 43.144531 1.28125 32.898438 -2.332031 25.421875 -9.5625 C 17.953125 -16.800781 14.21875 -27.53125 14.21875 -41.75 L 14.21875 -97.359375 L 37.015625 -97.359375 L 37.015625 -44.859375 C 37.015625 -36.097656 38.988281 -29.5625 42.9375 -25.25 C 46.882812 -20.9375 52.503906 -18.78125 59.796875 -18.78125 C 67.941406 -18.78125 74.414062 -21.300781 79.21875 -26.34375 C 84.019531 -31.382812 86.421875 -38.648438 86.421875 -48.140625 L 86.421875 -97.359375 Z M 109.21875 -97.359375 "/></g></g></g><g fill="#000f52" fill-opacity="1"><g transform="translate(312.708351, 213.542546)"><g><path d="M 106.484375 -48.140625 C 106.484375 -46.554688 106.359375 -44.304688 106.109375 -41.390625 L 29.71875 -41.390625 C 31.050781 -34.210938 34.546875 -28.523438 40.203125 -24.328125 C 45.859375 -20.140625 52.878906 -18.046875 61.265625 -18.046875 C 71.960938 -18.046875 80.773438 -21.570312 87.703125 -28.625 L 99.921875 -14.59375 C 95.546875 -9.363281 90.015625 -5.410156 83.328125 -2.734375 C 76.640625 -0.0546875 69.101562 1.28125 60.71875 1.28125 C 50.019531 1.28125 40.597656 -0.84375 32.453125 -5.09375 C 24.304688 -9.351562 18.015625 -15.28125 13.578125 -22.875 C 9.140625 -30.476562 6.921875 -39.082031 6.921875 -48.6875 C 6.921875 -58.164062 9.078125 -66.703125 13.390625 -74.296875 C 17.710938 -81.890625 23.703125 -87.8125 31.359375 -92.0625 C 39.015625 -96.320312 47.644531 -98.453125 57.25 -98.453125 C 66.726562 -98.453125 75.207031 -96.351562 82.6875 -92.15625 C 90.164062 -87.96875 96 -82.070312 100.1875 -74.46875 C 104.382812 -66.875 106.484375 -58.097656 106.484375 -48.140625 Z M 57.25 -80.21875 C 49.957031 -80.21875 43.785156 -78.0625 38.734375 -73.75 C 33.691406 -69.4375 30.625 -63.691406 29.53125 -56.515625 L 84.78125 -56.515625 C 83.8125 -63.566406 80.832031 -69.28125 75.84375 -73.65625 C 70.863281 -78.03125 64.664062 -80.21875 57.25 -80.21875 Z M 57.25 -80.21875 "/></g></g></g><g fill="#3871c1" fill-opacity="1"><g transform="translate(718.05255, 213.542546)"><g><path d="M 55.96875 1.09375 C 46.488281 1.09375 37.40625 -0.421875 28.71875 -3.453125 C 20.03125 -6.492188 13.3125 -10.507812 8.5625 -15.5 L 13.859375 -25.890625 C 18.472656 -21.273438 24.609375 -17.535156 32.265625 -14.671875 C 39.929688 -11.816406 47.832031 -10.390625 55.96875 -10.390625 C 67.394531 -10.390625 75.960938 -12.484375 81.671875 -16.671875 C 87.390625 -20.867188 90.25 -26.3125 90.25 -33 C 90.25 -38.101562 88.695312 -42.175781 85.59375 -45.21875 C 82.5 -48.257812 78.703125 -50.597656 74.203125 -52.234375 C 69.710938 -53.878906 63.453125 -55.671875 55.421875 -57.609375 C 45.828125 -60.046875 38.171875 -62.390625 32.453125 -64.640625 C 26.742188 -66.890625 21.851562 -70.320312 17.78125 -74.9375 C 13.707031 -79.550781 11.671875 -85.8125 11.671875 -93.71875 C 11.671875 -100.15625 13.367188 -106.019531 16.765625 -111.3125 C 20.171875 -116.601562 25.398438 -120.828125 32.453125 -123.984375 C 39.503906 -127.140625 48.253906 -128.71875 58.703125 -128.71875 C 66.003906 -128.71875 73.144531 -127.710938 80.125 -125.703125 C 87.113281 -123.703125 93.164062 -120.941406 98.28125 -117.421875 L 93.71875 -106.65625 C 88.363281 -110.1875 82.648438 -112.832031 76.578125 -114.59375 C 70.503906 -116.351562 64.546875 -117.234375 58.703125 -117.234375 C 47.523438 -117.234375 39.109375 -115.078125 33.453125 -110.765625 C 27.804688 -106.453125 24.984375 -100.890625 24.984375 -94.078125 C 24.984375 -88.972656 26.53125 -84.867188 29.625 -81.765625 C 32.726562 -78.671875 36.617188 -76.300781 41.296875 -74.65625 C 45.972656 -73.019531 52.265625 -71.226562 60.171875 -69.28125 C 69.523438 -66.976562 77.085938 -64.703125 82.859375 -62.453125 C 88.640625 -60.203125 93.535156 -56.796875 97.546875 -52.234375 C 101.554688 -47.679688 103.5625 -41.515625 103.5625 -33.734375 C 103.5625 -27.285156 101.828125 -21.414062 98.359375 -16.125 C 94.898438 -10.84375 89.582031 -6.648438 82.40625 -3.546875 C 75.238281 -0.453125 66.425781 1.09375 55.96875 1.09375 Z M 55.96875 1.09375 "/></g></g></g><g fill="#3871c1" fill-opacity="1"><g transform="translate(825.497922, 213.542546)"><g><path d="M 53.609375 -48.140625 L 31 -27.34375 L 31 0 L 18.046875 0 L 18.046875 -135.28125 L 31 -135.28125 L 31 -43.578125 L 88.25 -95.90625 L 104.296875 -95.90625 L 63.265625 -56.703125 L 108.125 0 L 92.265625 0 Z M 53.609375 -48.140625 "/></g></g></g><g fill="#3871c1" fill-opacity="1"><g transform="translate(931.228914, 213.542546)"><g><path d="M 18.046875 -95.90625 L 31 -95.90625 L 31 0 L 18.046875 0 Z M 24.609375 -116.875 C 21.941406 -116.875 19.695312 -117.785156 17.875 -119.609375 C 16.050781 -121.429688 15.140625 -123.617188 15.140625 -126.171875 C 15.140625 -128.597656 16.050781 -130.722656 17.875 -132.546875 C 19.695312 -134.367188 21.941406 -135.28125 24.609375 -135.28125 C 27.285156 -135.28125 29.535156 -134.398438 31.359375 -132.640625 C 33.179688 -130.878906 34.09375 -128.785156 34.09375 -126.359375 C 34.09375 -123.679688 33.179688 -121.429688 31.359375 -119.609375 C 29.535156 -117.785156 27.285156 -116.875 24.609375 -116.875 Z M 24.609375 -116.875 "/></g></g></g><g fill="#3871c1" fill-opacity="1"><g transform="translate(967.886951, 213.542546)"><g><path d="M 101.5625 -43.9375 L 21.328125 -43.9375 C 22.054688 -33.96875 25.882812 -25.914062 32.8125 -19.78125 C 39.75 -13.644531 48.503906 -10.578125 59.078125 -10.578125 C 65.035156 -10.578125 70.503906 -11.640625 75.484375 -13.765625 C 80.460938 -15.890625 84.773438 -19.019531 88.421875 -23.15625 L 95.71875 -14.765625 C 91.46875 -9.660156 86.148438 -5.769531 79.765625 -3.09375 C 73.390625 -0.425781 66.367188 0.90625 58.703125 0.90625 C 48.859375 0.90625 40.140625 -1.1875 32.546875 -5.375 C 24.953125 -9.570312 19.023438 -15.375 14.765625 -22.78125 C 10.515625 -30.195312 8.390625 -38.585938 8.390625 -47.953125 C 8.390625 -57.304688 10.425781 -65.691406 14.5 -73.109375 C 18.570312 -80.523438 24.160156 -86.300781 31.265625 -90.4375 C 38.378906 -94.570312 46.375 -96.640625 55.25 -96.640625 C 64.125 -96.640625 72.082031 -94.570312 79.125 -90.4375 C 86.175781 -86.300781 91.707031 -80.554688 95.71875 -73.203125 C 99.726562 -65.847656 101.734375 -57.429688 101.734375 -47.953125 Z M 55.25 -85.515625 C 46.007812 -85.515625 38.257812 -82.566406 32 -76.671875 C 25.738281 -70.773438 22.179688 -63.085938 21.328125 -53.609375 L 89.34375 -53.609375 C 88.488281 -63.085938 84.929688 -70.773438 78.671875 -76.671875 C 72.410156 -82.566406 64.601562 -85.515625 55.25 -85.515625 Z M 55.25 -85.515625 "/></g></g></g><g fill="#3871c1" fill-opacity="1"><g transform="translate(1071.041312, 213.542546)"><g><path d="M 43.765625 0.90625 C 35.984375 0.90625 28.535156 -0.210938 21.421875 -2.453125 C 14.304688 -4.703125 8.742188 -7.53125 4.734375 -10.9375 L 10.578125 -21.15625 C 14.585938 -17.988281 19.628906 -15.398438 25.703125 -13.390625 C 31.785156 -11.390625 38.109375 -10.390625 44.671875 -10.390625 C 53.421875 -10.390625 59.890625 -11.753906 64.078125 -14.484375 C 68.273438 -17.222656 70.375 -21.085938 70.375 -26.078125 C 70.375 -29.597656 69.21875 -32.359375 66.90625 -34.359375 C 64.601562 -36.367188 61.6875 -37.890625 58.15625 -38.921875 C 54.632812 -39.960938 49.957031 -40.96875 44.125 -41.9375 C 36.34375 -43.394531 30.082031 -44.882812 25.34375 -46.40625 C 20.601562 -47.925781 16.5625 -50.507812 13.21875 -54.15625 C 9.875 -57.800781 8.203125 -62.84375 8.203125 -69.28125 C 8.203125 -77.300781 11.546875 -83.863281 18.234375 -88.96875 C 24.921875 -94.082031 34.21875 -96.640625 46.125 -96.640625 C 52.320312 -96.640625 58.519531 -95.816406 64.71875 -94.171875 C 70.925781 -92.535156 76.035156 -90.378906 80.046875 -87.703125 L 74.390625 -77.3125 C 66.484375 -82.78125 57.0625 -85.515625 46.125 -85.515625 C 37.863281 -85.515625 31.632812 -84.054688 27.4375 -81.140625 C 23.25 -78.222656 21.15625 -74.394531 21.15625 -69.65625 C 21.15625 -66 22.335938 -63.078125 24.703125 -60.890625 C 27.078125 -58.703125 30.023438 -57.09375 33.546875 -56.0625 C 37.066406 -55.03125 41.929688 -53.96875 48.140625 -52.875 C 55.796875 -51.414062 61.929688 -49.957031 66.546875 -48.5 C 71.171875 -47.039062 75.125 -44.546875 78.40625 -41.015625 C 81.6875 -37.492188 83.328125 -32.632812 83.328125 -26.4375 C 83.328125 -18.050781 79.832031 -11.394531 72.84375 -6.46875 C 65.851562 -1.550781 56.160156 0.90625 43.765625 0.90625 Z M 43.765625 0.90625 "/></g></g></g></svg>