<svg xmlns="http://www.w3.org/2000/svg" xmlns:xlink="http://www.w3.org/1999/xlink" width="500" zoomAndPan="magnify" viewBox="0 0 375 374.999991" height="500" preserveAspectRatio="xMidYMid meet" version="1.0"><defs><clipPath id="53094dac45"><path d="M 29.65625 29.746094 L 345.953125 29.746094 L 345.953125 344 L 29.65625 344 Z M 29.65625 29.746094 " clip-rule="nonzero"/></clipPath><clipPath id="eb2424999d"><path d="M 187.5 29.746094 C 100.324219 29.746094 29.65625 100.058594 29.65625 186.792969 C 29.65625 273.53125 100.324219 343.84375 187.5 343.84375 C 274.675781 343.84375 345.34375 273.53125 345.34375 186.792969 C 345.34375 100.058594 274.675781 29.746094 187.5 29.746094 " clip-rule="nonzero"/></clipPath><clipPath id="03364f4d69"><path d="M 28.164062 27.628906 L 243.949219 27.628906 L 243.949219 332.125 L 28.164062 332.125 Z M 28.164062 27.628906 " clip-rule="nonzero"/></clipPath><clipPath id="ab173a2b36"><path d="M 28.253906 27.628906 L 243.863281 27.628906 L 243.863281 188 L 28.253906 188 Z M 28.253906 27.628906 " clip-rule="nonzero"/></clipPath><clipPath id="fd4f943c42"><path d="M 92 0.15625 L 346.941406 0.15625 L 346.941406 374.84375 L 92 374.84375 Z M 92 0.15625 " clip-rule="nonzero"/></clipPath><clipPath id="b1b0f96b06"><path d="M 261.339844 73 L 319.089844 73 L 319.089844 197.988281 L 261.339844 197.988281 Z M 261.339844 73 " clip-rule="nonzero"/></clipPath><clipPath id="63d22858ae"><path d="M 92 70.484375 L 346.941406 70.484375 L 346.941406 374.984375 L 92 374.984375 Z M 92 70.484375 " clip-rule="nonzero"/></clipPath><clipPath id="a71de77305"><path d="M 96 313 L 147 313 L 147 371 L 96 371 Z M 96 313 " clip-rule="nonzero"/></clipPath><clipPath id="e39f01ec76"><path d="M 95.9375 371.335938 L 93.066406 316.660156 L 143.996094 313.984375 L 146.867188 368.660156 Z M 95.9375 371.335938 " clip-rule="nonzero"/></clipPath><clipPath id="624b112a3b"><path d="M 470.410156 351.664062 L 457.035156 97.015625 L 82.550781 116.6875 L 95.929688 371.335938 Z M 470.410156 351.664062 " clip-rule="nonzero"/></clipPath><clipPath id="5f97147ef0"><path d="M 470.253906 351.671875 L 456.839844 96.285156 L 82.667969 115.941406 L 96.085938 371.328125 Z M 470.253906 351.671875 " clip-rule="nonzero"/></clipPath><clipPath id="0d1359b2f0"><path d="M 470.253906 351.671875 L 456.878906 97.023438 L 82.707031 116.675781 L 96.085938 371.328125 Z M 470.253906 351.671875 " clip-rule="nonzero"/></clipPath><clipPath id="42ba1f1f45"><path d="M 92 315 L 146 315 L 146 375 L 92 375 Z M 92 315 " clip-rule="nonzero"/></clipPath><clipPath id="4c657fe46e"><path d="M 82.03125 325.25 L 135.816406 315.015625 L 145.347656 365.117188 L 91.5625 375.351562 Z M 82.03125 325.25 " clip-rule="nonzero"/></clipPath><clipPath id="cd973cffb9"><path d="M 21.515625 7.222656 L 272.023438 -40.441406 L 342.121094 327.949219 L 91.613281 375.613281 Z M 21.515625 7.222656 " clip-rule="nonzero"/></clipPath><clipPath id="8613f8e078"><path d="M 21.546875 7.378906 L 272.777344 -40.425781 L 342.816406 327.65625 L 91.585938 375.460938 Z M 21.546875 7.378906 " clip-rule="nonzero"/></clipPath><clipPath id="96c488aaed"><path d="M 21.546875 7.378906 L 272.050781 -40.289062 L 342.089844 327.792969 L 91.585938 375.460938 Z M 21.546875 7.378906 " clip-rule="nonzero"/></clipPath><clipPath id="abe3fddf80"><path d="M 229 0 L 278 0 L 278 70 L 229 70 Z M 229 0 " clip-rule="nonzero"/></clipPath><clipPath id="76c842cb71"><path d="M 221.160156 2.738281 L 250.230469 -9.390625 L 277.957031 57.054688 L 248.886719 69.1875 Z M 221.160156 2.738281 " clip-rule="nonzero"/></clipPath><clipPath id="c9edc43eb0"><path d="M 195.792969 13.324219 L 249.78125 -9.203125 L 298.59375 107.769531 L 244.605469 130.300781 Z M 195.792969 13.324219 " clip-rule="nonzero"/></clipPath><clipPath id="2be51aa119"><path d="M 222 1 L 264 1 L 264 73 L 222 73 Z M 222 1 " clip-rule="nonzero"/></clipPath><clipPath id="41ad6c2a21"><path d="M 222.996094 2.011719 L 253.339844 -2.964844 L 264.871094 67.347656 L 234.523438 72.324219 Z M 222.996094 2.011719 " clip-rule="nonzero"/></clipPath><clipPath id="f3c8ba51a8"><path d="M 196.164062 6.410156 L 253.15625 -2.933594 L 273.421875 120.664062 L 216.433594 130.011719 Z M 196.164062 6.410156 " clip-rule="nonzero"/></clipPath><clipPath id="ccc0389e00"><path d="M 222 1 L 257 1 L 257 72 L 222 72 Z M 222 1 " clip-rule="nonzero"/></clipPath><clipPath id="e8fc742412"><path d="M 222.984375 0.746094 L 253.699219 -0.667969 L 256.976562 70.507812 L 226.261719 71.921875 Z M 222.984375 0.746094 " clip-rule="nonzero"/></clipPath><clipPath id="60514c4a0c"><path d="M 195.824219 1.996094 L 253.515625 -0.660156 L 259.273438 124.457031 L 201.585938 127.113281 Z M 195.824219 1.996094 " clip-rule="nonzero"/></clipPath></defs><g clip-path="url(#53094dac45)"><g clip-path="url(#eb2424999d)"><path fill="#ffffff" d="M 29.65625 29.746094 L 345.328125 29.746094 L 345.328125 343.542969 L 29.65625 343.542969 Z M 29.65625 29.746094 " fill-opacity="1" fill-rule="nonzero"/></g></g><g clip-path="url(#03364f4d69)"><path fill="#3871c1" d="M 243.09375 37.34375 C 242.695312 41.558594 241.851562 46.152344 240.441406 51.082031 C 231.050781 84.1875 196.410156 133.5 98.433594 201.3125 L 175.804688 228.28125 L 128.804688 312.757812 L 118.074219 332.03125 C 64.832031 305.90625 28.164062 251.324219 28.164062 188.140625 C 28.164062 99.679688 100.109375 27.964844 188.863281 27.964844 C 207.898438 27.964844 226.140625 31.253906 243.070312 37.316406 " fill-opacity="1" fill-rule="nonzero"/></g><g clip-path="url(#ab173a2b36)"><path fill="#000f52" d="M 243.007812 37.304688 C 203.527344 124.144531 28.253906 187.535156 28.253906 187.535156 C 28.253906 99.410156 100.140625 27.964844 188.820312 27.964844 C 207.839844 27.964844 226.070312 31.238281 242.984375 37.28125 " fill-opacity="1" fill-rule="nonzero"/></g><g clip-path="url(#fd4f943c42)"><path fill="#f68712" d="M 346.515625 187.464844 C 346.515625 274.558594 275.527344 345.140625 187.980469 345.140625 C 173.980469 345.140625 160.394531 343.320312 147.453125 339.941406 L 92.667969 374.769531 L 152.75 318.640625 L 283.28125 196.71875 L 223.6875 179.984375 C 223.6875 179.984375 274.992188 127.824219 277.429688 74.988281 C 278.703125 47.902344 267.117188 20.664062 229.183594 0.191406 C 280.308594 12.148438 292.144531 53.875 294.867188 71.027344 L 294.890625 71.027344 L 294.890625 71.050781 C 326.625 99.894531 346.515625 141.359375 346.515625 187.453125 " fill-opacity="1" fill-rule="nonzero"/></g><g clip-path="url(#b1b0f96b06)"><path fill="#f14624" d="M 285.277344 197.347656 C 352.984375 133.996094 298.351562 75.101562 296.746094 73.378906 C 326.871094 132 286.425781 172.496094 261.339844 190.601562 L 285.277344 197.335938 " fill-opacity="1" fill-rule="nonzero"/></g><g clip-path="url(#63d22858ae)"><path fill="#ffc108" d="M 346.515625 187.40625 C 346.515625 274.601562 275.527344 345.269531 187.980469 345.269531 C 173.980469 345.269531 160.394531 343.449219 147.453125 340.066406 L 92.667969 374.9375 L 152.75 318.738281 L 283.269531 196.671875 C 352.019531 132.375 296.554688 72.617188 294.914062 70.851562 C 326.636719 99.730469 346.515625 141.246094 346.515625 187.394531 " fill-opacity="1" fill-rule="nonzero"/></g><g clip-path="url(#a71de77305)"><g clip-path="url(#e39f01ec76)"><g clip-path="url(#624b112a3b)"><g clip-path="url(#5f97147ef0)"><g clip-path="url(#0d1359b2f0)"><path fill="#ffffff" d="M 269.851562 107.277344 C 182.878906 111.84375 116.113281 186.4375 120.707031 273.863281 C 121.441406 287.84375 123.972656 301.3125 128.023438 314.058594 L 96.117188 370.597656 L 149.019531 307.65625 L 263.925781 170.90625 L 283.765625 229.539062 C 283.765625 229.539062 333.160156 175.570312 385.796875 170.363281 C 412.777344 167.671875 440.585938 177.8125 463.019531 214.621094 C 448.398438 164.195312 406.109375 154.5625 388.839844 152.742188 L 388.835938 152.71875 L 388.8125 152.722656 C 358.34375 122.542969 315.890625 104.855469 269.863281 107.273438 " fill-opacity="1" fill-rule="nonzero"/></g></g></g></g></g><g clip-path="url(#42ba1f1f45)"><g clip-path="url(#4c657fe46e)"><g clip-path="url(#cd973cffb9)"><g clip-path="url(#8613f8e078)"><g clip-path="url(#96c488aaed)"><path fill="#ffffff" d="M 306.644531 143.796875 C 322.921875 229.355469 266.378906 311.964844 180.378906 328.328125 C 166.625 330.945312 152.941406 331.699219 139.59375 330.796875 L 92.285156 375.253906 L 140.8125 308.882812 L 246.253906 164.707031 L 184.585938 159.40625 C 184.585938 159.40625 225.234375 98.578125 217.75 46.21875 C 213.9375 19.371094 197.464844 -5.222656 156.375 -18.242188 C 208.832031 -16.054688 228.257812 22.726562 234.140625 39.066406 L 234.164062 39.0625 L 234.167969 39.085938 C 270.738281 61.488281 298.027344 98.507812 306.640625 143.785156 " fill-opacity="1" fill-rule="nonzero"/></g></g></g></g></g><g clip-path="url(#abe3fddf80)"><g clip-path="url(#76c842cb71)"><g clip-path="url(#c9edc43eb0)"><path fill="#ffffff" d="M 266.734375 120.371094 C 305.339844 34.785156 231.3125 1.089844 229.140625 0.105469 C 280.148438 43.109375 258.121094 96.710938 241.726562 123.40625 L 266.730469 120.359375 " fill-opacity="1" fill-rule="nonzero"/></g></g></g><g clip-path="url(#2be51aa119)"><g clip-path="url(#41ad6c2a21)"><g clip-path="url(#f3c8ba51a8)"><path fill="#ffffff" d="M 239.953125 125.507812 C 296.515625 52.03125 233.074219 2.753906 231.210938 1.3125 C 270.421875 54.289062 237.0625 100.796875 215.238281 122.722656 L 239.949219 125.496094 " fill-opacity="1" fill-rule="nonzero"/></g></g></g><g clip-path="url(#ccc0389e00)"><g clip-path="url(#e8fc742412)"><g clip-path="url(#60514c4a0c)"><path fill="#ffffff" d="M 225.46875 125.375 C 290.191406 58.972656 232.90625 2.65625 231.222656 1.007812 C 264.011719 58.183594 225.472656 100.496094 201.246094 119.734375 L 225.46875 125.363281 " fill-opacity="1" fill-rule="nonzero"/></g></g></g></svg>