<svg width="46" height="46" viewBox="0 0 46 46" fill="none" xmlns="http://www.w3.org/2000/svg">
<path opacity="0.5" d="M3.83301 21.5625C3.83301 16.0051 7.69455 11.5 12.458 11.5C17.2215 11.5 21.083 16.0051 21.083 21.5625V38.3333H8.11208C5.74881 38.3333 3.83301 36.0982 3.83301 33.3411V21.5625Z" fill="#1C274C"/>
<path opacity="0.8" d="M21.083 21.5625V38.3333H26.833H28.7497H37.9365C40.2726 38.3333 42.1663 36.1239 42.1663 33.3985V21.5625C42.1663 16.0051 38.3048 11.5 33.5413 11.5H12.458C17.2215 11.5 21.083 16.0051 21.083 21.5625Z" fill="#1C274C"/>
<path d="M18.208 38.3333V42.1666C18.208 42.9605 18.8516 43.6041 19.6455 43.6041C20.4394 43.6041 21.083 42.9605 21.083 42.1666V38.3333H18.208Z" fill="#1C274C"/>
<path d="M28.7497 38.3333H25.8747V42.1666C25.8747 42.9605 26.5183 43.6041 27.3122 43.6041C28.1061 43.6041 28.7497 42.9605 28.7497 42.1666V38.3333Z" fill="#1C274C"/>
<path fill-rule="evenodd" clip-rule="evenodd" d="M8.14551 30.6667C8.14551 29.8728 8.7891 29.2292 9.58301 29.2292H15.333C16.1269 29.2292 16.7705 29.8728 16.7705 30.6667C16.7705 31.4607 16.1269 32.1042 15.333 32.1042H9.58301C8.7891 32.1042 8.14551 31.4607 8.14551 30.6667Z" fill="#1C274C"/>
<path fill-rule="evenodd" clip-rule="evenodd" d="M33.3208 12.6206L33.8116 12.5224C34.6085 12.3628 35.4324 12.439 36.1896 12.7422C37.5127 13.2719 38.9596 13.3709 40.3381 13.0259L40.4559 12.9964C41.4596 12.7453 42.167 11.8123 42.167 10.7397V6.65619C42.167 5.24205 40.894 4.20019 39.5707 4.53133C38.8109 4.72148 38.0133 4.66693 37.284 4.37492L37.1439 4.31883C35.9229 3.82996 34.5944 3.70715 33.3095 3.96437L32.4495 4.13654C31.4148 4.3437 30.667 5.28459 30.667 6.37946V19.7046C30.667 20.466 31.2611 21.0833 31.9939 21.0833C32.7268 21.0833 33.3208 20.466 33.3208 19.7046V12.6206Z" fill="#1C274C"/>
</svg>
