<?xml version="1.0" encoding="UTF-8"?>
<svg id="a" data-name="Layer 1" xmlns="http://www.w3.org/2000/svg" xmlns:xlink="http://www.w3.org/1999/xlink" viewBox="0 0 1068.23 870.48">
  <defs>
    <clipPath id="c">
      <path d="M103.04,605.37c.14-4.54,.15-8.1-.22-13.8,12.73-4.37,20.11-39.62,20.11-39.62-9.59,20.6-17.28,31.16-21.25,32.27-.45-4.44-1.01-14.96-1.25-19.37-.21-3.92-.47-7.6-.98-10.67-.81-4.82,1.63-26.47-.52-28.51,0,0-4,31.68-5.68,28.16-5.25-11-8.11-12.68-14.36-22-.78-1.16,14.38,30.91,14.22,32.72-.63,7.24-1.45,17.71-2.47,32.9-4.73-2.65-11.96-7.78-15.96-11.2,2.76-9.37-6.08-27.77-6.08-27.77,.26,9.92,4.07,23.12,2.28,24.34-3.88-4.61-23.36-19.17-27.96-25.16,0,0,27.23,35.75,47.01,49.55-.91,11.6-1.28,30.71-1.75,34.43-1,7.74-2.54,16.69-4.11,23.46-1.2,1.4,6.29,5.94,13.19,4.72,6.36-1.12,10.96-1.8,9.88-4.72-.38-3.35-1.23-6.56-1.3-10.15-.15-7.14-.35-32.28-1.18-37.29,28.75-14.3,52.89-48.73,52.89-48.73-20.65,20.21-45.89,35.77-54.48,36.44h-.03Z" fill="none"/>
    </clipPath>
    <clipPath id="d">
      <path d="M956.6,682.93c-.14-4.58-.15-8.18,.23-13.93-12.86-4.42-20.31-40-20.31-40,9.68,20.8,17.45,31.46,21.46,32.58,.45-4.48,1.02-15.1,1.27-19.56,.22-3.96,.47-7.67,.99-10.77,.82-4.87-1.64-26.72,.53-28.78,0,0,4.04,31.99,5.74,28.43,5.3-11.11,8.19-12.8,14.5-22.21,.79-1.17-14.52,31.21-14.35,33.04,.64,7.31,1.46,17.89,2.49,33.22,4.77-2.67,12.07-7.86,16.11-11.31-2.78-9.46,6.14-28.04,6.14-28.04-.26,10.02-4.11,23.34-2.3,24.57,3.92-4.66,23.59-19.35,28.23-25.4,0,0-27.5,36.09-47.46,50.03,.92,11.72,1.29,31.01,1.77,34.76,1.01,7.82,2.57,16.86,4.15,23.69,1.21,1.41-6.35,6-13.32,4.77-6.42-1.13-11.07-1.82-9.97-4.77,.38-3.39,1.24-6.62,1.32-10.25,.15-7.21,.36-32.6,1.19-37.65-29.03-14.44-53.4-49.2-53.4-49.2,20.85,20.41,46.33,36.12,55.01,36.8l-.02-.02Z" fill="none"/>
    </clipPath>
  </defs>
  <g id="b" data-name="Layer 1">
    <g>
      <g>
        <path d="M148.95,667.01c0,8.44-20.79,15.29-46.44,15.29s-46.43-6.84-46.43-15.29,20.79-15.29,46.43-15.29,46.44,6.84,46.44,15.29Z" fill="#242b52" isolation="isolate" opacity=".2"/>
        <path d="M128.44,667.81c0,5.63-15.59,10.19-34.83,10.19s-34.83-4.56-34.83-10.19,15.59-10.19,34.83-10.19,34.83,4.56,34.83,10.19Z" fill="#242b52" isolation="isolate" opacity=".2"/>
      </g>
      <g>
        <path d="M103.04,605.37c.14-4.54,.15-8.1-.22-13.8,12.73-4.37,20.11-39.62,20.11-39.62-9.59,20.6-17.28,31.16-21.25,32.27-.45-4.44-1.01-14.96-1.25-19.37-.21-3.92-.47-7.6-.98-10.67-.81-4.82,1.63-26.47-.52-28.51,0,0-4,31.68-5.68,28.16-5.25-11-8.11-12.68-14.36-22-.78-1.16,14.38,30.91,14.22,32.72-.63,7.24-1.45,17.71-2.47,32.9-4.73-2.65-11.96-7.78-15.96-11.2,2.76-9.37-6.08-27.77-6.08-27.77,.26,9.92,4.07,23.12,2.28,24.34-3.88-4.61-23.36-19.17-27.96-25.16,0,0,27.23,35.75,47.01,49.55-.91,11.6-1.28,30.71-1.75,34.43-1,7.74-2.54,16.69-4.11,23.46-1.2,1.4,6.29,5.94,13.19,4.72,6.36-1.12,10.96-1.8,9.88-4.72-.38-3.35-1.23-6.56-1.3-10.15-.15-7.14-.35-32.28-1.18-37.29,28.75-14.3,52.89-48.73,52.89-48.73-20.65,20.21-45.89,35.77-54.48,36.44h-.03Z" fill="#43596d"/>
        <g clip-path="url(#c)">
          <g>
            <path d="M89.91,607.21s3.08,6.82,3.08,10.74,.98,30.44,0,32.89-3.08,26.51-3.08,26.51c0,0-1.51-29.32-1.75-35.72-.17-4.51,1.75-34.43,1.75-34.43h0Z" fill="#ffde96" isolation="isolate" opacity=".13"/>
            <path d="M100.21,675.88s-2.31-15.22-1.33-24.05c.98-8.84,2.95-10.31,1.47-22.58-1.47-12.27-3.44-24.05-2.95-30.44s.49-22.09,.49-22.09l4.92,14.86s-.99-3.57,3.43-6.02,6.38,0,6.38,0l-9.58,19.82s-1.22,7.67,.75,6.69c1.96-.98,10.31-2.45,14.24-4.91,3.93-2.45,12.76-1.47,7.36,.49-5.4,1.96-18.65,29.45-18.65,31.91s-1.47,22.58-.98,29.95c.49,7.36-5.54,6.38-5.54,6.38h0Z" fill="#2f1d00" isolation="isolate" opacity=".2"/>
            <path d="M75.8,607.64s8.35-4.42,9.82-4.91,6.87,.49,7.36,2.95c.49,2.45,4.91,11.29,7.36,10.31,2.45-.98,2.45-9.33,5.89-11.78s13.75-3.44,17.67-.98c3.93,2.45,43.69-17.67,43.69-17.67,0,0-2.95-65.78-4.91-65.78s-87.87,1.47-87.87,1.47l-12.76,59.4,13.75,27h0Z" fill="#2f1d00" isolation="isolate" opacity=".2"/>
          </g>
        </g>
      </g>
      <g>
        <path d="M184.3,579.15c8.78-6.51,14.5-16.94,14.5-28.76,0-12.88-6.79-24.13-16.94-30.42-.38-24.42-19.42-44.41-43.5-45.09-5.72-.16-11.2,.82-16.29,2.69-1.44-23.43-20.09-42.27-43.46-42.92-24.76-.69-45.39,19.29-46.11,44.65-.29,10.38,2.86,20.02,8.32,27.87-.02,.05-.05,.1-.07,.16-21.32,3.03-38.04,21.41-38.67,44.16-.1,3.46,.22,6.82,.83,10.08-4.49,6.97-3.82,16.45,2.21,22.93,3.22,3.47,7.4,5.45,11.7,5.96,2.12,17.69,17.06,31.4,35.21,31.4,16.17,0,29.8-10.89,34.08-25.77,7.62,2.51,16.3,1.76,23.75-2.75,7.64,7.16,17.71,11.68,28.9,11.99,7.68,.21,14.96-1.57,21.38-4.88,2.95,3.56,7.38,5.84,12.37,5.84,8.9,0,16.12-7.22,16.12-16.15,0-4.25-1.65-8.11-4.34-10.98h.01Z" fill="#00c48b"/>
        <path d="M71.76,448.22c20.66-4.7,28.96-.59,42.31,6-7.85-11.49-20.72-19.16-35.47-19.57-24.76-.69-45.39,19.29-46.11,44.65-.29,10.38,2.86,20.02,8.32,27.87-.02,.05-.05,.1-.07,.16-21.32,3.03-38.04,21.41-38.67,44.16-.06,2.26,.06,4.48,.31,6.64,3.89-8.63,22.03-40.67,48.07-34.74,15.87,3.63,19.21,3.05,27.81-2.68,3.15-2.09,.13-3.3-13.01-7.39-28.51-8.88-32.55-56.22,6.51-65.1Z" fill="#f1f3be" isolation="isolate" opacity=".3"/>
        <path d="M103.12,486.09c-4.73,6.51,.68,6.93,13.32,3.55,7.32-1.95,21.32-5.11,33.88-4.12,4.61,.37,15.46,2.84,18.58,2.91-7.81-8.08-18.55-13.21-30.54-13.54-5.72-.16-11.2,.82-16.29,2.69,0,0-14.21,2.01-18.95,8.52h0Z" fill="#f1f3be" isolation="isolate" opacity=".3"/>
        <g opacity=".5">
          <path d="M198.79,550.39c0-12.88-6.79-24.13-16.94-30.42-.06-4.22-.72-8.3-1.83-12.18-2.23,3.68-5.74,7.43-11.21,9.08-12.44,3.75-4.73,10.26-4.73,10.26,0,0,16.55,28.57-10.65,44.97-11.47,6.93-28.57,8.33-43,4.93-17.19-4.05-31.55-26.05-31.55-26.05,0,0,2.75,31.18-28.42,39.67-14.75,4.01-29.81-10.68-29.81-10.68,0,0-2.14,.82-10.43,1.03-2.94,.08-5.47,.1-7.57,.1,.71,1.2,1.49,2.35,2.47,3.4,3.22,3.47,7.4,5.45,11.7,5.96,2.12,17.69,17.06,31.4,35.21,31.4,16.17,0,29.8-10.89,34.08-25.77,7.62,2.51,16.3,1.76,23.75-2.75,7.64,7.16,17.71,11.68,28.9,11.99,7.68,.21,14.96-1.57,21.38-4.88,2.95,3.56,7.38,5.84,12.37,5.84,8.9,0,16.12-7.22,16.12-16.15,0-4.25-1.65-8.11-4.34-10.98,8.78-6.51,14.5-16.94,14.5-28.76h0Z" fill="#005a56" isolation="isolate" opacity=".71"/>
          <path d="M160.03,555.7c0,5.35-4.35,9.7-9.71,9.7s-9.72-4.35-9.72-9.7,4.35-9.71,9.72-9.71,9.71,4.35,9.71,9.71Z" fill="#005a56" isolation="isolate" opacity=".71"/>
          <path d="M140.25,565.4c0,3.4-2.75,6.16-6.15,6.16s-6.16-2.76-6.16-6.16,2.76-6.16,6.16-6.16,6.15,2.76,6.15,6.16Z" fill="#005a56" isolation="isolate" opacity=".71"/>
          <path d="M42.9,575.71c0,3.4-2.75,6.16-6.16,6.16s-6.16-2.75-6.16-6.16,2.76-6.16,6.16-6.16,6.16,2.76,6.16,6.16Z" fill="#005a56" isolation="isolate" opacity=".71"/>
          <path d="M156.47,540.04c0,2.5-2.02,4.53-4.52,4.53s-4.52-2.03-4.52-4.53,2.02-4.52,4.52-4.52,4.52,2.03,4.52,4.52Z" fill="#005a56" isolation="isolate" opacity=".71"/>
          <path d="M51.96,564.83c0,2.5-2.03,4.53-4.53,4.53s-4.53-2.03-4.53-4.53,2.02-4.53,4.53-4.53,4.53,2.03,4.53,4.53Z" fill="#005a56" isolation="isolate" opacity=".71"/>
        </g>
        <path d="M67.11,468.7c0,3.4-2.76,6.16-6.16,6.16s-6.16-2.76-6.16-6.16,2.76-6.16,6.16-6.16,6.16,2.76,6.16,6.16Z" fill="#f1f3be" isolation="isolate" opacity=".3"/>
        <path d="M50.69,535.52c0,5.55-4.51,10.04-10.05,10.04s-10.05-4.49-10.05-10.04,4.49-10.05,10.05-10.05,10.05,4.49,10.05,10.05Z" fill="#f1f3be" isolation="isolate" opacity=".3"/>
        <path d="M70.44,457.52c0,1.6-1.29,2.89-2.89,2.89s-2.89-1.3-2.89-2.89,1.29-2.9,2.89-2.9,2.89,1.29,2.89,2.9Z" fill="#f1f3be" isolation="isolate" opacity=".3"/>
        <path d="M102.29,496.38c0,1.6-1.3,2.89-2.89,2.89s-2.9-1.29-2.9-2.89,1.3-2.91,2.9-2.91,2.89,1.3,2.89,2.91Z" fill="#f1f3be" isolation="isolate" opacity=".3"/>
      </g>
    </g>
    <g>
      <polygon points="662.68 832.79 551.61 803.06 471.13 824.6 471.13 870.48 522.01 870.48 662.68 832.79" fill="#242b52" isolation="isolate" opacity=".15"/>
      <polygon points="611.4 832.95 798.7 832.95 1068.23 760.73 787.35 685.55 611.4 732.64 611.4 832.95" fill="#242b52" isolation="isolate" opacity=".15"/>
      <g>
        <polygon points="898.92 463.49 611.4 540.53 611.4 818.18 898.92 741.14 898.92 463.49" fill="#b4bdc5"/>
        <polygon points="141.82 692.36 611.4 818.18 611.4 540.53 141.82 414.71 141.82 692.36" fill="#e6e7e8"/>
        <polygon points="898.92 463.49 429.33 337.67 141.82 414.71 611.4 540.53 898.92 463.49" fill="#404079"/>
        <polygon points="898.92 739.18 611.4 816.22 611.4 832.95 898.92 755.91 898.92 739.18" fill="#9fa8b6"/>
        <polygon points="141.82 707.13 611.4 832.95 611.4 816.22 141.82 690.39 141.82 707.13" fill="#b4bdc5"/>
      </g>
      <g>
        <g>
          <g>
            <polygon points="362.03 749.31 285.58 728.82 285.58 546.74 362.03 567.23 362.03 749.31" fill="#566575"/>
            <polygon points="285.58 546.74 285.58 728.82 294.49 726.44 294.49 549.13 285.58 546.74" fill="#b4bdc5"/>
            <polygon points="362.03 749.31 285.58 728.82 294.49 726.44 362.03 744.53 362.03 749.31" fill="#e6e7e8"/>
          </g>
          <polygon points="355.68 736.33 301.05 721.69 301.05 554.6 355.68 569.24 355.68 736.33" fill="#303a66"/>
        </g>
        <g>
          <g>
            <polygon points="285.58 729.02 209.12 708.53 209.12 526.45 285.58 546.94 285.58 729.02" fill="#566575"/>
            <polygon points="209.12 526.45 209.12 708.53 218.04 706.15 218.04 528.84 209.12 526.45" fill="#b4bdc5"/>
            <polygon points="285.58 729.02 209.12 708.53 218.04 706.15 285.58 724.24 285.58 729.02" fill="#e6e7e8"/>
          </g>
          <polygon points="279.22 716.04 224.59 701.4 224.59 534.31 279.22 548.95 279.22 716.04" fill="#242b52"/>
        </g>
      </g>
      <g>
        <g>
          <polygon points="786.11 702.73 862.57 682.25 862.57 569.09 786.11 589.58 786.11 702.73" fill="#566575"/>
          <polygon points="862.57 569.09 862.57 682.25 853.65 679.86 853.65 571.48 862.57 569.09" fill="#7d8191"/>
          <polygon points="786.11 702.73 862.57 682.25 853.65 679.86 786.11 697.96 786.11 702.73" fill="#e6e7e8"/>
        </g>
        <polygon points="792.47 689.76 847.1 675.12 847.1 576.94 792.47 591.58 792.47 689.76" fill="#00123e"/>
      </g>
      <g>
        <g>
          <polygon points="574.41 807.32 429.33 768.45 429.33 586.81 574.41 625.68 574.41 807.32" fill="#303a66"/>
          <polygon points="429.33 586.81 429.33 768.45 446.25 763.92 446.25 591.35 429.33 586.81" fill="#7d8191"/>
          <polygon points="574.41 807.32 429.33 768.45 446.25 763.92 574.41 798.26 574.41 807.32" fill="#e6e7e8"/>
        </g>
        <polygon points="567.77 793.04 495.69 773.72 495.69 609.01 567.77 628.33 567.77 793.04" fill="#00123e"/>
        <polygon points="503.67 718.54 495.69 716.4 495.69 689.5 503.67 691.64 503.67 718.54" fill="#9fa8b6"/>
      </g>
      <g>
        <polygon points="6.33 733.05 471.13 857.58 471.13 870.48 6.33 745.95 6.33 733.05" fill="#e6e7e8"/>
        <polygon points="6.33 733.05 471.13 857.58 613.55 819.41 148.75 694.88 6.33 733.05" fill="#001230"/>
        <polygon points="613.55 819.41 613.55 832.32 471.13 870.48 471.13 857.58 613.55 819.41" fill="#9fa8b6"/>
      </g>
      <g>
        <polygon points="41.82 739.15 21.48 733.7 153.94 698.21 174.28 703.66 41.82 739.15" fill="#c09e72"/>
        <polygon points="72.11 747.27 51.77 741.82 184.24 706.32 204.58 711.77 72.11 747.27" fill="#d4b98b"/>
        <polygon points="102.41 755.38 82.06 749.93 214.53 714.44 234.87 719.89 102.41 755.38" fill="#aa8d66"/>
        <polygon points="132.7 763.5 112.36 758.05 244.82 722.56 265.16 728.01 132.7 763.5" fill="#c09e72"/>
        <polygon points="233.54 790.52 253.88 795.97 386.34 760.48 366 755.03 233.54 790.52" fill="#c09e72"/>
        <polygon points="203.24 782.4 223.58 787.85 356.05 752.36 335.71 746.91 203.24 782.4" fill="#d4b98b"/>
        <polygon points="172.95 774.29 193.29 779.74 325.75 744.24 305.41 738.79 172.95 774.29" fill="#aa8d66"/>
        <polygon points="142.65 766.17 162.99 771.62 295.46 736.12 275.12 730.67 142.65 766.17" fill="#c09e72"/>
        <polygon points="284.17 804.09 263.83 798.64 396.29 763.14 416.64 768.59 284.17 804.09" fill="#c09e72"/>
        <polygon points="314.46 812.21 294.12 806.75 426.59 771.26 446.93 776.71 314.46 812.21" fill="#d4b98b"/>
        <polygon points="344.76 820.32 324.42 814.87 456.88 779.38 477.22 784.83 344.76 820.32" fill="#aa8d66"/>
        <polygon points="375.05 828.44 354.71 822.99 487.18 787.5 507.52 792.95 375.05 828.44" fill="#c09e72"/>
        <polygon points="445.59 847.34 465.94 852.79 598.4 817.3 578.06 811.85 445.59 847.34" fill="#d4b98b"/>
        <polygon points="415.3 839.22 435.64 844.67 568.11 809.18 547.77 803.73 415.3 839.22" fill="#aa8d66"/>
        <polygon points="385.01 831.11 405.35 836.56 537.81 801.06 517.47 795.61 385.01 831.11" fill="#c09e72"/>
      </g>
      <g>
        <polygon points="429.33 492.47 577.81 492.47 791.46 435.22 568.81 375.62 429.33 412.95 429.33 492.47" fill="#242b52" isolation="isolate" opacity=".15"/>
        <g>
          <polygon points="716.85 137.78 429.33 214.82 429.33 492.47 716.85 415.43 716.85 137.78" fill="#b4bdc5"/>
          <polygon points="141.82 137.78 429.33 214.82 429.33 492.47 141.82 415.43 141.82 137.78" fill="#e6e7e8"/>
          <polygon points="716.78 137.78 429.3 60.74 141.82 137.78 429.3 214.81 716.78 137.78" fill="#404079"/>
          <polygon points="669.78 137.78 429.3 73.34 188.81 137.78 429.3 202.21 669.78 137.78" fill="#303a66"/>
          <polygon points="429.3 73.34 188.81 137.78 203.96 141.83 429.3 81.45 429.3 73.34" fill="#001230"/>
          <polygon points="429.3 73.34 669.78 137.78 654.64 141.83 429.3 81.45 429.3 73.34" fill="#242b52"/>
        </g>
        <g>
          <g>
            <g>
              <polygon points="362.03 448.48 285.58 427.99 285.58 245.91 362.03 266.4 362.03 448.48" fill="#566575"/>
              <polygon points="285.58 245.91 285.58 427.99 294.49 425.6 294.49 248.3 285.58 245.91" fill="#b4bdc5"/>
              <polygon points="362.03 448.48 285.58 427.99 294.49 425.6 362.03 443.7 362.03 448.48" fill="#e6e7e8"/>
            </g>
            <polygon points="355.68 435.5 301.05 420.86 301.05 253.77 355.68 268.4 355.68 435.5" fill="#00123e"/>
          </g>
          <g>
            <g>
              <polygon points="285.58 428.19 209.12 407.7 209.12 225.62 285.58 246.11 285.58 428.19" fill="#566575"/>
              <polygon points="209.12 225.62 209.12 407.7 218.04 405.31 218.04 228.01 209.12 225.62" fill="#b4bdc5"/>
              <polygon points="285.58 428.19 209.12 407.7 218.04 405.31 285.58 423.41 285.58 428.19" fill="#e6e7e8"/>
            </g>
            <polygon points="279.22 415.21 224.59 400.57 224.59 233.48 279.22 248.11 279.22 415.21" fill="#303a66"/>
          </g>
        </g>
        <g>
          <g>
            <g>
              <polygon points="496.64 448.48 573.09 427.99 573.09 245.91 496.64 266.4 496.64 448.48" fill="#566575"/>
              <polygon points="573.09 245.91 573.09 427.99 564.18 425.6 564.18 248.3 573.09 245.91" fill="#7d8191"/>
              <polygon points="496.64 448.48 573.09 427.99 564.18 425.6 496.64 443.7 496.64 448.48" fill="#e6e7e8"/>
            </g>
            <polygon points="502.99 435.5 557.62 420.86 557.62 253.77 502.99 268.4 502.99 435.5" fill="#00123e"/>
          </g>
          <g>
            <g>
              <polygon points="573.09 428.19 649.55 407.7 649.55 225.62 573.09 246.11 573.09 428.19" fill="#566575"/>
              <polygon points="649.55 225.62 649.55 407.7 640.63 405.31 640.63 228.01 649.55 225.62" fill="#7d8191"/>
              <polygon points="573.09 428.19 649.55 407.7 640.63 405.31 573.09 423.41 573.09 428.19" fill="#e6e7e8"/>
            </g>
            <polygon points="579.45 415.21 634.08 400.57 634.08 233.48 579.45 248.11 579.45 415.21" fill="#242b52"/>
          </g>
        </g>
      </g>
      <g>
        <polygon points="399.28 112 548.26 151.92 622.76 131.96 473.77 92.04 399.28 112" fill="#242b52" isolation="isolate" opacity=".15"/>
        <g>
          <polygon points="605.57 53.63 425.15 5.35 367.9 103.65 548.33 151.92 605.57 53.63" fill="#242b52"/>
          <polygon points="603.41 48.27 422.99 0 365.74 98.29 546.17 146.57 603.41 48.27" fill="#e3e3e7"/>
          <path d="M424,111.06l-53.18-14.25L425.45,4.63l53.18,14.25-54.63,92.18h0Zm112.68-76.68l-53.18-14.25-54.63,92.18,53.18,14.25,54.63-92.18Zm58.05,15.5l-53.18-14.25-54.63,92.18,53.18,14.25,54.63-92.18Z" fill="#242b52" isolation="isolate" opacity=".15"/>
          <g>
            <polygon points="424.3 2.34 369.67 94.52 422.85 108.77 477.48 16.59 424.3 2.34" fill="#ebebeb"/>
            <path d="M379.18,83.57l-4.86,8.2,.56,1.42,9.06,2.43,1.85-.77,4.86-8.2-.56-1.41-9.06-2.43-1.85,.77h0Zm6.53-11.02l-4.86,8.2,.56,1.42,9.06,2.43,1.85-.77,4.86-8.2-.56-1.41-9.06-2.43-1.85,.77h0Zm6.53-11.02l-4.86,8.2,.56,1.42,9.06,2.43,1.85-.77,4.86-8.2-.56-1.41-9.06-2.43-1.85,.77h0Zm6.53-11.02l-4.86,8.2,.56,1.41,9.06,2.43,1.85-.77,4.86-8.2-.56-1.41-9.06-2.43-1.85,.77Zm6.53-11.01l-4.86,8.2,.56,1.42,9.06,2.43,1.85-.77,4.86-8.2-.56-1.41-9.06-2.43-1.85,.77h0Zm6.53-11.02l-4.86,8.2,.56,1.42,9.06,2.43,1.85-.77,4.86-8.2-.56-1.41-9.06-2.43-1.85,.77h0Zm6.53-11.02l-4.86,8.2,.56,1.41,9.06,2.43,1.85-.77,4.86-8.2-.56-1.41-9.06-2.43-1.85,.77Zm6.53-11.01l-4.86,8.2,.56,1.42,9.06,2.43,1.85-.77,4.86-8.2-.56-1.41-9.06-2.43-1.85,.77h0Zm-33.52,80.33l-4.86,8.2,.56,1.41,9.06,2.43,1.85-.77,4.86-8.2-.56-1.41-9.06-2.43-1.85,.77Zm6.53-11.01l-4.86,8.2,.56,1.42,9.06,2.43,1.85-.77,4.86-8.2-.56-1.41-9.06-2.43-1.85,.77h0Zm6.53-11.02l-4.86,8.2,.56,1.42,9.06,2.43,1.85-.77,4.86-8.2-.56-1.41-9.06-2.43-1.85,.77h0Zm6.53-11.02l-4.86,8.2,.56,1.41,9.06,2.43,1.85-.77,4.86-8.2-.56-1.41-9.06-2.43s-1.85,.77-1.85,.77Zm6.53-11.01l-4.86,8.2,.56,1.42,9.06,2.43,1.85-.77,4.86-8.2-.56-1.41-9.06-2.43-1.85,.77h0Zm6.53-11.02l-4.86,8.2,.56,1.42,9.06,2.43,1.85-.77,4.86-8.2-.56-1.41-9.06-2.43-1.85,.77h0Zm6.53-11.02l-4.86,8.2,.56,1.42,9.06,2.43,1.85-.77,4.86-8.2-.56-1.41-9.06-2.43-1.85,.77h0Zm6.53-11.02l-4.86,8.2,.56,1.42,9.06,2.43,1.85-.77,4.86-8.2-.56-1.41-9.06-2.43-1.85,.77h0Zm-33.52,80.33l-4.86,8.2,.56,1.41,9.06,2.43,1.85-.77,4.86-8.2-.56-1.41-9.06-2.43-1.85,.77Zm6.53-11.01l-4.86,8.2,.56,1.42,9.06,2.43,1.85-.77,4.86-8.2-.56-1.41-9.06-2.43-1.85,.77h0Zm6.53-11.02l-4.86,8.2,.56,1.42,9.06,2.43,1.85-.77,4.86-8.2-.56-1.41-9.06-2.43-1.85,.77h0Zm6.53-11.02l-4.86,8.2,.56,1.42,9.06,2.43,1.85-.77,4.86-8.2-.56-1.41-9.06-2.43-1.85,.77h0Zm6.53-11.02l-4.86,8.2,.56,1.42,9.06,2.43,1.85-.77,4.86-8.2-.56-1.41-9.06-2.43-1.85,.77h0Zm6.53-11.02l-4.86,8.2,.56,1.41,9.06,2.43,1.85-.77,4.86-8.2-.56-1.41-9.06-2.43-1.85,.77Zm6.53-11.01l-4.86,8.2,.56,1.42,9.06,2.43,1.85-.77,4.86-8.2-.56-1.41-9.06-2.43-1.85,.77h0Zm6.53-11.02l-4.86,8.2,.56,1.42,9.06,2.43,1.85-.77,4.86-8.2-.56-1.41-9.06-2.43-1.85,.77h0Zm-33.52,80.33l-4.86,8.2,.56,1.42,9.06,2.43,1.85-.77,4.86-8.2-.56-1.41-9.06-2.43-1.85,.77h0Zm6.53-11.02l-4.86,8.2,.56,1.42,9.06,2.43,1.85-.77,4.86-8.2-.56-1.41-9.06-2.43-1.85,.77h0Zm6.53-11.02l-4.86,8.2,.56,1.41,9.06,2.43,1.85-.77,4.86-8.2-.56-1.41-9.06-2.43-1.85,.77Zm6.53-11.01l-4.86,8.2,.56,1.42,9.06,2.43,1.85-.77,4.86-8.2-.56-1.41-9.06-2.43-1.85,.77h0Zm6.53-11.02l-4.86,8.2,.56,1.42,9.06,2.43,1.85-.77,4.86-8.2-.56-1.41-9.06-2.43-1.85,.77h0Zm6.53-11.02l-4.86,8.2,.56,1.41,9.06,2.43,1.85-.77,4.86-8.2-.56-1.41-9.06-2.43-1.85,.77Zm6.53-11.01l-4.86,8.2,.56,1.42,9.06,2.43,1.85-.77,4.86-8.2-.56-1.41-9.06-2.43-1.85,.77h0Zm6.53-11.02l-4.86,8.2,.56,1.42,9.06,2.43,1.85-.77,4.86-8.2-.56-1.41-9.06-2.43-1.85,.77h0Z" fill="#1c75bc"/>
          </g>
          <g>
            <polygon points="482.35 17.84 427.72 110.02 480.89 124.27 535.53 32.09 482.35 17.84" fill="#ebebeb"/>
            <path d="M437.23,99.07l-4.86,8.2,.56,1.42,9.06,2.43,1.85-.77,4.86-8.2-.56-1.41-9.06-2.43-1.85,.77h0Zm6.53-11.02l-4.86,8.2,.56,1.41,9.06,2.43,1.85-.77,4.86-8.2-.56-1.41-9.06-2.43-1.85,.77Zm6.53-11.01l-4.86,8.2,.56,1.42,9.06,2.43,1.85-.77,4.86-8.2-.56-1.41-9.06-2.43-1.85,.77h0Zm6.53-11.02l-4.86,8.2,.56,1.42,9.06,2.43,1.85-.77,4.86-8.2-.56-1.41-9.06-2.43-1.85,.77h0Zm6.53-11.02l-4.86,8.2,.56,1.41,9.06,2.43,1.85-.77,4.86-8.2-.56-1.41-9.06-2.43s-1.85,.77-1.85,.77Zm6.53-11.01l-4.86,8.2,.56,1.42,9.06,2.43,1.85-.77,4.86-8.2-.56-1.41-9.06-2.43-1.85,.77h0Zm6.53-11.02l-4.86,8.2,.56,1.42,9.06,2.43,1.85-.77,4.86-8.2-.56-1.41-9.06-2.43-1.85,.77h0Zm6.53-11.02l-4.86,8.2,.56,1.41,9.06,2.43,1.85-.77,4.86-8.2-.56-1.41-9.06-2.43s-1.85,.77-1.85,.77Zm-33.52,80.34l-4.86,8.2,.56,1.42,9.06,2.43,1.85-.77,4.86-8.2-.56-1.41-9.06-2.43-1.85,.77h0Zm6.53-11.02l-4.86,8.2,.56,1.41,9.06,2.43,1.85-.77,4.86-8.2-.56-1.41-9.06-2.43-1.85,.77Zm6.53-11.01l-4.86,8.2,.56,1.42,9.06,2.43,1.85-.77,4.86-8.2-.56-1.41-9.06-2.43-1.85,.77h0Zm6.53-11.02l-4.86,8.2,.56,1.42,9.06,2.43,1.85-.77,4.86-8.2-.56-1.41-9.06-2.43-1.85,.77h0Zm6.53-11.02l-4.86,8.2,.56,1.41,9.06,2.43,1.85-.77,4.86-8.2-.56-1.41-9.06-2.43s-1.85,.77-1.85,.77Zm6.53-11.01l-4.86,8.2,.56,1.42,9.06,2.43,1.85-.77,4.86-8.2-.56-1.41-9.06-2.43-1.85,.77h0Zm6.53-11.02l-4.86,8.2,.56,1.42,9.06,2.43,1.85-.77,4.86-8.2-.56-1.41-9.06-2.43-1.85,.77h0Zm6.53-11.02l-4.86,8.2,.56,1.42,9.06,2.43,1.85-.77,4.86-8.2-.56-1.41-9.06-2.43-1.85,.77h0Zm-33.52,80.33l-4.86,8.2,.56,1.42,9.06,2.43,1.85-.77,4.86-8.2-.56-1.41-9.06-2.43-1.85,.77h0Zm6.53-11.02l-4.86,8.2,.56,1.41,9.06,2.43,1.85-.77,4.86-8.2-.56-1.41-9.06-2.43-1.85,.77Zm6.53-11.01l-4.86,8.2,.56,1.42,9.06,2.43,1.85-.77,4.86-8.2-.56-1.41-9.06-2.43-1.85,.77h0Zm6.53-11.02l-4.86,8.2,.56,1.42,9.06,2.43,1.85-.77,4.86-8.2-.56-1.41-9.06-2.43-1.85,.77h0Zm6.53-11.02l-4.86,8.2,.56,1.42,9.06,2.43,1.85-.77,4.86-8.2-.56-1.41-9.06-2.43-1.85,.77h0Zm6.53-11.02l-4.86,8.2,.56,1.42,9.06,2.43,1.85-.77,4.86-8.2-.56-1.41-9.06-2.43-1.85,.77h0Zm6.53-11.02l-4.86,8.2,.56,1.41,9.06,2.43,1.85-.77,4.86-8.2-.56-1.41-9.06-2.43-1.85,.77h0Zm6.53-11.01l-4.86,8.2,.56,1.42,9.06,2.43,1.85-.77,4.86-8.2-.56-1.41-9.06-2.43-1.85,.77h0Zm-33.52,80.33l-4.86,8.2,.56,1.42,9.06,2.43,1.85-.77,4.86-8.2-.56-1.41-9.06-2.43-1.85,.77h0Zm6.53-11.02l-4.86,8.2,.56,1.42,9.06,2.43,1.85-.77,4.86-8.2-.56-1.41-9.06-2.43-1.85,.77h0Zm6.53-11.02l-4.86,8.2,.56,1.42,9.06,2.43,1.85-.77,4.86-8.2-.56-1.41-9.06-2.43-1.85,.77h0Zm6.53-11.02l-4.86,8.2,.56,1.41,9.06,2.43,1.85-.77,4.86-8.2-.56-1.41-9.06-2.43-1.85,.77Zm6.53-11.01l-4.86,8.2,.56,1.42,9.06,2.43,1.85-.77,4.86-8.2-.56-1.41-9.06-2.43-1.85,.77h0Zm6.53-11.02l-4.86,8.2,.56,1.42,9.06,2.43,1.85-.77,4.86-8.2-.56-1.41-9.06-2.43-1.85,.77h0Zm6.53-11.02l-4.86,8.2,.56,1.41,9.06,2.43,1.85-.77,4.86-8.2-.56-1.41-9.06-2.43-1.85,.77Zm6.53-11.01l-4.86,8.2,.56,1.42,9.06,2.43,1.85-.77,4.86-8.2-.56-1.41-9.06-2.43-1.85,.77h0Z" fill="#1c75bc"/>
          </g>
          <g>
            <polygon points="540.39 33.34 485.76 125.52 538.94 139.77 593.57 47.59 540.39 33.34" fill="#ebebeb"/>
            <path d="M495.27,114.57l-4.86,8.2,.56,1.42,9.06,2.43,1.85-.77,4.86-8.2-.56-1.41-9.06-2.43-1.85,.77h0Zm6.53-11.02l-4.86,8.2,.56,1.41,9.06,2.43,1.85-.77,4.86-8.2-.56-1.41-9.06-2.43-1.85,.77h0Zm6.53-11.01l-4.86,8.2,.56,1.41,9.06,2.43,1.85-.77,4.86-8.2-.56-1.41-9.06-2.43-1.85,.77Zm6.53-11.01l-4.86,8.2,.56,1.42,9.06,2.43,1.85-.77,4.86-8.2-.56-1.41-9.06-2.43-1.85,.77h0Zm6.53-11.02l-4.86,8.2,.56,1.42,9.06,2.43,1.85-.77,4.86-8.2-.56-1.41-9.06-2.43-1.85,.77h0Zm6.53-11.02l-4.86,8.2,.56,1.41,9.06,2.43,1.85-.77,4.86-8.2-.56-1.41-9.06-2.43s-1.85,.77-1.85,.77Zm6.53-11.01l-4.86,8.2,.56,1.42,9.06,2.43,1.85-.77,4.86-8.2-.56-1.41-9.06-2.43-1.85,.77h0Zm6.53-11.02l-4.86,8.2,.56,1.42,9.06,2.43,1.85-.77,4.86-8.2-.56-1.41-9.06-2.43-1.85,.77h0Zm-33.52,80.33l-4.86,8.2,.56,1.42,9.06,2.43,1.85-.77,4.86-8.2-.56-1.41-9.06-2.43-1.85,.77h0Zm6.53-11.02l-4.86,8.2,.56,1.42,9.06,2.43,1.85-.77,4.86-8.2-.56-1.41-9.06-2.43-1.85,.77h0Zm6.53-11.02l-4.86,8.2,.56,1.41,9.06,2.43,1.85-.77,4.86-8.2-.56-1.41-9.06-2.43-1.85,.77Zm6.53-11.01l-4.86,8.2,.56,1.42,9.06,2.43,1.85-.77,4.86-8.2-.56-1.41-9.06-2.43-1.85,.77h0Zm6.53-11.02l-4.86,8.2,.56,1.42,9.06,2.43,1.85-.77,4.86-8.2-.56-1.41-9.06-2.43-1.85,.77h0Zm6.53-11.02l-4.86,8.2,.56,1.41,9.06,2.43,1.85-.77,4.86-8.2-.56-1.41-9.06-2.43s-1.85,.77-1.85,.77Zm6.53-11.01l-4.86,8.2,.56,1.42,9.06,2.43,1.85-.77,4.86-8.2-.56-1.41-9.06-2.43-1.85,.77h0Zm6.53-11.02l-4.86,8.2,.56,1.42,9.06,2.43,1.85-.77,4.86-8.2-.56-1.41-9.06-2.43-1.85,.77h0Zm-33.52,80.33l-4.86,8.2,.56,1.42,9.06,2.43,1.85-.77,4.86-8.2-.56-1.41-9.06-2.43-1.85,.77h0Zm6.53-11.02l-4.86,8.2,.56,1.42,9.06,2.43,1.85-.77,4.86-8.2-.56-1.41-9.06-2.43-1.85,.77h0Zm6.53-11.02l-4.86,8.2,.56,1.41,9.06,2.43,1.85-.77,4.86-8.2-.56-1.41-9.06-2.43-1.85,.77Zm6.53-11.01l-4.86,8.2,.56,1.42,9.06,2.43,1.85-.77,4.86-8.2-.56-1.41-9.06-2.43-1.85,.77h0Zm6.53-11.02l-4.86,8.2,.56,1.42,9.06,2.43,1.85-.77,4.86-8.2-.56-1.41-9.06-2.43-1.85,.77h0Zm6.53-11.02l-4.86,8.2,.56,1.42,9.06,2.43,1.85-.77,4.86-8.2-.56-1.41-9.06-2.43-1.85,.77h0Zm6.53-11.02l-4.86,8.2,.56,1.42,9.06,2.43,1.85-.77,4.86-8.2-.56-1.41-9.06-2.43-1.85,.77h0Zm6.53-11.02l-4.86,8.2,.56,1.41,9.06,2.43,1.85-.77,4.86-8.2-.56-1.41-9.06-2.43-1.85,.77Zm-33.52,80.34l-4.86,8.2,.56,1.42,9.06,2.43,1.85-.77,4.86-8.2-.56-1.41-9.06-2.43-1.85,.77h0Zm6.53-11.02l-4.86,8.2,.56,1.42,9.06,2.43,1.85-.77,4.86-8.2-.56-1.41-9.06-2.43-1.85,.77h0Zm6.53-11.02l-4.86,8.2,.56,1.42,9.06,2.43,1.85-.77,4.86-8.2-.56-1.41-9.06-2.43-1.85,.77h0Zm6.53-11.02l-4.86,8.2,.56,1.42,9.06,2.43,1.85-.77,4.86-8.2-.56-1.41-9.06-2.43-1.85,.77h0Zm6.53-11.02l-4.86,8.2,.56,1.41,9.06,2.43,1.85-.77,4.86-8.2-.56-1.41-9.06-2.43-1.85,.77Zm6.53-11.01l-4.86,8.2,.56,1.42,9.06,2.43,1.85-.77,4.86-8.2-.56-1.41-9.06-2.43-1.85,.77h0Zm6.53-11.02l-4.86,8.2,.56,1.42,9.06,2.43,1.85-.77,4.86-8.2-.56-1.41-9.06-2.43-1.85,.77h0Zm6.53-11.02l-4.86,8.2,.56,1.41,9.06,2.43,1.85-.77,4.86-8.2-.56-1.41-9.06-2.43-1.85,.77Z" fill="#1c75bc"/>
          </g>
          <polygon points="603.41 48.27 365.74 98.29 422.99 0 603.41 48.27" fill="#fff" isolation="isolate" opacity=".2"/>
        </g>
      </g>
      <g>
        <polygon points="324.28 133 473.26 172.92 547.76 152.96 398.77 113.04 324.28 133" fill="#242b52" isolation="isolate" opacity=".15"/>
        <g>
          <polygon points="530.57 74.63 350.15 26.35 292.9 124.65 473.33 172.92 530.57 74.63" fill="#242b52"/>
          <polygon points="528.41 69.27 347.99 21 290.74 119.29 471.17 167.57 528.41 69.27" fill="#e3e3e7"/>
          <path d="M349,132.06l-53.18-14.25,54.63-92.18,53.18,14.25-54.63,92.18Zm112.68-76.68l-53.18-14.25-54.63,92.18,53.18,14.25,54.63-92.18Zm58.05,15.5l-53.18-14.25-54.63,92.18,53.18,14.25,54.63-92.18Z" fill="#242b52" isolation="isolate" opacity=".15"/>
          <g>
            <polygon points="349.3 23.34 294.67 115.52 347.85 129.77 402.48 37.59 349.3 23.34" fill="#ebebeb"/>
            <path d="M304.18,104.57l-4.86,8.2,.56,1.42,9.06,2.43,1.85-.77,4.86-8.2-.56-1.41-9.06-2.43-1.85,.77h0Zm6.53-11.02l-4.86,8.2,.56,1.42,9.06,2.43,1.85-.77,4.86-8.2-.56-1.41-9.06-2.43-1.85,.77h0Zm6.53-11.02l-4.86,8.2,.56,1.42,9.06,2.43,1.85-.77,4.86-8.2-.56-1.41-9.06-2.43-1.85,.77h0Zm6.53-11.02l-4.86,8.2,.56,1.41,9.06,2.43,1.85-.77,4.86-8.2-.56-1.41-9.06-2.43-1.85,.77Zm6.53-11.01l-4.86,8.2,.56,1.42,9.06,2.43,1.85-.77,4.86-8.2-.56-1.41-9.06-2.43-1.85,.77h0Zm6.53-11.02l-4.86,8.2,.56,1.42,9.06,2.43,1.85-.77,4.86-8.2-.56-1.41-9.06-2.43-1.85,.77h0Zm6.53-11.02l-4.86,8.2,.56,1.41,9.06,2.43,1.85-.77,4.86-8.2-.56-1.41-9.06-2.43-1.85,.77Zm6.53-11.01l-4.86,8.2,.56,1.42,9.06,2.43,1.85-.77,4.86-8.2-.56-1.41-9.06-2.43-1.85,.77h0Zm-33.52,80.33l-4.86,8.2,.56,1.41,9.06,2.43,1.85-.77,4.86-8.2-.56-1.41-9.06-2.43-1.85,.77Zm6.53-11.01l-4.86,8.2,.56,1.42,9.06,2.43,1.85-.77,4.86-8.2-.56-1.41-9.06-2.43-1.85,.77h0Zm6.53-11.02l-4.86,8.2,.56,1.42,9.06,2.43,1.85-.77,4.86-8.2-.56-1.41-9.06-2.43-1.85,.77h0Zm6.53-11.02l-4.86,8.2,.56,1.41,9.06,2.43,1.85-.77,4.86-8.2-.56-1.41-9.06-2.43-1.85,.77Zm6.53-11.01l-4.86,8.2,.56,1.42,9.06,2.43,1.85-.77,4.86-8.2-.56-1.41-9.06-2.43-1.85,.77h0Zm6.53-11.02l-4.86,8.2,.56,1.42,9.06,2.43,1.85-.77,4.86-8.2-.56-1.41-9.06-2.43-1.85,.77h0Zm6.53-11.02l-4.86,8.2,.56,1.42,9.06,2.43,1.85-.77,4.86-8.2-.56-1.41-9.06-2.43-1.85,.77h0Zm6.53-11.02l-4.86,8.2,.56,1.42,9.06,2.43,1.85-.77,4.86-8.2-.56-1.41-9.06-2.43-1.85,.77h0Zm-33.52,80.33l-4.86,8.2,.56,1.41,9.06,2.43,1.85-.77,4.86-8.2-.56-1.41-9.06-2.43-1.85,.77Zm6.53-11.01l-4.86,8.2,.56,1.42,9.06,2.43,1.85-.77,4.86-8.2-.56-1.41-9.06-2.43-1.85,.77h0Zm6.53-11.02l-4.86,8.2,.56,1.42,9.06,2.43,1.85-.77,4.86-8.2-.56-1.41-9.06-2.43-1.85,.77h0Zm6.53-11.02l-4.86,8.2,.56,1.42,9.06,2.43,1.85-.77,4.86-8.2-.56-1.41-9.06-2.43-1.85,.77h0Zm6.53-11.02l-4.86,8.2,.56,1.42,9.06,2.43,1.85-.77,4.86-8.2-.56-1.41-9.06-2.43-1.85,.77h0Zm6.53-11.02l-4.86,8.2,.56,1.41,9.06,2.43,1.85-.77,4.86-8.2-.56-1.41-9.06-2.43s-1.85,.77-1.85,.77Zm6.53-11.01l-4.86,8.2,.56,1.42,9.06,2.43,1.85-.77,4.86-8.2-.56-1.41-9.06-2.43-1.85,.77h0Zm6.53-11.02l-4.86,8.2,.56,1.42,9.06,2.43,1.85-.77,4.86-8.2-.56-1.41-9.06-2.43-1.85,.77h0Zm-33.52,80.33l-4.86,8.2,.56,1.42,9.06,2.43,1.85-.77,4.86-8.2-.56-1.41-9.06-2.43-1.85,.77h0Zm6.53-11.02l-4.86,8.2,.56,1.42,9.06,2.43,1.85-.77,4.86-8.2-.56-1.41-9.06-2.43-1.85,.77h0Zm6.53-11.02l-4.86,8.2,.56,1.41,9.06,2.43,1.85-.77,4.86-8.2-.56-1.41-9.06-2.43-1.85,.77Zm6.53-11.01l-4.86,8.2,.56,1.42,9.06,2.43,1.85-.77,4.86-8.2-.56-1.41-9.06-2.43-1.85,.77h0Zm6.53-11.02l-4.86,8.2,.56,1.42,9.06,2.43,1.85-.77,4.86-8.2-.56-1.41-9.06-2.43-1.85,.77h0Zm6.53-11.02l-4.86,8.2,.56,1.41,9.06,2.43,1.85-.77,4.86-8.2-.56-1.41-9.06-2.43s-1.85,.77-1.85,.77Zm6.53-11.01l-4.86,8.2,.56,1.42,9.06,2.43,1.85-.77,4.86-8.2-.56-1.41-9.06-2.43-1.85,.77h0Zm6.53-11.02l-4.86,8.2,.56,1.42,9.06,2.43,1.85-.77,4.86-8.2-.56-1.41-9.06-2.43-1.85,.77h0Z" fill="#1c75bc"/>
          </g>
          <g>
            <polygon points="407.35 38.84 352.72 131.02 405.89 145.27 460.53 53.09 407.35 38.84" fill="#ebebeb"/>
            <path d="M362.23,120.07l-4.86,8.2,.56,1.42,9.06,2.43,1.85-.77,4.86-8.2-.56-1.41-9.06-2.43-1.85,.77h0Zm6.53-11.02l-4.86,8.2,.56,1.41,9.06,2.43,1.85-.77,4.86-8.2-.56-1.41-9.06-2.43-1.85,.77Zm6.53-11.01l-4.86,8.2,.56,1.42,9.06,2.43,1.85-.77,4.86-8.2-.56-1.41-9.06-2.43-1.85,.77h0Zm6.53-11.02l-4.86,8.2,.56,1.42,9.06,2.43,1.85-.77,4.86-8.2-.56-1.41-9.06-2.43-1.85,.77h0Zm6.53-11.02l-4.86,8.2,.56,1.41,9.06,2.43,1.85-.77,4.86-8.2-.56-1.41-9.06-2.43-1.85,.77Zm6.53-11.01l-4.86,8.2,.56,1.42,9.06,2.43,1.85-.77,4.86-8.2-.56-1.41-9.06-2.43-1.85,.77h0Zm6.53-11.02l-4.86,8.2,.56,1.42,9.06,2.43,1.85-.77,4.86-8.2-.56-1.41-9.06-2.43-1.85,.77h0Zm6.53-11.02l-4.86,8.2,.56,1.41,9.06,2.43,1.85-.77,4.86-8.2-.56-1.41-9.06-2.43-1.85,.77Zm-33.52,80.34l-4.86,8.2,.56,1.42,9.06,2.43,1.85-.77,4.86-8.2-.56-1.41-9.06-2.43-1.85,.77h0Zm6.53-11.02l-4.86,8.2,.56,1.41,9.06,2.43,1.85-.77,4.86-8.2-.56-1.41-9.06-2.43-1.85,.77Zm6.53-11.01l-4.86,8.2,.56,1.42,9.06,2.43,1.85-.77,4.86-8.2-.56-1.41-9.06-2.43-1.85,.77h0Zm6.53-11.02l-4.86,8.2,.56,1.42,9.06,2.43,1.85-.77,4.86-8.2-.56-1.41-9.06-2.43-1.85,.77h0Zm6.53-11.02l-4.86,8.2,.56,1.41,9.06,2.43,1.85-.77,4.86-8.2-.56-1.41-9.06-2.43-1.85,.77Zm6.53-11.01l-4.86,8.2,.56,1.42,9.06,2.43,1.85-.77,4.86-8.2-.56-1.41-9.06-2.43-1.85,.77h0Zm6.53-11.02l-4.86,8.2,.56,1.42,9.06,2.43,1.85-.77,4.86-8.2-.56-1.41-9.06-2.43-1.85,.77h0Zm6.53-11.02l-4.86,8.2,.56,1.42,9.06,2.43,1.85-.77,4.86-8.2-.56-1.41-9.06-2.43-1.85,.77h0Zm-33.52,80.33l-4.86,8.2,.56,1.42,9.06,2.43,1.85-.77,4.86-8.2-.56-1.41-9.06-2.43-1.85,.77h0Zm6.53-11.02l-4.86,8.2,.56,1.41,9.06,2.43,1.85-.77,4.86-8.2-.56-1.41-9.06-2.43-1.85,.77Zm6.53-11.01l-4.86,8.2,.56,1.42,9.06,2.43,1.85-.77,4.86-8.2-.56-1.41-9.06-2.43-1.85,.77h0Zm6.53-11.02l-4.86,8.2,.56,1.42,9.06,2.43,1.85-.77,4.86-8.2-.56-1.41-9.06-2.43-1.85,.77h0Zm6.53-11.02l-4.86,8.2,.56,1.42,9.06,2.43,1.85-.77,4.86-8.2-.56-1.41-9.06-2.43-1.85,.77h0Zm6.53-11.02l-4.86,8.2,.56,1.42,9.06,2.43,1.85-.77,4.86-8.2-.56-1.41-9.06-2.43-1.85,.77h0Zm6.53-11.02l-4.86,8.2,.56,1.41,9.06,2.43,1.85-.77,4.86-8.2-.56-1.41-9.06-2.43s-1.85,.77-1.85,.77Zm6.53-11.01l-4.86,8.2,.56,1.42,9.06,2.43,1.85-.77,4.86-8.2-.56-1.41-9.06-2.43-1.85,.77h0Zm-33.52,80.33l-4.86,8.2,.56,1.42,9.06,2.43,1.85-.77,4.86-8.2-.56-1.41-9.06-2.43-1.85,.77h0Zm6.53-11.02l-4.86,8.2,.56,1.42,9.06,2.43,1.85-.77,4.86-8.2-.56-1.41-9.06-2.43-1.85,.77h0Zm6.53-11.02l-4.86,8.2,.56,1.42,9.06,2.43,1.85-.77,4.86-8.2-.56-1.41-9.06-2.43-1.85,.77h0Zm6.53-11.02l-4.86,8.2,.56,1.41,9.06,2.43,1.85-.77,4.86-8.2-.56-1.41-9.06-2.43-1.85,.77Zm6.53-11.01l-4.86,8.2,.56,1.42,9.06,2.43,1.85-.77,4.86-8.2-.56-1.41-9.06-2.43-1.85,.77h0Zm6.53-11.02l-4.86,8.2,.56,1.42,9.06,2.43,1.85-.77,4.86-8.2-.56-1.41-9.06-2.43-1.85,.77h0Zm6.53-11.02l-4.86,8.2,.56,1.41,9.06,2.43,1.85-.77,4.86-8.2-.56-1.41-9.06-2.43s-1.85,.77-1.85,.77Zm6.53-11.01l-4.86,8.2,.56,1.42,9.06,2.43,1.85-.77,4.86-8.2-.56-1.41-9.06-2.43-1.85,.77h0Z" fill="#1c75bc"/>
          </g>
          <g>
            <polygon points="465.39 54.34 410.76 146.52 463.94 160.77 518.57 68.59 465.39 54.34" fill="#ebebeb"/>
            <path d="M420.27,135.57l-4.86,8.2,.56,1.42,9.06,2.43,1.85-.77,4.86-8.2-.56-1.41-9.06-2.43-1.85,.77h0Zm6.53-11.02l-4.86,8.2,.56,1.41,9.06,2.43,1.85-.77,4.86-8.2-.56-1.41-9.06-2.43s-1.85,.77-1.85,.77Zm6.53-11.01l-4.86,8.2,.56,1.41,9.06,2.43,1.85-.77,4.86-8.2-.56-1.41-9.06-2.43-1.85,.77Zm6.53-11.01l-4.86,8.2,.56,1.42,9.06,2.43,1.85-.77,4.86-8.2-.56-1.41-9.06-2.43-1.85,.77h0Zm6.53-11.02l-4.86,8.2,.56,1.42,9.06,2.43,1.85-.77,4.86-8.2-.56-1.41-9.06-2.43-1.85,.77h0Zm6.53-11.02l-4.86,8.2,.56,1.41,9.06,2.43,1.85-.77,4.86-8.2-.56-1.41-9.06-2.43-1.85,.77Zm6.53-11.01l-4.86,8.2,.56,1.42,9.06,2.43,1.85-.77,4.86-8.2-.56-1.41-9.06-2.43-1.85,.77h0Zm6.53-11.02l-4.86,8.2,.56,1.42,9.06,2.43,1.85-.77,4.86-8.2-.56-1.41-9.06-2.43-1.85,.77h0Zm-33.52,80.33l-4.86,8.2,.56,1.42,9.06,2.43,1.85-.77,4.86-8.2-.56-1.41-9.06-2.43-1.85,.77h0Zm6.53-11.02l-4.86,8.2,.56,1.42,9.06,2.43,1.85-.77,4.86-8.2-.56-1.41-9.06-2.43-1.85,.77h0Zm6.53-11.02l-4.86,8.2,.56,1.41,9.06,2.43,1.85-.77,4.86-8.2-.56-1.41-9.06-2.43-1.85,.77h0Zm6.53-11.01l-4.86,8.2,.56,1.42,9.06,2.43,1.85-.77,4.86-8.2-.56-1.41-9.06-2.43-1.85,.77h0Zm6.53-11.02l-4.86,8.2,.56,1.42,9.06,2.43,1.85-.77,4.86-8.2-.56-1.41-9.06-2.43-1.85,.77h0Zm6.53-11.02l-4.86,8.2,.56,1.41,9.06,2.43,1.85-.77,4.86-8.2-.56-1.41-9.06-2.43-1.85,.77Zm6.53-11.01l-4.86,8.2,.56,1.42,9.06,2.43,1.85-.77,4.86-8.2-.56-1.41-9.06-2.43-1.85,.77h0Zm6.53-11.02l-4.86,8.2,.56,1.42,9.06,2.43,1.85-.77,4.86-8.2-.56-1.41-9.06-2.43-1.85,.77h0Zm-33.52,80.33l-4.86,8.2,.56,1.42,9.06,2.43,1.85-.77,4.86-8.2-.56-1.41-9.06-2.43-1.85,.77h0Zm6.53-11.02l-4.86,8.2,.56,1.42,9.06,2.43,1.85-.77,4.86-8.2-.56-1.41-9.06-2.43-1.85,.77h0Zm6.53-11.02l-4.86,8.2,.56,1.41,9.06,2.43,1.85-.77,4.86-8.2-.56-1.41-9.06-2.43s-1.85,.77-1.85,.77Zm6.53-11.01l-4.86,8.2,.56,1.42,9.06,2.43,1.85-.77,4.86-8.2-.56-1.41-9.06-2.43-1.85,.77h0Zm6.53-11.02l-4.86,8.2,.56,1.42,9.06,2.43,1.85-.77,4.86-8.2-.56-1.41-9.06-2.43-1.85,.77h0Zm6.53-11.02l-4.86,8.2,.56,1.42,9.06,2.43,1.85-.77,4.86-8.2-.56-1.41-9.06-2.43-1.85,.77h0Zm6.53-11.02l-4.86,8.2,.56,1.42,9.06,2.43,1.85-.77,4.86-8.2-.56-1.41-9.06-2.43-1.85,.77h0Zm6.53-11.02l-4.86,8.2,.56,1.41,9.06,2.43,1.85-.77,4.86-8.2-.56-1.41-9.06-2.43-1.85,.77Zm-33.52,80.34l-4.86,8.2,.56,1.42,9.06,2.43,1.85-.77,4.86-8.2-.56-1.41-9.06-2.43-1.85,.77h0Zm6.53-11.02l-4.86,8.2,.56,1.42,9.06,2.43,1.85-.77,4.86-8.2-.56-1.41-9.06-2.43-1.85,.77h0Zm6.53-11.02l-4.86,8.2,.56,1.42,9.06,2.43,1.85-.77,4.86-8.2-.56-1.41-9.06-2.43-1.85,.77h0Zm6.53-11.02l-4.86,8.2,.56,1.42,9.06,2.43,1.85-.77,4.86-8.2-.56-1.41-9.06-2.43-1.85,.77h0Zm6.53-11.02l-4.86,8.2,.56,1.41,9.06,2.43,1.85-.77,4.86-8.2-.56-1.41-9.06-2.43-1.85,.77Zm6.53-11.01l-4.86,8.2,.56,1.42,9.06,2.43,1.85-.77,4.86-8.2-.56-1.41-9.06-2.43-1.85,.77h0Zm6.53-11.02l-4.86,8.2,.56,1.42,9.06,2.43,1.85-.77,4.86-8.2-.56-1.41-9.06-2.43-1.85,.77h0Zm6.53-11.02l-4.86,8.2,.56,1.41,9.06,2.43,1.85-.77,4.86-8.2-.56-1.41-9.06-2.43-1.85,.77h0Z" fill="#1c75bc"/>
          </g>
          <polygon points="528.41 69.27 290.74 119.29 347.99 21 528.41 69.27" fill="#fff" isolation="isolate" opacity=".2"/>
        </g>
      </g>
      <g>
        <polygon points="248.28 154 397.26 193.92 471.76 173.96 322.77 134.04 248.28 154" fill="#242b52" isolation="isolate" opacity=".15"/>
        <g>
          <polygon points="454.57 95.63 274.15 47.35 216.9 145.65 397.33 193.92 454.57 95.63" fill="#242b52"/>
          <polygon points="452.41 90.27 271.99 42 214.74 140.29 395.17 188.57 452.41 90.27" fill="#e3e3e7"/>
          <path d="M273,153.06l-53.18-14.25,54.63-92.18,53.18,14.25-54.63,92.18Zm112.68-76.68l-53.18-14.25-54.63,92.18,53.18,14.25,54.63-92.18Zm58.05,15.5l-53.18-14.25-54.63,92.18,53.18,14.25,54.63-92.18Z" fill="#242b52" isolation="isolate" opacity=".15"/>
          <g>
            <polygon points="273.3 44.34 218.67 136.52 271.85 150.77 326.48 58.59 273.3 44.34" fill="#ebebeb"/>
            <path d="M228.18,125.57l-4.86,8.2,.56,1.42,9.06,2.43,1.85-.77,4.86-8.2-.56-1.41-9.06-2.43-1.85,.77h0Zm6.53-11.02l-4.86,8.2,.56,1.42,9.06,2.43,1.85-.77,4.86-8.2-.56-1.41-9.06-2.43-1.85,.77h0Zm6.53-11.02l-4.86,8.2,.56,1.42,9.06,2.43,1.85-.77,4.86-8.2-.56-1.41-9.06-2.43-1.85,.77h0Zm6.53-11.02l-4.86,8.2,.56,1.41,9.06,2.43,1.85-.77,4.86-8.2-.56-1.41-9.06-2.43-1.85,.77Zm6.53-11.01l-4.86,8.2,.56,1.42,9.06,2.43,1.85-.77,4.86-8.2-.56-1.41-9.06-2.43-1.85,.77h0Zm6.53-11.02l-4.86,8.2,.56,1.42,9.06,2.43,1.85-.77,4.86-8.2-.56-1.41-9.06-2.43-1.85,.77h0Zm6.53-11.02l-4.86,8.2,.56,1.41,9.06,2.43,1.85-.77,4.86-8.2-.56-1.41-9.06-2.43s-1.85,.77-1.85,.77Zm6.53-11.01l-4.86,8.2,.56,1.42,9.06,2.43,1.85-.77,4.86-8.2-.56-1.41-9.06-2.43-1.85,.77h0Zm-33.52,80.33l-4.86,8.2,.56,1.41,9.06,2.43,1.85-.77,4.86-8.2-.56-1.41-9.06-2.43-1.85,.77Zm6.53-11.01l-4.86,8.2,.56,1.42,9.06,2.43,1.85-.77,4.86-8.2-.56-1.41-9.06-2.43-1.85,.77h0Zm6.53-11.02l-4.86,8.2,.56,1.42,9.06,2.43,1.85-.77,4.86-8.2-.56-1.41-9.06-2.43-1.85,.77h0Zm6.53-11.02l-4.86,8.2,.56,1.41,9.06,2.43,1.85-.77,4.86-8.2-.56-1.41-9.06-2.43-1.85,.77Zm6.53-11.01l-4.86,8.2,.56,1.42,9.06,2.43,1.85-.77,4.86-8.2-.56-1.41-9.06-2.43-1.85,.77h0Zm6.53-11.02l-4.86,8.2,.56,1.42,9.06,2.43,1.85-.77,4.86-8.2-.56-1.41-9.06-2.43-1.85,.77h0Zm6.53-11.02l-4.86,8.2,.56,1.42,9.06,2.43,1.85-.77,4.86-8.2-.56-1.41-9.06-2.43-1.85,.77h0Zm6.53-11.02l-4.86,8.2,.56,1.42,9.06,2.43,1.85-.77,4.86-8.2-.56-1.41-9.06-2.43-1.85,.77h0Zm-33.52,80.33l-4.86,8.2,.56,1.41,9.06,2.43,1.85-.77,4.86-8.2-.56-1.41-9.06-2.43-1.85,.77h0Zm6.53-11.01l-4.86,8.2,.56,1.42,9.06,2.43,1.85-.77,4.86-8.2-.56-1.41-9.06-2.43-1.85,.77h0Zm6.53-11.02l-4.86,8.2,.56,1.42,9.06,2.43,1.85-.77,4.86-8.2-.56-1.41-9.06-2.43-1.85,.77h0Zm6.53-11.02l-4.86,8.2,.56,1.42,9.06,2.43,1.85-.77,4.86-8.2-.56-1.41-9.06-2.43-1.85,.77h0Zm6.53-11.02l-4.86,8.2,.56,1.42,9.06,2.43,1.85-.77,4.86-8.2-.56-1.41-9.06-2.43-1.85,.77h0Zm6.53-11.02l-4.86,8.2,.56,1.41,9.06,2.43,1.85-.77,4.86-8.2-.56-1.41-9.06-2.43-1.85,.77Zm6.53-11.01l-4.86,8.2,.56,1.42,9.06,2.43,1.85-.77,4.86-8.2-.56-1.41-9.06-2.43-1.85,.77h0Zm6.53-11.02l-4.86,8.2,.56,1.42,9.06,2.43,1.85-.77,4.86-8.2-.56-1.41-9.06-2.43-1.85,.77h0Zm-33.52,80.33l-4.86,8.2,.56,1.42,9.06,2.43,1.85-.77,4.86-8.2-.56-1.41-9.06-2.43-1.85,.77h0Zm6.53-11.02l-4.86,8.2,.56,1.42,9.06,2.43,1.85-.77,4.86-8.2-.56-1.41-9.06-2.43-1.85,.77h0Zm6.53-11.02l-4.86,8.2,.56,1.41,9.06,2.43,1.85-.77,4.86-8.2-.56-1.41-9.06-2.43-1.85,.77Zm6.53-11.01l-4.86,8.2,.56,1.42,9.06,2.43,1.85-.77,4.86-8.2-.56-1.41-9.06-2.43-1.85,.77h0Zm6.53-11.02l-4.86,8.2,.56,1.42,9.06,2.43,1.85-.77,4.86-8.2-.56-1.41-9.06-2.43-1.85,.77h0Zm6.53-11.02l-4.86,8.2,.56,1.41,9.06,2.43,1.85-.77,4.86-8.2-.56-1.41-9.06-2.43-1.85,.77Zm6.53-11.01l-4.86,8.2,.56,1.42,9.06,2.43,1.85-.77,4.86-8.2-.56-1.41-9.06-2.43-1.85,.77h0Zm6.53-11.02l-4.86,8.2,.56,1.42,9.06,2.43,1.85-.77,4.86-8.2-.56-1.41-9.06-2.43-1.85,.77h0Z" fill="#1c75bc"/>
          </g>
          <g>
            <polygon points="331.35 59.84 276.72 152.02 329.89 166.27 384.53 74.09 331.35 59.84" fill="#ebebeb"/>
            <path d="M286.23,141.07l-4.86,8.2,.56,1.42,9.06,2.43,1.85-.77,4.86-8.2-.56-1.41-9.06-2.43-1.85,.77h0Zm6.53-11.02l-4.86,8.2,.56,1.41,9.06,2.43,1.85-.77,4.86-8.2-.56-1.41-9.06-2.43-1.85,.77Zm6.53-11.01l-4.86,8.2,.56,1.42,9.06,2.43,1.85-.77,4.86-8.2-.56-1.41-9.06-2.43-1.85,.77h0Zm6.53-11.02l-4.86,8.2,.56,1.42,9.06,2.43,1.85-.77,4.86-8.2-.56-1.41-9.06-2.43-1.85,.77h0Zm6.53-11.02l-4.86,8.2,.56,1.41,9.06,2.43,1.85-.77,4.86-8.2-.56-1.41-9.06-2.43-1.85,.77Zm6.53-11.01l-4.86,8.2,.56,1.42,9.06,2.43,1.85-.77,4.86-8.2-.56-1.41-9.06-2.43-1.85,.77h0Zm6.53-11.02l-4.86,8.2,.56,1.42,9.06,2.43,1.85-.77,4.86-8.2-.56-1.41-9.06-2.43-1.85,.77h0Zm6.53-11.02l-4.86,8.2,.56,1.41,9.06,2.43,1.85-.77,4.86-8.2-.56-1.41-9.06-2.43-1.85,.77Zm-33.52,80.34l-4.86,8.2,.56,1.42,9.06,2.43,1.85-.77,4.86-8.2-.56-1.41-9.06-2.43-1.85,.77h0Zm6.53-11.02l-4.86,8.2,.56,1.41,9.06,2.43,1.85-.77,4.86-8.2-.56-1.41-9.06-2.43-1.85,.77Zm6.53-11.01l-4.86,8.2,.56,1.42,9.06,2.43,1.85-.77,4.86-8.2-.56-1.41-9.06-2.43-1.85,.77h0Zm6.53-11.02l-4.86,8.2,.56,1.42,9.06,2.43,1.85-.77,4.86-8.2-.56-1.41-9.06-2.43-1.85,.77h0Zm6.53-11.02l-4.86,8.2,.56,1.41,9.06,2.43,1.85-.77,4.86-8.2-.56-1.41-9.06-2.43-1.85,.77Zm6.53-11.01l-4.86,8.2,.56,1.42,9.06,2.43,1.85-.77,4.86-8.2-.56-1.41-9.06-2.43-1.85,.77h0Zm6.53-11.02l-4.86,8.2,.56,1.42,9.06,2.43,1.85-.77,4.86-8.2-.56-1.41-9.06-2.43-1.85,.77h0Zm6.53-11.02l-4.86,8.2,.56,1.42,9.06,2.43,1.85-.77,4.86-8.2-.56-1.41-9.06-2.43-1.85,.77h0Zm-33.52,80.33l-4.86,8.2,.56,1.42,9.06,2.43,1.85-.77,4.86-8.2-.56-1.41-9.06-2.43-1.85,.77h0Zm6.53-11.02l-4.86,8.2,.56,1.41,9.06,2.43,1.85-.77,4.86-8.2-.56-1.41-9.06-2.43-1.85,.77Zm6.53-11.01l-4.86,8.2,.56,1.42,9.06,2.43,1.85-.77,4.86-8.2-.56-1.41-9.06-2.43-1.85,.77h0Zm6.53-11.02l-4.86,8.2,.56,1.42,9.06,2.43,1.85-.77,4.86-8.2-.56-1.41-9.06-2.43-1.85,.77h0Zm6.53-11.02l-4.86,8.2,.56,1.42,9.06,2.43,1.85-.77,4.86-8.2-.56-1.41-9.06-2.43-1.85,.77h0Zm6.53-11.02l-4.86,8.2,.56,1.42,9.06,2.43,1.85-.77,4.86-8.2-.56-1.41-9.06-2.43-1.85,.77h0Zm6.53-11.02l-4.86,8.2,.56,1.41,9.06,2.43,1.85-.77,4.86-8.2-.56-1.41-9.06-2.43-1.85,.77Zm6.53-11.01l-4.86,8.2,.56,1.42,9.06,2.43,1.85-.77,4.86-8.2-.56-1.41-9.06-2.43-1.85,.77h0Zm-33.52,80.33l-4.86,8.2,.56,1.42,9.06,2.43,1.85-.77,4.86-8.2-.56-1.41-9.06-2.43-1.85,.77h0Zm6.53-11.02l-4.86,8.2,.56,1.42,9.06,2.43,1.85-.77,4.86-8.2-.56-1.41-9.06-2.43-1.85,.77h0Zm6.53-11.02l-4.86,8.2,.56,1.42,9.06,2.43,1.85-.77,4.86-8.2-.56-1.41-9.06-2.43-1.85,.77h0Zm6.53-11.02l-4.86,8.2,.56,1.41,9.06,2.43,1.85-.77,4.86-8.2-.56-1.41-9.06-2.43s-1.85,.77-1.85,.77Zm6.53-11.01l-4.86,8.2,.56,1.42,9.06,2.43,1.85-.77,4.86-8.2-.56-1.41-9.06-2.43-1.85,.77h0Zm6.53-11.02l-4.86,8.2,.56,1.42,9.06,2.43,1.85-.77,4.86-8.2-.56-1.41-9.06-2.43-1.85,.77h0Zm6.53-11.02l-4.86,8.2,.56,1.41,9.06,2.43,1.85-.77,4.86-8.2-.56-1.41-9.06-2.43-1.85,.77Zm6.53-11.01l-4.86,8.2,.56,1.42,9.06,2.43,1.85-.77,4.86-8.2-.56-1.41-9.06-2.43-1.85,.77h0Z" fill="#1c75bc"/>
          </g>
          <g>
            <polygon points="389.39 75.34 334.76 167.52 387.94 181.77 442.57 89.59 389.39 75.34" fill="#ebebeb"/>
            <path d="M344.27,156.57l-4.86,8.2,.56,1.42,9.06,2.43,1.85-.77,4.86-8.2-.56-1.41-9.06-2.43-1.85,.77h0Zm6.53-11.02l-4.86,8.2,.56,1.41,9.06,2.43,1.85-.77,4.86-8.2-.56-1.41-9.06-2.43-1.85,.77Zm6.53-11.01l-4.86,8.2,.56,1.41,9.06,2.43,1.85-.77,4.86-8.2-.56-1.41-9.06-2.43-1.85,.77Zm6.53-11.01l-4.86,8.2,.56,1.42,9.06,2.43,1.85-.77,4.86-8.2-.56-1.41-9.06-2.43-1.85,.77h0Zm6.53-11.02l-4.86,8.2,.56,1.42,9.06,2.43,1.85-.77,4.86-8.2-.56-1.41-9.06-2.43-1.85,.77h0Zm6.53-11.02l-4.86,8.2,.56,1.41,9.06,2.43,1.85-.77,4.86-8.2-.56-1.41-9.06-2.43-1.85,.77Zm6.53-11.01l-4.86,8.2,.56,1.42,9.06,2.43,1.85-.77,4.86-8.2-.56-1.41-9.06-2.43-1.85,.77h0Zm6.53-11.02l-4.86,8.2,.56,1.42,9.06,2.43,1.85-.77,4.86-8.2-.56-1.41-9.06-2.43-1.85,.77h0Zm-33.52,80.33l-4.86,8.2,.56,1.42,9.06,2.43,1.85-.77,4.86-8.2-.56-1.41-9.06-2.43-1.85,.77h0Zm6.53-11.02l-4.86,8.2,.56,1.42,9.06,2.43,1.85-.77,4.86-8.2-.56-1.41-9.06-2.43-1.85,.77h0Zm6.53-11.02l-4.86,8.2,.56,1.41,9.06,2.43,1.85-.77,4.86-8.2-.56-1.41-9.06-2.43-1.85,.77Zm6.53-11.01l-4.86,8.2,.56,1.42,9.06,2.43,1.85-.77,4.86-8.2-.56-1.41-9.06-2.43-1.85,.77h0Zm6.53-11.02l-4.86,8.2,.56,1.42,9.06,2.43,1.85-.77,4.86-8.2-.56-1.41-9.06-2.43-1.85,.77h0Zm6.53-11.02l-4.86,8.2,.56,1.41,9.06,2.43,1.85-.77,4.86-8.2-.56-1.41-9.06-2.43-1.85,.77Zm6.53-11.01l-4.86,8.2,.56,1.42,9.06,2.43,1.85-.77,4.86-8.2-.56-1.41-9.06-2.43-1.85,.77h0Zm6.53-11.02l-4.86,8.2,.56,1.42,9.06,2.43,1.85-.77,4.86-8.2-.56-1.41-9.06-2.43-1.85,.77h0Zm-33.52,80.33l-4.86,8.2,.56,1.42,9.06,2.43,1.85-.77,4.86-8.2-.56-1.41-9.06-2.43-1.85,.77h0Zm6.53-11.02l-4.86,8.2,.56,1.42,9.06,2.43,1.85-.77,4.86-8.2-.56-1.41-9.06-2.43-1.85,.77h0Zm6.53-11.02l-4.86,8.2,.56,1.41,9.06,2.43,1.85-.77,4.86-8.2-.56-1.41-9.06-2.43-1.85,.77Zm6.53-11.01l-4.86,8.2,.56,1.42,9.06,2.43,1.85-.77,4.86-8.2-.56-1.41-9.06-2.43-1.85,.77h0Zm6.53-11.02l-4.86,8.2,.56,1.42,9.06,2.43,1.85-.77,4.86-8.2-.56-1.41-9.06-2.43-1.85,.77h0Zm6.53-11.02l-4.86,8.2,.56,1.42,9.06,2.43,1.85-.77,4.86-8.2-.56-1.41-9.06-2.43-1.85,.77h0Zm6.53-11.02l-4.86,8.2,.56,1.42,9.06,2.43,1.85-.77,4.86-8.2-.56-1.41-9.06-2.43-1.85,.77h0Zm6.53-11.02l-4.86,8.2,.56,1.41,9.06,2.43,1.85-.77,4.86-8.2-.56-1.41-9.06-2.43-1.85,.77Zm-33.52,80.34l-4.86,8.2,.56,1.42,9.06,2.43,1.85-.77,4.86-8.2-.56-1.41-9.06-2.43-1.85,.77h0Zm6.53-11.02l-4.86,8.2,.56,1.42,9.06,2.43,1.85-.77,4.86-8.2-.56-1.41-9.06-2.43-1.85,.77h0Zm6.53-11.02l-4.86,8.2,.56,1.42,9.06,2.43,1.85-.77,4.86-8.2-.56-1.41-9.06-2.43-1.85,.77h0Zm6.53-11.02l-4.86,8.2,.56,1.42,9.06,2.43,1.85-.77,4.86-8.2-.56-1.41-9.06-2.43-1.85,.77h0Zm6.53-11.02l-4.86,8.2,.56,1.41,9.06,2.43,1.85-.77,4.86-8.2-.56-1.41-9.06-2.43s-1.85,.77-1.85,.77Zm6.53-11.01l-4.86,8.2,.56,1.42,9.06,2.43,1.85-.77,4.86-8.2-.56-1.41-9.06-2.43-1.85,.77h0Zm6.53-11.02l-4.86,8.2,.56,1.42,9.06,2.43,1.85-.77,4.86-8.2-.56-1.41-9.06-2.43-1.85,.77h0Zm6.53-11.02l-4.86,8.2,.56,1.41,9.06,2.43,1.85-.77,4.86-8.2-.56-1.41-9.06-2.43-1.85,.77Z" fill="#1c75bc"/>
          </g>
          <polygon points="452.41 90.27 214.74 140.29 271.99 42 452.41 90.27" fill="#fff" isolation="isolate" opacity=".2"/>
        </g>
      </g>
      <polygon points="898.92 463.49 611.4 818.18 898.92 741.14 898.92 463.49" fill="#242b52" isolation="isolate" opacity=".1"/>
      <polygon points="716.85 137.78 429.33 492.47 716.85 415.43 716.85 137.78" fill="#242b52" isolation="isolate" opacity=".1"/>
      <g>
        <g>
          <polygon points="716.89 400.75 898.92 449.52 898.92 430.51 716.89 381.74 716.89 400.75" fill="#d4b98b"/>
          <polygon points="429.37 477.79 611.4 526.56 611.4 507.55 429.37 458.78 429.37 477.79" fill="#c09e72"/>
          <polygon points="898.92 430.51 611.4 507.55 611.4 526.56 898.92 449.52 898.92 430.51" fill="#726658"/>
        </g>
        <g>
          <polygon points="716.89 368.16 898.92 416.94 898.92 397.92 716.89 349.15 716.89 368.16" fill="#aa8d66"/>
          <polygon points="429.37 445.2 611.4 493.98 611.4 474.96 429.37 426.19 429.37 445.2" fill="#aa8d66"/>
          <polygon points="898.92 397.92 611.4 474.96 611.4 493.98 898.92 416.94 898.92 397.92" fill="#726658"/>
        </g>
        <g>
          <polygon points="716.89 335.57 898.92 384.35 898.92 365.33 716.89 316.56 716.89 335.57" fill="#c09e72"/>
          <polygon points="429.37 412.61 611.4 461.39 611.4 442.37 429.37 393.6 429.37 412.61" fill="#d4b98b"/>
          <polygon points="898.92 365.33 611.4 442.37 611.4 461.39 898.92 384.35 898.92 365.33" fill="#726658"/>
        </g>
      </g>
      <polygon points="141.82 137.78 429.33 214.82 141.82 690.39 141.82 137.78" fill="#fff" isolation="isolate" opacity=".2"/>
    </g>
    <g>
      <g>
        <path d="M1017.26,745.16c0,8.52-20.99,15.44-46.89,15.44s-46.89-6.91-46.89-15.44,20.99-15.44,46.89-15.44,46.89,6.91,46.89,15.44Z" fill="#242b52" isolation="isolate" opacity=".2"/>
        <path d="M996.56,745.97c0,5.68-15.74,10.29-35.17,10.29s-35.17-4.61-35.17-10.29,15.74-10.29,35.17-10.29,35.17,4.61,35.17,10.29Z" fill="#242b52" isolation="isolate" opacity=".2"/>
      </g>
      <g>
        <path d="M956.6,682.93c-.14-4.58-.15-8.18,.23-13.93-12.86-4.42-20.31-40-20.31-40,9.68,20.8,17.45,31.46,21.46,32.58,.45-4.48,1.02-15.1,1.27-19.56,.22-3.96,.47-7.67,.99-10.77,.82-4.87-1.64-26.72,.53-28.78,0,0,4.04,31.99,5.74,28.43,5.3-11.11,8.19-12.8,14.5-22.21,.79-1.17-14.52,31.21-14.35,33.04,.64,7.31,1.46,17.89,2.49,33.22,4.77-2.67,12.07-7.86,16.11-11.31-2.78-9.46,6.14-28.04,6.14-28.04-.26,10.02-4.11,23.34-2.3,24.57,3.92-4.66,23.59-19.35,28.23-25.4,0,0-27.5,36.09-47.46,50.03,.92,11.72,1.29,31.01,1.77,34.76,1.01,7.82,2.57,16.86,4.15,23.69,1.21,1.41-6.35,6-13.32,4.77-6.42-1.13-11.07-1.82-9.97-4.77,.38-3.39,1.24-6.62,1.32-10.25,.15-7.21,.36-32.6,1.19-37.65-29.03-14.44-53.4-49.2-53.4-49.2,20.85,20.41,46.33,36.12,55.01,36.8l-.02-.02Z" fill="#43596d"/>
        <g clip-path="url(#d)">
          <g>
            <path d="M969.86,684.78s-3.11,6.88-3.11,10.85-.99,30.73,0,33.21c.99,2.48,3.11,26.77,3.11,26.77,0,0,1.53-29.6,1.77-36.06,.17-4.56-1.77-34.76-1.77-34.76h0Z" fill="#2f1d00" isolation="isolate" opacity=".2"/>
            <path d="M959.46,754.12s2.34-15.37,1.35-24.29c-.99-8.92-2.97-10.41-1.49-22.8,1.49-12.39,3.47-24.29,2.97-30.73s-.5-22.31-.5-22.31l-4.97,15s1-3.6-3.46-6.08-6.44,0-6.44,0l9.68,20.01s1.23,7.75-.75,6.75c-1.98-.99-10.41-2.48-14.37-4.96-3.97-2.48-12.89-1.49-7.44,.5s18.84,29.74,18.84,32.22,1.49,22.8,.99,30.24,5.59,6.44,5.59,6.44h0Z" fill="#ffde96" isolation="isolate" opacity=".13"/>
            <path d="M984.1,685.22s-8.43-4.46-9.91-4.96c-1.49-.5-6.94,.5-7.44,2.97-.5,2.48-4.96,11.4-7.44,10.41s-2.48-9.42-5.95-11.9c-3.47-2.48-13.88-3.47-17.84-.99-3.97,2.48-44.11-17.84-44.11-17.84,0,0,2.97-66.42,4.96-66.42s88.73,1.49,88.73,1.49l12.89,59.98-13.88,27.26h-.01Z" fill="#2f1d00" isolation="isolate" opacity=".2"/>
          </g>
        </g>
      </g>
      <g>
        <path d="M860.18,625.96c-2.73,10.69-.56,22.51,6.96,31.76,8.21,10.09,20.69,14.58,32.65,13.04,15.85,18.89,43.51,22.42,62.8,7.61,4.58-3.51,8.25-7.78,11.05-12.48,16.05,17.44,42.66,20.31,61.39,5.94,19.84-15.23,23.27-44.03,7.68-64.35-6.38-8.32-15-13.87-24.27-16.54-.02-.06-.02-.11-.04-.17,14.77-15.96,16.16-41,2.16-59.23-2.13-2.77-4.52-5.21-7.07-7.36-.93-8.32-7.49-15.32-16.34-16.55-4.73-.67-9.27,.45-12.96,2.79-12.93-12.51-33.37-13.73-47.59-2.17-12.67,10.3-16.41,27.51-10.28,41.9-7.57,2.89-13.89,9.01-16.85,17.28-10.55-.75-21.32,2.14-30.28,9.02-6.15,4.73-10.72,10.76-13.64,17.44-4.58-.91-9.51,.13-13.41,3.31-6.97,5.67-8.03,15.93-2.34,22.92,2.71,3.33,6.46,5.3,10.39,5.84h0Z" fill="#007874"/>
        <path d="M860.18,625.96c-3.94-.54-7.69-2.51-10.39-5.84-5.69-7-4.63-17.25,2.34-22.92,3.91-3.18,8.83-4.22,13.41-3.31,2.92-6.68,7.49-12.72,13.64-17.44,8.96-6.88,19.73-9.77,30.28-9.02,2.96-8.28,9.28-14.4,16.85-17.28-6.13-14.39-2.39-31.6,10.28-41.9,14.22-11.56,34.66-10.34,47.59,2.17,3.7-2.34,8.24-3.45,12.96-2.79,1.44,.2,2.79,.6,4.1,1.09-1.64,1.33-3.62,2.96-5.87,4.9-6.35,5.45-7.51,7.45-7.51,7.45,0,0-21.16-1.91-30.16,10.63-19.01,26.5,3.01,49.18,3.01,49.18,0,0-25.26-8.09-41.31-.31-13.47,6.53-25.97,18.52-30.55,31.25-10.87,30.18,20.3,42.02,20.3,42.02,0,0,10.18,.19,2.83,11.05-3.23,4.78-3.59,9.95-3,14.26-3.34-2.33-6.46-5.11-9.2-8.38-11.96,1.54-24.44-2.95-32.65-13.04-7.53-9.25-9.7-21.07-6.96-31.76h0Zm47.75,4.33c4.2-3.42,4.84-9.59,1.42-13.8-3.41-4.19-9.59-4.83-13.79-1.41-4.2,3.42-4.84,9.59-1.43,13.79,3.42,4.2,9.59,4.84,13.79,1.42h.01Zm4.26-20.72c2.67-2.17,3.07-6.09,.91-8.75-2.17-2.66-6.09-3.07-8.76-.9-2.66,2.17-3.06,6.08-.89,8.75,2.17,2.66,6.08,3.07,8.74,.9h0Zm69.7-70.1c2.67-2.17,3.07-6.08,.9-8.75s-6.08-3.07-8.75-.9-3.07,6.08-.9,8.75c2.17,2.66,6.08,3.07,8.75,.9Zm-68.58,100.05c1.96-1.59,2.25-4.47,.66-6.42-1.59-1.96-4.47-2.26-6.43-.67s-2.25,4.47-.66,6.43c1.59,1.95,4.47,2.25,6.42,.66h.01Zm66.1-86c1.96-1.6,2.26-4.47,.67-6.43s-4.47-2.26-6.43-.66c-1.96,1.59-2.26,4.47-.66,6.43,1.59,1.96,4.47,2.25,6.43,.66h-.01Z" fill="#f1f3be" isolation="isolate" opacity=".3"/>
        <path d="M995.38,601.69c-12.9,5.17-16.04,6.15-14.9,2.5,3.08-9.97,5.33-12.55,20.08-19.82,24.18-11.94,17.97-48.6,15.53-57.84,1.58,1.54,3.08,3.2,4.48,5,14,18.23,12.61,43.28-2.16,59.23,.02,.05,.03,.11,.04,.17,9.28,2.67,17.89,8.22,24.27,16.54,15.6,20.32,12.16,49.12-7.68,64.35-11.82,9.07-26.78,11.26-40.25,7.27-37.33-42.09,23.78-5.42,36.97-22.26,24.94-31.83-8.38-66.35-36.37-55.15h0Zm-12.32,45.46c-.44-8.11-1.36-1.09-12.7,5.71-12.42,7.46-39.13-.27-49.6,6.96-3.84,2.65,11.76,25.48,9.28,27.41,11.26,1.36,22.94-1.47,32.56-8.85,4.58-3.51,8.25-7.78,11.05-12.48,0,0,9.85-10.63,9.42-18.75h-.01Zm-111.27-31.69c2.66-2.17,3.07-6.08,.9-8.75-2.16-2.66-6.08-3.06-8.75-.9-2.67,2.17-3.07,6.08-.91,8.74,2.17,2.67,6.08,3.07,8.75,.9h0Zm-1.24,11.06c1.71-1.39,1.97-3.91,.58-5.62-1.4-1.72-3.91-1.97-5.62-.58-1.72,1.4-1.98,3.91-.58,5.62,1.39,1.71,3.91,1.97,5.62,.58Zm160.53,12.22c2.66-2.17,3.07-6.08,.9-8.75-2.17-2.66-6.08-3.07-8.75-.9-2.66,2.17-3.07,6.09-.9,8.75,2.17,2.66,6.08,3.07,8.75,.9Zm-24.17-62.25c4.35-3.54,5.01-9.92,1.48-14.27-3.54-4.35-9.92-5.01-14.27-1.47-4.35,3.53-5.01,9.92-1.48,14.27,3.54,4.35,9.93,5,14.27,1.47Zm24.06,72.65c1.25-1.02,1.44-2.85,.42-4.11-1.02-1.25-2.86-1.44-4.11-.43-1.25,1.02-1.44,2.86-.42,4.11,1.02,1.26,2.86,1.45,4.11,.43Zm-49.71-10.15c1.25-1.02,1.44-2.87,.42-4.12s-2.86-1.44-4.11-.42-1.45,2.85-.43,4.11c1.02,1.25,2.87,1.45,4.12,.43Z" fill="#005a56" isolation="isolate" opacity=".71"/>
      </g>
    </g>
    <g>
      <g>
        <path d="M955.94,844.15c0,11.49-35.8,20.81-79.96,20.81s-79.95-9.32-79.95-20.81,35.79-20.81,79.95-20.81,79.96,9.32,79.96,20.81Z" fill="#242b52" isolation="isolate" opacity=".1"/>
        <path d="M920.63,845.24c0,7.66-26.85,13.87-59.97,13.87s-59.97-6.21-59.97-13.87,26.85-13.88,59.97-13.88,59.97,6.21,59.97,13.88Z" fill="#242b52" isolation="isolate" opacity=".2"/>
      </g>
      <path d="M879.81,826.91c-1.8-1.03,2.02-12.22,2.28-20.61,0,0-8.85,15.58-6.1,23.52-4,2.9-11.25,7.25-16,9.48-1.02-12.85-1.83-21.73-2.48-27.86-.16-1.54,15.04-28.71,14.26-27.72-6.26,7.88-9.13,9.31-14.4,18.63-1.69,2.98-5.7-23.85-5.7-23.85-2.15,1.72,.3,20.06-.52,24.14-.51,2.59-.77,5.72-.99,9.04-.24,3.74-.79,12.65-1.25,16.41-3.99-.93-11.69-9.88-21.31-27.33,0,0,7.41,29.86,20.17,33.56-.11,1.44-.19,2.71-.24,3.89-15.54-5.58-43.31-13.73-54.61-23.07,0,0,5.31,13.5,51.96,26.05l1.97,2.06s.03,3.13,3.74,3.32c2.76,.14,6.08-.42,7.58,1.82,1.5,2.25,3.09-.56,7.77-3.46,1.5-.93,4.11-3.75,4.11-3.75,18.09-13.75,37.79-35.6,37.79-35.6-4.61,5.08-24.13,17.41-28.03,21.32h0Z" fill="#43596d"/>
      <g>
        <path d="M933.23,790.89c-5.55-5.16-13.48-6.14-20.11-3.2-3.82-13.86-15.39-24.29-29.5-26.24,4.38-6.26,6.89-13.96,6.66-22.26-.56-20.14-16.96-36.02-36.63-35.46-18.57,.51-33.39,15.49-34.53,34.1-4.04-1.48-8.39-2.26-12.94-2.14-19.67,.55-35.17,17.33-34.6,37.47,.12,4.13,.92,8.06,2.26,11.72-3.09,5.59-4.82,12.08-4.63,18.98,.57,20.14,16.97,36.02,36.65,35.47,6.19-.17,11.94-1.98,16.93-4.97,.31,.32,.55,.66,.87,.96,9.06,8.39,23.27,7.75,31.77-1.41,1.66-1.78,2.94-3.78,3.92-5.88,5.89,3.98,12.97,6.21,20.54,6,4.47-.12,8.7-1.12,12.6-2.77,.58,2.51,1.84,4.87,3.84,6.72,5.46,5.07,14.09,4.65,19.28-.92,3.54-3.82,4.56-9.06,3.12-13.6,5.48,.34,11.1-1.7,15.18-6.1,7.12-7.66,6.82-19.51-.65-26.46h-.03Z" fill="#00c48b"/>
        <path d="M865.57,725.94c0,3.65-2.96,6.63-6.63,6.63s-6.64-2.97-6.64-6.63,2.96-6.64,6.64-6.64,6.63,2.97,6.63,6.64Z" fill="#f1f3be" isolation="isolate" opacity=".3"/>
        <path d="M850,722.82c0,1.72-1.4,3.12-3.11,3.12s-3.12-1.4-3.12-3.12,1.4-3.11,3.12-3.11,3.11,1.4,3.11,3.11Z" fill="#f1f3be" isolation="isolate" opacity=".3"/>
        <path d="M922.86,792.96c0,1.73-1.4,3.12-3.12,3.12s-3.12-1.4-3.12-3.12,1.4-3.12,3.12-3.12,3.12,1.4,3.12,3.12Z" fill="#f1f3be" isolation="isolate" opacity=".3"/>
        <g opacity=".5">
          <path d="M805.86,839.33c6.19-.17,11.94-1.98,16.93-4.97,.31,.32,.55,.66,.87,.96,9.06,8.39,23.27,7.75,31.77-1.41,1.66-1.78,2.94-3.78,3.92-5.88,5.89,3.98,12.97,6.21,20.54,6,4.47-.12,8.7-1.12,12.6-2.77,.58,2.51,1.84,4.87,3.84,6.72,5.46,5.07,14.09,4.65,19.28-.92,3.54-3.82,4.56-9.06,3.12-13.6,5.48,.34,11.1-1.7,15.18-6.1,6.11-6.58,6.75-16.22,2.08-23.23-2.32,5.63-5.69,12.55-9.21,15.47-6.37,5.28-13.38-6.56-19.84-12.92-6.47-6.37-9.45,.64-18.37,5.14-8.92,4.53-17.69-3.59-31.21-7.88s-36.94,14.83-44.59,17.4c-7.64,2.57-19.1,9.53-33.11,3.16-4.47-2.02-7.76-4.84-10.18-7.76,1.96,18.75,17.7,33.12,36.41,32.59h-.03Z" fill="#005a56" isolation="isolate" opacity=".71"/>
          <path d="M884.92,791.62c0,4.22-3.42,7.63-7.63,7.63s-7.63-3.41-7.63-7.63,3.41-7.63,7.63-7.63,7.63,3.42,7.63,7.63Z" fill="#005a56" isolation="isolate" opacity=".71"/>
          <path d="M798.41,782.92c0,3.55-2.87,6.42-6.41,6.42s-6.41-2.86-6.41-6.42,2.86-6.42,6.41-6.42,6.41,2.87,6.41,6.42Z" fill="#005a56" isolation="isolate" opacity=".71"/>
          <path d="M894.2,789.34c0,1.94-1.57,3.49-3.5,3.49s-3.5-1.56-3.5-3.49,1.57-3.5,3.5-3.5,3.5,1.57,3.5,3.5Z" fill="#005a56" isolation="isolate" opacity=".71"/>
          <path d="M782.65,782.35c0,1.94-1.57,3.5-3.5,3.5s-3.5-1.56-3.5-3.5,1.57-3.5,3.5-3.5,3.5,1.57,3.5,3.5Z" fill="#005a56" isolation="isolate" opacity=".71"/>
          <path d="M802.07,772.54c0,1.98-1.59,3.58-3.57,3.58s-3.58-1.6-3.58-3.58,1.6-3.58,3.58-3.58,3.57,1.6,3.57,3.58Z" fill="#005a56" isolation="isolate" opacity=".71"/>
        </g>
        <path d="M853.65,703.73c-18.56,.51-33.39,15.49-34.53,34.1-4.04-1.48-8.39-2.26-12.94-2.14-13.67,.38-25.31,8.62-30.95,20.36,15.39-11.46,39.39-8.2,51.06-5.65,.94,.2,1.91-.21,2.41-1.04,.5-.83,.41-1.88-.22-2.61l-3.61-4.2c-1.12-1.3-1.28-3.18-.4-4.66,5.16-8.65,24.54-35.43,59.25-18.79-6.65-9.58-17.71-15.71-30.06-15.37h-.01Z" fill="#f1f3be" isolation="isolate" opacity=".3"/>
        <path d="M883.68,761.35c-19.66,2.11-33.68,13.02-33.68,13.02,0,0,22.61-6.51,42.99-4.39,2.88,.3,7.56,1.42,12.17,3.09-5.52-6.2-13.06-10.46-21.54-11.63,.02-.03,.03-.07,.06-.1h0Z" fill="#f1f3be" isolation="isolate" opacity=".3"/>
        <path d="M844.85,811.33c0,3.66-2.96,6.63-6.63,6.63s-6.63-2.97-6.63-6.63,2.97-6.62,6.63-6.62,6.63,2.96,6.63,6.62Z" fill="#00c48b"/>
        <path d="M846.89,800.15c0,1.72-1.4,3.12-3.12,3.12s-3.12-1.4-3.12-3.12,1.4-3.11,3.12-3.11,3.12,1.4,3.12,3.11Z" fill="#00c48b"/>
      </g>
    </g>
  </g>
</svg>