<?xml version="1.0" encoding="UTF-8"?>
<svg id="a" data-name="Layer 1" xmlns="http://www.w3.org/2000/svg" xmlns:xlink="http://www.w3.org/1999/xlink" viewBox="0 0 1068.23 828.48">
  <defs>
    <clipPath id="c">
      <path d="M103.04,563.37c.14-4.54,.15-8.1-.22-13.8,12.73-4.37,20.11-39.62,20.11-39.62-9.59,20.6-17.28,31.16-21.25,32.27-.45-4.44-1.01-14.96-1.25-19.37-.21-3.92-.47-7.6-.98-10.67-.81-4.82,1.63-26.47-.52-28.51,0,0-4,31.68-5.68,28.16-5.25-11-8.11-12.68-14.36-22-.78-1.16,14.38,30.91,14.22,32.72-.63,7.24-1.45,17.71-2.47,32.9-4.73-2.65-11.96-7.78-15.96-11.2,2.76-9.37-6.08-27.77-6.08-27.77,.26,9.92,4.07,23.12,2.28,24.34-3.88-4.61-23.36-19.17-27.96-25.16,0,0,27.23,35.75,47.01,49.55-.91,11.6-1.28,30.71-1.75,34.43-1,7.74-2.54,16.69-4.11,23.46-1.2,1.4,6.29,5.94,13.19,4.72,6.36-1.12,10.96-1.8,9.88-4.72-.38-3.35-1.23-6.56-1.3-10.15-.15-7.14-.35-32.28-1.18-37.29,28.75-14.3,52.89-48.73,52.89-48.73-20.65,20.21-45.89,35.77-54.48,36.44h-.03Z" fill="none"/>
    </clipPath>
    <clipPath id="d">
      <path d="M956.6,640.93c-.14-4.58-.15-8.18,.23-13.93-12.86-4.42-20.31-40-20.31-40,9.68,20.8,17.45,31.46,21.46,32.58,.45-4.48,1.02-15.1,1.27-19.56,.22-3.96,.47-7.67,.99-10.77,.82-4.87-1.64-26.72,.53-28.78,0,0,4.04,31.99,5.74,28.43,5.3-11.11,8.19-12.8,14.5-22.21,.79-1.17-14.52,31.21-14.35,33.04,.64,7.31,1.46,17.89,2.49,33.22,4.77-2.67,12.07-7.86,16.11-11.31-2.78-9.46,6.14-28.04,6.14-28.04-.26,10.02-4.11,23.34-2.3,24.57,3.92-4.66,23.59-19.35,28.23-25.4,0,0-27.5,36.09-47.46,50.03,.92,11.72,1.29,31.01,1.77,34.76,1.01,7.82,2.57,16.86,4.15,23.69,1.21,1.41-6.35,6-13.32,4.77-6.42-1.13-11.07-1.82-9.97-4.77,.38-3.39,1.24-6.62,1.32-10.25,.15-7.21,.36-32.6,1.19-37.65-29.03-14.44-53.4-49.2-53.4-49.2,20.85,20.41,46.33,36.12,55.01,36.8l-.02-.02Z" fill="none"/>
    </clipPath>
  </defs>
  <g id="b" data-name="Layer 1">
    <g>
      <g>
        <path d="M148.95,625.01c0,8.44-20.79,15.29-46.44,15.29s-46.43-6.84-46.43-15.29,20.79-15.29,46.43-15.29,46.44,6.84,46.44,15.29Z" fill="#242b52" isolation="isolate" opacity=".2"/>
        <path d="M128.44,625.81c0,5.63-15.59,10.19-34.83,10.19s-34.83-4.56-34.83-10.19,15.59-10.19,34.83-10.19,34.83,4.56,34.83,10.19Z" fill="#242b52" isolation="isolate" opacity=".2"/>
      </g>
      <g>
        <path d="M103.04,563.37c.14-4.54,.15-8.1-.22-13.8,12.73-4.37,20.11-39.62,20.11-39.62-9.59,20.6-17.28,31.16-21.25,32.27-.45-4.44-1.01-14.96-1.25-19.37-.21-3.92-.47-7.6-.98-10.67-.81-4.82,1.63-26.47-.52-28.51,0,0-4,31.68-5.68,28.16-5.25-11-8.11-12.68-14.36-22-.78-1.16,14.38,30.91,14.22,32.72-.63,7.24-1.45,17.71-2.47,32.9-4.73-2.65-11.96-7.78-15.96-11.2,2.76-9.37-6.08-27.77-6.08-27.77,.26,9.92,4.07,23.12,2.28,24.34-3.88-4.61-23.36-19.17-27.96-25.16,0,0,27.23,35.75,47.01,49.55-.91,11.6-1.28,30.71-1.75,34.43-1,7.74-2.54,16.69-4.11,23.46-1.2,1.4,6.29,5.94,13.19,4.72,6.36-1.12,10.96-1.8,9.88-4.72-.38-3.35-1.23-6.56-1.3-10.15-.15-7.14-.35-32.28-1.18-37.29,28.75-14.3,52.89-48.73,52.89-48.73-20.65,20.21-45.89,35.77-54.48,36.44h-.03Z" fill="#43596d"/>
        <g clip-path="url(#c)">
          <g>
            <path d="M89.91,565.21s3.08,6.82,3.08,10.74,.98,30.44,0,32.89-3.08,26.51-3.08,26.51c0,0-1.51-29.32-1.75-35.72-.17-4.51,1.75-34.43,1.75-34.43h0Z" fill="#ffde96" isolation="isolate" opacity=".13"/>
            <path d="M100.21,633.88s-2.31-15.22-1.33-24.05c.98-8.84,2.95-10.31,1.47-22.58-1.47-12.27-3.44-24.05-2.95-30.44s.49-22.09,.49-22.09l4.92,14.86s-.99-3.57,3.43-6.02,6.38,0,6.38,0l-9.58,19.82s-1.22,7.67,.75,6.69c1.96-.98,10.31-2.45,14.24-4.91,3.93-2.45,12.76-1.47,7.36,.49-5.4,1.96-18.65,29.45-18.65,31.91s-1.47,22.58-.98,29.95c.49,7.36-5.54,6.38-5.54,6.38h0Z" fill="#2f1d00" isolation="isolate" opacity=".2"/>
            <path d="M75.8,565.64s8.35-4.42,9.82-4.91,6.87,.49,7.36,2.95c.49,2.45,4.91,11.29,7.36,10.31,2.45-.98,2.45-9.33,5.89-11.78s13.75-3.44,17.67-.98c3.93,2.45,43.69-17.67,43.69-17.67,0,0-2.95-65.78-4.91-65.78s-87.87,1.47-87.87,1.47l-12.76,59.4,13.75,27h0Z" fill="#2f1d00" isolation="isolate" opacity=".2"/>
          </g>
        </g>
      </g>
      <g>
        <path d="M184.3,537.15c8.78-6.51,14.5-16.94,14.5-28.76,0-12.88-6.79-24.13-16.94-30.42-.38-24.42-19.42-44.41-43.5-45.09-5.72-.16-11.2,.82-16.29,2.69-1.44-23.43-20.09-42.27-43.46-42.92-24.76-.69-45.39,19.29-46.11,44.65-.29,10.38,2.86,20.02,8.32,27.87-.02,.05-.05,.1-.07,.16-21.32,3.03-38.04,21.41-38.67,44.16-.1,3.46,.22,6.82,.83,10.08-4.49,6.97-3.82,16.45,2.21,22.93,3.22,3.47,7.4,5.45,11.7,5.96,2.12,17.69,17.06,31.4,35.21,31.4,16.17,0,29.8-10.89,34.08-25.77,7.62,2.51,16.3,1.76,23.75-2.75,7.64,7.16,17.71,11.68,28.9,11.99,7.68,.21,14.96-1.57,21.38-4.88,2.95,3.56,7.38,5.84,12.37,5.84,8.9,0,16.12-7.22,16.12-16.15,0-4.25-1.65-8.11-4.34-10.98h.01Z" fill="#00c48b"/>
        <path d="M71.76,406.22c20.66-4.7,28.96-.59,42.31,6-7.85-11.49-20.72-19.16-35.47-19.57-24.76-.69-45.39,19.29-46.11,44.65-.29,10.38,2.86,20.02,8.32,27.87-.02,.05-.05,.1-.07,.16-21.32,3.03-38.04,21.41-38.67,44.16-.06,2.26,.06,4.48,.31,6.64,3.89-8.63,22.03-40.67,48.07-34.74,15.87,3.63,19.21,3.05,27.81-2.68,3.15-2.09,.13-3.3-13.01-7.39-28.51-8.88-32.55-56.22,6.51-65.1Z" fill="#f1f3be" isolation="isolate" opacity=".3"/>
        <path d="M103.12,444.09c-4.73,6.51,.68,6.93,13.32,3.55,7.32-1.95,21.32-5.11,33.88-4.12,4.61,.37,15.46,2.84,18.58,2.91-7.81-8.08-18.55-13.21-30.54-13.54-5.72-.16-11.2,.82-16.29,2.69,0,0-14.21,2.01-18.95,8.52h0Z" fill="#f1f3be" isolation="isolate" opacity=".3"/>
        <g opacity=".5">
          <path d="M198.79,508.39c0-12.88-6.79-24.13-16.94-30.42-.06-4.22-.72-8.3-1.83-12.18-2.23,3.68-5.74,7.43-11.21,9.08-12.44,3.75-4.73,10.26-4.73,10.26,0,0,16.55,28.57-10.65,44.97-11.47,6.93-28.57,8.33-43,4.93-17.19-4.05-31.55-26.05-31.55-26.05,0,0,2.75,31.18-28.42,39.67-14.75,4.01-29.81-10.68-29.81-10.68,0,0-2.14,.82-10.43,1.03-2.94,.08-5.47,.1-7.57,.1,.71,1.2,1.49,2.35,2.47,3.4,3.22,3.47,7.4,5.45,11.7,5.96,2.12,17.69,17.06,31.4,35.21,31.4,16.17,0,29.8-10.89,34.08-25.77,7.62,2.51,16.3,1.76,23.75-2.75,7.64,7.16,17.71,11.68,28.9,11.99,7.68,.21,14.96-1.57,21.38-4.88,2.95,3.56,7.38,5.84,12.37,5.84,8.9,0,16.12-7.22,16.12-16.15,0-4.25-1.65-8.11-4.34-10.98,8.78-6.51,14.5-16.94,14.5-28.76h0Z" fill="#005a56" isolation="isolate" opacity=".71"/>
          <path d="M160.03,513.7c0,5.35-4.35,9.7-9.71,9.7s-9.72-4.35-9.72-9.7,4.35-9.71,9.72-9.71,9.71,4.35,9.71,9.71Z" fill="#005a56" isolation="isolate" opacity=".71"/>
          <path d="M140.25,523.4c0,3.4-2.75,6.16-6.15,6.16s-6.16-2.76-6.16-6.16,2.76-6.16,6.16-6.16,6.15,2.76,6.15,6.16Z" fill="#005a56" isolation="isolate" opacity=".71"/>
          <path d="M42.9,533.71c0,3.4-2.75,6.16-6.16,6.16s-6.16-2.75-6.16-6.16,2.76-6.16,6.16-6.16,6.16,2.76,6.16,6.16Z" fill="#005a56" isolation="isolate" opacity=".71"/>
          <path d="M156.47,498.04c0,2.5-2.02,4.53-4.52,4.53s-4.52-2.03-4.52-4.53,2.02-4.52,4.52-4.52,4.52,2.03,4.52,4.52Z" fill="#005a56" isolation="isolate" opacity=".71"/>
          <path d="M51.96,522.83c0,2.5-2.03,4.53-4.53,4.53s-4.53-2.03-4.53-4.53,2.02-4.53,4.53-4.53,4.53,2.03,4.53,4.53Z" fill="#005a56" isolation="isolate" opacity=".71"/>
        </g>
        <path d="M67.11,426.7c0,3.4-2.76,6.16-6.16,6.16s-6.16-2.76-6.16-6.16,2.76-6.16,6.16-6.16,6.16,2.76,6.16,6.16Z" fill="#f1f3be" isolation="isolate" opacity=".3"/>
        <path d="M50.69,493.52c0,5.55-4.51,10.04-10.05,10.04s-10.05-4.49-10.05-10.04,4.49-10.05,10.05-10.05,10.05,4.49,10.05,10.05Z" fill="#f1f3be" isolation="isolate" opacity=".3"/>
        <path d="M70.44,415.52c0,1.6-1.29,2.89-2.89,2.89s-2.89-1.3-2.89-2.89,1.29-2.9,2.89-2.9,2.89,1.29,2.89,2.9Z" fill="#f1f3be" isolation="isolate" opacity=".3"/>
        <path d="M102.29,454.38c0,1.6-1.3,2.89-2.89,2.89s-2.9-1.29-2.9-2.89,1.3-2.91,2.9-2.91,2.89,1.3,2.89,2.91Z" fill="#f1f3be" isolation="isolate" opacity=".3"/>
      </g>
    </g>
    <g>
      <polygon points="662.68 790.79 551.61 761.06 471.13 782.6 471.13 828.48 522.01 828.48 662.68 790.79" fill="#242b52" isolation="isolate" opacity=".15"/>
      <polygon points="611.4 790.95 798.7 790.95 1068.23 718.73 787.35 643.55 611.4 690.64 611.4 790.95" fill="#242b52" isolation="isolate" opacity=".15"/>
      <g>
        <polygon points="898.92 421.49 611.4 498.53 611.4 776.18 898.92 699.14 898.92 421.49" fill="#b4bdc5"/>
        <polygon points="141.82 650.36 611.4 776.18 611.4 498.53 141.82 372.71 141.82 650.36" fill="#e6e7e8"/>
        <polygon points="898.92 421.49 429.33 295.67 141.82 372.71 611.4 498.53 898.92 421.49" fill="#404079"/>
        <polygon points="898.92 697.18 611.4 774.22 611.4 790.95 898.92 713.91 898.92 697.18" fill="#9fa8b6"/>
        <polygon points="141.82 665.13 611.4 790.95 611.4 774.22 141.82 648.39 141.82 665.13" fill="#b4bdc5"/>
      </g>
      <g>
        <g>
          <g>
            <polygon points="362.03 707.31 285.58 686.82 285.58 504.74 362.03 525.23 362.03 707.31" fill="#566575"/>
            <polygon points="285.58 504.74 285.58 686.82 294.49 684.44 294.49 507.13 285.58 504.74" fill="#b4bdc5"/>
            <polygon points="362.03 707.31 285.58 686.82 294.49 684.44 362.03 702.53 362.03 707.31" fill="#e6e7e8"/>
          </g>
          <polygon points="355.68 694.33 301.05 679.69 301.05 512.6 355.68 527.24 355.68 694.33" fill="#303a66"/>
        </g>
        <g>
          <g>
            <polygon points="285.58 687.02 209.12 666.53 209.12 484.45 285.58 504.94 285.58 687.02" fill="#566575"/>
            <polygon points="209.12 484.45 209.12 666.53 218.04 664.15 218.04 486.84 209.12 484.45" fill="#b4bdc5"/>
            <polygon points="285.58 687.02 209.12 666.53 218.04 664.15 285.58 682.24 285.58 687.02" fill="#e6e7e8"/>
          </g>
          <polygon points="279.22 674.04 224.59 659.4 224.59 492.31 279.22 506.95 279.22 674.04" fill="#242b52"/>
        </g>
      </g>
      <g>
        <g>
          <polygon points="786.11 660.73 862.57 640.25 862.57 527.09 786.11 547.58 786.11 660.73" fill="#566575"/>
          <polygon points="862.57 527.09 862.57 640.25 853.65 637.86 853.65 529.48 862.57 527.09" fill="#7d8191"/>
          <polygon points="786.11 660.73 862.57 640.25 853.65 637.86 786.11 655.96 786.11 660.73" fill="#e6e7e8"/>
        </g>
        <polygon points="792.47 647.76 847.1 633.12 847.1 534.94 792.47 549.58 792.47 647.76" fill="#00123e"/>
      </g>
      <g>
        <g>
          <polygon points="574.41 765.32 429.33 726.45 429.33 544.81 574.41 583.68 574.41 765.32" fill="#303a66"/>
          <polygon points="429.33 544.81 429.33 726.45 446.25 721.92 446.25 549.35 429.33 544.81" fill="#7d8191"/>
          <polygon points="574.41 765.32 429.33 726.45 446.25 721.92 574.41 756.26 574.41 765.32" fill="#e6e7e8"/>
        </g>
        <polygon points="567.77 751.04 495.69 731.72 495.69 567.01 567.77 586.33 567.77 751.04" fill="#00123e"/>
        <polygon points="503.67 676.54 495.69 674.4 495.69 647.5 503.67 649.64 503.67 676.54" fill="#9fa8b6"/>
      </g>
      <g>
        <polygon points="6.33 691.05 471.13 815.58 471.13 828.48 6.33 703.95 6.33 691.05" fill="#e6e7e8"/>
        <polygon points="6.33 691.05 471.13 815.58 613.55 777.41 148.75 652.88 6.33 691.05" fill="#001230"/>
        <polygon points="613.55 777.41 613.55 790.32 471.13 828.48 471.13 815.58 613.55 777.41" fill="#9fa8b6"/>
      </g>
      <g>
        <polygon points="41.82 697.15 21.48 691.7 153.94 656.21 174.28 661.66 41.82 697.15" fill="#c09e72"/>
        <polygon points="72.11 705.27 51.77 699.82 184.24 664.32 204.58 669.77 72.11 705.27" fill="#d4b98b"/>
        <polygon points="102.41 713.38 82.06 707.93 214.53 672.44 234.87 677.89 102.41 713.38" fill="#aa8d66"/>
        <polygon points="132.7 721.5 112.36 716.05 244.82 680.56 265.16 686.01 132.7 721.5" fill="#c09e72"/>
        <polygon points="233.54 748.52 253.88 753.97 386.34 718.48 366 713.03 233.54 748.52" fill="#c09e72"/>
        <polygon points="203.24 740.4 223.58 745.85 356.05 710.36 335.71 704.91 203.24 740.4" fill="#d4b98b"/>
        <polygon points="172.95 732.29 193.29 737.74 325.75 702.24 305.41 696.79 172.95 732.29" fill="#aa8d66"/>
        <polygon points="142.65 724.17 162.99 729.62 295.46 694.12 275.12 688.67 142.65 724.17" fill="#c09e72"/>
        <polygon points="284.17 762.09 263.83 756.64 396.29 721.14 416.64 726.59 284.17 762.09" fill="#c09e72"/>
        <polygon points="314.46 770.21 294.12 764.75 426.59 729.26 446.93 734.71 314.46 770.21" fill="#d4b98b"/>
        <polygon points="344.76 778.32 324.42 772.87 456.88 737.38 477.22 742.83 344.76 778.32" fill="#aa8d66"/>
        <polygon points="375.05 786.44 354.71 780.99 487.18 745.5 507.52 750.95 375.05 786.44" fill="#c09e72"/>
        <polygon points="445.59 805.34 465.94 810.79 598.4 775.3 578.06 769.85 445.59 805.34" fill="#d4b98b"/>
        <polygon points="415.3 797.22 435.64 802.67 568.11 767.18 547.77 761.73 415.3 797.22" fill="#aa8d66"/>
        <polygon points="385.01 789.11 405.35 794.56 537.81 759.06 517.47 753.61 385.01 789.11" fill="#c09e72"/>
      </g>
      <g>
        <polygon points="429.33 450.47 577.81 450.47 791.46 393.22 568.81 333.62 429.33 370.95 429.33 450.47" fill="#242b52" isolation="isolate" opacity=".15"/>
        <g>
          <polygon points="716.85 95.78 429.33 172.82 429.33 450.47 716.85 373.43 716.85 95.78" fill="#b4bdc5"/>
          <polygon points="141.82 95.78 429.33 172.82 429.33 450.47 141.82 373.43 141.82 95.78" fill="#e6e7e8"/>
          <polygon points="716.78 95.78 429.3 18.74 141.82 95.78 429.3 172.81 716.78 95.78" fill="#404079"/>
          <polygon points="669.78 95.78 429.3 31.34 188.81 95.78 429.3 160.21 669.78 95.78" fill="#303a66"/>
          <polygon points="429.3 31.34 188.81 95.78 203.96 99.83 429.3 39.45 429.3 31.34" fill="#001230"/>
          <polygon points="429.3 31.34 669.78 95.78 654.64 99.83 429.3 39.45 429.3 31.34" fill="#242b52"/>
        </g>
        <g>
          <g>
            <g>
              <polygon points="362.03 406.48 285.58 385.99 285.58 203.91 362.03 224.4 362.03 406.48" fill="#566575"/>
              <polygon points="285.58 203.91 285.58 385.99 294.49 383.6 294.49 206.3 285.58 203.91" fill="#b4bdc5"/>
              <polygon points="362.03 406.48 285.58 385.99 294.49 383.6 362.03 401.7 362.03 406.48" fill="#e6e7e8"/>
            </g>
            <polygon points="355.68 393.5 301.05 378.86 301.05 211.77 355.68 226.4 355.68 393.5" fill="#00123e"/>
          </g>
          <g>
            <g>
              <polygon points="285.58 386.19 209.12 365.7 209.12 183.62 285.58 204.11 285.58 386.19" fill="#566575"/>
              <polygon points="209.12 183.62 209.12 365.7 218.04 363.31 218.04 186.01 209.12 183.62" fill="#b4bdc5"/>
              <polygon points="285.58 386.19 209.12 365.7 218.04 363.31 285.58 381.41 285.58 386.19" fill="#e6e7e8"/>
            </g>
            <polygon points="279.22 373.21 224.59 358.57 224.59 191.48 279.22 206.11 279.22 373.21" fill="#303a66"/>
          </g>
        </g>
        <g>
          <g>
            <g>
              <polygon points="496.64 406.48 573.09 385.99 573.09 203.91 496.64 224.4 496.64 406.48" fill="#566575"/>
              <polygon points="573.09 203.91 573.09 385.99 564.18 383.6 564.18 206.3 573.09 203.91" fill="#7d8191"/>
              <polygon points="496.64 406.48 573.09 385.99 564.18 383.6 496.64 401.7 496.64 406.48" fill="#e6e7e8"/>
            </g>
            <polygon points="502.99 393.5 557.62 378.86 557.62 211.77 502.99 226.4 502.99 393.5" fill="#00123e"/>
          </g>
          <g>
            <g>
              <polygon points="573.09 386.19 649.55 365.7 649.55 183.62 573.09 204.11 573.09 386.19" fill="#566575"/>
              <polygon points="649.55 183.62 649.55 365.7 640.63 363.31 640.63 186.01 649.55 183.62" fill="#7d8191"/>
              <polygon points="573.09 386.19 649.55 365.7 640.63 363.31 573.09 381.41 573.09 386.19" fill="#e6e7e8"/>
            </g>
            <polygon points="579.45 373.21 634.08 358.57 634.08 191.48 579.45 206.11 579.45 373.21" fill="#242b52"/>
          </g>
        </g>
      </g>
      <g>
        <polygon points="248.28 112 397.26 151.92 471.76 131.96 322.77 92.04 248.28 112" fill="#242b52" isolation="isolate" opacity=".15"/>
        <g>
          <polygon points="454.57 53.63 274.15 5.35 216.9 103.65 397.33 151.92 454.57 53.63" fill="#242b52"/>
          <polygon points="452.41 48.27 271.99 0 214.74 98.29 395.17 146.57 452.41 48.27" fill="#e3e3e7"/>
          <path d="M273,111.06l-53.18-14.25L274.45,4.63l53.18,14.25-54.63,92.18h0Zm112.68-76.68l-53.18-14.25-54.63,92.18,53.18,14.25,54.63-92.18Zm58.05,15.5l-53.18-14.25-54.63,92.18,53.18,14.25,54.63-92.18Z" fill="#242b52" isolation="isolate" opacity=".15"/>
          <g>
            <polygon points="273.3 2.34 218.67 94.52 271.85 108.77 326.48 16.59 273.3 2.34" fill="#ebebeb"/>
            <path d="M228.18,83.57l-4.86,8.2,.56,1.42,9.06,2.43,1.85-.77,4.86-8.2-.56-1.41-9.06-2.43-1.85,.77h0Zm6.53-11.02l-4.86,8.2,.56,1.42,9.06,2.43,1.85-.77,4.86-8.2-.56-1.41-9.06-2.43-1.85,.77h0Zm6.53-11.02l-4.86,8.2,.56,1.42,9.06,2.43,1.85-.77,4.86-8.2-.56-1.41-9.06-2.43-1.85,.77h0Zm6.53-11.02l-4.86,8.2,.56,1.41,9.06,2.43,1.85-.77,4.86-8.2-.56-1.41-9.06-2.43-1.85,.77Zm6.53-11.01l-4.86,8.2,.56,1.42,9.06,2.43,1.85-.77,4.86-8.2-.56-1.41-9.06-2.43-1.85,.77h0Zm6.53-11.02l-4.86,8.2,.56,1.42,9.06,2.43,1.85-.77,4.86-8.2-.56-1.41-9.06-2.43-1.85,.77h0Zm6.53-11.02l-4.86,8.2,.56,1.41,9.06,2.43,1.85-.77,4.86-8.2-.56-1.41-9.06-2.43-1.85,.77Zm6.53-11.01l-4.86,8.2,.56,1.42,9.06,2.43,1.85-.77,4.86-8.2-.56-1.41-9.06-2.43-1.85,.77h0Zm-33.52,80.33l-4.86,8.2,.56,1.41,9.06,2.43,1.85-.77,4.86-8.2-.56-1.41-9.06-2.43-1.85,.77Zm6.53-11.01l-4.86,8.2,.56,1.42,9.06,2.43,1.85-.77,4.86-8.2-.56-1.41-9.06-2.43-1.85,.77h0Zm6.53-11.02l-4.86,8.2,.56,1.42,9.06,2.43,1.85-.77,4.86-8.2-.56-1.41-9.06-2.43-1.85,.77h0Zm6.53-11.02l-4.86,8.2,.56,1.41,9.06,2.43,1.85-.77,4.86-8.2-.56-1.41-9.06-2.43s-1.85,.77-1.85,.77Zm6.53-11.01l-4.86,8.2,.56,1.42,9.06,2.43,1.85-.77,4.86-8.2-.56-1.41-9.06-2.43-1.85,.77h0Zm6.53-11.02l-4.86,8.2,.56,1.42,9.06,2.43,1.85-.77,4.86-8.2-.56-1.41-9.06-2.43-1.85,.77h0Zm6.53-11.02l-4.86,8.2,.56,1.42,9.06,2.43,1.85-.77,4.86-8.2-.56-1.41-9.06-2.43-1.85,.77h0Zm6.53-11.02l-4.86,8.2,.56,1.42,9.06,2.43,1.85-.77,4.86-8.2-.56-1.41-9.06-2.43-1.85,.77h0Zm-33.52,80.33l-4.86,8.2,.56,1.41,9.06,2.43,1.85-.77,4.86-8.2-.56-1.41-9.06-2.43-1.85,.77h0Zm6.53-11.01l-4.86,8.2,.56,1.42,9.06,2.43,1.85-.77,4.86-8.2-.56-1.41-9.06-2.43-1.85,.77h0Zm6.53-11.02l-4.86,8.2,.56,1.42,9.06,2.43,1.85-.77,4.86-8.2-.56-1.41-9.06-2.43-1.85,.77h0Zm6.53-11.02l-4.86,8.2,.56,1.42,9.06,2.43,1.85-.77,4.86-8.2-.56-1.41-9.06-2.43-1.85,.77h0Zm6.53-11.02l-4.86,8.2,.56,1.42,9.06,2.43,1.85-.77,4.86-8.2-.56-1.41-9.06-2.43-1.85,.77h0Zm6.53-11.02l-4.86,8.2,.56,1.41,9.06,2.43,1.85-.77,4.86-8.2-.56-1.41-9.06-2.43-1.85,.77Zm6.53-11.01l-4.86,8.2,.56,1.42,9.06,2.43,1.85-.77,4.86-8.2-.56-1.41-9.06-2.43-1.85,.77h0Zm6.53-11.02l-4.86,8.2,.56,1.42,9.06,2.43,1.85-.77,4.86-8.2-.56-1.41-9.06-2.43-1.85,.77h0Zm-33.52,80.33l-4.86,8.2,.56,1.42,9.06,2.43,1.85-.77,4.86-8.2-.56-1.41-9.06-2.43-1.85,.77h0Zm6.53-11.02l-4.86,8.2,.56,1.42,9.06,2.43,1.85-.77,4.86-8.2-.56-1.41-9.06-2.43-1.85,.77h0Zm6.53-11.02l-4.86,8.2,.56,1.41,9.06,2.43,1.85-.77,4.86-8.2-.56-1.41-9.06-2.43-1.85,.77Zm6.53-11.01l-4.86,8.2,.56,1.42,9.06,2.43,1.85-.77,4.86-8.2-.56-1.41-9.06-2.43-1.85,.77h0Zm6.53-11.02l-4.86,8.2,.56,1.42,9.06,2.43,1.85-.77,4.86-8.2-.56-1.41-9.06-2.43-1.85,.77h0Zm6.53-11.02l-4.86,8.2,.56,1.41,9.06,2.43,1.85-.77,4.86-8.2-.56-1.41-9.06-2.43-1.85,.77Zm6.53-11.01l-4.86,8.2,.56,1.42,9.06,2.43,1.85-.77,4.86-8.2-.56-1.41-9.06-2.43-1.85,.77h0Zm6.53-11.02l-4.86,8.2,.56,1.42,9.06,2.43,1.85-.77,4.86-8.2-.56-1.41-9.06-2.43-1.85,.77h0Z" fill="#1c75bc"/>
          </g>
          <g>
            <polygon points="331.35 17.84 276.72 110.02 329.89 124.27 384.53 32.09 331.35 17.84" fill="#ebebeb"/>
            <path d="M286.23,99.07l-4.86,8.2,.56,1.42,9.06,2.43,1.85-.77,4.86-8.2-.56-1.41-9.06-2.43-1.85,.77h0Zm6.53-11.02l-4.86,8.2,.56,1.41,9.06,2.43,1.85-.77,4.86-8.2-.56-1.41-9.06-2.43-1.85,.77Zm6.53-11.01l-4.86,8.2,.56,1.42,9.06,2.43,1.85-.77,4.86-8.2-.56-1.41-9.06-2.43-1.85,.77h0Zm6.53-11.02l-4.86,8.2,.56,1.42,9.06,2.43,1.85-.77,4.86-8.2-.56-1.41-9.06-2.43-1.85,.77h0Zm6.53-11.02l-4.86,8.2,.56,1.41,9.06,2.43,1.85-.77,4.86-8.2-.56-1.41-9.06-2.43s-1.85,.77-1.85,.77Zm6.53-11.01l-4.86,8.2,.56,1.42,9.06,2.43,1.85-.77,4.86-8.2-.56-1.41-9.06-2.43-1.85,.77h0Zm6.53-11.02l-4.86,8.2,.56,1.42,9.06,2.43,1.85-.77,4.86-8.2-.56-1.41-9.06-2.43-1.85,.77h0Zm6.53-11.02l-4.86,8.2,.56,1.41,9.06,2.43,1.85-.77,4.86-8.2-.56-1.41-9.06-2.43s-1.85,.77-1.85,.77Zm-33.52,80.34l-4.86,8.2,.56,1.42,9.06,2.43,1.85-.77,4.86-8.2-.56-1.41-9.06-2.43-1.85,.77h0Zm6.53-11.02l-4.86,8.2,.56,1.41,9.06,2.43,1.85-.77,4.86-8.2-.56-1.41-9.06-2.43-1.85,.77Zm6.53-11.01l-4.86,8.2,.56,1.42,9.06,2.43,1.85-.77,4.86-8.2-.56-1.41-9.06-2.43-1.85,.77h0Zm6.53-11.02l-4.86,8.2,.56,1.42,9.06,2.43,1.85-.77,4.86-8.2-.56-1.41-9.06-2.43-1.85,.77h0Zm6.53-11.02l-4.86,8.2,.56,1.41,9.06,2.43,1.85-.77,4.86-8.2-.56-1.41-9.06-2.43s-1.85,.77-1.85,.77Zm6.53-11.01l-4.86,8.2,.56,1.42,9.06,2.43,1.85-.77,4.86-8.2-.56-1.41-9.06-2.43-1.85,.77h0Zm6.53-11.02l-4.86,8.2,.56,1.42,9.06,2.43,1.85-.77,4.86-8.2-.56-1.41-9.06-2.43-1.85,.77h0Zm6.53-11.02l-4.86,8.2,.56,1.42,9.06,2.43,1.85-.77,4.86-8.2-.56-1.41-9.06-2.43-1.85,.77h0Zm-33.52,80.33l-4.86,8.2,.56,1.42,9.06,2.43,1.85-.77,4.86-8.2-.56-1.41-9.06-2.43-1.85,.77h0Zm6.53-11.02l-4.86,8.2,.56,1.41,9.06,2.43,1.85-.77,4.86-8.2-.56-1.41-9.06-2.43-1.85,.77Zm6.53-11.01l-4.86,8.2,.56,1.42,9.06,2.43,1.85-.77,4.86-8.2-.56-1.41-9.06-2.43-1.85,.77h0Zm6.53-11.02l-4.86,8.2,.56,1.42,9.06,2.43,1.85-.77,4.86-8.2-.56-1.41-9.06-2.43-1.85,.77h0Zm6.53-11.02l-4.86,8.2,.56,1.42,9.06,2.43,1.85-.77,4.86-8.2-.56-1.41-9.06-2.43-1.85,.77h0Zm6.53-11.02l-4.86,8.2,.56,1.42,9.06,2.43,1.85-.77,4.86-8.2-.56-1.41-9.06-2.43-1.85,.77h0Zm6.53-11.02l-4.86,8.2,.56,1.41,9.06,2.43,1.85-.77,4.86-8.2-.56-1.41-9.06-2.43-1.85,.77Zm6.53-11.01l-4.86,8.2,.56,1.42,9.06,2.43,1.85-.77,4.86-8.2-.56-1.41-9.06-2.43-1.85,.77h0Zm-33.52,80.33l-4.86,8.2,.56,1.42,9.06,2.43,1.85-.77,4.86-8.2-.56-1.41-9.06-2.43-1.85,.77h0Zm6.53-11.02l-4.86,8.2,.56,1.42,9.06,2.43,1.85-.77,4.86-8.2-.56-1.41-9.06-2.43-1.85,.77h0Zm6.53-11.02l-4.86,8.2,.56,1.42,9.06,2.43,1.85-.77,4.86-8.2-.56-1.41-9.06-2.43-1.85,.77h0Zm6.53-11.02l-4.86,8.2,.56,1.41,9.06,2.43,1.85-.77,4.86-8.2-.56-1.41-9.06-2.43-1.85,.77Zm6.53-11.01l-4.86,8.2,.56,1.42,9.06,2.43,1.85-.77,4.86-8.2-.56-1.41-9.06-2.43-1.85,.77h0Zm6.53-11.02l-4.86,8.2,.56,1.42,9.06,2.43,1.85-.77,4.86-8.2-.56-1.41-9.06-2.43-1.85,.77h0Zm6.53-11.02l-4.86,8.2,.56,1.41,9.06,2.43,1.85-.77,4.86-8.2-.56-1.41-9.06-2.43-1.85,.77Zm6.53-11.01l-4.86,8.2,.56,1.42,9.06,2.43,1.85-.77,4.86-8.2-.56-1.41-9.06-2.43-1.85,.77h0Z" fill="#1c75bc"/>
          </g>
          <g>
            <polygon points="389.39 33.34 334.76 125.52 387.94 139.77 442.57 47.59 389.39 33.34" fill="#ebebeb"/>
            <path d="M344.27,114.57l-4.86,8.2,.56,1.42,9.06,2.43,1.85-.77,4.86-8.2-.56-1.41-9.06-2.43-1.85,.77h0Zm6.53-11.02l-4.86,8.2,.56,1.41,9.06,2.43,1.85-.77,4.86-8.2-.56-1.41-9.06-2.43-1.85,.77Zm6.53-11.01l-4.86,8.2,.56,1.41,9.06,2.43,1.85-.77,4.86-8.2-.56-1.41-9.06-2.43-1.85,.77Zm6.53-11.01l-4.86,8.2,.56,1.42,9.06,2.43,1.85-.77,4.86-8.2-.56-1.41-9.06-2.43-1.85,.77h0Zm6.53-11.02l-4.86,8.2,.56,1.42,9.06,2.43,1.85-.77,4.86-8.2-.56-1.41-9.06-2.43-1.85,.77h0Zm6.53-11.02l-4.86,8.2,.56,1.41,9.06,2.43,1.85-.77,4.86-8.2-.56-1.41-9.06-2.43s-1.85,.77-1.85,.77Zm6.53-11.01l-4.86,8.2,.56,1.42,9.06,2.43,1.85-.77,4.86-8.2-.56-1.41-9.06-2.43-1.85,.77h0Zm6.53-11.02l-4.86,8.2,.56,1.42,9.06,2.43,1.85-.77,4.86-8.2-.56-1.41-9.06-2.43-1.85,.77h0Zm-33.52,80.33l-4.86,8.2,.56,1.42,9.06,2.43,1.85-.77,4.86-8.2-.56-1.41-9.06-2.43-1.85,.77h0Zm6.53-11.02l-4.86,8.2,.56,1.42,9.06,2.43,1.85-.77,4.86-8.2-.56-1.41-9.06-2.43-1.85,.77h0Zm6.53-11.02l-4.86,8.2,.56,1.41,9.06,2.43,1.85-.77,4.86-8.2-.56-1.41-9.06-2.43-1.85,.77Zm6.53-11.01l-4.86,8.2,.56,1.42,9.06,2.43,1.85-.77,4.86-8.2-.56-1.41-9.06-2.43-1.85,.77h0Zm6.53-11.02l-4.86,8.2,.56,1.42,9.06,2.43,1.85-.77,4.86-8.2-.56-1.41-9.06-2.43-1.85,.77h0Zm6.53-11.02l-4.86,8.2,.56,1.41,9.06,2.43,1.85-.77,4.86-8.2-.56-1.41-9.06-2.43s-1.85,.77-1.85,.77Zm6.53-11.01l-4.86,8.2,.56,1.42,9.06,2.43,1.85-.77,4.86-8.2-.56-1.41-9.06-2.43-1.85,.77h0Zm6.53-11.02l-4.86,8.2,.56,1.42,9.06,2.43,1.85-.77,4.86-8.2-.56-1.41-9.06-2.43-1.85,.77h0Zm-33.52,80.33l-4.86,8.2,.56,1.42,9.06,2.43,1.85-.77,4.86-8.2-.56-1.41-9.06-2.43-1.85,.77h0Zm6.53-11.02l-4.86,8.2,.56,1.42,9.06,2.43,1.85-.77,4.86-8.2-.56-1.41-9.06-2.43-1.85,.77h0Zm6.53-11.02l-4.86,8.2,.56,1.41,9.06,2.43,1.85-.77,4.86-8.2-.56-1.41-9.06-2.43-1.85,.77Zm6.53-11.01l-4.86,8.2,.56,1.42,9.06,2.43,1.85-.77,4.86-8.2-.56-1.41-9.06-2.43-1.85,.77h0Zm6.53-11.02l-4.86,8.2,.56,1.42,9.06,2.43,1.85-.77,4.86-8.2-.56-1.41-9.06-2.43-1.85,.77h0Zm6.53-11.02l-4.86,8.2,.56,1.42,9.06,2.43,1.85-.77,4.86-8.2-.56-1.41-9.06-2.43-1.85,.77h0Zm6.53-11.02l-4.86,8.2,.56,1.42,9.06,2.43,1.85-.77,4.86-8.2-.56-1.41-9.06-2.43-1.85,.77h0Zm6.53-11.02l-4.86,8.2,.56,1.41,9.06,2.43,1.85-.77,4.86-8.2-.56-1.41-9.06-2.43-1.85,.77Zm-33.52,80.34l-4.86,8.2,.56,1.42,9.06,2.43,1.85-.77,4.86-8.2-.56-1.41-9.06-2.43-1.85,.77h0Zm6.53-11.02l-4.86,8.2,.56,1.42,9.06,2.43,1.85-.77,4.86-8.2-.56-1.41-9.06-2.43-1.85,.77h0Zm6.53-11.02l-4.86,8.2,.56,1.42,9.06,2.43,1.85-.77,4.86-8.2-.56-1.41-9.06-2.43-1.85,.77h0Zm6.53-11.02l-4.86,8.2,.56,1.42,9.06,2.43,1.85-.77,4.86-8.2-.56-1.41-9.06-2.43-1.85,.77h0Zm6.53-11.02l-4.86,8.2,.56,1.41,9.06,2.43,1.85-.77,4.86-8.2-.56-1.41-9.06-2.43-1.85,.77Zm6.53-11.01l-4.86,8.2,.56,1.42,9.06,2.43,1.85-.77,4.86-8.2-.56-1.41-9.06-2.43-1.85,.77h0Zm6.53-11.02l-4.86,8.2,.56,1.42,9.06,2.43,1.85-.77,4.86-8.2-.56-1.41-9.06-2.43-1.85,.77h0Zm6.53-11.02l-4.86,8.2,.56,1.41,9.06,2.43,1.85-.77,4.86-8.2-.56-1.41-9.06-2.43-1.85,.77Z" fill="#1c75bc"/>
          </g>
          <polygon points="452.41 48.27 214.74 98.29 271.99 0 452.41 48.27" fill="#fff" isolation="isolate" opacity=".2"/>
        </g>
      </g>
      <polygon points="898.92 421.49 611.4 776.18 898.92 699.14 898.92 421.49" fill="#242b52" isolation="isolate" opacity=".1"/>
      <polygon points="716.85 95.78 429.33 450.47 716.85 373.43 716.85 95.78" fill="#242b52" isolation="isolate" opacity=".1"/>
      <g>
        <g>
          <polygon points="716.89 358.75 898.92 407.52 898.92 388.51 716.89 339.74 716.89 358.75" fill="#d4b98b"/>
          <polygon points="429.37 435.79 611.4 484.56 611.4 465.55 429.37 416.78 429.37 435.79" fill="#c09e72"/>
          <polygon points="898.92 388.51 611.4 465.55 611.4 484.56 898.92 407.52 898.92 388.51" fill="#726658"/>
        </g>
        <g>
          <polygon points="716.89 326.16 898.92 374.94 898.92 355.92 716.89 307.15 716.89 326.16" fill="#aa8d66"/>
          <polygon points="429.37 403.2 611.4 451.98 611.4 432.96 429.37 384.19 429.37 403.2" fill="#aa8d66"/>
          <polygon points="898.92 355.92 611.4 432.96 611.4 451.98 898.92 374.94 898.92 355.92" fill="#726658"/>
        </g>
        <g>
          <polygon points="716.89 293.57 898.92 342.35 898.92 323.33 716.89 274.56 716.89 293.57" fill="#c09e72"/>
          <polygon points="429.37 370.61 611.4 419.39 611.4 400.37 429.37 351.6 429.37 370.61" fill="#d4b98b"/>
          <polygon points="898.92 323.33 611.4 400.37 611.4 419.39 898.92 342.35 898.92 323.33" fill="#726658"/>
        </g>
      </g>
      <polygon points="141.82 95.78 429.33 172.82 141.82 648.39 141.82 95.78" fill="#fff" isolation="isolate" opacity=".2"/>
    </g>
    <g>
      <g>
        <path d="M1017.26,703.16c0,8.52-20.99,15.44-46.89,15.44s-46.89-6.91-46.89-15.44,20.99-15.44,46.89-15.44,46.89,6.91,46.89,15.44Z" fill="#242b52" isolation="isolate" opacity=".2"/>
        <path d="M996.56,703.97c0,5.68-15.74,10.29-35.17,10.29s-35.17-4.61-35.17-10.29,15.74-10.29,35.17-10.29,35.17,4.61,35.17,10.29Z" fill="#242b52" isolation="isolate" opacity=".2"/>
      </g>
      <g>
        <path d="M956.6,640.93c-.14-4.58-.15-8.18,.23-13.93-12.86-4.42-20.31-40-20.31-40,9.68,20.8,17.45,31.46,21.46,32.58,.45-4.48,1.02-15.1,1.27-19.56,.22-3.96,.47-7.67,.99-10.77,.82-4.87-1.64-26.72,.53-28.78,0,0,4.04,31.99,5.74,28.43,5.3-11.11,8.19-12.8,14.5-22.21,.79-1.17-14.52,31.21-14.35,33.04,.64,7.31,1.46,17.89,2.49,33.22,4.77-2.67,12.07-7.86,16.11-11.31-2.78-9.46,6.14-28.04,6.14-28.04-.26,10.02-4.11,23.34-2.3,24.57,3.92-4.66,23.59-19.35,28.23-25.4,0,0-27.5,36.09-47.46,50.03,.92,11.72,1.29,31.01,1.77,34.76,1.01,7.82,2.57,16.86,4.15,23.69,1.21,1.41-6.35,6-13.32,4.77-6.42-1.13-11.07-1.82-9.97-4.77,.38-3.39,1.24-6.62,1.32-10.25,.15-7.21,.36-32.6,1.19-37.65-29.03-14.44-53.4-49.2-53.4-49.2,20.85,20.41,46.33,36.12,55.01,36.8l-.02-.02Z" fill="#43596d"/>
        <g clip-path="url(#d)">
          <g>
            <path d="M969.86,642.78s-3.11,6.88-3.11,10.85-.99,30.73,0,33.21c.99,2.48,3.11,26.77,3.11,26.77,0,0,1.53-29.6,1.77-36.06,.17-4.56-1.77-34.76-1.77-34.76h0Z" fill="#2f1d00" isolation="isolate" opacity=".2"/>
            <path d="M959.46,712.12s2.34-15.37,1.35-24.29c-.99-8.92-2.97-10.41-1.49-22.8,1.49-12.39,3.47-24.29,2.97-30.73s-.5-22.31-.5-22.31l-4.97,15s1-3.6-3.46-6.08-6.44,0-6.44,0l9.68,20.01s1.23,7.75-.75,6.75c-1.98-.99-10.41-2.48-14.37-4.96-3.97-2.48-12.89-1.49-7.44,.5s18.84,29.74,18.84,32.22,1.49,22.8,.99,30.24,5.59,6.44,5.59,6.44h0Z" fill="#ffde96" isolation="isolate" opacity=".13"/>
            <path d="M984.1,643.22s-8.43-4.46-9.91-4.96c-1.49-.5-6.94,.5-7.44,2.97-.5,2.48-4.96,11.4-7.44,10.41s-2.48-9.42-5.95-11.9c-3.47-2.48-13.88-3.47-17.84-.99-3.97,2.48-44.11-17.84-44.11-17.84,0,0,2.97-66.42,4.96-66.42s88.73,1.49,88.73,1.49l12.89,59.98-13.88,27.26h-.01Z" fill="#2f1d00" isolation="isolate" opacity=".2"/>
          </g>
        </g>
      </g>
      <g>
        <path d="M860.18,583.96c-2.73,10.69-.56,22.51,6.96,31.76,8.21,10.09,20.69,14.58,32.65,13.04,15.85,18.89,43.51,22.42,62.8,7.61,4.58-3.51,8.25-7.78,11.05-12.48,16.05,17.44,42.66,20.31,61.39,5.94,19.84-15.23,23.27-44.03,7.68-64.35-6.38-8.32-15-13.87-24.27-16.54-.02-.06-.02-.11-.04-.17,14.77-15.96,16.16-41,2.16-59.23-2.13-2.77-4.52-5.21-7.07-7.36-.93-8.32-7.49-15.32-16.34-16.55-4.73-.67-9.27,.45-12.96,2.79-12.93-12.51-33.37-13.73-47.59-2.17-12.67,10.3-16.41,27.51-10.28,41.9-7.57,2.89-13.89,9.01-16.85,17.28-10.55-.75-21.32,2.14-30.28,9.02-6.15,4.73-10.72,10.76-13.64,17.44-4.58-.91-9.51,.13-13.41,3.31-6.97,5.67-8.03,15.93-2.34,22.92,2.71,3.33,6.46,5.3,10.39,5.84h0Z" fill="#007874"/>
        <path d="M860.18,583.96c-3.94-.54-7.69-2.51-10.39-5.84-5.69-7-4.63-17.25,2.34-22.92,3.91-3.18,8.83-4.22,13.41-3.31,2.92-6.68,7.49-12.72,13.64-17.44,8.96-6.88,19.73-9.77,30.28-9.02,2.96-8.28,9.28-14.4,16.85-17.28-6.13-14.39-2.39-31.6,10.28-41.9,14.22-11.56,34.66-10.34,47.59,2.17,3.7-2.34,8.24-3.45,12.96-2.79,1.44,.2,2.79,.6,4.1,1.09-1.64,1.33-3.62,2.96-5.87,4.9-6.35,5.45-7.51,7.45-7.51,7.45,0,0-21.16-1.91-30.16,10.63-19.01,26.5,3.01,49.18,3.01,49.18,0,0-25.26-8.09-41.31-.31-13.47,6.53-25.97,18.52-30.55,31.25-10.87,30.18,20.3,42.02,20.3,42.02,0,0,10.18,.19,2.83,11.05-3.23,4.78-3.59,9.95-3,14.26-3.34-2.33-6.46-5.11-9.2-8.38-11.96,1.54-24.44-2.95-32.65-13.04-7.53-9.25-9.7-21.07-6.96-31.76h0Zm47.75,4.33c4.2-3.42,4.84-9.59,1.42-13.8-3.41-4.19-9.59-4.83-13.79-1.41-4.2,3.42-4.84,9.59-1.43,13.79,3.42,4.2,9.59,4.84,13.79,1.42h.01Zm4.26-20.72c2.67-2.17,3.07-6.09,.91-8.75-2.17-2.66-6.09-3.07-8.76-.9-2.66,2.17-3.06,6.08-.89,8.75,2.17,2.66,6.08,3.07,8.74,.9h0Zm69.7-70.1c2.67-2.17,3.07-6.08,.9-8.75s-6.08-3.07-8.75-.9-3.07,6.08-.9,8.75c2.17,2.66,6.08,3.07,8.75,.9Zm-68.58,100.05c1.96-1.59,2.25-4.47,.66-6.42-1.59-1.96-4.47-2.26-6.43-.67s-2.25,4.47-.66,6.43c1.59,1.95,4.47,2.25,6.42,.66h.01Zm66.1-86c1.96-1.6,2.26-4.47,.67-6.43s-4.47-2.26-6.43-.66c-1.96,1.59-2.26,4.47-.66,6.43,1.59,1.96,4.47,2.25,6.43,.66h-.01Z" fill="#f1f3be" isolation="isolate" opacity=".3"/>
        <path d="M995.38,559.69c-12.9,5.17-16.04,6.15-14.9,2.5,3.08-9.97,5.33-12.55,20.08-19.82,24.18-11.94,17.97-48.6,15.53-57.84,1.58,1.54,3.08,3.2,4.48,5,14,18.23,12.61,43.28-2.16,59.23,.02,.05,.03,.11,.04,.17,9.28,2.67,17.89,8.22,24.27,16.54,15.6,20.32,12.16,49.12-7.68,64.35-11.82,9.07-26.78,11.26-40.25,7.27-37.33-42.09,23.78-5.42,36.97-22.26,24.94-31.83-8.38-66.35-36.37-55.15h0Zm-12.32,45.46c-.44-8.11-1.36-1.09-12.7,5.71-12.42,7.46-39.13-.27-49.6,6.96-3.84,2.65,11.76,25.48,9.28,27.41,11.26,1.36,22.94-1.47,32.56-8.85,4.58-3.51,8.25-7.78,11.05-12.48,0,0,9.85-10.63,9.42-18.75h-.01Zm-111.27-31.69c2.66-2.17,3.07-6.08,.9-8.75-2.16-2.66-6.08-3.06-8.75-.9-2.67,2.17-3.07,6.08-.91,8.74,2.17,2.67,6.08,3.07,8.75,.9h0Zm-1.24,11.06c1.71-1.39,1.97-3.91,.58-5.62-1.4-1.72-3.91-1.97-5.62-.58-1.72,1.4-1.98,3.91-.58,5.62,1.39,1.71,3.91,1.97,5.62,.58Zm160.53,12.22c2.66-2.17,3.07-6.08,.9-8.75-2.17-2.66-6.08-3.07-8.75-.9-2.66,2.17-3.07,6.09-.9,8.75,2.17,2.66,6.08,3.07,8.75,.9Zm-24.17-62.25c4.35-3.54,5.01-9.92,1.48-14.27-3.54-4.35-9.92-5.01-14.27-1.47-4.35,3.53-5.01,9.92-1.48,14.27,3.54,4.35,9.93,5,14.27,1.47Zm24.06,72.65c1.25-1.02,1.44-2.85,.42-4.11-1.02-1.25-2.86-1.44-4.11-.43-1.25,1.02-1.44,2.86-.42,4.11,1.02,1.26,2.86,1.45,4.11,.43Zm-49.71-10.15c1.25-1.02,1.44-2.87,.42-4.12s-2.86-1.44-4.11-.42-1.45,2.85-.43,4.11c1.02,1.25,2.87,1.45,4.12,.43Z" fill="#005a56" isolation="isolate" opacity=".71"/>
      </g>
    </g>
    <g>
      <g>
        <path d="M955.94,802.15c0,11.49-35.8,20.81-79.96,20.81s-79.95-9.32-79.95-20.81,35.79-20.81,79.95-20.81,79.96,9.32,79.96,20.81Z" fill="#242b52" isolation="isolate" opacity=".1"/>
        <path d="M920.63,803.24c0,7.66-26.85,13.87-59.97,13.87s-59.97-6.21-59.97-13.87,26.85-13.88,59.97-13.88,59.97,6.21,59.97,13.88Z" fill="#242b52" isolation="isolate" opacity=".2"/>
      </g>
      <path d="M879.81,784.91c-1.8-1.03,2.02-12.22,2.28-20.61,0,0-8.85,15.58-6.1,23.52-4,2.9-11.25,7.25-16,9.48-1.02-12.85-1.83-21.73-2.48-27.86-.16-1.54,15.04-28.71,14.26-27.72-6.26,7.88-9.13,9.31-14.4,18.63-1.69,2.98-5.7-23.85-5.7-23.85-2.15,1.72,.3,20.06-.52,24.14-.51,2.59-.77,5.72-.99,9.04-.24,3.74-.79,12.65-1.25,16.41-3.99-.93-11.69-9.88-21.31-27.33,0,0,7.41,29.86,20.17,33.56-.11,1.44-.19,2.71-.24,3.89-15.54-5.58-43.31-13.73-54.61-23.07,0,0,5.31,13.5,51.96,26.05l1.97,2.06s.03,3.13,3.74,3.32c2.76,.14,6.08-.42,7.58,1.82,1.5,2.25,3.09-.56,7.77-3.46,1.5-.93,4.11-3.75,4.11-3.75,18.09-13.75,37.79-35.6,37.79-35.6-4.61,5.08-24.13,17.41-28.03,21.32h0Z" fill="#43596d"/>
      <g>
        <path d="M933.23,748.89c-5.55-5.16-13.48-6.14-20.11-3.2-3.82-13.86-15.39-24.29-29.5-26.24,4.38-6.26,6.89-13.96,6.66-22.26-.56-20.14-16.96-36.02-36.63-35.46-18.57,.51-33.39,15.49-34.53,34.1-4.04-1.48-8.39-2.26-12.94-2.14-19.67,.55-35.17,17.33-34.6,37.47,.12,4.13,.92,8.06,2.26,11.72-3.09,5.59-4.82,12.08-4.63,18.98,.57,20.14,16.97,36.02,36.65,35.47,6.19-.17,11.94-1.98,16.93-4.97,.31,.32,.55,.66,.87,.96,9.06,8.39,23.27,7.75,31.77-1.41,1.66-1.78,2.94-3.78,3.92-5.88,5.89,3.98,12.97,6.21,20.54,6,4.47-.12,8.7-1.12,12.6-2.77,.58,2.51,1.84,4.87,3.84,6.72,5.46,5.07,14.09,4.65,19.28-.92,3.54-3.82,4.56-9.06,3.12-13.6,5.48,.34,11.1-1.7,15.18-6.1,7.12-7.66,6.82-19.51-.65-26.46h-.03Z" fill="#00c48b"/>
        <path d="M865.57,683.94c0,3.65-2.96,6.63-6.63,6.63s-6.64-2.97-6.64-6.63,2.96-6.64,6.64-6.64,6.63,2.97,6.63,6.64Z" fill="#f1f3be" isolation="isolate" opacity=".3"/>
        <path d="M850,680.82c0,1.72-1.4,3.12-3.11,3.12s-3.12-1.4-3.12-3.12,1.4-3.11,3.12-3.11,3.11,1.4,3.11,3.11Z" fill="#f1f3be" isolation="isolate" opacity=".3"/>
        <path d="M922.86,750.96c0,1.73-1.4,3.12-3.12,3.12s-3.12-1.4-3.12-3.12,1.4-3.12,3.12-3.12,3.12,1.4,3.12,3.12Z" fill="#f1f3be" isolation="isolate" opacity=".3"/>
        <g opacity=".5">
          <path d="M805.86,797.33c6.19-.17,11.94-1.98,16.93-4.97,.31,.32,.55,.66,.87,.96,9.06,8.39,23.27,7.75,31.77-1.41,1.66-1.78,2.94-3.78,3.92-5.88,5.89,3.98,12.97,6.21,20.54,6,4.47-.12,8.7-1.12,12.6-2.77,.58,2.51,1.84,4.87,3.84,6.72,5.46,5.07,14.09,4.65,19.28-.92,3.54-3.82,4.56-9.06,3.12-13.6,5.48,.34,11.1-1.7,15.18-6.1,6.11-6.58,6.75-16.22,2.08-23.23-2.32,5.63-5.69,12.55-9.21,15.47-6.37,5.28-13.38-6.56-19.84-12.92-6.47-6.37-9.45,.64-18.37,5.14-8.92,4.53-17.69-3.59-31.21-7.88s-36.94,14.83-44.59,17.4c-7.64,2.57-19.1,9.53-33.11,3.16-4.47-2.02-7.76-4.84-10.18-7.76,1.96,18.75,17.7,33.12,36.41,32.59h-.03Z" fill="#005a56" isolation="isolate" opacity=".71"/>
          <path d="M884.92,749.62c0,4.22-3.42,7.63-7.63,7.63s-7.63-3.41-7.63-7.63,3.41-7.63,7.63-7.63,7.63,3.42,7.63,7.63Z" fill="#005a56" isolation="isolate" opacity=".71"/>
          <path d="M798.41,740.92c0,3.55-2.87,6.42-6.41,6.42s-6.41-2.86-6.41-6.42,2.86-6.42,6.41-6.42,6.41,2.87,6.41,6.42Z" fill="#005a56" isolation="isolate" opacity=".71"/>
          <path d="M894.2,747.34c0,1.94-1.57,3.49-3.5,3.49s-3.5-1.56-3.5-3.49,1.57-3.5,3.5-3.5,3.5,1.57,3.5,3.5Z" fill="#005a56" isolation="isolate" opacity=".71"/>
          <path d="M782.65,740.35c0,1.94-1.57,3.5-3.5,3.5s-3.5-1.56-3.5-3.5,1.57-3.5,3.5-3.5,3.5,1.57,3.5,3.5Z" fill="#005a56" isolation="isolate" opacity=".71"/>
          <path d="M802.07,730.54c0,1.98-1.59,3.58-3.57,3.58s-3.58-1.6-3.58-3.58,1.6-3.58,3.58-3.58,3.57,1.6,3.57,3.58Z" fill="#005a56" isolation="isolate" opacity=".71"/>
        </g>
        <path d="M853.65,661.73c-18.56,.51-33.39,15.49-34.53,34.1-4.04-1.48-8.39-2.26-12.94-2.14-13.67,.38-25.31,8.62-30.95,20.36,15.39-11.46,39.39-8.2,51.06-5.65,.94,.2,1.91-.21,2.41-1.04,.5-.83,.41-1.88-.22-2.61l-3.61-4.2c-1.12-1.3-1.28-3.18-.4-4.66,5.16-8.65,24.54-35.43,59.25-18.79-6.65-9.58-17.71-15.71-30.06-15.37h-.01Z" fill="#f1f3be" isolation="isolate" opacity=".3"/>
        <path d="M883.68,719.35c-19.66,2.11-33.68,13.02-33.68,13.02,0,0,22.61-6.51,42.99-4.39,2.88,.3,7.56,1.42,12.17,3.09-5.52-6.2-13.06-10.46-21.54-11.63,.02-.03,.03-.07,.06-.1h0Z" fill="#f1f3be" isolation="isolate" opacity=".3"/>
        <path d="M844.85,769.33c0,3.66-2.96,6.63-6.63,6.63s-6.63-2.97-6.63-6.63,2.97-6.62,6.63-6.62,6.63,2.96,6.63,6.62Z" fill="#00c48b"/>
        <path d="M846.89,758.15c0,1.72-1.4,3.12-3.12,3.12s-3.12-1.4-3.12-3.12,1.4-3.11,3.12-3.11,3.12,1.4,3.12,3.11Z" fill="#00c48b"/>
      </g>
    </g>
  </g>
</svg>