<?xml version="1.0" standalone="no"?>
<!DOCTYPE svg PUBLIC "-//W3C//DTD SVG 20010904//EN"
 "http://www.w3.org/TR/2001/REC-SVG-20010904/DTD/svg10.dtd">
<svg version="1.0" xmlns="http://www.w3.org/2000/svg"
 width="512.000000pt" height="512.000000pt" viewBox="0 0 512.000000 512.000000"
 preserveAspectRatio="xMidYMid meet">

<g transform="translate(0.000000,512.000000) scale(0.100000,-0.100000)"
fill="#000000" stroke="none">
<path d="M300 4234 c-140 -38 -249 -149 -285 -290 -14 -54 -15 -203 -13 -1275
l3 -1214 32 -67 c83 -175 218 -247 464 -248 l86 0 6 -61 c7 -85 46 -144 116
-181 52 -27 56 -28 225 -28 159 0 175 2 222 24 79 37 124 110 124 202 l0 44
1280 0 1280 0 0 -44 c0 -92 45 -165 124 -202 47 -22 63 -24 222 -24 162 0 172
1 221 25 77 39 123 116 123 207 l0 38 88 0 c247 1 382 73 465 248 l32 67 0
1235 c0 1172 -1 1238 -18 1288 -37 106 -135 205 -247 249 -43 17 -162 18
-2270 20 -1935 2 -2232 0 -2280 -13z m3220 -1539 l0 -1395 -1582 0 -1583 0
-50 24 c-55 25 -110 81 -131 132 -12 28 -14 239 -14 1239 0 1313 -3 1234 55
1311 13 18 48 44 77 58 l52 26 1588 0 1588 0 0 -1395z m1326 1360 c30 -19 60
-49 79 -79 l30 -49 3 -1211 c2 -806 -1 -1223 -7 -1246 -15 -52 -77 -119 -135
-146 l-51 -24 -542 0 -543 0 0 1395 0 1395 558 -2 559 -3 49 -30z m-3719
-2955 c-9 -69 -11 -70 -188 -70 -179 0 -189 4 -189 71 l0 39 191 0 192 0 -6
-40z m3243 1 c0 -67 -10 -71 -189 -71 -177 0 -179 1 -188 70 l-6 40 192 0 191
0 0 -39z"/>
<path d="M393 3776 l-28 -24 0 -1057 0 -1057 24 -19 c23 -19 60 -19 1462 -19
l1438 0 21 22 c20 22 20 29 20 1075 l0 1054 -25 24 -24 25 -1430 0 -1430 0
-28 -24z m2787 -1081 l0 -945 -1330 0 -1330 0 0 945 0 945 1330 0 1330 0 0
-945z"/>
<path d="M3856 3729 l-26 -20 0 -234 0 -234 26 -20 c26 -21 36 -21 486 -21
l459 0 24 25 25 24 0 230 0 230 -26 20 c-26 21 -37 21 -484 21 -447 0 -458 0
-484 -21z m844 -254 l0 -115 -360 0 -360 0 0 115 0 115 360 0 360 0 0 -115z"/>
<path d="M4120 2828 c-27 -30 -26 -73 5 -103 24 -25 26 -25 215 -25 189 0 191
0 215 25 32 31 33 74 2 103 -22 21 -32 22 -220 22 -189 0 -197 -1 -217 -22z"/>
<path d="M4125 2525 c-43 -42 -29 -105 26 -124 41 -14 338 -15 375 -1 57 22
72 83 29 125 -24 25 -26 25 -215 25 -189 0 -191 0 -215 -25z"/>
<path d="M4289 2130 c-110 -18 -205 -88 -254 -187 -25 -50 -29 -70 -30 -143 0
-77 3 -92 33 -152 60 -122 166 -188 302 -188 136 0 242 66 302 188 29 58 33
76 33 147 0 66 -5 90 -26 136 -34 72 -85 128 -146 161 -42 23 -65 30 -148 42
-11 2 -41 0 -66 -4z m127 -169 c23 -10 54 -36 70 -57 26 -33 29 -46 29 -109 0
-63 -3 -76 -29 -109 -53 -70 -143 -93 -221 -57 -74 34 -105 85 -105 172 0 77
37 131 110 163 47 20 97 19 146 -3z"/>
</g>
</svg>
