<svg width="41" height="26" viewBox="0 0 41 26" fill="none" xmlns="http://www.w3.org/2000/svg">
<path d="M40.55 2.93012C40.59 2.24012 40.25 1.59012 39.66 1.25012C39.29 1.06012 38.88 0.970115 38.47 1.00012H3.21001C2.21001 0.820115 1.23 1.45012 1 2.45012V23.9201C1.46 25.0001 1.86 25.3201 2.92 25.3601H37.65C37.9 25.3101 38.15 25.3101 38.4 25.3601C38.46 25.3601 38.53 25.3701 38.59 25.3701C38.66 25.3701 38.72 25.3701 38.79 25.3601C39.78 25.3601 40.57 24.5501 40.56 23.5601C40.56 23.5001 40.56 23.4501 40.56 23.3901V2.94012M39.48 23.2701C39.48 24.1001 39.28 24.2901 38.46 24.2901H3.16C2.28 24.2901 2.10001 24.1101 2.10001 23.2301V3.11012C2.10001 2.28012 2.3 2.09012 3.12 2.09012H38.46C39.29 2.09012 39.48 2.29012 39.48 3.11012V23.2701Z" fill="#000F52"/>
<path d="M40.55 2.93012C40.59 2.24012 40.25 1.59012 39.66 1.25012C39.29 1.06012 38.88 0.970115 38.47 1.00012H3.21001C2.21001 0.820115 1.23 1.45012 1 2.45012V23.9201C1.46 25.0001 1.86 25.3201 2.92 25.3601H37.65C37.9 25.3101 38.15 25.3101 38.4 25.3601C38.46 25.3601 38.53 25.3701 38.59 25.3701C38.66 25.3701 38.72 25.3701 38.79 25.3601C39.78 25.3601 40.57 24.5501 40.56 23.5601C40.56 23.5001 40.56 23.4501 40.56 23.3901V2.94012M39.48 23.2701C39.48 24.1001 39.28 24.2901 38.46 24.2901H3.16C2.28 24.2901 2.10001 24.1101 2.10001 23.2301V3.11012C2.10001 2.28012 2.3 2.09012 3.12 2.09012H38.46C39.29 2.09012 39.48 2.29012 39.48 3.11012V23.2701Z" stroke="#000F52" stroke-width="0.5"/>
<path d="M17.1601 22.2801H4.9601C4.2201 22.2801 4.09009 22.1501 4.09009 21.4001V4.91009C4.09009 4.24009 4.24009 4.09009 4.90009 4.09009H29.4601C30.1201 4.09009 30.2701 4.24009 30.2701 4.91009V21.4401C30.2701 22.1301 30.1201 22.2801 29.4401 22.2801H17.1601ZM17.1701 21.2001C21.0501 21.2001 24.9201 21.2001 28.7901 21.2001C29.1101 21.2001 29.1901 21.1101 29.1901 20.7901C29.1801 15.7101 29.1801 10.6201 29.1901 5.54009C29.1901 5.23009 29.1001 5.16009 28.8001 5.16009C21.0501 5.16009 13.3001 5.16009 5.55009 5.16009C5.23009 5.16009 5.15009 5.25009 5.15009 5.56009C5.15009 10.6301 5.15009 15.7001 5.15009 20.7801C5.15009 21.1201 5.24009 21.2001 5.58009 21.2001C9.44009 21.1901 13.3001 21.2001 17.1601 21.2001" fill="#000F52"/>
<path d="M17.1701 21.2001C21.0501 21.2001 24.9201 21.2001 28.7901 21.2001C29.1101 21.2001 29.1901 21.1101 29.1901 20.7901C29.1801 15.7101 29.1801 10.6201 29.1901 5.54009C29.1901 5.23009 29.1001 5.16009 28.8001 5.16009C21.0501 5.16009 13.3001 5.16009 5.55009 5.16009C5.23009 5.16009 5.15009 5.25009 5.15009 5.56009C5.15009 10.6301 5.15009 15.7001 5.15009 20.7801C5.15009 21.1201 5.24009 21.2001 5.58009 21.2001C9.44009 21.1901 13.3001 21.2001 17.1601 21.2001M17.1601 22.2801H4.9601C4.2201 22.2801 4.09009 22.1501 4.09009 21.4001V4.91009C4.09009 4.24009 4.24009 4.09009 4.90009 4.09009H29.4601C30.1201 4.09009 30.2701 4.24009 30.2701 4.91009V21.4401C30.2701 22.1301 30.1201 22.2801 29.4401 22.2801H17.1601Z" stroke="#000F52" stroke-width="0.5"/>
<path d="M34.8799 10.1102C35.1599 10.0902 35.4499 10.1002 35.7299 10.1102C36.7199 10.2402 37.4499 11.0802 37.4599 12.0702C37.4699 13.0702 36.7399 13.9202 35.7499 14.0402C35.1499 14.1302 34.5399 14.1202 33.9399 14.0402C32.9399 13.8802 32.2299 12.9902 32.2899 11.9802C32.3499 10.9702 33.1399 10.1702 34.1499 10.1002C34.3899 10.0802 34.6399 10.1002 34.8799 10.1002M34.8699 11.1802C34.6599 11.1802 34.4599 11.1702 34.2499 11.1802C33.7599 11.2002 33.3799 11.5902 33.3699 12.0802C33.3599 12.5502 33.7099 12.9502 34.1899 12.9902C34.6499 13.0302 35.1099 13.0302 35.5799 12.9902C36.0499 12.9502 36.4099 12.5402 36.3899 12.0702C36.3699 11.5902 35.9799 11.2002 35.4999 11.1802C35.2999 11.1702 35.0899 11.1802 34.8799 11.1802" fill="#000F52"/>
<path d="M34.8799 10.1102C35.1599 10.0902 35.4499 10.1002 35.7299 10.1102C36.7199 10.2402 37.4499 11.0802 37.4599 12.0702C37.4699 13.0702 36.7399 13.9202 35.7499 14.0402C35.1499 14.1302 34.5399 14.1202 33.9399 14.0402C32.9399 13.8802 32.2299 12.9902 32.2899 11.9802C32.3499 10.9702 33.1399 10.1702 34.1499 10.1002C34.3899 10.0802 34.6399 10.1002 34.8799 10.1002M34.8699 11.1802C34.6599 11.1802 34.4599 11.1702 34.2499 11.1802C33.7599 11.2002 33.3799 11.5902 33.3699 12.0802C33.3599 12.5502 33.7099 12.9502 34.1899 12.9902C34.6499 13.0302 35.1099 13.0302 35.5799 12.9902C36.0499 12.9502 36.4099 12.5402 36.3899 12.0702C36.3699 11.5902 35.9799 11.2002 35.4999 11.1802C35.2999 11.1702 35.0899 11.1802 34.8799 11.1802" stroke="#000F52" stroke-width="0.5"/>
<path d="M34.8699 8.07007C34.5899 8.09007 34.3099 8.09007 34.0299 8.07007C32.9399 7.92007 32.1799 6.92007 32.3299 5.83007C32.4499 4.94007 33.1499 4.25007 34.0399 4.13007C34.6099 4.05007 35.1999 4.05007 35.7699 4.13007C36.7699 4.29007 37.4799 5.16007 37.4399 6.17007C37.3899 7.21007 36.5599 8.04007 35.5299 8.08007C35.3099 8.08007 35.0899 8.08007 34.8699 8.08007V8.06007M34.8599 6.99007C35.0699 6.99007 35.2699 7.00007 35.4799 6.99007C35.9699 6.98007 36.3599 6.59007 36.3799 6.10007C36.3999 5.63007 36.0399 5.22007 35.5699 5.18007C35.1099 5.14007 34.6499 5.14007 34.1799 5.18007C33.7099 5.22007 33.3499 5.63007 33.3799 6.11007C33.3999 6.59007 33.7999 6.98007 34.2799 6.99007C34.4699 7.00007 34.6699 6.99007 34.8599 6.99007Z" fill="#000F52"/>
<path d="M34.8699 8.07007C34.5899 8.09007 34.3099 8.09007 34.0299 8.07007C32.9399 7.92007 32.1799 6.92007 32.3299 5.83007C32.4499 4.94007 33.1499 4.25007 34.0399 4.13007C34.6099 4.05007 35.1999 4.05007 35.7699 4.13007C36.7699 4.29007 37.4799 5.16007 37.4399 6.17007C37.3899 7.21007 36.5599 8.04007 35.5299 8.08007C35.3099 8.08007 35.0899 8.08007 34.8699 8.08007V8.06007M34.8599 6.99007C35.0699 6.99007 35.2699 7.00007 35.4799 6.99007C35.9699 6.98007 36.3599 6.59007 36.3799 6.10007C36.3999 5.63007 36.0399 5.22007 35.5699 5.18007C35.1099 5.14007 34.6499 5.14007 34.1799 5.18007C33.7099 5.22007 33.3499 5.63007 33.3799 6.11007C33.3999 6.59007 33.7999 6.98007 34.2799 6.99007C34.4699 7.00007 34.6699 6.99007 34.8599 6.99007Z" stroke="#000F52" stroke-width="0.5"/>
<path d="M34.87 16.1101C35.53 16.1101 36.18 16.1101 36.84 16.1101C37.23 16.1101 37.4601 16.3201 37.4601 16.6401C37.4601 16.9501 37.21 17.1901 36.9 17.1901C36.88 17.1901 36.86 17.1901 36.84 17.1901C35.53 17.1901 34.22 17.1901 32.91 17.1901C32.61 17.2301 32.33 17.0101 32.29 16.7001C32.29 16.6801 32.29 16.6601 32.29 16.6401C32.29 16.3201 32.52 16.1101 32.91 16.1101C33.57 16.1101 34.2201 16.1101 34.8801 16.1101" fill="#000F52"/>
<path d="M34.87 16.1101C35.53 16.1101 36.18 16.1101 36.84 16.1101C37.23 16.1101 37.4601 16.3201 37.4601 16.6401C37.4601 16.9501 37.21 17.1901 36.9 17.1901C36.88 17.1901 36.86 17.1901 36.84 17.1901C35.53 17.1901 34.22 17.1901 32.91 17.1901C32.61 17.2301 32.33 17.0101 32.29 16.7001C32.29 16.6801 32.29 16.6601 32.29 16.6401C32.29 16.3201 32.52 16.1101 32.91 16.1101C33.57 16.1101 34.2201 16.1101 34.8801 16.1101" stroke="#000F52" stroke-width="0.5"/>
<path d="M34.8801 19.2002H36.81C37.23 19.2002 37.47 19.4102 37.47 19.7402C37.47 20.0702 37.22 20.2802 36.81 20.2802C35.53 20.2802 34.2401 20.2802 32.9601 20.2802C32.5501 20.2802 32.3 20.0602 32.3 19.7402C32.3 19.4202 32.5401 19.2102 32.9601 19.2102C33.6001 19.2102 34.24 19.2102 34.89 19.2102" fill="#000F52"/>
<path d="M34.8801 19.2002H36.81C37.23 19.2002 37.47 19.4102 37.47 19.7402C37.47 20.0702 37.22 20.2802 36.81 20.2802C35.53 20.2802 34.2401 20.2802 32.9601 20.2802C32.5501 20.2802 32.3 20.0602 32.3 19.7402C32.3 19.4202 32.5401 19.2102 32.9601 19.2102C33.6001 19.2102 34.24 19.2102 34.89 19.2102" stroke="#000F52" stroke-width="0.5"/>
<path d="M14.8 16.1301C14.51 16.1501 14.26 15.9301 14.24 15.6401C14.24 15.5601 14.24 15.4801 14.28 15.4101C14.32 15.3201 14.38 15.2301 14.45 15.1601C15.96 13.6501 17.43 12.0901 18.97 10.6301C19.08 10.5201 19.2 10.4201 19.33 10.3401C19.52 10.1901 19.8 10.2101 19.96 10.3901C20.16 10.5501 20.2 10.8401 20.05 11.0501C20.01 11.1101 19.96 11.1701 19.9 11.2201C18.37 12.7601 16.83 14.3001 15.29 15.8401C15.14 15.9901 15 16.1401 14.79 16.1301" fill="#000F52"/>
<path d="M14.8 16.1301C14.51 16.1501 14.26 15.9301 14.24 15.6401C14.24 15.5601 14.24 15.4801 14.28 15.4101C14.32 15.3201 14.38 15.2301 14.45 15.1601C15.96 13.6501 17.43 12.0901 18.97 10.6301C19.08 10.5201 19.2 10.4201 19.33 10.3401C19.52 10.1901 19.8 10.2101 19.96 10.3901C20.16 10.5501 20.2 10.8401 20.05 11.0501C20.01 11.1101 19.96 11.1701 19.9 11.2201C18.37 12.7601 16.83 14.3001 15.29 15.8401C15.14 15.9901 15 16.1401 14.79 16.1301" stroke="#000F52" stroke-width="0.5"/>
<path d="M22.0501 15.14C21.8101 15.17 21.5701 15.05 21.4601 14.83C21.3501 14.61 21.4101 14.35 21.6001 14.2C21.9601 13.83 22.3201 13.47 22.6801 13.1C23.2201 12.56 23.7701 12.01 24.3201 11.48C24.6401 11.18 24.9401 11.16 25.1701 11.39C25.4101 11.64 25.3801 11.94 25.0501 12.26C24.1901 13.13 23.3301 13.99 22.4701 14.85C22.3201 15 22.1801 15.15 22.0501 15.14Z" fill="#000F52" stroke="#000F52" stroke-width="0.5"/>
<path d="M12.9599 11.78C12.9399 11.95 12.8599 12.11 12.7299 12.22C11.8299 13.12 10.9299 14.02 10.0399 14.92C9.8599 15.17 9.4999 15.22 9.2499 15.04C9.2299 15.02 9.20991 15.01 9.18991 14.99C8.97991 14.78 8.98991 14.43 9.18991 14.23C9.20991 14.21 9.2299 14.19 9.2499 14.18C10.1099 13.31 10.9699 12.45 11.8299 11.59C11.9299 11.49 12.0399 11.4 12.1599 11.33C12.3099 11.23 12.5099 11.22 12.6699 11.33C12.8399 11.43 12.9399 11.61 12.9499 11.8" fill="#000F52"/>
<path d="M12.9599 11.78C12.9399 11.95 12.8599 12.11 12.7299 12.22C11.8299 13.12 10.9299 14.02 10.0399 14.92C9.8599 15.17 9.4999 15.22 9.2499 15.04C9.2299 15.02 9.20991 15.01 9.18991 14.99C8.97991 14.78 8.98991 14.43 9.18991 14.23C9.20991 14.21 9.2299 14.19 9.2499 14.18C10.1099 13.31 10.9699 12.45 11.8299 11.59C11.9299 11.49 12.0399 11.4 12.1599 11.33C12.3099 11.23 12.5099 11.22 12.6699 11.33C12.8399 11.43 12.9399 11.61 12.9499 11.8" stroke="#000F52" stroke-width="0.5"/>
<path d="M38.7899 25.3701C38.7199 25.3701 38.6599 25.3701 38.5899 25.3701C38.5299 25.3701 38.4699 25.3701 38.3999 25.3701H38.7899Z" fill="#000F52" stroke="#000F52" stroke-width="0.5"/>
</svg>
