<?xml version="1.0" encoding="UTF-8"?>
<!DOCTYPE svg PUBLIC "-//W3C//DTD SVG 1.1//EN" "http://www.w3.org/Graphics/SVG/1.1/DTD/svg11.dtd">
<svg xmlns="http://www.w3.org/2000/svg" version="1.1" width="512px" height="512px" style="shape-rendering:geometricPrecision; text-rendering:geometricPrecision; image-rendering:optimizeQuality; fill-rule:evenodd; clip-rule:evenodd" xmlns:xlink="http://www.w3.org/1999/xlink">
<g><path style="opacity:0.968" fill="#000000" d="M 58.5,25.5 C 104.501,25.3333 150.501,25.5 196.5,26C 214.667,29.5 225.5,40.3333 229,58.5C 229.667,104.5 229.667,150.5 229,196.5C 225.5,214.667 214.667,225.5 196.5,229C 150.5,229.667 104.5,229.667 58.5,229C 40.3333,225.5 29.5,214.667 26,196.5C 25.3333,150.5 25.3333,104.5 26,58.5C 29.6802,40.3205 40.5136,29.3205 58.5,25.5 Z M 62.5,58.5 C 105.835,58.3333 149.168,58.5 192.5,59C 193.416,59.3742 194.25,59.8742 195,60.5C 196.157,82.7473 196.657,105.081 196.5,127.5C 196.333,149.167 196.167,170.833 196,192.5C 195.626,193.416 195.126,194.25 194.5,195C 172.253,196.157 149.919,196.657 127.5,196.5C 105.833,196.333 84.1667,196.167 62.5,196C 61.5838,195.626 60.7504,195.126 60,194.5C 58.3442,150.584 58.0109,106.584 59,62.5C 59.6897,60.6498 60.8564,59.3164 62.5,58.5 Z"/></g>
<g><path style="opacity:0.968" fill="#000000" d="M 314.5,25.5 C 360.501,25.3333 406.501,25.5 452.5,26C 470.667,29.5 481.5,40.3333 485,58.5C 485.667,104.5 485.667,150.5 485,196.5C 481.5,214.667 470.667,225.5 452.5,229C 406.5,229.667 360.5,229.667 314.5,229C 296.333,225.5 285.5,214.667 282,196.5C 281.333,150.5 281.333,104.5 282,58.5C 285.68,40.3205 296.514,29.3205 314.5,25.5 Z M 318.5,58.5 C 361.835,58.3333 405.168,58.5 448.5,59C 449.416,59.3742 450.25,59.8742 451,60.5C 452.157,82.7473 452.657,105.081 452.5,127.5C 452.333,149.167 452.167,170.833 452,192.5C 451.626,193.416 451.126,194.25 450.5,195C 428.253,196.157 405.919,196.657 383.5,196.5C 361.833,196.333 340.167,196.167 318.5,196C 317.584,195.626 316.75,195.126 316,194.5C 314.344,150.584 314.011,106.584 315,62.5C 315.69,60.6498 316.856,59.3164 318.5,58.5 Z"/></g>
<g><path style="opacity:0.963" fill="#000000" d="M 375.5,271.5 C 387.738,269.809 398.738,272.642 408.5,280C 434.667,306.167 460.833,332.333 487,358.5C 495.853,370.731 497.853,384.064 493,398.5C 491.503,402.165 489.503,405.498 487,408.5C 460.833,434.667 434.667,460.833 408.5,487C 396.269,495.853 382.936,497.853 368.5,493C 364.835,491.503 361.502,489.503 358.5,487C 332.333,460.833 306.167,434.667 280,408.5C 271.147,396.269 269.147,382.936 274,368.5C 275.497,364.835 277.497,361.502 280,358.5C 306.167,332.333 332.333,306.167 358.5,280C 363.712,276.061 369.379,273.227 375.5,271.5 Z M 380.5,304.5 C 382.527,304.338 384.527,304.505 386.5,305C 411.667,330.167 436.833,355.333 462,380.5C 462.667,382.5 462.667,384.5 462,386.5C 436.833,411.667 411.667,436.833 386.5,462C 384.5,462.667 382.5,462.667 380.5,462C 355.333,436.833 330.167,411.667 305,386.5C 304.333,384.5 304.333,382.5 305,380.5C 330.368,355.299 355.535,329.965 380.5,304.5 Z"/></g>
<g><path style="opacity:0.968" fill="#000000" d="M 58.5,281.5 C 104.501,281.333 150.501,281.5 196.5,282C 214.667,285.5 225.5,296.333 229,314.5C 229.667,360.5 229.667,406.5 229,452.5C 225.5,470.667 214.667,481.5 196.5,485C 150.5,485.667 104.5,485.667 58.5,485C 40.3333,481.5 29.5,470.667 26,452.5C 25.3333,406.5 25.3333,360.5 26,314.5C 29.6802,296.321 40.5136,285.321 58.5,281.5 Z M 62.5,314.5 C 105.835,314.333 149.168,314.5 192.5,315C 193.416,315.374 194.25,315.874 195,316.5C 196.157,338.747 196.657,361.081 196.5,383.5C 196.333,405.167 196.167,426.833 196,448.5C 195.626,449.416 195.126,450.25 194.5,451C 172.253,452.157 149.919,452.657 127.5,452.5C 105.833,452.333 84.1667,452.167 62.5,452C 61.5838,451.626 60.7504,451.126 60,450.5C 58.3442,406.584 58.0109,362.584 59,318.5C 59.6897,316.65 60.8564,315.316 62.5,314.5 Z"/></g>
</svg>
