<?xml version="1.0" standalone="no"?>
<!DOCTYPE svg PUBLIC "-//W3C//DTD SVG 20010904//EN"
 "http://www.w3.org/TR/2001/REC-SVG-20010904/DTD/svg10.dtd">
<svg version="1.0" xmlns="http://www.w3.org/2000/svg"
 width="512.000000pt" height="512.000000pt" viewBox="0 0 512.000000 512.000000"
 preserveAspectRatio="xMidYMid meet">

<g transform="translate(0.000000,512.000000) scale(0.100000,-0.100000)"
fill="#000000" stroke="none">
<path d="M25 5095 l-25 -24 0 -2511 0 -2511 25 -24 24 -25 2511 0 2511 0 24
25 25 24 0 1079 c0 1077 0 1079 -21 1106 -27 34 -77 36 -107 3 l-22 -23 0
-632 0 -632 -2410 0 -2410 0 0 2010 0 2010 2410 0 2410 0 0 -1220 0 -1221 25
-24 c31 -32 69 -32 100 0 l25 24 0 1271 0 1271 -25 24 -24 25 -2511 0 -2511 0
-24 -25z m4945 -4620 l0 -325 -2410 0 -2410 0 0 325 0 325 2410 0 2410 0 0
-325z"/>
<path d="M945 691 c-88 -39 -139 -120 -139 -216 0 -182 198 -293 354 -197 120
74 145 243 52 354 -59 70 -183 97 -267 59z m149 -157 c59 -59 7 -157 -74 -139
-66 15 -88 97 -36 141 36 32 77 31 110 -2z"/>
<path d="M1596 695 c-122 -43 -187 -206 -128 -321 44 -86 142 -142 231 -131
83 10 139 46 186 121 25 41 32 150 13 196 -49 117 -184 177 -302 135z m139
-160 c59 -58 5 -158 -75 -140 -39 9 -62 37 -63 81 -2 73 87 111 138 59z"/>
<path d="M3345 686 c-95 -44 -140 -122 -133 -227 7 -89 47 -153 121 -191 156
-80 340 32 340 207 0 172 -173 284 -328 211z m151 -150 c22 -18 28 -32 27 -60
-3 -112 -162 -110 -163 2 0 71 81 106 136 58z"/>
<path d="M3985 686 c-167 -77 -181 -312 -25 -408 156 -96 354 15 354 197 0
174 -172 285 -329 211z m151 -150 c52 -44 30 -126 -36 -141 -81 -18 -133 80
-74 139 33 33 74 34 110 2z"/>
<path d="M2117 618 c-28 -22 -37 -66 -37 -182 0 -128 10 -168 46 -185 35 -16
833 -16 868 0 36 17 46 57 46 184 0 119 -11 169 -40 185 -29 16 -862 13 -883
-2z m773 -183 l0 -45 -330 0 -330 0 0 45 0 45 330 0 330 0 0 -45z"/>
<path d="M1324 4788 c-33 -16 -44 -51 -44 -146 l0 -88 -70 -16 c-229 -54 -414
-239 -468 -468 l-16 -70 -88 0 c-97 0 -130 -11 -147 -47 -16 -34 -14 -47 10
-77 20 -25 24 -26 123 -26 l102 0 13 -62 c6 -35 30 -100 52 -145 87 -177 255
-304 461 -347 26 -6 26 -7 30 -105 4 -115 18 -141 75 -141 60 0 73 25 73 140
l0 100 28 6 c147 31 254 87 346 180 93 92 149 199 180 347 l6 27 100 0 c115 0
140 13 140 73 0 57 -26 71 -141 75 -98 4 -99 4 -105 30 -30 144 -83 242 -185
344 -85 85 -195 146 -304 170 l-60 13 -3 102 c-3 96 -4 103 -29 123 -28 22
-47 24 -79 8z m-42 -445 c4 -43 10 -61 28 -75 30 -24 69 -23 97 4 19 17 23 32
23 76 l0 54 38 -7 c153 -28 307 -176 356 -342 l15 -53 -49 0 c-63 0 -103 -31
-103 -80 0 -47 31 -70 98 -70 l53 0 -10 -42 c-36 -164 -203 -329 -356 -354
l-42 -7 0 51 c0 63 -23 95 -69 95 -47 0 -72 -30 -80 -96 l-6 -56 -65 22 c-83
28 -159 76 -213 137 -47 52 -101 155 -111 213 l-7 37 52 0 c62 0 99 27 99 71
0 47 -30 71 -94 77 l-57 5 6 31 c21 105 124 245 223 303 45 27 135 62 158 63
7 0 13 -24 16 -57z"/>
<path d="M3717 4780 c-25 -20 -26 -27 -29 -123 l-3 -102 -60 -13 c-109 -24
-219 -85 -304 -170 -102 -102 -155 -200 -185 -344 -6 -26 -7 -26 -105 -30
-115 -4 -141 -18 -141 -75 0 -60 25 -73 140 -73 l100 0 6 -27 c31 -148 87
-255 180 -347 92 -93 199 -149 347 -180 l27 -6 0 -100 c0 -115 13 -140 73
-140 57 0 71 26 75 141 4 98 4 99 30 105 206 43 374 170 461 347 22 45 46 110
52 145 l13 62 102 0 c99 0 103 1 123 26 24 30 26 43 10 77 -17 36 -50 47 -147
47 l-88 0 -16 70 c-54 229 -239 414 -468 468 l-70 16 0 88 c0 97 -11 130 -47
147 -34 15 -47 14 -76 -9z m-27 -432 c0 -61 27 -98 71 -98 47 0 71 30 77 94
l5 57 31 -6 c65 -13 174 -75 230 -131 56 -56 118 -165 131 -230 l6 -31 -57 -5
c-44 -4 -62 -10 -76 -28 -24 -30 -23 -69 4 -97 17 -18 32 -23 75 -23 l54 0 -7
-37 c-10 -58 -64 -161 -111 -213 -54 -61 -130 -109 -213 -137 l-65 -22 -6 56
c-8 66 -33 96 -80 96 -46 0 -69 -32 -69 -95 l0 -51 -42 7 c-153 25 -320 190
-356 354 l-10 42 53 0 c67 0 98 23 98 70 0 49 -40 80 -103 80 l-49 0 15 53
c45 152 159 274 305 327 84 30 89 29 89 -32z"/>
<path d="M1304 2849 c-15 -17 -20 -40 -22 -120 -4 -98 -4 -99 -30 -105 -74
-15 -164 -49 -223 -84 -136 -80 -257 -249 -291 -405 l-13 -60 -102 -3 c-96 -3
-103 -4 -123 -29 -23 -30 -24 -42 -9 -77 16 -34 56 -46 155 -46 l82 0 7 -42
c40 -241 258 -457 508 -503 l37 -7 0 -89 c0 -48 5 -99 11 -113 23 -51 103 -55
128 -7 6 11 11 62 11 113 l0 94 71 16 c211 50 394 217 457 418 12 36 23 77 26
92 6 26 7 26 105 30 115 4 141 18 141 75 0 60 -25 73 -139 73 l-100 0 -11 58
c-7 31 -33 99 -57 150 -86 177 -246 302 -440 343 l-53 11 0 99 c0 86 -3 102
-20 119 -27 27 -81 26 -106 -1z m1 -499 c24 -26 79 -26 105 0 15 15 20 33 20
75 0 55 0 55 28 49 135 -33 240 -108 316 -229 24 -38 66 -156 60 -167 -3 -4
-29 -8 -58 -8 -62 0 -89 -22 -89 -71 0 -46 32 -71 97 -77 l54 -4 -15 -52 c-45
-154 -160 -275 -311 -325 -34 -12 -66 -21 -72 -21 -5 0 -10 23 -10 53 0 66
-24 97 -74 97 -46 0 -68 -28 -74 -95 l-4 -54 -32 6 c-63 11 -172 73 -229 130
-56 56 -118 164 -132 231 -6 31 -6 32 28 32 75 0 117 30 117 82 0 44 -34 68
-97 68 l-55 0 7 38 c28 154 185 317 345 358 l45 11 6 -54 c4 -30 14 -62 24
-73z"/>
<path d="M3710 2850 c-17 -17 -20 -33 -20 -119 l0 -99 -52 -11 c-195 -41 -355
-166 -441 -343 -24 -51 -50 -119 -57 -150 l-11 -58 -100 0 c-114 0 -139 -13
-139 -73 0 -57 26 -71 141 -75 98 -4 99 -4 105 -30 3 -15 14 -56 26 -92 63
-201 246 -368 457 -418 l71 -16 0 -94 c0 -51 5 -102 11 -113 25 -48 105 -44
128 7 6 14 11 65 11 113 l0 89 38 7 c249 46 467 262 507 503 l7 42 82 0 c99 0
139 12 155 46 15 35 14 47 -9 77 -20 25 -27 26 -123 29 l-102 3 -13 60 c-34
156 -155 325 -291 405 -59 35 -149 69 -223 84 -26 6 -26 7 -30 105 -2 80 -7
103 -22 120 -25 27 -79 28 -106 1z m-20 -425 c0 -66 22 -95 73 -95 47 0 69 28
75 94 l4 53 40 -9 c159 -35 325 -205 353 -360 l7 -38 -55 0 c-63 0 -97 -24
-97 -68 0 -52 42 -82 117 -82 34 0 34 -1 28 -32 -14 -67 -76 -175 -132 -231
-57 -57 -166 -119 -229 -130 l-32 -6 -4 54 c-6 67 -28 95 -75 95 -51 0 -73
-29 -73 -95 0 -31 -4 -55 -10 -55 -6 0 -38 9 -72 21 -151 50 -266 171 -311
325 l-15 52 54 4 c65 6 97 31 97 77 0 49 -27 71 -89 71 -29 0 -55 4 -58 8 -8
13 37 132 68 181 36 56 106 124 163 158 37 21 140 61 166 62 4 1 7 -24 7 -54z"/>
</g>
</svg>
