<svg width="32" height="17" viewBox="0 0 32 17" fill="none" xmlns="http://www.w3.org/2000/svg">
<path d="M8.20206 1.53809H30.6185L27.9499 7.94291L23.1463 15.9606L1.79736 15.4149L8.20206 1.53809Z" fill="#7F87A8"/>
<path d="M2.41033 16.4948C2.37242 16.4759 2.33452 16.4569 2.29662 16.438C1.39322 16.2232 0.83096 15.3135 1.04575 14.4037C1.08366 14.2521 1.14052 14.1068 1.21633 13.9678C1.9681 12.4896 2.73252 11.0176 3.49693 9.54562C4.66566 7.28399 5.84071 5.03495 6.99048 2.767C7.49588 1.64882 8.63303 0.953887 9.85861 1.02338C12.9605 1.03601 16.0623 1.02338 19.1705 1.02338H19.3664C19.8023 1.0297 20.055 1.2445 20.0487 1.60459C20.0423 1.94573 19.8023 2.14156 19.3664 2.14156C16.2392 2.14156 13.1184 2.14156 9.99127 2.14156H9.66277C8.95522 2.14156 8.31083 2.55221 8.02023 3.19658C6.80728 5.55298 5.59433 7.90943 4.36874 10.2658C3.6675 11.6241 2.96627 12.9823 2.26503 14.3406C1.94284 14.966 2.18922 15.3703 2.88414 15.3703C4.27398 15.3703 5.6575 15.3703 7.04734 15.3703C7.23054 15.3956 7.40744 15.2882 7.47693 15.1176C8.41823 13.2793 9.36585 11.4472 10.3198 9.62143C10.4272 9.41295 10.4461 9.32452 10.1555 9.33715C9.52379 9.35611 8.88572 9.34347 8.25397 9.33715C7.86229 9.33715 7.62223 9.12236 7.61591 8.78754C7.61591 8.47799 7.8623 8.22529 8.17185 8.21897C8.19712 8.21897 8.21608 8.21897 8.24135 8.21897C9.08157 8.21265 9.92179 8.20634 10.7683 8.21897C10.9389 8.23792 11.1031 8.13683 11.1663 7.97258C11.7981 6.72805 12.4425 5.48982 13.0868 4.24529C13.1247 4.16948 13.1626 4.08735 13.2132 4.01154C13.3648 3.73989 13.7059 3.63881 13.9713 3.79043C14.2366 3.92941 14.3314 4.26424 14.1924 4.52325C13.9271 5.06023 13.6428 5.59091 13.3711 6.12157L12.3224 8.14947C12.4172 8.20001 12.5246 8.21895 12.6257 8.2C14.622 8.2 16.6246 8.20001 18.6272 8.20632C18.8357 8.22528 19.0252 8.10524 19.0947 7.9094C20.1813 5.78675 21.2932 3.65774 22.3798 1.51614C22.5188 1.175 22.8663 0.966522 23.2327 1.00443C25.2732 1.01706 27.3201 1.00443 29.3606 1.01075C30.2261 0.960211 30.9968 1.57301 31.1421 2.43218C31.2053 2.86808 31.1168 3.3103 30.8894 3.68935C29.5564 6.26685 28.2235 8.8444 26.8905 11.4219C26.3156 12.5338 25.7281 13.6457 25.1658 14.7638C24.7804 15.6293 23.9908 16.2421 23.0621 16.419C23.0305 16.4317 23.0052 16.4506 22.98 16.4696H2.39137L2.41033 16.4948ZM26.663 9.3561H22.4809C22.184 9.39401 21.906 9.18553 21.8681 8.8823C21.8618 8.83176 21.8681 8.7749 21.8681 8.72436C21.906 8.41481 22.1397 8.24423 22.5377 8.24423C24.0223 8.24423 25.5069 8.23791 26.9979 8.24423C27.1937 8.2695 27.3769 8.15579 27.4464 7.97258C28.255 6.38059 29.0826 4.78858 29.9039 3.20291C30.245 2.5459 29.9987 2.15421 29.2469 2.15421C27.4148 2.15421 25.5764 2.1542 23.7381 2.14788C23.4917 2.1163 23.2516 2.25529 23.1632 2.48903C21.8934 4.9781 20.6046 7.45456 19.3222 9.9373C18.7536 11.0428 18.185 12.1484 17.6038 13.254C17.5027 13.5509 17.1805 13.7025 16.8836 13.6014C16.5867 13.5004 16.4351 13.1782 16.5362 12.8812C16.5551 12.8244 16.5804 12.7738 16.6183 12.7296C17.1363 11.7188 17.6607 10.7143 18.1787 9.70356C18.2292 9.60248 18.324 9.50772 18.2987 9.3561H18.0081C16.0181 9.3561 14.0281 9.3561 12.0444 9.3561C11.8423 9.33084 11.6464 9.45088 11.5706 9.6404C10.6483 11.4472 9.70699 13.2477 8.77832 15.0544C8.72778 15.1555 8.62671 15.244 8.67093 15.3893H8.96785C13.4343 15.3893 17.9071 15.3893 22.3735 15.3893C23.1505 15.4335 23.8707 14.9913 24.1866 14.2837C24.9636 12.7486 25.766 11.2197 26.5556 9.68461C26.6315 9.59616 26.6694 9.47614 26.663 9.3561Z" fill="#000F52" stroke="#000F52" stroke-width="0.5"/>
</svg>
