<svg width="355" height="246" viewBox="0 0 355 246" fill="none" xmlns="http://www.w3.org/2000/svg">
<g style="mix-blend-mode:multiply" opacity="0.15">
<path d="M344.787 135.699L205.165 173.632L152.805 159.407L292.428 121.474L344.787 135.699Z" fill="#242B52"/>
</g>
<g style="mix-blend-mode:multiply" opacity="0.15">
<path d="M247.112 145.692C247.112 149.644 256.712 152.851 268.554 152.851C280.397 152.851 289.997 149.647 289.997 145.692C289.997 141.736 280.397 138.532 268.554 138.532C256.712 138.532 247.112 141.736 247.112 145.692Z" fill="#242B52"/>
</g>
<g style="mix-blend-mode:multiply" opacity="0.15">
<path d="M256.579 146.067C256.579 148.702 263.778 150.838 272.663 150.838C281.547 150.838 288.746 148.702 288.746 146.067C288.746 143.432 281.547 141.295 272.663 141.295C263.778 141.295 256.579 143.432 256.579 146.067Z" fill="#242B52"/>
</g>
<path d="M287.797 136.136V145.907C287.797 146.774 286.58 147.64 284.15 148.302C279.285 149.622 271.4 149.622 266.536 148.302C264.106 147.64 262.889 146.774 262.889 145.907V136.136H287.797Z" fill="#D0D2D3"/>
<mask id="mask0_1717_2077" style="mask-type:luminance" maskUnits="userSpaceOnUse" x="262" y="136" width="26" height="14">
<path d="M287.797 136.136V145.907C287.797 146.774 286.58 147.64 284.15 148.302C279.285 149.622 271.4 149.622 266.536 148.302C264.106 147.64 262.889 146.774 262.889 145.907V136.136H287.797Z" fill="white"/>
</mask>
<g mask="url(#mask0_1717_2077)">
<path opacity="0.2" d="M264.597 134.817H271.322V151.109H264.597V134.817Z" fill="#242B52"/>
<path opacity="0.3" d="M279.368 134.817H286.093V151.109H279.368V134.817Z" fill="white"/>
</g>
<path d="M275.345 139.521C268.466 139.521 262.889 138.006 262.889 136.137C262.889 134.268 268.466 132.753 275.345 132.753C282.224 132.753 287.801 134.268 287.801 136.137C287.801 138.006 282.224 139.521 275.345 139.521Z" fill="#E6E7E8"/>
<path d="M283.444 110.617V136.061C283.444 136.623 282.653 137.188 281.073 137.616C277.911 138.475 272.782 138.475 269.62 137.616C268.037 137.188 267.249 136.623 267.249 136.061V110.617H283.448H283.444Z" fill="#D0D2D3"/>
<mask id="mask1_1717_2077" style="mask-type:luminance" maskUnits="userSpaceOnUse" x="267" y="110" width="17" height="29">
<path d="M283.444 110.617V136.061C283.444 136.623 282.653 137.188 281.073 137.616C277.911 138.475 272.782 138.475 269.62 137.616C268.037 137.188 267.249 136.623 267.249 136.061V110.617H283.448H283.444Z" fill="white"/>
</mask>
<g mask="url(#mask1_1717_2077)">
<path opacity="0.2" d="M268.357 109.757H272.73V139.441H268.357V109.757Z" fill="#242B52"/>
<path opacity="0.3" d="M277.96 109.757H282.333V139.441H277.96V109.757Z" fill="white"/>
</g>
<path d="M275.346 112.816C270.872 112.816 267.246 111.831 267.246 110.615C267.246 109.4 270.872 108.415 275.346 108.415C279.819 108.415 283.445 109.4 283.445 110.615C283.445 111.831 279.819 112.816 275.346 112.816Z" fill="#E6E7E8"/>
<path d="M229.027 134.722L182.943 37.3409L183.877 33.7997L229.963 131.181L229.027 134.722Z" fill="#9FA8B6"/>
<path d="M308.289 0L183.876 33.8003L229.963 131.182L354.376 97.378L308.289 0Z" fill="#D0D2D3"/>
<path d="M261.781 49.0313L321.475 32.8133L306.981 2.18974L247.287 18.4077L261.781 49.0313ZM262.263 50.0445L321.956 33.8265L336.45 64.45L276.757 80.668L262.263 50.0445ZM186.723 34.8598L246.417 18.6418L260.911 49.2653L201.217 65.4833L186.723 34.8598ZM201.791 66.7005L261.484 50.4825L275.978 81.106L216.285 97.324L201.791 66.7005ZM277.34 81.9086L337.034 65.6906L351.528 96.3141L291.834 112.532L277.34 81.9086ZM216.776 98.364L276.47 82.146L290.964 112.77L231.27 128.988L216.776 98.364Z" fill="#EBEBEB"/>
<path d="M299.771 6.62405L302.238 11.8405L303.274 12.3421L308.583 10.9009L308.962 10.0148L306.496 4.79826L305.46 4.29668L300.151 5.7379L299.771 6.62405ZM293.018 7.67404L298.327 6.23281L299.362 6.7344L301.829 11.9509L301.45 12.837L296.141 14.2783L295.105 13.7767L292.638 8.56016L293.018 7.67404ZM285.888 9.61016L291.197 8.16893L292.233 8.67052L294.699 13.887L294.32 14.7732L289.011 16.2144L287.975 15.7128L285.508 10.4963L285.888 9.61016ZM278.758 11.5463L284.067 10.105L285.103 10.6066L287.57 15.8231L287.19 16.7093L281.881 18.1505L280.845 17.6489L278.379 12.4324L278.758 11.5463ZM271.628 13.4824L276.937 12.0412L277.973 12.5428L280.44 17.7593L280.06 18.6454L274.751 20.0866L273.715 19.585L271.249 14.3685L271.628 13.4824ZM264.498 15.4185L269.808 13.9773L270.843 14.4789L273.31 19.6954L272.931 20.5815L267.621 22.0228L266.586 21.5212L264.119 16.3047L264.498 15.4185ZM257.368 17.3546L262.678 15.9134L263.713 16.415L266.18 21.6315L265.801 22.5176L260.491 23.9589L259.456 23.4573L256.989 18.2408L257.368 17.3546ZM250.238 19.2908L255.548 17.8496L256.583 18.3511L259.05 23.5676L258.671 24.4538L253.361 25.895L252.326 25.3934L249.859 20.1769L250.238 19.2908ZM303.472 12.7334L308.781 11.2922L309.817 11.7937L312.283 17.0102L311.904 17.8964L306.595 19.3376L305.559 18.836L303.092 13.6195L303.472 12.7334ZM296.342 14.6695L301.651 13.2283L302.687 13.7299L305.153 18.9463L304.774 19.8325L299.465 21.2737L298.429 20.7721L295.962 15.5556L296.342 14.6695ZM289.212 16.6056L294.521 15.1644L295.557 15.666L298.024 20.8825L297.644 21.7686L292.335 23.2098L291.299 22.7082L288.833 17.4918L289.212 16.6056ZM282.082 18.5417L287.391 17.1005L288.427 17.6021L290.894 22.8186L290.514 23.7047L285.205 25.146L284.169 24.6444L281.703 19.4279L282.082 18.5417ZM274.952 20.4779L280.262 19.0366L281.297 19.5382L283.764 24.7547L283.385 25.6409L278.075 27.0821L277.04 26.5805L274.573 21.364L274.952 20.4779ZM267.822 22.414L273.132 20.9728L274.167 21.4743L276.634 26.6909L276.255 27.577L270.945 29.0182L269.91 28.5166L267.443 23.3001L267.822 22.414ZM260.692 24.3501L266.002 22.9089L267.037 23.4105L269.504 28.627L269.125 29.5131L263.815 30.9543L262.78 30.4528L260.313 25.2362L260.692 24.3501ZM253.563 26.2862L258.872 24.845L259.908 25.3466L262.374 30.5631L261.995 31.4492L256.686 32.8905L255.65 32.3889L253.183 27.1724L253.563 26.2862ZM306.796 19.7288L312.105 18.2876L313.141 18.7892L315.608 24.0057L315.228 24.8918L309.919 26.3331L308.883 25.8315L306.417 20.615L306.796 19.7288ZM299.666 21.665L304.975 20.2237L306.011 20.7253L308.478 25.9418L308.098 26.8279L302.789 28.2692L301.753 27.7676L299.287 22.5511L299.666 21.665ZM292.536 23.6011L297.846 22.1599L298.881 22.6614L301.348 27.8779L300.969 28.7641L295.659 30.2053L294.624 29.7037L292.157 24.4872L292.536 23.6011ZM285.406 25.5372L290.716 24.096L291.751 24.5976L294.218 29.8141L293.839 30.7002L288.529 32.1414L287.494 31.6398L285.027 26.4233L285.406 25.5372ZM278.276 27.4733L283.586 26.0321L284.621 26.5337L287.088 31.7502L286.709 32.6363L281.399 34.0775L280.364 33.576L277.897 28.3595L278.276 27.4733ZM271.146 29.4095L276.456 27.9682L277.491 28.4698L279.958 33.6863L279.579 34.5725L274.27 36.0137L273.234 35.5121L270.767 30.2956L271.146 29.4095ZM264.017 31.3456L269.326 29.9044L270.362 30.4059L272.828 35.6224L272.449 36.5086L267.14 37.9498L266.104 37.4482L263.637 32.2317L264.017 31.3456ZM256.887 33.2817L262.196 31.8405L263.232 32.3421L265.698 37.5586L265.319 38.4447L260.01 39.8859L258.974 39.3843L256.508 34.1678L256.887 33.2817ZM310.12 26.7243L315.429 25.2831L316.465 25.7847L318.932 31.0012L318.552 31.8873L313.243 33.3285L312.207 32.8269L309.741 27.6104L310.12 26.7243ZM302.99 28.6604L308.3 27.2192L309.335 27.7208L311.802 32.9373L311.423 33.8234L306.113 35.2647L305.078 34.7631L302.611 29.5466L302.99 28.6604ZM295.86 30.5965L301.17 29.1553L302.205 29.6569L304.672 34.8734L304.293 35.7595L298.983 37.2008L297.948 36.6992L295.481 31.4827L295.86 30.5965ZM288.73 32.5327L294.04 31.0914L295.075 31.593L297.542 36.8095L297.163 37.6957L291.853 39.1369L290.818 38.6353L288.351 33.4188L288.73 32.5327ZM281.601 34.4688L286.91 33.0276L287.945 33.5292L290.412 38.7457L290.033 39.6318L284.724 41.073L283.688 40.5714L281.221 35.3549L281.601 34.4688ZM274.471 36.4049L279.78 34.9637L280.816 35.4653L283.282 40.6818L282.903 41.5679L277.594 43.0091L276.558 42.5076L274.091 37.2911L274.471 36.4049ZM267.341 38.341L272.65 36.8998L273.686 37.4014L276.153 42.6179L275.773 43.504L270.464 44.9453L269.428 44.4437L266.962 39.2272L267.341 38.341ZM260.211 40.2772L265.52 38.8359L266.556 39.3375L269.023 44.554L268.643 45.4402L263.334 46.8814L262.298 46.3798L259.832 41.1633L260.211 40.2772ZM315.152 37.3379L320.462 35.8966L321.497 36.3982L323.964 41.6147L323.585 42.5009L318.275 43.9421L317.24 43.4405L314.773 38.224L315.152 37.3379ZM308.023 39.274L313.332 37.8328L314.368 38.3344L316.834 43.5508L316.455 44.437L311.146 45.8782L310.11 45.3766L307.643 40.1601L308.023 39.274ZM300.893 41.2101L306.202 39.7689L307.238 40.2705L309.704 45.487L309.325 46.3731L304.016 47.8143L302.98 47.3128L300.513 42.0963L300.893 41.2101ZM293.763 43.1462L299.072 41.705L300.108 42.2066L302.575 47.4231L302.195 48.3092L296.886 49.7505L295.85 49.2489L293.384 44.0324L293.763 43.1462ZM286.633 45.0824L291.942 43.6411L292.978 44.1427L295.445 49.3592L295.065 50.2454L289.756 51.6866L288.72 51.185L286.254 45.9685L286.633 45.0824ZM279.503 47.0185L284.813 45.5773L285.848 46.0788L288.315 51.2953L287.936 52.1815L282.626 53.6227L281.591 53.1211L279.124 47.9046L279.503 47.0185ZM272.373 48.9546L277.683 47.5134L278.718 48.015L281.185 53.2315L280.806 54.1176L275.496 55.5588L274.461 55.0572L271.994 49.8407L272.373 48.9546ZM265.243 50.8907L270.553 49.4495L271.588 49.9511L274.055 55.1676L273.676 56.0537L268.366 57.495L267.331 56.9934L264.864 51.7769L265.243 50.8907ZM318.477 44.3333L323.786 42.8921L324.822 43.3937L327.288 48.6102L326.909 49.4963L321.6 50.9376L320.564 50.436L318.097 45.2195L318.477 44.3333ZM311.347 46.2695L316.656 44.8282L317.692 45.3298L320.158 50.5463L319.779 51.4325L314.47 52.8737L313.434 52.3721L310.968 47.1556L311.347 46.2695ZM304.217 48.2056L309.526 46.7643L310.562 47.2659L313.029 52.4824L312.649 53.3686L307.34 54.8098L306.304 54.3082L303.838 49.0917L304.217 48.2056ZM297.087 50.1417L302.397 48.7005L303.432 49.2021L305.899 54.4186L305.52 55.3047L300.21 56.7459L299.175 56.2443L296.708 51.0278L297.087 50.1417ZM289.957 52.0778L295.267 50.6366L296.302 51.1382L298.769 56.3547L298.39 57.2408L293.08 58.682L292.045 58.1805L289.578 52.964L289.957 52.0778ZM282.827 54.0139L288.137 52.5727L289.172 53.0743L291.639 58.2908L291.26 59.1769L285.95 60.6182L284.915 60.1166L282.448 54.9001L282.827 54.0139ZM275.697 55.9501L281.007 54.5089L282.042 55.0104L284.509 60.2269L284.13 61.1131L278.82 62.5543L277.785 62.0527L275.318 56.8362L275.697 55.9501ZM268.568 57.8862L273.877 56.445L274.913 56.9466L277.379 62.1631L277 63.0492L271.691 64.4904L270.655 63.9889L268.188 58.7723L268.568 57.8862ZM321.801 51.3288L327.11 49.8876L328.146 50.3892L330.613 55.6056L330.233 56.4918L324.924 57.933L323.888 57.4314L321.422 52.2149L321.801 51.3288ZM314.671 53.2649L319.98 51.8237L321.016 52.3253L323.483 57.5418L323.103 58.4279L317.794 59.8691L316.758 59.3675L314.292 54.1511L314.671 53.2649ZM307.541 55.201L312.851 53.7598L313.886 54.2614L316.353 59.4779L315.974 60.364L310.664 61.8053L309.629 61.3037L307.162 56.0872L307.541 55.201ZM300.411 57.1372L305.721 55.6959L306.756 56.1975L309.223 61.414L308.844 62.3002L303.534 63.7414L302.499 63.2398L300.032 58.0233L300.411 57.1372ZM293.281 59.0733L298.591 57.6321L299.626 58.1336L302.093 63.3502L301.714 64.2363L296.404 65.6775L295.369 65.1759L292.902 59.9594L293.281 59.0733ZM286.152 61.0094L291.461 59.5682L292.496 60.0698L294.963 65.2863L294.584 66.1724L289.275 67.6136L288.239 67.1121L285.772 61.8955L286.152 61.0094ZM279.022 62.9455L284.331 61.5043L285.367 62.0059L287.833 67.2224L287.454 68.1085L282.145 69.5498L281.109 69.0482L278.642 63.8317L279.022 62.9455ZM271.892 64.8817L277.201 63.4404L278.237 63.942L280.703 69.1585L280.324 70.0447L275.015 71.4859L273.979 70.9843L271.513 65.7678L271.892 64.8817ZM325.125 58.3242L330.434 56.883L331.47 57.3846L333.937 62.6011L333.557 63.4872L328.248 64.9285L327.213 64.4269L324.746 59.2104L325.125 58.3242ZM317.995 60.2604L323.305 58.8191L324.34 59.3207L326.807 64.5372L326.428 65.4234L321.118 66.8646L320.083 66.363L317.616 61.1465L317.995 60.2604ZM310.865 62.1965L316.175 60.7553L317.21 61.2569L319.677 66.4734L319.298 67.3595L313.988 68.8007L312.953 68.2991L310.486 63.0826L310.865 62.1965ZM303.735 64.1326L309.045 62.6914L310.08 63.193L312.547 68.4095L312.168 69.2956L306.858 70.7368L305.823 70.2353L303.356 65.0188L303.735 64.1326ZM296.606 66.0688L301.915 64.6275L302.951 65.1291L305.417 70.3456L305.038 71.2317L299.729 72.673L298.693 72.1714L296.226 66.9549L296.606 66.0688ZM289.476 68.0049L294.785 66.5636L295.821 67.0652L298.287 72.2817L297.908 73.1679L292.599 74.6091L291.563 74.1075L289.096 68.891L289.476 68.0049ZM282.346 69.941L287.655 68.4998L288.691 69.0014L291.158 74.2179L290.778 75.104L285.469 76.5452L284.433 76.0436L281.967 70.8271L282.346 69.941ZM275.216 71.8771L280.525 70.4359L281.561 70.9375L284.028 76.154L283.648 77.0401L278.339 78.4814L277.304 77.9798L274.837 72.7633L275.216 71.8771ZM239.649 22.113L244.959 20.6718L245.994 21.1734L248.461 26.3899L248.082 27.276L242.772 28.7173L241.737 28.2157L239.27 22.9992L239.649 22.113ZM232.519 24.0492L237.829 22.6079L238.864 23.1095L241.331 28.326L240.952 29.2122L235.642 30.6534L234.607 30.1518L232.14 24.9353L232.519 24.0492ZM225.389 25.9853L230.699 24.5441L231.734 25.0456L234.201 30.2622L233.822 31.1483L228.512 32.5895L227.477 32.0879L225.01 26.8714L225.389 25.9853ZM218.26 27.9214L223.569 26.4802L224.605 26.9818L227.071 32.1983L226.692 33.0844L221.383 34.5256L220.347 34.0241L217.88 28.8075L218.26 27.9214ZM211.13 29.8575L216.439 28.4163L217.475 28.9179L219.941 34.1344L219.562 35.0205L214.253 36.4618L213.217 35.9602L210.75 30.7437L211.13 29.8575ZM204 31.7937L209.309 30.3524L210.345 30.854L212.812 36.0705L212.432 36.9567L207.123 38.3979L206.087 37.8963L203.621 32.6798L204 31.7937ZM196.87 33.7298L202.179 32.2886L203.215 32.7901L205.682 38.0066L205.302 38.8928L199.993 40.334L198.957 39.8324L196.491 34.6159L196.87 33.7298ZM189.74 35.6659L195.05 34.2247L196.085 34.7263L198.552 39.9428L198.173 40.8289L192.863 42.2701L191.828 41.7685L189.361 36.552L189.74 35.6659ZM242.973 29.1085L248.283 27.6673L249.318 28.1689L251.785 33.3854L251.406 34.2715L246.096 35.7127L245.061 35.2111L242.594 29.9946L242.973 29.1085ZM235.843 31.0446L241.153 29.6034L242.188 30.105L244.655 35.3215L244.276 36.2076L238.966 37.6488L237.931 37.1473L235.464 31.9308L235.843 31.0446ZM228.714 32.9808L234.023 31.5395L235.059 32.0411L237.525 37.2576L237.146 38.1438L231.837 39.585L230.801 39.0834L228.334 33.8669L228.714 32.9808ZM221.584 34.9169L226.893 33.4756L227.929 33.9772L230.395 39.1937L230.016 40.0799L224.707 41.5211L223.671 41.0195L221.204 35.803L221.584 34.9169ZM214.454 36.853L219.763 35.4118L220.799 35.9133L223.266 41.1299L222.886 42.016L217.577 43.4572L216.541 42.9556L214.075 37.7391L214.454 36.853ZM207.324 38.7891L212.633 37.3479L213.669 37.8495L216.136 43.066L215.756 43.9521L210.447 45.3933L209.411 44.8918L206.945 39.6753L207.324 38.7891ZM200.194 40.7252L205.504 39.284L206.539 39.7856L209.006 45.0021L208.627 45.8882L203.317 47.3295L202.282 46.8279L199.815 41.6114L200.194 40.7252ZM193.064 42.6614L198.374 41.2202L199.409 41.7217L201.876 46.9382L201.497 47.8244L196.187 49.2656L195.152 48.764L192.685 43.5475L193.064 42.6614ZM246.298 36.104L251.607 34.6627L252.642 35.1643L255.109 40.3808L254.73 41.267L249.421 42.7082L248.385 42.2066L245.918 36.9901L246.298 36.104ZM239.168 38.0401L244.477 36.5989L245.513 37.1005L247.979 42.3169L247.6 43.2031L242.291 44.6443L241.255 44.1427L238.788 38.9262L239.168 38.0401ZM232.038 39.9762L237.347 38.535L238.383 39.0366L240.85 44.2531L240.47 45.1392L235.161 46.5804L234.125 46.0788L231.659 40.8624L232.038 39.9762ZM224.908 41.9123L230.217 40.4711L231.253 40.9727L233.72 46.1892L233.34 47.0753L228.031 48.5166L226.995 48.015L224.529 42.7985L224.908 41.9123ZM217.778 43.8485L223.088 42.4072L224.123 42.9088L226.59 48.1253L226.211 49.0115L220.901 50.4527L219.866 49.9511L217.399 44.7346L217.778 43.8485ZM210.648 45.7846L215.958 44.3434L216.993 44.8449L219.46 50.0615L219.081 50.9476L213.771 52.3888L212.736 51.8872L210.269 46.6707L210.648 45.7846ZM203.518 47.7207L208.828 46.2795L209.863 46.7811L212.33 51.9976L211.951 52.8837L206.641 54.3249L205.606 53.8234L203.139 48.6068L203.518 47.7207ZM196.388 49.6568L201.698 48.2156L202.733 48.7172L205.2 53.9337L204.821 54.8198L199.511 56.2611L198.476 55.7595L196.009 50.543L196.388 49.6568ZM249.622 43.0994L254.931 41.6582L255.967 42.1598L258.433 47.3763L258.054 48.2624L252.745 49.7037L251.709 49.2021L249.242 43.9856L249.622 43.0994ZM242.492 45.0355L247.801 43.5943L248.837 44.0959L251.304 49.3124L250.924 50.1985L245.615 51.6398L244.579 51.1382L242.113 45.9217L242.492 45.0355ZM235.362 46.9717L240.671 45.5304L241.707 46.032L244.174 51.2485L243.794 52.1347L238.485 53.5759L237.449 53.0743L234.983 47.8578L235.362 46.9717ZM228.232 48.9078L233.542 47.4666L234.577 47.9682L237.044 53.1847L236.665 54.0708L231.355 55.512L230.32 55.0104L227.853 49.7939L228.232 48.9078ZM221.102 50.8439L226.412 49.4027L227.447 49.9043L229.914 55.1208L229.535 56.0069L224.225 57.4481L223.19 56.9466L220.723 51.7301L221.102 50.8439ZM213.972 52.78L219.282 51.3388L220.317 51.8404L222.784 57.0569L222.405 57.943L217.095 59.3843L216.06 58.8827L213.593 53.6662L213.972 52.78ZM206.842 54.7162L212.152 53.2749L213.187 53.7765L215.654 58.993L215.275 59.8792L209.966 61.3204L208.93 60.8188L206.463 55.6023L206.842 54.7162ZM199.713 56.6523L205.022 55.2111L206.058 55.7127L208.524 60.9292L208.145 61.8153L202.836 63.2565L201.8 62.7549L199.333 57.5384L199.713 56.6523ZM254.75 53.9136L260.059 52.4724L261.095 52.974L263.561 58.1905L263.182 59.0766L257.873 60.5179L256.837 60.0163L254.371 54.7998L254.75 53.9136ZM247.62 55.8498L252.929 54.4085L253.965 54.9101L256.432 60.1266L256.052 61.0128L250.743 62.454L249.707 61.9524L247.241 56.7359L247.62 55.8498ZM240.49 57.7859L245.8 56.3447L246.835 56.8462L249.302 62.0627L248.923 62.9489L243.613 64.3901L242.578 63.8885L240.111 58.672L240.49 57.7859ZM233.36 59.722L238.67 58.2808L239.705 58.7824L242.172 63.9989L241.793 64.885L236.483 66.3262L235.448 65.8247L232.981 60.6081L233.36 59.722ZM226.23 61.6581L231.54 60.2169L232.575 60.7185L235.042 65.935L234.663 66.8211L229.353 68.2623L228.318 67.7608L225.851 62.5443L226.23 61.6581ZM219.101 63.5943L224.41 62.153L225.445 62.6546L227.912 67.8711L227.533 68.7572L222.224 70.1985L221.188 69.6969L218.721 64.4804L219.101 63.5943ZM211.971 65.5304L217.28 64.0891L218.316 64.5907L220.782 69.8072L220.403 70.6934L215.094 72.1346L214.058 71.633L211.591 66.4165L211.971 65.5304ZM204.841 67.4665L210.15 66.0253L211.186 66.5269L213.653 71.7434L213.273 72.6295L207.964 74.0707L206.928 73.5691L204.461 68.3526L204.841 67.4665ZM258.074 60.9091L263.383 59.4679L264.419 59.9694L266.886 65.186L266.506 66.0721L261.197 67.5133L260.162 67.0117L257.695 61.7952L258.074 60.9091ZM250.944 62.8452L256.254 61.404L257.289 61.9056L259.756 67.1221L259.377 68.0082L254.067 69.4494L253.032 68.9479L250.565 63.7314L250.944 62.8452ZM243.814 64.7814L249.124 63.3401L250.159 63.8417L252.626 69.0582L252.247 69.9443L246.937 71.3856L245.902 70.884L243.435 65.6675L243.814 64.7814ZM236.684 66.7175L241.994 65.2762L243.029 65.7778L245.496 70.9943L245.117 71.8805L239.807 73.3217L238.772 72.8201L236.305 67.6036L236.684 66.7175ZM229.555 68.6536L234.864 67.2123L235.9 67.7139L238.366 72.9305L237.987 73.8166L232.678 75.2578L231.642 74.7562L229.175 69.5397L229.555 68.6536ZM222.425 70.5897L227.734 69.1485L228.77 69.6501L231.236 74.8666L230.857 75.7527L225.548 77.194L224.512 76.6924L222.045 71.4758L222.425 70.5897ZM215.295 72.5258L220.604 71.0846L221.64 71.5862L224.107 76.8027L223.727 77.6888L218.418 79.1301L217.382 78.6285L214.916 73.412L215.295 72.5258ZM208.165 74.462L213.474 73.0207L214.51 73.5223L216.977 78.7388L216.597 79.6249L211.288 81.0662L210.252 80.5646L207.786 75.3481L208.165 74.462ZM261.398 67.9046L266.708 66.4633L267.743 66.9649L270.21 72.1814L269.831 73.0675L264.521 74.5088L263.486 74.0072L261.019 68.7907L261.398 67.9046ZM254.268 69.8407L259.578 68.3995L260.613 68.901L263.08 74.1175L262.701 75.0037L257.391 76.4449L256.356 75.9433L253.889 70.7268L254.268 69.8407ZM247.138 71.7768L252.448 70.3356L253.483 70.8372L255.95 76.0537L255.571 76.9398L250.261 78.381L249.226 77.8794L246.759 72.6629L247.138 71.7768ZM240.009 73.7129L245.318 72.2717L246.354 72.7733L248.82 77.9898L248.441 78.8759L243.132 80.3172L242.096 79.8156L239.629 74.5991L240.009 73.7129ZM232.879 75.6491L238.188 74.2078L239.224 74.7094L241.69 79.9259L241.311 80.812L236.002 82.2533L234.966 81.7517L232.499 76.5352L232.879 75.6491ZM225.749 77.5852L231.058 76.144L232.094 76.6455L234.561 81.862L234.181 82.7482L228.872 84.1894L227.836 83.6878L225.37 78.4713L225.749 77.5852ZM218.619 79.5213L223.928 78.0801L224.964 78.5816L227.431 83.7982L227.051 84.6843L221.742 86.1255L220.706 85.6239L218.24 80.4074L218.619 79.5213ZM211.489 81.4574L216.799 80.0162L217.834 80.5178L220.301 85.7343L219.922 86.6204L214.612 88.0617L213.577 87.5601L211.11 82.3435L211.489 81.4574ZM264.722 74.9L270.032 73.4588L271.067 73.9604L273.534 79.1769L273.155 80.063L267.845 81.5043L266.81 81.0027L264.343 75.7861L264.722 74.9ZM257.592 76.8361L262.902 75.3949L263.937 75.8965L266.404 81.113L266.025 81.9992L260.716 83.4404L259.68 82.9388L257.213 77.7223L257.592 76.8361ZM250.463 78.7723L255.772 77.331L256.808 77.8326L259.274 83.0491L258.895 83.9352L253.586 85.3765L252.55 84.8749L250.083 79.6584L250.463 78.7723ZM243.333 80.7084L248.642 79.2672L249.678 79.7687L252.145 84.9852L251.765 85.8714L246.456 87.3126L245.42 86.811L242.953 81.5945L243.333 80.7084ZM236.203 82.6445L241.512 81.2033L242.548 81.7049L245.015 86.9214L244.635 87.8075L239.326 89.2487L238.29 88.7471L235.824 83.5306L236.203 82.6445ZM229.073 84.5806L234.382 83.1394L235.418 83.641L237.885 88.8575L237.506 89.7436L232.196 91.1849L231.161 90.6833L228.694 85.4668L229.073 84.5806ZM221.943 86.5168L227.253 85.0755L228.288 85.5771L230.755 90.7936L230.376 91.6798L225.066 93.121L224.031 92.6194L221.564 87.4029L221.943 86.5168ZM214.813 88.4529L220.123 87.0117L221.158 87.5133L223.625 92.7298L223.246 93.6159L217.936 95.0571L216.901 94.5555L214.434 89.339L214.813 88.4529ZM330.332 69.0816L335.642 67.6404L336.677 68.142L339.144 73.3585L338.765 74.2446L333.455 75.6858L332.42 75.1843L329.953 69.9678L330.332 69.0816ZM323.202 71.0177L328.512 69.5765L329.547 70.0781L332.014 75.2946L331.635 76.1807L326.325 77.6219L325.29 77.1204L322.823 71.9039L323.202 71.0177ZM316.073 72.9539L321.382 71.5126L322.417 72.0142L324.884 77.2307L324.505 78.1169L319.196 79.5581L318.16 79.0565L315.693 73.84L316.073 72.9539ZM308.943 74.89L314.252 73.4487L315.288 73.9503L317.754 79.1668L317.375 80.053L312.066 81.4942L311.03 80.9926L308.563 75.7761L308.943 74.89ZM301.813 76.8261L307.122 75.3849L308.158 75.8865L310.625 81.103L310.245 81.9891L304.936 83.4303L303.9 82.9287L301.434 77.7122L301.813 76.8261ZM294.683 78.7622L299.992 77.321L301.028 77.8226L303.495 83.0391L303.115 83.9252L297.806 85.3665L296.77 84.8649L294.304 79.6484L294.683 78.7622ZM287.553 80.6984L292.863 79.2571L293.898 79.7587L296.365 84.9752L295.986 85.8613L290.676 87.3026L289.641 86.801L287.174 81.5845L287.553 80.6984ZM280.423 82.6345L285.733 81.1933L286.768 81.6948L289.235 86.9113L288.856 87.7975L283.546 89.2387L282.511 88.7371L280.044 83.5206L280.423 82.6345ZM333.656 76.0771L338.966 74.6359L340.001 75.1374L342.468 80.3539L342.089 81.2401L336.779 82.6813L335.744 82.1797L333.277 76.9632L333.656 76.0771ZM326.527 78.0132L331.836 76.572L332.872 77.0736L335.338 82.2901L334.959 83.1762L329.65 84.6174L328.614 84.1158L326.147 78.8993L326.527 78.0132ZM319.397 79.9493L324.706 78.5081L325.742 79.0097L328.208 84.2262L327.829 85.1123L322.52 86.5536L321.484 86.052L319.017 80.8355L319.397 79.9493ZM312.267 81.8854L317.576 80.4442L318.612 80.9458L321.079 86.1623L320.699 87.0484L315.39 88.4897L314.354 87.9881L311.888 82.7716L312.267 81.8854ZM305.137 83.8216L310.446 82.3804L311.482 82.882L313.949 88.0984L313.569 88.9846L308.26 90.4258L307.225 89.9242L304.758 84.7077L305.137 83.8216ZM298.007 85.7577L303.317 84.3165L304.352 84.818L306.819 90.0345L306.44 90.9207L301.13 92.3619L300.095 91.8603L297.628 86.6439L298.007 85.7577ZM290.877 87.6938L296.187 86.2526L297.222 86.7542L299.689 91.9707L299.31 92.8568L294 94.298L292.965 93.7964L290.498 88.5799L290.877 87.6938ZM283.747 89.6299L289.057 88.1887L290.092 88.6903L292.559 93.9068L292.18 94.793L286.87 96.2342L285.835 95.7326L283.368 90.5161L283.747 89.6299ZM336.981 83.0725L342.29 81.6313L343.326 82.1329L345.792 87.3494L345.413 88.2355L340.104 89.6768L339.068 89.1752L336.601 83.9587L336.981 83.0725ZM329.851 85.0087L335.16 83.5674L336.196 84.069L338.662 89.2855L338.283 90.1717L332.974 91.6129L331.938 91.1113L329.471 85.8948L329.851 85.0087ZM322.721 86.9448L328.03 85.5036L329.066 86.0051L331.533 91.2216L331.153 92.1078L325.844 93.549L324.808 93.0474L322.342 87.8309L322.721 86.9448ZM315.591 88.8809L320.9 87.4397L321.936 87.9413L324.403 93.1578L324.024 94.0439L318.714 95.4851L317.679 94.9835L315.212 89.7671L315.591 88.8809ZM308.461 90.817L313.771 89.3758L314.806 89.8774L317.273 95.0939L316.894 95.98L311.584 97.4213L310.549 96.9197L308.082 91.7032L308.461 90.817ZM301.331 92.7531L306.641 91.3119L307.676 91.8135L310.143 97.03L309.764 97.9162L304.454 99.3574L303.419 98.8558L300.952 93.6393L301.331 92.7531ZM294.201 94.6893L299.511 93.2481L300.546 93.7497L303.013 98.9662L302.634 99.8523L297.324 101.294L296.289 100.792L293.822 95.5754L294.201 94.6893ZM287.072 96.6254L292.381 95.1842L293.417 95.6858L295.883 100.902L295.504 101.788L290.195 103.23L289.159 102.728L286.692 97.5116L287.072 96.6254ZM340.305 90.068L345.614 88.6268L346.65 89.1283L349.117 94.3448L348.737 95.231L343.428 96.6722L342.392 96.1706L339.926 90.9541L340.305 90.068ZM333.175 92.0041L338.484 90.5629L339.52 91.0645L341.987 96.281L341.607 97.1671L336.298 98.6083L335.262 98.1067L332.796 92.8903L333.175 92.0041ZM326.045 93.9402L331.355 92.499L332.39 93.0006L334.857 98.2171L334.478 99.1032L329.168 100.544L328.133 100.043L325.666 94.8264L326.045 93.9402ZM318.915 95.8764L324.225 94.4351L325.26 94.9367L327.727 100.153L327.348 101.039L322.038 102.481L321.003 101.979L318.536 96.7625L318.915 95.8764ZM311.785 97.8125L317.095 96.3713L318.13 96.8729L320.597 102.089L320.218 102.976L314.908 104.417L313.873 103.915L311.406 98.6986L311.785 97.8125ZM304.655 99.7486L309.965 98.3074L311 98.809L313.467 104.025L313.088 104.912L307.779 106.353L306.743 105.851L304.276 100.635L304.655 99.7486ZM297.526 101.685L302.835 100.244L303.871 100.745L306.337 105.962L305.958 106.848L300.649 108.289L299.613 107.787L297.146 102.571L297.526 101.685ZM290.396 103.621L295.705 102.18L296.741 102.681L299.208 107.898L298.828 108.784L293.519 110.225L292.483 109.723L290.017 104.507L290.396 103.621ZM269.801 85.4969L275.11 84.0556L276.146 84.5572L278.613 89.7737L278.233 90.6599L272.924 92.1011L271.888 91.5995L269.422 86.383L269.801 85.4969ZM262.671 87.433L267.981 85.9918L269.016 86.4933L271.483 91.7098L271.104 92.596L265.794 94.0372L264.759 93.5356L262.292 88.3191L262.671 87.433ZM255.541 89.3691L260.851 87.9279L261.886 88.4295L264.353 93.646L263.974 94.5321L258.664 95.9733L257.629 95.4717L255.162 90.2552L255.541 89.3691ZM248.411 91.3052L253.721 89.864L254.756 90.3656L257.223 95.5821L256.844 96.4683L251.534 97.9095L250.499 97.4079L248.032 92.1914L248.411 91.3052ZM241.282 93.2414L246.591 91.8001L247.627 92.3017L250.093 97.5182L249.714 98.4044L244.405 99.8456L243.369 99.344L240.902 94.1275L241.282 93.2414ZM234.152 95.1775L239.461 93.7363L240.497 94.2379L242.963 99.4544L242.584 100.34L237.275 101.782L236.239 101.28L233.772 96.0636L234.152 95.1775ZM227.022 97.1136L232.331 95.6724L233.367 96.174L235.834 101.39L235.454 102.277L230.145 103.718L229.109 103.216L226.643 97.9998L227.022 97.1136ZM219.892 99.0498L225.201 97.6085L226.237 98.1101L228.704 103.327L228.324 104.213L223.015 105.654L221.979 105.152L219.513 99.9359L219.892 99.0498ZM273.125 92.4923L278.435 91.0511L279.47 91.5527L281.937 96.7692L281.558 97.6553L276.248 99.0966L275.213 98.595L272.746 93.3784L273.125 92.4923ZM265.995 94.4284L271.305 92.9872L272.34 93.4888L274.807 98.7053L274.428 99.5915L269.118 101.033L268.083 100.531L265.616 95.3146L265.995 94.4284ZM258.865 96.3646L264.175 94.9233L265.21 95.4249L267.677 100.641L267.298 101.528L261.988 102.969L260.953 102.467L258.486 97.2507L258.865 96.3646ZM251.736 98.3007L257.045 96.8595L258.081 97.3611L260.547 102.578L260.168 103.464L254.859 104.905L253.823 104.403L251.356 99.1868L251.736 98.3007ZM244.606 100.237L249.915 98.7956L250.951 99.2972L253.417 104.514L253.038 105.4L247.729 106.841L246.693 106.339L244.226 101.123L244.606 100.237ZM237.476 102.173L242.785 100.732L243.821 101.233L246.288 106.45L245.908 107.336L240.599 108.777L239.563 108.276L237.097 103.059L237.476 102.173ZM230.346 104.109L235.655 102.668L236.691 103.169L239.158 108.386L238.778 109.272L233.469 110.713L232.434 110.212L229.967 104.995L230.346 104.109ZM223.216 106.045L228.526 104.604L229.561 105.106L232.028 110.322L231.649 111.208L226.339 112.649L225.304 112.148L222.837 106.931L223.216 106.045ZM276.449 99.4878L281.759 98.0466L282.794 98.5482L285.261 103.765L284.882 104.651L279.572 106.092L278.537 105.59L276.07 100.374L276.449 99.4878ZM269.32 101.424L274.629 99.9827L275.665 100.484L278.131 105.701L277.752 106.587L272.443 108.028L271.407 107.527L268.94 102.31L269.32 101.424ZM262.19 103.36L267.499 101.919L268.535 102.42L271.001 107.637L270.622 108.523L265.313 109.964L264.277 109.463L261.81 104.246L262.19 103.36ZM255.06 105.296L260.369 103.855L261.405 104.357L263.872 109.573L263.492 110.459L258.183 111.9L257.147 111.399L254.681 106.182L255.06 105.296ZM247.93 107.232L253.239 105.791L254.275 106.293L256.742 111.509L256.362 112.395L251.053 113.837L250.017 113.335L247.551 108.118L247.93 107.232ZM240.8 109.168L246.11 107.727L247.145 108.229L249.612 113.445L249.233 114.331L243.923 115.773L242.888 115.271L240.421 110.055L240.8 109.168ZM233.67 111.105L238.98 109.663L240.015 110.165L242.482 115.381L242.103 116.268L236.793 117.709L235.758 117.207L233.291 111.991L233.67 111.105ZM226.54 113.041L231.85 111.599L232.885 112.101L235.352 117.318L234.973 118.204L229.663 119.645L228.628 119.143L226.161 113.927L226.54 113.041ZM279.774 106.483L285.083 105.042L286.119 105.544L288.585 110.76L288.206 111.646L282.897 113.087L281.861 112.586L279.394 107.369L279.774 106.483ZM272.644 108.419L277.953 106.978L278.989 107.48L281.455 112.696L281.076 113.582L275.767 115.024L274.731 114.522L272.264 109.305L272.644 108.419ZM265.514 110.355L270.823 108.914L271.859 109.416L274.326 114.632L273.946 115.519L268.637 116.96L267.601 116.458L265.135 111.242L265.514 110.355ZM258.384 112.292L263.693 110.85L264.729 111.352L267.196 116.569L266.816 117.455L261.507 118.896L260.471 118.394L258.005 113.178L258.384 112.292ZM251.254 114.228L256.564 112.787L257.599 113.288L260.066 118.505L259.687 119.391L254.377 120.832L253.342 120.33L250.875 115.114L251.254 114.228ZM244.124 116.164L249.434 114.723L250.469 115.224L252.936 120.441L252.557 121.327L247.247 122.768L246.212 122.267L243.745 117.05L244.124 116.164ZM236.994 118.1L242.304 116.659L243.339 117.16L245.806 122.377L245.427 123.263L240.117 124.704L239.082 124.203L236.615 118.986L236.994 118.1ZM229.865 120.036L235.174 118.595L236.209 119.096L238.676 124.313L238.297 125.199L232.988 126.64L231.952 126.139L229.485 120.922L229.865 120.036Z" fill="#1C75BC"/>
<path opacity="0.2" d="M308.289 0L183.876 33.8003L354.376 97.3781L308.289 0Z" fill="white"/>
<path d="M353.486 100.74L229.027 134.724L229.963 131.183L354.376 97.379L353.486 100.74Z" fill="#9FA8B6"/>
<g style="mix-blend-mode:multiply" opacity="0.15">
<path d="M191.982 139.691L52.3592 177.628L-7.62939e-05 163.399L139.623 125.466L191.982 139.691Z" fill="#242B52"/>
</g>
<g style="mix-blend-mode:multiply" opacity="0.15">
<path d="M94.3082 149.684C94.3082 153.637 103.908 156.843 115.751 156.843C127.593 156.843 137.193 153.64 137.193 149.684C137.193 145.728 127.593 142.525 115.751 142.525C103.908 142.525 94.3082 145.728 94.3082 149.684Z" fill="#242B52"/>
</g>
<g style="mix-blend-mode:multiply" opacity="0.15">
<path d="M103.776 150.062C103.776 152.697 110.975 154.834 119.859 154.834C128.743 154.834 135.942 152.697 135.942 150.062C135.942 147.427 128.743 145.29 119.859 145.29C110.975 145.29 103.776 147.427 103.776 150.062Z" fill="#242B52"/>
</g>
<path d="M134.993 140.129V149.9C134.993 150.766 133.776 151.632 131.345 152.294C126.481 153.615 118.596 153.615 113.732 152.294C111.301 151.632 110.084 150.766 110.084 149.9V140.129H134.993Z" fill="#D0D2D3"/>
<mask id="mask2_1717_2077" style="mask-type:luminance" maskUnits="userSpaceOnUse" x="110" y="140" width="25" height="14">
<path d="M134.993 140.129V149.9C134.993 150.766 133.776 151.632 131.345 152.294C126.481 153.615 118.596 153.615 113.732 152.294C111.301 151.632 110.084 150.766 110.084 149.9V140.129H134.993Z" fill="white"/>
</mask>
<g mask="url(#mask2_1717_2077)">
<path opacity="0.2" d="M111.793 138.813H118.517V155.105H111.793V138.813Z" fill="#242B52"/>
<path opacity="0.3" d="M126.564 138.813H133.288V155.105H126.564V138.813Z" fill="white"/>
</g>
<path d="M122.54 143.513C115.661 143.513 110.085 141.998 110.085 140.129C110.085 138.26 115.661 136.745 122.54 136.745C129.42 136.745 134.996 138.26 134.996 140.129C134.996 141.998 129.42 143.513 122.54 143.513Z" fill="#E6E7E8"/>
<path d="M130.637 114.609V140.053C130.637 140.615 129.845 141.18 128.266 141.608C125.103 142.467 119.975 142.467 116.813 141.608C115.23 141.18 114.441 140.615 114.441 140.053V114.609H130.64H130.637Z" fill="#D0D2D3"/>
<mask id="mask3_1717_2077" style="mask-type:luminance" maskUnits="userSpaceOnUse" x="114" y="114" width="17" height="29">
<path d="M130.637 114.609V140.053C130.637 140.615 129.845 141.18 128.266 141.608C125.103 142.467 119.975 142.467 116.813 141.608C115.23 141.18 114.441 140.615 114.441 140.053V114.609H130.64H130.637Z" fill="white"/>
</mask>
<g mask="url(#mask3_1717_2077)">
<path opacity="0.2" d="M115.55 113.749H119.923V143.433H115.55V113.749Z" fill="#242B52"/>
<path opacity="0.3" d="M125.156 113.749H129.529V143.433H125.156V113.749Z" fill="white"/>
</g>
<path d="M128.267 113.05C125.104 112.19 119.976 112.19 116.814 113.05C113.651 113.909 113.651 115.303 116.814 116.163C119.976 117.022 125.104 117.022 128.267 116.163C131.43 115.303 131.43 113.909 128.267 113.05Z" fill="#E6E7E8"/>
<path d="M76.2228 138.715L30.136 41.3334L31.0725 37.7922L77.1561 135.174L76.2228 138.715Z" fill="#9FA8B6"/>
<path d="M155.486 3.99239L31.0725 37.7926L77.1561 135.174L201.569 101.37L155.486 3.99239Z" fill="#D0D2D3"/>
<path d="M108.977 53.0233L168.67 36.8053L154.176 6.18174L94.4829 22.3997L108.977 53.0233ZM109.458 54.0365L169.152 37.8185L183.646 68.442L123.952 84.66L109.458 54.0365ZM33.9187 38.8518L93.6123 22.6338L108.106 53.2573L48.4125 69.4753L33.9187 38.8518ZM48.9863 70.6925L108.68 54.4745L123.174 85.0981L63.4802 101.316L48.9863 70.6925ZM124.536 85.9006L184.229 69.6826L198.723 100.306L139.03 116.524L124.536 85.9006ZM63.9715 102.356L123.665 86.138L138.159 116.762L78.4654 132.98L63.9715 102.356Z" fill="#EBEBEB"/>
<path d="M146.967 10.6197L149.434 15.8362L150.469 16.3378L155.779 14.8966L156.158 14.0105L153.691 8.79396L152.656 8.29238L147.346 9.7336L146.967 10.6197ZM140.213 11.6697L145.522 10.2285L146.558 10.7301L149.025 15.9466L148.645 16.8327L143.336 18.2739L142.301 17.7724L139.834 12.5559L140.213 11.6697ZM133.083 13.6059L138.393 12.1646L139.428 12.6662L141.895 17.8827L141.516 18.7689L136.206 20.2101L135.171 19.7085L132.704 14.492L133.083 13.6059ZM125.953 15.542L131.263 14.1007L132.298 14.6023L134.765 19.8188L134.386 20.705L129.076 22.1462L128.041 21.6446L125.574 16.4281L125.953 15.542ZM118.823 17.4781L124.133 16.0369L125.168 16.5385L127.635 21.755L127.256 22.6411L121.946 24.0823L120.911 23.5807L118.444 18.3642L118.823 17.4781ZM111.694 19.4142L117.003 17.973L118.039 18.4746L120.505 23.6911L120.126 24.5772L114.817 26.0184L113.781 25.5169L111.314 20.3004L111.694 19.4142ZM104.564 21.3503L109.873 19.9091L110.909 20.4107L113.375 25.6272L112.996 26.5133L107.687 27.9546L106.651 27.453L104.185 22.2365L104.564 21.3503ZM97.4338 23.2865L102.743 21.8453L103.779 22.3468L106.246 27.5633L105.866 28.4495L100.557 29.8907L99.5214 29.3891L97.0546 24.1726L97.4338 23.2865ZM150.667 16.7291L155.977 15.2878L157.012 15.7894L159.479 21.0059L159.1 21.8921L153.79 23.3333L152.755 22.8317L150.288 17.6152L150.667 16.7291ZM143.537 18.6652L148.847 17.224L149.882 17.7256L152.349 22.942L151.97 23.8282L146.66 25.2694L145.625 24.7678L143.158 19.5513L143.537 18.6652ZM136.407 20.6013L141.717 19.1601L142.752 19.6617L145.219 24.8782L144.84 25.7643L139.53 27.2055L138.495 26.7039L136.028 21.4875L136.407 20.6013ZM129.277 22.5374L134.587 21.0962L135.622 21.5978L138.089 26.8143L137.71 27.7004L132.4 29.1417L131.365 28.6401L128.898 23.4236L129.277 22.5374ZM122.148 24.4736L127.457 23.0323L128.493 23.5339L130.959 28.7504L130.58 29.6366L125.271 31.0778L124.235 30.5762L121.768 25.3597L122.148 24.4736ZM115.018 26.4097L120.327 24.9685L121.363 25.47L123.829 30.6866L123.45 31.5727L118.141 33.0139L117.105 32.5123L114.639 27.2958L115.018 26.4097ZM107.888 28.3458L113.197 26.9046L114.233 27.4062L116.7 32.6227L116.32 33.5088L111.011 34.95L109.975 34.4485L107.509 29.2319L107.888 28.3458ZM100.758 30.2819L106.068 28.8407L107.103 29.3423L109.57 34.5588L109.191 35.4449L103.881 36.8862L102.846 36.3846L100.379 31.1681L100.758 30.2819ZM153.991 23.7245L159.301 22.2833L160.336 22.7849L162.803 28.0014L162.424 28.8875L157.114 30.3288L156.079 29.8272L153.612 24.6107L153.991 23.7245ZM146.861 25.6607L152.171 24.2194L153.206 24.721L155.673 29.9375L155.294 30.8236L149.984 32.2649L148.949 31.7633L146.482 26.5468L146.861 25.6607ZM139.732 27.5968L145.041 26.1555L146.076 26.6571L148.543 31.8736L148.164 32.7598L142.855 34.201L141.819 33.6994L139.352 28.4829L139.732 27.5968ZM132.602 29.5329L137.911 28.0917L138.947 28.5933L141.413 33.8098L141.034 34.6959L135.725 36.1371L134.689 35.6355L132.222 30.419L132.602 29.5329ZM125.472 31.469L130.781 30.0278L131.817 30.5294L134.284 35.7459L133.904 36.632L128.595 38.0732L127.559 37.5717L125.093 32.3552L125.472 31.469ZM118.342 33.4051L123.651 31.9639L124.687 32.4655L127.154 37.682L126.774 38.5681L121.465 40.0094L120.429 39.5078L117.963 34.2913L118.342 33.4051ZM111.212 35.3413L116.522 33.9001L117.557 34.4016L120.024 39.6181L119.645 40.5043L114.335 41.9455L113.3 41.4439L110.833 36.2274L111.212 35.3413ZM104.082 37.2774L109.392 35.8362L110.427 36.3378L112.894 41.5543L112.515 42.4404L107.205 43.8816L106.17 43.38L103.703 38.1635L104.082 37.2774ZM157.315 30.72L162.625 29.2788L163.66 29.7803L166.127 34.9968L165.748 35.883L160.438 37.3242L159.403 36.8226L156.936 31.6061L157.315 30.72ZM150.186 32.6561L155.495 31.2149L156.531 31.7165L158.997 36.933L158.618 37.8191L153.309 39.2603L152.273 38.7587L149.806 33.5422L150.186 32.6561ZM143.056 34.5922L148.365 33.151L149.401 33.6526L151.867 38.8691L151.488 39.7552L146.179 41.1965L145.143 40.6949L142.677 35.4784L143.056 34.5922ZM135.926 36.5284L141.235 35.0871L142.271 35.5887L144.738 40.8052L144.358 41.6914L139.049 43.1326L138.013 42.631L135.547 37.4145L135.926 36.5284ZM128.796 38.4645L134.106 37.0233L135.141 37.5248L137.608 42.7414L137.229 43.6275L131.919 45.0687L130.884 44.5671L128.417 39.3506L128.796 38.4645ZM121.666 40.4006L126.976 38.9594L128.011 39.461L130.478 44.6775L130.099 45.5636L124.789 47.0048L123.754 46.5033L121.287 41.2867L121.666 40.4006ZM114.536 42.3367L119.846 40.8955L120.881 41.3971L123.348 46.6136L122.969 47.4997L117.659 48.941L116.624 48.4394L114.157 43.2229L114.536 42.3367ZM107.406 44.2728L112.716 42.8316L113.751 43.3332L116.218 48.5497L115.839 49.4358L110.529 50.8771L109.494 50.3755L107.027 45.159L107.406 44.2728ZM162.348 41.3336L167.657 39.8923L168.693 40.3939L171.16 45.6104L170.78 46.4966L165.471 47.9378L164.435 47.4362L161.969 42.2197L162.348 41.3336ZM155.218 43.2697L160.528 41.8284L161.563 42.33L164.03 47.5465L163.651 48.4327L158.341 49.8739L157.306 49.3723L154.839 44.1558L155.218 43.2697ZM148.088 45.2058L153.398 43.7646L154.433 44.2662L156.9 49.4827L156.521 50.3688L151.211 51.81L150.176 51.3084L147.709 46.0919L148.088 45.2058ZM140.958 47.1419L146.268 45.7007L147.303 46.2023L149.77 51.4188L149.391 52.3049L144.081 53.7462L143.046 53.2446L140.579 48.0281L140.958 47.1419ZM133.828 49.0781L139.138 47.6368L140.173 48.1384L142.64 53.3549L142.261 54.2411L136.951 55.6823L135.916 55.1807L133.449 49.9642L133.828 49.0781ZM126.699 51.0142L132.008 49.573L133.044 50.0745L135.51 55.291L135.131 56.1772L129.822 57.6184L128.786 57.1168L126.319 51.9003L126.699 51.0142ZM119.569 52.9503L124.878 51.5091L125.914 52.0107L128.38 57.2272L128.001 58.1133L122.692 59.5545L121.656 59.0529L119.19 53.8364L119.569 52.9503ZM112.439 54.8864L117.748 53.4452L118.784 53.9468L121.251 59.1633L120.871 60.0494L115.562 61.4907L114.526 60.9891L112.06 55.7726L112.439 54.8864ZM165.672 48.329L170.982 46.8878L172.017 47.3894L174.484 52.6059L174.105 53.492L168.795 54.9332L167.76 54.4316L165.293 49.2152L165.672 48.329ZM158.542 50.2651L163.852 48.8239L164.887 49.3255L167.354 54.542L166.975 55.4282L161.665 56.8694L160.63 56.3678L158.163 51.1513L158.542 50.2651ZM151.412 52.2013L156.722 50.76L157.757 51.2616L160.224 56.4781L159.845 57.3643L154.535 58.8055L153.5 58.3039L151.033 53.0874L151.412 52.2013ZM144.283 54.1374L149.592 52.6962L150.627 53.1977L153.094 58.4143L152.715 59.3004L147.406 60.7416L146.37 60.24L143.903 55.0235L144.283 54.1374ZM137.153 56.0735L142.462 54.6323L143.498 55.1339L145.964 60.3504L145.585 61.2365L140.276 62.6777L139.24 62.1762L136.773 56.9596L137.153 56.0735ZM130.023 58.0096L135.332 56.5684L136.368 57.07L138.835 62.2865L138.455 63.1726L133.146 64.6139L132.11 64.1123L129.644 58.8958L130.023 58.0096ZM122.893 59.9458L128.202 58.5046L129.238 59.0061L131.705 64.2226L131.325 65.1088L126.016 66.55L124.98 66.0484L122.514 60.8319L122.893 59.9458ZM115.763 61.8819L121.073 60.4407L122.108 60.9423L124.575 66.1588L124.196 67.0449L118.886 68.4861L117.851 67.9845L115.384 62.768L115.763 61.8819ZM168.996 55.3245L174.306 53.8833L175.341 54.3848L177.808 59.6013L177.429 60.4875L172.119 61.9287L171.084 61.4271L168.617 56.2106L168.996 55.3245ZM161.866 57.2606L167.176 55.8194L168.211 56.321L170.678 61.5375L170.299 62.4236L164.989 63.8648L163.954 63.3632L161.487 58.1467L161.866 57.2606ZM154.737 59.1967L160.046 57.7555L161.082 58.2571L163.548 63.4736L163.169 64.3597L157.86 65.8009L156.824 65.2994L154.357 60.0829L154.737 59.1967ZM147.607 61.1329L152.916 59.6916L153.952 60.1932L156.418 65.4097L156.039 66.2958L150.73 67.7371L149.694 67.2355L147.227 62.019L147.607 61.1329ZM140.477 63.069L145.786 61.6278L146.822 62.1293L149.289 67.3458L148.909 68.232L143.6 69.6732L142.564 69.1716L140.098 63.9551L140.477 63.069ZM133.347 65.0051L138.656 63.5639L139.692 64.0655L142.159 69.282L141.78 70.1681L136.47 71.6093L135.434 71.1077L132.968 65.8912L133.347 65.0051ZM126.217 66.9412L131.527 65.5L132.562 66.0016L135.029 71.2181L134.65 72.1042L129.34 73.5455L128.305 73.0439L125.838 67.8274L126.217 66.9412ZM119.087 68.8774L124.397 67.4361L125.432 67.9377L127.899 73.1542L127.52 74.0403L122.21 75.4816L121.175 74.98L118.708 69.7635L119.087 68.8774ZM172.32 62.3199L177.63 60.8787L178.665 61.3803L181.132 66.5968L180.753 67.4829L175.443 68.9241L174.408 68.4226L171.941 63.2061L172.32 62.3199ZM165.191 64.2561L170.5 62.8148L171.536 63.3164L174.002 68.5329L173.623 69.4191L168.314 70.8603L167.278 70.3587L164.811 65.1422L165.191 64.2561ZM158.061 66.1922L163.37 64.751L164.406 65.2525L166.872 70.4691L166.493 71.3552L161.184 72.7964L160.148 72.2948L157.682 67.0783L158.061 66.1922ZM150.931 68.1283L156.24 66.6871L157.276 67.1887L159.743 72.4052L159.363 73.2913L154.054 74.7326L153.018 74.231L150.552 69.0144L150.931 68.1283ZM143.801 70.0644L149.111 68.6232L150.146 69.1248L152.613 74.3413L152.234 75.2275L146.924 76.6687L145.889 76.1671L143.422 70.9506L143.801 70.0644ZM136.671 72.0006L141.981 70.5593L143.016 71.0609L145.483 76.2774L145.104 77.1635L139.794 78.6048L138.759 78.1032L136.292 72.8867L136.671 72.0006ZM129.541 73.9367L134.851 72.4955L135.886 72.997L138.353 78.2135L137.974 79.0997L132.664 80.5409L131.629 80.0393L129.162 74.8228L129.541 73.9367ZM122.411 75.8728L127.721 74.4316L128.756 74.9332L131.223 80.1497L130.844 81.0358L125.535 82.477L124.499 81.9754L122.032 76.7589L122.411 75.8728ZM86.8446 26.1087L92.154 24.6675L93.1896 25.1691L95.6563 30.3856L95.2771 31.2717L89.9676 32.713L88.9322 32.2114L86.4653 26.9949L86.8446 26.1087ZM79.7147 28.0449L85.0242 26.6036L86.0597 27.1052L88.5265 32.3217L88.1472 33.2079L82.8377 34.6491L81.8023 34.1475L79.3355 28.931L79.7147 28.0449ZM72.5849 29.981L77.8943 28.5398L78.9299 29.0413L81.3966 34.2579L81.0174 35.144L75.7079 36.5852L74.6724 36.0836L72.2056 30.8671L72.5849 29.981ZM65.455 31.9171L70.7645 30.4759L71.8 30.9775L74.2667 36.194L73.8875 37.0801L68.578 38.5213L67.5425 38.0198L65.0758 32.8032L65.455 31.9171ZM58.3252 33.8532L63.6346 32.412L64.6702 32.9136L67.1369 38.1301L66.7576 39.0162L61.4482 40.4575L60.4126 39.9559L57.9459 34.7394L58.3252 33.8532ZM51.1953 35.7893L56.5048 34.3481L57.5403 34.8497L60.007 40.0662L59.6278 40.9523L54.3183 42.3936L53.2828 41.892L50.8161 36.6755L51.1953 35.7893ZM44.0655 37.7255L49.3749 36.2843L50.4104 36.7858L52.8772 42.0023L52.4979 42.8885L47.1885 44.3297L46.1529 43.8281L43.6862 38.6116L44.0655 37.7255ZM36.9356 39.6616L42.2451 38.2204L43.2805 38.722L45.7473 43.9385L45.3681 44.8246L40.0586 46.2658L39.0231 45.7642L36.5564 40.5477L36.9356 39.6616ZM90.1688 33.1042L95.4783 31.663L96.5138 32.1646L98.9806 37.3811L98.6013 38.2672L93.2918 39.7084L92.2563 39.2068L89.7895 33.9903L90.1688 33.1042ZM83.0389 35.0403L88.3484 33.5991L89.3839 34.1007L91.8507 39.3172L91.4715 40.2033L86.1619 41.6445L85.1265 41.143L82.6597 35.9265L83.0389 35.0403ZM75.909 36.9765L81.2185 35.5352L82.2541 36.0368L84.7208 41.2533L84.3416 42.1395L79.0321 43.5807L77.9966 43.0791L75.5298 37.8626L75.909 36.9765ZM68.7792 38.9126L74.0887 37.4713L75.1242 37.9729L77.591 43.1894L77.2117 44.0756L71.9022 45.5168L70.8668 45.0152L68.4 39.7987L68.7792 38.9126ZM61.6493 40.8487L66.9588 39.4075L67.9943 39.909L70.4611 45.1256L70.0818 46.0117L64.7724 47.4529L63.7369 46.9513L61.2701 41.7348L61.6493 40.8487ZM54.5195 42.7848L59.829 41.3436L60.8645 41.8452L63.3312 47.0617L62.952 47.9478L57.6425 49.389L56.607 48.8875L54.1403 43.6709L54.5195 42.7848ZM47.3896 44.7209L52.6991 43.2797L53.7346 43.7813L56.2014 48.9978L55.8221 49.8839L50.5127 51.3252L49.4771 50.8236L47.0104 45.6071L47.3896 44.7209ZM40.2598 46.6571L45.5692 45.2158L46.6048 45.7174L49.0715 50.9339L48.6923 51.8201L43.3828 53.2613L42.3473 52.7597L39.8805 47.5432L40.2598 46.6571ZM93.493 40.0997L98.8025 38.6584L99.8379 39.16L102.305 44.3765L101.925 45.2627L96.616 46.7039L95.5805 46.2023L93.1138 40.9858L93.493 40.0997ZM86.3632 42.0358L91.6726 40.5945L92.7081 41.0961L95.1749 46.3126L94.7956 47.1988L89.4862 48.64L88.4506 48.1384L85.9839 42.9219L86.3632 42.0358ZM79.2333 43.9719L84.5428 42.5307L85.5782 43.0323L88.045 48.2488L87.6658 49.1349L82.3563 50.5761L81.3208 50.0745L78.854 44.858L79.2333 43.9719ZM72.1034 45.908L77.4129 44.4668L78.4484 44.9684L80.9152 50.1849L80.5359 51.071L75.2264 52.5122L74.1909 52.0107L71.7241 46.7942L72.1034 45.908ZM64.9735 47.8442L70.283 46.4029L71.3185 46.9045L73.7853 52.121L73.4061 53.0072L68.0965 54.4484L67.0611 53.9468L64.5943 48.7303L64.9735 47.8442ZM57.8437 49.7803L63.1531 48.3391L64.1887 48.8406L66.6555 54.0571L66.2762 54.9433L60.9667 56.3845L59.9312 55.8829L57.4644 50.6664L57.8437 49.7803ZM50.7138 51.7164L56.0233 50.2752L57.0588 50.7768L59.5256 55.9933L59.1463 56.8794L53.8368 58.3206L52.8014 57.819L50.3346 52.6025L50.7138 51.7164ZM43.584 53.6525L48.8934 52.2113L49.929 52.7129L52.3957 57.9294L52.0164 58.8155L46.707 60.2568L45.6715 59.7552L43.2047 54.5387L43.584 53.6525ZM96.8172 47.0951L102.127 45.6539L103.162 46.1555L105.629 51.372L105.25 52.2581L99.9402 53.6993L98.9047 53.1977L96.4379 47.9813L96.8172 47.0951ZM89.6873 49.0312L94.9968 47.59L96.0323 48.0916L98.499 53.3081L98.1198 54.1942L92.8103 55.6355L91.7748 55.1339L89.3081 49.9174L89.6873 49.0312ZM82.5575 50.9674L87.8669 49.5261L88.9024 50.0277L91.3692 55.2442L90.99 56.1304L85.6805 57.5716L84.645 57.07L82.1782 51.8535L82.5575 50.9674ZM75.4276 52.9035L80.7371 51.4623L81.7725 51.9638L84.2393 57.1804L83.8601 58.0665L78.5506 59.5077L77.5151 59.0061L75.0484 53.7896L75.4276 52.9035ZM68.2977 54.8396L73.6072 53.3984L74.6427 53.9L77.1095 59.1165L76.7303 60.0026L71.4208 61.4438L70.3852 60.9423L67.9185 55.7257L68.2977 54.8396ZM61.1678 56.7757L66.4774 55.3345L67.5128 55.8361L69.9796 61.0526L69.6004 61.9387L64.2909 63.38L63.2554 62.8784L60.7886 57.6619L61.1678 56.7757ZM54.038 58.7119L59.3475 57.2706L60.383 57.7722L62.8498 62.9887L62.4705 63.8748L57.1611 65.3161L56.1255 64.8145L53.6587 59.598L54.038 58.7119ZM46.9081 60.648L52.2176 59.2068L53.2531 59.7084L55.7199 64.9248L55.3407 65.811L50.0312 67.2522L48.9957 66.7506L46.5289 61.5341L46.9081 60.648ZM101.945 57.9093L107.255 56.4681L108.29 56.9697L110.757 62.1862L110.378 63.0723L105.068 64.5135L104.033 64.012L101.566 58.7955L101.945 57.9093ZM94.8154 59.8454L100.125 58.4042L101.16 58.9058L103.627 64.1223L103.248 65.0084L97.9384 66.4497L96.9029 65.9481L94.4362 60.7316L94.8154 59.8454ZM87.6856 61.7816L92.995 60.3404L94.0305 60.8419L96.4973 66.0584L96.118 66.9446L90.8086 68.3858L89.773 67.8842L87.3063 62.6677L87.6856 61.7816ZM80.5557 63.7177L85.8652 62.2765L86.9007 62.7781L89.3674 67.9946L88.9882 68.8807L83.6787 70.3219L82.6432 69.8203L80.1765 64.6038L80.5557 63.7177ZM73.4259 65.6538L78.7353 64.2126L79.7708 64.7142L82.2376 69.9307L81.8583 70.8168L76.5489 72.2581L75.5133 71.7565L73.0466 66.54L73.4259 65.6538ZM66.296 67.5899L71.6055 66.1487L72.6409 66.6503L75.1077 71.8668L74.7285 72.7529L69.419 74.1941L68.3835 73.6926L65.9167 68.4761L66.296 67.5899ZM59.1661 69.5261L64.4756 68.0849L65.5111 68.5864L67.9779 73.8029L67.5986 74.6891L62.2892 76.1303L61.2536 75.6287L58.7868 70.4122L59.1661 69.5261ZM52.0362 71.4622L57.3457 70.021L58.3812 70.5225L60.848 75.739L60.4688 76.6252L55.1593 78.0664L54.1238 77.5648L51.657 72.3483L52.0362 71.4622ZM105.269 64.9048L110.579 63.4636L111.614 63.9651L114.081 69.1816L113.702 70.0678L108.392 71.509L107.357 71.0074L104.89 65.7909L105.269 64.9048ZM98.1396 66.8409L103.449 65.3997L104.485 65.9013L106.951 71.1178L106.572 72.0039L101.263 73.4451L100.227 72.9435L97.7603 67.727L98.1396 66.8409ZM91.0097 68.777L96.3192 67.3358L97.3547 67.8374L99.8214 73.0539L99.4422 73.94L94.1327 75.3813L93.0972 74.8797L90.6305 69.6632L91.0097 68.777ZM83.8799 70.7132L89.1893 69.2719L90.2249 69.7735L92.6916 74.99L92.3124 75.8761L87.0029 77.3174L85.9673 76.8158L83.5006 71.5993L83.8799 70.7132ZM76.75 72.6493L82.0595 71.2081L83.095 71.7096L85.5617 76.9261L85.1825 77.8123L79.873 79.2535L78.8375 78.7519L76.3708 73.5354L76.75 72.6493ZM69.6202 74.5854L74.9296 73.1442L75.9652 73.6458L78.4319 78.8623L78.0526 79.7484L72.7432 81.1896L71.7076 80.688L69.2409 75.4715L69.6202 74.5854ZM62.4903 76.5215L67.7998 75.0803L68.8353 75.5819L71.302 80.7984L70.9228 81.6845L65.6133 83.1258L64.5778 82.6242L62.1111 77.4077L62.4903 76.5215ZM55.3605 78.4576L60.6699 77.0164L61.7054 77.518L64.1722 82.7345L63.7929 83.6207L58.4835 85.0619L57.4479 84.5603L54.9812 79.3438L55.3605 78.4576ZM108.594 71.9002L113.903 70.459L114.939 70.9606L117.405 76.1771L117.026 77.0633L111.717 78.5045L110.681 78.0029L108.214 72.7864L108.594 71.9002ZM101.464 73.8364L106.773 72.3951L107.809 72.8967L110.276 78.1132L109.896 78.9993L104.587 80.4406L103.551 79.939L101.085 74.7225L101.464 73.8364ZM94.3339 75.7725L99.6434 74.3313L100.679 74.8329L103.146 80.0493L102.766 80.9355L97.4569 82.3767L96.4215 81.8751L93.9547 76.6586L94.3339 75.7725ZM87.204 77.7086L92.5135 76.2674L93.5491 76.769L96.0158 81.9855L95.6365 82.8716L90.3271 84.3128L89.2916 83.8112L86.8248 78.5948L87.204 77.7086ZM80.0742 79.6447L85.3837 78.2035L86.4192 78.7051L88.8859 83.9216L88.5067 84.8077L83.1972 86.249L82.1617 85.7474L79.695 80.5309L80.0742 79.6447ZM72.9443 81.5809L78.2538 80.1396L79.2893 80.6412L81.7561 85.8577L81.3768 86.7439L76.0674 88.1851L75.0318 87.6835L72.5651 82.467L72.9443 81.5809ZM65.8145 83.517L71.124 82.0758L72.1595 82.5774L74.6262 87.7938L74.247 88.68L68.9375 90.1212L67.902 89.6196L65.4353 84.4031L65.8145 83.517ZM58.6846 85.4531L63.9941 84.0119L65.0296 84.5135L67.4964 89.73L67.1171 90.6161L61.8077 92.0573L60.7721 91.5558L58.3054 86.3393L58.6846 85.4531ZM111.918 78.8957L117.227 77.4545L118.263 77.9561L120.73 83.1726L120.35 84.0587L115.041 85.4999L114.005 84.9983L111.539 79.7819L111.918 78.8957ZM104.788 80.8318L110.097 79.3906L111.133 79.8922L113.6 85.1087L113.22 85.9948L107.911 87.4361L106.875 86.9345L104.409 81.718L104.788 80.8318ZM97.6581 82.7679L102.968 81.3267L104.003 81.8283L106.47 87.0448L106.091 87.931L100.781 89.3722L99.7456 88.8706L97.2788 83.6541L97.6581 82.7679ZM90.5282 84.7041L95.8377 83.2628L96.8732 83.7644L99.34 88.981L98.9608 89.8671L93.6513 91.3083L92.6158 90.8067L90.149 85.5902L90.5282 84.7041ZM83.3984 86.6402L88.7078 85.199L89.7434 85.7006L92.2102 90.917L91.8309 91.8032L86.5214 93.2444L85.4859 92.7429L83.0191 87.5263L83.3984 86.6402ZM76.2685 88.5763L81.578 87.1351L82.6135 87.6367L85.0803 92.8532L84.701 93.7393L79.3915 95.1805L78.3561 94.679L75.8893 89.4625L76.2685 88.5763ZM69.1387 90.5125L74.4481 89.0712L75.4837 89.5728L77.9504 94.7893L77.5711 95.6754L72.2617 97.1167L71.2262 96.6151L68.7594 91.3986L69.1387 90.5125ZM62.0088 92.4486L67.3183 91.0073L68.3538 91.5089L70.8205 96.7254L70.4413 97.6116L65.1318 99.0528L64.0963 98.5512L61.6296 93.3347L62.0088 92.4486ZM177.528 73.0773L182.837 71.6361L183.873 72.1377L186.339 77.3542L185.96 78.2403L180.651 79.6815L179.615 79.1799L177.148 73.9634L177.528 73.0773ZM170.398 75.0134L175.707 73.5722L176.743 74.0738L179.21 79.2903L178.83 80.1764L173.521 81.6177L172.485 81.1161L170.019 75.8996L170.398 75.0134ZM163.268 76.9495L168.577 75.5083L169.613 76.0099L172.08 81.2264L171.701 82.1126L166.391 83.5538L165.356 83.0522L162.889 77.8357L163.268 76.9495ZM156.138 78.8857L161.448 77.4445L162.483 77.946L164.95 83.1625L164.571 84.0487L159.261 85.4899L158.226 84.9883L155.759 79.7718L156.138 78.8857ZM149.008 80.8218L154.318 79.3806L155.353 79.8821L157.82 85.0987L157.441 85.9848L152.131 87.426L151.096 86.9244L148.629 81.708L149.008 80.8218ZM141.878 82.7579L147.188 81.3167L148.223 81.8183L150.69 87.0348L150.311 87.9209L145.001 89.3622L143.966 88.8606L141.499 83.644L141.878 82.7579ZM134.749 84.694L140.058 83.2528L141.094 83.7544L143.56 88.9709L143.181 89.8571L137.872 91.2983L136.836 90.7967L134.369 85.5802L134.749 84.694ZM127.619 86.6302L132.928 85.1889L133.964 85.6905L136.43 90.9071L136.051 91.7932L130.742 93.2344L129.706 92.7328L127.239 87.5163L127.619 86.6302ZM180.852 80.0728L186.161 78.6315L187.197 79.1331L189.664 84.3496L189.284 85.2358L183.975 86.677L182.939 86.1754L180.473 80.9589L180.852 80.0728ZM173.722 82.0089L179.032 80.5677L180.067 81.0693L182.534 86.2857L182.155 87.1719L176.845 88.6131L175.81 88.1115L173.343 82.895L173.722 82.0089ZM166.592 83.945L171.902 82.5038L172.937 83.0054L175.404 88.2219L175.025 89.108L169.715 90.5492L168.68 90.0476L166.213 84.8312L166.592 83.945ZM159.462 85.8811L164.772 84.4399L165.807 84.9415L168.274 90.158L167.895 91.0441L162.585 92.4854L161.55 91.9838L159.083 86.7673L159.462 85.8811ZM152.333 87.8172L157.642 86.376L158.677 86.8776L161.144 92.0941L160.765 92.9803L155.456 94.4215L154.42 93.9199L151.953 88.7034L152.333 87.8172ZM145.203 89.7534L150.512 88.3122L151.548 88.8138L154.014 94.0303L153.635 94.9164L148.326 96.3576L147.29 95.856L144.823 90.6395L145.203 89.7534ZM138.073 91.6895L143.382 90.2483L144.418 90.7499L146.885 95.9664L146.505 96.8525L141.196 98.2937L140.16 97.7921L137.693 92.5757L138.073 91.6895ZM130.943 93.6257L136.252 92.1844L137.288 92.686L139.755 97.9025L139.375 98.7886L134.066 100.23L133.03 99.7283L130.564 94.5118L130.943 93.6257ZM184.176 87.0682L189.486 85.627L190.521 86.1286L192.988 91.3451L192.609 92.2312L187.299 93.6724L186.264 93.1708L183.797 87.9543L184.176 87.0682ZM177.046 89.0043L182.356 87.5631L183.391 88.0647L185.858 93.2812L185.479 94.1674L180.169 95.6086L179.134 95.107L176.667 89.8905L177.046 89.0043ZM169.916 90.9405L175.226 89.4992L176.261 90.0008L178.728 95.2173L178.349 96.1035L173.039 97.5447L172.004 97.0431L169.537 91.8266L169.916 90.9405ZM162.787 92.8766L168.096 91.4354L169.132 91.937L171.598 97.1535L171.219 98.0396L165.91 99.4808L164.874 98.9792L162.407 93.7627L162.787 92.8766ZM155.657 94.8127L160.966 93.3715L162.002 93.8731L164.468 99.0896L164.089 99.9757L158.78 101.417L157.744 100.915L155.277 95.6989L155.657 94.8127ZM148.527 96.7489L153.836 95.3076L154.872 95.8092L157.339 101.026L156.959 101.912L151.65 103.353L150.614 102.851L148.148 97.635L148.527 96.7489ZM141.397 98.6849L146.706 97.2437L147.742 97.7453L150.209 102.962L149.829 103.848L144.52 105.289L143.484 104.788L141.018 99.5711L141.397 98.6849ZM134.267 100.621L139.577 99.1799L140.612 99.6815L143.079 104.898L142.7 105.784L137.39 107.225L136.355 106.724L133.888 101.507L134.267 100.621ZM187.5 94.0637L192.81 92.6225L193.845 93.1241L196.312 98.3406L195.933 99.2267L190.623 100.668L189.588 100.166L187.121 94.9498L187.5 94.0637ZM180.37 95.9998L185.68 94.5586L186.715 95.0602L189.182 100.277L188.803 101.163L183.493 102.604L182.458 102.102L179.991 96.886L180.37 95.9998ZM173.241 97.9359L178.55 96.4947L179.586 96.9963L182.052 102.213L181.673 103.099L176.364 104.54L175.328 104.039L172.861 98.8221L173.241 97.9359ZM166.111 99.8721L171.42 98.4309L172.456 98.9324L174.922 104.149L174.543 105.035L169.234 106.476L168.198 105.975L165.731 100.758L166.111 99.8721ZM158.981 101.808L164.29 100.367L165.326 100.869L167.793 106.085L167.413 106.971L162.104 108.412L161.068 107.911L158.602 102.694L158.981 101.808ZM151.851 103.744L157.16 102.303L158.196 102.805L160.663 108.021L160.283 108.907L154.974 110.349L153.938 109.847L151.472 104.63L151.851 103.744ZM144.721 105.68L150.031 104.239L151.066 104.741L153.533 109.957L153.154 110.843L147.844 112.285L146.809 111.783L144.342 106.567L144.721 105.68ZM137.591 107.617L142.901 106.175L143.936 106.677L146.403 111.893L146.024 112.78L140.714 114.221L139.679 113.719L137.212 108.503L137.591 107.617ZM116.996 89.4925L122.306 88.0513L123.341 88.5529L125.808 93.7694L125.429 94.6556L120.119 96.0968L119.084 95.5952L116.617 90.3787L116.996 89.4925ZM109.867 91.4287L115.176 89.9875L116.212 90.4891L118.678 95.7056L118.299 96.5917L112.99 98.0329L111.954 97.5313L109.487 92.3148L109.867 91.4287ZM102.737 93.3648L108.046 91.9236L109.082 92.4252L111.548 97.6417L111.169 98.5278L105.86 99.969L104.824 99.4675L102.358 94.251L102.737 93.3648ZM95.6069 95.3009L100.916 93.8597L101.952 94.3613L104.419 99.5778L104.039 100.464L98.7299 101.905L97.6944 101.404L95.2276 96.1871L95.6069 95.3009ZM88.477 97.237L93.7865 95.7958L94.822 96.2974L97.2887 101.514L96.9095 102.4L91.6 103.841L90.5646 103.34L88.0978 98.1232L88.477 97.237ZM81.3472 99.1732L86.6566 97.7319L87.6922 98.2335L90.1589 103.45L89.7796 104.336L84.4702 105.777L83.4347 105.276L80.9679 100.059L81.3472 99.1732ZM74.2173 101.109L79.5268 99.6681L80.5623 100.17L83.029 105.386L82.6498 106.272L77.3403 107.714L76.3048 107.212L73.8381 101.995L74.2173 101.109ZM67.0874 103.045L72.3969 101.604L73.4325 102.106L75.8992 107.322L75.5199 108.208L70.2105 109.65L69.1749 109.148L66.7082 103.932L67.0874 103.045ZM120.321 96.488L125.63 95.0468L126.666 95.5484L129.132 100.765L128.753 101.651L123.444 103.092L122.408 102.591L119.941 97.3742L120.321 96.488ZM113.191 98.4242L118.5 96.9829L119.536 97.4845L122.002 102.701L121.623 103.587L116.314 105.028L115.278 104.527L112.812 99.3103L113.191 98.4242ZM106.061 100.36L111.37 98.919L112.406 99.4206L114.873 104.637L114.493 105.523L109.184 106.964L108.148 106.463L105.682 101.246L106.061 100.36ZM98.931 102.296L104.241 100.855L105.276 101.357L107.743 106.573L107.364 107.459L102.054 108.901L101.019 108.399L98.5518 103.183L98.931 102.296ZM91.8012 104.233L97.1106 102.791L98.1462 103.293L100.613 108.509L100.234 109.396L94.9242 110.837L93.8887 110.335L91.4219 105.119L91.8012 104.233ZM84.6713 106.169L89.9808 104.727L91.0163 105.229L93.4831 110.445L93.1039 111.332L87.7943 112.773L86.7589 112.271L84.2921 107.055L84.6713 106.169ZM77.5415 108.105L82.8509 106.664L83.8865 107.165L86.3532 112.382L85.974 113.268L80.6645 114.709L79.629 114.207L77.1622 108.991L77.5415 108.105ZM70.4116 110.041L75.7211 108.6L76.7566 109.101L79.2234 114.318L78.8441 115.204L73.5346 116.645L72.4992 116.144L70.0324 110.927L70.4116 110.041ZM123.645 103.483L128.954 102.042L129.99 102.544L132.457 107.76L132.077 108.646L126.768 110.088L125.732 109.586L123.266 104.37L123.645 103.483ZM116.515 105.42L121.824 103.978L122.86 104.48L125.327 109.696L124.947 110.583L119.638 112.024L118.603 111.522L116.136 106.306L116.515 105.42ZM109.385 107.356L114.695 105.915L115.73 106.416L118.197 111.633L117.818 112.519L112.508 113.96L111.473 113.458L109.006 108.242L109.385 107.356ZM102.255 109.292L107.565 107.851L108.6 108.352L111.067 113.569L110.688 114.455L105.378 115.896L104.343 115.395L101.876 110.178L102.255 109.292ZM95.1254 111.228L100.435 109.787L101.47 110.288L103.937 115.505L103.558 116.391L98.2485 117.832L97.2129 117.331L94.7461 112.114L95.1254 111.228ZM87.9955 113.164L93.305 111.723L94.3405 112.224L96.8073 117.441L96.4281 118.327L91.1186 119.768L90.0831 119.267L87.6162 114.05L87.9955 113.164ZM80.8656 115.1L86.1751 113.659L87.2106 114.161L89.6774 119.377L89.2982 120.263L83.9887 121.704L82.9532 121.203L80.4864 115.986L80.8656 115.1ZM73.7358 117.036L79.0453 115.595L80.0808 116.097L82.5476 121.313L82.1684 122.199L76.8588 123.641L75.8234 123.139L73.3565 117.922L73.7358 117.036ZM126.969 110.479L132.279 109.038L133.314 109.539L135.781 114.756L135.402 115.642L130.092 117.083L129.057 116.582L126.59 111.365L126.969 110.479ZM119.839 112.415L125.149 110.974L126.184 111.475L128.651 116.692L128.272 117.578L122.962 119.019L121.927 118.518L119.46 113.301L119.839 112.415ZM112.709 114.351L118.019 112.91L119.054 113.412L121.521 118.628L121.142 119.514L115.832 120.955L114.797 120.454L112.33 115.237L112.709 114.351ZM105.579 116.287L110.889 114.846L111.924 115.348L114.391 120.564L114.012 121.45L108.702 122.892L107.667 122.39L105.2 117.173L105.579 116.287ZM98.4496 118.223L103.759 116.782L104.795 117.284L107.261 122.5L106.882 123.386L101.573 124.828L100.537 124.326L98.0704 119.11L98.4496 118.223ZM91.3198 120.16L96.6292 118.718L97.6647 119.22L100.131 124.436L99.7522 125.323L94.4428 126.764L93.4072 126.262L90.9405 121.046L91.3198 120.16ZM84.1899 122.096L89.4994 120.654L90.5348 121.156L93.0016 126.373L92.6224 127.259L87.3129 128.7L86.2774 128.198L83.8106 122.982L84.1899 122.096ZM77.0601 124.032L82.3695 122.591L83.405 123.092L85.8718 128.309L85.4925 129.195L80.1831 130.636L79.1475 130.134L76.6807 124.918L77.0601 124.032Z" fill="#1C75BC"/>
<path opacity="0.2" d="M155.486 3.99239L31.0725 37.7926L201.569 101.37L155.486 3.99239Z" fill="white"/>
<path d="M200.682 104.735L76.2228 138.716L77.1561 135.175L201.569 101.371L200.682 104.735Z" fill="#9FA8B6"/>
<g style="mix-blend-mode:multiply" opacity="0.15">
<path d="M280.488 207.895L140.862 245.832L88.5062 231.607L228.129 193.67L280.488 207.895Z" fill="#242B52"/>
</g>
<g style="mix-blend-mode:multiply" opacity="0.15">
<path d="M182.814 217.888C182.814 221.841 192.414 225.047 204.257 225.047C216.099 225.047 225.699 221.844 225.699 217.888C225.699 213.932 216.099 210.729 204.257 210.729C192.414 210.729 182.814 213.932 182.814 217.888Z" fill="#242B52"/>
</g>
<g style="mix-blend-mode:multiply" opacity="0.15">
<path d="M192.282 218.263C192.282 220.898 199.481 223.035 208.365 223.035C217.25 223.035 224.449 220.898 224.449 218.263C224.449 215.628 217.25 213.491 208.365 213.491C199.481 213.491 192.282 215.628 192.282 218.263Z" fill="#242B52"/>
</g>
<path d="M223.5 208.333V218.104C223.5 218.97 222.283 219.836 219.852 220.499C214.988 221.819 207.103 221.819 202.239 220.499C199.808 219.836 198.591 218.97 198.591 218.104V208.333H223.5Z" fill="#D0D2D3"/>
<mask id="mask4_1717_2077" style="mask-type:luminance" maskUnits="userSpaceOnUse" x="198" y="208" width="26" height="14">
<path d="M223.5 208.333V218.104C223.5 218.97 222.283 219.836 219.852 220.499C214.988 221.819 207.103 221.819 202.239 220.499C199.808 219.836 198.591 218.97 198.591 218.104V208.333H223.5Z" fill="white"/>
</mask>
<g mask="url(#mask4_1717_2077)">
<path opacity="0.2" d="M200.296 207.015H207.021V223.307H200.296V207.015Z" fill="#242B52"/>
<path opacity="0.3" d="M215.07 207.015H221.794V223.306H215.07V207.015Z" fill="white"/>
</g>
<path d="M211.044 211.717C204.165 211.717 198.588 210.202 198.588 208.333C198.588 206.464 204.165 204.949 211.044 204.949C217.923 204.949 223.5 206.464 223.5 208.333C223.5 210.202 217.923 211.717 211.044 211.717Z" fill="#E6E7E8"/>
<path d="M219.143 182.811V208.255C219.143 208.817 218.352 209.382 216.772 209.81C213.61 210.669 208.482 210.669 205.319 209.81C203.736 209.382 202.948 208.817 202.948 208.255V182.811H219.147H219.143Z" fill="#D0D2D3"/>
<mask id="mask5_1717_2077" style="mask-type:luminance" maskUnits="userSpaceOnUse" x="202" y="182" width="18" height="29">
<path d="M219.143 182.811V208.255C219.143 208.817 218.352 209.382 216.772 209.81C213.61 210.669 208.482 210.669 205.319 209.81C203.736 209.382 202.948 208.817 202.948 208.255V182.811H219.147H219.143Z" fill="white"/>
</mask>
<g mask="url(#mask5_1717_2077)">
<path opacity="0.2" d="M204.056 181.953H208.429V211.637H204.056V181.953Z" fill="#242B52"/>
<path opacity="0.3" d="M213.662 181.953H218.035V211.637H213.662V181.953Z" fill="white"/>
</g>
<path d="M211.045 185.012C206.571 185.012 202.945 184.027 202.945 182.812C202.945 181.597 206.571 180.612 211.045 180.612C215.518 180.612 219.144 181.597 219.144 182.812C219.144 184.027 215.518 185.012 211.045 185.012Z" fill="#E6E7E8"/>
<path d="M164.726 206.918L118.642 109.54L119.579 105.999L165.662 203.377L164.726 206.918Z" fill="#9FA8B6"/>
<path d="M243.992 72.1938L119.579 105.997L165.662 203.375L290.075 169.572L243.992 72.1938Z" fill="#D0D2D3"/>
<path d="M197.482 121.227L257.176 105.009L242.682 74.3857L182.989 90.6037L197.482 121.227ZM197.964 122.24L257.658 106.022L272.151 136.646L212.458 152.864L197.964 122.24ZM122.428 107.056L182.121 90.8377L196.615 121.461L136.922 137.679L122.428 107.056ZM137.495 138.896L197.189 122.678L211.683 153.302L151.989 169.52L137.495 138.896ZM213.045 154.105L272.738 137.887L287.232 168.51L227.539 184.728L213.045 154.105ZM152.481 170.56L212.174 154.342L226.668 184.965L166.974 201.183L152.481 170.56Z" fill="#EBEBEB"/>
<path d="M235.473 78.8216L237.94 84.0381L238.975 84.5397L244.285 83.0985L244.664 82.2124L242.197 76.9958L241.162 76.4942L235.852 77.9355L235.473 78.8216ZM228.719 79.8716L234.029 78.4304L235.064 78.932L237.531 84.1484L237.152 85.0346L231.842 86.4758L230.807 85.9743L228.34 80.7577L228.719 79.8716ZM221.589 81.8077L226.899 80.3665L227.934 80.8681L230.401 86.0846L230.022 86.9707L224.712 88.4119L223.677 87.9103L221.21 82.6939L221.589 81.8077ZM214.46 83.7438L219.769 82.3026L220.805 82.8042L223.271 88.0207L222.892 88.9068L217.583 90.3481L216.547 89.8465L214.08 84.63L214.46 83.7438ZM207.33 85.68L212.639 84.2387L213.675 84.7403L216.141 89.9568L215.762 90.843L210.453 92.2842L209.417 91.7826L206.95 86.5661L207.33 85.68ZM200.2 87.6161L205.509 86.1749L206.545 86.6765L209.012 91.893L208.632 92.7791L203.323 94.2203L202.287 93.7187L199.821 88.5022L200.2 87.6161ZM193.07 89.5522L198.379 88.111L199.415 88.6126L201.882 93.8291L201.502 94.7152L196.193 96.1564L195.157 95.6549L192.691 90.4384L193.07 89.5522ZM185.94 91.4884L191.25 90.0471L192.285 90.5487L194.752 95.7652L194.373 96.6513L189.063 98.0926L188.028 97.591L185.561 92.3745L185.94 91.4884ZM239.173 84.931L244.483 83.4897L245.518 83.9913L247.985 89.2078L247.606 90.0939L242.296 91.5352L241.261 91.0336L238.794 85.8171L239.173 84.931ZM232.043 86.867L237.353 85.4258L238.388 85.9274L240.855 91.1439L240.476 92.0301L235.166 93.4713L234.131 92.9697L231.664 87.7532L232.043 86.867ZM224.914 88.8032L230.223 87.3619L231.259 87.8635L233.725 93.0801L233.346 93.9662L228.037 95.4074L227.001 94.9058L224.534 89.6893L224.914 88.8032ZM217.784 90.7393L223.093 89.2981L224.129 89.7997L226.596 95.0162L226.216 95.9023L220.907 97.3435L219.871 96.842L217.404 91.6254L217.784 90.7393ZM210.654 92.6754L215.963 91.2342L216.999 91.7358L219.466 96.9523L219.086 97.8384L213.777 99.2796L212.741 98.7781L210.275 93.5616L210.654 92.6754ZM203.524 94.6116L208.833 93.1703L209.869 93.6719L212.336 98.8884L211.956 99.7745L206.647 101.216L205.612 100.714L203.145 95.4977L203.524 94.6116ZM196.394 96.5477L201.704 95.1064L202.739 95.608L205.206 100.825L204.827 101.711L199.517 103.152L198.482 102.65L196.015 97.4338L196.394 96.5477ZM189.264 98.4838L194.574 97.0426L195.609 97.5442L198.076 102.761L197.697 103.647L192.387 105.088L191.352 104.586L188.885 99.3699L189.264 98.4838ZM242.498 91.9264L247.807 90.4852L248.842 90.9868L251.309 96.2033L250.93 97.0894L245.621 98.5306L244.585 98.029L242.118 92.8125L242.498 91.9264ZM235.368 93.8625L240.677 92.4213L241.713 92.9229L244.179 98.1394L243.8 99.0255L238.491 100.467L237.455 99.9652L234.988 94.7487L235.368 93.8625ZM228.238 95.7987L233.547 94.3574L234.583 94.859L237.05 100.075L236.67 100.962L231.361 102.403L230.325 101.901L227.859 96.6848L228.238 95.7987ZM221.108 97.7348L226.417 96.2936L227.453 96.7951L229.92 102.012L229.54 102.898L224.231 104.339L223.195 103.837L220.729 98.6209L221.108 97.7348ZM213.978 99.6709L219.288 98.2297L220.323 98.7312L222.79 103.948L222.411 104.834L217.101 106.275L216.066 105.774L213.599 100.557L213.978 99.6709ZM206.848 101.607L212.158 100.166L213.193 100.667L215.66 105.884L215.281 106.77L209.971 108.211L208.936 107.71L206.469 102.493L206.848 101.607ZM199.718 103.543L205.028 102.102L206.063 102.604L208.53 107.82L208.151 108.706L202.841 110.147L201.806 109.646L199.339 104.429L199.718 103.543ZM192.588 105.479L197.898 104.038L198.933 104.54L201.4 109.756L201.021 110.642L195.711 112.083L194.676 111.582L192.209 106.365L192.588 105.479ZM245.822 98.9219L251.131 97.4806L252.167 97.9822L254.633 103.199L254.254 104.085L248.945 105.526L247.909 105.024L245.442 99.808L245.822 98.9219ZM238.692 100.858L244.001 99.4168L245.037 99.9183L247.504 105.135L247.124 106.021L241.815 107.462L240.779 106.961L238.313 101.744L238.692 100.858ZM231.562 102.794L236.871 101.353L237.907 101.854L240.374 107.071L239.994 107.957L234.685 109.398L233.649 108.897L231.183 103.68L231.562 102.794ZM224.432 104.73L229.742 103.289L230.777 103.791L233.244 109.007L232.865 109.893L227.555 111.334L226.52 110.833L224.053 105.616L224.432 104.73ZM217.302 106.666L222.612 105.225L223.647 105.727L226.114 110.943L225.735 111.829L220.425 113.271L219.39 112.769L216.923 107.552L217.302 106.666ZM210.172 108.602L215.482 107.161L216.517 107.663L218.984 112.879L218.605 113.765L213.295 115.207L212.26 114.705L209.793 109.489L210.172 108.602ZM203.043 110.539L208.352 109.097L209.387 109.599L211.854 114.815L211.475 115.702L206.166 117.143L205.13 116.641L202.663 111.425L203.043 110.539ZM195.913 112.475L201.222 111.033L202.258 111.535L204.724 116.752L204.345 117.638L199.036 119.079L198 118.577L195.533 113.361L195.913 112.475ZM250.854 109.535L256.164 108.094L257.199 108.596L259.666 113.812L259.287 114.698L253.977 116.14L252.942 115.638L250.475 110.422L250.854 109.535ZM243.724 111.472L249.034 110.03L250.069 110.532L252.536 115.748L252.157 116.635L246.847 118.076L245.812 117.574L243.345 112.358L243.724 111.472ZM236.594 113.408L241.904 111.966L242.939 112.468L245.406 117.685L245.027 118.571L239.717 120.012L238.682 119.51L236.215 114.294L236.594 113.408ZM229.465 115.344L234.774 113.903L235.81 114.404L238.276 119.621L237.897 120.507L232.588 121.948L231.552 121.446L229.085 116.23L229.465 115.344ZM222.335 117.28L227.644 115.839L228.68 116.34L231.146 121.557L230.767 122.443L225.458 123.884L224.422 123.383L221.955 118.166L222.335 117.28ZM215.205 119.216L220.514 117.775L221.55 118.276L224.017 123.493L223.637 124.379L218.328 125.82L217.292 125.319L214.826 120.102L215.205 119.216ZM208.075 121.152L213.384 119.711L214.42 120.213L216.887 125.429L216.507 126.315L211.198 127.756L210.162 127.255L207.696 122.038L208.075 121.152ZM200.945 123.088L206.255 121.647L207.29 122.149L209.757 127.365L209.378 128.251L204.068 129.693L203.033 129.191L200.566 123.974L200.945 123.088ZM254.178 116.531L259.488 115.09L260.523 115.591L262.99 120.808L262.611 121.694L257.301 123.135L256.266 122.634L253.799 117.417L254.178 116.531ZM247.049 118.467L252.358 117.026L253.393 117.527L255.86 122.744L255.481 123.63L250.172 125.071L249.136 124.57L246.669 119.353L247.049 118.467ZM239.919 120.403L245.228 118.962L246.264 119.463L248.73 124.68L248.351 125.566L243.042 127.007L242.006 126.506L239.539 121.289L239.919 120.403ZM232.789 122.339L238.098 120.898L239.134 121.4L241.601 126.616L241.221 127.502L235.912 128.944L234.876 128.442L232.409 123.225L232.789 122.339ZM225.659 124.275L230.968 122.834L232.004 123.336L234.471 128.552L234.091 129.438L228.782 130.88L227.746 130.378L225.28 125.162L225.659 124.275ZM218.529 126.212L223.838 124.77L224.874 125.272L227.341 130.488L226.962 131.374L221.652 132.816L220.617 132.314L218.15 127.098L218.529 126.212ZM211.399 128.148L216.709 126.706L217.744 127.208L220.211 132.424L219.832 133.311L214.522 134.752L213.487 134.25L211.02 129.034L211.399 128.148ZM204.269 130.084L209.579 128.643L210.614 129.144L213.081 134.361L212.702 135.247L207.392 136.688L206.357 136.186L203.89 130.97L204.269 130.084ZM257.503 123.526L262.812 122.085L263.848 122.587L266.314 127.803L265.935 128.689L260.626 130.131L259.59 129.629L257.123 124.412L257.503 123.526ZM250.373 125.462L255.682 124.021L256.718 124.523L259.184 129.739L258.805 130.625L253.496 132.067L252.46 131.565L249.993 126.349L250.373 125.462ZM243.243 127.399L248.552 125.957L249.588 126.459L252.055 131.675L251.675 132.562L246.366 134.003L245.33 133.501L242.864 128.285L243.243 127.399ZM236.113 129.335L241.422 127.894L242.458 128.395L244.925 133.612L244.545 134.498L239.236 135.939L238.2 135.437L235.734 130.221L236.113 129.335ZM228.983 131.271L234.293 129.83L235.328 130.331L237.795 135.548L237.416 136.434L232.106 137.875L231.071 137.373L228.604 132.157L228.983 131.271ZM221.853 133.207L227.163 131.766L228.198 132.267L230.665 137.484L230.286 138.37L224.976 139.811L223.941 139.31L221.474 134.093L221.853 133.207ZM214.723 135.143L220.033 133.702L221.068 134.203L223.535 139.42L223.156 140.306L217.846 141.747L216.811 141.246L214.344 136.029L214.723 135.143ZM207.593 137.079L212.903 135.638L213.938 136.14L216.405 141.356L216.026 142.242L210.717 143.683L209.681 143.182L207.214 137.965L207.593 137.079ZM260.827 130.522L266.136 129.081L267.172 129.582L269.638 134.799L269.259 135.685L263.95 137.126L262.914 136.624L260.447 131.408L260.827 130.522ZM253.697 132.458L259.006 131.017L260.042 131.518L262.509 136.735L262.129 137.621L256.82 139.062L255.784 138.561L253.318 133.344L253.697 132.458ZM246.567 134.394L251.876 132.953L252.912 133.454L255.379 138.671L254.999 139.557L249.69 140.998L248.654 140.497L246.188 135.28L246.567 134.394ZM239.437 136.33L244.747 134.889L245.782 135.391L248.249 140.607L247.87 141.493L242.56 142.934L241.525 142.433L239.058 137.216L239.437 136.33ZM232.307 138.266L237.617 136.825L238.652 137.327L241.119 142.543L240.74 143.429L235.43 144.871L234.395 144.369L231.928 139.152L232.307 138.266ZM225.177 140.202L230.487 138.761L231.522 139.263L233.989 144.479L233.61 145.365L228.3 146.807L227.265 146.305L224.798 141.089L225.177 140.202ZM218.048 142.139L223.357 140.697L224.393 141.199L226.859 146.415L226.48 147.302L221.171 148.743L220.135 148.241L217.668 143.025L218.048 142.139ZM210.918 144.075L216.227 142.633L217.263 143.135L219.729 148.352L219.35 149.238L214.041 150.679L213.005 150.177L210.538 144.961L210.918 144.075ZM175.351 94.3106L180.66 92.8694L181.696 93.371L184.163 98.5875L183.783 99.4736L178.474 100.915L177.438 100.413L174.972 95.1967L175.351 94.3106ZM168.221 96.2467L173.53 94.8055L174.566 95.3071L177.033 100.524L176.654 101.41L171.344 102.851L170.308 102.349L167.842 97.1329L168.221 96.2467ZM161.091 98.1828L166.401 96.7416L167.436 97.2432L169.903 102.46L169.524 103.346L164.214 104.787L163.179 104.285L160.712 99.069L161.091 98.1828ZM153.961 100.119L159.271 98.6778L160.306 99.1794L162.773 104.396L162.394 105.282L157.084 106.723L156.049 106.222L153.582 101.005L153.961 100.119ZM146.831 102.055L152.141 100.614L153.176 101.115L155.643 106.332L155.264 107.218L149.954 108.659L148.919 108.158L146.452 102.941L146.831 102.055ZM139.702 103.991L145.011 102.55L146.047 103.052L148.513 108.268L148.134 109.154L142.825 110.595L141.789 110.094L139.322 104.877L139.702 103.991ZM132.572 105.927L137.881 104.486L138.917 104.988L141.383 110.204L141.004 111.09L135.695 112.532L134.659 112.03L132.192 106.813L132.572 105.927ZM125.442 107.863L130.751 106.422L131.787 106.924L134.254 112.14L133.874 113.026L128.565 114.468L127.529 113.966L125.063 108.75L125.442 107.863ZM178.675 101.306L183.985 99.8648L185.02 100.366L187.487 105.583L187.108 106.469L181.798 107.91L180.763 107.409L178.296 102.192L178.675 101.306ZM171.545 103.242L176.855 101.801L177.89 102.303L180.357 107.519L179.978 108.405L174.668 109.846L173.633 109.345L171.166 104.128L171.545 103.242ZM164.415 105.178L169.725 103.737L170.76 104.239L173.227 109.455L172.848 110.341L167.538 111.783L166.503 111.281L164.036 106.064L164.415 105.178ZM157.285 107.114L162.595 105.673L163.63 106.175L166.097 111.391L165.718 112.277L160.409 113.719L159.373 113.217L156.906 108.001L157.285 107.114ZM150.156 109.051L155.465 107.609L156.501 108.111L158.967 113.327L158.588 114.214L153.279 115.655L152.243 115.153L149.776 109.937L150.156 109.051ZM143.026 110.987L148.335 109.545L149.371 110.047L151.838 115.264L151.458 116.15L146.149 117.591L145.113 117.089L142.646 111.873L143.026 110.987ZM135.896 112.923L141.205 111.482L142.241 111.983L144.708 117.2L144.328 118.086L139.019 119.527L137.983 119.025L135.517 113.809L135.896 112.923ZM128.766 114.859L134.076 113.418L135.111 113.919L137.578 119.136L137.199 120.022L131.889 121.463L130.854 120.962L128.387 115.745L128.766 114.859ZM181.999 108.302L187.309 106.86L188.344 107.362L190.811 112.578L190.432 113.465L185.122 114.906L184.087 114.404L181.62 109.188L181.999 108.302ZM174.869 110.238L180.179 108.796L181.214 109.298L183.681 114.515L183.302 115.401L177.992 116.842L176.957 116.34L174.49 111.124L174.869 110.238ZM167.74 112.174L173.049 110.733L174.085 111.234L176.551 116.451L176.172 117.337L170.863 118.778L169.827 118.276L167.36 113.06L167.74 112.174ZM160.61 114.11L165.919 112.669L166.955 113.17L169.421 118.387L169.042 119.273L163.733 120.714L162.697 120.213L160.23 114.996L160.61 114.11ZM153.48 116.046L158.789 114.605L159.825 115.106L162.292 120.323L161.912 121.209L156.603 122.65L155.567 122.149L153.101 116.932L153.48 116.046ZM146.35 117.982L151.659 116.541L152.695 117.042L155.162 122.259L154.782 123.145L149.473 124.586L148.437 124.085L145.971 118.868L146.35 117.982ZM139.22 119.918L144.53 118.477L145.565 118.979L148.032 124.195L147.653 125.081L142.343 126.522L141.308 126.021L138.841 120.804L139.22 119.918ZM132.09 121.854L137.4 120.413L138.435 120.915L140.902 126.131L140.523 127.017L135.213 128.459L134.178 127.957L131.711 122.741L132.09 121.854ZM185.323 115.297L190.633 113.856L191.668 114.357L194.135 119.574L193.756 120.46L188.446 121.901L187.411 121.4L184.944 116.183L185.323 115.297ZM178.194 117.233L183.503 115.792L184.539 116.293L187.005 121.51L186.626 122.396L181.317 123.837L180.281 123.336L177.814 118.119L178.194 117.233ZM171.064 119.169L176.373 117.728L177.409 118.23L179.875 123.446L179.496 124.332L174.187 125.773L173.151 125.272L170.684 120.055L171.064 119.169ZM163.934 121.105L169.243 119.664L170.279 120.166L172.746 125.382L172.366 126.268L167.057 127.71L166.021 127.208L163.555 121.992L163.934 121.105ZM156.804 123.041L162.113 121.6L163.149 122.102L165.616 127.318L165.236 128.204L159.927 129.646L158.892 129.144L156.425 123.928L156.804 123.041ZM149.674 124.978L154.984 123.536L156.019 124.038L158.486 129.254L158.107 130.141L152.797 131.582L151.762 131.08L149.295 125.864L149.674 124.978ZM142.544 126.914L147.854 125.473L148.889 125.974L151.356 131.191L150.977 132.077L145.667 133.518L144.632 133.016L142.165 127.8L142.544 126.914ZM135.414 128.85L140.724 127.409L141.759 127.91L144.226 133.127L143.847 134.013L138.537 135.454L137.502 134.952L135.035 129.736L135.414 128.85ZM190.451 126.111L195.761 124.67L196.796 125.172L199.263 130.388L198.884 131.274L193.575 132.715L192.539 132.214L190.072 126.997L190.451 126.111ZM183.322 128.047L188.631 126.606L189.667 127.108L192.133 132.324L191.754 133.21L186.445 134.652L185.409 134.15L182.942 128.933L183.322 128.047ZM176.192 129.983L181.501 128.542L182.537 129.044L185.004 134.26L184.624 135.146L179.315 136.588L178.279 136.086L175.813 130.87L176.192 129.983ZM169.062 131.92L174.371 130.478L175.407 130.98L177.874 136.196L177.494 137.083L172.185 138.524L171.149 138.022L168.683 132.806L169.062 131.92ZM161.932 133.856L167.242 132.414L168.277 132.916L170.744 138.133L170.365 139.019L165.055 140.46L164.02 139.958L161.553 134.742L161.932 133.856ZM154.802 135.792L160.112 134.351L161.147 134.852L163.614 140.069L163.235 140.955L157.925 142.396L156.89 141.894L154.423 136.678L154.802 135.792ZM147.672 137.728L152.982 136.287L154.017 136.788L156.484 142.005L156.105 142.891L150.795 144.332L149.76 143.831L147.293 138.614L147.672 137.728ZM140.543 139.664L145.852 138.223L146.888 138.724L149.354 143.941L148.975 144.827L143.666 146.268L142.63 145.767L140.163 140.55L140.543 139.664ZM193.776 133.107L199.085 131.665L200.121 132.167L202.587 137.384L202.208 138.27L196.899 139.711L195.863 139.209L193.396 133.993L193.776 133.107ZM186.646 135.043L191.955 133.602L192.991 134.103L195.458 139.32L195.078 140.206L189.769 141.647L188.733 141.145L186.267 135.929L186.646 135.043ZM179.516 136.979L184.825 135.538L185.861 136.039L188.328 141.256L187.949 142.142L182.639 143.583L181.603 143.082L179.137 137.865L179.516 136.979ZM172.386 138.915L177.696 137.474L178.731 137.975L181.198 143.192L180.819 144.078L175.509 145.519L174.474 145.018L172.007 139.801L172.386 138.915ZM165.256 140.851L170.566 139.41L171.601 139.912L174.068 145.128L173.689 146.014L168.379 147.455L167.344 146.954L164.877 141.737L165.256 140.851ZM158.126 142.787L163.436 141.346L164.471 141.848L166.938 147.064L166.559 147.95L161.249 149.391L160.214 148.89L157.747 143.673L158.126 142.787ZM150.997 144.723L156.306 143.282L157.342 143.784L159.808 149L159.429 149.886L154.12 151.328L153.084 150.826L150.617 145.61L150.997 144.723ZM143.867 146.66L149.176 145.218L150.212 145.72L152.678 150.936L152.299 151.823L146.99 153.264L145.954 152.762L143.487 147.546L143.867 146.66ZM197.1 140.102L202.409 138.661L203.445 139.162L205.912 144.379L205.532 145.265L200.223 146.706L199.187 146.205L196.721 140.988L197.1 140.102ZM189.97 142.038L195.28 140.597L196.315 141.099L198.782 146.315L198.403 147.201L193.093 148.642L192.058 148.141L189.591 142.924L189.97 142.038ZM182.84 143.974L188.15 142.533L189.185 143.035L191.652 148.251L191.273 149.137L185.963 150.579L184.928 150.077L182.461 144.861L182.84 143.974ZM175.71 145.91L181.02 144.469L182.055 144.971L184.522 150.187L184.143 151.073L178.833 152.515L177.798 152.013L175.331 146.797L175.71 145.91ZM168.58 147.847L173.89 146.405L174.925 146.907L177.392 152.123L177.013 153.01L171.704 154.451L170.668 153.949L168.201 148.733L168.58 147.847ZM161.451 149.783L166.76 148.341L167.796 148.843L170.262 154.06L169.883 154.946L164.574 156.387L163.538 155.885L161.071 150.669L161.451 149.783ZM154.321 151.719L159.63 150.278L160.666 150.779L163.133 155.996L162.753 156.882L157.444 158.323L156.408 157.822L153.941 152.605L154.321 151.719ZM147.191 153.655L152.5 152.214L153.536 152.715L156.003 157.932L155.623 158.818L150.314 160.259L149.278 159.758L146.812 154.541L147.191 153.655ZM200.424 147.098L205.734 145.656L206.769 146.158L209.236 151.374L208.857 152.261L203.547 153.702L202.512 153.2L200.045 147.984L200.424 147.098ZM193.294 149.034L198.604 147.592L199.639 148.094L202.106 153.311L201.727 154.197L196.417 155.638L195.382 155.136L192.915 149.92L193.294 149.034ZM186.164 150.97L191.474 149.529L192.509 150.03L194.976 155.247L194.597 156.133L189.287 157.574L188.252 157.072L185.785 151.856L186.164 150.97ZM179.035 152.906L184.344 151.465L185.38 151.966L187.846 157.183L187.467 158.069L182.158 159.51L181.122 159.009L178.655 153.792L179.035 152.906ZM171.905 154.842L177.214 153.401L178.25 153.902L180.716 159.119L180.337 160.005L175.028 161.446L173.992 160.945L171.525 155.728L171.905 154.842ZM164.775 156.778L170.084 155.337L171.12 155.839L173.587 161.055L173.207 161.941L167.898 163.382L166.862 162.881L164.396 157.664L164.775 156.778ZM157.645 158.714L162.954 157.273L163.99 157.775L166.457 162.991L166.077 163.877L160.768 165.319L159.732 164.817L157.266 159.6L157.645 158.714ZM150.515 160.65L155.825 159.209L156.86 159.711L159.327 164.927L158.948 165.813L153.638 167.255L152.603 166.753L150.136 161.537L150.515 160.65ZM266.034 141.279L271.343 139.838L272.379 140.34L274.846 145.556L274.466 146.442L269.157 147.883L268.121 147.382L265.655 142.165L266.034 141.279ZM258.904 143.215L264.214 141.774L265.249 142.276L267.716 147.492L267.337 148.378L262.027 149.82L260.992 149.318L258.525 144.101L258.904 143.215ZM251.774 145.151L257.084 143.71L258.119 144.212L260.586 149.428L260.207 150.314L254.897 151.756L253.862 151.254L251.395 146.038L251.774 145.151ZM244.644 147.088L249.954 145.646L250.989 146.148L253.456 151.364L253.077 152.251L247.767 153.692L246.732 153.19L244.265 147.974L244.644 147.088ZM237.514 149.024L242.824 147.582L243.859 148.084L246.326 153.301L245.947 154.187L240.638 155.628L239.602 155.126L237.135 149.91L237.514 149.024ZM230.385 150.96L235.694 149.519L236.73 150.02L239.196 155.237L238.817 156.123L233.508 157.564L232.472 157.062L230.005 151.846L230.385 150.96ZM223.255 152.896L228.564 151.455L229.6 151.956L232.067 157.173L231.687 158.059L226.378 159.5L225.342 158.999L222.876 153.782L223.255 152.896ZM216.125 154.832L221.434 153.391L222.47 153.892L224.937 159.109L224.557 159.995L219.248 161.436L218.212 160.935L215.746 155.718L216.125 154.832ZM269.358 148.275L274.668 146.833L275.703 147.335L278.17 152.552L277.791 153.438L272.481 154.879L271.446 154.377L268.979 149.161L269.358 148.275ZM262.228 150.211L267.538 148.77L268.573 149.271L271.04 154.488L270.661 155.374L265.351 156.815L264.316 156.313L261.849 151.097L262.228 150.211ZM255.098 152.147L260.408 150.706L261.443 151.207L263.91 156.424L263.531 157.31L258.221 158.751L257.186 158.249L254.719 153.033L255.098 152.147ZM247.969 154.083L253.278 152.642L254.314 153.143L256.78 158.36L256.401 159.246L251.092 160.687L250.056 160.186L247.589 154.969L247.969 154.083ZM240.839 156.019L246.148 154.578L247.184 155.079L249.65 160.296L249.271 161.182L243.962 162.623L242.926 162.122L240.459 156.905L240.839 156.019ZM233.709 157.955L239.018 156.514L240.054 157.016L242.521 162.232L242.141 163.118L236.832 164.559L235.796 164.058L233.33 158.841L233.709 157.955ZM226.579 159.891L231.888 158.45L232.924 158.952L235.391 164.168L235.012 165.054L229.702 166.496L228.667 165.994L226.2 160.778L226.579 159.891ZM219.449 161.828L224.759 160.386L225.794 160.888L228.261 166.104L227.882 166.99L222.572 168.432L221.537 167.93L219.07 162.714L219.449 161.828ZM272.682 155.27L277.992 153.829L279.027 154.33L281.494 159.547L281.115 160.433L275.805 161.874L274.77 161.373L272.303 156.156L272.682 155.27ZM265.552 157.206L270.862 155.765L271.897 156.267L274.364 161.483L273.985 162.369L268.675 163.81L267.64 163.309L265.173 158.092L265.552 157.206ZM258.423 159.142L263.732 157.701L264.768 158.203L267.234 163.419L266.855 164.305L261.546 165.747L260.51 165.245L258.043 160.028L258.423 159.142ZM251.293 161.078L256.602 159.637L257.638 160.139L260.104 165.355L259.725 166.241L254.416 167.683L253.38 167.181L250.914 161.965L251.293 161.078ZM244.163 163.015L249.472 161.573L250.508 162.075L252.975 167.291L252.595 168.178L247.286 169.619L246.25 169.117L243.784 163.901L244.163 163.015ZM237.033 164.951L242.343 163.51L243.378 164.011L245.845 169.228L245.466 170.114L240.156 171.555L239.121 171.053L236.654 165.837L237.033 164.951ZM229.903 166.887L235.213 165.446L236.248 165.947L238.715 171.164L238.336 172.05L233.026 173.491L231.991 172.989L229.524 167.773L229.903 166.887ZM222.773 168.823L228.083 167.382L229.118 167.883L231.585 173.1L231.206 173.986L225.896 175.427L224.861 174.926L222.394 169.709L222.773 168.823ZM276.006 162.266L281.316 160.824L282.351 161.326L284.818 166.542L284.439 167.429L279.13 168.87L278.094 168.368L275.627 163.152L276.006 162.266ZM268.877 164.202L274.186 162.76L275.222 163.262L277.688 168.479L277.309 169.365L272 170.806L270.964 170.304L268.497 165.088L268.877 164.202ZM261.747 166.138L267.056 164.697L268.092 165.198L270.559 170.415L270.179 171.301L264.87 172.742L263.834 172.24L261.368 167.024L261.747 166.138ZM254.617 168.074L259.926 166.633L260.962 167.134L263.429 172.351L263.049 173.237L257.74 174.678L256.704 174.177L254.238 168.96L254.617 168.074ZM247.487 170.01L252.797 168.569L253.832 169.07L256.299 174.287L255.92 175.173L250.61 176.614L249.575 176.113L247.108 170.896L247.487 170.01ZM240.357 171.946L245.667 170.505L246.702 171.007L249.169 176.223L248.79 177.109L243.48 178.55L242.445 178.049L239.978 172.832L240.357 171.946ZM233.227 173.882L238.537 172.441L239.572 172.943L242.039 178.159L241.66 179.045L236.35 180.487L235.315 179.985L232.848 174.768L233.227 173.882ZM226.098 175.818L231.407 174.377L232.443 174.879L234.909 180.095L234.53 180.981L229.221 182.423L228.185 181.921L225.718 176.705L226.098 175.818ZM205.503 157.694L210.812 156.253L211.848 156.755L214.314 161.971L213.935 162.857L208.626 164.299L207.59 163.797L205.123 158.581L205.503 157.694ZM198.373 159.631L203.682 158.189L204.718 158.691L207.185 163.907L206.805 164.794L201.496 166.235L200.46 165.733L197.994 160.517L198.373 159.631ZM191.243 161.567L196.552 160.125L197.588 160.627L200.055 165.844L199.675 166.73L194.366 168.171L193.33 167.669L190.864 162.453L191.243 161.567ZM184.113 163.503L189.423 162.062L190.458 162.563L192.925 167.78L192.546 168.666L187.236 170.107L186.201 169.605L183.734 164.389L184.113 163.503ZM176.983 165.439L182.293 163.998L183.328 164.499L185.795 169.716L185.416 170.602L180.106 172.043L179.071 171.542L176.604 166.325L176.983 165.439ZM169.853 167.375L175.163 165.934L176.198 166.435L178.665 171.652L178.286 172.538L172.976 173.979L171.941 173.478L169.474 168.261L169.853 167.375ZM162.724 169.311L168.033 167.87L169.069 168.372L171.535 173.588L171.156 174.474L165.847 175.915L164.811 175.414L162.344 170.197L162.724 169.311ZM155.594 171.247L160.903 169.806L161.939 170.308L164.405 175.524L164.026 176.41L158.717 177.852L157.681 177.35L155.214 172.133L155.594 171.247ZM208.827 164.69L214.136 163.249L215.172 163.75L217.639 168.967L217.259 169.853L211.95 171.294L210.914 170.793L208.448 165.576L208.827 164.69ZM201.697 166.626L207.006 165.185L208.042 165.686L210.509 170.903L210.129 171.789L204.82 173.23L203.785 172.729L201.318 167.512L201.697 166.626ZM194.567 168.562L199.877 167.121L200.912 167.622L203.379 172.839L203 173.725L197.69 175.166L196.655 174.665L194.188 169.448L194.567 168.562ZM187.437 170.498L192.747 169.057L193.782 169.559L196.249 174.775L195.87 175.661L190.56 177.102L189.525 176.601L187.058 171.384L187.437 170.498ZM180.307 172.434L185.617 170.993L186.652 171.495L189.119 176.711L188.74 177.597L183.43 179.039L182.395 178.537L179.928 173.321L180.307 172.434ZM173.178 174.371L178.487 172.929L179.523 173.431L181.989 178.647L181.61 179.534L176.301 180.975L175.265 180.473L172.798 175.257L173.178 174.371ZM166.048 176.307L171.357 174.865L172.393 175.367L174.859 180.583L174.48 181.47L169.171 182.911L168.135 182.409L165.669 177.193L166.048 176.307ZM158.918 178.243L164.227 176.802L165.263 177.303L167.73 182.52L167.35 183.406L162.041 184.847L161.005 184.345L158.539 179.129L158.918 178.243ZM212.151 171.685L217.461 170.244L218.496 170.746L220.963 175.962L220.584 176.848L215.274 178.29L214.239 177.788L211.772 172.571L212.151 171.685ZM205.021 173.621L210.331 172.18L211.366 172.682L213.833 177.898L213.454 178.784L208.144 180.226L207.109 179.724L204.642 174.508L205.021 173.621ZM197.891 175.558L203.201 174.116L204.236 174.618L206.703 179.834L206.324 180.721L201.014 182.162L199.979 181.66L197.512 176.444L197.891 175.558ZM190.761 177.494L196.071 176.053L197.106 176.554L199.573 181.771L199.194 182.657L193.885 184.098L192.849 183.596L190.382 178.38L190.761 177.494ZM183.632 179.43L188.941 177.989L189.977 178.49L192.443 183.707L192.064 184.593L186.755 186.034L185.719 185.532L183.252 180.316L183.632 179.43ZM176.502 181.366L181.811 179.925L182.847 180.426L185.313 185.643L184.934 186.529L179.625 187.97L178.589 187.469L176.123 182.252L176.502 181.366ZM169.372 183.302L174.681 181.861L175.717 182.362L178.184 187.579L177.804 188.465L172.495 189.906L171.459 189.405L168.993 184.188L169.372 183.302ZM162.242 185.238L167.552 183.797L168.587 184.299L171.054 189.515L170.675 190.401L165.365 191.842L164.33 191.341L161.863 186.124L162.242 185.238ZM215.475 178.681L220.785 177.24L221.82 177.741L224.287 182.958L223.908 183.844L218.598 185.285L217.563 184.783L215.096 179.567L215.475 178.681ZM208.345 180.617L213.655 179.176L214.69 179.677L217.157 184.894L216.778 185.78L211.468 187.221L210.433 186.72L207.966 181.503L208.345 180.617ZM201.216 182.553L206.525 181.112L207.561 181.613L210.027 186.83L209.648 187.716L204.339 189.157L203.303 188.656L200.836 183.439L201.216 182.553ZM194.086 184.489L199.395 183.048L200.431 183.55L202.897 188.766L202.518 189.652L197.209 191.093L196.173 190.592L193.706 185.375L194.086 184.489ZM186.956 186.425L192.265 184.984L193.301 185.486L195.768 190.702L195.388 191.588L190.079 193.03L189.043 192.528L186.577 187.311L186.956 186.425ZM179.826 188.361L185.135 186.92L186.171 187.422L188.638 192.638L188.258 193.524L182.949 194.966L181.914 194.464L179.447 189.248L179.826 188.361ZM172.696 190.298L178.006 188.856L179.041 189.358L181.508 194.574L181.129 195.461L175.819 196.902L174.784 196.4L172.317 191.184L172.696 190.298ZM165.566 192.234L170.876 190.792L171.911 191.294L174.378 196.511L173.999 197.397L168.689 198.838L167.654 198.336L165.187 193.12L165.566 192.234Z" fill="#1C75BC"/>
<path opacity="0.2" d="M243.992 72.1938L119.579 105.997L290.075 169.572L243.992 72.1938Z" fill="white"/>
<path d="M289.188 172.937L164.726 206.917L165.662 203.376L290.075 169.573L289.188 172.937Z" fill="#9FA8B6"/>
</svg>
