<svg width="46" height="46" viewBox="0 0 46 46" fill="none" xmlns="http://www.w3.org/2000/svg">
<path d="M32.5837 22.9999C37.8764 22.9999 42.167 18.7093 42.167 13.4166C42.167 8.12386 37.8764 3.83325 32.5837 3.83325C27.2909 3.83325 23.0003 8.12386 23.0003 13.4166C23.0003 14.9496 23.3603 16.3986 24.0003 17.6835C24.1704 18.025 24.227 18.4153 24.1284 18.7838L23.5576 20.9171C23.3098 21.8432 24.157 22.6904 25.0831 22.4426L27.2164 21.8718C27.5849 21.7732 27.9752 21.8299 28.3167 21.9999C29.6017 22.64 31.0506 22.9999 32.5837 22.9999Z" fill="#1C274C"/>
<path opacity="0.5" d="M15.4051 14.0227L16.649 16.2516C17.7716 18.2631 17.3209 20.9019 15.5529 22.67C15.5529 22.67 15.5529 22.67 15.5529 22.67C15.5527 22.6701 13.4084 24.8147 17.2967 28.703C21.1843 32.5906 23.3289 30.4476 23.3297 30.4468C23.3297 30.4468 23.3297 30.4468 23.3298 30.4468C25.0978 28.6787 27.7366 28.2281 29.7481 29.3507L31.977 30.5946C35.0144 32.2897 35.3731 36.5494 32.7033 39.2192C31.0991 40.8235 29.1338 42.0717 26.9613 42.1541C23.304 42.2928 17.093 41.3672 10.8628 35.1369C4.6325 28.9066 3.70692 22.6957 3.84557 19.0384C3.92792 16.8659 5.17621 14.9006 6.78047 13.2964C9.45029 10.6265 13.7099 10.9853 15.4051 14.0227Z" fill="#1C274C"/>
</svg>
