<svg width="50" height="50" viewBox="0 0 50 50" fill="none" xmlns="http://www.w3.org/2000/svg">
<path opacity="0.5" d="M12.9627 9.58547C13.8888 8.96662 14.8613 8.42988 15.869 7.97862C18.727 6.69868 20.1561 6.0587 22.0572 7.29038C23.9583 8.52206 23.9583 10.5425 23.9583 14.5833V17.7083C23.9583 21.6367 23.9583 23.6009 25.1787 24.8212C26.3991 26.0416 28.3633 26.0416 32.2917 26.0416H35.4167C39.4575 26.0416 41.4779 26.0416 42.7096 27.9428C43.9413 29.8439 43.3013 31.2729 42.0213 34.131C41.5701 35.1386 41.0333 36.1111 40.4145 37.0373C38.2398 40.292 35.1487 42.8288 31.5323 44.3267C27.9158 45.8247 23.9364 46.2167 20.0972 45.453C16.258 44.6893 12.7314 42.8044 9.96351 40.0365C7.1956 37.2685 5.31062 33.742 4.54696 29.9028C3.78329 26.0636 4.17523 22.0841 5.67322 18.4677C7.1712 14.8512 9.70795 11.7602 12.9627 9.58547Z" fill="#1C274C"/>
<path d="M44.6792 14.727C42.988 10.4339 39.5661 7.01198 35.2729 5.32071C32.0614 4.05552 29.1667 6.96484 29.1667 10.4166V18.75C29.1667 19.9005 30.0994 20.8333 31.25 20.8333H39.5833C43.0351 20.8333 45.9444 17.9386 44.6792 14.727Z" fill="#1C274C"/>
</svg>
