<svg width="50" height="50" viewBox="0 0 50 50" fill="none" xmlns="http://www.w3.org/2000/svg">
<path opacity="0.5" d="M6.25 27.1601C6.25 24.8622 6.25 23.7132 7.068 23.0431C7.35842 22.8052 7.7114 22.6147 8.10478 22.4837C9.21276 22.1148 10.6689 22.4781 13.5813 23.2048C15.8047 23.7595 16.9164 24.0369 18.0398 24.0082C18.4524 23.9977 18.8625 23.9565 19.2643 23.8855C20.3581 23.6919 21.3332 23.2053 23.2833 22.2322L26.1632 20.795C28.6612 19.5485 29.9102 18.9252 31.3439 18.7815C32.7776 18.6378 34.2017 18.9931 37.0498 19.7037L39.4764 20.3092C41.539 20.8238 42.5703 21.0811 43.1601 21.6938C43.75 22.3064 43.75 23.1201 43.75 24.7475V37.4233C43.75 39.7212 43.75 40.8701 42.932 41.5403C42.6416 41.7782 42.2886 41.9686 41.8952 42.0996C40.7872 42.4686 39.3311 42.1052 36.4187 41.3786C34.1953 40.8238 33.0836 40.5464 31.9602 40.5751C31.5476 40.5857 31.1375 40.6268 30.7357 40.6979C29.6419 40.8914 28.6668 41.378 26.7167 42.3511L23.8368 43.7883C21.3388 45.0349 20.0898 45.6581 18.6561 45.8019C17.2224 45.9456 15.7983 45.5902 12.9502 44.8796L10.5236 44.2741C8.46102 43.7595 7.42974 43.5022 6.83987 42.8896C6.25 42.277 6.25 41.4633 6.25 39.8359V27.1601Z" fill="#1C274C"/>
<path fill-rule="evenodd" clip-rule="evenodd" d="M25 4.16663C18.0964 4.16663 12.5 9.48353 12.5 16.0423C12.5 22.5496 16.4896 30.1431 22.7142 32.8585C24.1652 33.4915 25.8348 33.4915 27.2858 32.8585C33.5104 30.1431 37.5 22.5496 37.5 16.0423C37.5 9.48353 31.9036 4.16663 25 4.16663ZM25 20.8333C27.3012 20.8333 29.1667 18.9678 29.1667 16.6666C29.1667 14.3654 27.3012 12.5 25 12.5C22.6988 12.5 20.8333 14.3654 20.8333 16.6666C20.8333 18.9678 22.6988 20.8333 25 20.8333Z" fill="#1C274C"/>
</svg>
