<?xml version="1.0" encoding="UTF-8"?>
<!DOCTYPE svg PUBLIC "-//W3C//DTD SVG 1.1//EN" "http://www.w3.org/Graphics/SVG/1.1/DTD/svg11.dtd">
<svg xmlns="http://www.w3.org/2000/svg" version="1.1" width="512px" height="512px" style="shape-rendering:geometricPrecision; text-rendering:geometricPrecision; image-rendering:optimizeQuality; fill-rule:evenodd; clip-rule:evenodd" xmlns:xlink="http://www.w3.org/1999/xlink">
<g><path style="opacity:0.934" fill="#000000" d="M 511.5,211.5 C 511.5,214.167 511.5,216.833 511.5,219.5C 509.99,220.836 508.323,222.003 506.5,223C 444.168,223.5 381.834,223.667 319.5,223.5C 319.5,279.833 319.5,336.167 319.5,392.5C 323.159,393.315 325.826,395.481 327.5,399C 345.249,411.939 361.249,409.939 375.5,393C 378.463,391.15 381.463,391.15 384.5,393C 402.124,412.328 419.791,412.328 437.5,393C 440.463,391.15 443.463,391.15 446.5,393C 464.124,412.328 481.791,412.328 499.5,393C 504.067,391.02 508.067,391.854 511.5,395.5C 511.5,398.167 511.5,400.833 511.5,403.5C 496.525,422.432 477.525,427.932 454.5,420C 449.786,417.949 445.619,415.115 442,411.5C 427.273,424.081 410.773,426.915 392.5,420C 387.786,417.949 383.619,415.115 380,411.5C 366.053,423.608 350.22,426.774 332.5,421C 327.239,418.79 322.406,415.957 318,412.5C 297.108,427.154 276.274,427.154 255.5,412.5C 234.726,427.154 213.892,427.154 193,412.5C 179.067,423.552 163.567,426.386 146.5,421C 140.781,418.725 135.615,415.558 131,411.5C 118.413,422.605 103.913,426.105 87.5,422C 80.3456,420.166 74.179,416.666 69,411.5C 57.7357,421.585 44.5691,425.419 29.5,423C 16.9829,420.249 6.98293,413.749 -0.5,403.5C -0.5,400.833 -0.5,398.167 -0.5,395.5C 2.93305,391.854 6.93305,391.02 11.5,393C 29.2093,412.328 46.876,412.328 64.5,393C 67.5368,391.15 70.5368,391.15 73.5,393C 91.2093,412.328 108.876,412.328 126.5,393C 129.537,391.15 132.537,391.15 135.5,393C 149.3,409.709 164.967,411.876 182.5,399.5C 183.333,320.835 183.833,242.169 184,163.5C 188.391,142.113 200.891,127.946 221.5,121C 234.653,118.062 247.319,119.396 259.5,125C 265.687,132.399 264.187,137.566 255,140.5C 236.033,131.16 219.7,134.493 206,150.5C 203.023,155.095 201.023,160.095 200,165.5C 199.5,179.496 199.333,193.496 199.5,207.5C 223.5,207.5 247.5,207.5 271.5,207.5C 271.104,190.129 271.604,172.795 273,155.5C 275.023,144.424 279.19,134.257 285.5,125C 264.033,104.051 239.033,98.3844 210.5,108C 187.085,118.422 172.918,136.255 168,161.5C 167.667,236.5 167.333,311.5 167,386.5C 164.459,391.069 160.625,392.569 155.5,391C 154.333,389.833 153.167,388.667 152,387.5C 151.5,332.834 151.333,278.168 151.5,223.5C 102.499,223.667 53.4989,223.5 4.5,223C 2.67694,222.003 1.01027,220.836 -0.5,219.5C -0.5,216.833 -0.5,214.167 -0.5,211.5C 0.639972,210.199 1.97331,209.032 3.5,208C 52.8322,207.5 102.166,207.333 151.5,207.5C 151.086,189.791 151.586,172.125 153,154.5C 161.385,119.781 182.885,97.9477 217.5,89C 247.316,83.6652 273.316,91.1652 295.5,111.5C 326.43,84.62 360.43,80.12 397.5,98C 420.826,112.01 434.659,132.51 439,159.5C 439.5,175.497 439.667,191.497 439.5,207.5C 462.169,207.333 484.836,207.5 507.5,208C 509.027,209.032 510.36,210.199 511.5,211.5 Z M 345.5,103.5 C 386.803,101.654 412.636,120.654 423,160.5C 423.5,176.163 423.667,191.83 423.5,207.5C 418.167,207.5 412.833,207.5 407.5,207.5C 407.925,190.785 407.425,174.118 406,157.5C 396.053,129.588 376.22,117.088 346.5,120C 322.804,125.696 308.638,140.53 304,164.5C 303.667,243.833 303.333,323.167 303,402.5C 298.36,405.785 293.193,407.452 287.5,407.5C 287.016,324.136 287.516,240.802 289,157.5C 296.805,127.866 315.638,109.866 345.5,103.5 Z M 348.5,135.5 C 370.522,133.911 384.689,143.578 391,164.5C 391.5,178.829 391.667,193.163 391.5,207.5C 367.5,207.5 343.5,207.5 319.5,207.5C 319.333,193.829 319.5,180.163 320,166.5C 323.469,150.535 332.969,140.201 348.5,135.5 Z M 199.5,223.5 C 223.5,223.5 247.5,223.5 271.5,223.5C 271.5,234.167 271.5,244.833 271.5,255.5C 247.5,255.5 223.5,255.5 199.5,255.5C 199.5,244.833 199.5,234.167 199.5,223.5 Z M 199.5,271.5 C 223.5,271.5 247.5,271.5 271.5,271.5C 271.5,282.167 271.5,292.833 271.5,303.5C 247.5,303.5 223.5,303.5 199.5,303.5C 199.5,292.833 199.5,282.167 199.5,271.5 Z M 199.5,319.5 C 223.5,319.5 247.5,319.5 271.5,319.5C 271.5,330.167 271.5,340.833 271.5,351.5C 247.5,351.5 223.5,351.5 199.5,351.5C 199.5,340.833 199.5,330.167 199.5,319.5 Z M 199.5,367.5 C 223.5,367.5 247.5,367.5 271.5,367.5C 271.667,379.505 271.5,391.505 271,403.5C 267.167,401 264,397.833 261.5,394C 257.5,390.667 253.5,390.667 249.5,394C 240.69,406.124 229.023,410.124 214.5,406C 209.387,403.694 204.887,400.528 201,396.5C 199.552,386.939 199.052,377.273 199.5,367.5 Z"/></g>
</svg>
