<?xml version="1.0" encoding="UTF-8"?>
<svg version="1.1" xmlns="http://www.w3.org/2000/svg" width="512" height="512">
<path d="M0 0 C2.02711487 -0.00543213 4.05422578 -0.01256086 6.08132935 -0.02124023 C11.54418398 -0.03934681 17.00673364 -0.03245873 22.46959305 -0.01972389 C28.21207698 -0.00953016 33.95453643 -0.01900715 39.69702148 -0.02526855 C49.33679853 -0.0325265 58.97645261 -0.02300601 68.61621094 -0.00390625 C79.72883809 0.01785882 90.84117158 0.01080614 101.95379162 -0.01121187 C111.5296462 -0.02941879 121.10541287 -0.03189839 130.68127918 -0.0214572 C136.38529581 -0.0152513 142.08917483 -0.01430616 147.79318237 -0.02760315 C153.15815717 -0.03923833 158.52275682 -0.03099698 163.8876915 -0.00802612 C165.8454921 -0.00277974 167.80332479 -0.0041821 169.76111221 -0.01307678 C184.2486648 -0.07278116 197.52212564 1.29595983 210.62890625 8.08007812 C211.28761719 8.41595947 211.94632812 8.75184082 212.625 9.09790039 C219.59743396 12.84676598 224.97843127 17.8583286 230.44140625 23.51757812 C231.17875 24.22398438 231.91609375 24.93039063 232.67578125 25.65820312 C236.97626695 30.02536302 239.91117868 34.79296225 242.69140625 40.20507812 C243.16755371 41.12099731 243.16755371 41.12099731 243.65332031 42.05541992 C249.43593959 53.9566098 251.02954801 65.48286224 250.83203125 78.54101562 C250.82454592 80.02315497 250.81886387 81.50530439 250.81488037 82.98745728 C250.79980374 86.83777503 250.76068434 90.6874631 250.71606445 94.53753662 C250.67471699 98.48652637 250.65678622 102.43562056 250.63671875 106.38476562 C250.59416656 114.09598632 250.52614231 121.80669311 250.44140625 129.51757812 C251.1864743 129.5097229 251.93154236 129.50186768 252.69918823 129.49377441 C256.11063705 129.46238346 259.52205533 129.44301332 262.93359375 129.42382812 C264.69159302 129.40497559 264.69159302 129.40497559 266.48510742 129.38574219 C284.77609081 129.30864637 302.17819367 135.52062078 315.41772461 148.39013672 C316.77155586 149.75354972 318.10695928 151.13518695 319.44140625 152.51757812 C320.17875 153.22398437 320.91609375 153.93039063 321.67578125 154.65820312 C325.97626695 159.02536302 328.91117868 163.79296225 331.69140625 169.20507812 C332.16755371 170.12099731 332.16755371 170.12099731 332.65332031 171.05541992 C338.15011982 182.36836507 340.03780145 193.7006125 339.95898438 206.17944336 C339.96442273 207.58573118 339.97155487 208.9920133 339.98022461 210.39828491 C339.99825961 214.1732817 339.99147343 217.9478349 339.97870827 221.72283816 C339.96847441 225.70228562 339.97800259 229.68169888 339.98425293 233.66114807 C339.99150031 240.34098014 339.9820195 247.02063447 339.96289062 253.70043945 C339.94113636 261.38498585 339.94817437 269.06910736 339.97019625 276.75364345 C339.9884445 283.39108449 339.99086262 290.02839884 339.98044157 296.6658569 C339.97425688 300.61268595 339.97323009 304.55931642 339.98658752 308.50613213 C339.99828365 312.22057371 339.98987463 315.93447655 339.9670105 319.64886093 C339.95934026 321.63420149 339.9709613 323.61958852 339.98352051 325.60490417 C339.87374168 337.4831694 337.37550201 349.08576526 331.87890625 359.70507812 C331.5430249 360.36378906 331.20714355 361.0225 330.86108398 361.70117188 C327.11221839 368.67360583 322.10065578 374.05460315 316.44140625 379.51757812 C315.735 380.25492187 315.02859375 380.99226563 314.30078125 381.75195312 C301.74332172 394.11769571 283.72023803 399.7220595 266.48510742 399.64941406 C265.31310791 399.6368457 264.1411084 399.62427734 262.93359375 399.61132812 C261.73017334 399.60456055 260.52675293 399.59779297 259.28686523 399.59082031 C256.3382608 399.57326039 253.3898939 399.54866392 250.44140625 399.51757812 C250.45250931 400.46590012 250.46361237 401.41422211 250.47505188 402.39128113 C250.57691772 411.37868789 250.65160464 420.36597577 250.70046711 429.35383129 C250.7264335 433.97335779 250.76159088 438.59241399 250.81860352 443.21166992 C250.87339059 447.679152 250.90292392 452.14618503 250.91579247 456.61397743 C250.92494938 458.30865855 250.94282812 460.0033183 250.97005653 461.6978054 C251.21421872 477.53922276 248.01417795 489.40116753 236.859375 501.18945312 C229.9925941 507.67196161 220.39407989 512.62659338 210.86254215 512.65459251 C209.94297861 512.65966706 209.02341507 512.6647416 208.07598597 512.66996992 C206.56594883 512.67071655 206.56594883 512.67071655 205.02540588 512.67147827 C203.95310272 512.67586053 202.88079955 512.68024278 201.77600235 512.68475783 C198.17040931 512.69814917 194.56484071 512.70432553 190.95922852 512.71044922 C188.37877797 512.71835005 185.79832853 512.72661898 183.21788025 512.73522949 C175.46414119 512.75973634 167.71039576 512.77437973 159.9566299 512.78728956 C157.76510866 512.79100326 155.57358805 512.79497636 153.38206744 512.79904222 C139.76220535 512.82428457 126.14234221 512.84632968 112.52246189 512.85877037 C109.36857156 512.8616999 106.21468127 512.86466158 103.06079102 512.86767578 C101.88501563 512.86879486 101.88501563 512.86879486 100.6854872 512.86993654 C88.00066368 512.88257766 75.31598073 512.91578464 62.63122285 512.95747761 C49.59633949 512.99996864 36.56152792 513.0234738 23.52657551 513.02869093 C16.2127409 513.03209734 8.8991258 513.04376076 1.58535957 513.07679367 C-5.30033206 513.10784271 -12.18563624 513.1131709 -19.07138634 513.10140991 C-21.59282099 513.10118952 -24.11427357 513.10946623 -26.63564682 513.12706375 C-45.08011887 513.24874145 -58.29686672 512.12038057 -72.23046875 498.93554688 C-79.88279073 490.82960787 -83.72727112 480.87114885 -83.67211914 469.90332031 C-83.67226517 469.1419577 -83.67241119 468.38059509 -83.67256165 467.59616089 C-83.6718663 465.08556241 -83.66409162 462.5750386 -83.65625 460.06445312 C-83.65438448 458.3213912 -83.65296121 456.57832875 -83.65196228 454.83526611 C-83.64814769 450.25185697 -83.63832642 445.66847961 -83.6272583 441.08508301 C-83.61702145 436.40633575 -83.61245979 431.72758335 -83.60742188 427.04882812 C-83.59670321 417.87173084 -83.57963947 408.69465713 -83.55859375 399.51757812 C-84.3036618 399.52543335 -85.04872986 399.53328857 -85.81637573 399.54138184 C-89.22782455 399.57277279 -92.63924283 399.59214293 -96.05078125 399.61132812 C-97.80878052 399.63018066 -97.80878052 399.63018066 -99.60229492 399.64941406 C-117.89327831 399.72650988 -135.29538117 393.51453547 -148.53491211 380.64501953 C-149.88874336 379.28160653 -151.22414678 377.8999693 -152.55859375 376.51757812 C-153.2959375 375.81117188 -154.03328125 375.10476563 -154.79296875 374.37695312 C-159.09345445 370.00979323 -162.02836618 365.242194 -164.80859375 359.83007812 C-165.12602539 359.21946533 -165.44345703 358.60885254 -165.77050781 357.97973633 C-171.28641615 346.62746336 -173.15458644 335.26892152 -173.07617188 322.74804688 C-173.08160999 321.3302845 -173.088742 319.91252779 -173.09741211 318.49478149 C-173.11544831 314.6888623 -173.10866086 310.88338304 -173.09589577 307.07745743 C-173.08566457 303.06684562 -173.09518919 299.05626782 -173.10144043 295.0456543 C-173.10868772 288.31454813 -173.09920635 281.58361836 -173.08007812 274.85253906 C-173.05831494 267.1054899 -173.06536839 259.35886205 -173.08738375 251.61182308 C-173.10562153 244.9225937 -173.10805542 238.23349006 -173.09762907 231.54424381 C-173.09143987 227.56558912 -173.09043064 223.58713149 -173.10377502 219.60848999 C-173.11545601 215.86532558 -173.10708867 212.12269654 -173.084198 208.37958908 C-173.07651346 206.3761643 -173.0881613 204.37269344 -173.10070801 202.36929321 C-172.99385408 190.74081932 -170.29240184 179.77015833 -164.99609375 169.39257812 C-164.6602124 168.72935547 -164.32433105 168.06613281 -163.97827148 167.3828125 C-160.23692819 160.37717036 -155.23592926 154.99801182 -149.55859375 149.51757812 C-148.8521875 148.78023437 -148.14578125 148.04289063 -147.41796875 147.28320312 C-134.86050922 134.91746054 -116.83742553 129.31309675 -99.60229492 129.38574219 C-98.43029541 129.39831055 -97.2582959 129.41087891 -96.05078125 129.42382812 C-94.84736084 129.4305957 -93.64394043 129.43736328 -92.40405273 129.44433594 C-89.4554483 129.46189586 -86.5070814 129.48649233 -83.55859375 129.51757812 C-83.5674762 128.70928558 -83.57635864 127.90099304 -83.58551025 127.06820679 C-83.66619418 119.39077399 -83.72682818 111.71355139 -83.76584244 104.03580284 C-83.78657548 100.09008842 -83.81462562 96.14472896 -83.86035156 92.19921875 C-83.90432727 88.38012918 -83.92783773 84.56137752 -83.93810272 80.74205399 C-83.94540266 79.29662391 -83.95965272 77.85120894 -83.98151398 76.40592575 C-84.16798388 63.54784592 -81.8841641 51.92965664 -75.99609375 40.39257812 C-75.6602124 39.72935547 -75.32433105 39.06613281 -74.97827148 38.3828125 C-71.23692819 31.37717036 -66.23592926 25.99801182 -60.55859375 20.51757812 C-59.8521875 19.78023437 -59.14578125 19.04289062 -58.41796875 18.28320312 C-54.07030514 14.00191606 -49.315187 11.05078071 -43.93359375 8.26757812 C-43.33135986 7.95014648 -42.72912598 7.63271484 -42.10864258 7.30566406 C-28.42434011 0.62251005 -14.91252274 -0.06775104 0 0 Z M-43.55859375 47.51757812 C-60.75942927 70.6459743 -53.55859375 103.21656993 -53.55859375 129.51757812 C36.86140625 129.51757812 127.28140625 129.51757812 220.44140625 129.51757812 C224.3768762 82.38922419 224.3768762 82.38922419 205.86328125 42.70898438 C191.94094307 30.11151386 175.43293745 30.36640646 157.73535156 30.37231445 C155.94233124 30.36931877 154.14931157 30.36591529 152.35629272 30.36213684 C147.50486439 30.35333412 142.65345372 30.35096029 137.80201817 30.35032105 C134.76541779 30.34960841 131.72882186 30.34747003 128.6922226 30.34482384 C118.0825726 30.33558259 107.47293514 30.3314874 96.86328125 30.33227539 C86.99936273 30.33287578 77.13549896 30.32232839 67.27159429 30.30653173 C58.78125607 30.29342303 50.29093567 30.28809289 41.80058742 30.2887308 C36.73932514 30.28898482 31.67811156 30.286187 26.61685944 30.27555275 C21.85288632 30.26581563 17.08900789 30.26583079 12.32503128 30.27306938 C10.58569575 30.27410829 8.84635415 30.27179401 7.10702896 30.26570892 C-12.68714927 30.20099381 -29.48949136 31.96883751 -43.55859375 47.51757812 Z M-132.55859375 176.51757812 C-141.66126616 188.75711227 -142.71013074 201.54653647 -142.70385742 216.34863281 C-142.70721603 217.49949371 -142.71057465 218.65035461 -142.71403503 219.83609009 C-142.72349234 223.62055558 -142.72548554 227.40497657 -142.7265625 231.18945312 C-142.72896486 233.1661738 -142.73136922 235.14289449 -142.73402292 237.11961484 C-142.7421396 243.33039753 -142.74460973 249.54116574 -142.74389648 255.75195312 C-142.74329657 262.12586346 -142.75383761 268.49968894 -142.76964015 274.87357783 C-142.78278476 280.3745579 -142.78807749 285.87551047 -142.78744107 291.37650609 C-142.78718808 294.64926004 -142.79087176 297.92192228 -142.80061913 301.194664 C-142.81049437 304.85282797 -142.80751129 308.51077736 -142.80151367 312.16894531 C-142.80713318 313.23015594 -142.81275269 314.29136658 -142.81854248 315.38473511 C-142.75036816 331.87473567 -139.62650314 345.15254868 -127.98046875 357.32617188 C-114.79245688 369.25919552 -100.69303063 369.51757812 -83.55859375 369.51757812 C-83.55859375 353.01757812 -83.55859375 336.51757812 -83.55859375 319.51757812 C-88.50859375 319.18757812 -93.45859375 318.85757813 -98.55859375 318.51757812 C-104.58249813 314.9032355 -104.58249813 314.9032355 -106.55859375 310.51757812 C-106.95703125 307.58007812 -106.95703125 307.58007812 -106.93359375 304.51757812 C-106.94519531 303.00164062 -106.94519531 303.00164062 -106.95703125 301.45507812 C-106.49285316 298.03290243 -105.66791925 296.24404253 -103.55859375 293.51757812 C-99.70828911 290.70493209 -97.00337972 290.14214723 -92.27259827 290.1400547 C-90.99777053 290.13223146 -89.72294279 290.12440822 -88.40948391 290.11634791 C-86.9970277 290.12283391 -85.58457278 290.12960387 -84.17211914 290.1366272 C-82.66993653 290.13317073 -81.16775646 290.12840623 -79.6655817 290.12244546 C-75.53628975 290.10990427 -71.40720539 290.11611998 -67.27791262 290.12540412 C-62.82522444 290.13218152 -58.37257239 290.12171989 -53.91989136 290.11346436 C-45.19653538 290.10011083 -36.47325675 290.10301197 -27.74989772 290.11170228 C-20.66147523 290.11847205 -13.57307445 290.11939861 -6.48464966 290.11613083 C-5.47653923 290.11567113 -4.4684288 290.11521143 -3.42976958 290.1147378 C-1.38193789 290.11377864 0.66589378 290.112806 2.71372545 290.11182003 C21.92507347 290.10326139 41.13637857 290.1131077 60.34771955 290.12922113 C76.83893088 290.14262473 93.33007887 290.14029677 109.82128906 290.12646484 C128.96297658 290.1104174 148.10462647 290.10408541 167.24631977 290.11330163 C169.28670056 290.1142573 171.32708136 290.11520041 173.36746216 290.11613083 C174.3714198 290.11659366 175.37537743 290.11705648 176.40975803 290.11753333 C183.49126998 290.12012573 190.5727581 290.11574685 197.65426636 290.10869217 C206.28196446 290.10028625 214.90958066 290.10253816 223.53726935 290.1185344 C227.94089883 290.12642937 232.34439165 290.12948789 236.74802017 290.11958694 C240.77716566 290.11066484 244.80604748 290.11553167 248.83516896 290.1315196 C250.2947193 290.13487798 251.7542918 290.13314968 253.21382797 290.12589224 C255.19434031 290.11679772 257.17491483 290.12790098 259.15541077 290.1400547 C260.2565474 290.14054176 261.35768404 290.14102882 262.49218845 290.14153063 C265.85771405 290.57066051 267.71771839 291.52792521 270.44140625 293.51757812 C273.27619052 297.18175343 273.85152822 299.92830797 273.81640625 304.51757812 C273.82414062 305.52820313 273.831875 306.53882813 273.83984375 307.58007812 C273.37566566 311.00225382 272.55073175 312.79111372 270.44140625 315.51757812 C265.44140625 318.51757812 265.44140625 318.51757812 250.44140625 319.51757812 C250.44140625 336.01757812 250.44140625 352.51757812 250.44140625 369.51757812 C269.53271985 369.51757812 283.21176004 368.36929424 297.25 354.93945312 C308.35320704 342.66852913 309.59338664 328.53484143 309.58666992 312.68652344 C309.59002853 311.53566254 309.59338715 310.38480164 309.59684753 309.19906616 C309.60630484 305.41460067 309.60829804 301.63017968 309.609375 297.84570312 C309.61177736 295.86898245 309.61418172 293.89226176 309.61683542 291.91554141 C309.6249521 285.70475872 309.62742223 279.49399051 309.62670898 273.28320312 C309.62610907 266.90929279 309.63665011 260.53546731 309.65245265 254.16157842 C309.66559726 248.66059835 309.67088999 243.15964578 309.67025357 237.65865016 C309.67000058 234.38589621 309.67368426 231.11323397 309.68343163 227.84049225 C309.69330687 224.18232828 309.69032379 220.52437889 309.68432617 216.86621094 C309.68994568 215.80500031 309.69556519 214.74378967 309.70135498 213.65042114 C309.63318066 197.16042058 306.50931564 183.88260757 294.86328125 171.70898438 C281.73046336 159.82590238 266.55871054 159.36376635 249.70367432 159.38386536 C248.21199351 159.38199493 246.72031319 159.3796933 245.22863364 159.37700003 C241.14669041 159.37090432 237.06476773 159.37101299 232.98282099 159.37219441 C228.57368818 159.37239898 224.16456188 159.36687429 219.75543213 159.36213684 C211.12354372 159.35384201 202.49166215 159.35108253 193.85977009 159.35052446 C186.84112087 159.35004876 179.82247389 159.34799129 172.80382538 159.34482384 C152.89066591 159.33602053 132.97751182 159.33140397 113.0643504 159.33215431 C111.45516785 159.33221425 111.45516785 159.33221425 109.81347656 159.33227539 C108.73937356 159.33231627 107.66527057 159.33235715 106.55861899 159.33239927 C89.15360847 159.33280567 71.74861959 159.32323678 54.34361532 159.30913702 C36.45855982 159.29476306 18.57351486 159.2878674 0.68845344 159.2887308 C-9.34712911 159.28906241 -19.38268896 159.286331 -29.4182663 159.27555275 C-37.96290728 159.26643434 -46.50751529 159.26428352 -55.05215904 159.27106217 C-59.40817836 159.27432057 -63.76413445 159.27440868 -68.12014771 159.26570892 C-72.1149537 159.2578129 -76.10964667 159.25930681 -80.10445002 159.26799306 C-81.54249212 159.26952124 -82.98054279 159.26773786 -84.41857478 159.26213298 C-103.53536422 159.19261299 -119.20149216 161.75571897 -132.55859375 176.51757812 Z M-53.55859375 319.51757812 C-53.59984375 343.79320312 -53.64109375 368.06882812 -53.68359375 393.08007812 C-53.70180176 400.74299072 -53.72000977 408.40590332 -53.73876953 416.30102539 C-53.74545872 423.17461305 -53.74545872 423.17461305 -53.7494812 430.04820251 C-53.75134324 433.10792445 -53.75883325 436.16757686 -53.76974487 439.22727966 C-53.78349049 443.13356414 -53.78757096 447.03974792 -53.7847383 450.94605434 C-53.7853304 452.37750973 -53.78928004 453.80896873 -53.79702401 455.24040329 C-54.2419531 467.117968 -54.2419531 467.117968 -49.12109375 477.33007812 C-42.59192085 482.90376231 -36.94418843 482.66494937 -28.74124146 482.65129089 C-27.24766155 482.65468923 -27.24766155 482.65468923 -25.72390831 482.65815622 C-22.38379821 482.66449183 -19.04372873 482.66366713 -15.70361328 482.6628418 C-13.31032254 482.66583355 -10.91703229 482.66923611 -8.52374268 482.67301941 C-2.69537522 482.680943 3.13297988 482.68407398 8.96135245 482.68463179 C13.69944726 482.68510721 18.43753873 482.68716324 23.17563248 482.69033241 C36.61299072 482.69913717 50.05034097 482.70375204 63.48770212 482.70300194 C64.21186296 482.70296198 64.9360238 482.70292203 65.68212891 482.70288086 C66.40717523 482.70283998 67.13222155 482.7027991 67.87923898 482.70275698 C79.63035101 482.7023505 91.38143101 482.71192089 103.13253377 482.72601923 C115.2023906 482.74038559 127.27223181 482.74728927 139.3420974 482.74642545 C146.11685103 482.74609358 152.89157106 482.74883623 159.66631699 482.7596035 C166.03728989 482.76927447 172.40819179 482.76937049 178.77916718 482.76208687 C181.11766539 482.76103981 183.456168 482.76341108 185.79465866 482.76944733 C188.98655183 482.77715292 192.17819889 482.77253178 195.37008667 482.76481628 C196.75847301 482.77253163 196.75847301 482.77253163 198.17490757 482.78040284 C204.67997315 482.74564984 210.14709228 482.50598357 215.25390625 478.08007812 C219.97915075 472.54479171 220.56769723 468.41463936 220.56166077 461.2976532 C220.56303826 460.04807925 220.56441576 458.79850531 220.565835 457.51106548 C220.56228863 456.12871465 220.55865073 454.74636405 220.55493164 453.36401367 C220.55462518 451.88158324 220.55475902 450.39915266 220.5552969 448.9167223 C220.5555224 444.95144997 220.54973187 440.98620789 220.54268646 437.02094269 C220.53698618 433.29834397 220.53672305 429.57575257 220.53601074 425.85314941 C220.53076607 414.97045499 220.51680489 404.08776617 220.50390625 393.20507812 C220.48328125 368.88820313 220.46265625 344.57132812 220.44140625 319.51757812 C130.02140625 319.51757812 39.60140625 319.51757812 -53.55859375 319.51757812 Z " fill="#000000" transform="translate(172.55859375,-0.517578125)"/>
<path d="M0 0 C0.88842087 -0.00686325 1.77684174 -0.0137265 2.69218445 -0.02079773 C5.6231595 -0.0390693 8.55359946 -0.03522767 11.48461914 -0.02954102 C13.52576369 -0.03410267 15.56690671 -0.0394082 17.60804749 -0.04542542 C21.88426964 -0.05435725 26.16030504 -0.05193254 30.43652344 -0.04199219 C35.91213103 -0.03050312 41.38709367 -0.0507129 46.86261654 -0.07990932 C51.07743921 -0.09826965 55.29210729 -0.09797916 59.50695992 -0.0922718 C61.52554796 -0.09211857 63.54414648 -0.09816495 65.56269646 -0.11056328 C68.38725935 -0.12546793 71.21063024 -0.11479996 74.03515625 -0.09765625 C74.86599731 -0.10732422 75.69683838 -0.11699219 76.55285645 -0.12695312 C81.85871355 -0.0596368 84.86360929 0.9012414 89.08227539 4.40405273 C93.13857937 9.62665131 92.85625083 15.05745416 92.08227539 21.40405273 C89.90860275 25.99291719 87.63661924 28.25744288 83.08227539 30.40405273 C80.10820202 30.83907707 77.16620393 30.82432944 74.16455078 30.80810547 C72.83191948 30.81840034 72.83191948 30.81840034 71.47236633 30.8289032 C68.54139128 30.84717477 65.61095132 30.84333314 62.67993164 30.83764648 C60.63878709 30.84220814 58.59764408 30.84751367 56.5565033 30.85353088 C52.28028114 30.86246272 48.00424574 30.86003801 43.72802734 30.85009766 C38.25241975 30.83860859 32.77745711 30.85881837 27.30193424 30.88801479 C23.08711157 30.90637512 18.8724435 30.90608463 14.65759087 30.90037727 C12.63900282 30.90022404 10.6204043 30.90627042 8.60185432 30.91866875 C5.77729143 30.9335734 2.95392054 30.92290543 0.12939453 30.90576172 C-0.70144653 30.91542969 -1.5322876 30.92509766 -2.38830566 30.93505859 C-7.69416277 30.86774227 -10.6990585 29.90686407 -14.91772461 26.40405273 C-18.97402859 21.18145416 -18.69170005 15.75065131 -17.91772461 9.40405273 C-13.99002837 1.11224957 -8.42465459 -0.04553537 0 0 Z " fill="#000000" transform="translate(218.917724609375,416.595947265625)"/>
<path d="M0 0 C0.88842087 -0.00686325 1.77684174 -0.0137265 2.69218445 -0.02079773 C5.6231595 -0.0390693 8.55359946 -0.03522767 11.48461914 -0.02954102 C13.52576369 -0.03410267 15.56690671 -0.0394082 17.60804749 -0.04542542 C21.88426964 -0.05435725 26.16030504 -0.05193254 30.43652344 -0.04199219 C35.91213103 -0.03050312 41.38709367 -0.0507129 46.86261654 -0.07990932 C51.07743921 -0.09826965 55.29210729 -0.09797916 59.50695992 -0.0922718 C61.52554796 -0.09211857 63.54414648 -0.09816495 65.56269646 -0.11056328 C68.38725935 -0.12546793 71.21063024 -0.11479996 74.03515625 -0.09765625 C74.86599731 -0.10732422 75.69683838 -0.11699219 76.55285645 -0.12695312 C81.85871355 -0.0596368 84.86360929 0.9012414 89.08227539 4.40405273 C93.13857937 9.62665131 92.85625083 15.05745416 92.08227539 21.40405273 C89.90860275 25.99291719 87.63661924 28.25744288 83.08227539 30.40405273 C80.10820202 30.83907707 77.16620393 30.82432944 74.16455078 30.80810547 C72.83191948 30.81840034 72.83191948 30.81840034 71.47236633 30.8289032 C68.54139128 30.84717477 65.61095132 30.84333314 62.67993164 30.83764648 C60.63878709 30.84220814 58.59764408 30.84751367 56.5565033 30.85353088 C52.28028114 30.86246272 48.00424574 30.86003801 43.72802734 30.85009766 C38.25241975 30.83860859 32.77745711 30.85881837 27.30193424 30.88801479 C23.08711157 30.90637512 18.8724435 30.90608463 14.65759087 30.90037727 C12.63900282 30.90022404 10.6204043 30.90627042 8.60185432 30.91866875 C5.77729143 30.9335734 2.95392054 30.92290543 0.12939453 30.90576172 C-0.70144653 30.91542969 -1.5322876 30.92509766 -2.38830566 30.93505859 C-7.69416277 30.86774227 -10.6990585 29.90686407 -14.91772461 26.40405273 C-18.97402859 21.18145416 -18.69170005 15.75065131 -17.91772461 9.40405273 C-13.99002837 1.11224957 -8.42465459 -0.04553537 0 0 Z " fill="#000000" transform="translate(218.917724609375,352.595947265625)"/>
<path d="M0 0 C1.18150131 -0.01268417 2.36300262 -0.02536835 3.58030701 -0.03843689 C4.84810501 -0.03550125 6.11590302 -0.03256561 7.42211914 -0.02954102 C8.73257706 -0.03478287 10.04303497 -0.04002472 11.39320374 -0.04542542 C14.16295012 -0.05434309 16.93240797 -0.05194925 19.70214844 -0.04199219 C23.24079627 -0.0305067 26.77844555 -0.05071255 30.31696224 -0.07990932 C33.70623316 -0.1027339 37.0952733 -0.09580205 40.48461914 -0.09204102 C41.75039291 -0.10327499 43.01616669 -0.11450897 44.32029724 -0.12608337 C55.25761005 -0.03947375 55.25761005 -0.03947375 60.01977539 4.40405273 C64.07607937 9.62665131 63.79375083 15.05745416 63.01977539 21.40405273 C60.83418694 26.01807279 58.52530005 28.13759975 54.01977539 30.40405273 C51.18104553 30.79173279 51.18104553 30.79173279 48.03955078 30.80810547 C46.85804947 30.82078964 45.67654816 30.83347382 44.45924377 30.84654236 C43.19144577 30.84360672 41.92364777 30.84067108 40.61743164 30.83764648 C39.30697372 30.84288834 37.99651581 30.84813019 36.64634705 30.85353088 C33.87660066 30.86244856 31.10714281 30.86005471 28.33740234 30.85009766 C24.79875451 30.83861217 21.26110524 30.85881802 17.72258854 30.88801479 C14.33331762 30.91083937 10.94427748 30.90390752 7.55493164 30.90014648 C5.65627098 30.91699745 5.65627098 30.91699745 3.71925354 30.93418884 C-7.21805927 30.84757922 -7.21805927 30.84757922 -11.98022461 26.40405273 C-16.03652859 21.18145416 -15.75420005 15.75065131 -14.98022461 9.40405273 C-11.78705534 2.66291762 -7.35661448 0.03834082 0 0 Z " fill="#000000" transform="translate(79.980224609375,192.595947265625)"/>
</svg>
