<svg width="50" height="50" viewBox="0 0 50 50" fill="none" xmlns="http://www.w3.org/2000/svg">
<path opacity="0.5" d="M19.9841 6.66728C19.4768 7.09958 19.2231 7.31576 18.9522 7.49733C18.3312 7.91359 17.6337 8.20249 16.9002 8.3473C16.5802 8.41047 16.248 8.43699 15.5835 8.49001L15.5835 8.49001L15.5835 8.49001C13.9139 8.62324 13.0792 8.68986 12.3827 8.93585C10.7719 9.50482 9.50485 10.7719 8.93588 12.3827C8.68989 13.0791 8.62327 13.9139 8.49004 15.5834L8.49004 15.5835L8.49004 15.5835C8.43702 16.248 8.4105 16.5802 8.34733 16.9002C8.20252 17.6337 7.91362 18.3311 7.49736 18.9522C7.31578 19.2231 7.0996 19.4768 6.66726 19.9841L6.66722 19.9841C5.5809 21.2589 5.03771 21.8963 4.71919 22.5627C3.98248 24.104 3.98248 25.8959 4.71919 27.4372C5.03771 28.1036 5.58088 28.741 6.66721 30.0158L6.66722 30.0158L6.66731 30.0159C7.09957 30.5231 7.3158 30.7769 7.49736 31.0478C7.91362 31.6688 8.20252 32.3663 8.34733 33.0998C8.4105 33.4197 8.43702 33.752 8.49004 34.4165L8.49004 34.4165C8.62327 36.086 8.68989 36.9208 8.93588 37.6172C9.50485 39.2281 10.7719 40.4951 12.3827 41.0641C13.0792 41.3101 13.9139 41.3767 15.5835 41.5099C16.248 41.5629 16.5802 41.5895 16.9002 41.6526C17.6337 41.7974 18.3312 42.0863 18.9522 42.5026C19.2231 42.6842 19.4768 42.9003 19.9841 43.3326L19.9842 43.3327C21.2589 44.4191 21.8963 44.9622 22.5627 45.2808C24.1041 46.0175 25.8959 46.0175 27.4373 45.2808C28.1037 44.9622 28.7411 44.4191 30.0158 43.3327L30.0159 43.3327C30.5232 42.9003 30.7769 42.6842 31.0478 42.5026C31.6688 42.0863 32.3663 41.7974 33.0998 41.6526C33.4198 41.5895 33.752 41.5629 34.4165 41.5099C36.086 41.3767 36.9208 41.3101 37.6173 41.0641C39.2281 40.4951 40.4951 39.2281 41.0641 37.6172C41.3101 36.9208 41.3767 36.086 41.5099 34.4165C41.563 33.752 41.5895 33.4197 41.6527 33.0998C41.7975 32.3663 42.0864 31.6688 42.5026 31.0478C42.6842 30.7768 42.9004 30.5231 43.3328 30.0158C44.4191 28.741 44.9623 28.1036 45.2808 27.4372C46.0175 25.8959 46.0175 24.104 45.2808 22.5627C44.9623 21.8963 44.4191 21.2589 43.3328 19.9841L43.3327 19.984C42.9004 19.4767 42.6842 19.2231 42.5026 18.9522C42.0864 18.3311 41.7975 17.6337 41.6527 16.9002C41.5895 16.5802 41.563 16.2479 41.5099 15.5835C41.3767 13.9139 41.3101 13.0791 41.0641 12.3827C40.4951 10.7719 39.2281 9.50482 37.6173 8.93585C36.9208 8.68986 36.0861 8.62324 34.4165 8.49001L34.4165 8.49001C33.752 8.43699 33.4198 8.41047 33.0998 8.3473C32.3663 8.20249 31.6688 7.91359 31.0478 7.49733C30.7769 7.31574 30.5232 7.09956 30.0158 6.66719L30.0158 6.66718C28.7411 5.58085 28.1037 5.03768 27.4373 4.71916C25.8959 3.98245 24.1041 3.98245 22.5627 4.71916C21.8963 5.03768 21.2589 5.58086 19.9842 6.66719L19.9841 6.66728Z" fill="#1C274C"/>
<path d="M32.981 17.0209C33.6432 17.6831 33.6432 18.7566 32.981 19.4188L19.4167 32.9831C18.7545 33.6452 17.681 33.6452 17.0188 32.9831C16.3567 32.3209 16.3567 31.2474 17.0188 30.5852L30.5832 17.0209C31.2453 16.3588 32.3189 16.3588 32.981 17.0209Z" fill="#1C274C"/>
<path d="M32.9125 30.6538C32.9125 31.9024 31.9003 32.9145 30.6517 32.9145C29.4032 32.9145 28.391 31.9024 28.391 30.6538C28.391 29.4052 29.4032 28.3931 30.6517 28.3931C31.9003 28.3931 32.9125 29.4052 32.9125 30.6538Z" fill="#1C274C"/>
<path d="M19.3481 21.6109C20.5967 21.6109 21.6088 20.5988 21.6088 19.3502C21.6088 18.1016 20.5967 17.0895 19.3481 17.0895C18.0996 17.0895 17.0874 18.1016 17.0874 19.3502C17.0874 20.5988 18.0996 21.6109 19.3481 21.6109Z" fill="#1C274C"/>
</svg>
