<svg width="1195" height="877" viewBox="0 0 1195 877" fill="none" xmlns="http://www.w3.org/2000/svg">
<g opacity="0.13">
<path d="M422.193 0.22389C234.975 -8.44465 -239.068 235.824 173.684 521.222C377.537 662.176 292.877 993.286 694.937 767.96C856.112 677.634 1433.41 688.576 1084.57 526.131C734.07 362.915 1136.16 181.122 731.46 158.348C553.064 148.308 609.223 8.88448 422.193 0.22389Z" fill="#3871C1"/>
<path d="M422.193 0.22389C234.975 -8.44465 -239.068 235.824 173.684 521.222C377.537 662.176 292.877 993.286 694.937 767.96C856.112 677.634 1433.41 688.576 1084.57 526.131C734.07 362.915 1136.16 181.122 731.46 158.348C553.064 148.308 609.223 8.88448 422.193 0.22389Z" fill="#3871C1"/>
<path d="M422.193 0.22389C234.975 -8.44465 -239.068 235.824 173.684 521.222C377.537 662.176 292.877 993.286 694.937 767.96C856.112 677.634 1433.41 688.576 1084.57 526.131C734.07 362.915 1136.16 181.122 731.46 158.348C553.064 148.308 609.223 8.88448 422.193 0.22389Z" fill="#3871C1"/>
<path d="M422.193 0.22389C234.975 -8.44465 -239.068 235.824 173.684 521.222C377.537 662.176 292.877 993.286 694.937 767.96C856.112 677.634 1433.41 688.576 1084.57 526.131C734.07 362.915 1136.16 181.122 731.46 158.348C553.064 148.308 609.223 8.88448 422.193 0.22389Z" fill="#3871C1"/>
</g>
<g opacity="0.13">
<path d="M308.756 110.916C133.189 152.387 -238.543 495.511 221.363 642.256C448.505 714.733 537.04 1065.08 829.862 742.213C927.084 635.015 1338.07 650.667 1065.38 407.153C925.186 281.962 1075.01 48.881 675.742 140.733C508.113 179.299 484.144 69.4891 308.752 110.916H308.756Z" fill="#3871C1"/>
<path d="M308.756 110.916C133.189 152.387 -238.543 495.511 221.363 642.256C448.505 714.733 537.04 1065.08 829.862 742.213C927.084 635.015 1338.07 650.667 1065.38 407.153C925.186 281.962 1075.01 48.881 675.742 140.733C508.113 179.299 484.144 69.4891 308.752 110.916H308.756Z" fill="#3871C1"/>
<path d="M308.756 110.916C133.189 152.387 -238.543 495.511 221.363 642.256C448.505 714.733 537.04 1065.08 829.862 742.213C927.084 635.015 1338.07 650.667 1065.38 407.153C925.186 281.962 1075.01 48.881 675.742 140.733C508.113 179.299 484.144 69.4891 308.752 110.916H308.756Z" fill="#3871C1"/>
<path d="M308.756 110.916C133.189 152.387 -238.543 495.511 221.363 642.256C448.505 714.733 537.04 1065.08 829.862 742.213C927.084 635.015 1338.07 650.667 1065.38 407.153C925.186 281.962 1075.01 48.881 675.742 140.733C508.113 179.299 484.144 69.4891 308.752 110.916H308.756Z" fill="#3871C1"/>
</g>
</svg>
