<?xml version="1.0" encoding="UTF-8"?>
<svg id="a" data-name="Layer 1" xmlns="http://www.w3.org/2000/svg" xmlns:xlink="http://www.w3.org/1999/xlink" viewBox="0 0 1073.56 575.12">
  <defs>
    <clipPath id="c">
      <path d="M94.07,404.17c-.48,3.49-.58,6.09-6.93,6.39-7.45,.35-21.32-2.23-21.76-6.39,0,0,.72-30.12,9.32-50.91,8.61-20.8,7.86-62.37,8.59-70.27,.73-7.9,4.32-11.84,4.32-11.84l6.45,5.67s1.43,36.99,0,50.61c-1.43,13.62-4.66,27.4-5.74,42.56-.9,12.65,5.74,34.17,5.74,34.17h.01Z" fill="none"/>
    </clipPath>
  </defs>
  <g id="b" data-name="Layer 1">
    <g>
      <g>
        <path d="M130.83,407.59c0,7.79-19.19,14.11-42.87,14.11s-42.86-6.32-42.86-14.11,19.19-14.11,42.86-14.11,42.87,6.32,42.87,14.11Z" fill="#242b52" isolation="isolate" opacity=".2"/>
        <path d="M106.6,406.17c0,4.05-11.21,7.33-25.04,7.33s-25.03-3.28-25.03-7.33,11.21-7.33,25.03-7.33,25.04,3.28,25.04,7.33Z" fill="#242b52" isolation="isolate" opacity=".2"/>
      </g>
      <g>
        <path d="M94.07,404.17c-.48,3.49-.58,6.09-6.93,6.39-7.45,.35-21.32-2.23-21.76-6.39,0,0,.72-30.12,9.32-50.91,8.61-20.8,7.86-62.37,8.59-70.27,.73-7.9,4.32-11.84,4.32-11.84l6.45,5.67s1.43,36.99,0,50.61c-1.43,13.62-4.66,27.4-5.74,42.56-.9,12.65,5.74,34.17,5.74,34.17h.01Z" fill="#43596d"/>
        <g clip-path="url(#c)">
          <g>
            <path d="M85.9,412.22s-8.38-26.62-4.62-38.45c3.76-11.83,9.68-53.24,9.68-60.24s1.08-24.74-2.15-27.43-6.45,4.84-6.45,4.84c0,0-4.84-27.97-3.23-27.97s34.96,3.23,34.96,3.23l-14.52,125.85,.54,15.6-14.21,4.56h0Z" fill="#2f1d00" isolation="isolate" opacity=".2"/>
            <path d="M67.92,369.2s7.49-2.75,8.74-1,.25,2.25,2.75,6.24,10.98,3.74,11.73,3.25c.75-.5,9.49-.25,7.74-3s.75-25.96-3.74-26.46-23.97-2-23.97-1.25-3.25,22.22-3.25,22.22Z" fill="#2f1d00" isolation="isolate" opacity=".2"/>
            <path d="M71.45,411.56s-.7-14.56-.07-21.62,3.57-7.8,3.28-12.75c-.29-4.94-2.5-9.74-2.5-9.74,0,0-1.63,5.75-2.5,9.99-.86,4.24-1.11,11.44-1.4,16.03s0,15.88,0,15.88l3.18,2.21h.01Z" fill="#ffde96" isolation="isolate" opacity=".13"/>
          </g>
        </g>
      </g>
      <g>
        <path d="M147.17,339.9c6.59-4.89,10.89-12.73,10.89-21.6,0-9.67-5.1-18.12-12.72-22.85-.28-18.34-14.58-33.36-32.67-33.86-4.29-.12-8.41,.62-12.23,2.02-1.08-17.59-15.09-31.74-32.64-32.24-18.6-.52-34.09,14.49-34.63,33.53-.22,7.8,2.15,15.04,6.25,20.93-.02,.04-.04,.08-.05,.12-16.01,2.28-28.57,16.08-29.05,33.17-.07,2.6,.16,5.12,.62,7.57-3.37,5.24-2.87,12.36,1.66,17.22,2.42,2.6,5.56,4.09,8.79,4.47,1.59,13.29,12.82,23.59,26.45,23.59,12.15,0,22.38-8.18,25.6-19.36,5.72,1.89,12.24,1.32,17.84-2.06,5.73,5.38,13.3,8.77,21.71,9,5.77,.16,11.23-1.18,16.06-3.66,2.22,2.68,5.55,4.39,9.29,4.39,6.69,0,12.11-5.42,12.11-12.13,0-3.19-1.24-6.09-3.26-8.25h-.02Z" fill="#00c48b"/>
        <path d="M62.65,241.56c15.52-3.53,21.75-.45,31.78,4.5-5.9-8.63-15.56-14.39-26.64-14.7-18.6-.52-34.09,14.49-34.63,33.53-.22,7.8,2.15,15.04,6.25,20.93-.02,.04-.04,.08-.05,.12-16.01,2.28-28.57,16.08-29.05,33.17-.04,1.69,.05,3.36,.23,4.99,2.92-6.48,16.55-30.55,36.1-26.09,11.92,2.72,14.43,2.29,20.89-2.02,2.37-1.57,.09-2.48-9.77-5.55-21.41-6.67-24.44-42.23,4.89-48.89h0Z" fill="#f1f3be" isolation="isolate" opacity=".3"/>
        <path d="M86.2,270.01c-3.55,4.89,.51,5.2,10.01,2.66,5.5-1.47,16.01-3.84,25.44-3.1,3.46,.28,11.61,2.13,13.95,2.18-5.86-6.07-13.93-9.92-22.94-10.17-4.29-.12-8.41,.62-12.23,2.02,0,0-10.67,1.51-14.23,6.4h0Z" fill="#f1f3be" isolation="isolate" opacity=".3"/>
        <g opacity=".5">
          <path d="M158.06,318.3c0-9.67-5.1-18.12-12.72-22.85-.05-3.17-.54-6.24-1.38-9.15-1.67,2.76-4.31,5.58-8.42,6.82-9.34,2.82-3.56,7.7-3.56,7.7,0,0-5.69-13.76-26.12-1.44-8.62,5.21-11.79,12.87-22.63,10.32-12.91-3.04-14.92,3.01-15.24,9.04-.32,6.02,2.06,23.41-21.34,29.79-11.08,3.01-22.39-8.02-22.39-8.02,0,0-1.61,.61-7.83,.78-2.21,.06-4.11,.07-5.68,.07,.53,.9,1.12,1.76,1.86,2.55,2.42,2.6,5.56,4.09,8.79,4.47,1.59,13.29,12.82,23.59,26.45,23.59,12.15,0,22.38-8.18,25.6-19.36,5.72,1.89,12.24,1.32,17.84-2.06,5.73,5.38,13.3,8.77,21.71,9,5.77,.16,11.23-1.18,16.06-3.66,2.22,2.68,5.55,4.39,9.29,4.39,6.69,0,12.11-5.42,12.11-12.13,0-3.19-1.24-6.09-3.26-8.25,6.59-4.89,10.89-12.73,10.89-21.6h-.03Z" fill="#005a56" isolation="isolate" opacity=".71"/>
          <path d="M128.94,322.29c0,4.02-3.26,7.29-7.29,7.29s-7.3-3.27-7.3-7.29,3.27-7.3,7.3-7.3,7.29,3.26,7.29,7.3Z" fill="#005a56" isolation="isolate" opacity=".71"/>
          <path d="M114.09,329.57c0,2.55-2.07,4.63-4.62,4.63s-4.63-2.08-4.63-4.63,2.07-4.62,4.63-4.62,4.62,2.07,4.62,4.62Z" fill="#005a56" isolation="isolate" opacity=".71"/>
          <path d="M40.98,337.32c0,2.56-2.07,4.62-4.63,4.62s-4.63-2.07-4.63-4.62,2.07-4.62,4.63-4.62,4.63,2.07,4.63,4.62Z" fill="#005a56" isolation="isolate" opacity=".71"/>
          <path d="M126.28,310.53c0,1.88-1.52,3.4-3.4,3.4s-3.4-1.53-3.4-3.4,1.52-3.4,3.4-3.4,3.4,1.52,3.4,3.4Z" fill="#005a56" isolation="isolate" opacity=".71"/>
          <path d="M47.78,329.14c0,1.88-1.53,3.4-3.4,3.4s-3.4-1.52-3.4-3.4,1.52-3.4,3.4-3.4,3.4,1.52,3.4,3.4Z" fill="#005a56" isolation="isolate" opacity=".71"/>
        </g>
        <path d="M140.17,345.14c0,2.55-2.07,4.62-4.63,4.62s-4.63-2.07-4.63-4.62,2.07-4.63,4.63-4.63,4.63,2.07,4.63,4.63Z" fill="#87ad54"/>
        <path d="M144.42,337.69c0,1.65-1.33,2.97-2.97,2.97s-2.97-1.33-2.97-2.97,1.33-2.97,2.97-2.97,2.97,1.33,2.97,2.97Z" fill="#87ad54"/>
        <path d="M59.16,256.95c0,2.55-2.07,4.63-4.63,4.63s-4.62-2.07-4.62-4.63,2.07-4.62,4.62-4.62,4.63,2.07,4.63,4.62Z" fill="#f1f3be" isolation="isolate" opacity=".3"/>
        <path d="M46.82,307.14c0,4.17-3.38,7.54-7.55,7.54s-7.55-3.38-7.55-7.54,3.38-7.54,7.55-7.54,7.55,3.38,7.55,7.54Z" fill="#f1f3be" isolation="isolate" opacity=".3"/>
        <path d="M61.66,248.55c0,1.2-.97,2.17-2.17,2.17s-2.17-.97-2.17-2.17,.97-2.18,2.17-2.18,2.17,.97,2.17,2.18Z" fill="#f1f3be" isolation="isolate" opacity=".3"/>
        <path d="M85.58,277.74c0,1.2-.97,2.17-2.17,2.17s-2.18-.97-2.18-2.17,.98-2.18,2.18-2.18,2.17,.98,2.17,2.18Z" fill="#f1f3be" isolation="isolate" opacity=".3"/>
      </g>
      <g>
        <path d="M157.65,323.49c-3.63-1.43-7.61-.41-10.24,2.25-4.44-5.92-11.94-8.74-19.07-7.02,.92-3.82,.68-7.98-1-11.92-4.06-9.55-14.9-14.07-24.22-10.1-8.8,3.74-13.09,13.7-10.13,22.83-2.21,.05-4.45,.49-6.6,1.41-9.32,3.97-13.59,14.92-9.53,24.46,.83,1.96,1.96,3.69,3.29,5.19-.43,3.26-.04,6.69,1.35,9.97,4.06,9.54,14.91,14.07,24.23,10.1,2.93-1.25,5.35-3.19,7.18-5.56,.21,.1,.39,.21,.6,.29,5.92,2.32,12.61-.66,14.95-6.65,.46-1.17,.7-2.37,.77-3.55,3.57,.8,7.38,.54,10.97-.99,2.12-.9,3.96-2.17,5.51-3.7,.75,1.09,1.8,1.99,3.1,2.5,3.57,1.4,7.63-.42,9.06-4.07,.97-2.5,.48-5.2-1.07-7.1,2.69-.87,5-2.9,6.13-5.78,1.97-5.01-.4-10.63-5.29-12.56h0Z" fill="#00c48b"/>
        <path d="M113.01,305.1c.69,1.75-.17,3.73-1.93,4.42s-3.74-.18-4.43-1.93c-.69-1.76,.17-3.74,1.93-4.43,1.75-.69,3.73,.18,4.42,1.93h.01Z" fill="#f1f3be" isolation="isolate" opacity=".3"/>
        <path d="M104.97,306.53c.32,.83-.08,1.76-.9,2.08-.83,.32-1.76-.08-2.08-.91-.32-.82,.08-1.75,.91-2.08,.82-.32,1.75,.08,2.08,.91h-.01Z" fill="#f1f3be" isolation="isolate" opacity=".3"/>
        <path d="M153.07,326.43c.32,.83-.08,1.76-.91,2.08-.82,.32-1.76-.08-2.08-.91-.32-.83,.08-1.76,.91-2.08,.82-.32,1.76,.08,2.08,.91Z" fill="#f1f3be" isolation="isolate" opacity=".3"/>
        <g opacity=".5">
          <path d="M105.74,370.66c2.93-1.25,5.35-3.19,7.18-5.56,.21,.1,.39,.21,.6,.29,5.92,2.32,12.61-.66,14.95-6.65,.46-1.17,.7-2.37,.77-3.55,3.57,.8,7.38,.54,10.97-.99,2.12-.9,3.96-2.17,5.51-3.7,.75,1.09,1.8,1.99,3.1,2.5,3.57,1.4,7.63-.42,9.06-4.07,.97-2.5,.48-5.2-1.07-7.1,2.69-.87,5-2.9,6.13-5.78,1.69-4.3,.18-9.04-3.37-11.52-.05,3.13-.37,7.09-1.5,9.14-2.06,3.73-7.65-.63-11.94-2.46-4.3-1.84-4.41,2.08-7.84,5.92-3.42,3.85-9.15,1.61-16.43,2.1-7.28,.49-14.91,14.06-18.09,16.73-3.18,2.67-7.36,8.16-15.27,7.74-2.52-.13-4.63-.86-6.34-1.8,4.47,8.61,14.71,12.54,23.58,8.77h0Z" fill="#005a56" isolation="isolate" opacity=".71"/>
          <path d="M134.64,332.93c.79,2.02-.2,4.3-2.22,5.09s-4.3-.2-5.09-2.22c-.79-2.02,.2-4.3,2.22-5.09s4.3,.2,5.09,2.22Z" fill="#005a56" isolation="isolate" opacity=".71"/>
          <path d="M91.55,345.03c.67,1.7-.17,3.62-1.87,4.28-1.7,.67-3.61-.17-4.28-1.87-.67-1.7,.17-3.61,1.87-4.28,1.7-.67,3.61,.17,4.28,1.87Z" fill="#005a56" isolation="isolate" opacity=".71"/>
          <path d="M138.66,330.09c.36,.93-.09,1.97-1.02,2.33-.93,.36-1.97-.09-2.33-1.02-.36-.92,.09-1.97,1.02-2.34,.93-.36,1.97,.1,2.34,1.02h0Z" fill="#005a56" isolation="isolate" opacity=".71"/>
          <path d="M83.9,347.72c.36,.93-.09,1.97-1.02,2.33s-1.97-.09-2.34-1.02c-.36-.92,.09-1.97,1.02-2.33,.92-.36,1.97,.09,2.33,1.02h0Z" fill="#005a56" isolation="isolate" opacity=".71"/>
          <path d="M91.35,339.37c.37,.95-.09,2.01-1.04,2.39-.95,.37-2.02-.09-2.39-1.04s.09-2.01,1.04-2.39c.95-.37,2.01,.1,2.38,1.04h.01Z" fill="#005a56" isolation="isolate" opacity=".71"/>
        </g>
        <path d="M103.12,296.69c-8.8,3.74-13.08,13.7-10.13,22.83-2.22,.05-4.45,.5-6.6,1.41-6.48,2.76-10.51,8.89-11,15.58,5.22-8.39,17.33-11.34,23.4-12.31,.49-.08,.88-.46,.96-.95,.08-.49-.16-.98-.6-1.21l-2.52-1.33c-.78-.41-1.21-1.28-1.07-2.15,.84-5.12,5.1-21.59,24.85-20.15-4.99-3.34-11.44-4.2-17.29-1.71h0Z" fill="#f1f3be" isolation="isolate" opacity=".3"/>
        <path d="M128.35,318.65c-9.02,4.71-13.69,12.58-13.69,12.58,0,0,9.61-7.37,19.77-10.19,1.44-.4,3.89-.74,6.41-.81-3.81-1.93-8.23-2.55-12.51-1.52,0-.02,0-.04,0-.06h0Z" fill="#f1f3be" isolation="isolate" opacity=".3"/>
        <path d="M119.15,349.91c.69,1.75-.17,3.73-1.93,4.42-1.75,.69-3.74-.18-4.42-1.93-.69-1.75,.18-3.73,1.93-4.42,1.76-.69,3.73,.17,4.42,1.93Z" fill="#00c48b"/>
        <path d="M118.02,344.17c.32,.83-.08,1.76-.91,2.08-.83,.32-1.76-.08-2.08-.91-.32-.82,.09-1.75,.91-2.08,.83-.32,1.76,.08,2.08,.9h0Z" fill="#00c48b"/>
      </g>
    </g>
    <g>
      <g>
        <path d="M754.76,352.75s-1.93,4.82-10.6,10.6,.96,17.34,.96,17.34l42.4,20.24,29.87-1.93,52.03,15.42,53.96-25.05,23.13-17.34s-18.31-27.94-21.2-28.91c-2.89-.96-68.42-11.56-71.31-11.56s-33.73-9.64-33.73-9.64l-65.52,30.84h0Z" fill="#242b52" isolation="isolate" opacity=".2"/>
        <path d="M905.06,359.05s1.44,2.34,7.92,5.15-.72,8.42-.72,8.42l-31.69,9.82-22.33-.94-38.89,7.48-40.33-12.16-17.28-8.42s13.68-13.57,15.84-14.03c2.16-.47,51.13-5.61,53.29-5.61s25.21-4.68,25.21-4.68l48.97,14.97h.01Z" fill="#242b52" isolation="isolate" opacity=".2"/>
      </g>
      <path d="M847.99,376.16c-3.61,5.26-20.48,5.26-24.79,0l5.16-32.22h17.02l.2,14.21,2.41,18.01Z" fill="#43596d"/>
      <g>
        <polygon points="839.46 92.96 813.23 126.32 820.04 124.9 817.19 133.21 789.41 159.94 799.93 164.85 790.82 179.98 774.65 193.51 786.92 207.13 754.53 231.14 773.91 249.04 740.8 275.15 759.1 293.13 730.42 318.94 750.07 333.96 760.18 345.88 811.86 364.31 892.8 357.09 935.92 317.1 911.62 296.51 928.64 288.84 889.55 255.55 905.67 246.9 886.3 211.82 904.82 199.91 876.88 176.08 886.3 165.33 867.52 152.38 878.44 147.78 858.88 127.26 864.83 120.17 839.46 92.96" fill="#007874"/>
        <polygon points="811.86 364.31 892.8 357.09 935.92 317.1 911.62 296.51 928.64 288.84 889.55 255.55 905.67 246.9 886.3 211.82 899.64 201.87 876.88 176.08 880.45 169.65 867.52 152.38 878.44 147.78 858.88 127.26 864.83 120.17 841.33 95.89 843.57 117.11 831.66 124.01 849.52 130.95 847.82 153.15 828.54 159.28 849.52 179.21 834.63 207.95 876.18 233.93 868.15 242.06 834.98 252.29 858.77 284.33 883.55 300.79 826.31 336.85 759.12 345.59 760.18 345.88 811.86 364.31" fill="#005a56" isolation="isolate" opacity=".71"/>
        <g>
          <polygon points="773.91 249.04 740.8 275.15 834.98 252.29 794.05 248.6 773.91 249.04" fill="#f1f3be" isolation="isolate" opacity=".3"/>
          <polygon points="786.92 207.13 754.53 231.14 773.91 249.04 804.58 205.76 786.92 207.13" fill="#f1f3be" isolation="isolate" opacity=".3"/>
          <polygon points="774.65 193.51 780.31 197.22 821.72 169.65 798.7 168.69 790.82 179.98 774.65 193.51" fill="#f1f3be" isolation="isolate" opacity=".3"/>
          <polygon points="759.1 293.13 730.42 318.94 809.61 291.14 759.1 293.13" fill="#f1f3be" isolation="isolate" opacity=".3"/>
          <polygon points="817.83 131.33 817.19 133.21 789.41 159.94 794.04 159.97 829.81 131.33 817.83 131.33" fill="#f1f3be" isolation="isolate" opacity=".3"/>
          <polygon points="817.55 125.42 831.93 113.96 839.46 92.96 813.23 126.32 817.55 125.42" fill="#f1f3be" isolation="isolate" opacity=".3"/>
          <polygon points="799.94 200.79 809.22 193.63 809.22 199.82 799.94 200.79" fill="#f1f3be" isolation="isolate" opacity=".3"/>
          <polygon points="848.37 197.22 857.65 190.05 857.65 196.24 848.37 197.22" fill="#f1f3be" isolation="isolate" opacity=".3"/>
          <polygon points="823.61 150.93 823.61 157.41 828.43 154.16 823.61 150.93" fill="#f1f3be" isolation="isolate" opacity=".3"/>
          <polygon points="794.05 233.93 804.58 233.93 804.58 225.68 794.05 233.93" fill="#f1f3be" isolation="isolate" opacity=".3"/>
          <polygon points="845.67 123.42 856.2 123.42 856.2 115.16 845.67 123.42" fill="#f1f3be" isolation="isolate" opacity=".3"/>
          <polygon points="872.04 220.64 882.57 220.64 882.57 212.4 872.04 220.64" fill="#f1f3be" isolation="isolate" opacity=".3"/>
          <polygon points="794.66 284.68 784.31 275.64 779.27 282.29 794.66 284.68" fill="#f1f3be" isolation="isolate" opacity=".3"/>
          <polygon points="801.14 303.89 795.47 312.93 786.96 312.93 801.14 303.89" fill="#f1f3be" isolation="isolate" opacity=".3"/>
          <polygon points="818.41 157.59 812.87 162.35 808.05 157.59 818.41 157.59" fill="#f1f3be" isolation="isolate" opacity=".3"/>
          <polygon points="822.52 240.54 831.78 238.16 820.26 233.39 822.52 240.54" fill="#f1f3be" isolation="isolate" opacity=".3"/>
        </g>
        <g opacity=".82">
          <polygon points="913.04 288.14 902.83 288.14 913.04 294.39 913.04 288.14" fill="#005a56" isolation="isolate" opacity=".71"/>
          <polygon points="861.14 258.12 850.93 258.12 861.14 264.39 861.14 258.12" fill="#005a56" isolation="isolate" opacity=".71"/>
          <polygon points="882.41 314.31 872.21 314.31 882.41 320.57 882.41 314.31" fill="#005a56" isolation="isolate" opacity=".71"/>
          <polygon points="883.55 241.11 871.07 244.26 883.55 249.19 883.55 241.11" fill="#005a56" isolation="isolate" opacity=".71"/>
          <polygon points="847.25 207.95 858.77 211.12 849.52 216.52 847.25 207.95" fill="#005a56" isolation="isolate" opacity=".71"/>
          <polygon points="856.04 134.47 867.57 137.64 858.31 143.05 856.04 134.47" fill="#005a56" isolation="isolate" opacity=".71"/>
          <polygon points="867.86 182.95 861.8 182.95 867.86 188.76 867.86 182.95" fill="#005a56" isolation="isolate" opacity=".71"/>
        </g>
      </g>
    </g>
    <g>
      <polygon points="488.24 524.04 728.23 524.04 1073.56 431.5 846.26 370.66 488.24 370.66 488.24 524.04" fill="#242b52" isolation="isolate" opacity=".15"/>
      <polygon points="794.79 441.77 488.24 523.91 488.24 254.51 794.79 172.37 794.79 441.77" fill="#b4bdc5"/>
      <polygon points="181.69 441.77 488.24 523.91 488.24 254.51 181.69 172.37 181.69 441.77" fill="#e6e7e8"/>
      <g>
        <g>
          <g>
            <polygon points="375.73 489.07 294.19 467.23 294.19 273.04 375.73 294.89 375.73 489.07" fill="#566575"/>
            <polygon points="294.19 273.04 294.19 467.23 303.7 464.68 303.7 275.59 294.19 273.04" fill="#b4bdc5"/>
            <polygon points="375.73 489.07 294.19 467.23 303.7 464.68 375.73 483.98 375.73 489.07" fill="#e6e7e8"/>
          </g>
          <polygon points="368.95 475.23 310.69 459.62 310.69 281.42 368.95 297.03 368.95 475.23" fill="#00123e"/>
        </g>
        <g>
          <g>
            <polygon points="457.26 511.32 375.73 489.47 375.73 295.29 457.26 317.13 457.26 511.32" fill="#566575"/>
            <polygon points="375.73 295.29 375.73 489.47 385.24 486.92 385.24 297.84 375.73 295.29" fill="#b4bdc5"/>
            <polygon points="457.26 511.32 375.73 489.47 385.24 486.92 457.26 506.22 457.26 511.32" fill="#e6e7e8"/>
          </g>
          <polygon points="450.49 497.48 392.23 481.86 392.23 303.66 450.49 319.27 450.49 497.48" fill="#303a66"/>
        </g>
        <g>
          <g>
            <polygon points="294.19 467.43 212.66 445.59 212.66 251.41 294.19 273.25 294.19 467.43" fill="#566575"/>
            <polygon points="212.66 251.41 212.66 445.59 222.17 443.04 222.17 253.95 212.66 251.41" fill="#b4bdc5"/>
            <polygon points="294.19 467.43 212.66 445.59 222.17 443.04 294.19 462.34 294.19 467.43" fill="#e6e7e8"/>
          </g>
          <polygon points="287.42 453.59 229.16 437.98 229.16 259.78 287.42 275.39 287.42 453.59" fill="#242b52"/>
        </g>
        <polygon points="457.26 317.13 212.66 251.41 212.66 445.59 457.26 317.13" fill="#fff" isolation="isolate" opacity=".2"/>
      </g>
      <polygon points="794.79 441.77 488.24 523.91 488.24 511.77 794.79 429.63 794.79 441.77" fill="#9fa8b6"/>
      <polygon points="181.69 441.77 488.24 523.91 488.24 511.77 181.69 429.63 181.69 441.77" fill="#b4bdc5"/>
      <g>
        <g>
          <polygon points="658.79 465.91 754.29 440.32 754.29 246.99 658.79 272.58 658.79 465.91" fill="#566575"/>
          <polygon points="754.29 246.99 754.29 440.32 743.15 437.33 743.15 249.97 754.29 246.99" fill="#7d8191"/>
          <polygon points="658.79 465.91 754.29 440.32 743.15 437.33 658.79 459.94 658.79 465.91" fill="#e6e7e8"/>
        </g>
        <polygon points="666.72 449.7 734.96 431.41 734.96 256.8 666.72 275.08 666.72 449.7" fill="#00123e"/>
        <polygon points="669.96 438.93 720.91 425.28 720.91 297.57 669.96 311.22 669.96 438.93" fill="#242b52"/>
        <polygon points="668.22 391.45 733.47 373.96 733.47 367.76 668.22 385.25 668.22 391.45" fill="#00123e"/>
        <polygon points="668.22 339.51 733.47 322.03 733.47 315.83 668.22 333.31 668.22 339.51" fill="#00123e"/>
        <path d="M675.02,372.9c0,2.71,1.8,4.42,4.01,3.83,2.22-.59,4.01-3.27,4.01-5.98s-1.8-4.42-4.01-3.83c-2.22,.59-4.01,3.27-4.01,5.98Z" fill="#9fa8b6"/>
      </g>
      <polygon points="520.38 530.33 394.91 496.74 304 521.08 304 572.91 361.47 572.91 520.38 530.33" fill="#242b52" isolation="isolate" opacity=".15"/>
      <g>
        <polygon points="488.6 512.41 304 561.87 304 573.18 488.6 523.71 488.6 512.41" fill="#9fa8b6"/>
        <polygon points="2.5 492.39 304 573.18 304 561.87 2.5 481.08 2.5 492.39" fill="#e6e7e8"/>
        <polygon points="488.6 512.41 187.1 431.62 2.5 481.08 304 561.87 488.6 512.41" fill="#001230"/>
      </g>
      <g>
        <polygon points="84.54 498.56 101.69 503.15 278.89 455.67 261.74 451.08 84.54 498.56" fill="#c09e72"/>
        <polygon points="59.01 491.72 76.16 496.31 253.35 448.83 236.21 444.24 59.01 491.72" fill="#d4b98b"/>
        <polygon points="33.48 484.88 50.62 489.47 227.82 441.99 210.68 437.4 33.48 484.88" fill="#aa8d66"/>
        <polygon points="7.95 478.04 25.09 482.63 202.29 435.15 185.14 430.56 7.95 478.04" fill="#c09e72"/>
        <polygon points="127.22 510 110.08 505.4 287.28 457.92 304.42 462.52 127.22 510" fill="#c09e72"/>
        <polygon points="152.75 516.84 135.61 512.24 312.81 464.76 329.95 469.36 152.75 516.84" fill="#d4b98b"/>
        <polygon points="178.29 523.68 161.14 519.09 338.34 471.61 355.49 476.2 178.29 523.68" fill="#aa8d66"/>
        <polygon points="203.82 530.52 186.68 525.93 363.87 478.45 381.02 483.04 203.82 530.52" fill="#c09e72"/>
        <polygon points="288.81 553.29 305.95 557.89 483.15 510.41 466.01 505.81 288.81 553.29" fill="#c09e72"/>
        <polygon points="263.28 546.45 280.42 551.05 457.62 503.57 440.47 498.97 263.28 546.45" fill="#d4b98b"/>
        <polygon points="237.74 539.61 254.89 544.2 432.08 496.72 414.94 492.13 237.74 539.61" fill="#aa8d66"/>
        <polygon points="212.21 532.77 229.35 537.36 406.55 489.88 389.41 485.29 212.21 532.77" fill="#c09e72"/>
      </g>
      <polygon points="181.69 274.85 488.24 356.99 488.24 254.51 181.69 172.37 181.69 274.85" fill="#242b52" isolation="isolate" opacity=".1"/>
      <polygon points="125 350.75 0 384.24 0 481.15 125 447.66 125 350.75" fill="#566575" isolation="isolate" opacity=".7"/>
      <g>
        <polygon points="831.54 174.4 395.7 291.18 395.7 264.23 831.54 147.44 831.54 174.4" fill="#9fa8b6"/>
        <polygon points="831.54 147.44 481.18 53.57 45.34 170.35 395.7 264.23 831.54 147.44" fill="#f0f1f2"/>
        <polygon points="45.34 170.35 45.34 197.3 395.7 291.18 395.7 264.23 45.34 170.35" fill="#dcdddf"/>
      </g>
      <polygon points="430.02 444.71 305.02 478.21 305.02 575.12 430.02 541.62 430.02 444.71" fill="#566575" isolation="isolate" opacity=".7"/>
      <polygon points="794.82 146.13 488.24 63.98 181.65 146.13 488.24 228.28 794.82 146.13" fill="#404079"/>
      <polygon points="744.71 146.13 488.24 77.41 231.77 146.13 488.24 214.85 744.71 146.13" fill="#303a66"/>
      <polygon points="488.24 77.41 231.77 146.13 247.92 150.46 488.24 86.07 488.24 77.41" fill="#001230"/>
      <polygon points="488.24 77.41 744.71 146.13 728.56 150.46 488.24 86.07 488.24 77.41" fill="#242b52"/>
      <g>
        <polygon points="470.3 119.44 629.19 162.02 708.64 140.73 549.75 98.16 470.3 119.44" fill="#242b52" isolation="isolate" opacity=".15"/>
        <g>
          <polygon points="690.31 57.19 497.89 5.71 436.85 110.54 629.26 162.02 690.31 57.19" fill="#242b52"/>
          <polygon points="688 51.48 495.59 0 434.54 104.83 626.95 156.31 688 51.48" fill="#e3e3e7"/>
          <path d="M496.66,118.44l-56.71-15.2L498.21,4.94l56.71,15.2-58.26,98.31h0Zm120.17-81.79l-56.71-15.2-58.26,98.31,56.71,15.2,58.26-98.31Zm61.9,16.53l-56.71-15.2-58.26,98.31,56.71,15.2,58.26-98.31Z" fill="#242b52" isolation="isolate" opacity=".15"/>
          <g>
            <polygon points="496.99 2.5 438.73 100.8 495.44 116 553.7 17.69 496.99 2.5" fill="#ebebeb"/>
            <path d="M448.87,89.13l-5.18,8.74,.6,1.51,9.66,2.59,1.98-.82,5.18-8.74-.6-1.51-9.66-2.59-1.98,.82Zm6.96-11.74l-5.18,8.74,.6,1.51,9.66,2.59,1.98-.82,5.18-8.74-.6-1.51-9.66-2.59-1.98,.82Zm6.96-11.74l-5.18,8.74,.6,1.51,9.66,2.59,1.98-.82,5.18-8.74-.6-1.51-9.66-2.59-1.98,.82Zm6.96-11.74l-5.18,8.74,.6,1.51,9.66,2.59,1.98-.82,5.18-8.74-.6-1.51-9.66-2.59-1.98,.82Zm6.96-11.74l-5.18,8.74,.6,1.51,9.66,2.59,1.98-.82,5.18-8.74-.6-1.51-9.66-2.59-1.98,.82Zm6.96-11.74l-5.18,8.74,.6,1.51,9.66,2.59,1.98-.82,5.18-8.74-.6-1.51-9.66-2.59s-1.98,.82-1.98,.82Zm6.96-11.74l-5.18,8.74,.6,1.51,9.66,2.59,1.98-.82,5.18-8.74-.6-1.51-9.66-2.59-1.98,.82Zm6.96-11.74l-5.18,8.74,.6,1.51,9.66,2.59,1.98-.82,5.18-8.74-.6-1.51-9.66-2.59s-1.98,.82-1.98,.82Zm-35.75,85.68l-5.18,8.74,.6,1.51,9.66,2.59,1.98-.82,5.18-8.74-.6-1.51-9.66-2.59-1.98,.82Zm6.96-11.74l-5.18,8.74,.6,1.51,9.66,2.59,1.98-.82,5.18-8.74-.6-1.51-9.66-2.59-1.98,.82Zm6.96-11.74l-5.18,8.74,.6,1.51,9.66,2.59,1.98-.82,5.18-8.74-.6-1.51-9.66-2.59-1.98,.82Zm6.96-11.74l-5.18,8.74,.6,1.51,9.66,2.59,1.98-.82,5.18-8.74-.6-1.51-9.66-2.59-1.98,.82Zm6.96-11.74l-5.18,8.74,.6,1.51,9.66,2.59,1.98-.82,5.18-8.74-.6-1.51-9.66-2.59-1.98,.82Zm6.96-11.74l-5.18,8.74,.6,1.51,9.66,2.59,1.98-.82,5.18-8.74-.6-1.51-9.66-2.59-1.98,.82Zm6.96-11.74l-5.18,8.74,.6,1.51,9.66,2.59,1.98-.82,5.18-8.74-.6-1.51-9.66-2.59-1.98,.82h0Zm6.96-11.74l-5.18,8.74,.6,1.51,9.66,2.59,1.98-.82,5.18-8.74-.6-1.51-9.66-2.59-1.98,.82h0Zm-35.75,85.68l-5.18,8.74,.6,1.51,9.66,2.59,1.98-.82,5.18-8.74-.6-1.51-9.66-2.59-1.98,.82Zm6.96-11.74l-5.18,8.74,.6,1.51,9.66,2.59,1.98-.82,5.18-8.74-.6-1.51-9.66-2.59-1.98,.82Zm6.96-11.74l-5.18,8.74,.6,1.51,9.66,2.59,1.98-.82,5.18-8.74-.6-1.51-9.66-2.59-1.98,.82Zm6.96-11.74l-5.18,8.74,.6,1.51,9.66,2.59,1.98-.82,5.18-8.74-.6-1.51-9.66-2.59-1.98,.82Zm6.96-11.74l-5.18,8.74,.6,1.51,9.66,2.59,1.98-.82,5.18-8.74-.6-1.51-9.66-2.59-1.98,.82h0Zm6.96-11.74l-5.18,8.74,.6,1.51,9.66,2.59,1.98-.82,5.18-8.74-.6-1.51-9.66-2.59-1.98,.82h0Zm6.96-11.74l-5.18,8.74,.6,1.51,9.66,2.59,1.98-.82,5.18-8.74-.6-1.51-9.66-2.59-1.98,.82h0Zm6.96-11.74l-5.18,8.74,.6,1.51,9.66,2.59,1.98-.82,5.18-8.74-.6-1.51-9.66-2.59-1.98,.82Zm-35.75,85.68l-5.18,8.74,.6,1.51,9.66,2.59,1.98-.82,5.18-8.74-.6-1.51-9.66-2.59-1.98,.82Zm6.96-11.74l-5.18,8.74,.6,1.51,9.66,2.59,1.98-.82,5.18-8.74-.6-1.51-9.66-2.59-1.98,.82Zm6.96-11.74l-5.18,8.74,.6,1.51,9.66,2.59,1.98-.82,5.18-8.74-.6-1.51-9.66-2.59-1.98,.82h0Zm6.96-11.74l-5.18,8.74,.6,1.51,9.66,2.59,1.98-.82,5.18-8.74-.6-1.51-9.66-2.59-1.98,.82h0Zm6.96-11.74l-5.18,8.74,.6,1.51,9.66,2.59,1.98-.82,5.18-8.74-.6-1.51-9.66-2.59-1.98,.82h0Zm6.96-11.74l-5.18,8.74,.6,1.51,9.66,2.59,1.98-.82,5.18-8.74-.6-1.51-9.66-2.59-1.98,.82Zm6.96-11.74l-5.18,8.74,.6,1.51,9.66,2.59,1.98-.82,5.18-8.74-.6-1.51-9.66-2.59-1.98,.82Zm6.96-11.74l-5.18,8.74,.6,1.51,9.66,2.59,1.98-.82,5.18-8.74-.6-1.51-9.66-2.59-1.98,.82Z" fill="#1c75bc"/>
          </g>
          <g>
            <polygon points="558.9 19.03 500.63 117.34 557.34 132.53 615.61 34.22 558.9 19.03" fill="#ebebeb"/>
            <path d="M510.77,105.66l-5.18,8.74,.6,1.51,9.66,2.59,1.98-.82,5.18-8.74-.6-1.51-9.66-2.59-1.98,.82Zm6.96-11.74l-5.18,8.74,.6,1.51,9.66,2.59,1.98-.82,5.18-8.74-.6-1.51-9.66-2.59-1.98,.82Zm6.96-11.74l-5.18,8.74,.6,1.51,9.66,2.59,1.98-.82,5.18-8.74-.6-1.51-9.66-2.59-1.98,.82Zm6.96-11.74l-5.18,8.74,.6,1.51,9.66,2.59,1.98-.82,5.18-8.74-.6-1.51-9.66-2.59-1.98,.82Zm6.96-11.74l-5.18,8.74,.6,1.51,9.66,2.59,1.98-.82,5.18-8.74-.6-1.51-9.66-2.59-1.98,.82Zm6.96-11.74l-5.18,8.74,.6,1.51,9.66,2.59,1.98-.82,5.18-8.74-.6-1.51-9.66-2.59-1.98,.82Zm6.96-11.74l-5.18,8.74,.6,1.51,9.66,2.59,1.98-.82,5.18-8.74-.6-1.51-9.66-2.59-1.98,.82Zm6.96-11.74l-5.18,8.74,.6,1.51,9.66,2.59,1.98-.82,5.18-8.74-.6-1.51-9.66-2.59s-1.98,.82-1.98,.82Zm-35.75,85.68l-5.18,8.74,.6,1.51,9.66,2.59,1.98-.82,5.18-8.74-.6-1.51-9.66-2.59-1.98,.82Zm6.96-11.74l-5.18,8.74,.6,1.51,9.66,2.59,1.98-.82,5.18-8.74-.6-1.51-9.66-2.59-1.98,.82Zm6.96-11.74l-5.18,8.74,.6,1.51,9.66,2.59,1.98-.82,5.18-8.74-.6-1.51-9.66-2.59-1.98,.82Zm6.96-11.74l-5.18,8.74,.6,1.51,9.66,2.59,1.98-.82,5.18-8.74-.6-1.51-9.66-2.59-1.98,.82Zm6.96-11.74l-5.18,8.74,.6,1.51,9.66,2.59,1.98-.82,5.18-8.74-.6-1.51-9.66-2.59-1.98,.82Zm6.96-11.74l-5.18,8.74,.6,1.51,9.66,2.59,1.98-.82,5.18-8.74-.6-1.51-9.66-2.59-1.98,.82Zm6.96-11.74l-5.18,8.74,.6,1.51,9.66,2.59,1.98-.82,5.18-8.74-.6-1.51-9.66-2.59-1.98,.82Zm6.96-11.74l-5.18,8.74,.6,1.51,9.66,2.59,1.98-.82,5.18-8.74-.6-1.51-9.66-2.59s-1.98,.82-1.98,.82Zm-35.75,85.68l-5.18,8.74,.6,1.51,9.66,2.59,1.98-.82,5.18-8.74-.6-1.51-9.66-2.59-1.98,.82Zm6.96-11.74l-5.18,8.74,.6,1.51,9.66,2.59,1.98-.82,5.18-8.74-.6-1.51-9.66-2.59-1.98,.82Zm6.96-11.74l-5.18,8.74,.6,1.51,9.66,2.59,1.98-.82,5.18-8.74-.6-1.51-9.66-2.59-1.98,.82Zm6.96-11.74l-5.18,8.74,.6,1.51,9.66,2.59,1.98-.82,5.18-8.74-.6-1.51-9.66-2.59-1.98,.82Zm6.96-11.74l-5.18,8.74,.6,1.51,9.66,2.59,1.98-.82,5.18-8.74-.6-1.51-9.66-2.59-1.98,.82Zm6.96-11.74l-5.18,8.74,.6,1.51,9.66,2.59,1.98-.82,5.18-8.74-.6-1.51-9.66-2.59-1.98,.82Zm6.96-11.74l-5.18,8.74,.6,1.51,9.66,2.59,1.98-.82,5.18-8.74-.6-1.51-9.66-2.59-1.98,.82Zm6.96-11.74l-5.18,8.74,.6,1.51,9.66,2.59,1.98-.82,5.18-8.74-.6-1.51-9.66-2.59s-1.98,.82-1.98,.82Zm-35.75,85.68l-5.18,8.74,.6,1.51,9.66,2.59,1.98-.82,5.18-8.74-.6-1.51-9.66-2.59s-1.98,.82-1.98,.82Zm6.96-11.74l-5.18,8.74,.6,1.51,9.66,2.59,1.98-.82,5.18-8.74-.6-1.51-9.66-2.59-1.98,.82Zm6.96-11.74l-5.18,8.74,.6,1.51,9.66,2.59,1.98-.82,5.18-8.74-.6-1.51-9.66-2.59-1.98,.82Zm6.96-11.74l-5.18,8.74,.6,1.51,9.66,2.59,1.98-.82,5.18-8.74-.6-1.51-9.66-2.59-1.98,.82Zm6.96-11.74l-5.18,8.74,.6,1.51,9.66,2.59,1.98-.82,5.18-8.74-.6-1.51-9.66-2.59-1.98,.82Zm6.96-11.74l-5.18,8.74,.6,1.51,9.66,2.59,1.98-.82,5.18-8.74-.6-1.51-9.66-2.59-1.98,.82Zm6.96-11.74l-5.18,8.74,.6,1.51,9.66,2.59,1.98-.82,5.18-8.74-.6-1.51-9.66-2.59-1.98,.82Zm6.96-11.74l-5.18,8.74,.6,1.51,9.66,2.59,1.98-.82,5.18-8.74-.6-1.51-9.66-2.59-1.98,.82Z" fill="#1c75bc"/>
          </g>
          <g>
            <polygon points="620.8 35.56 562.53 133.87 619.25 149.06 677.51 50.75 620.8 35.56" fill="#ebebeb"/>
            <path d="M572.68,122.19l-5.18,8.74,.6,1.51,9.66,2.59,1.98-.82,5.18-8.74-.6-1.51-9.66-2.59s-1.98,.82-1.98,.82Zm6.96-11.74l-5.18,8.74,.6,1.51,9.66,2.59,1.98-.82,5.18-8.74-.6-1.51-9.66-2.59-1.98,.82Zm6.96-11.74l-5.18,8.74,.6,1.51,9.66,2.59,1.98-.82,5.18-8.74-.6-1.51-9.66-2.59-1.98,.82Zm6.96-11.74l-5.18,8.74,.6,1.51,9.66,2.59,1.98-.82,5.18-8.74-.6-1.51-9.66-2.59-1.98,.82Zm6.96-11.74l-5.18,8.74,.6,1.51,9.66,2.59,1.98-.82,5.18-8.74-.6-1.51-9.66-2.59-1.98,.82Zm6.96-11.74l-5.18,8.74,.6,1.51,9.66,2.59,1.98-.82,5.18-8.74-.6-1.51-9.66-2.59s-1.98,.82-1.98,.82Zm6.96-11.74l-5.18,8.74,.6,1.51,9.66,2.59,1.98-.82,5.18-8.74-.6-1.51-9.66-2.59-1.98,.82Zm6.96-11.74l-5.18,8.74,.6,1.51,9.66,2.59,1.98-.82,5.18-8.74-.6-1.51-9.66-2.59-1.98,.82Zm-35.75,85.68l-5.18,8.74,.6,1.51,9.66,2.59,1.98-.82,5.18-8.74-.6-1.51-9.66-2.59-1.98,.82h0Zm6.96-11.74l-5.18,8.74,.6,1.51,9.66,2.59,1.98-.82,5.18-8.74-.6-1.51-9.66-2.59-1.98,.82Zm6.96-11.74l-5.18,8.74,.6,1.51,9.66,2.59,1.98-.82,5.18-8.74-.6-1.51-9.66-2.59-1.98,.82Zm6.96-11.74l-5.18,8.74,.6,1.51,9.66,2.59,1.98-.82,5.18-8.74-.6-1.51-9.66-2.59-1.98,.82Zm6.96-11.74l-5.18,8.74,.6,1.51,9.66,2.59,1.98-.82,5.18-8.74-.6-1.51-9.66-2.59-1.98,.82Zm6.96-11.74l-5.18,8.74,.6,1.51,9.66,2.59,1.98-.82,5.18-8.74-.6-1.51-9.66-2.59-1.98,.82Zm6.96-11.74l-5.18,8.74,.6,1.51,9.66,2.59,1.98-.82,5.18-8.74-.6-1.51-9.66-2.59-1.98,.82Zm6.96-11.74l-5.18,8.74,.6,1.51,9.66,2.59,1.98-.82,5.18-8.74-.6-1.51-9.66-2.59-1.98,.82Zm-35.75,85.68l-5.18,8.74,.6,1.51,9.66,2.59,1.98-.82,5.18-8.74-.6-1.51-9.66-2.59-1.98,.82Zm6.96-11.74l-5.18,8.74,.6,1.51,9.66,2.59,1.98-.82,5.18-8.74-.6-1.51-9.66-2.59-1.98,.82Zm6.96-11.74l-5.18,8.74,.6,1.51,9.66,2.59,1.98-.82,5.18-8.74-.6-1.51-9.66-2.59-1.98,.82Zm6.96-11.74l-5.18,8.74,.6,1.51,9.66,2.59,1.98-.82,5.18-8.74-.6-1.51-9.66-2.59-1.98,.82Zm6.96-11.74l-5.18,8.74,.6,1.51,9.66,2.59,1.98-.82,5.18-8.74-.6-1.51-9.66-2.59-1.98,.82Zm6.96-11.74l-5.18,8.74,.6,1.51,9.66,2.59,1.98-.82,5.18-8.74-.6-1.51-9.66-2.59-1.98,.82Zm6.96-11.74l-5.18,8.74,.6,1.51,9.66,2.59,1.98-.82,5.18-8.74-.6-1.51-9.66-2.59-1.98,.82Zm6.96-11.74l-5.18,8.74,.6,1.51,9.66,2.59,1.98-.82,5.18-8.74-.6-1.51-9.66-2.59-1.98,.82Zm-35.75,85.68l-5.18,8.74,.6,1.51,9.66,2.59,1.98-.82,5.18-8.74-.6-1.51-9.66-2.59-1.98,.82Zm6.96-11.74l-5.18,8.74,.6,1.51,9.66,2.59,1.98-.82,5.18-8.74-.6-1.51-9.66-2.59-1.98,.82h0Zm6.96-11.74l-5.18,8.74,.6,1.51,9.66,2.59,1.98-.82,5.18-8.74-.6-1.51-9.66-2.59-1.98,.82Zm6.96-11.74l-5.18,8.74,.6,1.51,9.66,2.59,1.98-.82,5.18-8.74-.6-1.51-9.66-2.59-1.98,.82Zm6.96-11.74l-5.18,8.74,.6,1.51,9.66,2.59,1.98-.82,5.18-8.74-.6-1.51-9.66-2.59-1.98,.82Zm6.96-11.74l-5.18,8.74,.6,1.51,9.66,2.59,1.98-.82,5.18-8.74-.6-1.51-9.66-2.59-1.98,.82Zm6.96-11.74l-5.18,8.74,.6,1.51,9.66,2.59,1.98-.82,5.18-8.74-.6-1.51-9.66-2.59s-1.98,.82-1.98,.82Zm6.96-11.74l-5.18,8.74,.6,1.51,9.66,2.59,1.98-.82,5.18-8.74-.6-1.51-9.66-2.59-1.98,.82Z" fill="#1c75bc"/>
          </g>
          <polygon points="688 51.48 434.54 104.83 495.59 0 688 51.48" fill="#fff" isolation="isolate" opacity=".2"/>
        </g>
      </g>
      <g>
        <polygon points="387.7 141.11 546.59 183.69 626.04 162.4 467.15 119.83 387.7 141.11" fill="#242b52" isolation="isolate" opacity=".15"/>
        <g>
          <polygon points="607.71 78.86 415.3 27.38 354.25 132.21 546.66 183.69 607.71 78.86" fill="#242b52"/>
          <polygon points="605.4 73.15 412.99 21.67 351.94 126.5 544.36 177.98 605.4 73.15" fill="#e3e3e7"/>
          <path d="M414.07,140.12l-56.71-15.2,58.26-98.31,56.71,15.2-58.26,98.31Zm120.17-81.78l-56.71-15.2-58.26,98.31,56.71,15.2,58.26-98.31Zm61.9,16.53l-56.71-15.2-58.26,98.31,56.71,15.2,58.26-98.31Z" fill="#242b52" isolation="isolate" opacity=".15"/>
          <g>
            <polygon points="414.39 24.17 356.13 122.47 412.84 137.67 471.11 39.36 414.39 24.17" fill="#ebebeb"/>
            <path d="M366.27,110.8l-5.18,8.74,.6,1.51,9.66,2.59,1.98-.82,5.18-8.74-.6-1.51-9.66-2.59-1.98,.82Zm6.96-11.74l-5.18,8.74,.6,1.51,9.66,2.59,1.98-.82,5.18-8.74-.6-1.51-9.66-2.59-1.98,.82Zm6.96-11.74l-5.18,8.74,.6,1.51,9.66,2.59,1.98-.82,5.18-8.74-.6-1.51-9.66-2.59-1.98,.82Zm6.96-11.74l-5.18,8.74,.6,1.51,9.66,2.59,1.98-.82,5.18-8.74-.6-1.51-9.66-2.59-1.98,.82Zm6.96-11.74l-5.18,8.74,.6,1.51,9.66,2.59,1.98-.82,5.18-8.74-.6-1.51-9.66-2.59s-1.98,.82-1.98,.82Zm6.96-11.74l-5.18,8.74,.6,1.51,9.66,2.59,1.98-.82,5.18-8.74-.6-1.51-9.66-2.59-1.98,.82Zm6.96-11.74l-5.18,8.74,.6,1.51,9.66,2.59,1.98-.82,5.18-8.74-.6-1.51-9.66-2.59-1.98,.82Zm6.96-11.74l-5.18,8.74,.6,1.51,9.66,2.59,1.98-.82,5.18-8.74-.6-1.51-9.66-2.59s-1.98,.82-1.98,.82Zm-35.75,85.68l-5.18,8.74,.6,1.51,9.66,2.59,1.98-.82,5.18-8.74-.6-1.51-9.66-2.59-1.98,.82Zm6.96-11.74l-5.18,8.74,.6,1.51,9.66,2.59,1.98-.82,5.18-8.74-.6-1.51-9.66-2.59-1.98,.82Zm6.96-11.74l-5.18,8.74,.6,1.51,9.66,2.59,1.98-.82,5.18-8.74-.6-1.51-9.66-2.59-1.98,.82Zm6.96-11.74l-5.18,8.74,.6,1.51,9.66,2.59,1.98-.82,5.18-8.74-.6-1.51-9.66-2.59-1.98,.82Zm6.96-11.74l-5.18,8.74,.6,1.51,9.66,2.59,1.98-.82,5.18-8.74-.6-1.51-9.66-2.59-1.98,.82Zm6.96-11.74l-5.18,8.74,.6,1.51,9.66,2.59,1.98-.82,5.18-8.74-.6-1.51-9.66-2.59-1.98,.82Zm6.96-11.74l-5.18,8.74,.6,1.51,9.66,2.59,1.98-.82,5.18-8.74-.6-1.51-9.66-2.59-1.98,.82Zm6.96-11.74l-5.18,8.74,.6,1.51,9.66,2.59,1.98-.82,5.18-8.74-.6-1.51-9.66-2.59-1.98,.82Zm-35.75,85.68l-5.18,8.74,.6,1.51,9.66,2.59,1.98-.82,5.18-8.74-.6-1.51-9.66-2.59s-1.98,.82-1.98,.82Zm6.96-11.74l-5.18,8.74,.6,1.51,9.66,2.59,1.98-.82,5.18-8.74-.6-1.51-9.66-2.59-1.98,.82Zm6.96-11.74l-5.18,8.74,.6,1.51,9.66,2.59,1.98-.82,5.18-8.74-.6-1.51-9.66-2.59-1.98,.82Zm6.96-11.74l-5.18,8.74,.6,1.51,9.66,2.59,1.98-.82,5.18-8.74-.6-1.51-9.66-2.59-1.98,.82Zm6.96-11.74l-5.18,8.74,.6,1.51,9.66,2.59,1.98-.82,5.18-8.74-.6-1.51-9.66-2.59-1.98,.82Zm6.96-11.74l-5.18,8.74,.6,1.51,9.66,2.59,1.98-.82,5.18-8.74-.6-1.51-9.66-2.59-1.98,.82Zm6.96-11.74l-5.18,8.74,.6,1.51,9.66,2.59,1.98-.82,5.18-8.74-.6-1.51-9.66-2.59-1.98,.82Zm6.96-11.74l-5.18,8.74,.6,1.51,9.66,2.59,1.98-.82,5.18-8.74-.6-1.51-9.66-2.59-1.98,.82Zm-35.75,85.68l-5.18,8.74,.6,1.51,9.66,2.59,1.98-.82,5.18-8.74-.6-1.51-9.66-2.59s-1.98,.82-1.98,.82Zm6.96-11.74l-5.18,8.74,.6,1.51,9.66,2.59,1.98-.82,5.18-8.74-.6-1.51-9.66-2.59-1.98,.82Zm6.96-11.74l-5.18,8.74,.6,1.51,9.66,2.59,1.98-.82,5.18-8.74-.6-1.51-9.66-2.59-1.98,.82Zm6.96-11.74l-5.18,8.74,.6,1.51,9.66,2.59,1.98-.82,5.18-8.74-.6-1.51-9.66-2.59-1.98,.82Zm6.96-11.74l-5.18,8.74,.6,1.51,9.66,2.59,1.98-.82,5.18-8.74-.6-1.51-9.66-2.59-1.98,.82Zm6.96-11.74l-5.18,8.74,.6,1.51,9.66,2.59,1.98-.82,5.18-8.74-.6-1.51-9.66-2.59s-1.98,.82-1.98,.82Zm6.96-11.74l-5.18,8.74,.6,1.51,9.66,2.59,1.98-.82,5.18-8.74-.6-1.51-9.66-2.59-1.98,.82Zm6.96-11.74l-5.18,8.74,.6,1.51,9.66,2.59,1.98-.82,5.18-8.74-.6-1.51-9.66-2.59-1.98,.82Z" fill="#1c75bc"/>
          </g>
          <g>
            <polygon points="476.3 40.7 418.03 139.01 474.75 154.2 533.01 55.89 476.3 40.7" fill="#ebebeb"/>
            <path d="M428.18,127.33l-5.18,8.74,.6,1.51,9.66,2.59,1.98-.82,5.18-8.74-.6-1.51-9.66-2.59s-1.98,.82-1.98,.82Zm6.96-11.74l-5.18,8.74,.6,1.51,9.66,2.59,1.98-.82,5.18-8.74-.6-1.51-9.66-2.59s-1.98,.82-1.98,.82Zm6.96-11.74l-5.18,8.74,.6,1.51,9.66,2.59,1.98-.82,5.18-8.74-.6-1.51-9.66-2.59-1.98,.82Zm6.96-11.74l-5.18,8.74,.6,1.51,9.66,2.59,1.98-.82,5.18-8.74-.6-1.51-9.66-2.59-1.98,.82Zm6.96-11.74l-5.18,8.74,.6,1.51,9.66,2.59,1.98-.82,5.18-8.74-.6-1.51-9.66-2.59-1.98,.82Zm6.96-11.74l-5.18,8.74,.6,1.51,9.66,2.59,1.98-.82,5.18-8.74-.6-1.51-9.66-2.59-1.98,.82Zm6.96-11.74l-5.18,8.74,.6,1.51,9.66,2.59,1.98-.82,5.18-8.74-.6-1.51-9.66-2.59-1.98,.82Zm6.96-11.74l-5.18,8.74,.6,1.51,9.66,2.59,1.98-.82,5.18-8.74-.6-1.51-9.66-2.59-1.98,.82Zm-35.75,85.68l-5.18,8.74,.6,1.51,9.66,2.59,1.98-.82,5.18-8.74-.6-1.51-9.66-2.59-1.98,.82Zm6.96-11.74l-5.18,8.74,.6,1.51,9.66,2.59,1.98-.82,5.18-8.74-.6-1.51-9.66-2.59-1.98,.82h0Zm6.96-11.74l-5.18,8.74,.6,1.51,9.66,2.59,1.98-.82,5.18-8.74-.6-1.51-9.66-2.59-1.98,.82Zm6.96-11.74l-5.18,8.74,.6,1.51,9.66,2.59,1.98-.82,5.18-8.74-.6-1.51-9.66-2.59-1.98,.82Zm6.96-11.74l-5.18,8.74,.6,1.51,9.66,2.59,1.98-.82,5.18-8.74-.6-1.51-9.66-2.59-1.98,.82Zm6.96-11.74l-5.18,8.74,.6,1.51,9.66,2.59,1.98-.82,5.18-8.74-.6-1.51-9.66-2.59-1.98,.82Zm6.96-11.74l-5.18,8.74,.6,1.51,9.66,2.59,1.98-.82,5.18-8.74-.6-1.51-9.66-2.59-1.98,.82Zm6.96-11.74l-5.18,8.74,.6,1.51,9.66,2.59,1.98-.82,5.18-8.74-.6-1.51-9.66-2.59-1.98,.82Zm-35.75,85.68l-5.18,8.74,.6,1.51,9.66,2.59,1.98-.82,5.18-8.74-.6-1.51-9.66-2.59-1.98,.82Zm6.96-11.74l-5.18,8.74,.6,1.51,9.66,2.59,1.98-.82,5.18-8.74-.6-1.51-9.66-2.59-1.98,.82h0Zm6.96-11.74l-5.18,8.74,.6,1.51,9.66,2.59,1.98-.82,5.18-8.74-.6-1.51-9.66-2.59-1.98,.82Zm6.96-11.74l-5.18,8.74,.6,1.51,9.66,2.59,1.98-.82,5.18-8.74-.6-1.51-9.66-2.59-1.98,.82Zm6.96-11.74l-5.18,8.74,.6,1.51,9.66,2.59,1.98-.82,5.18-8.74-.6-1.51-9.66-2.59-1.98,.82Zm6.96-11.74l-5.18,8.74,.6,1.51,9.66,2.59,1.98-.82,5.18-8.74-.6-1.51-9.66-2.59-1.98,.82Zm6.96-11.74l-5.18,8.74,.6,1.51,9.66,2.59,1.98-.82,5.18-8.74-.6-1.51-9.66-2.59s-1.98,.82-1.98,.82Zm6.96-11.74l-5.18,8.74,.6,1.51,9.66,2.59,1.98-.82,5.18-8.74-.6-1.51-9.66-2.59-1.98,.82h0Zm-35.75,85.68l-5.18,8.74,.6,1.51,9.66,2.59,1.98-.82,5.18-8.74-.6-1.51-9.66-2.59-1.98,.82Zm6.96-11.74l-5.18,8.74,.6,1.51,9.66,2.59,1.98-.82,5.18-8.74-.6-1.51-9.66-2.59-1.98,.82h0Zm6.96-11.74l-5.18,8.74,.6,1.51,9.66,2.59,1.98-.82,5.18-8.74-.6-1.51-9.66-2.59-1.98,.82Zm6.96-11.74l-5.18,8.74,.6,1.51,9.66,2.59,1.98-.82,5.18-8.74-.6-1.51-9.66-2.59-1.98,.82Zm6.96-11.74l-5.18,8.74,.6,1.51,9.66,2.59,1.98-.82,5.18-8.74-.6-1.51-9.66-2.59-1.98,.82Zm6.96-11.74l-5.18,8.74,.6,1.51,9.66,2.59,1.98-.82,5.18-8.74-.6-1.51-9.66-2.59-1.98,.82h0Zm6.96-11.74l-5.18,8.74,.6,1.51,9.66,2.59,1.98-.82,5.18-8.74-.6-1.51-9.66-2.59-1.98,.82h0Zm6.96-11.74l-5.18,8.74,.6,1.51,9.66,2.59,1.98-.82,5.18-8.74-.6-1.51-9.66-2.59-1.98,.82h0Z" fill="#1c75bc"/>
          </g>
          <g>
            <polygon points="538.2 57.23 479.94 155.54 536.65 170.73 594.91 72.42 538.2 57.23" fill="#ebebeb"/>
            <path d="M490.08,143.86l-5.18,8.74,.6,1.51,9.66,2.59,1.98-.82,5.18-8.74-.6-1.51-9.66-2.59-1.98,.82Zm6.96-11.74l-5.18,8.74,.6,1.51,9.66,2.59,1.98-.82,5.18-8.74-.6-1.51-9.66-2.59-1.98,.82Zm6.96-11.74l-5.18,8.74,.6,1.51,9.66,2.59,1.98-.82,5.18-8.74-.6-1.51-9.66-2.59-1.98,.82h0Zm6.96-11.74l-5.18,8.74,.6,1.51,9.66,2.59,1.98-.82,5.18-8.74-.6-1.51-9.66-2.59-1.98,.82h0Zm6.96-11.74l-5.18,8.74,.6,1.51,9.66,2.59,1.98-.82,5.18-8.74-.6-1.51-9.66-2.59-1.98,.82Zm6.96-11.74l-5.18,8.74,.6,1.51,9.66,2.59,1.98-.82,5.18-8.74-.6-1.51-9.66-2.59-1.98,.82Zm6.96-11.74l-5.18,8.74,.6,1.51,9.66,2.59,1.98-.82,5.18-8.74-.6-1.51-9.66-2.59-1.98,.82Zm6.96-11.74l-5.18,8.74,.6,1.51,9.66,2.59,1.98-.82,5.18-8.74-.6-1.51-9.66-2.59-1.98,.82Zm-35.75,85.68l-5.18,8.74,.6,1.51,9.66,2.59,1.98-.82,5.18-8.74-.6-1.51-9.66-2.59-1.98,.82h0Zm6.96-11.74l-5.18,8.74,.6,1.51,9.66,2.59,1.98-.82,5.18-8.74-.6-1.51-9.66-2.59-1.98,.82h0Zm6.96-11.74l-5.18,8.74,.6,1.51,9.66,2.59,1.98-.82,5.18-8.74-.6-1.51-9.66-2.59-1.98,.82h0Zm6.96-11.74l-5.18,8.74,.6,1.51,9.66,2.59,1.98-.82,5.18-8.74-.6-1.51-9.66-2.59-1.98,.82Zm6.96-11.74l-5.18,8.74,.6,1.51,9.66,2.59,1.98-.82,5.18-8.74-.6-1.51-9.66-2.59-1.98,.82Zm6.96-11.74l-5.18,8.74,.6,1.51,9.66,2.59,1.98-.82,5.18-8.74-.6-1.51-9.66-2.59-1.98,.82Zm6.96-11.74l-5.18,8.74,.6,1.51,9.66,2.59,1.98-.82,5.18-8.74-.6-1.51-9.66-2.59-1.98,.82Zm6.96-11.74l-5.18,8.74,.6,1.51,9.66,2.59,1.98-.82,5.18-8.74-.6-1.51-9.66-2.59-1.98,.82Zm-35.75,85.68l-5.18,8.74,.6,1.51,9.66,2.59,1.98-.82,5.18-8.74-.6-1.51-9.66-2.59-1.98,.82h0Zm6.96-11.74l-5.18,8.74,.6,1.51,9.66,2.59,1.98-.82,5.18-8.74-.6-1.51-9.66-2.59-1.98,.82Zm6.96-11.74l-5.18,8.74,.6,1.51,9.66,2.59,1.98-.82,5.18-8.74-.6-1.51-9.66-2.59-1.98,.82h0Zm6.96-11.74l-5.18,8.74,.6,1.51,9.66,2.59,1.98-.82,5.18-8.74-.6-1.51-9.66-2.59-1.98,.82Zm6.96-11.74l-5.18,8.74,.6,1.51,9.66,2.59,1.98-.82,5.18-8.74-.6-1.51-9.66-2.59-1.98,.82Zm6.96-11.74l-5.18,8.74,.6,1.51,9.66,2.59,1.98-.82,5.18-8.74-.6-1.51-9.66-2.59-1.98,.82Zm6.96-11.74l-5.18,8.74,.6,1.51,9.66,2.59,1.98-.82,5.18-8.74-.6-1.51-9.66-2.59-1.98,.82Zm6.96-11.74l-5.18,8.74,.6,1.51,9.66,2.59,1.98-.82,5.18-8.74-.6-1.51-9.66-2.59-1.98,.82Zm-35.75,85.68l-5.18,8.74,.6,1.51,9.66,2.59,1.98-.82,5.18-8.74-.6-1.51-9.66-2.59-1.98,.82Zm6.96-11.74l-5.18,8.74,.6,1.51,9.66,2.59,1.98-.82,5.18-8.74-.6-1.51-9.66-2.59-1.98,.82Zm6.96-11.74l-5.18,8.74,.6,1.51,9.66,2.59,1.98-.82,5.18-8.74-.6-1.51-9.66-2.59-1.98,.82Zm6.96-11.74l-5.18,8.74,.6,1.51,9.66,2.59,1.98-.82,5.18-8.74-.6-1.51-9.66-2.59-1.98,.82h0Zm6.96-11.74l-5.18,8.74,.6,1.51,9.66,2.59,1.98-.82,5.18-8.74-.6-1.51-9.66-2.59-1.98,.82Zm6.96-11.74l-5.18,8.74,.6,1.51,9.66,2.59,1.98-.82,5.18-8.74-.6-1.51-9.66-2.59-1.98,.82Zm6.96-11.74l-5.18,8.74,.6,1.51,9.66,2.59,1.98-.82,5.18-8.74-.6-1.51-9.66-2.59-1.98,.82Zm6.96-11.74l-5.18,8.74,.6,1.51,9.66,2.59,1.98-.82,5.18-8.74-.6-1.51-9.66-2.59-1.98,.82Z" fill="#1c75bc"/>
          </g>
          <polygon points="605.4 73.15 351.94 126.5 412.99 21.67 605.4 73.15" fill="#fff" isolation="isolate" opacity=".2"/>
        </g>
      </g>
      <g>
        <polygon points="304.94 164.03 463.83 206.61 543.27 185.32 384.38 142.75 304.94 164.03" fill="#242b52" isolation="isolate" opacity=".15"/>
        <g>
          <polygon points="527.95 103.78 335.53 52.3 274.48 157.13 466.9 208.61 527.95 103.78" fill="#242b52"/>
          <polygon points="525.64 98.07 333.23 46.59 272.18 151.42 464.59 202.9 525.64 98.07" fill="#e3e3e7"/>
          <path d="M334.3,165.04l-56.71-15.2,58.26-98.31,56.71,15.2-58.26,98.31Zm120.17-81.78l-56.71-15.2-58.26,98.31,56.71,15.2,58.26-98.31Zm61.9,16.53l-56.71-15.2-58.26,98.31,56.71,15.2,58.26-98.31Z" fill="#242b52" isolation="isolate" opacity=".15"/>
          <g>
            <polygon points="334.63 49.09 276.37 147.4 333.08 162.59 391.34 64.28 334.63 49.09" fill="#ebebeb"/>
            <path d="M286.51,135.72l-5.18,8.74,.6,1.51,9.66,2.59,1.98-.82,5.18-8.74-.6-1.51-9.66-2.59-1.98,.82Zm6.96-11.74l-5.18,8.74,.6,1.51,9.66,2.59,1.98-.82,5.18-8.74-.6-1.51-9.66-2.59-1.98,.82h0Zm6.96-11.74l-5.18,8.74,.6,1.51,9.66,2.59,1.98-.82,5.18-8.74-.6-1.51-9.66-2.59-1.98,.82Zm6.96-11.74l-5.18,8.74,.6,1.51,9.66,2.59,1.98-.82,5.18-8.74-.6-1.51-9.66-2.59-1.98,.82Zm6.96-11.74l-5.18,8.74,.6,1.51,9.66,2.59,1.98-.82,5.18-8.74-.6-1.51-9.66-2.59-1.98,.82Zm6.96-11.74l-5.18,8.74,.6,1.51,9.66,2.59,1.98-.82,5.18-8.74-.6-1.51-9.66-2.59-1.98,.82Zm6.96-11.74l-5.18,8.74,.6,1.51,9.66,2.59,1.98-.82,5.18-8.74-.6-1.51-9.66-2.59-1.98,.82Zm6.96-11.74l-5.18,8.74,.6,1.51,9.66,2.59,1.98-.82,5.18-8.74-.6-1.51-9.66-2.59-1.98,.82Zm-35.75,85.68l-5.18,8.74,.6,1.51,9.66,2.59,1.98-.82,5.18-8.74-.6-1.51-9.66-2.59-1.98,.82Zm6.96-11.74l-5.18,8.74,.6,1.51,9.66,2.59,1.98-.82,5.18-8.74-.6-1.51-9.66-2.59-1.98,.82h0Zm6.96-11.74l-5.18,8.74,.6,1.51,9.66,2.59,1.98-.82,5.18-8.74-.6-1.51-9.66-2.59-1.98,.82Zm6.96-11.74l-5.18,8.74,.6,1.51,9.66,2.59,1.98-.82,5.18-8.74-.6-1.51-9.66-2.59-1.98,.82Zm6.96-11.74l-5.18,8.74,.6,1.51,9.66,2.59,1.98-.82,5.18-8.74-.6-1.51-9.66-2.59-1.98,.82Zm6.96-11.74l-5.18,8.74,.6,1.51,9.66,2.59,1.98-.82,5.18-8.74-.6-1.51-9.66-2.59-1.98,.82Zm6.96-11.74l-5.18,8.74,.6,1.51,9.66,2.59,1.98-.82,5.18-8.74-.6-1.51-9.66-2.59-1.98,.82Zm6.96-11.74l-5.18,8.74,.6,1.51,9.66,2.59,1.98-.82,5.18-8.74-.6-1.51-9.66-2.59-1.98,.82Zm-35.75,85.68l-5.18,8.74,.6,1.51,9.66,2.59,1.98-.82,5.18-8.74-.6-1.51-9.66-2.59-1.98,.82Zm6.96-11.74l-5.18,8.74,.6,1.51,9.66,2.59,1.98-.82,5.18-8.74-.6-1.51-9.66-2.59-1.98,.82Zm6.96-11.74l-5.18,8.74,.6,1.51,9.66,2.59,1.98-.82,5.18-8.74-.6-1.51-9.66-2.59-1.98,.82h0Zm6.96-11.74l-5.18,8.74,.6,1.51,9.66,2.59,1.98-.82,5.18-8.74-.6-1.51-9.66-2.59-1.98,.82Zm6.96-11.74l-5.18,8.74,.6,1.51,9.66,2.59,1.98-.82,5.18-8.74-.6-1.51-9.66-2.59-1.98,.82Zm6.96-11.74l-5.18,8.74,.6,1.51,9.66,2.59,1.98-.82,5.18-8.74-.6-1.51-9.66-2.59-1.98,.82Zm6.96-11.74l-5.18,8.74,.6,1.51,9.66,2.59,1.98-.82,5.18-8.74-.6-1.51-9.66-2.59-1.98,.82Zm6.96-11.74l-5.18,8.74,.6,1.51,9.66,2.59,1.98-.82,5.18-8.74-.6-1.51-9.66-2.59-1.98,.82Zm-35.75,85.68l-5.18,8.74,.6,1.51,9.66,2.59,1.98-.82,5.18-8.74-.6-1.51-9.66-2.59-1.98,.82Zm6.96-11.74l-5.18,8.74,.6,1.51,9.66,2.59,1.98-.82,5.18-8.74-.6-1.51-9.66-2.59-1.98,.82Zm6.96-11.74l-5.18,8.74,.6,1.51,9.66,2.59,1.98-.82,5.18-8.74-.6-1.51-9.66-2.59-1.98,.82h0Zm6.96-11.74l-5.18,8.74,.6,1.51,9.66,2.59,1.98-.82,5.18-8.74-.6-1.51-9.66-2.59-1.98,.82Zm6.96-11.74l-5.18,8.74,.6,1.51,9.66,2.59,1.98-.82,5.18-8.74-.6-1.51-9.66-2.59-1.98,.82Zm6.96-11.74l-5.18,8.74,.6,1.51,9.66,2.59,1.98-.82,5.18-8.74-.6-1.51-9.66-2.59-1.98,.82Zm6.96-11.74l-5.18,8.74,.6,1.51,9.66,2.59,1.98-.82,5.18-8.74-.6-1.51-9.66-2.59-1.98,.82Zm6.96-11.74l-5.18,8.74,.6,1.51,9.66,2.59,1.98-.82,5.18-8.74-.6-1.51-9.66-2.59-1.98,.82Z" fill="#1c75bc"/>
          </g>
          <g>
            <polygon points="396.53 65.62 338.27 163.93 394.98 179.12 453.25 80.81 396.53 65.62" fill="#ebebeb"/>
            <path d="M348.41,152.25l-5.18,8.74,.6,1.51,9.66,2.59,1.98-.82,5.18-8.74-.6-1.51-9.66-2.59-1.98,.82Zm6.96-11.74l-5.18,8.74,.6,1.51,9.66,2.59,1.98-.82,5.18-8.74-.6-1.51-9.66-2.59-1.98,.82Zm6.96-11.74l-5.18,8.74,.6,1.51,9.66,2.59,1.98-.82,5.18-8.74-.6-1.51-9.66-2.59-1.98,.82Zm6.96-11.74l-5.18,8.74,.6,1.51,9.66,2.59,1.98-.82,5.18-8.74-.6-1.51-9.66-2.59-1.98,.82Zm6.96-11.74l-5.18,8.74,.6,1.51,9.66,2.59,1.98-.82,5.18-8.74-.6-1.51-9.66-2.59-1.98,.82Zm6.96-11.74l-5.18,8.74,.6,1.51,9.66,2.59,1.98-.82,5.18-8.74-.6-1.51-9.66-2.59-1.98,.82Zm6.96-11.74l-5.18,8.74,.6,1.51,9.66,2.59,1.98-.82,5.18-8.74-.6-1.51-9.66-2.59-1.98,.82Zm6.96-11.74l-5.18,8.74,.6,1.51,9.66,2.59,1.98-.82,5.18-8.74-.6-1.51-9.66-2.59-1.98,.82Zm-35.75,85.68l-5.18,8.74,.6,1.51,9.66,2.59,1.98-.82,5.18-8.74-.6-1.51-9.66-2.59-1.98,.82Zm6.96-11.74l-5.18,8.74,.6,1.51,9.66,2.59,1.98-.82,5.18-8.74-.6-1.51-9.66-2.59-1.98,.82Zm6.96-11.74l-5.18,8.74,.6,1.51,9.66,2.59,1.98-.82,5.18-8.74-.6-1.51-9.66-2.59-1.98,.82Zm6.96-11.74l-5.18,8.74,.6,1.51,9.66,2.59,1.98-.82,5.18-8.74-.6-1.51-9.66-2.59-1.98,.82h0Zm6.96-11.74l-5.18,8.74,.6,1.51,9.66,2.59,1.98-.82,5.18-8.74-.6-1.51-9.66-2.59-1.98,.82Zm6.96-11.74l-5.18,8.74,.6,1.51,9.66,2.59,1.98-.82,5.18-8.74-.6-1.51-9.66-2.59-1.98,.82Zm6.96-11.74l-5.18,8.74,.6,1.51,9.66,2.59,1.98-.82,5.18-8.74-.6-1.51-9.66-2.59-1.98,.82Zm6.96-11.74l-5.18,8.74,.6,1.51,9.66,2.59,1.98-.82,5.18-8.74-.6-1.51-9.66-2.59-1.98,.82Zm-35.75,85.68l-5.18,8.74,.6,1.51,9.66,2.59,1.98-.82,5.18-8.74-.6-1.51-9.66-2.59-1.98,.82Zm6.96-11.74l-5.18,8.74,.6,1.51,9.66,2.59,1.98-.82,5.18-8.74-.6-1.51-9.66-2.59-1.98,.82Zm6.96-11.74l-5.18,8.74,.6,1.51,9.66,2.59,1.98-.82,5.18-8.74-.6-1.51-9.66-2.59-1.98,.82Zm6.96-11.74l-5.18,8.74,.6,1.51,9.66,2.59,1.98-.82,5.18-8.74-.6-1.51-9.66-2.59-1.98,.82h0Zm6.96-11.74l-5.18,8.74,.6,1.51,9.66,2.59,1.98-.82,5.18-8.74-.6-1.51-9.66-2.59-1.98,.82Zm6.96-11.74l-5.18,8.74,.6,1.51,9.66,2.59,1.98-.82,5.18-8.74-.6-1.51-9.66-2.59-1.98,.82Zm6.96-11.74l-5.18,8.74,.6,1.51,9.66,2.59,1.98-.82,5.18-8.74-.6-1.51-9.66-2.59-1.98,.82Zm6.96-11.74l-5.18,8.74,.6,1.51,9.66,2.59,1.98-.82,5.18-8.74-.6-1.51-9.66-2.59-1.98,.82Zm-35.75,85.68l-5.18,8.74,.6,1.51,9.66,2.59,1.98-.82,5.18-8.74-.6-1.51-9.66-2.59-1.98,.82Zm6.96-11.74l-5.18,8.74,.6,1.51,9.66,2.59,1.98-.82,5.18-8.74-.6-1.51-9.66-2.59-1.98,.82Zm6.96-11.74l-5.18,8.74,.6,1.51,9.66,2.59,1.98-.82,5.18-8.74-.6-1.51-9.66-2.59-1.98,.82Zm6.96-11.74l-5.18,8.74,.6,1.51,9.66,2.59,1.98-.82,5.18-8.74-.6-1.51-9.66-2.59-1.98,.82h0Zm6.96-11.74l-5.18,8.74,.6,1.51,9.66,2.59,1.98-.82,5.18-8.74-.6-1.51-9.66-2.59-1.98,.82Zm6.96-11.74l-5.18,8.74,.6,1.51,9.66,2.59,1.98-.82,5.18-8.74-.6-1.51-9.66-2.59-1.98,.82Zm6.96-11.74l-5.18,8.74,.6,1.51,9.66,2.59,1.98-.82,5.18-8.74-.6-1.51-9.66-2.59-1.98,.82Zm6.96-11.74l-5.18,8.74,.6,1.51,9.66,2.59,1.98-.82,5.18-8.74-.6-1.51-9.66-2.59-1.98,.82Z" fill="#1c75bc"/>
          </g>
          <g>
            <polygon points="458.44 82.15 400.17 180.46 456.89 195.65 515.15 97.35 458.44 82.15" fill="#ebebeb"/>
            <path d="M410.32,168.78l-5.18,8.74,.6,1.51,9.66,2.59,1.98-.82,5.18-8.74-.6-1.51-9.66-2.59-1.98,.82Zm6.96-11.74l-5.18,8.74,.6,1.51,9.66,2.59,1.98-.82,5.18-8.74-.6-1.51-9.66-2.59-1.98,.82Zm6.96-11.74l-5.18,8.74,.6,1.51,9.66,2.59,1.98-.82,5.18-8.74-.6-1.51-9.66-2.59-1.98,.82Zm6.96-11.74l-5.18,8.74,.6,1.51,9.66,2.59,1.98-.82,5.18-8.74-.6-1.51-9.66-2.59-1.98,.82Zm6.96-11.74l-5.18,8.74,.6,1.51,9.66,2.59,1.98-.82,5.18-8.74-.6-1.51-9.66-2.59-1.98,.82h0Zm6.96-11.74l-5.18,8.74,.6,1.51,9.66,2.59,1.98-.82,5.18-8.74-.6-1.51-9.66-2.59-1.98,.82Zm6.96-11.74l-5.18,8.74,.6,1.51,9.66,2.59,1.98-.82,5.18-8.74-.6-1.51-9.66-2.59-1.98,.82Zm6.96-11.74l-5.18,8.74,.6,1.51,9.66,2.59,1.98-.82,5.18-8.74-.6-1.51-9.66-2.59-1.98,.82Zm-35.75,85.68l-5.18,8.74,.6,1.51,9.66,2.59,1.98-.82,5.18-8.74-.6-1.51-9.66-2.59-1.98,.82Zm6.96-11.74l-5.18,8.74,.6,1.51,9.66,2.59,1.98-.82,5.18-8.74-.6-1.51-9.66-2.59-1.98,.82Zm6.96-11.74l-5.18,8.74,.6,1.51,9.66,2.59,1.98-.82,5.18-8.74-.6-1.51-9.66-2.59-1.98,.82Zm6.96-11.74l-5.18,8.74,.6,1.51,9.66,2.59,1.98-.82,5.18-8.74-.6-1.51-9.66-2.59-1.98,.82Zm6.96-11.74l-5.18,8.74,.6,1.51,9.66,2.59,1.98-.82,5.18-8.74-.6-1.51-9.66-2.59-1.98,.82h0Zm6.96-11.74l-5.18,8.74,.6,1.51,9.66,2.59,1.98-.82,5.18-8.74-.6-1.51-9.66-2.59-1.98,.82Zm6.96-11.74l-5.18,8.74,.6,1.51,9.66,2.59,1.98-.82,5.18-8.74-.6-1.51-9.66-2.59-1.98,.82Zm6.96-11.74l-5.18,8.74,.6,1.51,9.66,2.59,1.98-.82,5.18-8.74-.6-1.51-9.66-2.59-1.98,.82Zm-35.75,85.68l-5.18,8.74,.6,1.51,9.66,2.59,1.98-.82,5.18-8.74-.6-1.51-9.66-2.59-1.98,.82Zm6.96-11.74l-5.18,8.74,.6,1.51,9.66,2.59,1.98-.82,5.18-8.74-.6-1.51-9.66-2.59-1.98,.82Zm6.96-11.74l-5.18,8.74,.6,1.51,9.66,2.59,1.98-.82,5.18-8.74-.6-1.51-9.66-2.59-1.98,.82Zm6.96-11.74l-5.18,8.74,.6,1.51,9.66,2.59,1.98-.82,5.18-8.74-.6-1.51-9.66-2.59-1.98,.82Zm6.96-11.74l-5.18,8.74,.6,1.51,9.66,2.59,1.98-.82,5.18-8.74-.6-1.51-9.66-2.59-1.98,.82Zm6.96-11.74l-5.18,8.74,.6,1.51,9.66,2.59,1.98-.82,5.18-8.74-.6-1.51-9.66-2.59-1.98,.82Zm6.96-11.74l-5.18,8.74,.6,1.51,9.66,2.59,1.98-.82,5.18-8.74-.6-1.51-9.66-2.59-1.98,.82Zm6.96-11.74l-5.18,8.74,.6,1.51,9.66,2.59,1.98-.82,5.18-8.74-.6-1.51-9.66-2.59-1.98,.82Zm-35.75,85.68l-5.18,8.74,.6,1.51,9.66,2.59,1.98-.82,5.18-8.74-.6-1.51-9.66-2.59-1.98,.82Zm6.96-11.74l-5.18,8.74,.6,1.51,9.66,2.59,1.98-.82,5.18-8.74-.6-1.51-9.66-2.59-1.98,.82Zm6.96-11.74l-5.18,8.74,.6,1.51,9.66,2.59,1.98-.82,5.18-8.74-.6-1.51-9.66-2.59-1.98,.82Zm6.96-11.74l-5.18,8.74,.6,1.51,9.66,2.59,1.98-.82,5.18-8.74-.6-1.51-9.66-2.59-1.98,.82Zm6.96-11.74l-5.18,8.74,.6,1.51,9.66,2.59,1.98-.82,5.18-8.74-.6-1.51-9.66-2.59-1.98,.82Zm6.96-11.74l-5.18,8.74,.6,1.51,9.66,2.59,1.98-.82,5.18-8.74-.6-1.51-9.66-2.59-1.98,.82h0Zm6.96-11.74l-5.18,8.74,.6,1.51,9.66,2.59,1.98-.82,5.18-8.74-.6-1.51-9.66-2.59-1.98,.82Zm6.96-11.74l-5.18,8.74,.6,1.51,9.66,2.59,1.98-.82,5.18-8.74-.6-1.51-9.66-2.59-1.98,.82Z" fill="#1c75bc"/>
          </g>
          <polygon points="525.64 98.07 272.18 151.42 333.23 46.59 525.64 98.07" fill="#fff" isolation="isolate" opacity=".2"/>
        </g>
      </g>
      <polygon points="1.42 481.24 305.66 575.12 305.66 478.21 1.42 384.33 1.42 481.24" fill="#7d8191" isolation="isolate" opacity=".7"/>
    </g>
    <g>
      <g>
        <path d="M765.17,467.8c0,12.26,38.18,22.19,85.27,22.19s85.27-9.94,85.27-22.19-38.17-22.19-85.27-22.19-85.27,9.94-85.27,22.19Z" fill="#242b52" isolation="isolate" opacity=".1"/>
        <path d="M802.82,468.96c0,8.17,28.63,14.8,63.96,14.8s63.95-6.63,63.95-14.8-28.63-14.8-63.95-14.8-63.96,6.63-63.96,14.8Z" fill="#242b52" isolation="isolate" opacity=".2"/>
      </g>
      <path d="M846.36,449.41c1.92-1.1-2.16-13.03-2.43-21.98,0,0,9.44,16.61,6.5,25.08,4.27,3.1,12,7.73,17.06,10.11,1.08-13.7,1.95-23.18,2.64-29.71,.17-1.65-16.04-30.61-15.21-29.56,6.67,8.41,9.73,9.93,15.35,19.87,1.8,3.18,6.08-25.44,6.08-25.44,2.3,1.84-.32,21.39,.55,25.75,.54,2.77,.82,6.1,1.06,9.64,.26,3.99,.85,13.49,1.33,17.5,4.26-.99,12.47-10.53,22.73-29.14,0,0-7.9,31.84-21.51,35.79,.12,1.53,.2,2.89,.25,4.15,16.57-5.95,46.19-14.64,58.24-24.61,0,0-5.66,14.4-55.41,27.78l-2.1,2.2s-.04,3.34-3.99,3.54c-2.94,.15-6.49-.45-8.08,1.95s-3.29-.6-8.28-3.69c-1.6-.99-4.39-4-4.39-4-19.29-14.67-40.3-37.96-40.3-37.96,4.91,5.42,25.74,18.57,29.89,22.73h.02Z" fill="#43596d"/>
      <g>
        <path d="M789.39,411c5.92-5.5,14.37-6.55,21.44-3.41,4.07-14.78,16.41-25.9,31.46-27.99-4.67-6.67-7.35-14.88-7.1-23.74,.6-21.48,18.08-38.42,39.07-37.82,19.8,.55,35.61,16.52,36.82,36.37,4.31-1.58,8.95-2.41,13.8-2.28,20.97,.59,37.5,18.48,36.9,39.96-.13,4.4-.99,8.59-2.41,12.5,3.3,5.97,5.14,12.88,4.94,20.24-.6,21.48-18.1,38.42-39.08,37.83-6.6-.19-12.73-2.11-18.05-5.3-.33,.34-.58,.7-.93,1.02-9.66,8.95-24.82,8.27-33.88-1.51-1.77-1.9-3.13-4.04-4.18-6.27-6.28,4.24-13.83,6.63-21.9,6.4-4.77-.13-9.28-1.2-13.43-2.96-.62,2.67-1.96,5.19-4.09,7.17-5.83,5.4-15.03,4.96-20.56-.99-3.77-4.08-4.86-9.66-3.32-14.51-5.84,.36-11.84-1.81-16.19-6.5-7.6-8.17-7.28-20.8,.69-28.22h0Z" fill="#00c48b"/>
        <path d="M861.55,341.74c0,3.9,3.16,7.07,7.07,7.07s7.08-3.17,7.08-7.07-3.16-7.08-7.08-7.08-7.07,3.17-7.07,7.08Z" fill="#f1f3be" isolation="isolate" opacity=".3"/>
        <path d="M878.14,338.41c0,1.84,1.49,3.33,3.32,3.33s3.33-1.49,3.33-3.33-1.49-3.32-3.33-3.32-3.32,1.49-3.32,3.32Z" fill="#f1f3be" isolation="isolate" opacity=".3"/>
        <path d="M800.44,413.2c0,1.84,1.49,3.33,3.32,3.33s3.32-1.49,3.32-3.33-1.49-3.32-3.32-3.32-3.32,1.49-3.32,3.32Z" fill="#f1f3be" isolation="isolate" opacity=".3"/>
        <g opacity=".5">
          <path d="M925.22,462.66c-6.6-.19-12.73-2.11-18.05-5.3-.33,.34-.58,.7-.93,1.02-9.66,8.95-24.82,8.27-33.88-1.51-1.77-1.9-3.13-4.04-4.18-6.27-6.28,4.24-13.83,6.63-21.9,6.4-4.77-.13-9.28-1.2-13.43-2.96-.62,2.67-1.96,5.19-4.09,7.17-5.83,5.4-15.03,4.96-20.56-.99-3.77-4.08-4.86-9.66-3.32-14.51-5.84,.36-11.84-1.81-16.19-6.5-6.52-7.01-7.19-17.3-2.22-24.77,2.48,6,6.07,13.39,9.82,16.5,6.79,5.63,14.27-7,21.16-13.78,6.9-6.8,10.08,.68,19.59,5.49,9.51,4.83,18.86-3.83,33.28-8.4s39.39,15.82,47.55,18.56c8.15,2.74,20.37,10.16,35.31,3.37,4.77-2.16,8.28-5.17,10.86-8.27-2.09,19.99-18.87,35.32-38.83,34.76h.01Z" fill="#005a56" isolation="isolate" opacity=".71"/>
          <path d="M840.91,411.78c0,4.5,3.65,8.14,8.14,8.14s8.14-3.64,8.14-8.14-3.64-8.13-8.14-8.13-8.14,3.65-8.14,8.13Z" fill="#005a56" isolation="isolate" opacity=".71"/>
          <path d="M933.17,402.5c0,3.79,3.06,6.84,6.84,6.84s6.84-3.05,6.84-6.84-3.05-6.84-6.84-6.84-6.84,3.06-6.84,6.84Z" fill="#005a56" isolation="isolate" opacity=".71"/>
          <path d="M831.01,409.35c0,2.06,1.67,3.72,3.73,3.72s3.73-1.66,3.73-3.72-1.67-3.73-3.73-3.73-3.73,1.68-3.73,3.73Z" fill="#005a56" isolation="isolate" opacity=".71"/>
          <path d="M949.97,401.88c0,2.06,1.67,3.73,3.73,3.73s3.73-1.67,3.73-3.73-1.67-3.73-3.73-3.73-3.73,1.67-3.73,3.73Z" fill="#005a56" isolation="isolate" opacity=".71"/>
          <path d="M929.27,391.42c0,2.11,1.7,3.82,3.8,3.82s3.82-1.71,3.82-3.82-1.71-3.81-3.82-3.81-3.8,1.71-3.8,3.81Z" fill="#005a56" isolation="isolate" opacity=".71"/>
        </g>
        <path d="M874.25,318.04c19.8,.55,35.61,16.52,36.82,36.37,4.31-1.58,8.95-2.41,13.8-2.28,14.58,.41,26.99,9.19,33.01,21.71-16.41-12.22-42-8.74-54.45-6.03-1.01,.22-2.04-.23-2.57-1.11-.53-.88-.43-2.01,.24-2.79l3.85-4.48c1.2-1.39,1.37-3.39,.43-4.97-5.5-9.23-26.18-37.78-63.19-20.04,7.1-10.22,18.88-16.76,32.06-16.39h0Z" fill="#f1f3be" isolation="isolate" opacity=".3"/>
        <path d="M842.23,379.49c20.97,2.25,35.92,13.89,35.92,13.89,0,0-24.12-6.94-45.85-4.68-3.07,.32-8.06,1.52-12.98,3.3,5.89-6.62,13.93-11.15,22.97-12.4-.02-.04-.04-.07-.07-.11h.01Z" fill="#f1f3be" isolation="isolate" opacity=".3"/>
        <path d="M883.64,432.8c0,3.9,3.16,7.07,7.07,7.07s7.07-3.17,7.07-7.07-3.17-7.06-7.07-7.06-7.07,3.16-7.07,7.06Z" fill="#00c48b"/>
        <path d="M881.46,420.87c0,1.84,1.49,3.33,3.33,3.33s3.33-1.49,3.33-3.33-1.49-3.32-3.33-3.32-3.33,1.49-3.33,3.32Z" fill="#00c48b"/>
      </g>
    </g>
  </g>
</svg>