<svg width="48" height="26" viewBox="0 0 48 26" fill="none" xmlns="http://www.w3.org/2000/svg">
<path d="M2.34009 25.2399C2.28009 25.2099 2.2201 25.1799 2.1601 25.1499C0.730101 24.8099 -0.15991 23.3699 0.18009 21.9299C0.24009 21.6899 0.330094 21.4599 0.450094 21.2399C1.64009 18.8999 2.85009 16.5699 4.06009 14.2399C5.91009 10.6599 7.77009 7.09991 9.59009 3.50991C10.3901 1.73991 12.1901 0.639897 14.1301 0.749897C19.0401 0.769897 23.9501 0.749897 28.8701 0.749897H29.1801C29.8701 0.759897 30.2701 1.09991 30.2601 1.66991C30.2501 2.20991 29.8701 2.51989 29.1801 2.51989C24.2301 2.51989 19.2901 2.51989 14.3401 2.51989H13.8201C12.7001 2.51989 11.6801 3.1699 11.2201 4.1899C9.3001 7.9199 7.3801 11.6499 5.4401 15.3799C4.3301 17.5299 3.2201 19.6799 2.1101 21.8299C1.6001 22.8199 1.99009 23.4599 3.09009 23.4599C5.29009 23.4599 7.48009 23.4599 9.68009 23.4599C9.97009 23.4999 10.2501 23.3299 10.3601 23.0599C11.8501 20.1499 13.3501 17.2499 14.8601 14.3599C15.0301 14.0299 15.0601 13.8899 14.6001 13.9099C13.6001 13.9399 12.5901 13.9199 11.5901 13.9099C10.9701 13.9099 10.5901 13.5699 10.5801 13.0399C10.5801 12.5499 10.9701 12.1499 11.4601 12.1399C11.5001 12.1399 11.5301 12.1399 11.5701 12.1399C12.9001 12.1299 14.2301 12.1199 15.5701 12.1399C15.8401 12.1699 16.1001 12.0099 16.2001 11.7499C17.2001 9.7799 18.2201 7.8199 19.2401 5.8499C19.3001 5.7299 19.3601 5.59991 19.4401 5.47991C19.6801 5.04991 20.2201 4.8899 20.6401 5.1299C21.0601 5.3499 21.2101 5.87991 20.9901 6.28991C20.5701 7.13991 20.1201 7.9799 19.6901 8.8199L18.0301 12.0299C18.1801 12.1099 18.3501 12.1399 18.5101 12.1099C21.6701 12.1099 24.8401 12.1099 28.0101 12.1199C28.3401 12.1499 28.6401 11.9599 28.7501 11.6499C30.4701 8.28989 32.2301 4.9199 33.9501 1.5299C34.1701 0.989895 34.7201 0.659898 35.3001 0.719898C38.5301 0.739898 41.7701 0.719908 45.0001 0.729908C46.3701 0.649908 47.5901 1.61991 47.8201 2.97991C47.9201 3.66991 47.7801 4.3699 47.4201 4.9699C45.3101 9.0499 43.2001 13.1299 41.0901 17.2099C40.1801 18.9699 39.2501 20.7299 38.3601 22.4999C37.7501 23.8699 36.5001 24.8399 35.0301 25.1199C34.9801 25.1399 34.9401 25.1699 34.9001 25.1999H2.31009L2.34009 25.2399ZM40.7301 13.9399H34.1101C33.6401 13.9999 33.2001 13.6699 33.1401 13.1899C33.1301 13.1099 33.1401 13.0199 33.1401 12.9399C33.2001 12.4499 33.5701 12.1799 34.2001 12.1799C36.5501 12.1799 38.9001 12.1699 41.2601 12.1799C41.5701 12.2199 41.8601 12.0399 41.9701 11.7499C43.2501 9.2299 44.5601 6.70991 45.8601 4.19991C46.4001 3.15991 46.0101 2.53991 44.8201 2.53991C41.9201 2.53991 39.0101 2.5399 36.1001 2.5299C35.7101 2.4799 35.3301 2.6999 35.1901 3.0699C33.1801 7.0099 31.1401 10.9299 29.1101 14.8599C28.2101 16.6099 27.3101 18.3599 26.3901 20.1099C26.2301 20.5799 25.7201 20.8199 25.2501 20.6599C24.7801 20.4999 24.5401 19.9899 24.7001 19.5199C24.7301 19.4299 24.7701 19.3499 24.8301 19.2799C25.6501 17.6799 26.4801 16.0899 27.3001 14.4899C27.3801 14.3299 27.5301 14.1799 27.4901 13.9399H27.0301C23.8801 13.9399 20.7301 13.9399 17.5901 13.9399C17.2701 13.8999 16.9601 14.0899 16.8401 14.3899C15.3801 17.2499 13.8901 20.0999 12.4201 22.9599C12.3401 23.1199 12.1801 23.2599 12.2501 23.4899H12.7201C19.7901 23.4899 26.8701 23.4899 33.9401 23.4899C35.1701 23.5599 36.3101 22.8599 36.8101 21.7399C38.0401 19.3099 39.3101 16.8899 40.5601 14.4599C40.6801 14.3199 40.7401 14.1299 40.7301 13.9399Z" fill="#000F52"/>
</svg>
