<?xml version="1.0" standalone="no"?>
<!DOCTYPE svg PUBLIC "-//W3C//DTD SVG 20010904//EN"
 "http://www.w3.org/TR/2001/REC-SVG-20010904/DTD/svg10.dtd">
<svg version="1.0" xmlns="http://www.w3.org/2000/svg"
 width="512.000000pt" height="512.000000pt" viewBox="0 0 512.000000 512.000000"
 preserveAspectRatio="xMidYMid meet">

<g transform="translate(0.000000,512.000000) scale(0.100000,-0.100000)"
fill="#000000" stroke="none">
<path d="M833 5101 c-26 -12 -52 -35 -70 -62 -25 -38 -28 -52 -31 -145 l-4
-104 -272 0 c-263 0 -272 -1 -321 -24 -59 -27 -96 -67 -120 -129 -14 -37 -16
-83 -13 -342 l3 -300 26 -43 25 -44 -28 -55 -28 -56 0 -1576 0 -1576 24 -50
c13 -27 34 -60 47 -72 35 -32 109 -63 152 -63 l37 0 0 -140 c0 -95 4 -151 13
-173 20 -47 64 -95 111 -120 l41 -22 1195 -3 c844 -2 1203 1 1221 8 25 11 49
47 49 74 0 7 -9 25 -21 40 l-20 26 -1185 0 c-1261 0 -1230 -1 -1248 45 -3 9
-6 73 -6 141 l0 124 2150 0 2150 0 0 -124 c0 -68 -3 -132 -6 -141 -18 -45 -18
-45 -819 -45 -742 0 -755 0 -775 -20 -30 -30 -27 -83 7 -110 26 -21 27 -21
803 -18 l777 3 48 30 c27 17 63 50 80 74 30 42 30 44 33 197 l3 154 37 0 c44
0 128 38 159 71 12 13 31 44 42 69 20 45 21 56 21 1621 l0 1576 -28 56 -28 55
25 44 26 43 3 300 c3 259 1 305 -13 342 -24 62 -61 102 -120 129 -49 23 -58
24 -321 24 l-272 0 -4 104 c-3 93 -6 107 -31 145 -55 83 -37 81 -660 81 -471
0 -553 -2 -584 -15 -86 -36 -113 -89 -113 -220 l0 -95 -440 0 -440 0 0 95 c0
131 -27 184 -113 220 -31 13 -113 15 -584 15 -517 0 -550 -2 -590 -19z m1135
-223 l3 -88 -546 0 -545 0 0 78 c0 48 5 83 12 90 9 9 138 12 543 10 l530 -3 3
-87z m2260 80 c7 -7 12 -43 12 -90 l0 -78 -545 0 -545 0 0 83 c0 46 3 87 7 90
3 4 243 7 533 7 396 0 529 -3 538 -12z m717 -344 l25 -27 0 -274 0 -275 -29
-29 -29 -29 -2352 0 -2352 0 -29 29 -29 29 0 277 0 276 25 24 24 25 2361 0
2361 0 24 -26z m0 -809 l25 -24 0 -1561 0 -1561 -25 -24 -24 -25 -2361 0
-2361 0 -24 25 -25 24 0 1561 0 1561 25 24 24 25 2361 0 2361 0 24 -25z"/>
<path d="M980 4555 c-103 -32 -174 -131 -174 -245 0 -100 46 -176 135 -225
140 -76 319 -2 364 149 19 63 19 90 -1 155 -21 73 -92 144 -165 165 -63 19
-99 19 -159 1z m136 -154 c92 -56 51 -195 -58 -195 -45 -1 -93 40 -102 86 -8
41 18 93 57 112 42 21 66 20 103 -3z"/>
<path d="M1713 4556 c-102 -32 -175 -132 -176 -241 -1 -122 70 -216 190 -251
128 -37 270 41 308 170 30 100 9 183 -65 257 -71 71 -163 94 -257 65z m127
-151 c32 -17 60 -61 60 -95 0 -37 -30 -81 -65 -96 -124 -52 -212 131 -91 190
39 20 60 20 96 1z"/>
<path d="M3249 4554 c-67 -20 -133 -83 -158 -150 -25 -65 -26 -103 -6 -170 45
-151 217 -222 360 -149 207 106 174 412 -51 474 -51 14 -88 13 -145 -5z m126
-149 c122 -59 35 -243 -90 -191 -35 15 -65 59 -65 96 0 51 54 109 103 110 11
0 34 -7 52 -15z"/>
<path d="M3976 4554 c-68 -21 -139 -94 -160 -165 -20 -65 -20 -92 -1 -155 45
-151 224 -225 364 -149 88 49 135 125 135 225 0 114 -72 214 -178 245 -61 18
-97 18 -160 -1z m128 -148 c40 -17 70 -72 60 -113 -9 -37 -50 -81 -84 -88 -60
-13 -130 44 -130 105 0 51 54 109 103 110 10 0 32 -6 51 -14z"/>
<path d="M692 3379 c-28 -14 -51 -36 -67 -64 -24 -39 -25 -50 -25 -190 0 -130
2 -152 21 -184 34 -61 80 -85 171 -90 l78 -3 0 -842 c0 -967 -4 -916 83 -1001
32 -31 68 -55 93 -63 60 -18 2968 -18 3028 0 25 8 61 32 93 63 87 85 83 33 83
1002 l0 843 67 0 c86 0 138 25 176 82 26 41 27 45 27 192 0 141 -1 152 -25
192 -16 28 -39 49 -68 63 -43 21 -47 21 -1166 21 l-1122 0 -24 -25 c-30 -29
-32 -64 -6 -96 l19 -24 1119 -5 1118 -5 0 -120 0 -120 -1805 0 -1805 0 0 120
0 120 548 5 549 5 19 24 c26 32 24 67 -6 96 l-24 25 -553 0 c-543 0 -554 0
-596 -21z m3408 -1364 c0 -899 1 -882 -51 -919 -21 -15 -150 -16 -1489 -16
-1339 0 -1468 1 -1489 16 -52 37 -51 20 -51 919 l0 835 1540 0 1540 0 0 -835z"/>
<path d="M1637 2478 c-193 -202 -212 -234 -162 -283 41 -42 71 -33 137 36 147
154 218 240 218 263 0 38 -36 76 -73 76 -27 0 -45 -13 -120 -92z"/>
<path d="M1807 2278 c-296 -321 -287 -311 -287 -345 0 -37 36 -73 73 -73 34 0
47 13 278 265 101 110 202 221 226 247 30 33 43 56 43 76 0 38 -37 72 -78 72
-28 0 -54 -25 -255 -242z"/>
</g>
</svg>
