<svg width="386" height="303" viewBox="0 0 386 303" fill="none" xmlns="http://www.w3.org/2000/svg">
<path opacity="0.3" d="M96.4358 205.988C43.1759 152.787 43.1759 66.5308 96.4358 13.3295C149.696 -39.8718 236.047 -39.8719 289.307 13.3295C342.567 66.5308 342.567 152.787 289.307 205.988C236.047 259.19 149.696 259.19 96.4358 205.988Z" fill="white"/>
<path opacity="0.2" d="M119.434 183.016C78.8752 142.502 78.8752 76.816 119.434 36.3022C159.992 -4.21166 225.75 -4.21168 266.309 36.3022C306.867 76.816 306.867 142.502 266.309 183.016C225.75 223.53 159.992 223.53 119.434 183.016Z" fill="#FFFFA8"/>
<path d="M192.869 164.474C162.56 164.474 137.99 139.93 137.99 109.654C137.99 79.3785 162.56 54.835 192.869 54.835C223.179 54.835 247.749 79.3785 247.749 109.654C247.749 139.93 223.179 164.474 192.869 164.474Z" fill="white"/>
</svg>
