<?xml version="1.0" standalone="no"?>
<!DOCTYPE svg PUBLIC "-//W3C//DTD SVG 20010904//EN"
 "http://www.w3.org/TR/2001/REC-SVG-20010904/DTD/svg10.dtd">
<svg version="1.0" xmlns="http://www.w3.org/2000/svg"
 width="512.000000pt" height="512.000000pt" viewBox="0 0 512.000000 512.000000"
 preserveAspectRatio="xMidYMid meet">

<g transform="translate(0.000000,512.000000) scale(0.100000,-0.100000)"
fill="#000000" stroke="none">
<path d="M2130 4869 c-253 -13 -531 -59 -780 -129 -169 -48 -208 -67 -270
-130 -83 -82 -120 -179 -120 -315 0 -133 29 -196 112 -250 l47 -30 0 -127 1
-128 -248 0 c-216 0 -259 -3 -328 -20 -209 -53 -374 -188 -469 -385 -78 -161
-75 -98 -75 -1412 0 -774 4 -1181 10 -1205 16 -55 69 -119 123 -147 41 -21 65
-25 172 -29 l125 -5 72 -133 c96 -181 93 -179 298 -179 205 0 202 -2 299 180
l72 135 1149 0 1149 0 72 -135 c97 -182 94 -180 299 -180 205 0 202 -2 299
180 l72 135 88 0 c172 0 248 31 306 124 29 48 30 53 35 205 l5 155 45 8 c60
10 118 52 155 113 l30 48 0 232 0 232 -30 49 c-35 57 -104 103 -164 111 l-41
6 0 291 0 291 188 64 c169 58 191 68 227 106 67 68 82 154 41 240 -50 107 -94
125 -301 125 l-155 0 0 75 c0 275 -161 536 -404 655 -122 60 -191 70 -468 70
l-248 0 1 128 0 127 47 30 c83 54 112 117 112 250 0 186 -84 328 -233 394
-117 53 -401 120 -656 155 -98 14 -458 38 -501 34 -8 0 -80 -4 -160 -9z m625
-183 c242 -32 550 -103 635 -146 85 -44 129 -126 130 -241 0 -93 -18 -124 -80
-134 -25 -4 -47 -16 -60 -32 -19 -25 -20 -41 -20 -359 l0 -334 -1040 0 -1040
0 0 334 c0 318 -1 334 -20 359 -13 16 -35 28 -60 32 -26 4 -47 16 -61 33 -19
24 -21 37 -17 112 6 117 45 188 128 229 41 21 272 82 420 111 342 67 751 81
1085 36z m-1635 -1166 l0 -80 -219 0 -220 0 -20 -26 c-28 -35 -26 -67 3 -101
l24 -28 1632 0 1632 0 24 28 c29 34 31 66 3 101 l-20 26 -220 0 -219 0 0 80 0
80 243 0 c267 0 303 -6 416 -61 89 -44 195 -151 239 -242 64 -134 62 -76 62
-1354 l0 -1162 -24 -28 -24 -28 -2112 0 -2112 0 -24 28 -24 28 0 289 0 290
1736 2 1736 3 24 28 c29 34 31 66 3 101 l-20 26 -1740 0 -1739 0 0 793 c0 872
-1 854 62 984 44 91 150 198 239 242 112 55 141 59 412 60 l247 1 0 -80z
m3822 -737 c23 -21 23 -55 -1 -77 -15 -14 -270 -106 -293 -106 -4 0 -8 45 -8
100 l0 100 142 0 c118 0 145 -3 160 -17z m-243 -1129 c20 -25 21 -40 21 -209
0 -169 -1 -184 -21 -209 -11 -14 -29 -26 -40 -26 -18 0 -19 10 -19 235 0 225
1 235 19 235 11 0 29 -12 40 -26z m-3749 -1174 l-40 -80 -110 0 -110 0 -40 80
-40 80 190 0 190 0 -40 -80z m3040 0 l-40 -80 -110 0 -110 0 -40 80 -40 80
190 0 190 0 -40 -80z"/>
<path d="M2261 4374 c-28 -35 -26 -67 3 -101 24 -28 26 -28 136 -28 110 0 112
0 136 28 29 34 31 66 3 101 -20 25 -23 26 -139 26 -116 0 -119 -1 -139 -26z"/>
<path d="M1621 3894 c-28 -35 -26 -67 3 -101 24 -28 26 -28 136 -28 110 0 112
0 136 28 29 34 31 66 3 101 -20 25 -23 26 -139 26 -116 0 -119 -1 -139 -26z"/>
<path d="M2581 3734 c-28 -35 -26 -67 3 -101 24 -28 26 -28 136 -28 110 0 112
0 136 28 29 34 31 66 3 101 -20 25 -23 26 -139 26 -116 0 -119 -1 -139 -26z"/>
<path d="M610 2933 c-126 -66 -166 -216 -90 -337 95 -150 310 -145 405 9 26
42 30 58 30 120 0 62 -4 78 -30 121 -44 70 -109 107 -194 112 -57 3 -73 0
-121 -25z m183 -144 c46 -49 32 -125 -28 -154 -41 -19 -49 -19 -90 0 -58 28
-73 102 -30 154 42 49 102 49 148 0z"/>
<path d="M1141 2774 c-28 -35 -26 -67 3 -101 l24 -28 192 0 192 0 24 28 c29
34 31 66 3 101 l-20 26 -199 0 -199 0 -20 -26z"/>
<path d="M3861 1494 c-28 -35 -26 -67 3 -101 l24 -28 192 0 192 0 24 28 c29
34 31 66 3 101 l-20 26 -199 0 -199 0 -20 -26z"/>
<path d="M421 1174 c-18 -23 -21 -41 -21 -129 0 -88 3 -106 21 -129 29 -37 89
-37 118 0 18 23 21 41 21 129 0 88 -3 106 -21 129 -16 20 -29 26 -59 26 -30 0
-43 -6 -59 -26z"/>
<path d="M821 1174 c-18 -23 -21 -41 -21 -129 0 -88 3 -106 21 -129 29 -37 89
-37 118 0 18 23 21 41 21 129 0 88 -3 106 -21 129 -16 20 -29 26 -59 26 -30 0
-43 -6 -59 -26z"/>
<path d="M1221 1174 c-18 -23 -21 -41 -21 -129 0 -88 3 -106 21 -129 29 -37
89 -37 118 0 18 23 21 41 21 129 0 88 -3 106 -21 129 -16 20 -29 26 -59 26
-30 0 -43 -6 -59 -26z"/>
<path d="M1621 1174 c-18 -23 -21 -41 -21 -129 0 -88 3 -106 21 -129 29 -37
89 -37 118 0 18 23 21 41 21 129 0 88 -3 106 -21 129 -16 20 -29 26 -59 26
-30 0 -43 -6 -59 -26z"/>
<path d="M2021 1174 c-18 -23 -21 -41 -21 -129 0 -88 3 -106 21 -129 29 -37
89 -37 118 0 18 23 21 41 21 129 0 88 -3 106 -21 129 -16 20 -29 26 -59 26
-30 0 -43 -6 -59 -26z"/>
<path d="M2501 1174 c-18 -23 -21 -41 -21 -129 0 -88 3 -106 21 -129 29 -37
89 -37 118 0 18 23 21 41 21 129 0 88 -3 106 -21 129 -16 20 -29 26 -59 26
-30 0 -43 -6 -59 -26z"/>
<path d="M2901 1174 c-18 -23 -21 -41 -21 -129 0 -88 3 -106 21 -129 29 -37
89 -37 118 0 18 23 21 41 21 129 0 88 -3 106 -21 129 -16 20 -29 26 -59 26
-30 0 -43 -6 -59 -26z"/>
<path d="M3301 1174 c-18 -23 -21 -41 -21 -129 0 -88 3 -106 21 -129 29 -37
89 -37 118 0 18 23 21 41 21 129 0 88 -3 106 -21 129 -16 20 -29 26 -59 26
-30 0 -43 -6 -59 -26z"/>
<path d="M3701 1174 c-18 -23 -21 -41 -21 -129 0 -88 3 -106 21 -129 29 -37
89 -37 118 0 18 23 21 41 21 129 0 88 -3 106 -21 129 -16 20 -29 26 -59 26
-30 0 -43 -6 -59 -26z"/>
<path d="M4101 1174 c-18 -23 -21 -41 -21 -129 0 -88 3 -106 21 -129 29 -37
89 -37 118 0 18 23 21 41 21 129 0 88 -3 106 -21 129 -16 20 -29 26 -59 26
-30 0 -43 -6 -59 -26z"/>
</g>
</svg>
