<?xml version="1.0" encoding="UTF-8"?>
<svg version="1.1" xmlns="http://www.w3.org/2000/svg" width="512" height="512">
<path d="M0 0 C1.107149 -0.00644889 2.21429801 -0.01289778 3.35499698 -0.0195421 C4.56092051 -0.01644489 5.76684405 -0.01334769 7.00931072 -0.01015663 C8.29848972 -0.01468774 9.58766873 -0.01921886 10.91591376 -0.02388728 C14.4879053 -0.03610725 18.05980311 -0.035858 21.63181078 -0.03349853 C25.48673386 -0.03309011 29.34162698 -0.0441319 33.19653606 -0.05361366 C40.7466464 -0.07021904 48.29672551 -0.075723 55.84685258 -0.07683842 C61.98460445 -0.0777891 68.12234603 -0.08190038 74.26009464 -0.08823967 C91.66571899 -0.10585069 109.07131868 -0.11507874 126.47695199 -0.11357872 C127.41508567 -0.11349881 128.35321934 -0.1134189 129.3197813 -0.11333656 C130.728702 -0.11321392 130.728702 -0.11321392 132.16608574 -0.1130888 C147.38833653 -0.1122759 162.61048837 -0.13141486 177.83271054 -0.1596133 C193.46667257 -0.18834571 209.10058635 -0.2021534 224.73457545 -0.20042574 C233.5103172 -0.19976197 242.28595521 -0.2052486 251.06167316 -0.22678185 C258.53348968 -0.24499833 266.00515543 -0.24933715 273.47698454 -0.235763 C277.28777321 -0.22923571 281.09827267 -0.22910722 284.90903378 -0.2464695 C289.04399633 -0.2651148 293.17829013 -0.25263962 297.3132658 -0.23720741 C299.11211286 -0.2526381 299.11211286 -0.2526381 300.94730026 -0.26838052 C310.4708449 -0.18981922 317.74285055 2.05126707 324.84785748 8.54633141 C330.21013908 14.64679723 331.47431412 21.40303514 331.48877811 29.29478931 C331.49142994 30.00702366 331.49408177 30.719258 331.49681395 31.4530752 C331.50450463 33.85188522 331.50506603 36.25064403 331.50566387 38.64946556 C331.50967861 40.38177148 331.51411685 42.11407645 331.51894343 43.84638029 C331.53091284 48.61635016 331.53655819 53.3863099 331.54112458 58.15629184 C331.547079 63.29679457 331.55868897 68.4372852 331.56941509 73.57777977 C331.59393846 85.99447992 331.60856393 98.41118407 331.62147516 110.82790098 C331.62518642 114.33313378 331.62915969 117.83836619 331.63322783 121.3435986 C331.65845805 143.09917288 331.68051639 164.85474777 331.69295597 186.61033344 C331.69588577 191.64946495 331.69884742 196.68859643 331.70186138 201.72772789 C331.70260743 202.98021254 331.70335348 204.23269718 331.70412214 205.52313591 C331.71678675 225.83090611 331.75002524 246.13858898 331.79166321 266.44631832 C331.83403622 287.28276835 331.85764543 308.11917359 331.86287653 328.9556666 C331.86629536 340.66003474 331.87810643 352.36426626 331.91097927 364.06859207 C331.93891694 374.03214658 331.95000667 383.99553647 331.93878381 393.95912712 C331.93358153 399.04535018 331.93658557 404.13122812 331.96124935 409.2174015 C331.98362448 413.87027877 331.98309404 418.52256066 331.96404548 423.17544753 C331.96122895 424.86182034 331.966935 426.54823252 331.98185842 428.23454165 C332.00086765 430.52172871 331.98924476 432.80677137 331.96979618 435.09390736 C331.97115271 436.36570077 331.97250924 437.63749419 331.97390687 438.9478268 C331.18634559 443.13719782 329.62724134 444.62140885 326.35176373 447.25726891 C324.2235899 447.82489586 324.2235899 447.82489586 322.14473248 447.74555016 C321.39385357 447.72943687 320.64297466 447.71332359 319.86934185 447.69672203 C319.10041607 447.6548275 318.33149029 447.61293297 317.53926373 447.56976891 C316.75100201 447.54721031 315.96274029 447.52465172 315.15059185 447.50140953 C313.21682444 447.44281052 311.28404205 447.35313718 309.35176373 447.25726891 C309.36747417 448.02917564 309.38318462 448.80108238 309.39937115 449.59638023 C309.46165979 453.08743552 309.50073546 456.578374 309.53926373 460.06976891 C309.5769688 461.89218102 309.5769688 461.89218102 309.6154356 463.75140953 C309.62510357 464.91478844 309.63477154 466.07816734 309.64473248 467.27680016 C309.66044292 468.35034752 309.67615337 469.42389488 309.6923399 470.52997398 C309.29702577 473.69560416 308.80404539 474.33044829 306.35176373 476.25726891 C303.31540903 476.58014557 300.48853695 476.72529614 297.44941998 476.72601891 C296.13825459 476.73743919 296.13825459 476.73743919 294.80060101 476.74909019 C292.95220578 476.7598938 291.1037495 476.76274323 289.25532818 476.75824547 C286.42771298 476.75727353 283.60281478 476.79888099 280.77559185 476.84320641 C278.97937355 476.84841374 277.18314582 476.85110159 275.38691998 476.85101891 C274.54202511 476.86741417 273.69713024 476.88380943 272.8266325 476.90070152 C271.64036518 476.88674339 271.64036518 476.88674339 270.43013287 476.87250328 C269.3911359 476.87558495 269.3911359 476.87558495 268.3311491 476.87872887 C266.35176373 476.25726891 266.35176373 476.25726891 262.35176373 471.25726891 C262.35176373 463.33726891 262.35176373 455.41726891 262.35176373 447.25726891 C189.75176373 447.25726891 117.15176373 447.25726891 42.35176373 447.25726891 C42.35176373 455.17726891 42.35176373 463.09726891 42.35176373 471.25726891 C38.35176373 476.25726891 38.35176373 476.25726891 36.37237835 476.87872887 C35.67971371 476.87667442 34.98704906 476.87461998 34.27339458 476.87250328 C33.08712727 476.88646141 33.08712727 476.88646141 31.87689495 476.90070152 C30.60955265 476.87610863 30.60955265 476.87610863 29.31660748 476.85101891 C28.004007 476.85107933 28.004007 476.85107933 26.66488934 476.85114098 C24.81817204 476.84578725 22.97145522 476.82821063 21.12495708 476.79926109 C18.2955562 476.75736209 15.46853222 476.75819599 12.6388731 476.76508141 C10.84393466 476.75459025 9.04900849 476.74165254 7.25410748 476.72601891 C6.40718838 476.72581749 5.56026928 476.72561607 4.68768597 476.72540855 C-1.20390043 476.60639498 -1.20390043 476.60639498 -3.37376118 474.90147972 C-5.29914198 472.41753009 -4.9865745 470.37704761 -4.94120502 467.27680016 C-4.93153706 466.11342125 -4.92186909 464.95004234 -4.91190815 463.75140953 C-4.88677143 462.53646812 -4.86163471 461.32152672 -4.83573627 460.06976891 C-4.82220112 458.84322594 -4.80866596 457.61668297 -4.79472065 456.35297203 C-4.75932369 453.32063227 -4.70994387 450.28916895 -4.64823627 447.25726891 C-5.81741596 447.31527672 -6.98659565 447.37328453 -8.19120502 447.43305016 C-9.73934207 447.4799634 -11.28752245 447.52546189 -12.83573627 447.56976891 C-13.60466206 447.61166344 -14.37358784 447.65355797 -15.1658144 447.69672203 C-16.29213276 447.72089195 -16.29213276 447.72089195 -17.44120502 447.74555016 C-18.47023945 447.78482628 -18.47023945 447.78482628 -19.52006245 447.82489586 C-22.94252422 446.91205616 -24.4232214 444.94983009 -26.64823627 442.25726891 C-27.27268076 438.95242947 -27.27268076 438.95242947 -27.27185535 435.1050806 C-27.27852337 434.39259121 -27.28519138 433.68010181 -27.29206145 432.94602183 C-27.30834071 430.55179421 -27.28890187 428.1591919 -27.26969624 425.76500511 C-27.27402405 424.0339686 -27.28053897 422.30293641 -27.2890563 420.57191545 C-27.30608649 415.80981235 -27.29183961 411.04823318 -27.27254152 406.28615749 C-27.25714349 401.15241744 -27.27050902 396.01874281 -27.28028584 390.88500023 C-27.29483084 380.82506633 -27.28255916 370.76533387 -27.26117259 360.70541903 C-27.2371861 348.9933712 -27.23887559 337.28136977 -27.2414785 325.56930283 C-27.24517096 304.67154847 -27.2243249 283.77388911 -27.19022846 262.87616539 C-27.15714844 242.59391439 -27.14296778 222.31176314 -27.14921284 202.0294857 C-27.15597686 179.95312992 -27.15351529 157.87681597 -27.13385344 135.80046636 C-27.13281395 134.63298889 -27.13177446 133.46551143 -27.13070348 132.26265586 C-27.12861256 129.91775699 -27.12650158 127.57285814 -27.12437031 125.2279593 C-27.1174736 117.06282622 -27.11680561 108.89770603 -27.11825275 100.73257065 C-27.1196925 90.78047819 -27.11000109 80.82846709 -27.08630639 70.87640163 C-27.07444561 65.79799917 -27.06732179 60.71971013 -27.07314396 55.64129448 C-27.07831653 50.99210269 -27.06962478 46.34315049 -27.04986936 41.69399969 C-27.04513046 40.01232871 -27.04542848 38.3306344 -27.05127972 36.64896693 C-27.08521698 25.85165705 -26.75006249 17.08656636 -19.64823627 8.25726891 C-13.71635134 2.94778731 -8.11987639 0.01200669 0 0 Z M-7.64823627 18.25726891 C-20.4277605 37.42655524 -11.64823627 64.21865398 -11.64823627 87.25726891 C40.16176373 87.25726891 91.97176373 87.25726891 145.35176373 87.25726891 C145.35176373 63.49726891 145.35176373 39.73726891 145.35176373 15.25726891 C119.1691601 15.16988478 119.1691601 15.16988478 92.98652935 15.11078453 C82.31143661 15.09297416 71.63641484 15.07202101 60.96138287 15.03095055 C53.18728256 15.0010552 45.41323975 14.98169557 37.63908356 14.97500342 C33.52245351 14.97109139 29.40598794 14.96189285 25.28941059 14.94007874 C21.41445106 14.9197114 17.53972374 14.91343557 13.66471577 14.91794586 C12.24291503 14.91712077 10.82110651 14.91115644 9.39935207 14.89965248 C7.45685482 14.88470641 5.51423287 14.89010762 3.57168865 14.89650536 C2.48489472 14.89373998 1.3981008 14.8909746 0.27837372 14.88812542 C-3.18804718 15.32535713 -4.90080908 16.10185646 -7.64823627 18.25726891 Z M159.35176373 15.25726891 C159.35176373 39.01726891 159.35176373 62.77726891 159.35176373 87.25726891 C211.16176373 87.25726891 262.97176373 87.25726891 316.35176373 87.25726891 C320.74152584 50.82260461 320.74152584 50.82260461 312.35176373 18.25726891 C308.60753179 15.31984288 305.83450812 14.88453928 301.1318388 14.89650536 C299.87967068 14.89238136 298.62750256 14.88825737 297.33738995 14.88400841 C295.95765755 14.89462442 294.57792735 14.90552883 293.19819927 14.91669273 C291.7393524 14.91753933 290.28050426 14.91706323 288.82165813 14.91536522 C284.86742256 14.91450509 280.91346043 14.93213358 276.95928836 14.95308709 C272.82465011 14.971851 268.69000548 14.97360411 264.55533123 14.97716331 C256.72850857 14.98648463 248.90181173 15.01109956 241.07504445 15.04121178 C230.49679327 15.08102578 219.91850764 15.09720998 209.34020042 15.11471844 C192.67729396 15.1429206 176.01465301 15.2026895 159.35176373 15.25726891 Z M-11.64823627 102.25726891 C-11.64823627 211.15726891 -11.64823627 320.05726891 -11.64823627 432.25726891 C96.59176373 432.25726891 204.83176373 432.25726891 316.35176373 432.25726891 C316.35176373 323.35726891 316.35176373 214.45726891 316.35176373 102.25726891 C208.11176373 102.25726891 99.87176373 102.25726891 -11.64823627 102.25726891 Z M10.35176373 447.25726891 C10.35176373 451.87726891 10.35176373 456.49726891 10.35176373 461.25726891 C15.96176373 461.25726891 21.57176373 461.25726891 27.35176373 461.25726891 C27.35176373 456.63726891 27.35176373 452.01726891 27.35176373 447.25726891 C21.74176373 447.25726891 16.13176373 447.25726891 10.35176373 447.25726891 Z M277.35176373 447.25726891 C277.35176373 451.87726891 277.35176373 456.49726891 277.35176373 461.25726891 C282.96176373 461.25726891 288.57176373 461.25726891 294.35176373 461.25726891 C294.35176373 456.63726891 294.35176373 452.01726891 294.35176373 447.25726891 C288.74176373 447.25726891 283.13176373 447.25726891 277.35176373 447.25726891 Z " fill="#000000" transform="translate(103.64823627471924,17.74273109436035)"/>
<path d="M0 0 C20.8808008 16.39633351 35.76997439 36.46359271 43.5 62.125 C43.70262451 62.79249268 43.90524902 63.45998535 44.11401367 64.14770508 C53.09555335 95.39387086 47.40909423 127.46916092 32.34106445 155.66894531 C28.83754834 161.95412926 24.6301444 167.34583112 19.8125 172.6875 C19.13960937 173.5021875 18.46671875 174.316875 17.7734375 175.15625 C1.50856837 194.40605766 -20.93469492 205.93494765 -45.1875 211.6875 C-46.27546875 211.95175781 -47.3634375 212.21601563 -48.484375 212.48828125 C-78.47892142 218.32055417 -110.65535865 210.99037346 -136.1875 194.6875 C-163.5179149 175.36994571 -181.27180393 147.84973841 -187.3203125 114.87109375 C-192.28450585 83.3384373 -184.50435153 50.79555216 -165.734375 24.98828125 C-155.19115594 11.02889318 -142.37518677 0.34779113 -127.1875 -8.3125 C-126.26710937 -8.84746094 -125.34671875 -9.38242188 -124.3984375 -9.93359375 C-118.22675976 -13.28020773 -111.87986371 -15.52376669 -105.1875 -17.5625 C-104.38111084 -17.80887207 -103.57472168 -18.05524414 -102.74389648 -18.30908203 C-67.72610244 -28.4849527 -29.38458545 -21.39839772 0 0 Z M-146.78515625 25.94921875 C-158.64110527 39.46307283 -166.87225082 55.19938488 -171.1875 72.6875 C-171.41179687 73.57695312 -171.63609375 74.46640625 -171.8671875 75.3828125 C-177.32776492 101.6384656 -171.26492667 129.16361732 -157.1875 151.6875 C-141.73694359 174.47790858 -119.98970005 190.07397012 -93.1875 196.6875 C-92.29804688 196.91179687 -91.40859375 197.13609375 -90.4921875 197.3671875 C-64.2365344 202.82776492 -36.71138268 196.76492667 -14.1875 182.6875 C8.60290858 167.23694359 24.19897012 145.48970005 30.8125 118.6875 C31.03679687 117.79804688 31.26109375 116.90859375 31.4921875 115.9921875 C36.95413284 89.72995715 30.88432265 62.21916841 16.8125 39.6875 C1.36265952 16.79154362 -20.3841265 1.45637224 -47.1875 -5.3125 C-48.07953125 -5.53808594 -48.9715625 -5.76367188 -49.890625 -5.99609375 C-85.504179 -13.37318708 -121.98817826 0.10731138 -146.78515625 25.94921875 Z " fill="#000000" transform="translate(326.1875,189.3125)"/>
<path d="M0 0 C2.55535371 2.22955593 5.00056483 4.52808965 7.41796875 6.90625 C8.19140625 7.66679687 8.96484375 8.42734375 9.76171875 9.2109375 C24.74736615 24.86375414 31.83543388 45.80587123 31.71850586 67.29199219 C31.15904636 90.02160231 22.36978039 109.69120714 6.41796875 125.90625 C5.65742188 126.6796875 4.896875 127.453125 4.11328125 128.25 C-11.66482856 143.35560021 -32.71803262 150.33352023 -54.37646484 150.20678711 C-76.92692959 149.61110438 -96.51904771 140.70847082 -112.58203125 124.90625 C-113.35546875 124.14570313 -114.12890625 123.38515625 -114.92578125 122.6015625 C-130.28446434 106.55910243 -136.98266404 85.35752811 -136.88476562 63.40380859 C-136.33003428 40.37732125 -126.57468004 20.92164794 -110.58203125 4.90625 C-109.85113281 4.16375 -109.12023437 3.42125 -108.3671875 2.65625 C-79.27076348 -25.08559189 -30.60823672 -24.81999226 0 0 Z M-106.33203125 22.09375 C-117.99182986 37.01327726 -122.65682426 54.12668488 -121.58203125 72.90625 C-119.71129071 86.4728015 -115.06411065 98.16228276 -106.58203125 108.90625 C-105.96328125 109.69 -105.34453125 110.47375 -104.70703125 111.28125 C-93.30857307 124.88586138 -76.94566878 132.42259046 -59.58203125 134.90625 C-41.03176447 136.10007905 -24.22878596 131.37540369 -9.58203125 119.90625 C-8.88335937 119.37257813 -8.1846875 118.83890625 -7.46484375 118.2890625 C5.28865694 107.91753859 12.7566873 92.4868532 16.10546875 76.65625 C17.76412124 56.75242016 13.93075956 38.75578503 1.41796875 22.90625 C0.79921875 22.1225 0.18046875 21.33875 -0.45703125 20.53125 C-11.72616082 7.08099857 -28.29876899 -0.9797029 -45.58203125 -3.09375 C-69.33268416 -4.75711375 -90.57214106 3.995124 -106.33203125 22.09375 Z " fill="#000000" transform="translate(308.58203125,219.09375)"/>
<path d="M0 0 C1.51038597 -0.01292336 1.51038597 -0.01292336 3.05128479 -0.02610779 C6.38218845 -0.0488239 9.71225459 -0.04201802 13.04321289 -0.03295898 C15.35722606 -0.03819224 17.6712371 -0.04446761 19.98524475 -0.05174255 C24.83661939 -0.06215737 29.68770091 -0.05756982 34.5390625 -0.04296875 C40.75812156 -0.02578425 46.97625646 -0.04926739 53.19521236 -0.08445835 C57.97447338 -0.10641272 62.75351263 -0.10499546 67.5328083 -0.09669304 C69.82575048 -0.09587236 72.11870876 -0.10275787 74.41160393 -0.11746407 C77.6174292 -0.13487185 80.82158582 -0.12039712 84.02734375 -0.09765625 C84.97556 -0.10934845 85.92377625 -0.12104065 86.90072632 -0.13308716 C91.42316228 -0.06777212 93.45211558 0.064154 97.16612244 2.8473053 C99.63170953 6.31072712 99.80164327 9.17527929 99.74243164 13.28344727 C99.74721527 14.01917969 99.7519989 14.75491211 99.75692749 15.51293945 C99.76031794 17.06276599 99.75117506 18.61266488 99.73022461 20.16235352 C99.70343916 22.52726513 99.72999331 24.88743228 99.76196289 27.25219727 C99.75865863 28.76262435 99.75225204 30.27304849 99.74243164 31.78344727 C99.75761337 32.83677246 99.75761337 32.83677246 99.77310181 33.91137695 C99.69003113 37.41212901 99.20483102 39.35642858 97.15939331 42.21958923 C92.8190514 45.47919852 89.43058209 45.23060995 84.13500977 45.16455078 C82.63903511 45.17528374 82.63903511 45.17528374 81.11283875 45.18623352 C77.81963144 45.20312768 74.527784 45.18371272 71.23461914 45.16235352 C68.94445686 45.16318214 66.65429464 45.16564128 64.36413574 45.16966248 C59.56573574 45.17252099 54.76780238 45.15781338 49.96948242 45.13037109 C43.81891087 45.09628886 37.66917381 45.10230637 31.51856232 45.12103367 C26.78990729 45.13160234 22.06144642 45.12266691 17.33280945 45.10764885 C15.06500322 45.10246564 12.79717673 45.1029505 10.52937317 45.1091938 C7.35971476 45.11464418 4.19125083 45.09427525 1.02172852 45.06689453 C0.08443405 45.07342041 -0.85286041 45.07994629 -1.81855774 45.08666992 C-5.9816836 45.02552114 -8.34848439 44.86862713 -12.00364685 42.73106384 C-14.7954712 39.53220534 -14.62169407 36.45658379 -14.55053711 32.40844727 C-14.55415504 31.23258057 -14.55415504 31.23258057 -14.55784607 30.03295898 C-14.55686839 28.37877331 -14.54349337 26.7245546 -14.51855469 25.07055664 C-14.48423916 22.54142906 -14.49789735 20.01579563 -14.51733398 17.48657227 C-14.51043528 15.87718242 -14.50076267 14.26780158 -14.48803711 12.65844727 C-14.49299698 11.90418457 -14.49795685 11.14992188 -14.50306702 10.37280273 C-14.4330178 7.24315076 -14.21887177 4.99566333 -12.50839233 2.33583069 C-8.52465906 -0.43992382 -4.74761988 -0.03260479 0 0 Z M1.07836914 15.53344727 C1.07836914 20.15344727 1.07836914 24.77344727 1.07836914 29.53344727 C28.46836914 29.53344727 55.85836914 29.53344727 84.07836914 29.53344727 C84.07836914 24.91344727 84.07836914 20.29344727 84.07836914 15.53344727 C56.68836914 15.53344727 29.29836914 15.53344727 1.07836914 15.53344727 Z " fill="#000000" transform="translate(127.921630859375,46.466552734375)"/>
<path d="M0 0 C6.11374771 3.66209385 10.39911526 9.58626158 12.328125 16.39453125 C13.39070854 24.81162558 12.25534257 31.41430636 7.328125 38.39453125 C2.71333156 43.69258294 -2.88890645 46.78067432 -9.86328125 47.67578125 C-17.13896678 47.97946204 -23.7143272 46.22218592 -29.484375 41.70703125 C-34.98989241 36.58472851 -37.42979669 30.0257059 -37.921875 22.64453125 C-37.77636394 14.78693423 -34.16690276 7.92635607 -28.671875 2.39453125 C-19.62747452 -3.54942134 -9.91738403 -4.41292403 0 0 Z M-21.546875 17.70703125 C-22.99369916 21.1633334 -22.78449923 22.83413371 -21.671875 26.39453125 C-20.09782326 29.22782439 -18.91624197 30.91429581 -15.83984375 32.1015625 C-12.78039636 32.72749151 -10.64618198 32.92882863 -7.85546875 31.3984375 C-5.66915837 29.62304811 -3.9383239 27.92742904 -2.671875 25.39453125 C-2.41831297 21.50658014 -2.34350934 18.60989336 -4.671875 15.39453125 C-7.20515763 13.4774525 -9.02402798 12.4917083 -12.171875 12.01953125 C-16.4324754 12.65862131 -18.85736655 14.38997083 -21.546875 17.70703125 Z " fill="#000000" transform="translate(322.671875,46.60546875)"/>
<path d="M0 0 C5.78484105 5.08950122 9.54886801 9.9356796 10.2421875 17.71875 C10.5834464 25.66807505 9.5957177 31.91901951 4.234375 38.00390625 C-1.3047886 43.22685776 -6.86046616 46.04740421 -14.5 46.375 C-21.82710325 46.08544094 -28.73558994 43.13632222 -34 38 C-38.92388463 31.57477587 -40.52949115 24.91265117 -39.8125 16.90625 C-38.4875725 9.95038061 -34.44840332 4.03165382 -29.0625 -0.4375 C-19.35245752 -5.3916033 -9.44164974 -5.68317601 0 0 Z M-22 14 C-24.58496848 17.66898752 -25.13222613 19.21986582 -24.375 23.6875 C-22.94297839 27.53392826 -22.94297839 27.53392826 -20 30 C-14.44776449 31.25568603 -14.44776449 31.25568603 -9.125 29.8125 C-5.69740205 26.88896057 -5.13129543 25.03160692 -4.5625 20.5625 C-4.72317957 16.9007504 -4.72317957 16.9007504 -7.0625 14.125 C-12.24443774 10.37636419 -17.00803357 9.70136224 -22 14 Z " fill="#000000" transform="translate(388,48)"/>
<path d="M0 0 C1.875 1.0625 1.875 1.0625 3 3 C3.46645484 7.5868059 3.23925196 10.80547378 1.5 15.0625 C-0.84269898 20.83517929 -0.46725814 25.19426316 1.8125 30.9375 C2.81551734 33.30277138 3.84398168 35.65336799 4.8984375 37.99609375 C9.0266963 47.82625455 8.83062508 58.37808751 5.1484375 68.29296875 C3.65717152 71.62103794 2.37123723 73.68587619 -0.4375 76.0625 C-3.51285776 77.18763089 -4.94095462 77.12701672 -8 76 C-10.47931501 74.31760767 -10.95943701 73.12748368 -11.875 70.25 C-12.03285447 66.14578389 -10.69386903 63.71348211 -9 60 C-6.80834875 50.89621788 -9.87830319 43.69804337 -13.87890625 35.578125 C-18.00233512 26.09567533 -16.18392094 16.35772773 -13.16796875 6.84765625 C-12.04730045 4.11532452 -10.99536242 2.16624988 -9 0 C-5.45026831 -1.1832439 -3.60040463 -0.90010116 0 0 Z " fill="#000000" transform="translate(290,247)"/>
<path d="M0 0 C2.57765144 0.07471453 3.77757942 0.13787126 6 1.5 C7.37458957 3.84488809 7.76391114 5.59840381 8.0625 8.3125 C7.21484375 11.2578125 7.21484375 11.2578125 6 14.4375 C3.59969197 21.78792424 3.88937475 27.42296818 7.03125 34.4921875 C7.70929573 35.81232199 8.40168095 37.12520668 9.109375 38.4296875 C14.17221142 48.43086435 12.48039059 59.16994462 9.328125 69.46484375 C7.97164465 72.51692453 6.61266209 74.18323845 4.0625 76.3125 C1.625 77.25 1.625 77.25 -0.9375 77.3125 C-3.2206838 76.1709081 -5.12762683 75.12237317 -6.9375 73.3125 C-7.25517151 68.78568102 -7.17831439 65.45423099 -5.4375 61.25 C-3.09480102 55.47732071 -3.47024186 51.11823684 -5.75 45.375 C-6.75301734 43.00972862 -7.78148168 40.65913201 -8.8359375 38.31640625 C-12.59461804 29.36628081 -12.86369724 19.54008496 -9.9375 10.3125 C-5.89047745 0.46749821 -5.89047745 0.46749821 0 0 Z " fill="#000000" transform="translate(225.9375,246.6875)"/>
<path d="M0 0 C2.48695054 0.05348281 3.88379953 0.12939977 6.125 1.25 C7.75860988 4.51721976 7.62727987 7.72132498 7.125 11.25 C6.64547253 12.55756397 6.12357558 13.85029834 5.5625 15.125 C3.20519288 20.91111749 3.92739438 26.29562795 6.24609375 32.015625 C7.12333312 33.87943328 8.01268403 35.73758916 8.9140625 37.58984375 C13.65952892 48.01456192 12.97875766 58.65626618 9.125 69.25 C7.63315034 72.33192811 5.97437484 74.61981866 3.1875 76.6875 C0.4506847 77.43390417 -1.19321304 77.14392899 -3.875 76.25 C-5.6875 75.1875 -5.6875 75.1875 -6.875 73.25 C-7.34046786 68.67289939 -7.15966482 65.57155417 -5.3125 61.375 C-2.95519288 55.58888251 -3.67739438 50.20437205 -5.99609375 44.484375 C-6.87333312 42.62056672 -7.76268403 40.76241084 -8.6640625 38.91015625 C-12.87542542 29.65874286 -13.22502966 18.84326674 -9.875 9.25 C-5.19899299 0.3354189 -5.19899299 0.3354189 0 0 Z " fill="#000000" transform="translate(255.875,246.75)"/>
</svg>
