<?xml version="1.0" encoding="UTF-8"?>
<svg version="1.1" xmlns="http://www.w3.org/2000/svg" width="512" height="512">
<path d="M0 0 C2.07980347 1.43113708 2.07980347 1.43113708 4.21826172 3.44702148 C5.09005066 4.26749969 5.9618396 5.08797791 6.86004639 5.93331909 C7.90915019 6.95302882 8.95556941 7.97550429 10 9 C10.61246834 9.5999239 11.22493668 10.19984779 11.85596466 10.8179512 C17.21297108 16.08406508 22.51716915 21.4024063 27.8203125 26.72265625 C29.53215958 28.4363715 31.24422987 30.14986381 32.95651245 31.86314392 C37.43353937 36.34396464 41.90755339 40.82778172 46.38092041 45.31225586 C50.95784003 49.89945749 55.53763897 54.48378253 60.1171875 59.06835938 C69.08092557 68.04277936 78.04157774 77.02027383 87 86 C90.08884308 84.62434743 92.19446528 83.05183663 94.5738678 80.65991211 C95.26499161 79.97009247 95.95611542 79.28027283 96.66818237 78.56954956 C97.41584869 77.81312164 98.16351501 77.05669373 98.93383789 76.27734375 C99.7293959 75.4804715 100.52495392 74.68359924 101.34461975 73.86257935 C103.97525493 71.225449 106.59884815 68.5814215 109.22265625 65.9375 C111.0477042 64.10618257 112.87326764 62.27537873 114.69932556 60.44506836 C119.01634653 56.11609593 123.3292428 51.78305726 127.63982338 47.44767284 C135.81786616 39.22265419 144.00300201 31.00471548 152.1921978 22.790802 C154.88402547 20.08873022 157.57242542 17.38328182 160.26051331 14.67749023 C161.90541269 13.02576431 163.55042119 11.37414704 165.19555664 9.72265625 C165.94524719 8.96622833 166.69493774 8.20980042 167.46734619 7.43045044 C168.15565018 6.7406308 168.84395416 6.05081116 169.55311584 5.34008789 C170.14985139 4.73983292 170.74658693 4.13957794 171.36140537 3.52113342 C175.38646249 -0.21539104 178.27266085 -0.5097872 183.546875 -0.36328125 C186 0 186 0 189.125 1.875 C191.88241117 6.47068529 192.27084036 9.80219171 191 15 C189.49195862 17.15670776 189.49195862 17.15670776 187.41625977 19.35498047 C186.59658722 20.22596375 185.77691467 21.09694702 184.93240356 21.99432373 C183.95723853 22.99845735 182.97960231 24.00019478 182 25 C181.18395357 25.83486309 181.18395357 25.83486309 180.35142136 26.6865921 C175.75714664 31.37005963 171.11249045 36.00241466 166.46484375 40.6328125 C164.97533065 42.12045675 163.48604097 43.60832473 161.9969635 45.09640503 C158.10798241 48.98159766 154.216006 52.8637758 150.32336426 56.74530029 C146.33938774 60.71898309 142.35829809 64.69555589 138.37695312 68.671875 C130.58743304 76.45072263 122.79474051 84.22638371 115 92 C116.65378253 92.00358253 116.65378253 92.00358253 118.34097481 92.00723743 C145.15627428 92.06600776 171.97148373 92.14187532 198.78668404 92.23571491 C211.75426547 92.28069822 224.72181929 92.32010708 237.68945312 92.34643555 C248.99081543 92.36939504 260.29209051 92.4027702 271.59338367 92.44870156 C277.57843441 92.47266131 283.56339862 92.49137209 289.54849625 92.49761391 C295.18077982 92.50365224 300.8128419 92.52360703 306.44504356 92.55427551 C308.51303127 92.56307578 310.5810479 92.56677422 312.64905357 92.56500816 C315.47170641 92.56335861 318.29368151 92.58002779 321.11624146 92.60127258 C321.93531829 92.59642501 322.75439512 92.59157743 323.59829247 92.58658296 C329.82828666 92.66401235 333.87960873 94.17547728 338.6875 98.3125 C342.71832514 102.99697246 344.37393349 107.01097225 344.38311005 113.18202019 C344.39216669 114.40822134 344.40122333 115.63442249 344.41055441 116.89778125 C344.4054506 118.25020445 344.40005854 119.60262658 344.39440918 120.95504761 C344.39929959 122.39820935 344.40549009 123.84136718 344.41286707 125.28451836 C344.42927082 129.24612711 344.42694781 133.20753691 344.4214921 137.16916776 C344.41882244 141.44330873 344.43335249 145.7173966 344.44558716 149.99151611 C344.46664597 158.36346983 344.47118175 166.73535431 344.46939927 175.10733138 C344.46809189 181.9120487 344.4718946 188.71674442 344.47932434 195.52145767 C344.48142353 197.48120598 344.48352113 199.44095429 344.48561716 201.4007026 C344.48718245 202.86381472 344.48718245 202.86381472 344.48877937 204.35648467 C344.50768352 222.8058477 344.50663098 241.25517097 344.49981004 259.70453967 C344.4942343 276.58291669 344.515061 293.46114194 344.54817051 310.33948348 C344.58190242 327.66959533 344.59707647 344.99963445 344.59245348 362.32977974 C344.5902083 372.05956864 344.59545903 381.78921726 344.62034607 391.51897812 C344.64135272 399.80221988 344.6449575 408.08524443 344.62604648 416.36849509 C344.61688473 420.59437942 344.61575881 424.81985868 344.63640213 429.04571152 C344.65509935 432.91599696 344.65062345 436.78554524 344.62785631 440.6558025 C344.62366732 442.05414224 344.62788085 443.45253835 344.64145225 444.8508185 C344.71361535 452.83079045 344.43932082 458.84456955 339 465 C333.02069639 470.82598813 326.94573948 471.22429236 318.94140625 471.17578125 C317.84699219 471.15902344 316.75257813 471.14226562 315.625 471.125 C314.50738281 471.11597656 313.38976562 471.10695313 312.23828125 471.09765625 C309.49196538 471.07418346 306.74609528 471.04134728 304 471 C303.74259033 471.84095215 303.48518066 472.6819043 303.2199707 473.54833984 C301.90665562 477.26409902 300.26846578 480.72437935 298.48046875 484.2265625 C298.14002029 484.89666351 297.79957184 485.56676453 297.44880676 486.25717163 C296.73085561 487.66517203 296.01049275 489.07194503 295.2878418 490.47753906 C294.19007373 492.61997703 293.10960463 494.77059155 292.02929688 496.921875 C291.3265703 498.2948085 290.62282799 499.66722268 289.91796875 501.0390625 C289.60006882 501.67768219 289.28216888 502.31630188 288.95463562 502.97427368 C286.83678109 507.0341837 285.07573557 509.84492646 281 512 C276.88427278 512.59271908 272.80885094 512.58413779 268.65625 512.56640625 C267.45440063 512.57260483 266.25255127 512.57880341 265.01428223 512.58518982 C262.47583831 512.59228683 259.93734784 512.58911616 257.39892578 512.57641602 C253.51377822 512.56254918 249.63103799 512.59662969 245.74609375 512.63476562 C243.27864524 512.6357168 240.81119372 512.63385809 238.34375 512.62890625 C236.60140076 512.64879356 236.60140076 512.64879356 234.82385254 512.66908264 C226.79312934 512.57628566 226.79312934 512.57628566 222.87817383 509.73168945 C221.27500152 507.39997297 219.82252259 505.21405276 218.60546875 502.6640625 C218.20650391 501.84550781 217.80753906 501.02695312 217.39648438 500.18359375 C216.99751953 499.33925781 216.59855469 498.49492187 216.1875 497.625 C212.01390704 488.9444822 207.54264949 480.5174678 203 472 C127.1 472 51.2 472 -27 472 C-32.94 483.55 -38.88 495.1 -45 507 C-50.62613637 512.62613637 -50.62613637 512.62613637 -55.53710938 512.63110352 C-56.62173462 512.64363663 -57.70635986 512.65616974 -58.82385254 512.66908264 C-59.9854187 512.65582443 -61.14698486 512.64256622 -62.34375 512.62890625 C-64.14652405 512.63252419 -64.14652405 512.63252419 -65.98571777 512.63621521 C-68.52420352 512.63523665 -71.06271058 512.62184127 -73.60107422 512.59692383 C-77.48608922 512.56262282 -81.36882911 512.57626544 -85.25390625 512.59570312 C-87.72136385 512.58880458 -90.18881558 512.57913212 -92.65625 512.56640625 C-93.81781616 512.57136612 -94.97938232 512.57632599 -96.17614746 512.58143616 C-104.180868 512.46456129 -104.180868 512.46456129 -108.12182617 510.22949219 C-109.90638375 508.11112746 -111.21110983 506.25937108 -112.39453125 503.76171875 C-112.78914551 502.94815918 -113.18375977 502.13459961 -113.59033203 501.29638672 C-113.99364746 500.4354541 -114.39696289 499.57452148 -114.8125 498.6875 C-115.67913893 496.89103313 -116.54765059 495.09546856 -117.41796875 493.30078125 C-117.84770996 492.40955566 -118.27745117 491.51833008 -118.72021484 490.60009766 C-120.90469584 486.16195904 -123.27226515 481.82442654 -125.66333008 477.49487305 C-128 473.20763401 -128 473.20763401 -128 471 C-128.68513672 471.01571045 -129.37027344 471.0314209 -130.07617188 471.04760742 C-133.21736203 471.11044183 -136.35841939 471.14914349 -139.5 471.1875 C-141.11648437 471.22520508 -141.11648437 471.22520508 -142.765625 471.26367188 C-149.9743172 471.32960504 -156.23692754 471.13105064 -162.0234375 466.31640625 C-162.46945313 465.73761719 -162.91546875 465.15882813 -163.375 464.5625 C-163.83648437 463.98628906 -164.29796875 463.41007812 -164.7734375 462.81640625 C-167.50091571 458.77730636 -168.25044512 455.98020935 -168.25447559 451.05848885 C-168.26030779 449.83503639 -168.26613998 448.61158394 -168.27214891 447.35105717 C-168.26851561 445.991372 -168.26469123 444.63168733 -168.26069641 443.27200317 C-168.26371609 441.82914497 -168.26760465 440.38628836 -168.27228898 438.9434346 C-168.28260146 434.97347737 -168.28037891 431.00361011 -168.27610838 427.03364539 C-168.27364703 422.75406903 -168.28264799 418.47451466 -168.29014587 414.19494629 C-168.30291157 405.80869144 -168.30468422 397.42246859 -168.30234561 389.03620566 C-168.30056431 382.22094007 -168.30230806 375.4056842 -168.30657005 368.59041977 C-168.30746284 367.13676656 -168.30746284 367.13676656 -168.30837366 365.65374663 C-168.30958538 363.68515715 -168.31079951 361.71656767 -168.31201603 359.7479782 C-168.32289887 341.27579936 -168.32072562 322.80363878 -168.31463119 304.33145891 C-168.30946188 287.42577692 -168.32071651 270.52015254 -168.33972941 253.61448194 C-168.35909314 236.26411047 -168.36736635 218.91376628 -168.36360615 201.56338394 C-168.36169182 191.81913411 -168.36420424 182.07493332 -168.37832069 172.33069229 C-168.39021685 164.03494499 -168.3916593 155.73927691 -168.37953053 147.44352855 C-168.37362928 143.20989885 -168.37257667 138.97641419 -168.38453293 134.74279404 C-168.39534942 130.86776092 -168.39233916 126.99299467 -168.37827124 123.11797427 C-168.37561258 121.71557389 -168.37802741 120.31315289 -168.38600711 118.9107727 C-168.39609944 117.00493596 -168.38590844 115.09902411 -168.37473011 113.19319344 C-168.37478513 112.13442312 -168.37484014 111.07565281 -168.37489682 109.98479855 C-167.61345317 103.92244815 -164.53964424 99.90620551 -160 96 C-154.91947246 92.85062555 -150.9065996 92.56700327 -145.11624146 92.60127258 C-144.23315115 92.59462576 -143.35006084 92.58797893 -142.44021022 92.58113068 C-139.48752878 92.56251028 -136.53525291 92.56510535 -133.58251953 92.56762695 C-131.46342904 92.55860922 -129.34434377 92.54828198 -127.2252655 92.53674316 C-121.47579042 92.50914848 -115.72641424 92.49988524 -109.9768815 92.49388909 C-103.96704082 92.48451191 -97.95727421 92.45830902 -91.94747925 92.43388367 C-80.56854344 92.39019701 -69.189622 92.3616633 -57.81062782 92.33856028 C-44.85543259 92.31152027 -31.9003118 92.26760798 -18.94516969 92.22227156 C7.70317987 92.12939422 34.35155276 92.05772758 61 92 C60.07736359 91.0795842 59.15472717 90.1591684 58.20413208 89.21086121 C49.51961722 80.54659704 40.83772808 71.87970955 32.15841866 63.21023083 C27.69596581 58.75300189 23.23258529 54.29671015 18.76708984 49.8425293 C14.4596169 45.54590264 10.15457429 41.24685484 5.85122299 36.94610023 C4.20701732 35.30374565 2.56193015 33.66227308 0.9159584 32.02168846 C-1.38501096 29.72795255 -3.68285774 27.43113222 -5.97998047 25.13354492 C-6.66474457 24.4523761 -7.34950867 23.77120728 -8.05502319 23.06939697 C-8.68041992 22.44262558 -9.30581665 21.81585419 -9.95016479 21.17008972 C-10.49402266 20.62715365 -11.03788052 20.08421759 -11.59821892 19.52482891 C-15.26081743 15.54072885 -15.5074598 12.64355278 -15.36328125 7.453125 C-15 5 -15 5 -13.125 1.875 C-8.52421152 -0.88547309 -5.20370219 -1.26013117 0 0 Z M-148 113 C-148 224.21 -148 335.42 -148 450 C7.76 450 163.52 450 324 450 C324 338.79 324 227.58 324 113 C168.24 113 12.48 113 -148 113 Z M-104 471 C-102.30497111 476.14341606 -102.30497111 476.14341606 -100.0546875 480.8671875 C-99.57491455 481.75833252 -99.57491455 481.75833252 -99.08544922 482.66748047 C-98.48627686 483.76020264 -98.48627686 483.76020264 -97.875 484.875 C-96.59625 487.22625 -95.3175 489.5775 -94 492 C-83.11 492 -72.22 492 -61 492 C-59.35 488.720625 -57.7 485.44125 -56 482.0625 C-55.47792969 481.02746338 -54.95585938 479.99242676 -54.41796875 478.92602539 C-54.01191406 478.11641357 -53.60585937 477.30680176 -53.1875 476.47265625 C-52.55908203 475.22367554 -52.55908203 475.22367554 -51.91796875 473.94946289 C-50.92899745 472.20834383 -50.92899745 472.20834383 -51 471 C-68.49 471 -85.98 471 -104 471 Z M227 471 C231.92585192 481.53609336 231.92585192 481.53609336 237 492 C247.89 492 258.78 492 270 492 C271.65 488.90625 273.3 485.8125 275 482.625 C275.78310547 481.16441162 275.78310547 481.16441162 276.58203125 479.67431641 C276.98808594 478.90780762 277.39414062 478.14129883 277.8125 477.3515625 C278.23144531 476.56604004 278.65039062 475.78051758 279.08203125 474.97119141 C280.14072001 473.06023569 280.14072001 473.06023569 280 471 C262.51 471 245.02 471 227 471 Z " fill="#000000" transform="translate(168,0)"/>
<path d="M0 0 C1.0929095 -0.00226556 2.185819 -0.00453111 3.31184697 -0.00686532 C6.95719679 -0.01317216 10.60250911 -0.01237809 14.24786377 -0.0115509 C16.86845955 -0.01454446 19.48905489 -0.01794744 22.10964966 -0.02172852 C28.47957245 -0.03001175 34.84948599 -0.0327823 41.21941373 -0.03334089 C46.40072509 -0.03381716 51.58203341 -0.03587741 56.76334381 -0.03904152 C71.47477601 -0.04784173 86.18620094 -0.05246188 100.89763579 -0.05171105 C101.68964657 -0.05167109 102.48165735 -0.05163113 103.29766846 -0.05158997 C104.48714627 -0.05152864 104.48714627 -0.05152864 105.70065394 -0.05146609 C118.54676662 -0.05105979 131.39284996 -0.06062681 144.23895416 -0.07472833 C157.45027892 -0.08911557 170.66158939 -0.09599723 183.87292218 -0.09513456 C191.28161436 -0.0948034 198.69027578 -0.09751479 206.09896088 -0.10831261 C213.06916987 -0.11840681 220.03931306 -0.11805832 227.0095253 -0.11079597 C229.56158925 -0.10975275 232.11365729 -0.11209738 234.66571426 -0.11815643 C257.12343293 -0.16800416 275.9923623 0.1113215 293.17462158 16.34855652 C303.50195745 26.96850024 308.16638168 40.05017535 308.09156799 54.68333435 C308.09539354 55.49447874 308.09921909 56.30562313 308.10316056 57.14134765 C308.11339969 59.83320641 308.10951582 62.52484823 308.10552979 65.21672058 C308.10988136 67.15752355 308.115066 69.09832481 308.12101746 71.03912354 C308.13437247 76.29344758 308.13498989 81.54769954 308.13245416 86.80203724 C308.13138181 91.19781498 308.13627469 95.5935783 308.14105958 99.98935294 C308.15214324 110.36642274 308.15259896 120.74345633 308.14654541 131.12052917 C308.1405095 141.80244989 308.15280959 152.48423876 308.17411548 163.16613698 C308.19176914 172.35711225 308.1977268 181.54804569 308.19447774 190.73903728 C308.19267033 196.21950158 308.19524654 201.69987188 308.20919228 207.18032074 C308.22182691 212.33830496 308.21977345 217.49608477 308.20678139 222.65406609 C308.20442808 224.53853107 308.20710519 226.4230107 308.21540451 228.30745888 C308.29349906 247.43062121 305.59013102 262.66124202 291.91680908 277.17277527 C283.12691967 285.43592974 271.01679022 291.24225858 258.84784698 291.26793385 C257.86359128 291.27239169 256.87933557 291.27684953 255.86525393 291.28144246 C254.79143827 291.2812581 253.71762261 291.28107374 252.61126709 291.28088379 C251.46460556 291.28456048 250.31794402 291.28823717 249.13653517 291.29202527 C245.95767959 291.30113239 242.77885436 291.30575748 239.59998798 291.30841458 C236.16965755 291.31232614 232.73934194 291.32190393 229.309021 291.33062744 C221.026213 291.35036878 212.74340383 291.36045552 204.4605782 291.36935523 C200.55617141 291.37374232 196.65176596 291.37910808 192.74736023 291.3843441 C179.7612664 291.40135475 166.77517339 291.41584743 153.78907013 291.42309284 C150.42084248 291.42500261 147.05261483 291.42692296 143.68438721 291.42887878 C142.42871347 291.42960439 142.42871347 291.42960439 141.14767259 291.43034466 C127.5964245 291.43863943 114.04526484 291.46396771 100.49405533 291.49645946 C86.56868969 291.52957499 72.64336891 291.54754569 58.7179637 291.55073708 C50.90451541 291.55289812 43.09119606 291.56158701 35.27778625 291.58719826 C28.62146207 291.60896683 21.96529813 291.6169256 15.30894238 291.60723148 C11.91680136 291.60270426 8.52525705 291.60668741 5.13311768 291.62399292 C1.4439183 291.64175536 -2.24445385 291.63458308 -5.93365479 291.62145996 C-7.51760961 291.63791383 -7.51760961 291.63791383 -9.13356352 291.6547001 C-23.70063111 291.5303381 -36.49479537 286.14931076 -47.10272217 276.29777527 C-50.36315481 272.88325791 -52.82941315 269.22141298 -55.16912842 265.13371277 C-55.86522217 263.92521667 -55.86522217 263.92521667 -56.57537842 262.69230652 C-62.88926406 250.96389686 -62.4631453 239.00811143 -62.44378662 226.02897644 C-62.44813922 224.09787805 -62.45332418 222.16678138 -62.45927429 220.23568726 C-62.47261738 215.01241304 -62.47324814 209.78921138 -62.47071099 204.56592345 C-62.46963798 200.19494879 -62.47453314 195.82398861 -62.47931641 191.45301706 C-62.49039563 181.13490126 -62.49085809 170.81682187 -62.48480225 160.498703 C-62.47876472 149.8786772 -62.49107154 139.25878396 -62.51237231 128.63878077 C-62.53002596 119.49874029 -62.5359837 110.35874186 -62.53273457 101.21868497 C-62.5309274 95.76953449 -62.53350114 90.32047855 -62.54744911 84.87134361 C-62.560084 79.74371444 -62.55803006 74.61629088 -62.54503822 69.48866463 C-62.54268509 67.61548669 -62.54536137 65.74229402 -62.55366135 63.869133 C-62.63315167 44.52231304 -59.82227846 29.23529454 -46.00897217 14.71574402 C-32.38478282 2.32841368 -17.70817436 -0.02721361 0 0 Z M-31.18084717 30.06340027 C-38.99127469 38.74165307 -41.49099719 46.88051728 -41.42982483 58.43777466 C-41.43365038 59.22245088 -41.43747592 60.0071271 -41.4414174 60.81558138 C-41.45165075 63.41770776 -41.44777384 66.01960948 -41.44378662 68.62174988 C-41.44813842 70.49845583 -41.45332313 72.37516001 -41.45927429 74.25186157 C-41.47262427 79.33037064 -41.47324749 84.4088051 -41.47071099 89.48732829 C-41.4696387 93.73426933 -41.47453119 97.98119543 -41.47931641 102.22813326 C-41.49039748 112.25030076 -41.4908567 122.27243078 -41.48480225 132.29460144 C-41.47876112 142.61872011 -41.49108024 152.94270253 -41.51237231 163.26679796 C-41.53000829 172.14605193 -41.53598657 181.02526261 -41.53273457 189.90453345 C-41.53092497 195.20102081 -41.53352576 200.49741094 -41.54744911 205.79388237 C-41.56005554 210.77539302 -41.55805672 215.75669171 -41.54503822 220.73819923 C-41.54267914 222.56103462 -41.54538307 224.38388507 -41.55366135 226.20670319 C-41.60897774 239.33891816 -41.01828104 250.70649455 -32.16912842 261.13371277 C-24.00749244 268.87290382 -15.63259016 270.58375979 -4.72042847 270.52139282 C-3.01791752 270.52947113 -3.01791752 270.52947113 -1.28101242 270.53771263 C2.512741 270.55199157 6.30614546 270.54488837 10.09991455 270.5377655 C12.82375999 270.54182658 15.54758774 270.55033298 18.27142334 270.55856323 C24.89650977 270.5757336 31.52150127 270.57659488 38.14660417 270.57135033 C43.53344662 270.56730391 48.92026108 270.56875779 54.3071022 270.57409859 C55.07468148 270.57484701 55.84226076 270.57559543 56.63310001 270.57636653 C58.19259643 270.57789806 59.75209285 270.57943641 61.31158926 270.5809815 C75.92680888 270.5947003 90.54197493 270.58927334 105.15719332 270.57779629 C118.51629255 270.56786576 131.87525325 270.58080252 145.23433112 270.60473048 C158.96429775 270.62913672 172.6941999 270.63872553 186.42418778 270.63207775 C194.12737502 270.62858876 201.83045576 270.63079635 209.53362656 270.64832878 C216.09153448 270.66306991 222.64926091 270.66366143 229.20716535 270.64625787 C232.5503378 270.63776066 235.89292093 270.63774459 239.23611832 270.65090942 C242.8671182 270.66411429 246.49724189 270.65257457 250.12820435 270.63491821 C251.1753026 270.64452322 252.22240085 270.65412823 253.30122936 270.66402429 C263.06022852 270.56662602 270.95508844 267.79948002 278.07696533 261.05168152 C285.08963505 253.38303824 287.14504666 245.12900409 287.09156799 234.87397766 C287.09539354 234.08198876 287.09921909 233.28999986 287.10316056 232.4740113 C287.1134141 229.84114089 287.10951306 227.20849169 287.10552979 224.5756073 C287.1098805 222.67934468 287.11506485 220.78308383 287.12101746 218.88682556 C287.13438012 213.75040813 287.13498915 208.61406441 287.13245416 203.477633 C287.13138257 199.18352096 287.13627263 194.88942372 287.14105958 190.59531486 C287.15214536 180.46145571 287.15259742 170.32763364 287.14654541 160.19377136 C287.14050595 149.7532265 287.15281812 139.31281642 287.17411548 128.87229455 C287.19175123 119.89539709 287.19772971 110.91854247 287.19447774 101.94162834 C287.19266786 96.58588169 287.19527159 91.23023118 287.20919228 85.87450027 C287.22179807 80.83637015 287.21980047 75.7984496 287.20678139 70.76032257 C287.20442204 68.91652479 287.20712719 67.07271214 287.21540451 65.22893143 C287.26969091 52.19154896 287.02344861 41.20499201 277.83087158 31.13371277 C272.66882192 26.08637532 266.75539371 22.68897446 259.57208443 21.67264271 C256.15892912 21.18097018 252.88591138 20.49677797 249.53005981 19.71395874 C225.97077021 14.67407449 196.99198865 11.17368888 175.42024231 24.18883514 C147.44201226 42.69047821 124.69422712 69.84624455 102.22352862 94.45213592 C95.76182214 101.52124988 89.20808178 108.49488027 82.58380127 115.41178894 C82.11347828 115.902947 81.64315528 116.39410506 81.15858008 116.9001467 C78.79643774 119.36586347 76.43259466 121.82994141 74.06772447 124.29304183 C62.50870073 136.33296582 50.98248328 148.40127941 39.63046265 160.63696289 C38.83487529 161.4939784 38.03928792 162.35099391 37.21959186 163.23397958 C33.50046327 167.24372116 29.78970596 171.26078978 26.09095764 175.28933716 C24.79124581 176.69596172 23.4914322 178.10249225 22.1914978 179.50891113 C21.61521452 180.14217908 21.03893124 180.77544702 20.44518483 181.4279049 C16.51681108 185.66466303 13.28279011 188.82722295 7.33087158 189.57121277 C3.11880588 189.04470456 1.58006536 188.36805839 -1.16912842 185.13371277 C-2.08570798 182.42357939 -2.50830932 179.97965254 -2.16912842 177.13371277 C0.13259775 172.60373236 3.31680439 169.37359499 6.88621521 165.84458923 C7.50131134 165.22848982 8.11640747 164.61239041 8.75014287 163.97762132 C10.80903854 161.91777427 12.87499093 159.86515528 14.940979 157.81242371 C16.41967196 156.33593225 17.89791719 154.85899228 19.37574768 153.38163757 C22.55674165 150.20357577 25.7408653 147.02869511 28.92745018 143.85623932 C33.96087166 138.84506949 38.98720858 133.82683423 44.0125885 128.80760193 C51.95604553 120.87552384 59.90416312 112.94813467 67.85431796 105.02277017 C82.10765893 90.8137901 96.35537506 76.59917499 110.59793931 62.37939286 C115.6005252 57.3852404 120.60590568 52.39391023 125.6135124 47.40479231 C128.71901941 44.30988632 131.82253099 41.2129852 134.9255352 38.11557007 C136.37111829 36.6734736 137.81757295 35.23225024 139.26493454 33.79193878 C141.23105564 31.83518897 143.19414377 29.87544718 145.15647888 27.91490173 C145.73807477 27.33758293 146.31967065 26.76026412 146.91889066 26.16545081 C149.60286985 24.00840341 149.60286985 24.00840341 150.83087158 21.13371277 C130.01179659 21.08693615 109.19273029 21.0516962 88.37361336 21.03008842 C78.70635341 21.01978769 69.03912616 21.00575039 59.37188721 20.98283386 C50.94327868 20.96286312 42.51469384 20.94998759 34.08606231 20.94553578 C29.6255836 20.94293464 25.16517266 20.93684595 20.70471573 20.92225266 C16.50064568 20.90861049 12.29667088 20.90450347 8.0925808 20.90749741 C6.55517114 20.9069502 5.01775808 20.90301246 3.48036766 20.89530182 C-9.09183032 20.8353755 -21.58512466 20.85895965 -31.18084717 30.06340027 Z " fill="#000000" transform="translate(102.16912841796875,133.8662872314453)"/>
<path d="M0 0 C2.75569447 2.18159145 4.43588747 3.87177494 6 7 C6.48970315 11.30938774 5.89231519 13.69348544 3.41572571 17.22507477 C0.32997651 21.09374373 -3.24090497 24.51677646 -6.74414062 28.00292969 C-7.62587448 28.88816818 -8.50760834 29.77340668 -9.4160614 30.68547058 C-11.82344173 33.10012202 -14.23520692 35.51021595 -16.6493969 37.9180479 C-19.17962805 40.44319794 -21.70495601 42.97324404 -24.2310791 45.50250244 C-28.47093842 49.74599392 -32.71498303 53.98526522 -36.96142578 58.22216797 C-41.86852645 63.11837149 -46.76836182 68.0217572 -51.66451311 72.92890811 C-55.87410353 77.14757603 -60.0875808 81.3623321 -64.30432844 85.5738461 C-66.82046634 88.08686866 -69.33523972 90.60121666 -71.84651184 93.11910248 C-74.64391732 95.92336103 -77.44945278 98.7193965 -80.25585938 101.51464844 C-81.0861113 102.34894882 -81.91636322 103.18324921 -82.77177429 104.04283142 C-83.91988335 105.182481 -83.91988335 105.182481 -85.09118652 106.34515381 C-85.75336937 107.0065826 -86.41555222 107.6680114 -87.09780121 108.34948349 C-89.97267736 110.84398121 -92.14893816 111.90946151 -95.9375 112.3125 C-99.43355571 111.95575962 -101.20520785 111.09609412 -104 109 C-106.74436574 104.88345139 -106.91507819 101.81785089 -106 97 C-104.72463703 95.095397 -104.72463703 95.095397 -103.01741028 93.25987244 C-102.37901026 92.56846098 -101.74061024 91.87704952 -101.08286476 91.1646862 C-97.47641395 87.41656273 -93.84166804 83.70289129 -90.15893555 80.02954102 C-89.30281174 79.17166489 -88.44668793 78.31378876 -87.56462097 77.42991638 C-85.2403975 75.10207271 -82.91397362 72.7764584 -80.58634543 70.45201993 C-78.14344454 68.01166874 -75.70300461 65.56885839 -73.26216125 63.12644958 C-69.17127883 59.03375512 -65.07830822 54.94315791 -60.98413086 50.85375977 C-56.2498031 46.12489464 -51.5191179 41.39240845 -46.79026574 36.65806824 C-42.72147724 32.58474706 -38.65075009 28.51337101 -34.5783847 24.44362587 C-32.14946719 22.01626748 -29.72123084 19.58823807 -27.29474449 17.15844917 C-24.59738073 14.45766949 -21.89595649 11.76097458 -19.1940918 9.06469727 C-18.38941467 8.25799591 -17.58473755 7.45129456 -16.75567627 6.62014771 C-16.0225975 5.88988876 -15.28951874 5.15962982 -14.53422546 4.40724182 C-13.89621852 3.7696119 -13.25821157 3.13198198 -12.60087109 2.47502995 C-8.98965698 -0.85231415 -4.67281045 -0.74248456 0 0 Z " fill="#000000" transform="translate(277,229)"/>
<path d="M0 0 C5.82852649 5.33248168 9.36648187 12.55372223 10.1640625 20.4375 C10.3569499 29.14958088 8.32071226 36.78297424 2.765625 43.609375 C-3.65873433 50.08935649 -11.12584933 53.69184005 -20.2890625 53.8046875 C-29.50384434 53.62647215 -36.53779869 50.80662855 -43.28125 44.5 C-50.09118971 36.47940434 -51.74268591 27.64525702 -51.0390625 17.4296875 C-50.43750324 14.49326265 -49.44244895 12.07104223 -48.0390625 9.4296875 C-47.64847656 8.67816406 -47.25789063 7.92664063 -46.85546875 7.15234375 C-42.42636095 -0.38843185 -36.01662042 -4.71553866 -27.6015625 -7.0078125 C-17.27518332 -8.75311602 -8.26595599 -6.36573622 0 0 Z M-26.0390625 15.4296875 C-28.54303748 17.51798493 -28.54303748 17.51798493 -30.0390625 20.4296875 C-30.11675204 24.78030149 -29.46693546 26.83821605 -26.9140625 30.3671875 C-24.13811659 32.67142942 -24.13811659 32.67142942 -20.5390625 33.0546875 C-16.10549157 32.26297841 -14.69734367 31.02618556 -12.0390625 27.4296875 C-10.80860352 23.73831056 -10.66757441 22.2080435 -12.3515625 18.6796875 C-14.7813595 15.41104076 -14.7813595 15.41104076 -18.3515625 13.6796875 C-21.63714506 13.37405191 -23.16832646 13.81029794 -26.0390625 15.4296875 Z " fill="#000000" transform="translate(472.0390625,371.5703125)"/>
<path d="M0 0 C5.82852649 5.33248168 9.36648187 12.55372223 10.1640625 20.4375 C10.3569499 29.14958088 8.32071226 36.78297424 2.765625 43.609375 C-3.65873433 50.08935649 -11.12584933 53.69184005 -20.2890625 53.8046875 C-29.50384434 53.62647215 -36.53779869 50.80662855 -43.28125 44.5 C-50.09118971 36.47940434 -51.74268591 27.64525702 -51.0390625 17.4296875 C-50.43750324 14.49326265 -49.44244895 12.07104223 -48.0390625 9.4296875 C-47.64847656 8.67816406 -47.25789063 7.92664063 -46.85546875 7.15234375 C-42.42636095 -0.38843185 -36.01662042 -4.71553866 -27.6015625 -7.0078125 C-17.27518332 -8.75311602 -8.26595599 -6.36573622 0 0 Z M-26.0390625 15.4296875 C-28.54303748 17.51798493 -28.54303748 17.51798493 -30.0390625 20.4296875 C-30.11675204 24.78030149 -29.46693546 26.83821605 -26.9140625 30.3671875 C-24.13811659 32.67142942 -24.13811659 32.67142942 -20.5390625 33.0546875 C-16.10549157 32.26297841 -14.69734367 31.02618556 -12.0390625 27.4296875 C-10.80860352 23.73831056 -10.66757441 22.2080435 -12.3515625 18.6796875 C-14.7813595 15.41104076 -14.7813595 15.41104076 -18.3515625 13.6796875 C-21.63714506 13.37405191 -23.16832646 13.81029794 -26.0390625 15.4296875 Z " fill="#000000" transform="translate(472.0390625,281.5703125)"/>
<path d="M0 0 C0.90458954 -0.0127597 1.80917908 -0.02551941 2.74118042 -0.03866577 C3.71620514 -0.04089142 4.69122986 -0.04311707 5.69580078 -0.04541016 C7.20317307 -0.05539536 7.20317307 -0.05539536 8.74099731 -0.06558228 C10.8676775 -0.0757108 12.99438947 -0.08039923 15.12109375 -0.08007812 C18.37179095 -0.08444669 21.62112554 -0.12075217 24.87158203 -0.15869141 C26.93798364 -0.16456044 29.0043917 -0.16852925 31.07080078 -0.17041016 C32.04177704 -0.18478119 33.0127533 -0.19915222 34.01315308 -0.21395874 C38.37030804 -0.18452534 40.83006312 -0.13211598 44.60644531 2.19433594 C47.81043178 5.71126611 47.90878284 8.4084686 47.87158203 13.02880859 C47.30283506 16.64753934 45.36445716 18.17082958 42.51611328 20.29052734 C39.82325007 21.18814841 38.25488923 21.42088255 35.49121094 21.43579102 C34.68672516 21.44217087 33.88223938 21.44855072 33.05337524 21.4551239 C32.18771942 21.45623672 31.3220636 21.45734955 30.43017578 21.45849609 C29.53624115 21.46182449 28.64230652 21.46515289 27.72128296 21.46858215 C25.82998163 21.47364473 23.93867138 21.47599069 22.04736328 21.47583008 C19.15919195 21.47801368 16.27140439 21.49616845 13.38330078 21.51513672 C11.54476042 21.51807138 9.70621824 21.52005569 7.86767578 21.52099609 C6.57526474 21.53177437 6.57526474 21.53177437 5.25674438 21.54277039 C0.07390725 21.52310356 -3.99040603 21.20773694 -8.24169922 17.93896484 C-10.5941482 14.81716149 -10.60427716 11.09620286 -10.48388672 7.29052734 C-8.30786264 2.17687076 -5.54542759 0.05314792 0 0 Z " fill="#000000" transform="translate(431.48388671875,186.70947265625)"/>
<path d="M0 0 C0.82127884 -0.00960754 1.64255768 -0.01921509 2.48872375 -0.02911377 C3.81531258 -0.03548859 3.81531258 -0.03548859 5.16870117 -0.04199219 C6.53933968 -0.0505423 6.53933968 -0.0505423 7.93766785 -0.05926514 C9.87184492 -0.06871136 11.80603807 -0.07524762 13.74023438 -0.07910156 C16.68998528 -0.08879592 19.63903599 -0.11981817 22.58862305 -0.15136719 C24.46947829 -0.15789867 26.35033851 -0.16314857 28.23120117 -0.16699219 C29.10952103 -0.17933899 29.98784088 -0.19168579 30.89277649 -0.20440674 C35.96735323 -0.18607442 39.53510142 0.27514156 43.89916992 3.16113281 C46.56753403 7.16367897 46.73319373 10.4542658 45.89916992 15.16113281 C43.71757847 17.91682728 42.02739499 19.59702028 38.89916992 21.16113281 C37.50097146 21.26036674 36.0982313 21.29941355 34.6965332 21.30639648 C33.82868195 21.31277634 32.96083069 21.31915619 32.06668091 21.32572937 C31.12710541 21.32684219 30.18752991 21.32795502 29.21948242 21.32910156 C27.77301834 21.33409416 27.77301834 21.33409416 26.29733276 21.33918762 C24.25462319 21.34425646 22.21190531 21.34659596 20.16918945 21.34643555 C17.04388762 21.34861904 13.91894037 21.36676699 10.79370117 21.38574219 C8.81062946 21.3886767 6.82755608 21.39066111 4.84448242 21.39160156 C3.90895538 21.39878708 2.97342834 21.4059726 2.009552 21.41337585 C0.69831863 21.40876091 0.69831863 21.40876091 -0.6394043 21.40405273 C-1.78951492 21.40619026 -1.78951492 21.40619026 -2.96286011 21.40837097 C-6.59072805 20.9888387 -8.58318862 19.80818463 -10.85083008 16.97363281 C-12.46303783 13.34616537 -12.65346329 11.09864448 -12.10083008 7.16113281 C-9.12309552 2.06133455 -5.8437389 0.05531317 0 0 Z " fill="#000000" transform="translate(433.100830078125,145.8388671875)"/>
<path d="M0 0 C1.26507637 -0.00855011 1.26507637 -0.00855011 2.55570984 -0.01727295 C4.33847811 -0.02670597 6.12126368 -0.03325018 7.90405273 -0.03710938 C10.61668697 -0.04680341 13.32855942 -0.07783768 16.04101562 -0.109375 C17.77733928 -0.11590694 19.51366832 -0.12115666 21.25 -0.125 C22.05440018 -0.1373468 22.85880035 -0.1496936 23.68757629 -0.16241455 C28.967766 -0.14176431 32.66164925 0.66132663 37.32421875 3.203125 C39.41045016 6.33247211 39.69176439 7.44666787 39.82421875 11.078125 C39.87578125 11.92117187 39.92734375 12.76421875 39.98046875 13.6328125 C39.18685539 16.7411315 37.7683326 18.16272529 35.28335571 20.13595581 C31.39592236 22.2534949 27.17930743 21.91283618 22.8515625 21.8671875 C21.85089249 21.87197113 20.85022247 21.87675476 19.81922913 21.88168335 C17.71044334 21.88507611 15.6016045 21.87591753 13.49291992 21.85498047 C10.26817561 21.82817866 7.04690299 21.85476488 3.82226562 21.88671875 C1.76952358 21.88341509 -0.2832163 21.87700978 -2.3359375 21.8671875 C-3.29750259 21.87730865 -4.25906769 21.88742981 -5.24977112 21.89785767 C-9.90651685 21.81641828 -11.99451755 21.73698203 -15.75952148 18.78662109 C-18.84895795 14.62145143 -18.87355491 12.43546549 -18.25 7.3984375 C-17.67578125 5.203125 -17.67578125 5.203125 -15.36328125 2.703125 C-10.37866489 -0.07898646 -5.61173553 0.02942627 0 0 Z " fill="#000000" transform="translate(439.67578125,226.796875)"/>
<path d="M0 0 C2.75569447 2.18159145 4.43588747 3.87177494 6 7 C6.59873168 12.26883876 5.25400021 14.8846468 2 19 C-1.47263273 20.73631636 -5.21193013 20.60190402 -9 20 C-11.75569447 17.81840855 -13.43588747 16.12822506 -15 13 C-15.59873168 7.73116124 -14.25400021 5.1153532 -11 1 C-7.52736727 -0.73631636 -3.78806987 -0.60190402 0 0 Z " fill="#000000" transform="translate(151,355)"/>
</svg>
