<svg width="36" height="28" viewBox="0 0 36 28" fill="none" xmlns="http://www.w3.org/2000/svg">
<path d="M0.47998 2.16001C0.64998 1.53001 1.14997 1.05 1.77997 0.899995C1.93997 0.869995 2.09998 0.860002 2.25998 0.860002H33.63C34.53 0.790002 35.32 1.46 35.4 2.36C35.4 2.45 35.4 2.53 35.4 2.62V6.71001C35.43 6.92001 35.35 7.12001 35.2 7.27001C35.05 7.41001 34.82 7.45001 34.63 7.35001C34.42 7.26001 34.3 7.06 34.31 6.83V2.71001C34.31 2.11001 34.14 1.95 33.54 1.95H2.30997C1.75997 1.95 1.57996 2.13 1.57996 2.69V19.77C1.57996 20.32 1.75998 20.5 2.31998 20.5H23.66C24.23 20.5 24.48 20.66 24.49 21.04C24.5 21.42 24.23 21.6 23.65 21.6C22.57 21.6 21.49 21.6 20.41 21.6C20.19 21.6 20.12 21.65 20.12 21.88C20.14 22.43 20.14 22.97 20.12 23.52C20.12 23.76 20.21 23.79 20.42 23.79C20.86 23.76 21.31 23.78 21.75 23.84C22.95 24.08 23.85 25.08 23.95 26.3C23.99 26.83 23.79 27.06 23.25 27.06C19.73 27.06 16.2 27.06 12.68 27.06C12.12 27.06 11.92 26.83 11.97 26.28C12.09 24.91 13.22 23.84 14.59 23.79C14.9 23.78 15.2 23.78 15.51 23.79C15.71 23.8 15.79 23.75 15.78 23.53C15.76 22.98 15.76 22.44 15.78 21.89C15.78 21.64 15.7 21.6 15.47 21.6C13.37 21.6 11.27 21.6 9.15997 21.6C7.04997 21.6 4.74996 21.57 2.54996 21.61C1.63996 21.74 0.75996 21.19 0.48996 20.3V2.17L0.47998 2.16001ZM17.9 25.96H22.43C22.52 25.96 22.63 26 22.68 25.93C22.75 25.83 22.64 25.74 22.59 25.66C22.32 25.18 21.82 24.89 21.27 24.89C19.04 24.88 16.82 24.88 14.59 24.89C14.04 24.89 13.54 25.19 13.27 25.66C13.22 25.74 13.12 25.83 13.18 25.93C13.23 26.01 13.35 25.96 13.43 25.97H17.89M19.01 22.71C19.01 22.41 19.01 22.12 19.01 21.82C19.01 21.66 18.97 21.6 18.8 21.6C18.21 21.6 17.62 21.6 17.03 21.6C16.86 21.6 16.82 21.66 16.82 21.82C16.82 22.41 16.82 23 16.82 23.59C16.82 23.73 16.86 23.79 17.01 23.79C17.61 23.79 18.21 23.79 18.81 23.79C18.96 23.79 19.01 23.73 19 23.59C19 23.29 19 23 19 22.7" fill="#000F52"/>
<path d="M17.9 25.96H22.43C22.52 25.96 22.63 26 22.68 25.93C22.75 25.83 22.64 25.74 22.59 25.66C22.32 25.18 21.82 24.89 21.27 24.89C19.04 24.88 16.82 24.88 14.59 24.89C14.04 24.89 13.54 25.19 13.27 25.66C13.22 25.74 13.12 25.83 13.18 25.93C13.23 26.01 13.35 25.96 13.43 25.97H17.89M19.01 22.71C19.01 22.41 19.01 22.12 19.01 21.82C19.01 21.66 18.97 21.6 18.8 21.6C18.21 21.6 17.62 21.6 17.03 21.6C16.86 21.6 16.82 21.66 16.82 21.82C16.82 22.41 16.82 23 16.82 23.59C16.82 23.73 16.86 23.79 17.01 23.79C17.61 23.79 18.21 23.79 18.81 23.79C18.96 23.79 19.01 23.73 19 23.59C19 23.29 19 23 19 22.7M0.47998 2.16001C0.64998 1.53001 1.14997 1.05 1.77997 0.899995C1.93997 0.869995 2.09998 0.860002 2.25998 0.860002H33.63C34.53 0.790002 35.32 1.46 35.4 2.36C35.4 2.45 35.4 2.53 35.4 2.62V6.71001C35.43 6.92001 35.35 7.12001 35.2 7.27001C35.05 7.41001 34.82 7.45001 34.63 7.35001C34.42 7.26001 34.3 7.06 34.31 6.83V2.71001C34.31 2.11001 34.14 1.95 33.54 1.95H2.30997C1.75997 1.95 1.57996 2.13 1.57996 2.69V19.77C1.57996 20.32 1.75998 20.5 2.31998 20.5H23.66C24.23 20.5 24.48 20.66 24.49 21.04C24.5 21.42 24.23 21.6 23.65 21.6C22.57 21.6 21.49 21.6 20.41 21.6C20.19 21.6 20.12 21.65 20.12 21.88C20.14 22.43 20.14 22.97 20.12 23.52C20.12 23.76 20.21 23.79 20.42 23.79C20.86 23.76 21.31 23.78 21.75 23.84C22.95 24.08 23.85 25.08 23.95 26.3C23.99 26.83 23.79 27.06 23.25 27.06C19.73 27.06 16.2 27.06 12.68 27.06C12.12 27.06 11.92 26.83 11.97 26.28C12.09 24.91 13.22 23.84 14.59 23.79C14.9 23.78 15.2 23.78 15.51 23.79C15.71 23.8 15.79 23.75 15.78 23.53C15.76 22.98 15.76 22.44 15.78 21.89C15.78 21.64 15.7 21.6 15.47 21.6C13.37 21.6 11.27 21.6 9.15997 21.6C7.04997 21.6 4.74996 21.57 2.54996 21.61C1.63996 21.74 0.75996 21.19 0.48996 20.3V2.17L0.47998 2.16001Z" stroke="#000F52" stroke-width="0.5"/>
<path d="M35.39 17.7699C35.39 20.2599 35.39 22.7499 35.39 25.2399C35.48 26.1499 34.82 26.9599 33.92 27.0499C33.8 27.0599 33.69 27.0599 33.57 27.0499H27.4C26.49 27.1499 25.68 26.4999 25.58 25.5899C25.57 25.4699 25.57 25.3599 25.58 25.2399V10.3099C25.49 9.39989 26.15 8.5899 27.05 8.4999C27.17 8.4899 27.28 8.4899 27.4 8.4999H33.57C34.48 8.3999 35.3 9.0499 35.4 9.9599C35.41 10.0899 35.41 10.2099 35.4 10.3399V17.7699M26.67 17.7699C26.67 20.2499 26.67 22.7199 26.67 25.1999C26.67 25.7799 26.84 25.9499 27.42 25.9499H33.56C34.14 25.9499 34.31 25.7799 34.31 25.1999V10.3399C34.31 9.75989 34.14 9.58989 33.56 9.58989H27.42C26.84 9.58989 26.67 9.75989 26.67 10.3399V17.7699Z" fill="#000F52"/>
<path d="M35.39 17.7699C35.39 20.2599 35.39 22.7499 35.39 25.2399C35.48 26.1499 34.82 26.9599 33.92 27.0499C33.8 27.0599 33.69 27.0599 33.57 27.0499H27.4C26.49 27.1499 25.68 26.4999 25.58 25.5899C25.57 25.4699 25.57 25.3599 25.58 25.2399V10.3099C25.49 9.39989 26.15 8.5899 27.05 8.4999C27.17 8.4899 27.28 8.4899 27.4 8.4999H33.57C34.48 8.3999 35.3 9.0499 35.4 9.9599C35.41 10.0899 35.41 10.2099 35.4 10.3399V17.7699M26.67 17.7699C26.67 20.2499 26.67 22.7199 26.67 25.1999C26.67 25.7799 26.84 25.9499 27.42 25.9499H33.56C34.14 25.9499 34.31 25.7799 34.31 25.1999V10.3399C34.31 9.75989 34.14 9.58989 33.56 9.58989H27.42C26.84 9.58989 26.67 9.75989 26.67 10.3399V17.7699Z" stroke="#000F52" stroke-width="0.5"/>
<path d="M30.48 17.22C31.99 17.22 33.21 18.44 33.21 19.95C33.21 21.46 31.99 22.68 30.48 22.68C28.98 22.68 27.76 21.47 27.75 19.96C27.75 18.45 28.97 17.23 30.47 17.22M32.11 19.94C32.11 19.04 31.37 18.31 30.47 18.32C29.57 18.33 28.84 19.06 28.85 19.96C28.85 20.86 29.58 21.58 30.48 21.58C31.39 21.58 32.12 20.85 32.12 19.94" fill="#000F52"/>
<path d="M30.48 17.22C31.99 17.22 33.21 18.44 33.21 19.95C33.21 21.46 31.99 22.68 30.48 22.68C28.98 22.68 27.76 21.47 27.75 19.96C27.75 18.45 28.97 17.23 30.47 17.22M32.11 19.94C32.11 19.04 31.37 18.31 30.47 18.32C29.57 18.33 28.84 19.06 28.85 19.96C28.85 20.86 29.58 21.58 30.48 21.58C31.39 21.58 32.12 20.85 32.12 19.94" stroke="#000F52" stroke-width="0.5"/>
<path d="M28.3201 11.7699C28.0201 11.7699 27.7701 11.5399 27.7601 11.2399C27.7501 10.9399 27.9901 10.6899 28.2901 10.6799C28.5901 10.6799 28.8401 10.9099 28.8501 11.2099C28.8501 11.5099 28.6201 11.7599 28.3201 11.7699Z" fill="#000F52" stroke="#000F52" stroke-width="0.5"/>
<path d="M30.47 11.77C30.17 11.77 29.93 11.52 29.94 11.22C29.94 10.92 30.19 10.68 30.49 10.69C30.79 10.7 31.03 10.94 31.02 11.24C31.02 11.54 30.76 11.77 30.47 11.77Z" fill="#000F52" stroke="#000F52" stroke-width="0.5"/>
<path d="M33.2099 11.24C33.2099 11.54 32.9499 11.78 32.6499 11.77C32.3499 11.77 32.1099 11.51 32.1199 11.21C32.1199 10.91 32.3799 10.67 32.6799 10.68C32.9799 10.69 33.2099 10.94 33.2099 11.24Z" fill="#000F52" stroke="#000F52" stroke-width="0.5"/>
<path d="M28.31 12.8601C28.61 12.8601 28.85 13.1101 28.85 13.4101C28.85 13.7101 28.6 13.9501 28.3 13.9501C28 13.9501 27.76 13.7001 27.76 13.4001C27.76 13.1001 28.01 12.8601 28.31 12.8601Z" fill="#000F52" stroke="#000F52" stroke-width="0.5"/>
<path d="M31.0299 13.4001C31.0299 13.7001 30.7999 13.9501 30.4999 13.9501C30.1999 13.9501 29.95 13.7201 29.95 13.4201C29.95 13.1201 30.1799 12.8701 30.4799 12.8701C30.7799 12.8701 31.0199 13.1101 31.0299 13.4001Z" fill="#000F52" stroke="#000F52" stroke-width="0.5"/>
<path d="M32.6799 13.9501C32.3799 13.9501 32.1299 13.7201 32.1299 13.4201C32.1299 13.1201 32.3599 12.8701 32.6599 12.8701C32.9599 12.8701 33.2099 13.1001 33.2099 13.4001C33.2099 13.7001 32.9699 13.9401 32.6799 13.9501Z" fill="#000F52" stroke="#000F52" stroke-width="0.5"/>
<path d="M28.8401 15.6201C28.8301 15.9201 28.5701 16.1501 28.2701 16.1401C27.9701 16.1301 27.7401 15.8701 27.7501 15.5701C27.7601 15.2701 28.0201 15.0401 28.3201 15.0501C28.6201 15.0701 28.8501 15.3201 28.8401 15.6201Z" fill="#000F52" stroke="#000F52" stroke-width="0.5"/>
<path d="M31.0299 15.59C31.0299 15.89 30.7799 16.1301 30.4799 16.1301C30.1799 16.1301 29.9399 15.88 29.9399 15.58C29.9399 15.28 30.1899 15.04 30.4899 15.04C30.7899 15.04 31.0299 15.29 31.0299 15.59Z" fill="#000F52" stroke="#000F52" stroke-width="0.5"/>
<path d="M32.6799 16.1301C32.3799 16.1301 32.1299 15.9001 32.1299 15.6001C32.1299 15.3001 32.3599 15.05 32.6599 15.05C32.9599 15.05 33.2099 15.28 33.2099 15.58C33.2099 15.88 32.9799 16.13 32.6799 16.14" fill="#000F52"/>
<path d="M32.6799 16.1301C32.3799 16.1301 32.1299 15.9001 32.1299 15.6001C32.1299 15.3001 32.3599 15.05 32.6599 15.05C32.9599 15.05 33.2099 15.28 33.2099 15.58C33.2099 15.88 32.9799 16.13 32.6799 16.14" stroke="#000F52" stroke-width="0.5"/>
<path d="M28.29 23.78C28.59 23.78 28.84 24.01 28.85 24.31C28.86 24.61 28.62 24.86 28.32 24.87C28.02 24.88 27.77 24.64 27.76 24.34C27.76 24.04 27.99 23.79 28.29 23.78Z" fill="#000F52" stroke="#000F52" stroke-width="0.5"/>
<path d="M29.94 24.2901C29.95 23.9901 30.21 23.7601 30.51 23.7701C30.81 23.7801 31.04 24.0401 31.03 24.3401C31.02 24.6401 30.76 24.8701 30.46 24.8601C30.16 24.8401 29.93 24.5901 29.94 24.2901Z" fill="#000F52" stroke="#000F52" stroke-width="0.5"/>
<path d="M33.2099 24.32C33.2099 24.62 32.9699 24.86 32.6699 24.86C32.3699 24.86 32.1299 24.62 32.1299 24.32C32.1299 24.02 32.3699 23.78 32.6699 23.78C32.9699 23.78 33.2099 24.02 33.2099 24.32Z" fill="#000F52" stroke="#000F52" stroke-width="0.5"/>
</svg>
