<svg width="50" height="50" viewBox="0 0 50 50" fill="none" xmlns="http://www.w3.org/2000/svg">
<path d="M33.3333 12.5C33.3333 17.1023 29.6024 20.8333 25 20.8333C20.3976 20.8333 16.6667 17.1023 16.6667 12.5C16.6667 7.89759 20.3976 4.16663 25 4.16663C29.6024 4.16663 33.3333 7.89759 33.3333 12.5Z" fill="#1C274C"/>
<path opacity="0.5" d="M30.1612 45.6684C28.6484 45.7767 26.9368 45.8334 25 45.8334C8.33334 45.8334 8.33334 41.636 8.33334 36.4584C8.33334 31.2807 15.7953 27.0834 25 27.0834C31.0013 27.0834 36.2617 28.8675 39.1963 31.5443C38.1209 31.25 36.6118 31.25 34.375 31.25C30.9377 31.25 29.219 31.25 28.1512 32.3179C27.0833 33.3857 27.0833 35.1044 27.0833 38.5417C27.0833 41.979 27.0833 43.6977 28.1512 44.7655C28.646 45.2604 29.2806 45.5259 30.1612 45.6684Z" fill="#1C274C"/>
<path fill-rule="evenodd" clip-rule="evenodd" d="M34.375 45.8333C30.9377 45.8333 29.219 45.8333 28.1512 44.7655C27.0833 43.6977 27.0833 41.979 27.0833 38.5417C27.0833 35.1043 27.0833 33.3857 28.1512 32.3178C29.219 31.25 30.9377 31.25 34.375 31.25C37.8123 31.25 39.531 31.25 40.5988 32.3178C41.6667 33.3857 41.6667 35.1043 41.6667 38.5417C41.6667 41.979 41.6667 43.6977 40.5988 44.7655C39.531 45.8333 37.8123 45.8333 34.375 45.8333ZM35.5903 35.3009C35.5903 34.6297 35.0462 34.0856 34.375 34.0856C33.7038 34.0856 33.1597 34.6297 33.1597 35.3009V37.3264H31.1343C30.4631 37.3264 29.919 37.8705 29.919 38.5417C29.919 39.2128 30.4631 39.7569 31.1343 39.7569H33.1597V41.7824C33.1597 42.4536 33.7038 42.9977 34.375 42.9977C35.0462 42.9977 35.5903 42.4536 35.5903 41.7824V39.7569H37.6158C38.2869 39.7569 38.831 39.2128 38.831 38.5417C38.831 37.8705 38.2869 37.3264 37.6158 37.3264H35.5903V35.3009Z" fill="#1C274C"/>
</svg>
