<svg width="48" height="48" viewBox="0 0 48 48" fill="none" xmlns="http://www.w3.org/2000/svg">
<path opacity="0.5" d="M44 24C44 35.0457 35.0457 44 24 44C12.9543 44 4 35.0457 4 24C4 12.9543 12.9543 4 24 4C35.0457 4 44 12.9543 44 24Z" fill="#1C274C"/>
<path d="M33.6139 38.0224C30.8795 39.9007 27.5682 41 24.0001 41C20.4319 41 17.1205 39.9007 14.386 38.0223C13.1783 37.1927 12.6622 35.6123 13.3644 34.3263C14.82 31.6604 17.8195 30 24 30C30.1806 30 33.18 31.6605 34.6356 34.3265C35.3378 35.6125 34.8216 37.1928 33.6139 38.0224Z" fill="#1C274C"/>
<path d="M24.0001 24C27.3138 24 30.0001 21.3137 30.0001 18C30.0001 14.6863 27.3138 12 24.0001 12C20.6864 12 18.0001 14.6863 18.0001 18C18.0001 21.3137 20.6864 24 24.0001 24Z" fill="#1C274C"/>
</svg>
