<?xml version="1.0" encoding="UTF-8"?>
<svg version="1.1" xmlns="http://www.w3.org/2000/svg" width="512" height="512">
<path d="M0 0 C1.25321187 -0.00445784 2.50642373 -0.00891569 3.79761171 -0.01350862 C5.19609611 -0.01341932 6.59458051 -0.01322946 7.99306488 -0.01294994 C9.47274354 -0.01624855 10.9524213 -0.01997411 12.43209791 -0.02409142 C16.50865105 -0.0341203 20.58518945 -0.03782966 24.66175318 -0.04048073 C29.05459629 -0.04438125 33.44742771 -0.05395989 37.84026337 -0.0626936 C48.45539721 -0.082467 59.07053202 -0.09252615 69.68567967 -0.10142139 C74.68417374 -0.10580358 79.68266675 -0.11117063 84.68115997 -0.11641026 C101.29753906 -0.13342478 117.91391749 -0.14791837 134.53030396 -0.155159 C138.84353384 -0.15706891 143.15676372 -0.15898924 147.46999359 -0.16094494 C148.54203299 -0.16142868 149.61407239 -0.16191242 150.71859783 -0.16241082 C168.08009896 -0.17070887 185.44153115 -0.19604101 202.80300218 -0.22852562 C220.62683725 -0.26160341 238.4506373 -0.27960848 256.27450323 -0.28280324 C266.28219978 -0.28496786 276.28979583 -0.29370935 286.29746246 -0.31926441 C294.8218347 -0.34098138 303.34608204 -0.34901698 311.87047881 -0.33929763 C316.21818213 -0.33475558 320.56562782 -0.33663348 324.91329575 -0.35605907 C328.89847578 -0.37371083 332.88321061 -0.37267693 336.86839551 -0.35716178 C338.3052404 -0.35478872 339.74211629 -0.35909359 341.17891389 -0.37099043 C354.71283369 -0.47605399 365.92455077 2.54297643 375.97682953 11.94672108 C384.32112046 20.86648035 388.28316813 31.53900672 388.29659843 43.68399429 C388.30010451 44.40302237 388.30361058 45.12205046 388.3072229 45.86286727 C388.31649165 48.26080568 388.31162541 50.65849881 388.30675507 53.05644703 C388.31049359 54.79760499 388.31509592 56.53876128 388.32048571 58.27991492 C388.33270573 63.05594805 388.33245643 67.83191109 388.33009696 72.60795629 C388.32968855 77.76210283 388.3407301 82.91622697 388.3502121 88.07036304 C388.36681667 98.16424133 388.37232136 108.25809626 388.37343685 118.35198706 C388.37438741 126.55586115 388.37849807 134.75972755 388.3848381 142.96359921 C388.40244759 166.22318394 388.41167722 189.48275024 388.41017716 212.74234169 C388.41009724 213.99596609 388.41001733 215.24959048 388.409935 216.5412035 C388.40985324 217.79635813 388.40977147 219.05151275 388.40968724 220.34470237 C388.408874 240.69477075 388.4280218 261.04476518 388.45621173 281.39481216 C388.48492876 302.29017346 388.49875273 323.18549868 388.49702418 344.08088022 C388.49635996 355.81211634 388.50186652 367.54327487 388.52338028 379.27449322 C388.54157631 389.26051865 388.54595221 399.24643133 388.53236143 409.23246615 C388.52582438 414.32726106 388.52574139 419.42183954 388.54306793 424.51661396 C388.55877048 429.18181458 388.55596382 433.84662666 388.53849967 438.51181764 C388.53542362 440.19813567 388.53908493 441.88448249 388.55021982 443.57076656 C388.61442643 453.98522166 387.71593852 461.51117204 381.91432953 470.38422108 C376.30792658 475.74686737 370.77216568 478.28457993 363.03932953 478.13422108 C363.04980316 478.89565418 363.06027679 479.65708729 363.07106781 480.44159412 C363.11271972 483.90160268 363.13868513 487.36155839 363.16432953 490.82172108 C363.18108734 492.01990467 363.19784515 493.21808826 363.21511078 494.45258045 C363.22155609 495.60951405 363.2280014 496.76644764 363.23464203 497.95843983 C363.24511566 499.02151356 363.25558929 500.08458729 363.26638031 501.17987537 C362.97602798 504.95788993 362.09767156 507.69684002 359.8464703 510.75429589 C357.21854908 512.76096562 355.23291969 512.51149812 351.94978428 512.51453781 C350.66787175 512.52297775 349.38595923 512.53141769 348.06520087 512.54011339 C346.63438051 512.53431756 345.20356129 512.5282365 343.77274323 512.52190113 C342.25919907 512.52607128 340.74565803 512.53154703 339.23212284 512.53822094 C335.06218391 512.55273634 330.8924416 512.54841194 326.72249162 512.54105413 C322.2295642 512.53633975 317.7366804 512.54881692 313.24376678 512.55907154 C304.43759214 512.57629897 295.63148872 512.5770914 286.8253016 512.57185864 C279.67007881 512.56782302 272.51487715 512.56925323 265.35965538 512.5746069 C264.34265917 512.57535532 263.32566295 512.57610374 262.27784867 512.57687484 C260.21205719 512.57840626 258.14626572 512.57994461 256.08047425 512.58148981 C236.69224097 512.59522912 217.30404801 512.58976712 197.91581564 512.5783046 C180.16482015 512.56837069 162.41392887 512.58131308 144.66294945 512.60523879 C126.45154444 512.6296008 108.24018803 512.6392448 90.02876705 512.63258606 C79.79829976 512.62908739 69.56791266 512.63136852 59.33745766 512.64883709 C50.62841932 512.6635229 41.91951762 512.66424212 33.21048207 512.64676618 C28.76442005 512.63822381 24.31860247 512.63618505 19.87255287 512.65141773 C15.80568962 512.66517912 11.73928219 512.66061303 7.67244589 512.6411785 C6.19804753 512.6373917 4.72361339 512.64041688 3.24924666 512.65079015 C1.25110533 512.66385331 -0.74715837 512.65005887 -2.74528408 512.63479233 C-3.85699787 512.63468499 -4.96871166 512.63457765 -6.11411375 512.63446707 C-9.62026131 512.01830641 -10.76796836 510.87662644 -12.96067047 508.13422108 C-14.36979143 505.31597916 -14.072506 502.96170826 -14.05832672 499.81390858 C-14.05510406 498.55707264 -14.05188141 497.3002367 -14.0485611 496.00531483 C-14.04018219 494.68660389 -14.03180328 493.36789295 -14.02317047 492.00922108 C-14.01815537 490.66937896 -14.01359248 489.32953507 -14.0094986 487.98968983 C-13.99768133 484.70448901 -13.98120665 481.4193771 -13.96067047 478.13422108 C-14.56105133 478.08741199 -15.16143219 478.04060291 -15.78000641 477.99237537 C-23.44183179 477.28986065 -28.55619885 475.06796859 -33.77317047 469.25922108 C-37.90119925 463.36203711 -39.33500319 458.83147638 -39.34378052 451.65340614 C-39.34874003 450.9296772 -39.35369955 450.20594826 -39.35880935 449.46028814 C-39.37174131 447.04020574 -39.36338861 444.62067727 -39.35507965 442.20058155 C-39.35996972 440.44592355 -39.36616006 438.69126877 -39.37353754 436.93661946 C-39.38994592 432.11848341 -39.38761727 427.3005109 -39.38216257 422.48235667 C-39.37949344 417.28449882 -39.39402211 412.08668468 -39.40625763 406.88884449 C-39.42731983 396.70624917 -39.43185198 386.52371078 -39.43006974 376.34109626 C-39.42876234 368.06332638 -39.43256519 359.78557427 -39.43999481 351.50780773 C-39.44209401 349.12374073 -39.44419161 346.73967374 -39.44628763 344.35560673 C-39.44785292 342.57567956 -39.44785292 342.57567956 -39.44944984 340.75979426 C-39.46835593 318.31299047 -39.46730108 295.86621936 -39.46048051 273.41941091 C-39.45490671 252.89022335 -39.47572294 232.36116064 -39.50884098 211.83200226 C-39.54258637 190.7502006 -39.55774512 169.66845874 -39.55312395 148.58662957 C-39.55087988 136.75186959 -39.55611323 124.91722496 -39.58101654 113.08248806 C-39.60204075 103.00537302 -39.60561059 92.92843657 -39.58671695 82.85131416 C-39.57756552 77.71155798 -39.57639804 72.57213468 -39.5970726 67.43240452 C-39.61580819 62.72252032 -39.61125003 58.01324103 -39.58852679 53.30337968 C-39.58434752 51.60419329 -39.5885183 49.90496029 -39.60212272 48.20582322 C-39.71178389 33.50220221 -36.49249697 22.11706924 -26.18723297 11.26703358 C-19.07689217 4.50495437 -9.85252366 0.0162191 0 0 Z M-16.96067047 28.13422108 C-30.56293997 47.00188521 -20.96067047 97.13436655 -20.96067047 102.13422108 C108.06932953 102.13422108 237.09932953 102.13422108 370.03932953 102.13422108 C374.68229967 67.68195265 374.68229967 67.68195265 364.14479828 25.73187733 C363.19540375 24.97197498 363.19540375 24.97197498 362.22682953 24.19672108 C361.60163422 23.67207264 360.9764389 23.1474242 360.33229828 22.60687733 C352.60696198 17.64528996 345.85053685 17.70681614 336.84340668 17.75327015 C335.38629605 17.74981148 333.92918803 17.74504551 332.47208548 17.73908842 C328.47658818 17.72657742 324.48130615 17.73274921 320.48580813 17.74204707 C316.17354046 17.74883682 311.86130971 17.7383567 307.54904938 17.73010731 C299.10469915 17.716767 290.66042891 17.71964905 282.21607554 17.72834523 C275.35321371 17.73512019 268.49037429 17.73603931 261.62751007 17.73277378 C260.65077704 17.73231408 259.67404401 17.73185438 258.66771302 17.73138075 C256.68350287 17.73042158 254.69929272 17.72944894 252.71508259 17.72846298 C234.1088418 17.71990821 215.50264535 17.72974458 196.89641184 17.74586408 C180.93117079 17.75926734 164.96599518 17.75693927 149.00075531 17.7431078 C130.46112252 17.72705352 111.92152859 17.72073219 93.38188982 17.72994459 C91.40497622 17.73090023 89.4280626 17.73184335 87.45114899 17.73277378 C86.47846796 17.73323661 85.50578694 17.73369943 84.50363073 17.73417629 C77.64895895 17.73676663 70.79431182 17.73239421 63.93964386 17.72533512 C55.58616798 17.71692163 47.23277668 17.7191971 38.87931049 17.73517735 C34.61718648 17.74306209 30.35520349 17.74614821 26.09308052 17.7362299 C22.19096967 17.72728669 18.28913048 17.73220959 14.38704425 17.74816255 C12.97597008 17.75151195 11.56487292 17.74981269 10.15381354 17.74253519 C-1.7618176 17.6857978 -8.50793799 19.49068199 -16.96067047 28.13422108 Z M-20.96067047 120.13422108 C-21.04317047 175.49172108 -21.12567047 230.84922108 -21.21067047 287.88422108 C-21.24708649 305.38936756 -21.2835025 322.89451405 -21.32102203 340.93011951 C-21.33439645 356.5668672 -21.33439645 356.5668672 -21.34244537 372.20361805 C-21.34618501 379.19016331 -21.36089754 386.17658154 -21.38297272 393.16309071 C-21.40837339 401.21392818 -21.42002855 409.26464325 -21.41445027 417.31552114 C-21.4120329 421.43692515 -21.41595564 425.55805531 -21.43753099 429.6794095 C-21.45690407 433.40257643 -21.45802523 437.12527425 -21.4442749 440.8484621 C-21.44176108 442.83987298 -21.45908292 444.83127798 -21.47699356 446.8226099 C-21.46903008 448.0013644 -21.46106659 449.1801189 -21.45286179 450.39459324 C-21.45438067 451.41376261 -21.45589955 452.43293197 -21.45746446 453.48298526 C-20.80612887 456.9589618 -19.84050544 458.10314352 -16.96067047 460.13422108 C-13.94182126 460.73462993 -13.94182126 460.73462993 -10.51661015 460.64037895 C-9.868534 460.64649231 -9.22045786 460.65260567 -8.55274305 460.65890428 C-6.37182966 460.67455802 -4.19201986 460.66161777 -2.01110077 460.64888477 C-0.43553164 460.65420769 1.1400324 460.66127191 2.71558672 460.66993183 C7.05240596 460.68862005 11.38888515 460.68223306 15.72571886 460.6717788 C20.39998341 460.66480423 25.07417688 460.68077145 29.74842072 460.69377613 C38.90840918 460.71545079 48.06827359 460.71528035 57.22827929 460.70715059 C64.67142258 460.70085805 72.1145296 460.70198076 79.5576725 460.70842266 C80.61587492 460.70932432 81.67407734 460.71022597 82.7643465 460.71115495 C84.91388572 460.7130061 87.06342493 460.71486866 89.21296412 460.71674251 C109.38382449 460.73333311 129.55461497 460.72459112 149.72547115 460.70775693 C168.1902998 460.69305941 186.65496574 460.7076869 205.11977344 460.73652709 C224.06685992 460.76590079 243.01387126 460.77689926 261.96097952 460.76734489 C264.10304326 460.76632231 266.24510702 460.7653277 268.38717079 460.76436138 C269.4411774 460.76388499 270.49518401 460.7634086 271.58113022 460.76291778 C279.01681496 460.76075093 286.45242876 460.77057209 293.88809776 460.78513241 C302.94771566 460.80262476 312.00712605 460.80258304 321.06673568 460.77978075 C325.69119353 460.76861021 330.3152854 460.76553938 334.93972778 460.78408146 C339.1707573 460.80082813 343.40110001 460.79461488 347.63208456 460.76986467 C349.16501518 460.76496173 350.6980006 460.76855034 352.23088562 460.78135211 C354.31123329 460.79747608 356.38918923 460.78294852 358.46942806 460.76063347 C360.20396572 460.76022894 360.20396572 460.76022894 361.97354454 460.75981623 C366.07075534 459.92375133 367.54535341 458.44683945 370.03932953 455.13422108 C370.77346671 452.33759155 370.77346671 452.33759155 370.65456867 449.28716278 C370.66452303 448.10990191 370.67447739 446.93264103 370.68473339 445.71970558 C370.67017007 444.43117023 370.65560675 443.14263487 370.64060211 441.81505299 C370.64278983 440.43227106 370.64717554 439.04949116 370.65357208 437.6667223 C370.66479421 433.8598083 370.64471175 430.05359659 370.61969317 426.2467718 C370.59787941 422.08133216 370.60516492 417.91592554 370.60878277 413.75044441 C370.61144256 405.66233056 370.58834178 397.57449396 370.55627612 389.48645138 C370.52029961 380.13223808 370.51630371 370.7781917 370.51235199 361.42389393 C370.48609194 336.72312565 370.41628647 312.02241921 370.35182953 287.32172108 C370.19714203 204.56390858 370.19714203 204.56390858 370.03932953 120.13422108 C241.00932953 120.13422108 111.97932953 120.13422108 -20.96067047 120.13422108 Z M4.03932953 478.13422108 C4.03932953 483.41422108 4.03932953 488.69422108 4.03932953 494.13422108 C116.56932953 494.13422108 229.09932953 494.13422108 345.03932953 494.13422108 C345.03932953 488.85422108 345.03932953 483.57422108 345.03932953 478.13422108 C232.50932953 478.13422108 119.97932953 478.13422108 4.03932953 478.13422108 Z " fill="#000000" transform="translate(81.9606704711914,-0.13422107696533203)"/>
<path d="M0 0 C2.46570701 1.9376126 4.84936672 3.94289654 7.22265625 5.9921875 C7.95742188 6.58257812 8.6921875 7.17296875 9.44921875 7.78125 C30.40666627 25.18407745 42.77691331 52.4755342 45.97265625 79.1796875 C46.08022163 80.78241169 46.16208315 82.38700027 46.22265625 83.9921875 C46.27421875 84.99765625 46.32578125 86.003125 46.37890625 87.0390625 C47.1916408 116.43296215 36.48162281 145.01835811 16.5390625 166.546875 C15.77464844 167.35382813 15.01023437 168.16078125 14.22265625 168.9921875 C13.48917969 169.77851563 12.75570312 170.56484375 12 171.375 C6.86496963 176.71832966 1.47164814 181.01974575 -4.77734375 184.9921875 C-5.69257813 185.57871094 -6.6078125 186.16523438 -7.55078125 186.76953125 C-32.87130608 202.28089833 -62.82569 206.43549253 -91.58984375 199.7421875 C-99.31278586 197.82215335 -106.65483726 195.60067222 -113.77734375 191.9921875 C-114.68661621 191.53634277 -114.68661621 191.53634277 -115.61425781 191.07128906 C-125.80933703 185.88590411 -134.39476661 179.75040717 -142.77734375 171.9921875 C-143.53660156 171.30253906 -144.29585937 170.61289062 -145.078125 169.90234375 C-165.50873812 150.50317906 -176.42272026 121.85581465 -177.25048828 94.05175781 C-177.53084029 62.11201795 -165.96610089 33.84503271 -143.77734375 10.9921875 C-127.25769832 -5.24361523 -107.21232682 -14.20559329 -84.77734375 -19.0078125 C-83.88402344 -19.20117188 -82.99070312 -19.39453125 -82.0703125 -19.59375 C-53.23805385 -23.21915856 -23.66904476 -17.110955 0 0 Z M-137.47265625 31.0234375 C-153.70203135 50.60343278 -160.4002521 74.85514045 -158.77734375 99.9921875 C-158.00153003 106.41174452 -156.82331265 112.8542808 -154.77734375 118.9921875 C-150.28645693 118.45727821 -146.11910344 117.59057792 -141.78027344 116.32885742 C-110.45265542 107.30196792 -79.93701587 104.73708031 -50.07983398 118.76318359 C-32.6381924 126.83291957 -14.30377133 126.79038345 3.78125 120.34375 C11.32578942 117.38074133 18.78173061 114.20520819 26.22265625 110.9921875 C30.32979771 83.87147651 26.46132599 58.84710863 10.22265625 35.9921875 C4.16181875 27.86621011 -2.40939428 20.79776191 -10.77734375 14.9921875 C-11.751875 14.31542969 -12.72640625 13.63867188 -13.73046875 12.94140625 C-53.79437637 -13.25802102 -106.34667138 -4.79778423 -137.47265625 31.0234375 Z M-146.77734375 136.9921875 C-134.16715655 159.14881924 -113.98147917 174.66061626 -89.49926758 181.53417969 C-65.50289467 187.97146131 -40.1402848 184.49187733 -18.65234375 172.1796875 C-13.34905803 168.86832611 -8.57212484 164.99054732 -3.77734375 160.9921875 C-3.16117188 160.52296875 -2.545 160.05375 -1.91015625 159.5703125 C6.14576749 153.25922017 12.11502424 144.27900769 16.22265625 134.9921875 C12.44103643 135.66524644 8.92557276 136.71315487 5.28515625 137.9296875 C-17.83639884 145.08202456 -39.98740127 142.91478589 -61.57421875 132.6640625 C-81.32180493 123.40389497 -129.79284444 120.00768819 -146.77734375 136.9921875 Z " fill="#000000" transform="translate(321.77734375,199.0078125)"/>
<path d="M0 0 C23.90610518 21.86692743 40.68990547 55.8652921 42.29345703 88.28027344 C42.75361278 103.03991354 42.77864984 117.51288864 39.125 131.875 C38.89151855 132.86669189 38.89151855 132.86669189 38.65332031 133.87841797 C30.94845392 166.2434705 9.55721132 197.23285226 -18.875 214.875 C-51.37670353 234.50666449 -88.35506524 242.81813229 -125.875 233.875 C-126.8966626 233.64151855 -126.8966626 233.64151855 -127.93896484 233.40332031 C-145.0684447 229.36003673 -161.83978966 221.49057015 -175.875 210.875 C-176.76832031 210.20210937 -177.66164062 209.52921875 -178.58203125 208.8359375 C-207.7100011 185.91693404 -226.21768203 153.43790965 -230.90844727 116.63232422 C-235.07141788 79.22750515 -224.54975069 43.0695229 -201.31640625 13.6015625 C-178.88947283 -14.15238463 -146.69388559 -32.11284681 -111.1875 -36.4375 C-69.43373366 -40.84586246 -31.47834512 -27.12552168 0 0 Z M-183.875 20.875 C-204.9214344 45.69196825 -215.76050689 76.57142985 -213.60327148 109.22070312 C-210.78946769 141.52075171 -195.19097113 170.65344646 -170.875 191.875 C-166.73686793 195.18751121 -162.36105346 198.05342707 -157.875 200.875 C-157.21886719 201.3390625 -156.56273437 201.803125 -155.88671875 202.28125 C-145.1919696 209.67983478 -131.35861258 213.86380133 -118.875 216.875 C-117.98683594 217.10058594 -117.09867187 217.32617188 -116.18359375 217.55859375 C-87.04126274 223.70944964 -55.88335603 216.22896742 -30.875 200.875 C-6.38692578 184.74443082 11.3390142 161.56697606 19.8125 133.4375 C20.01512451 132.77000732 20.21774902 132.10251465 20.42651367 131.41479492 C29.16357485 101.01915323 24.2165895 68.85351235 9.36816406 41.32055664 C5.60305618 34.65914394 1.00427492 28.74892647 -3.875 22.875 C-4.54402344 22.05257812 -5.21304688 21.23015625 -5.90234375 20.3828125 C-10.94065568 14.42750719 -16.69387423 9.60892284 -22.875 4.875 C-24.04482422 3.96427734 -24.04482422 3.96427734 -25.23828125 3.03515625 C-73.65494714 -32.85013729 -144.16499495 -23.58794001 -183.875 20.875 Z " fill="#000000" transform="translate(350.875,190.125)"/>
<path d="M0 0 C1.06559143 -0.0087616 2.13118286 -0.01752319 3.22906494 -0.02655029 C6.749479 -0.04854695 10.26863579 -0.03398934 13.7890625 -0.01708984 C16.23616782 -0.02045787 18.6832715 -0.02531037 21.13037109 -0.03158569 C26.25830008 -0.03895744 31.38579352 -0.02824101 36.51367188 -0.00488281 C43.08807035 0.02360421 49.66144829 0.00720199 56.23580933 -0.02274513 C61.28873388 -0.04080938 66.34141632 -0.03506388 71.39434814 -0.02210617 C73.81846233 -0.01876979 76.24259846 -0.02286731 78.66668701 -0.03450394 C82.05442563 -0.04719736 85.44050969 -0.02785394 88.828125 0 C89.83087463 -0.01012115 90.83362427 -0.02024231 91.86676025 -0.03067017 C96.48202511 0.03966151 98.72091497 0.14197412 102.53623962 2.92166138 C104.38007037 5.59763939 105.04081722 6.72389829 105.04516602 9.89892578 C105.05769913 10.7032605 105.07023224 11.50759521 105.08314514 12.33630371 C105.06988693 13.19163696 105.05662872 14.04697021 105.04296875 14.92822266 C105.04538071 15.81932739 105.04779266 16.71043213 105.05027771 17.62854004 C105.04930053 19.50793926 105.03593761 21.38736772 105.01098633 23.26660156 C104.97667117 26.13787945 104.99033461 29.00607904 105.00976562 31.87744141 C105.00286688 33.70688155 104.99319423 35.53631377 104.98046875 37.36572266 C104.98790855 38.64872253 104.98790855 38.64872253 104.99549866 39.9576416 C104.91600405 43.99520951 104.71804178 46.1505816 102.56616211 49.66455078 C99.51100571 52.47882984 97.05635795 52.77202095 93.06277466 52.78068542 C91.72957687 52.7870829 91.72957687 52.7870829 90.3694458 52.79360962 C89.39690857 52.79315643 88.42437134 52.79270325 87.42236328 52.79223633 C85.88293564 52.79727425 85.88293564 52.79727425 84.31240845 52.80241394 C80.91138507 52.81193208 77.51041088 52.8138675 74.109375 52.81494141 C71.74909444 52.81815343 69.38881407 52.82151746 67.02853394 52.82502747 C62.0771234 52.83102093 57.12573032 52.83286715 52.17431641 52.83227539 C45.82660958 52.83217377 39.47901461 52.84582545 33.1313343 52.8630476 C28.25519292 52.87416092 23.37907863 52.8761948 18.50292587 52.87566566 C16.1625416 52.87684681 13.82215665 52.88127609 11.48178482 52.88899803 C8.20929358 52.89878412 4.93704586 52.8959252 1.66455078 52.88989258 C0.69606201 52.89551208 -0.27242676 52.90113159 -1.27026367 52.90692139 C-9.82852815 52.86678721 -9.82852815 52.86678721 -13.5859375 50.64697266 C-15.61367338 47.60536883 -15.84200373 46.95687502 -15.89233398 43.53027344 C-15.90832138 42.70576691 -15.92430878 41.88126038 -15.94078064 41.0317688 C-15.94614334 40.1442392 -15.95150604 39.25670959 -15.95703125 38.34228516 C-15.96605972 37.42615448 -15.9750882 36.5100238 -15.98439026 35.56613159 C-15.99889835 33.62777985 -16.00778088 31.68937908 -16.01147461 29.75097656 C-16.02336637 26.78968495 -16.07254142 23.83048035 -16.12304688 20.86962891 C-16.13251177 18.98552449 -16.13974649 17.10140727 -16.14453125 15.21728516 C-16.16406357 14.33380402 -16.18359589 13.45032288 -16.20372009 12.54006958 C-16.19764236 11.70925873 -16.19156464 10.87844788 -16.18530273 10.02246094 C-16.19037338 9.29648712 -16.19544403 8.57051331 -16.20066833 7.82254028 C-13.87956811 -0.39196633 -7.09515946 -0.07161429 0 0 Z M2.4140625 18.64697266 C2.4140625 23.92697266 2.4140625 29.20697266 2.4140625 34.64697266 C30.1340625 34.64697266 57.8540625 34.64697266 86.4140625 34.64697266 C86.4140625 29.36697266 86.4140625 24.08697266 86.4140625 18.64697266 C58.6940625 18.64697266 30.9740625 18.64697266 2.4140625 18.64697266 Z " fill="#000000" transform="translate(92.5859375,33.35302734375)"/>
<path d="M0 0 C5.85371842 4.27218748 10.18859971 9.44536217 11.625 16.61328125 C12.97529167 25.30015764 11.24689437 32.37365602 6.13671875 39.54296875 C0.62748016 45.54792614 -6.04576697 48.26133304 -14.0234375 48.875 C-21.49315155 48.37701906 -28.30963801 45.84354165 -33.7734375 40.625 C-39.0915667 34.43227131 -41.02283344 27.07148559 -40.65234375 18.98046875 C-39.52155996 11.39139401 -35.79795905 6.49441788 -30.3359375 1.3125 C-20.85892881 -4.92845694 -10.05680128 -5.76546262 0 0 Z M-20.2109375 16.1875 C-22.37739778 19.56717804 -22.33631752 21.68483987 -21.7734375 25.625 C-19.9969571 28.03593768 -18.5575983 29.2329196 -15.8984375 30.5625 C-12.63312048 30.65853874 -10.52430921 29.27552303 -7.7734375 27.625 C-6.22756874 24.53326248 -6.47984229 22.03070448 -6.7734375 18.625 C-8.19010417 16.04166667 -8.19010417 16.04166667 -10.7734375 14.625 C-14.71359763 14.06211998 -16.83125946 14.02103972 -20.2109375 16.1875 Z " fill="#000000" transform="translate(321.7734375,37.375)"/>
<path d="M0 0 C5.28512992 3.80108076 9.74146466 9.06634845 11.15625 15.55078125 C11.82330213 22.86982544 11.83963829 29.10485175 8.15625 35.55078125 C7.599375 36.58203125 7.0425 37.61328125 6.46875 38.67578125 C1.98233208 44.25349001 -3.8527476 47.15258077 -10.84375 48.55078125 C-19.06725819 49.31221719 -26.4088225 46.63886346 -32.84375 41.55078125 C-38.11496582 35.82774693 -40.39405259 30.04775534 -41.15625 22.42578125 C-40.62669726 15.85932724 -38.68307354 9.83750781 -34.53125 4.67578125 C-23.9392451 -3.69929239 -12.79242182 -7.37225608 0 0 Z M-21.84375 18.55078125 C-23.07391431 21.74920846 -23.04677115 23.03725718 -21.78125 26.23828125 C-19.31035246 29.18741702 -17.61141854 29.87260091 -13.84375 30.55078125 C-9.9771676 29.58413565 -9.09884535 28.93342427 -6.84375 25.55078125 C-6.2599304 22.63585575 -6.2599304 22.63585575 -6.84375 19.55078125 C-9.32977449 16.18733636 -10.75800523 14.75020376 -14.90625 13.98828125 C-18.52812046 14.68183091 -19.68300205 15.58975628 -21.84375 18.55078125 Z " fill="#000000" transform="translate(253.84375,37.44921875)"/>
<path d="M0 0 C1.70446289 -0.01643555 1.70446289 -0.01643555 3.44335938 -0.03320312 C11.81145431 0.04085081 11.81145431 0.04085081 14.73022461 2.47290039 C17.55138683 5.92582867 17.87367072 8.11355862 17.4375 12.5625 C15.28659549 15.90011045 14.23337201 17.29720933 10.4375 18.5625 C6.98355916 18.81674949 3.52482577 18.79378473 0.0625 18.8125 C-0.88367188 18.833125 -1.82984375 18.85375 -2.8046875 18.875 C-11.6191965 18.92451971 -11.6191965 18.92451971 -15.5625 15.5625 C-18.06281654 11.81202518 -18.09853554 10.00393734 -17.5625 5.5625 C-13.24381372 -1.10919248 -7.16898722 -0.150969 0 0 Z " fill="#000000" transform="translate(418.5625,50.4375)"/>
<path d="M0 0 C1.70446289 -0.01643555 1.70446289 -0.01643555 3.44335938 -0.03320312 C11.7790785 0.0405643 11.7790785 0.0405643 14.73413086 2.38305664 C17.12439347 5.44137316 17.36999311 7.71460716 17.4375 11.5625 C16.22019208 14.6057698 15.312013 16.07208683 12.4453125 17.6796875 C8.10109179 18.95474449 3.94153746 18.89131898 -0.5625 18.875 C-1.89667969 18.89916992 -1.89667969 18.89916992 -3.2578125 18.92382812 C-8.19052254 18.92750925 -11.56280407 18.77319341 -15.5625 15.5625 C-18.09043912 13.03456088 -17.91363422 11.19035835 -18.12109375 7.73046875 C-15.81590993 -1.21622368 -7.46886602 -0.15728403 0 0 Z " fill="#000000" transform="translate(367.5625,50.4375)"/>
</svg>
