<svg width="29" height="34" viewBox="0 0 29 34" fill="none" xmlns="http://www.w3.org/2000/svg">
<path d="M25.8401 33.2H3.01005C2.73005 33.08 2.57006 32.79 2.61006 32.49C2.62006 32.02 2.61006 31.55 2.61006 31.09C1.31006 30.74 1.00006 30.33 1.00006 28.99V3.88C0.97006 3.13 1.24006 2.4 1.75006 1.84C2.20006 1.39 2.77005 1.1 3.40005 1H25.4801C25.9101 1.14 26.3301 1.31999 26.7301 1.53999C27.5101 2.08999 27.9301 3.02001 27.8501 3.96001C27.8501 12.36 27.8501 20.76 27.8501 29.17C27.8501 29.31 27.8501 29.44 27.8301 29.58C27.7801 30.33 27.2001 30.94 26.4501 31.03C26.3801 31.04 26.3101 31.06 26.2301 31.08C26.2301 31.55 26.2201 32 26.2301 32.45C26.2801 32.76 26.1201 33.06 25.8401 33.21M26.7601 8.55H2.06006V29.17C2.06006 29.84 2.21005 30 2.90005 30H25.8901C26.6201 30 26.7601 29.86 26.7601 29.14V8.55ZM2.07007 7.42H26.7401C26.7401 7.35 26.7601 7.29001 26.7601 7.24001V3.78C26.7601 3.6 26.7401 3.42 26.6901 3.25C26.4801 2.49 25.7501 2.00001 24.9701 2.07001H3.87006C3.78006 2.07001 3.68006 2.07001 3.59006 2.07001C2.78006 2.10001 2.12006 2.76001 2.09006 3.57001C2.05006 4.83001 2.09006 6.09999 2.09006 7.39999M25.1501 31.07H3.72006V32.1H25.1501V31.07Z" fill="#000F52"/>
<path d="M25.8401 33.2H3.01005C2.73005 33.08 2.57006 32.79 2.61006 32.49C2.62006 32.02 2.61006 31.55 2.61006 31.09C1.31006 30.74 1.00006 30.33 1.00006 28.99V3.88C0.97006 3.13 1.24006 2.4 1.75006 1.84C2.20006 1.39 2.77005 1.1 3.40005 1H25.4801C25.9101 1.14 26.3301 1.31999 26.7301 1.53999C27.5101 2.08999 27.9301 3.02001 27.8501 3.96001C27.8501 12.36 27.8501 20.76 27.8501 29.17C27.8501 29.31 27.8501 29.44 27.8301 29.58C27.7801 30.33 27.2001 30.94 26.4501 31.03C26.3801 31.04 26.3101 31.06 26.2301 31.08C26.2301 31.55 26.2201 32 26.2301 32.45C26.2801 32.76 26.1201 33.06 25.8401 33.21M2.07007 7.42H26.7401C26.7401 7.35 26.7601 7.29001 26.7601 7.24001V3.78C26.7601 3.6 26.7401 3.42 26.6901 3.25C26.4801 2.49 25.7501 2.00001 24.9701 2.07001H3.87006C3.78006 2.07001 3.68006 2.07001 3.59006 2.07001C2.78006 2.10001 2.12006 2.76001 2.09006 3.57001C2.05006 4.83001 2.09006 6.09999 2.09006 7.39999M26.7601 8.55H2.06006V29.17C2.06006 29.84 2.21005 30 2.90005 30H25.8901C26.6201 30 26.7601 29.86 26.7601 29.14V8.55ZM25.1501 31.07H3.72006V32.1H25.1501V31.07Z" stroke="#000F52" stroke-width="0.5"/>
<path d="M23.0101 19.2599C23.0101 23.9999 19.1601 27.8399 14.4201 27.8399C9.68009 27.8399 5.84009 23.9899 5.84009 19.2499C5.84009 14.5099 9.69008 10.6699 14.4301 10.6699C19.1601 10.6899 22.9901 14.5299 23.0001 19.2599M21.9301 19.2599C21.9301 15.1099 18.5701 11.7399 14.4201 11.7399C10.2701 11.7399 6.90009 15.0999 6.90009 19.2499C6.90009 23.3899 10.2401 26.7499 14.3801 26.7699C18.5401 26.7699 21.9101 23.4199 21.9201 19.2599" fill="#000F52"/>
<path d="M23.0101 19.2599C23.0101 23.9999 19.1601 27.8399 14.4201 27.8399C9.68009 27.8399 5.84009 23.9899 5.84009 19.2499C5.84009 14.5099 9.69008 10.6699 14.4301 10.6699C19.1601 10.6899 22.9901 14.5299 23.0001 19.2599M21.9301 19.2599C21.9301 15.1099 18.5701 11.7399 14.4201 11.7399C10.2701 11.7399 6.90009 15.0999 6.90009 19.2499C6.90009 23.3899 10.2401 26.7499 14.3801 26.7699C18.5401 26.7699 21.9101 23.4199 21.9201 19.2599" stroke="#000F52" stroke-width="0.5"/>
<path d="M6.89015 6.35991H4.00015C3.28015 6.35991 3.15015 6.22991 3.15015 5.48991V3.85991C3.15015 3.34991 3.34016 3.1499 3.85016 3.1499H9.98015C10.4701 3.1499 10.6702 3.3499 10.6702 3.8399C10.6702 4.4599 10.6702 5.07991 10.6702 5.69991C10.6702 6.18991 10.4802 6.37991 9.97015 6.37991H6.89015M4.23015 5.2899H9.57016V4.2599H4.23015V5.2899Z" fill="#000F52"/>
<path d="M6.89015 6.35991H4.00015C3.28015 6.35991 3.15015 6.22991 3.15015 5.48991V3.85991C3.15015 3.34991 3.34016 3.1499 3.85016 3.1499H9.98015C10.4701 3.1499 10.6702 3.3499 10.6702 3.8399C10.6702 4.4599 10.6702 5.07991 10.6702 5.69991C10.6702 6.18991 10.4802 6.37991 9.97015 6.37991H6.89015M4.23015 5.2899H9.57016V4.2599H4.23015V5.2899Z" stroke="#000F52" stroke-width="0.5"/>
<path d="M13.34 6.35991C12.46 6.35991 11.75 5.65991 11.74 4.77991C11.74 4.77991 11.74 4.7699 11.74 4.7599C11.74 3.8799 12.45 3.1599 13.33 3.1499C14.22 3.1499 14.95 3.87991 14.95 4.76991C14.94 5.64991 14.22 6.35991 13.33 6.35991M13.87 4.76991C13.87 4.48991 13.65 4.2499 13.37 4.2299C13.08 4.2199 12.83 4.44991 12.82 4.73991C12.81 5.01991 13.03 5.26991 13.31 5.27991C13.6 5.29991 13.85 5.06991 13.87 4.77991" fill="#000F52"/>
<path d="M13.34 6.35991C12.46 6.35991 11.75 5.65991 11.74 4.77991C11.74 4.77991 11.74 4.7699 11.74 4.7599C11.74 3.8799 12.45 3.1599 13.33 3.1499C14.22 3.1499 14.95 3.87991 14.95 4.76991C14.94 5.64991 14.22 6.35991 13.33 6.35991M13.87 4.76991C13.87 4.48991 13.65 4.2499 13.37 4.2299C13.08 4.2199 12.83 4.44991 12.82 4.73991C12.81 5.01991 13.03 5.26991 13.31 5.27991C13.6 5.29991 13.85 5.06991 13.87 4.77991" stroke="#000F52" stroke-width="0.5"/>
<path d="M19.24 4.7399C19.24 5.6299 18.53 6.3499 17.64 6.3499C16.75 6.3499 16.03 5.63989 16.03 4.74989C16.03 3.85989 16.74 3.13989 17.63 3.13989C18.52 3.13989 19.24 3.8499 19.24 4.7399ZM18.17 4.7399C18.17 4.4499 17.92 4.20989 17.63 4.21989C17.34 4.22989 17.1 4.46989 17.11 4.75989C17.11 5.04989 17.36 5.28989 17.65 5.27989C17.94 5.26989 18.18 5.0299 18.17 4.7399Z" fill="#000F52" stroke="#000F52" stroke-width="0.5"/>
<path d="M21.4202 5.27997C21.2202 5.27997 21.0202 5.28997 20.8202 5.27997C20.5502 5.27997 20.3402 5.05996 20.3302 4.78996C20.3002 4.52996 20.4802 4.28997 20.7402 4.24997C21.1702 4.20997 21.5902 4.20997 22.0202 4.24997C22.2802 4.26997 22.4702 4.49997 22.4502 4.75997C22.4502 4.77997 22.4502 4.79998 22.4502 4.81998C22.4402 5.08998 22.2202 5.28996 21.9502 5.28996C21.7702 5.29996 21.5902 5.28996 21.4202 5.28996" fill="#000F52"/>
<path d="M21.4202 5.27997C21.2202 5.27997 21.0202 5.28997 20.8202 5.27997C20.5502 5.27997 20.3402 5.05996 20.3302 4.78996C20.3002 4.52996 20.4802 4.28997 20.7402 4.24997C21.1702 4.20997 21.5902 4.20997 22.0202 4.24997C22.2802 4.26997 22.4702 4.49997 22.4502 4.75997C22.4502 4.77997 22.4502 4.79998 22.4502 4.81998C22.4402 5.08998 22.2202 5.28996 21.9502 5.28996C21.7702 5.29996 21.5902 5.28996 21.4202 5.28996" stroke="#000F52" stroke-width="0.5"/>
<path d="M24.61 5.28C24.41 5.29 24.21 5.29 24.01 5.28C23.76 5.27 23.55 5.06 23.55 4.81C23.53 4.54 23.65 4.3 23.93 4.28C24.39 4.24 24.84 4.24 25.3 4.28C25.57 4.31 25.69 4.55001 25.66 4.82001C25.66 5.08001 25.45 5.27999 25.2 5.28999C25 5.30999 24.8 5.28999 24.6 5.28999" fill="#000F52"/>
<path d="M24.61 5.28C24.41 5.29 24.21 5.29 24.01 5.28C23.76 5.27 23.55 5.06 23.55 4.81C23.53 4.54 23.65 4.3 23.93 4.28C24.39 4.24 24.84 4.24 25.3 4.28C25.57 4.31 25.69 4.55001 25.66 4.82001C25.66 5.08001 25.45 5.27999 25.2 5.28999C25 5.30999 24.8 5.28999 24.6 5.28999" stroke="#000F52" stroke-width="0.5"/>
<path d="M7.43994 19.25C7.43994 15.4 10.5499 12.27 14.4099 12.26C18.2699 12.25 21.3899 15.3701 21.3999 19.2301C21.3999 23.0701 18.3099 26.19 14.4699 26.22C10.6099 26.24 7.45994 23.12 7.44994 19.25M8.80994 21.03C9.54994 20.86 10.2499 20.67 10.9499 20.53C12.5099 20.12 14.1599 20.31 15.5799 21.08C16.2599 21.44 17.0499 21.53 17.7899 21.33C18.5299 21.16 19.2399 20.86 19.9599 20.63C20.1099 20.59 20.2199 20.46 20.2299 20.3C20.4199 19.33 20.3499 18.32 20.0199 17.39C19.3399 15.16 17.3699 13.58 15.0499 13.41C12.6499 13.08 10.3099 14.32 9.22993 16.49C8.45993 17.88 8.29994 19.54 8.80994 21.05M19.5999 21.9501C19.5399 21.9701 19.4899 21.99 19.4299 22.01C17.8799 22.7 16.0999 22.64 14.6099 21.84C14.3199 21.69 14.0199 21.58 13.6999 21.51C12.8099 21.36 11.8999 21.4 11.0199 21.63C10.4299 21.73 9.84993 21.91 9.22993 22.07C10.2699 24.03 12.3399 25.23 14.5599 25.15C16.7199 25.15 18.6799 23.9001 19.5999 21.9501Z" fill="#000F52"/>
<path d="M7.43994 19.25C7.43994 15.4 10.5499 12.27 14.4099 12.26C18.2699 12.25 21.3899 15.3701 21.3999 19.2301C21.3999 23.0701 18.3099 26.19 14.4699 26.22C10.6099 26.24 7.45994 23.12 7.44994 19.25M8.80994 21.03C9.54994 20.86 10.2499 20.67 10.9499 20.53C12.5099 20.12 14.1599 20.31 15.5799 21.08C16.2599 21.44 17.0499 21.53 17.7899 21.33C18.5299 21.16 19.2399 20.86 19.9599 20.63C20.1099 20.59 20.2199 20.46 20.2299 20.3C20.4199 19.33 20.3499 18.32 20.0199 17.39C19.3399 15.16 17.3699 13.58 15.0499 13.41C12.6499 13.08 10.3099 14.32 9.22993 16.49C8.45993 17.88 8.29994 19.54 8.80994 21.05M19.5999 21.9501C19.5399 21.9701 19.4899 21.99 19.4299 22.01C17.8799 22.7 16.0999 22.64 14.6099 21.84C14.3199 21.69 14.0199 21.58 13.6999 21.51C12.8099 21.36 11.8999 21.4 11.0199 21.63C10.4299 21.73 9.84993 21.91 9.22993 22.07C10.2699 24.03 12.3399 25.23 14.5599 25.15C16.7199 25.15 18.6799 23.9001 19.5999 21.9501Z" stroke="#000F52" stroke-width="0.5"/>
</svg>
