<?xml version="1.0" encoding="UTF-8"?>
<svg version="1.1" xmlns="http://www.w3.org/2000/svg" width="512" height="512">
<path d="M0 0 C5.86748596 3.54572807 10.46895668 8.98266111 12.5625 15.5 C12.74454833 18.2541461 12.82411248 20.90395568 12.80300903 23.65608215 C12.80557231 24.88143072 12.80557231 24.88143072 12.80818737 26.1315338 C12.8114791 28.8661804 12.80048378 31.60058112 12.78955078 34.33520508 C12.7889866 36.29650873 12.78930336 38.2578128 12.79043579 40.21911621 C12.79101003 45.54306746 12.77924414 50.86692875 12.76528788 56.19085908 C12.75279243 61.75489487 12.75161095 67.31893269 12.74923706 72.88298035 C12.74301881 83.41908401 12.7266033 93.95514622 12.70653808 104.49123162 C12.68418983 116.4862768 12.67318835 128.48132395 12.66314721 140.47638476 C12.6422374 165.15094617 12.60705469 189.82547076 12.5625 214.5 C13.48804688 214.46648437 14.41359375 214.43296875 15.3671875 214.3984375 C19.59111621 214.5326944 21.32846766 215.82840806 24.5625 218.5 C28.26467248 223.07475165 29.13329442 226.59810779 29.01660156 232.34130859 C29.01718567 233.10296326 29.01776978 233.86461792 29.01837158 234.64935303 C29.01560023 237.14952274 28.98455506 239.64847788 28.953125 242.1484375 C28.94565919 243.88863473 28.93996786 245.62884041 28.93597412 247.36904907 C28.92074448 251.93621267 28.881486 256.50286271 28.8371582 261.06982422 C28.79614766 265.7352809 28.77795079 270.40082104 28.7578125 275.06640625 C28.7149889 284.21116241 28.64677018 293.3555384 28.5625 302.5 C29.23716309 302.47905273 29.91182617 302.45810547 30.60693359 302.43652344 C33.71696567 302.35245414 36.82675759 302.30105556 39.9375 302.25 C40.99839844 302.21648437 42.05929687 302.18296875 43.15234375 302.1484375 C52.77302214 302.03039237 60.87021065 304.10873448 68.03125 310.796875 C74.76416435 318.28552464 76.86343124 325.95889095 76.85302734 335.83496094 C76.85974457 336.75611694 76.86646179 337.67727295 76.87338257 338.62634277 C76.89233232 341.66240887 76.89628546 344.69825349 76.8984375 347.734375 C76.90486826 349.85418792 76.91159683 351.97399996 76.91860962 354.09381104 C76.93057537 358.53554338 76.93429123 362.97719799 76.93310547 367.41894531 C76.93290249 373.0925112 76.96018601 378.765575 76.99464989 384.43902206 C77.01696046 388.81783304 77.02094171 393.19652407 77.01988602 397.57538605 C77.02223642 399.66603574 77.03102815 401.75668902 77.04655075 403.84728241 C77.06629172 406.78102578 77.0603405 409.71369788 77.04833984 412.64746094 C77.05957886 413.49975281 77.07081787 414.35204468 77.08239746 415.23016357 C76.99352583 423.84121657 74.18852317 431.62706106 68.265625 437.96875 C61.3028298 444.22887779 54.04376425 446.86071984 44.6875 446.625 C43.99914062 446.61597656 43.31078125 446.60695313 42.6015625 446.59765625 C40.92172162 446.57432513 39.24206254 446.53846326 37.5625 446.5 C37.57821045 447.22590332 37.5939209 447.95180664 37.61010742 448.69970703 C37.67270355 452.00805788 37.71156912 455.31628381 37.75 458.625 C37.77513672 459.76710938 37.80027344 460.90921875 37.82617188 462.0859375 C37.91962289 472.80165368 37.91962289 472.80165368 34.5625 477.5 C31.81763568 478.87243216 29.59622697 478.65000883 26.52392578 478.67700195 C25.25565948 478.68983719 23.98739319 478.70267242 22.68069458 478.71589661 C21.28973785 478.72406334 19.89877671 478.7315072 18.5078125 478.73828125 C17.80855526 478.74235678 17.10929802 478.7464323 16.38885117 478.75063133 C12.68843633 478.77148921 8.98805856 478.78579263 5.28759766 478.79516602 C1.46516699 478.80623581 -2.35668236 478.8406421 -6.17890739 478.88033772 C-9.11802251 478.90647785 -12.05699849 478.91485542 -14.99621964 478.91844749 C-16.40524348 478.92331953 -17.81426087 478.93495126 -19.22317123 478.95348549 C-21.19535061 478.97781876 -23.16781243 478.97449785 -25.14013672 478.9699707 C-26.26217499 478.97583694 -27.38421326 478.98170319 -28.54025269 478.98774719 C-32.10858664 478.38702358 -33.24994079 477.32880243 -35.4375 474.5 C-38.39084086 465.63997743 -36.4375 455.83928382 -36.4375 446.5 C-120.5875 446.5 -204.7375 446.5 -291.4375 446.5 C-291.4375 455.74 -291.4375 464.98 -291.4375 474.5 C-295.78467312 478.84717312 -296.03236721 479.00140754 -301.703125 479.01757812 C-303.60529785 479.03649109 -303.60529785 479.03649109 -305.54589844 479.05578613 C-306.92643795 479.0486263 -308.30697239 479.04042231 -309.6875 479.03125 C-311.10709906 479.03394562 -312.52669631 479.03782863 -313.94628906 479.04284668 C-316.91879894 479.04873858 -319.89082741 479.04018954 -322.86328125 479.02148438 C-326.67008787 478.998694 -330.47576649 479.01181888 -334.28253174 479.03577423 C-337.21313956 479.05024114 -340.14348074 479.04562235 -343.07409668 479.03526306 C-344.47749974 479.03259819 -345.88092715 479.03585717 -347.28430176 479.04518127 C-349.24682135 479.05535941 -351.20942602 479.0370904 -353.171875 479.01757812 C-354.28788086 479.01439575 -355.40388672 479.01121338 -356.55371094 479.00793457 C-360.07971929 478.38688307 -361.24222318 477.26747986 -363.4375 474.5 C-364.67538052 471.34253122 -364.55305485 468.22431188 -364.53515625 464.859375 C-364.53193359 463.78945313 -364.52871094 462.71953125 -364.52539062 461.6171875 C-364.51282227 459.95042969 -364.51282227 459.95042969 -364.5 458.25 C-364.49548828 457.12335938 -364.49097656 455.99671875 -364.48632812 454.8359375 C-364.47455397 452.05723783 -364.4581084 449.27864591 -364.4375 446.5 C-365.40429688 446.54640625 -366.37109375 446.5928125 -367.3671875 446.640625 C-378.12815727 446.93894891 -386.76081986 445.81064938 -394.90625 438.203125 C-401.63916435 430.71447536 -403.73843124 423.04110905 -403.72802734 413.16503906 C-403.73474457 412.24388306 -403.74146179 411.32272705 -403.74838257 410.37365723 C-403.76733232 407.33759113 -403.77128546 404.30174651 -403.7734375 401.265625 C-403.77986826 399.14581208 -403.78659683 397.02600004 -403.79360962 394.90618896 C-403.80557537 390.46445662 -403.80929123 386.02280201 -403.80810547 381.58105469 C-403.80790249 375.9074888 -403.83518601 370.234425 -403.86964989 364.56097794 C-403.89196046 360.18216696 -403.89594171 355.80347593 -403.89488602 351.42461395 C-403.89723642 349.33396426 -403.90602815 347.24331098 -403.92155075 345.15271759 C-403.94129172 342.21897422 -403.9353405 339.28630212 -403.92333984 336.35253906 C-403.94019836 335.07410126 -403.94019836 335.07410126 -403.95739746 333.76983643 C-403.86852583 325.15878343 -401.06352317 317.37293894 -395.140625 311.03125 C-388.93582212 305.45261989 -382.01007607 302.24745396 -373.59233284 302.25390434 C-371.86580787 302.2479312 -371.86580787 302.2479312 -370.10440361 302.24183738 C-368.84954057 302.24766307 -367.59467753 302.25348875 -366.30178833 302.25949097 C-364.94779946 302.25861842 -363.59381092 302.25686654 -362.23982418 302.25431263 C-358.52502225 302.24984472 -354.81033584 302.25783513 -351.09554863 302.26786876 C-347.08743675 302.27650896 -343.07933134 302.27358269 -339.07121277 302.27206421 C-332.12881045 302.27101572 -325.18644574 302.27728857 -318.24405289 302.28853989 C-308.20653434 302.30479679 -298.16903397 302.31000309 -288.13150369 302.31251587 C-271.84612236 302.31689267 -255.56076107 302.33020138 -239.27539062 302.34912109 C-223.45605571 302.36748027 -207.63672623 302.38163659 -191.81738281 302.39013672 C-190.8422116 302.39066217 -189.86704039 302.39118761 -188.86231853 302.39172898 C-183.97015107 302.39433907 -179.07798357 302.39686648 -174.18581605 302.39935279 C-133.60303009 302.42008483 -93.02026619 302.45530997 -52.4375 302.5 C-52.44194122 301.6304921 -52.44638245 300.76098419 -52.45095825 299.86512756 C-52.49115362 291.64161862 -52.52154449 283.41814302 -52.54112434 275.19455814 C-52.55152916 270.96747178 -52.56562754 266.7404671 -52.58837891 262.51342773 C-52.6102257 258.42854963 -52.62209342 254.34374973 -52.62725449 250.25881767 C-52.63092911 248.70602628 -52.63810433 247.15323882 -52.64896011 245.60048103 C-52.78620242 225.14288362 -52.78620242 225.14288362 -48.0625 219.0625 C-44.90572489 215.9808862 -43.24386928 214.5268805 -38.8125 214.4609375 C-38.02875 214.47382813 -37.245 214.48671875 -36.4375 214.5 C-36.44026538 213.0204387 -36.44026538 213.0204387 -36.44308662 211.51098728 C-36.48750646 187.49869518 -36.52036139 163.48640842 -36.54112434 139.4740839 C-36.5514323 127.86185813 -36.56548348 116.24965951 -36.58837891 104.63745117 C-36.60832746 94.51501953 -36.62121993 84.39260756 -36.62567699 74.2701568 C-36.62828187 68.91154096 -36.63439457 63.5529814 -36.64896011 58.19438362 C-36.66256712 53.14738409 -36.66671632 48.10046385 -36.66371536 43.05344772 C-36.66426413 41.20439536 -36.66822293 39.35534025 -36.67591095 37.50630379 C-36.68592108 34.97387868 -36.68344691 32.44174955 -36.67800903 29.90931702 C-36.68674756 28.82221084 -36.68674756 28.82221084 -36.69566262 27.71314293 C-36.64514023 18.95612321 -35.21861581 11.24696498 -28.796875 4.87109375 C-20.98216052 -2.17913779 -9.9675209 -4.41697985 0 0 Z M-18.4375 19.5 C-19.64051191 23.10903572 -19.57257185 26.39404726 -19.55775452 30.14982605 C-19.55860894 30.93643138 -19.55946337 31.72303671 -19.56034368 32.53347856 C-19.56199492 35.17753403 -19.5564829 37.82152651 -19.55102539 40.46557617 C-19.55074342 42.35762022 -19.55090145 44.24966439 -19.5514679 46.14170837 C-19.55175547 51.2860043 -19.54586516 56.43027703 -19.53889394 61.57456756 C-19.53265378 66.94776655 -19.53205607 72.32096604 -19.53086853 77.69416809 C-19.52775718 87.87262233 -19.51954641 98.05106586 -19.50951904 108.22951537 C-19.49835184 119.81582013 -19.49284592 131.4021254 -19.48782361 142.9884342 C-19.47736365 166.82562894 -19.45956716 190.66281342 -19.4375 214.5 C-14.1575 214.5 -8.8775 214.5 -3.4375 214.5 C-3.47547639 189.14415152 -3.5344563 163.78845089 -3.62140274 138.43272018 C-3.66124102 126.66005977 -3.69360916 114.88746668 -3.70849609 103.11474609 C-3.72148781 92.85568046 -3.74838887 82.59676264 -3.79211307 72.33778024 C-3.81478374 66.90385149 -3.83040733 61.47010542 -3.82938385 56.03612518 C-3.82864055 50.92415107 -3.8464583 45.81258166 -3.87866783 40.7007122 C-3.88720427 38.82216931 -3.88889153 36.94358121 -3.88330269 35.06502724 C-3.87669738 32.50419828 -3.89449882 29.94467007 -3.91851807 27.38397217 C-3.91075765 26.63688862 -3.90299723 25.88980506 -3.89500165 25.12008262 C-3.95212992 21.69053499 -4.19973696 19.81722141 -6.28243637 17.03850174 C-11.15065527 13.56307617 -15.0041019 15.04929876 -18.4375 19.5 Z M-35.4375 230.5 C-35.4375 254.26 -35.4375 278.02 -35.4375 302.5 C-19.9275 302.5 -4.4175 302.5 11.5625 302.5 C11.5625 278.74 11.5625 254.98 11.5625 230.5 C-3.9475 230.5 -19.4575 230.5 -35.4375 230.5 Z M-383.4375 324.5625 C-386.58078699 329.17920276 -386.59670132 332.43236004 -386.61450195 337.89355469 C-386.62107315 338.76203033 -386.62764435 339.63050598 -386.63441467 340.52529907 C-386.65417029 343.40749188 -386.66581587 346.2896325 -386.67578125 349.171875 C-386.67985678 350.15548256 -386.6839323 351.13909012 -386.68813133 352.15250397 C-386.70900265 357.35947969 -386.72329925 362.56642898 -386.73266602 367.7734375 C-386.74372707 373.15154766 -386.77812055 378.52924368 -386.81783772 383.90720749 C-386.84398759 388.0422238 -386.85235646 392.17714125 -386.85594749 396.31223297 C-386.86081839 398.29455611 -386.87244665 400.27687469 -386.89098549 402.25911713 C-386.91534007 405.03603364 -386.91441853 407.81187651 -386.9074707 410.58886719 C-386.92028076 411.40571991 -386.93309082 412.22257263 -386.94628906 413.06417847 C-386.89826225 418.33890915 -385.92362302 421.31257311 -382.4375 425.5 C-376.48643172 430.18488354 -371.76074487 430.62407911 -364.35057449 430.63142776 C-363.64513819 430.6334804 -362.93970188 430.63553303 -362.21288872 430.63764787 C-359.84318187 430.64331351 -357.47353323 430.64186116 -355.1038208 430.64044189 C-353.39000213 430.64302577 -351.67618406 430.646039 -349.96236682 430.6494453 C-345.24798136 430.65751576 -340.53361113 430.65930489 -335.81921959 430.66004276 C-330.73660244 430.66189322 -325.6539932 430.66944048 -320.57138062 430.67617798 C-309.4557255 430.68976181 -298.340074 430.695786 -287.22441196 430.70018864 C-280.28488908 430.70295078 -273.34536759 430.70718806 -266.40584564 430.71169281 C-247.19528414 430.72388517 -227.98472376 430.73418479 -208.77415848 430.7375679 C-207.54457186 430.73778747 -206.31498524 430.73800703 -205.04813842 430.73823325 C-203.19933033 430.73856067 -203.19933033 430.73856067 -201.31317258 430.7388947 C-198.81555255 430.73933817 -196.31793253 430.73978473 -193.8203125 430.74023438 C-191.96195133 430.74056652 -191.96195133 430.74056652 -190.06604752 430.74090537 C-169.98739755 430.74485413 -149.90878385 430.76231067 -129.83014789 430.7855939 C-109.21964852 430.80930115 -88.60916736 430.82176945 -67.99865413 430.82293582 C-56.42499869 430.82385289 -44.85139053 430.82961341 -33.27774811 430.84775543 C-23.42341911 430.86314789 -13.569152 430.86828189 -3.71481326 430.86001733 C1.31309468 430.85610792 6.34087796 430.85705474 11.3687706 430.87107468 C15.97296722 430.88379581 20.57694528 430.88263176 25.18114153 430.87048396 C26.84534246 430.86852388 28.50955879 430.87161976 30.17373809 430.88032833 C43.38322142 431.37070727 43.38322142 431.37070727 55.12928081 426.22506833 C60.29915366 420.66162707 60.86251462 413.75849433 60.8371582 406.50439453 C60.84226913 405.73754333 60.84738007 404.97069214 60.85264587 404.18060303 C60.86645991 401.66459177 60.86559122 399.148857 60.86328125 396.6328125 C60.86717287 394.87075704 60.87150849 393.10870251 60.87626648 391.34664917 C60.88371124 387.65994216 60.88345023 383.97333095 60.87817383 380.28662109 C60.87238357 375.58046483 60.88930791 370.87470269 60.9125185 366.16861153 C60.92730695 362.53101336 60.92812057 358.89350898 60.92500877 355.25588608 C60.92551949 353.52167862 60.93070989 351.78746557 60.94082069 350.05328751 C61.54757942 336.23638321 61.54757942 336.23638321 56.28755188 323.93826294 C50.89364503 318.90743165 44.30018904 318.2504033 37.22947884 318.24552441 C36.16786284 318.24071469 36.16786284 318.24071469 35.08480006 318.23580781 C32.71922058 318.2275231 30.35389528 318.23342666 27.98831177 318.23930359 C26.27276597 318.23628221 24.55722152 318.23239279 22.84167945 318.22771102 C18.1317925 318.21742058 13.42198157 318.21961552 8.71208835 318.22389162 C3.63086547 318.22635693 -1.45033902 318.21734709 -6.53155518 318.20985413 C-16.48453498 318.19709971 -26.43748782 318.19531436 -36.39047442 318.19765439 C-44.47995562 318.19943687 -52.56942863 318.1976894 -60.65890884 318.19342995 C-61.80991218 318.19283476 -62.96091552 318.19223957 -64.14679775 318.19162634 C-66.48500744 318.1904146 -68.82321712 318.18920047 -71.1614268 318.18798397 C-93.09309073 318.17710557 -115.0247393 318.17927234 -136.9564041 318.18536881 C-157.02199649 318.19053827 -177.08754034 318.17928229 -197.15312313 318.16027059 C-217.75464887 318.14090069 -238.35615163 318.13263471 -258.95768654 318.13639385 C-270.52460141 318.13830717 -282.09147497 318.13580552 -293.65838242 318.12167931 C-303.50534794 318.10977535 -313.35224671 318.10834957 -323.19921313 318.12046947 C-328.2230812 318.12636505 -333.24682711 318.12743879 -338.2706871 318.11546707 C-342.87110847 318.1046318 -347.47130533 318.1076836 -352.07171609 318.12172876 C-353.73450916 318.12438217 -355.39731969 318.12198894 -357.06009565 318.11399289 C-371.55495398 317.54803756 -371.55495398 317.54803756 -383.4375 324.5625 Z M-347.4375 446.5 C-347.4375 451.78 -347.4375 457.06 -347.4375 462.5 C-334.2375 462.5 -321.0375 462.5 -307.4375 462.5 C-307.4375 457.22 -307.4375 451.94 -307.4375 446.5 C-320.6375 446.5 -333.8375 446.5 -347.4375 446.5 Z M-19.4375 446.5 C-19.4375 451.78 -19.4375 457.06 -19.4375 462.5 C-6.2375 462.5 6.9625 462.5 20.5625 462.5 C20.5625 457.22 20.5625 451.94 20.5625 446.5 C7.3625 446.5 -5.8375 446.5 -19.4375 446.5 Z " fill="#000000" transform="translate(419.4375,17.5)"/>
<path d="M0 0 C3.55255506 3.11034149 6.98657573 6.32285236 10.37792969 9.60791016 C11.07660156 10.26919922 11.77527344 10.93048828 12.49511719 11.61181641 C15.34875327 14.55093006 16.3548431 16.15387397 16.56542969 20.29541016 C15.14922971 24.24586273 14.03392061 25.57680409 10.37792969 27.60791016 C7.56542969 28.29541016 7.56542969 28.29541016 4.37792969 27.60791016 C1.44195183 25.57954138 -1.0399311 23.06135754 -3.62207031 20.60791016 C-13.58516328 11.48128352 -24.15297022 3.74316964 -35.62207031 -3.39208984 C-36.29496094 -3.81119629 -36.96785156 -4.23030273 -37.66113281 -4.66210938 C-78.73757681 -29.85416156 -129.67837917 -36.34851108 -176.29907227 -25.74902344 C-208.68790304 -17.91875666 -236.403005 -1.94718681 -261.39550781 19.81103516 C-262.19952026 20.50724976 -262.19952026 20.50724976 -263.01977539 21.2175293 C-264.10503228 22.15925381 -265.18547883 23.10654557 -266.26147461 24.05883789 C-268.82221929 26.27999268 -270.2880265 27.54655517 -273.68457031 28.17041016 C-277.44869097 27.44962109 -279.05931562 26.4635511 -281.62207031 23.60791016 C-282.87207031 20.35791016 -282.87207031 20.35791016 -282.62207031 16.60791016 C-280.67097588 13.54878679 -278.20917687 11.1344996 -275.62207031 8.60791016 C-274.86216797 7.77839844 -274.86216797 7.77839844 -274.08691406 6.93212891 C-208.03739118 -63.84728308 -88.11275816 -63.91413104 0 0 Z " fill="#000000" transform="translate(313.6220703125,154.39208984375)"/>
<path d="M0 0 C0.60489258 0.51224121 1.20978516 1.02448242 1.83300781 1.55224609 C8.22648246 7.06556582 8.22648246 7.06556582 8.75 12.5625 C8.66204817 15.55286214 8.46455601 16.49066599 6.75 19.0625 C3.76321276 21.0274916 1.96512634 21.625 -1.625 21.625 C-5.97898531 19.06383217 -9.45429421 16.01096337 -13.0625 12.5 C-37.86601823 -10.70680879 -73.38722653 -23.11211389 -107.17919922 -22.7265625 C-128.24544115 -22.015299 -148.87777493 -17.06512413 -167.625 -7.375 C-168.70007813 -6.84132812 -169.77515625 -6.30765625 -170.8828125 -5.7578125 C-183.29081947 0.60752441 -194.66182347 9.136137 -204.22265625 19.328125 C-206.51245717 21.44571248 -208.57723647 21.50308946 -211.625 21.625 C-215.2294368 20.03234188 -217.80742932 18.15916521 -219.625 14.625 C-219.625 10.2590449 -218.31218942 7.53135598 -215.38671875 4.3125 C-211.36872708 0.4637807 -207.00007506 -2.94557918 -202.625 -6.375 C-201.7175 -7.10976562 -200.81 -7.84453125 -199.875 -8.6015625 C-139.86107344 -55.77917699 -56.43415885 -47.79745442 0 0 Z " fill="#000000" transform="translate(285.625,196.375)"/>
<path d="M0 0 C3.85531608 3.07492548 7.55798339 6.29909869 11.19140625 9.63232422 C11.96097656 10.31939453 12.73054687 11.00646484 13.5234375 11.71435547 C15.70881958 14.22728896 15.82025973 16.38652049 15.63671875 19.65966797 C14.83662128 23.20395937 13.12192856 24.63707499 10.19140625 26.63232422 C7.00390625 27.50732422 7.00390625 27.50732422 3.19140625 26.63232422 C0.64530164 24.6383319 -1.62902258 22.44701024 -3.9609375 20.20654297 C-23.32907868 2.69816843 -47.4079192 -2.66867663 -72.85009766 -1.5703125 C-93.31511213 -0.16859918 -111.43118885 9.78987607 -126.12109375 23.69482422 C-128.85184848 26.12530923 -129.74346722 26.61907815 -133.49609375 27.38232422 C-137.79955942 26.40795463 -139.30874741 25.26846435 -141.80859375 21.63232422 C-142.54936004 18.15642084 -142.81442658 16.86664896 -141.80859375 13.63232422 C-130.20473293 -3.58295587 -103.25203032 -14.4746882 -83.73828125 -18.47705078 C-55.05313849 -23.43231423 -23.50131326 -17.77191643 0 0 Z " fill="#000000" transform="translate(243.80859375,226.36767578125)"/>
<path d="M0 0 C5.82485779 3.51996782 10.54466582 8.98962934 12.5625 15.5 C13.36764105 23.33608208 13.68710392 31.11922577 8.5625 37.5 C3.75801361 42.54521222 -0.59927055 46.10562995 -7.70703125 46.8359375 C-16.22326573 46.92983204 -22.11345494 46.6177288 -28.40234375 40.62890625 C-33.74990612 34.84391547 -36.30828365 29.51141362 -36.4375 21.5 C-35.51505842 12.86126138 -31.80819948 7.40000048 -25.31640625 1.796875 C-18.36691105 -2.99986597 -7.67893419 -3.40282182 0 0 Z M-16.8125 17.125 C-18.92456506 20.21186432 -19.04945145 21.8282913 -18.4375 25.5 C-16.9375 28 -16.9375 28 -14.4375 29.5 C-10.7657913 30.11195145 -9.14936432 29.98706506 -6.0625 27.875 C-3.95043494 24.78813568 -3.82554855 23.1717087 -4.4375 19.5 C-5.9375 17 -5.9375 17 -8.4375 15.5 C-12.1092087 14.88804855 -13.72563568 15.01293494 -16.8125 17.125 Z " fill="#000000" transform="translate(227.4375,353.5)"/>
<path d="M0 0 C5.59137949 3.37887664 10.95614309 9.07457238 12.5625 15.5 C14.04442542 22.90962711 13.44011931 28.95338574 9.875 35.6875 C5.02071288 41.59136272 0.14418266 46.02924169 -7.70703125 46.8359375 C-16.22326573 46.92983204 -22.11345494 46.6177288 -28.40234375 40.62890625 C-34.7841668 33.72505269 -35.91792252 28.29832071 -35.7421875 18.9453125 C-35.04689797 11.08319245 -31.38995981 6.95041296 -25.53515625 1.9453125 C-18.47077988 -2.92213491 -7.84396301 -3.47595223 0 0 Z M-16.8125 17.125 C-18.92456506 20.21186432 -19.04945145 21.8282913 -18.4375 25.5 C-16.9375 28 -16.9375 28 -14.4375 29.5 C-10.7657913 30.11195145 -9.14936432 29.98706506 -6.0625 27.875 C-3.95043494 24.78813568 -3.82554855 23.1717087 -4.4375 19.5 C-5.9375 17 -5.9375 17 -8.4375 15.5 C-12.1092087 14.88804855 -13.72563568 15.01293494 -16.8125 17.125 Z " fill="#000000" transform="translate(163.4375,353.5)"/>
<path d="M0 0 C5.59137949 3.37887664 10.95614309 9.07457238 12.5625 15.5 C14.04442542 22.90962711 13.44011931 28.95338574 9.875 35.6875 C5.02071288 41.59136272 0.14418266 46.02924169 -7.70703125 46.8359375 C-16.22326573 46.92983204 -22.11345494 46.6177288 -28.40234375 40.62890625 C-34.7841668 33.72505269 -35.91792252 28.29832071 -35.7421875 18.9453125 C-35.04689797 11.08319245 -31.38995981 6.95041296 -25.53515625 1.9453125 C-18.47077988 -2.92213491 -7.84396301 -3.47595223 0 0 Z M-16.8125 17.125 C-18.92456506 20.21186432 -19.04945145 21.8282913 -18.4375 25.5 C-16.9375 28 -16.9375 28 -14.4375 29.5 C-10.7657913 30.11195145 -9.14936432 29.98706506 -6.0625 27.875 C-3.95043494 24.78813568 -3.82554855 23.1717087 -4.4375 19.5 C-5.9375 17 -5.9375 17 -8.4375 15.5 C-12.1092087 14.88804855 -13.72563568 15.01293494 -16.8125 17.125 Z " fill="#000000" transform="translate(99.4375,353.5)"/>
<path d="M0 0 C0.77988281 0.58136719 1.55976563 1.16273438 2.36328125 1.76171875 C3.29785156 2.45652344 4.23242188 3.15132813 5.1953125 3.8671875 C11.84895849 9.27385648 11.84895849 9.27385648 13.12890625 12.9765625 C13.29987127 16.25542739 12.55507604 18.46251888 10.80078125 21.19921875 C7.54553246 23.2859167 5.22470967 23.6155448 1.36328125 23.76171875 C-1.62890625 22.03125 -1.62890625 22.03125 -4.51171875 19.57421875 C-15.2162234 10.83804871 -25.00413902 8.79089311 -38.63671875 9.76171875 C-47.30113695 11.66419452 -54.80002186 16.19907164 -61.26171875 22.19921875 C-63.63671875 23.76171875 -63.63671875 23.76171875 -67.19921875 23.76171875 C-71.00399985 22.65487334 -72.50069941 22.09390893 -74.63671875 18.76171875 C-75.31598568 15.36538411 -75.56672964 13.95281862 -74.63671875 10.76171875 C-67.81227801 0.58322049 -55.11253565 -4.86758288 -43.625 -7.578125 C-28.82524611 -10.30333371 -12.70348227 -8.47610498 0 0 Z " fill="#000000" transform="translate(211.63671875,265.23828125)"/>
<path d="M0 0 C0.77444458 -0.00700928 1.54888916 -0.01401855 2.34680176 -0.02124023 C4.90344232 -0.03882686 7.45897344 -0.02719576 10.015625 -0.01367188 C11.79394747 -0.01636661 13.57226851 -0.02024888 15.35058594 -0.02526855 C19.07631468 -0.03116448 22.80165964 -0.02259774 26.52734375 -0.00390625 C31.30261787 0.01888354 36.07699276 0.00576094 40.85223389 -0.01819611 C44.52399468 -0.03265162 48.19554235 -0.02804927 51.86730957 -0.01768494 C53.62797146 -0.01501696 55.38865271 -0.01828992 57.14929199 -0.02760315 C59.61046587 -0.03776495 62.0701845 -0.0222744 64.53125 0 C65.2586438 -0.00809692 65.9860376 -0.01619385 66.73547363 -0.02453613 C70.17906688 0.03319039 71.96216633 0.28135145 74.71582031 2.42492676 C76.39732531 4.69540881 76.80921353 5.72791231 76.765625 8.51757812 C76.78109375 9.50757813 76.78109375 9.50757813 76.796875 10.51757812 C75.99974611 13.51853394 74.71165797 14.61346966 72.265625 16.51757812 C69.55182754 16.91240719 67.2431129 17.06534313 64.53125 17.03515625 C63.36958313 17.04567017 63.36958313 17.04567017 62.18444824 17.05639648 C59.62780768 17.07398311 57.07227656 17.06235201 54.515625 17.04882812 C52.73730253 17.05152286 50.95898149 17.05540513 49.18066406 17.0604248 C45.45493532 17.06632073 41.72959036 17.05775399 38.00390625 17.0390625 C33.22863213 17.01627271 28.45425724 17.02939531 23.67901611 17.05335236 C20.00725532 17.06780787 16.33570765 17.06320552 12.66394043 17.05284119 C10.90327854 17.05017321 9.14259729 17.05344617 7.38195801 17.0627594 C4.92078413 17.0729212 2.4610655 17.05743065 0 17.03515625 C-0.7273938 17.04325317 -1.4547876 17.0513501 -2.20422363 17.05969238 C-5.64781688 17.00196586 -7.43091633 16.7538048 -10.18457031 14.61022949 C-11.86607531 12.33974744 -12.27796353 11.30724394 -12.234375 8.51757812 C-12.24984375 7.52757812 -12.24984375 7.52757812 -12.265625 6.51757812 C-10.59962649 0.24558375 -5.60949142 -0.06244159 0 0 Z " fill="#000000" transform="translate(267.734375,367.482421875)"/>
<path d="M0 0 C1.23234375 -0.00515625 2.4646875 -0.0103125 3.734375 -0.015625 C5.66023438 0.00757813 5.66023438 0.00757813 7.625 0.03125 C8.90890625 0.01578125 10.1928125 0.0003125 11.515625 -0.015625 C12.74796875 -0.01046875 13.9803125 -0.0053125 15.25 0 C16.93996094 0.00676758 16.93996094 0.00676758 18.6640625 0.01367188 C22.24166744 0.63904477 23.4170394 1.70601009 25.625 4.53125 C26.15625 6.53125 26.15625 6.53125 26.125 8.53125 C26.1353125 9.19125 26.145625 9.85125 26.15625 10.53125 C25.37301553 13.47989743 23.98547957 14.62688291 21.625 16.53125 C18.6640625 17.04882812 18.6640625 17.04882812 15.25 17.0625 C14.01765625 17.06765625 12.7853125 17.0728125 11.515625 17.078125 C10.23171875 17.06265625 8.9478125 17.0471875 7.625 17.03125 C5.69914062 17.05445313 5.69914062 17.05445313 3.734375 17.078125 C2.50203125 17.07296875 1.2696875 17.0678125 0 17.0625 C-1.68996094 17.05573242 -1.68996094 17.05573242 -3.4140625 17.04882812 C-6.99166744 16.42345523 -8.1670394 15.35648991 -10.375 12.53125 C-10.90625 10.53125 -10.90625 10.53125 -10.875 8.53125 C-10.89046875 7.54125 -10.89046875 7.54125 -10.90625 6.53125 C-9.40045794 0.86238576 -5.27296302 0.02111598 0 0 Z " fill="#000000" transform="translate(374.375,367.46875)"/>
</svg>
