<svg xmlns="http://www.w3.org/2000/svg" xmlns:xlink="http://www.w3.org/1999/xlink" width="500" zoomAndPan="magnify" viewBox="0 0 375 374.999991" height="500" preserveAspectRatio="xMidYMid meet" version="1.0"><defs><clipPath id="05cc886b93"><path d="M 28.058594 28.058594 L 346.941406 28.058594 L 346.941406 346.941406 L 28.058594 346.941406 Z M 28.058594 28.058594 " clip-rule="nonzero"/></clipPath><clipPath id="f40a3ac762"><path d="M 187.5 28.058594 C 99.441406 28.058594 28.058594 99.441406 28.058594 187.5 C 28.058594 275.558594 99.441406 346.941406 187.5 346.941406 C 275.558594 346.941406 346.941406 275.558594 346.941406 187.5 C 346.941406 99.441406 275.558594 28.058594 187.5 28.058594 " clip-rule="nonzero"/></clipPath><clipPath id="7845103efb"><path d="M 92 0.15625 L 346.976562 0.15625 L 346.976562 374.511719 L 92 374.511719 Z M 92 0.15625 " clip-rule="nonzero"/></clipPath><clipPath id="3e0ae549b3"><path d="M 92 70.488281 L 346.976562 70.488281 L 346.976562 374.84375 L 92 374.84375 Z M 92 70.488281 " clip-rule="nonzero"/></clipPath><clipPath id="b1248e7784"><path d="M 261.339844 73 L 319.765625 73 L 319.765625 197.9375 L 261.339844 197.9375 Z M 261.339844 73 " clip-rule="nonzero"/></clipPath><clipPath id="18401ef9e5"><path d="M 28.167969 27.628906 L 244 27.628906 L 244 331.8125 L 28.167969 331.8125 Z M 28.167969 27.628906 " clip-rule="nonzero"/></clipPath><clipPath id="c701590199"><path d="M 28.257812 27.628906 L 243.945312 27.628906 L 243.945312 188 L 28.257812 188 Z M 28.257812 27.628906 " clip-rule="nonzero"/></clipPath></defs><g clip-path="url(#05cc886b93)"><g clip-path="url(#f40a3ac762)"><path fill="#f4f2f2" d="M 28.058594 28.058594 L 346.941406 28.058594 L 346.941406 346.941406 L 28.058594 346.941406 Z M 28.058594 28.058594 " fill-opacity="1" fill-rule="nonzero"/></g></g><g clip-path="url(#7845103efb)"><path fill="#f68712" d="M 346.546875 187.300781 C 346.546875 274.316406 275.550781 344.835938 187.992188 344.835938 C 173.992188 344.835938 160.40625 343.019531 147.460938 339.644531 L 92.667969 374.441406 L 152.757812 318.359375 L 283.308594 196.546875 L 223.707031 179.824219 C 223.707031 179.824219 275.015625 127.710938 277.453125 74.921875 C 278.726562 47.859375 267.140625 20.644531 229.203125 0.195312 C 280.332031 12.136719 292.171875 53.828125 294.894531 70.964844 L 294.917969 70.964844 L 294.917969 70.988281 C 326.65625 99.808594 346.546875 141.234375 346.546875 187.289062 " fill-opacity="1" fill-rule="nonzero"/></g><g clip-path="url(#3e0ae549b3)"><path fill="#ffc108" d="M 346.546875 187.355469 C 346.546875 274.511719 275.550781 345.144531 187.992188 345.144531 C 173.992188 345.144531 160.40625 343.324219 147.460938 339.945312 L 92.667969 374.796875 L 152.757812 318.625 L 283.296875 196.617188 C 352.054688 132.347656 296.582031 72.617188 294.941406 70.855469 C 326.667969 99.722656 346.546875 141.21875 346.546875 187.34375 " fill-opacity="1" fill-rule="nonzero"/></g><g clip-path="url(#b1248e7784)"><path fill="#f14624" d="M 285.558594 197.300781 C 354.058594 133.972656 298.785156 75.097656 297.160156 73.375 C 327.636719 131.976562 286.71875 172.457031 261.339844 190.554688 L 285.558594 197.289062 " fill-opacity="1" fill-rule="nonzero"/></g><g clip-path="url(#18401ef9e5)"><path fill="#3871c1" d="M 243.175781 37.332031 C 242.78125 41.542969 241.933594 46.132812 240.523438 51.054688 C 231.128906 84.132812 196.476562 133.390625 98.460938 201.132812 L 175.859375 228.078125 L 128.84375 312.464844 L 118.109375 331.71875 C 64.847656 305.621094 28.167969 251.097656 28.167969 187.976562 C 28.167969 99.605469 100.136719 27.964844 188.925781 27.964844 C 207.96875 27.964844 226.21875 31.25 243.152344 37.308594 " fill-opacity="1" fill-rule="nonzero"/></g><g clip-path="url(#c701590199)"><path fill="#000f52" d="M 243.089844 37.300781 C 203.59375 124.109375 28.257812 187.476562 28.257812 187.476562 C 28.257812 99.382812 100.167969 27.964844 188.878906 27.964844 C 207.910156 27.964844 226.144531 31.238281 243.0625 37.277344 " fill-opacity="1" fill-rule="nonzero"/></g></svg>